<svg xmlns="http://www.w3.org/2000/svg" width="1008" height="612"><g id="LLSFP"><path fill="none" stroke="#3D4899" stroke-width=".709" stroke-linecap="round" stroke-linejoin="round" stroke-miterlimit="500" d="M314.8 212.4v-27"/><path fill="none" stroke="#12100B" stroke-width=".5" stroke-miterlimit="500" d="M590.5 321.5v-2.2M591.7 320.4v-1.1M591.7 320.4h57v-4.9h-10.4"/><path fill="none" stroke="#12100B" stroke-width=".5" stroke-miterlimit="500" d="M638.3 314.4h11.5v7.1h-59.3"/><path fill="none" stroke="#12100B" stroke-width=".3" stroke-linecap="round" stroke-linejoin="round" stroke-miterlimit="500" stroke-dasharray="3,1" d="M626.5 316.6h-26.4M604 316.6h22.5"/><path fill="none" stroke="#12100B" stroke-width=".5" stroke-miterlimit="500" d="M637 350.8v-29.3M629.5 350.8v-29.3M622 350.8v-29.3M614.5 350.8v-29.3M607 350.8v-29.3M599.5 350.8v-29.3M592 350.8v-29.3M646 316.6v-1.1M638.5 316.6v-1.1M644.5 350.8v-29.3M638.5 314.4v-29.3M646 314.4v-29.3M637 320.4v-1.1M644.5 320.4v-1.1M614.5 320.4v-1.1M622 320.4v-1.1M629.5 320.4v-1.1M592 320.4v-1.1M599.5 320.4v-1.1M607 320.4v-1.1"/><path fill="none" stroke="#12100B" stroke-width=".3" stroke-miterlimit="500" stroke-dasharray="3,1" d="M584.5 320.4v-1.1M583 321.5v-2.2M584.2 320.4v-1.1M590.5 321.5H583M584.2 320.4h6.3"/><path fill-rule="evenodd" clip-rule="evenodd" fill="#12100B" stroke="#12100B" stroke-width=".5" d="M548.8 473v-1.8 1.8-1.9H406.4V230.4h-85.5v-18H310v88.1H202v198h201v-18h118.5v36H688v-71.6h-7.5V509h-93v-36h-38.7zM395.5 241.3h-78V308h-108v183h186V241.3zM631 156.5v10.1H320.9v18.8H310v-28.9zM580.2 316.6h67.3v2.6h-67.3zM677.9 209.8H688v-53.3h-21v10.1h10.9z"/><path fill-rule="evenodd" clip-rule="evenodd" fill="#12100B" stroke="#12100B" stroke-width=".5" d="M629.2 282.5h48.7v-45.7H688v181.1h-7.5v-64.5H580.3v-2.6H679v-65.7h-49.8z"/><g fill="none" stroke="#2B2422" stroke-width=".5" stroke-miterlimit="10"><path d="M636.5 336.3h-52.7M632.8 340.1l3.7-3.8-3.7-3.7"/></g><path fill="none" stroke="#12100B" stroke-width=".5" stroke-miterlimit="10" d="M658 369c0-5 4-9 9-9s9 4 9 9-4 9-9 9c-4.9 0-9-4-9-9M658 497.6c0-5 4-9 9-9s9 4 9 9-4 9-9 9c-4.9 0-9-4-9-9M617.2 363.6h18v18h-18z"/><g fill="none" stroke="#12100B" stroke-miterlimit="10"><path stroke-width=".5" d="M629.3 156.5v-5h39.2v5H667v10.2h-36.3v-10.2z"/><path stroke-width=".3" d="M630.7 160.7H667M630.7 162.5H667"/></g><path fill="none" stroke="#12100B" stroke-width=".5" stroke-linecap="round" stroke-linejoin="round" stroke-miterlimit="10" d="M655.1 130.2h-12M655.1 129.8h-12M655 132.8v-2.4h.5v2.4h-.5M643.1 132.8v-2.4h-.5"/><path fill="none" stroke="#12100B" stroke-width=".5" stroke-linecap="round" stroke-linejoin="round" stroke-miterlimit="10" d="M642.6 130.4v2.4h.5"/><path fill="none" stroke="#12100B" stroke-width=".5" stroke-linecap="round" stroke-linejoin="round" stroke-miterlimit="10" d="M642.2 133.2v-.4h13.7v.4h-13.7M668.6 157.2v-12.7M668.9 157.2v-12.7M668.5 156.9h2M668.5 156.5h2v.4M629.2 144.6v11.9M629.6 157.2v-12.7M629.5 156.9h-2M629.5 156.5h-2v.4M655.1 130.2c7.5.2 13.5 6.4 13.5 14v.4"/><path fill="none" stroke="#12100B" stroke-width=".5" stroke-linecap="round" stroke-linejoin="round" stroke-miterlimit="10" d="M655.1 129.8c7.7.3 13.9 6.6 13.9 14.3v.4M629.6 144.5v-.4c0-7.5 6-13.7 13.5-14"/><path fill="none" stroke="#12100B" stroke-width=".5" stroke-linecap="round" stroke-linejoin="round" stroke-miterlimit="10" d="M629.2 144.6v-.4c0-7.7 6.1-14.1 13.9-14.3"/><path fill="none" stroke="#12100B" stroke-width=".5" stroke-miterlimit="10" d="M310 215.4c-9.1 0-16.5-7.4-16.5-16.5s7.4-16.5 16.5-16.5"/><g fill="none" stroke="#12100B" stroke-miterlimit="10"><path stroke-width=".431" d="M310.1 213.3h-2.7v-29h2.7v1.1h7.5v26.9h-7.5z"/><path stroke-width=".259" d="M313.2 212.3v-26.9M314.5 212.3v-26.9"/></g><path fill="none" stroke="#12100B" stroke-width=".5" stroke-miterlimit="10" d="M688.1 206.7c9.1 0 16.5 7.4 16.5 16.5s-7.4 16.5-16.5 16.5"/><g fill="none" stroke="#12100B" stroke-miterlimit="10"><path stroke-width=".431" d="M688 208.7h2.8v29.1H688v-1.1h-7.5v-26.9h7.5z"/><path stroke-width=".259" d="M685 209.8v26.9M683.6 209.8v26.9"/></g><path fill="none" stroke="#12100B" stroke-width=".5" stroke-miterlimit="10" d="M688.1 414.8c9.1 0 16.5 7.4 16.5 16.5s-7.4 16.5-16.5 16.5"/><g fill="none" stroke="#12100B" stroke-miterlimit="10"><path stroke-width=".433" d="M688 416.8h2.8v29.1H688v-1.1h-7.5v-26.9h7.5z"/><path stroke-width=".26" d="M684.9 417.9v26.9M683.6 417.9v26.9"/></g><text transform="matrix(1 0 0 1 269.1542 390.6592)" fill="#12100B" font-family="'Berkeley-Bold'" font-size="12">Unexcavated</text><text transform="matrix(1 0 0 1 618.8019 374.4565)" fill="#2B2422" font-family="'Berkeley-Bold'" font-size="6">HVAC</text><text transform="matrix(1 0 0 1 661.1985 372.106)" fill="#2B2422" font-family="'Berkeley-Bold'" font-size="8">WH</text><text transform="matrix(1 0 0 1 658.3946 499.542)" fill="#2B2422" font-family="'Berkeley-Bold'" font-size="7">Sump</text><text transform="matrix(1 0 0 1 572.4886 338.377)" fill="#2B2422" font-family="'Berkeley-Bold'" font-size="8">Up</text><text transform="matrix(1 0 0 1 455.1611 311.1118)"><tspan x="0" y="0" fill="#12100B" font-family="'Berkeley-Bold'" font-size="12">Unfinished Basement</tspan><tspan x="25.7" y="12" fill="#12100B" font-family="'Berkeley-Bold'" font-size="10">30&apos;10&quot; x 13&apos;2&quot;</tspan></text></g><g id="LL_OPT_1"><path fill-rule="evenodd" clip-rule="evenodd" fill="#FFF" d="M451.9 297.3h115.2v30H451.9z"/><path fill="none" stroke="#12100B" stroke-width=".3" stroke-linecap="round" stroke-linejoin="round" stroke-miterlimit="500" stroke-dasharray="3,1" d="M600.1 271.6h26.4M625 280.1L614.1 293M602.7 271.6l9.8 21.4M602.7 316.6l9.8-21.3M625 308.1l-10.9-12.8M626.5 271.6v45M626.5 316.6h-26.4M600.1 263.5v53.1M602.7 271.6v45"/><path fill="none" stroke="#12100B" stroke-width=".5" stroke-miterlimit="500" d="M677.9 272.9h-48.7"/><path fill="none" stroke="#12100B" stroke-width=".3" stroke-linecap="round" stroke-linejoin="round" stroke-miterlimit="500" stroke-dasharray="3,1" d="M604 316.6h22.5M601.4 299.3v-10.4h-.7v26.9h.7v-16.5h.8v-26.9h-.8v16.5M613 316.7v-4.6l12-4v-28l-12-4v-4.5"/><circle fill="none" stroke="#12100B" stroke-width=".3" stroke-linecap="round" stroke-linejoin="round" stroke-miterlimit="500" stroke-dasharray="3,1" cx="613.3" cy="294.1" r="1.5"/><path fill="none" stroke="#12100B" stroke-width=".5" stroke-miterlimit="500" d="M614.5 320.4v-1.1M622 320.4v-1.1M629.5 320.4v-1.1M599.5 320.4v-1.1M607 320.4v-1.1"/><path fill="none" stroke="#12100B" stroke-width=".3" stroke-miterlimit="500" stroke-dasharray="3,1" d="M584.5 350.8v-29.3M584.5 320.4v-1.1M583 321.5v-2.2M584.2 320.4v-1.1M590.5 321.5H583M584.2 320.4h6.3M677.9 274.1h-48.7M406.4 332.8h53.3M459.7 332.8v18"/><path fill-rule="evenodd" clip-rule="evenodd" fill="#12100B" stroke="#12100B" stroke-width=".5" d="M555.8 166.6v67.5h-2.6v-67.5M553.2 319.3v-5.7h2.6v3h91.7v2.7z"/><g fill="none" stroke="#2A2422" stroke-width=".3" stroke-miterlimit="10" stroke-dasharray="3,1"><path d="M427.5 334.2H440v15.2h-12.5z"/><path d="M437.9 337.5c0-.9-.8-1.6-1.8-1.6h-4.9c-1 0-1.8.7-1.8 1.6v8.6c0 .9.8 1.6 1.8 1.6h4.9c1 0 1.8-.7 1.8-1.6v-8.6z"/></g><g fill="none" stroke="#12100B" stroke-miterlimit="10"><path stroke-width=".35" d="M574.7 369.1l-16.3-16.3-.6.6 16.3 16.3.6-.6"/><path stroke-width=".5" d="M580.4 353.4c-.1 6.1-1.3 10.7-5.6 15.7-2.3 2.7-4.7 4.1-4.7 4.1"/></g><g fill="none" stroke="#12100B" stroke-miterlimit="10"><path stroke-width=".35" d="M520.2 369.1l16.3-16.3.6.6-16.3 16.3-.6-.6"/><path stroke-width=".5" d="M514.5 353.4c.1 6.1 1.3 10.7 5.6 15.7 2.3 2.7 4.7 4.1 4.7 4.1"/></g><g fill="none" stroke="#12100B" stroke-miterlimit="10"><path stroke-width=".35" d="M571.8 239.5L555.4 256l.6.6 16.4-16.4-.6-.7"/><path stroke-width=".5" d="M576 244.2s-1.5-2.4-4.2-4.7c-5.1-4.3-9.6-5.6-15.8-5.7"/></g><g fill="none" stroke="#12100B" stroke-miterlimit="10" stroke-dasharray="3,1"><path stroke-width=".35" d="M570.5 297.7L555.3 313l.5.6 15.3-15.3-.6-.6"/><path stroke-width=".5" d="M574.4 302.1s-1.4-2.2-3.9-4.4c-4.7-4-9-5.2-14.7-5.3"/></g><path fill="none" stroke="#12100B" stroke-width=".5" stroke-miterlimit="10" stroke-dasharray="3,1" d="M597.1 265.3h-13.5c-.6 0-1.2.6-1.2 1.2s.1 1.6.1 2.9c0 1.3 1.9 2.2 1.9 3.9 0 1.7 1.2 13.1 6.2 13.1s6-11.2 6-13.2c0-2.4 2.1-3.2 2.1-4v-2.6c-.1-1.1-.6-1.3-1.6-1.3z"/><g fill="none" stroke="#12100B" stroke-width=".5" stroke-miterlimit="10" stroke-dasharray="3,1"><path d="M555.8 263.8h22.5v16.3h-22.5z"/><ellipse cx="567.1" cy="271.6" rx="7.7" ry="6.1"/></g><g fill="none" stroke="#12100B" stroke-miterlimit="10"><path stroke-width=".35" d="M660.2 248.6l13 13 .5-.5-13-13-.5.5"/><path stroke-width=".5" d="M655.7 261.1c.1-4.9 1.1-8.5 4.5-12.5 1.8-2.1 3.7-3.3 3.7-3.3"/><path stroke-width=".35" d="M651.2 248.6l-13 13-.5-.5 13-13 .5.5"/><path stroke-width=".5" d="M655.7 261.1c-.1-4.9-1.1-8.5-4.5-12.5-1.8-2.1-3.7-3.3-3.7-3.3"/></g><text transform="matrix(1 0 0 1 455.3901 233.6836)"><tspan x="0" y="0" fill="#12100B" font-family="'Berkeley-BoldItalic'" font-size="12">Optional</tspan><tspan x="-21" y="12" fill="#12100B" font-family="'Berkeley-BoldItalic'" font-size="12">Recreation Room</tspan><tspan x="-5.8" y="24" fill="#12100B" font-family="'Berkeley-BoldItalic'" font-size="10">25&apos;10&quot; x 20&apos;5&quot;</tspan></text><text transform="matrix(1 0 0 1 421.8917 406.9336)"><tspan x="0" y="0" fill="#12100B" font-family="'Berkeley-BoldItalic'" font-size="12">Optional Multipurpose</tspan><tspan x="40.8" y="12" fill="#12100B" font-family="'Berkeley-BoldItalic'" font-size="12"> Room</tspan><tspan x="31.8" y="24" fill="#12100B" font-family="'Berkeley-BoldItalic'" font-size="10">16&apos;6&quot; x 13&apos;1&quot;</tspan></text><text transform="matrix(1 0 0 1 590.6462 210.9819)"><tspan x="0" y="0" fill="#12100B" font-family="'Berkeley-BoldItalic'" font-size="12">Optional Den</tspan><tspan x="8.4" y="12" fill="#12100B" font-family="'Berkeley-BoldItalic'" font-size="10">13&apos;7&quot; x 10&apos;6&quot;</tspan></text><text transform="matrix(1 0 0 1 587.3594 431.5669)"><tspan x="0" y="0" fill="#12100B" font-family="'Berkeley-Bold'" font-size="12">Utility Room</tspan><tspan x="5.9" y="12" fill="#12100B" font-family="'Berkeley-Bold'" font-size="10">14&apos;8&quot; x 17&apos;3&quot;</tspan></text><text transform="matrix(1 0 0 1 575.3445 294.897)"><tspan x="0" y="0" fill="#12100B" font-family="'Berkeley-Italic'" font-size="8">Opt.</tspan><tspan x="-.5" y="8" fill="#12100B" font-family="'Berkeley-Italic'" font-size="8">Bath</tspan></text><text transform="matrix(1 0 0 1 426.5496 321.23)"><tspan x="0" y="0" fill="#12100B" font-family="'Berkeley-Italic'" font-size="8">Opt.</tspan><tspan x="-5.8" y="8" fill="#12100B" font-family="'Berkeley-Italic'" font-size="8">Wet Bar</tspan></text><path fill-rule="evenodd" clip-rule="evenodd" fill="#12100B" stroke="#12100B" stroke-width=".5" d="M406.4 350.8h108.2v2.6H406.4zM548.8 473V353.4h9v-2.6h-20.7v2.6h9v117.7zM673.7 261.1h4.2v2.6h-4.2zM679 285.1h-49.8v31.5h-2.7v-52.8h-70.7v28.8h-2.6v-36h2.6v4.5h81.9v2.7h-8.5v18.7h48.7"/></g><g id="LL_OPT_2"><path fill-rule="evenodd" clip-rule="evenodd" fill="#FFF" d="M688.1 235.4h-16.6v-64.5H317.6v-44h370.5z"/><path fill-rule="evenodd" clip-rule="evenodd" fill="#FFF" d="M288.8 154.5h35.5v75.6h-35.5z"/><path fill="none" stroke="#12100B" stroke-width=".3" stroke-linecap="round" stroke-linejoin="round" stroke-miterlimit="500" stroke-dasharray="3,1" d="M175 230h-1.5M276.3 232.3v-1.2M277 232.3h-.7M276.3 231.1H175M175 230.4h102M277 230.4v1.9M173.5 230v1.5M173.5 231.5h1.5M175 231.5V230M310 165.5H173.5M173.5 159.5H310M173.5 165.5v-6M173.5 232.3H310M173.5 238.3v-6M310 238.3H173.5M235 165.5v66.8M242.5 165.5v66.8M250 165.5v66.8M257.5 165.5v66.8M265 165.5v66.8M294.1 195.3l15.9-29.8M310 232.3l-15.9-29.9M287 195.3v7.1M294.1 202.4v-7.1M287 202.4h7.1M272.5 232.3l14.5-29.9M272.5 165.5v66.8M287 195.3l-14.5-29.8M294.1 195.3H287M182.5 165.5v66.8M175 165.5v66.8M190 165.5v66.8M197.5 165.5v66.8M205 165.5v66.8M212.5 165.5v66.8M227.5 165.5v66.8M220 165.5v66.8M280.4 235.6h31.9M280.4 236v-.4M278.9 236h1.5M278.9 235.6v.4M247.8 235.6h31.1M247.8 236v-.4M246.3 236h1.5M246.3 235.6v.4M213.7 236v-.4M212.2 236h1.5M212.2 235.6v.4M175 235.6h37.2M175 236v-.4M173.5 236h1.5M173.5 234.5v1.5M175 234.5h-1.5M175 234.9v-.4M212.2 234.9H175M212.2 234.5v.4M213.7 234.5h-1.5M213.7 234.9v-.4M246.3 234.5v.4M247.8 234.5h-1.5M247.8 234.9v-.4M278.9 234.9h-31.1M278.9 234.5v.4M280.4 234.5h-1.5M280.4 234.9v-.4M312.3 234.9h-31.9M280.4 235.6v-.7M278.9 234.9v.7M247.8 235.6v-.7M246.3 234.9v.7M213.7 235.6v-.7M212.2 234.9v.7M175 234.9v.7M213.7 162.1h32.6M213.7 161.8v.3M212.2 161.8h1.5M212.2 162.1v-.3M175 161.8v.3M173.5 161.8h1.5M173.5 163.3v-1.5M175 163.3h-1.5M175 162.9v.4M212.2 163.3v-.4M213.7 163.3h-1.5M213.7 162.9v.4M312.3 162.9h-31.9M213.7 162.1v.8M212.2 162.9v-.8M175 162.9v-.8M247.8 161.8v.3M247.8 161.8h-1.5M246.3 163.3v-1.5M246.3 163.3h1.5M247.8 162.9v.4M247.8 162.9v-.8M280.4 163.3v-.4M278.9 163.3h1.5M278.9 162.9v.4M278.9 161.8v.3M280.4 161.8h-1.5M280.4 162.1v-.3M280.4 162.9v-.8M278.9 162.1v.8M247.8 162.1h31.1M246.3 162.9h-32.6M280.4 162.1h31.9M278.9 162.9h-31.1M212.2 162.9H175M175 162.1h37.2M213.7 235.6h32.6M246.3 234.9h-32.6"/><path fill-rule="evenodd" clip-rule="evenodd" fill="#12100B" stroke="#12100B" stroke-width=".5" d="M555.8 161.2v72.9h-2.6v-67.5h0v-5.4z"/><path fill="#12100B" stroke="#12100B" stroke-width=".5" d="M688 253.9h-7.5V53H661v-4.5h27v205.4M510.3 48.5V71h4.5V53h112v-4.5H510.3zM482 120.5h28.3V98h4.5v27H482v-4.5M399.6 120.5H428v4.5h-23.9v36H351v-4.5h48.6v-36"/><path fill="#12100B" stroke="#12100B" stroke-width=".5" d="M310 156.5h40.5v4.5h-33v72.8H403v20.1h-4.1v-14.3h-81.4v14.3H310v-97.4"/><path fill="none" stroke="#12100B" stroke-width=".5" stroke-dasharray="3,1" d="M680.5 161h-18v-4.5h17.8M635.5 156.5v4.5H514.8v-4.5h120.7M404.2 156.5h27.3M431.5 156.5v4.5h-27.6"/><path fill="#FFF" stroke="#12100B" stroke-width=".5" stroke-dasharray="3,1" d="M514.8 161h-29.3v-4.5h24.8v-27h4.5V161"/><g fill="none" stroke="#2B2422" stroke-width=".3" stroke-miterlimit="10" stroke-dasharray="3,1"><path d="M184.5 199.9h89.8M188.2 196.1l-3.7 3.8 3.7 3.7"/></g><g fill="none" stroke="#12100B" stroke-width=".5" stroke-dasharray="3,1"><path d="M510.1 73.9h-1.8v57.3h1.9M511.7 76.1h1v27.3h-1zM510.2 101.8h1v27.3h-1z"/></g><g fill="none" stroke="#12100B" stroke-miterlimit="10" stroke-dasharray="3,1"><path stroke-width=".5" d="M634.6 156.5v-2.3h29.1v2.3h-1.2v4.6h-26.9v-4.6z"/><path stroke-width=".3" d="M635.6 158.4h26.9M635.6 159.2h26.9"/></g><g fill="none" stroke="#12100B" stroke-width=".5" stroke-dasharray="3,1"><path d="M486.9 156.4v-1.9h-57.3v1.9M457.5 158h27.3v1h-27.3zM431.7 156.5H459v1h-27.3z"/></g><path fill="none" stroke="#12100B" stroke-width=".5" stroke-miterlimit="10" d="M482 122.8h-54M482 123.9h-27.6M455.5 121.6H428M454.4 122.8v1.1M455.5 121.6v1.2M483.1 119.4h-56.3M483.1 119.4v1.1M426.8 119.4v1.1"/><g fill="none" stroke="#12100B" stroke-miterlimit="10"><path stroke-width=".35" d="M533.6 91.3L514 71.8l.8-.8 19.5 19.6-.7.7"/><path stroke-width=".5" d="M514.8 98.1c7.3-.1 12.8-1.6 18.8-6.7 3.2-2.7 5-5.6 5-5.6"/></g><path fill="none" stroke="#12100B" stroke-width=".5" stroke-miterlimit="10" d="M510.2 99.3H509V69.9h1.2"/><g fill="none" stroke="#12100B" stroke-miterlimit="10"><path stroke-width=".334" d="M625.4 48.5v-2.3h38.9v2.3h-1.5v4.6h-36v-4.6z"/><path stroke-width=".201" d="M626.8 50.3h36M626.8 51.2h36"/></g><text transform="matrix(1 0 0 1 237.1863 147.6304)"><tspan x="0" y="0" fill="#12100B" font-family="'Berkeley-Italic'" font-size="8">Opt.</tspan><tspan x="-7.3" y="8" fill="#12100B" font-family="'Berkeley-Italic'" font-size="8">Areaway</tspan></text><text transform="matrix(1 0 0 1 552.9131 104.4429)" fill="#12100B" font-family="'Berkeley-Bold'" font-size="12">Sunroom Extension</text><text transform="matrix(1 0 0 1 370.7217 107.3457)" fill="#12100B" font-family="'Berkeley-Bold'" font-size="12">Morning Room Extension</text><text transform="matrix(1 0 0 1 275.4926 201.2915)" fill="#2B2422" font-family="'Berkeley-Bold'" font-size="8">Up</text></g><g id="LL_OPT_3"><path fill-rule="evenodd" clip-rule="evenodd" fill="#FFF" d="M620.4 40.1h51.1V64h-51.1zM688.1 235.4h-16.6v-64.5h-108v62.5h-7.4v1H552v-63.5H317.6v-54.4h188V64h35.6v87.8h146.9zM163.8 135.8h153.8v112H163.8z"/><path fill="none" stroke="#12100B" stroke-width=".5" stroke-dasharray="3,1" d="M556 164.1v69.8h2.6V164"/><path fill="#12100B" stroke="#12100B" stroke-width=".5" d="M564.3 56h65.2v-7.5h-93.7V56zM688 253.9h-7.5V56h-15v-7.5H688v205.4"/><path fill="#12100B" stroke="#12100B" stroke-width=".5" d="M517.8 56v72H407.1v36h-65.6v-7.5h58.1v-36h110.7v-72h27V56h-19.5"/><path fill="#12100B" stroke="#12100B" stroke-width=".5" d="M310 156.5h31.5v7.5h-24v69.8H403v20.1h-7.5v-12.6h-78v12.6H310v-97.4"/><path fill="none" stroke="#12100B" stroke-width=".5" stroke-dasharray="3,1" d="M518 156.5h162.7M407.2 156.5h103.1V128M680.7 164H407.1M517.8 128v36"/><path fill="#12100B" stroke="#12100B" stroke-width=".5" stroke-dasharray="3,1" d="M310 121.1V86M310 156.4v-30.6"/><path fill="none" stroke="#12100B" stroke-width=".5" stroke-dasharray="3,1" d="M316 121.4v35.1M310 86h6v30.5M269.5 86h6v62.5l-6 5V86M310 230h-40.5v-71.7l6-5V224"/><path fill="#12100B" stroke="#12100B" stroke-width=".5" stroke-dasharray="3,1" d="M275.5 224H310"/><path fill="none" stroke="#12100B" stroke-width=".3" stroke-dasharray="3,1" d="M269.5 87.8V86M308.5 226.3H307M308.5 227.8v-1.5M307 227.8h1.5M307 227.4v.4M273.3 227.4H307M273.3 227.8v-.4M271.8 227.8h1.5M271.8 226.3v1.5M272.2 226.3h-.4M272.2 194.4v31.9M271.8 194.4h.4M271.8 192.9v1.5M272.2 192.9h-.4M272.2 160.3v32.6M271.8 160.3h.4M271.8 158.8v1.5M272.2 158.8h-.4M272.2 126.1v25.2M271.8 126.1h.4M271.8 124.6v1.5M272.2 124.6h-.4M272.2 87.5v37.1M271.8 87.5h.4M271.8 86v1.5M273.3 86h-1.5M273.3 87.5V86M272.9 87.5h.4M272.9 124.6V87.5M273.3 124.6h-.4M273.3 126.1v-1.5M272.9 126.1h.4M272.9 158.8v-3.3M273.3 158.8h-.4M273.3 160.3v-1.5M272.9 160.3h.4M272.9 192.9v-32.6M273.3 192.9h-.4M273.3 194.4v-1.5M272.9 194.4h.4M272.9 226.3v-31.9M273.3 226.3h-.4M273.3 226.6v-.3M307 226.6h-33.7M307 226.3v1.1M272.9 226.3h-.7M273.3 227.4v-.8M272.2 194.4h.7M272.9 192.9h-.7M272.2 160.3h.7M272.9 158.8h-.7M272.2 126.1h.7M272.9 124.6h-.7M272.9 87.5h-.7M310 95h-34.5M310 102.5h-34.5M310 110h-34.5M310 117.5h-34.5M305 125h-29.5M310 132.5h-8.5M295.4 132.5h-19.9M290 140h-.7M272.9 150.7v-24.6M272.2 156.1v2.7M313.4 126.1v28M313.8 126.1h-.4M313.8 124.6v1.5M313.4 124.6h.4M313.4 123.2v1.4M313.4 87.5v30.9M313.8 87.5h-.4M313.8 86v1.5M312.3 86h1.5M312.3 87.5V86M312.7 87.5h-.4M312.7 119.1V87.5M312.7 124.6v-.7M312.3 124.6h.4M312.3 126.1v-1.5M312.7 126.1h-.4M312.7 154.1v-28h.7M312.7 124.6h.7M312.7 87.5h.7M310 87.5h-34.5M313.8 155.6h-.4M313.8 154.1v1.5M312.3 154.1h1.5M312.3 155.6v-1.5M312.7 155.6h-.4M312.7 155.6h.7M285.5 140h-10M277.8 86h-1.5v1.5h1.5V86M277.4 87.5V147M276.7 147.6V87.5"/><g fill="none" stroke="#12100B" stroke-miterlimit="10"><path stroke-width=".5" d="M627.8 48.5v-3.7H667v3.7h-1.5V56h-36.3v-7.5z"/><path stroke-width=".3" d="M629.2 51.6h36.3M629.2 52.9h36.3"/></g><path fill="none" stroke="#12100B" stroke-width=".5" stroke-linecap="round" stroke-linejoin="round" stroke-miterlimit="10" d="M653.6 22.2h-12M653.6 21.8h-12M653.5 24.8v-2.4h.5v2.4h-.5M641.6 24.8v-2.4h-.5"/><path fill="none" stroke="#12100B" stroke-width=".5" stroke-linecap="round" stroke-linejoin="round" stroke-miterlimit="10" d="M641.1 22.4v2.4h.5M640.7 25.2v-.4h13.7v.4h-13.7M667.1 49.2V36.5M667.4 49.2V36.5M667 48.9h2M667 48.5h2v.4M627.7 36.6v11.9M628.1 49.2V36.5M628 48.9h-2M628 48.5h-2v.4M653.6 22.2c7.5.2 13.5 6.4 13.5 14v.4"/><path fill="none" stroke="#12100B" stroke-width=".5" stroke-linecap="round" stroke-linejoin="round" stroke-miterlimit="10" d="M653.6 21.8c7.7.3 13.9 6.6 13.9 14.3v.4M628.1 36.5v-.4c0-7.5 6-13.7 13.5-14"/><path fill="none" stroke="#12100B" stroke-width=".5" stroke-linecap="round" stroke-linejoin="round" stroke-miterlimit="10" d="M627.7 36.6v-.4c0-7.7 6.1-14.1 13.9-14.3"/><path fill="none" stroke="#12100B" stroke-width=".3" stroke-miterlimit="10" stroke-dasharray="3,1" d="M368.6 159.7h26.9"/><path fill="none" stroke="#12100B" stroke-width=".5" stroke-miterlimit="10" stroke-dasharray="3,1" d="M277.4 151.8v37.6l-1.9 1.6v-.7l1.2-1v-36.9M310 140h-18.2M310 147.5h-34.5M275.5 155H310M310 162.5h-34.5M310 170h-34.5M310 177.5h-34.5M296.3 208.1L310 224M275.5 224l13.7-15.9M296.3 200.9h-7.1M296.3 208.1v-7.2M289.2 208.1h7.1M289.2 200.9v7.2M275.5 185l13.7 15.9M310 185h-34.5M296.3 200.9L310 185M310 220.3v-31.5M262.7 159.1l22.9-18.9-1.1-3.1 5.7 3.4-1.1-3.1 32-24.9"/><path fill="none" stroke="#12100B" stroke-width=".5" stroke-miterlimit="10" stroke-dasharray="3,1" d="M264.9 162.1l22.9-18.9-1.1-3.1 5.7 3.4-1.1-3.1 30-23.3"/><g fill="none" stroke="#12100B" stroke-miterlimit="10" stroke-dasharray="3,1"><path stroke-width=".35" d="M339.7 196.6l-23.1 23.1.9.9 23-23.1-.8-.9"/><path stroke-width=".5" d="M317.5 188.6c8.6.1 15.1 1.9 22.2 8 3.8 3.2 5.9 6.6 5.9 6.6"/></g><text transform="matrix(1 0 0 1 334.656 212.7974)"><tspan x="0" y="0" fill="#12100B" font-family="'Berkeley-Italic'" font-size="8">Opt.</tspan><tspan x="-1.2" y="8" fill="#12100B" font-family="'Berkeley-Italic'" font-size="8">Door</tspan></text><text transform="matrix(1 0 0 1 243.6414 170.1304)"><tspan x="0" y="0" fill="#12100B" font-family="'Berkeley-Italic'" font-size="8">Opt.</tspan><tspan x="-7.3" y="8" fill="#12100B" font-family="'Berkeley-Italic'" font-size="8">Areaway</tspan></text></g><g id="MLSFP"><path fill="none" stroke="#2B2422" stroke-width=".3" stroke-miterlimit="500" stroke-dasharray="3,1" d="M610 393.1h-31.5M407.2 315v-68.5M407.2 350.8v-28.6M533.9 313.1v28.7h-78.7M542.9 282.5h-9v25.2M308.5 168.5h33.4M578.5 471.5v-60.7M574.4 471.5v-60.7M515.9 471.5v-60.7M520 471.5v-60.7M545.5 353.4h44.3M545.5 350.8h44.3M395.5 199.6v27M398.2 199.6v27M552.3 282.5h31.5M583.8 285.1h-31.5M425.2 350.8h27M452.2 353.4h-27"/><path fill-rule="evenodd" clip-rule="evenodd" fill="#12100B" stroke="#12100B" stroke-width=".5" d="M554.5 156.5h81v3h-81zM662.5 156.5v3h18v4.5h3v-7.5zM481 156.5h46.5v3H481zM680.5 191h3v60h-3zM427 156.5v3h-28.8v40.1h-2.7v-5.2h-3v-2.6h3v-32.3h-51v32.3h27v2.6h-35v-2.6h5.4v-32.3h-33.4v32.3h5.5v2.6h-5.5v7.1h-3v-45zM290.5 495.5h15v3h-15zM445 477.5h30v3h-30zM502 480.5v-3h13.9v-6h4.1v6h15v3zM562 477.5v3h13.5v36h15.8v-3h-12.8v-42h-4.1v6zM618.3 513.5h22.5v3h-22.5zM667.8 516.5v-3h12.7V404.8h-102v6h-4.1v-27h8.6v2.6h-4.5v15.7H610v-15.7h-4.5v-2.6h12.4v-4.7h2.6v4.7H634v18.3h46.5v-48.7h-60v4.7h-2.6v-7.3H679v-19.5h4.5v185.2zM683.5 278h-3v4.5h-96.7v2.6h6.7v3.8h2.7v-3.8H679v19.2h4.5zM626.6 319.3h-36.1v-6.4h2.7v3.7h34.2zM520 353.4h25.5v-68.3h6.8v-2.6h-9.4v68.3h-90.7v2.6h63.7v57.4h4.1zM398.2 353.4v124.1H418v3h-19.5v18h-21v-3h18V238.3H391v-2.7h4.5v-9h2.7v17.3h21v2.6h-21v104.3h27v2.6z"/><g fill="#D8D5D5" stroke="#2B2422" stroke-miterlimit="10"><path stroke-width=".5" d="M668.6 516.5v2.2h-28.8v-2.2h1v-3h27v3z"/><path stroke-width=".25" d="M667.8 516.2h-27M667.8 515.1h-27"/></g><g fill="#D8D5D5" stroke="#2B2422" stroke-miterlimit="10"><path stroke-width=".5" d="M683.5 250.1h2.2v28.8h-2.2v-.9h-3v-27h3z"/><path stroke-width=".25" d="M683.2 251v27M682.1 251v27"/></g><g fill="#D8D5D5" stroke="#2B2422" stroke-miterlimit="10"><path stroke-width=".5" d="M634.6 156.5v-2.2h28.8v2.2h-.9v3h-27v-3z"/><path stroke-width=".25" d="M635.5 156.8h27M635.5 157.9h27"/></g><g fill="#D8D5D5" stroke="#2B2422" stroke-miterlimit="10"><path stroke-width=".5" d="M526.7 156.5v-2.2h28.8v2.2h-1v3h-27v-3z"/><path stroke-width=".25" d="M527.5 156.8h27M527.5 157.9h27"/></g><g fill="#FFF" stroke="#2B2422" stroke-miterlimit="10"><path stroke-width=".5" d="M305.5 229.4h-2.2v-28.8h2.2v.9h3.1v27h-3.1z"/><path stroke-width=".25" d="M305.9 228.5v-27M306.9 228.5v-27"/></g><g fill="#D8D5D5" stroke="#2B2422" stroke-miterlimit="10"><path stroke-width=".5" d="M683.5 163.1h2.2v28.8h-2.2v-.9h-3v-27h3z"/><path stroke-width=".25" d="M683.2 164v27M682.1 164v27"/></g><g fill="#D8D5D5" stroke="#2B2422" stroke-miterlimit="10"><path stroke-width=".5" d="M683.6 303.4h3.2v28.8h-3.2v-.9H679v-27.1h4.6z"/><path stroke-width=".25" d="M683.1 304.2v27.1M681.5 304.2v27.1"/></g><g fill="#D8D5D5" stroke="#2B2422" stroke-miterlimit="10"><path stroke-width=".5" d="M619.1 516.5v2.2h-28.8v-2.2h1v-3h27v3z"/><path stroke-width=".25" d="M618.3 516.2h-27M618.3 515.1h-27"/></g><g fill="#FFF" stroke="#2B2422" stroke-miterlimit="10"><path stroke-width=".5" d="M502.9 480.5v2.2h-28.8v-2.2h.9v-3h27v3z"/><path stroke-width=".25" d="M502 480.2h-27M502 479.1h-27"/></g><g fill="#FFF" stroke="#2B2422" stroke-miterlimit="10"><path stroke-width=".5" d="M445.9 480.5v2.2h-28.8v-2.2h.9v-3h27v3z"/><path stroke-width=".25" d="M445 480.2h-27M445 479.1h-27"/></g><path fill="none" stroke="#2B2422" stroke-width=".5" stroke-miterlimit="10" d="M217.3 494.3h74.2v1.3h-74.2zM304.5 494.3h74.2v1.3h-74.2z"/><path fill-rule="evenodd" clip-rule="evenodd" fill="#12100B" stroke="#12100B" stroke-width=".5" d="M308.5 238.3v65.2h-108v192h18v3h-21v-198h108v-72h3v7.1H367v2.7z"/><path fill="none" stroke="#2B2422" stroke-width=".5" stroke-miterlimit="500" d="M646 350.8v-29.3M638.5 350.8v-29.3M631 350.8v-29.3M623.5 350.8v-29.3M616 350v-28.5M608.5 350v-28.5M601 350v-28.5M593.5 350v-28.5M641.5 316.6v-1.1M634 316.6v-1.1M649 319.3v-2.7h-21.6l-.8 2.7zM620.5 316.6v-1.1M613 316.6v-1.1M395.5 239h-30.7M395.5 246.5h-30.7M394 254h-29.2M362.5 238.3V254M598 316.6v-1.1M605.5 316.6v-1.1M363.7 254h-1.2M363.7 246.5h-1.2M363.7 239h-1.2M640 314.4V295M647.5 314.4v-29.3M628 314.4v-29.3M605.5 314.4v-29.3M598 314.4v-29.3M613 314.4v-29.3M620.5 314.4v-29.3M635.5 292.4v-7.3M595 320.4v-1.1M602.5 320.4v-1.1M610 320.4v-1.1M617.5 320.4v-1.1M625 320.4v-1.1M632.5 320.4v-1.1M640 320.4v-1.1M647.5 320.4v-1.1M617.9 354.1h-28.1V350h28.1v.8M394 246.5v249M310 238.3V305M310 305H202M202 305v190.5M363.7 238.3v16.8M364.8 238.3v16.8M364.8 255.1h-1.1"/><path fill="none" stroke="#2B2422" stroke-width=".5" stroke-miterlimit="500" d="M591.7 320.4h58.5v-4.9h-57"/><path fill="none" stroke="#2B2422" stroke-width=".5" stroke-miterlimit="500" d="M590.5 321.5h60.8v-7.1h-58.1M590.5 321.5v-2.2M591.7 320.4v-1.1M610 392h-31.5M417.7 350.8v-18M417.7 303.5v-57M455.2 350.8v-19.5h68.2v-46.1l-17.2-17.6h-12.4v-26h26.4l30.2 30.3v10.6M417.7 303.5h-19.5M417.7 332.8h-19.5"/><path fill="none" stroke="#2B2422" stroke-width=".5" stroke-miterlimit="500" d="M493.9 250.6h22.5l25 25v6.9h1.5M448 264.5h19.5V302H448zM517 480.5V536M521.9 536H517M521.9 527.8H517M521.9 519.5H517M572.7 536h-48.5M572.7 527.8h-48.5M572.7 519.5h-48.5M575 519.5h5M575 527.8h5M575 536h5M580 516.5V536M524.2 517.3v21h-2.3v-21M521.9 511.3v-30.8M524.2 511.3v-30.8M575.5 513.7h-2.8v24.6h2.3v-22.4h.5M520 511.3h6v6h-6zM535 480.5v1.1h27v-1.1"/><path fill="none" stroke="#2B2422" stroke-width=".5" stroke-linecap="round" stroke-linejoin="round" stroke-miterlimit="500" d="M353.5 168.5h42M353.5 168.5v23.3M308.5 169.6h33.4"/><g fill="none" stroke="#2B2422" stroke-width=".5" stroke-miterlimit="10"><path d="M523.6 281.2l-13.5-13.6M510 265.7l7.5-7.5M519.4 258.3l13.6 13.5M533.1 273.8l-7.5 7.5M518.9 273.2l5.1-5.2M526 268.1l4.5 4.6M530.6 274.7l-5.1 5.1M523.6 279.7l-4.6-4.6M511.5 265.8l5.1-5.2M523.2 267.3l-5.1 5.1M516.1 272.3l-4.5-4.6M525.6 281.3c-.5.5-1.4.5-2-.1M510.1 267.6c-.6-.6-.6-1.5-.1-2M517.5 258.2c.5-.5 1.4-.5 2 .1M533 271.8c.6.6.6 1.5.1 2M524 268c.5-.5 1.4-.5 2 .1M530.5 272.7c.6.6.6 1.5.1 2M518.6 260.7l4.5 4.6M516.6 260.6c.5-.5 1.4-.5 2 .1M523.1 265.3c.6.6.6 1.5.1 2M525.5 279.8c-.5.5-1.4.5-2-.1M519 275.1c-.6-.6-.6-1.5-.1-2M518.1 272.4c-.5.5-1.4.5-2-.1M511.6 267.7c-.6-.6-.6-1.5-.1-2"/></g><path fill="none" stroke="#2B2422" stroke-width=".5" stroke-miterlimit="10" d="M522.5 301.2V319"/><g fill="none" stroke="#2B2422" stroke-width=".5" stroke-miterlimit="10"><path d="M422.5 304.8h1.1v26.9h-1.1zM399.7 304.8h22.2v26.9h-22.2z"/></g><g stroke="#2B2422" stroke-width=".5" stroke-miterlimit="10"><path fill="#FFF" d="M485 350.6v-19.9h22.7v19.9"/><circle transform="matrix(0.707 -0.7072 0.7072 0.707 -90.6485 452.0067)" fill="none" cx="500.2" cy="335.4" r="2.3"/><circle transform="matrix(0.7071 -0.7072 0.7072 0.7071 -98.8627 448.6332)" fill="none" cx="492.1" cy="343.6" r="2.3"/><circle transform="matrix(0.7071 -0.7071 0.7071 0.7071 -96.5119 454.3029)" fill="none" cx="500.1" cy="343.6" r="3"/><circle transform="matrix(0.7071 -0.7072 0.7072 0.7071 -92.9209 446.2146)" fill="none" cx="492.1" cy="335.3" r="3"/><path fill="none" d="M507.7 348.3H485"/></g><path fill="#FFF" stroke="#2B2422" stroke-width=".5" stroke-miterlimit="10" d="M662 400.7h13.5c.6 0 1.2-.6 1.2-1.2s-.1-1.6-.1-2.9-1.9-2.2-1.9-3.9-1.2-13.1-6.2-13.1-6 11.2-6 13.2c0 2.4-2.1 3.2-2.1 4v2.6c.1 1 .6 1.3 1.6 1.3z"/><g stroke="#2B2422" stroke-width=".5" stroke-miterlimit="10"><path fill="#FFF" d="M646.4 401.7c-9.1 0-9.5-3.6-9.5-8s4.2-8 9.5-8c5.2 0 9.5 3.6 9.5 8s-.5 8-9.5 8z"/><ellipse fill="none" cx="646.3" cy="393.3" rx="7.3" ry="6.5"/></g><g stroke="#2B2422" stroke-miterlimit="10"><path fill="#FFF" stroke-width=".35" d="M541.7 458.7l19.6 19.5.7-.7-19.5-19.5-.8.7"/><path fill="none" stroke-width=".5" d="M535 477.5c.1-7.3 1.6-12.8 6.7-18.8 2.7-3.2 5.6-4.9 5.6-4.9"/></g><g stroke="#2B2422" stroke-miterlimit="10"><path fill="#FFF" stroke-width=".35" d="M573.8 294.8l17.4 17.4-.6.7-17.4-17.4.6-.7"/><path fill="none" stroke-width=".5" d="M590.6 288.8c-6.5.1-11.4 1.4-16.7 6-2.8 2.4-4.4 5-4.4 5"/></g><g stroke="#2B2422" stroke-miterlimit="10"><path fill="#FFF" stroke-width=".35" d="M385.1 218.9l-17.4 17.4-.7-.7 17.4-17.3.7.6"/><path fill="none" stroke-width=".5" d="M391.1 235.6c-.1-6.5-1.4-11.4-6-16.7-2.4-2.8-5-4.4-5-4.4"/></g><g stroke="#2B2422" stroke-miterlimit="10"><path fill="#FFF" stroke-width=".35" d="M330.8 210l-16.2-16.2-.6.6 16.2 16.2.6-.6"/><path fill="none" stroke-width=".5" d="M336.4 194.4c-.1 6.1-1.3 10.6-5.6 15.6-2.3 2.7-4.6 4.1-4.6 4.1"/></g><g stroke="#2B2422" stroke-miterlimit="10"><path fill="#FFF" stroke-width=".35" d="M376.8 177.2l15.1 15.1.6-.5-15.1-15.2-.6.6"/><path fill="none" stroke-width=".5" d="M371.5 191.8c.1-5.7 1.2-9.9 5.2-14.6 2.1-2.5 4.3-3.8 4.3-3.8"/></g><g stroke="#2B2422" stroke-miterlimit="10"><path fill="#FFF" stroke-width=".35" d="M635.1 373.8L620 358.7l.5-.6 15.2 15.1-.6.6"/><path fill="none" stroke-width=".5" d="M620.5 379.1c5.7-.1 9.9-1.2 14.6-5.2 2.5-2.1 3.8-4.3 3.8-4.3"/></g><g stroke="#2B2422" stroke-miterlimit="10"><path fill="#FFF" stroke-width=".35" d="M588.6 368.1l16.3 16.3.6-.6-16.2-16.3-.7.6"/><path fill="none" stroke-width=".5" d="M583 383.8c.1-6.1 1.3-10.6 5.6-15.6 2.3-2.7 4.7-4.1 4.7-4.1"/></g><g fill="#FFF" stroke="#2B2422" stroke-width=".5"><path d="M453.2 158.1H481v1h-27.8zM427.1 156.6h27.8v1h-27.8z"/></g><path fill="none" stroke="#2B2422" stroke-width=".5" stroke-miterlimit="500" d="M482.2 155.4h-56.3M482.2 155.4v1.1M425.9 155.4v1.1M483.3 154.3h-58.5M483.3 154.3v2.2M424.8 154.3v2.2"/><g fill="none" stroke="#2B2422" stroke-width=".5" stroke-miterlimit="10"><path d="M379.2 252.7v-15.2M375.4 248.9l3.8 3.8 3.8-3.8"/></g><path fill="none" stroke="#2B2422" stroke-width=".5" stroke-miterlimit="10" d="M643.7 284.3L638 301l2.1 2-2.5-.9-2.6-.8 2.1 2.2-4.6 14.2"/><path fill="none" stroke="#2B2422" stroke-width=".5" stroke-miterlimit="10" d="M638.4 284l-4.8 14.3 2.1 2-2.5-.9-2.6-.8 2.1 2.2-5.3 16.1"/><g fill="none" stroke="#2B2422" stroke-width=".5" stroke-miterlimit="10"><path d="M641.9 300.3h20.8v35.6h-71"/><path d="M645.7 296.5l-3.8 3.8 3.8 3.7"/></g><g fill="none" stroke="#2B2422" stroke-width=".5" stroke-miterlimit="10"><path d="M626.6 300.3h-30.1M622.8 304l3.8-3.7-3.8-3.8"/></g><path fill="none" stroke="#2B2422" stroke-width=".3" stroke-dasharray="3,1" d="M542.9 301.2h-20.4M542.9 319h-20.4"/><text transform="matrix(1 0 0 1 527.7397 312.5234)" fill="#2B2422" font-family="'Berkeley-Bold'" font-size="8">Dw</text><text transform="matrix(1 0 0 1 402.4482 320.6802)" fill="#2B2422" font-family="'Berkeley-Bold'" font-size="8.956">Ref.</text><text transform="matrix(1 0 0 1 612.3304 462.2251)"><tspan x="0" y="0" fill="#2B2422" font-family="'Berkeley-Bold'" font-size="12">Library</tspan><tspan x="-7.8" y="12" fill="#2B2422" font-family="'Berkeley-Bold'" font-size="10">11&apos;4&quot; x 12&apos;1&quot;</tspan></text><text transform="matrix(1 0 0 1 534.6005 418.9155)" fill="#2B2422" font-family="'Berkeley-Bold'" font-size="12">Foyer</text><text transform="matrix(1 0 0 1 341.5028 216.3857)" fill="#2B2422" font-family="'Berkeley-Bold'" font-size="12">Foyer</text><text transform="matrix(1 0 0 1 575.9814 213.5518)"><tspan x="0" y="0" fill="#2B2422" font-family="'Berkeley-Bold'" font-size="12">Family Room</tspan><tspan x="7.5" y="12" fill="#2B2422" font-family="'Berkeley-Bold'" font-size="10">20&apos;9&quot; x 13&apos;8&quot;</tspan></text><text transform="matrix(1 0 0 1 429.694 407.439)"><tspan x="0" y="0" fill="#2B2422" font-family="'Berkeley-Bold'" font-size="12">Dining Room</tspan><tspan x="5.3" y="12" fill="#2B2422" font-family="'Berkeley-Bold'" font-size="10">13&apos;1&quot; x 13&apos;10&quot;</tspan></text><text transform="matrix(1 0 0 1 464.139 312.2842)"><tspan x="0" y="0" fill="#2B2422" font-family="'Berkeley-Bold'" font-size="12">Kitchen</tspan><tspan x="-8.6" y="12" fill="#2B2422" font-family="'Berkeley-Bold'" font-size="10">16&apos;1&quot; x 11&apos;10&quot;</tspan></text><text transform="matrix(1 0 0 1 279.4782 393.4565)" fill="#2B2422" font-family="'Berkeley-Bold'" font-size="12">Garage</text><text transform="matrix(1 0 0 1 439.6738 209.3188)"><tspan x="0" y="0" fill="#2B2422" font-family="'Berkeley-Bold'" font-size="12">Breakfast</tspan><tspan x=".4" y="12" fill="#2B2422" font-family="'Berkeley-Bold'" font-size="10">10&apos;7&quot; x 9&apos;4&quot;</tspan></text><text transform="matrix(1 0 0 1 354.8585 175.1392)" fill="#2B2422" font-family="'Berkeley-Bold'" font-size="8">Pantry</text><text transform="matrix(1 0 0 1 314.6907 183.4536)" fill="#2B2422" font-family="'Berkeley-Bold'" font-size="8">Closet</text><text transform="matrix(1 0 0 1 584.1965 399.8979)" fill="#2B2422" font-family="'Berkeley-Bold'" font-size="8">Closet</text><text transform="matrix(1 0 0 1 642.3047 371.8374)" fill="#2B2422" font-family="'Berkeley-Bold'" font-size="8">Powder</text><text transform="matrix(1 0 0 1 374.3348 236.7334)" fill="#2B2422" font-family="'Berkeley-Bold'" font-size="8">Dn</text><text transform="matrix(1 0 0 1 586.2303 302.7354)" fill="#2B2422" font-family="'Berkeley-Bold'" font-size="8">Dn</text><text transform="matrix(1 0 0 1 581.3871 338.2744)" fill="#2B2422" font-family="'Berkeley-Bold'" font-size="8">Up</text></g><g id="Sunroom"><path fill-rule="evenodd" clip-rule="evenodd" fill="#FFF" d="M676.7 427.9h12.7v35.4h-12.7z"/><path fill="none" stroke="#2B2422" stroke-width=".3" stroke-miterlimit="500" stroke-dasharray="3,1" d="M680.5 427.6v36M683.2 427.6v36"/><path fill-rule="evenodd" clip-rule="evenodd" fill="#12100B" stroke="#12100B" stroke-width=".5" d="M683.2 486.5H709v3h-25.5M791.5 489.5v-36.4h-3v33.4h-22.8v3zM788.5 381.9h3v-36.4h-25.8v3h22.8zM683.5 345.5H709v3h-25.8"/><g fill="#CDCDCD" stroke="#2B2422" stroke-miterlimit="10"><path stroke-width=".5" d="M793.7 454h-2.2v-.9h-3v-71.2h3v-.9h2.2z"/><path stroke-width=".25" d="M791.2 433.7v19.4M790.1 433.7V453M791.2 403v29M790.1 403v29M791.2 382v19.1M790.1 382v19.1"/><path stroke-width=".35" d="M788.7 431.8h3.2v2.1h-3.2zM788.7 400.9h3.2v2.1h-3.2z"/></g><g stroke="#2B2422" stroke-width=".3" stroke-miterlimit="10" stroke-dasharray="3,1"><path fill="#FFF" d="M695.7 450.1l-13 13 .5.5 13-13-.5-.5"/><path fill="none" d="M683.2 445.6c4.9.1 8.5 1.1 12.5 4.5 2.1 1.8 3.3 3.7 3.3 3.7"/><g><path fill="#FFF" d="M695.7 441.1l-13-13.1.5-.5 13 13.1-.5.5"/><path fill="none" d="M683.2 445.6c4.9-.1 8.5-1.1 12.5-4.5 2.1-1.8 3.3-3.7 3.3-3.7"/></g></g><g fill="#CDCDCD" stroke="#2B2422" stroke-miterlimit="10"><path stroke-width=".5" d="M709 486.5h56.6v3h1.1v2.1h-58.8v-2.1h1.1z"/><path stroke-width=".25" d="M738.1 489.2h27.5M738.1 488.1h27.5M709 489.2h27.4M709 488.1h27.4"/><path stroke-width=".35" d="M736.3 486.5h2v3.3h-2z"/></g><g fill="#CDCDCD" stroke="#2B2422" stroke-miterlimit="10"><path stroke-width=".5" d="M765.7 348.5H709v-3h-1.1v-2.2h58.8v2.2h-1z"/><path stroke-width=".25" d="M736.6 345.8H709M736.6 346.9H709M765.7 345.8h-27.4M765.7 346.9h-27.4"/><path stroke-width=".35" d="M736.4 345.2h2v3.3h-2z"/></g><text transform="matrix(1 0 0 1 714.2448 415.4595)"><tspan x="0" y="0" fill="#2B2422" font-family="'Berkeley-Bold'" font-size="12">Sunroom</tspan><tspan x="-1.9" y="12" fill="#2B2422" font-family="'Berkeley-Bold'" font-size="10">11&apos;9&quot; x 15&apos;4&quot;</tspan></text></g><g id="Nook"><path fill="#FFF" d="M398.4 152.3h110.2v22.3H398.4z"/><path fill-rule="evenodd" clip-rule="evenodd" fill="#12100B" stroke="#12100B" stroke-width=".5" d="M508.8 156.7v-33.2h-28.3v-3h31.3v36M398.2 156.6v-33.1h28.3v-3h-31.3v36"/><g fill="#FFF" stroke="#2B2422" stroke-width=".5"><path d="M452.7 122.1h27.8v1h-27.8zM426.5 120.6h27.8v1h-27.8z"/></g><path fill="none" stroke="#2B2422" stroke-width=".5" stroke-miterlimit="500" d="M481.6 119.4h-56.3M481.6 119.4v1.1M425.3 119.4v1.1M482.7 118.3h-58.5M482.7 118.3v2.2M424.2 118.3v2.2"/><text transform="matrix(1 0 0 1 440.5583 138.8818)"><tspan x="0" y="0" fill="#2B2422" font-family="'Berkeley-Bold'" font-size="12">Nook</tspan><tspan x="-.7" y="12" fill="#2B2422" font-family="'Berkeley-Bold'" font-size="10">12&apos; x 4&apos;</tspan></text></g><g id="Fireplace"><path fill-rule="evenodd" clip-rule="evenodd" fill="#FFF" d="M572.4 153.2h45.2v16.1h-45.2z"/><g stroke-width=".5"><path fill-rule="evenodd" clip-rule="evenodd" fill="#12100B" stroke="#12100B" d="M617.6 156.5v3h-3.1v-15h-39v15h-3v-3h0v-15h45v15z"/><path fill="#12100B" stroke="#12100B" d="M617.6 142.6V160h-10.7v-1.1l-3.9-10h-17.1l-3.8 10.2v.9h-9.7v-18.5h45.2z"/><path fill="none" stroke="#2B2422" stroke-miterlimit="10" d="M606.9 159h-24.8"/><path fill="none" stroke="#2B2422" stroke-miterlimit="500" d="M617.5 159.5v9M617.5 168.5h-45M572.5 168.5v-9"/></g></g><g id="Morning_Room"><path fill-rule="evenodd" clip-rule="evenodd" fill="#FFF" d="M523 147.1h144v28H523z"/><path fill="none" stroke="#2B2422" stroke-width=".3" stroke-miterlimit="500" stroke-dasharray="3,1" d="M667 159.5H523M667 156.9H523"/><path fill-rule="evenodd" clip-rule="evenodd" fill="#12100B" stroke="#12100B" stroke-width=".5" d="M508.8 98h-3v61.5H523v-2.6h-14.2zM667 159.5v-2.6h13.5v-26.6h3V164h-3v-4.5zM683.5 48.5h-21v3h18V74h3zM553.8 48.5h81.8v3h-81.8zM526.8 51.5v-3h-21V71h3V51.5z"/><path fill-rule="evenodd" clip-rule="evenodd" fill="none" stroke="#2B2422" stroke-width=".3" stroke-dasharray="3,1" d="M508.8 51.5v24h-3v-27h21v3z"/><path fill="none" stroke="#2B2422" stroke-width=".3" stroke-miterlimit="500" stroke-dasharray="3,1" d="M503.5 73.3h2.3M504.7 74.4h1.1M503.5 73.3v58.5M504.7 74.4v56.2M503.5 131.8h2.3M504.7 130.6h1.1"/><g fill="none" stroke="#2B2422" stroke-width=".3" stroke-dasharray="3,1"><path d="M507.8 75.5h1v27.8h-1zM506.2 101.7h1v27.8h-1z"/></g><g stroke="#2B2422" stroke-width=".3" stroke-miterlimit="10" stroke-dasharray="3,1"><path fill="#FFF" d="M527.5 91.1l-19.3-19.4.7-.7 19.3 19.3-.7.8"/><path fill="none" d="M508.9 97.8c7.2-.1 12.6-1.6 18.6-6.7 3.2-2.7 4.9-5.5 4.9-5.5"/></g><g fill="#CDCDCD" stroke="#2B2422" stroke-miterlimit="10"><path stroke-width=".5" d="M634.7 48.5v-2.2h28.8v2.2h-1v3h-27v-3z"/><path stroke-width=".25" d="M635.5 48.8h27M635.5 49.9h27"/></g><g fill="#CDCDCD" stroke="#2B2422" stroke-miterlimit="10"><path stroke-width=".5" d="M525.9 48.5v-2.2h28.8v2.2h-.9v3h-27v-3z"/><path stroke-width=".25" d="M526.8 48.8h27M526.8 49.9h27"/></g><g fill="#FFF" stroke="#2B2422" stroke-miterlimit="10"><path stroke-width=".5" d="M505.8 98.9h-2.2V70.1h2.2v.9h3v27h-3z"/><path stroke-width=".25" d="M506.1 98V71M507.2 98V71"/></g><g fill="#CDCDCD" stroke="#2B2422" stroke-miterlimit="10"><path stroke-width=".5" d="M680.5 130.3V74h3v-1.1h2.2v58.4h-2.2v-1z"/><path stroke-width=".25" d="M683.2 101.3V74M682.2 101.3V74M683.2 130.3V103M682.2 130.3V103"/><path stroke-width=".35" d="M680.5 101.1h3.3v2h-3.3z"/></g><text transform="matrix(1 0 0 1 558.7337 84.5112)"><tspan x="0" y="0" fill="#2B2422" font-family="'Berkeley-Bold'" font-size="12">Morning Room</tspan><tspan x="12.5" y="12" fill="#2B2422" font-family="'Berkeley-Bold'" font-size="10">19&apos;1&quot; x 11&apos;9&quot;</tspan></text></g><g id="ML_OPT_x5F_2_x5F_side_load_garage"><path fill-rule="evenodd" clip-rule="evenodd" fill="#FFF" d="M202.7 487h191v22.8h-191zM191.2 318.2h16.2v162.3h-16.2z"/><path fill-rule="evenodd" clip-rule="evenodd" fill="#12100B" stroke="#12100B" stroke-width=".5" d="M398.5 498.5h-29.9v-3h26.9M311.5 495.5h30v3h-30zM254.5 495.5h30v3h-30zM197.5 498.5V479h4.5v16.5h25.5v3zM197.5 392h4.5v15h-4.5zM197.5 300.5V320h4.5v-16.5"/><g fill="#CDCDCD" stroke="#2B2422" stroke-miterlimit="10"><path stroke-width=".5" d="M369.4 498.5v2.2h-28.8v-2.2h.9v-3h27v3z"/><path stroke-width=".25" d="M368.5 498.2h-27M368.5 497.1h-27"/></g><g fill="#CDCDCD" stroke="#2B2422" stroke-miterlimit="10"><path stroke-width=".5" d="M312.4 498.5v2.2h-28.8v-2.2h.9v-3h27v3z"/><path stroke-width=".25" d="M311.5 498.2h-27M311.5 497.1h-27"/></g><g fill="#CDCDCD" stroke="#2B2422" stroke-miterlimit="10"><path stroke-width=".5" d="M255.4 498.5v2.2h-28.8v-2.2h.9v-3h27v3z"/><path stroke-width=".25" d="M254.5 498.2h-27M254.5 497.1h-27"/></g><path fill="none" stroke="#2B2422" stroke-width=".5" stroke-miterlimit="10" d="M202 318.8h1.3V393H202zM202 406h1.3v74.2H202z"/><path fill="none" stroke="#2B2422" stroke-width=".5" stroke-linecap="round" stroke-linejoin="round" stroke-miterlimit="500" d="M395.5 494H202"/></g><g id="Sided_Fireplace"><path fill-rule="evenodd" clip-rule="evenodd" fill="#12100B" stroke="#12100B" stroke-width=".5" d="M630.7 159.5v-2.6h-9v-14.6h-9v17.2zM558.7 159.5v-2.6h9v-14.6h9v17.2z"/><path fill="none" stroke="#2B2422" stroke-width=".5" stroke-miterlimit="500" d="M617.2 142.3v-15h-45v15M617.2 159.5v15h-45v-15"/><path fill="none" stroke="#2B2422" stroke-width=".3" stroke-dasharray="3,1" d="M576.5 159.2h41.1M578.2 142.3v16.9M617.6 142.3h-40.9M580.4 159.2V157h-2.2M580.5 142.3v2.2h-2.3M608.7 159.2V157h2.3M608.6 142.3v2.2h2.4M611 159.2v-16.9"/><text transform="matrix(1 0 0 1 581.6331 117.4985)"><tspan x="0" y="0" fill="#2B2422" font-family="'Berkeley-Italic'" font-size="8">Optional</tspan><tspan x="1.9" y="9" fill="#2B2422" font-family="'Berkeley-Italic'" font-size="8">2-Sided</tspan><tspan x="-.6" y="18" fill="#2B2422" font-family="'Berkeley-Italic'" font-size="8">Fireplace</tspan></text></g><g id="Gourmet_Kitchen"><path fill="#FFF" d="M448 302.3h72.7v27.5H448z"/><g fill="none" stroke="#2B2422" stroke-width=".5"><path d="M417.6 246.7v17.8H398M417.8 248.3h1.5v14h-1.5"/></g><text transform="matrix(1 0 0 1 400.6282 253.6016)"><tspan x="0" y="0" fill="#2B2422" font-family="'Berkeley-Bold'" font-size="8">Wall</tspan><tspan x="-1.7" y="9" fill="#2B2422" font-family="'Berkeley-Bold'" font-size="8">Oven</tspan></text><text transform="matrix(1 0 0 1 458.5186 308.2969)"><tspan x="0" y="0" fill="#2B2422" font-family="'Berkeley-BoldItalic'" font-size="10.999">Opt. Gourmet</tspan><tspan x="14.2" y="11" fill="#2B2422" font-family="'Berkeley-BoldItalic'" font-size="10.999">Kitchen</tspan><tspan x="6.3" y="22" fill="#2B2422" font-family="'Berkeley-BoldItalic'" font-size="9.166">16&apos;1&quot; x 11&apos;10&quot;</tspan></text></g><g id="Family_Room"><path fill="#FFF" d="M680.3 231.8h-281v-68.7h109.5v-22.3h171.5z"/><path fill-rule="evenodd" clip-rule="evenodd" fill="#12100B" stroke="#12100B" stroke-width=".5" d="M553.8 51.5v-3h18.4v-15h45v15h18.3v3h-21.3v-15h-39v15zM505.8 48.5V71h3V51.5h18v-3zM680.5 51.5V74h3V48.5h-21v3zM680.5 130.3h3v33.8h-3z"/><path fill-rule="evenodd" clip-rule="evenodd" fill="#12100B" stroke="#12100B" stroke-width=".5" d="M614.2 51.5h-4.5L602.2 38h-15l-7.5 13.5h-4.5v-15h39z"/><path fill-rule="evenodd" clip-rule="evenodd" fill="none" stroke="#2B2422" stroke-width=".3" stroke-dasharray="3,1" d="M505.8 48.5v27h3v-24h18v-3z"/><path fill="#12100B" stroke="#12100B" stroke-width=".5" d="M617.2 34.6V52h-10.6v-1.1l-3.9-10h-17.2l-3.8 10.2.1.9H572V33.5h45.2z"/><path fill="none" stroke="#2B2422" stroke-width=".3" stroke-miterlimit="500" stroke-dasharray="3,1" d="M503.5 73.3h2.3M504.7 74.4h1.1M503.5 73.3v58.5M504.7 74.4v56.2M503.5 131.8h2.3M504.7 130.6h1.1"/><g fill="none" stroke="#2B2422" stroke-width=".3" stroke-dasharray="3,1"><path d="M507.8 75.5h1v27.8h-1zM506.2 101.7h1v27.8h-1z"/></g><g fill="#CDCDCD" stroke="#2B2422" stroke-miterlimit="10"><path stroke-width=".5" d="M634.7 48.5v-2.2h28.8v2.2h-1v3.1h-27v-3.1z"/><path stroke-width=".25" d="M635.5 48.9h27M635.5 49.9h27"/></g><g fill="#CDCDCD" stroke="#2B2422" stroke-miterlimit="10"><path stroke-width=".5" d="M525.9 48.5v-2.2h28.8v2.2h-.9v3.1h-27v-3.1z"/><path stroke-width=".25" d="M526.8 48.9h27M526.8 49.9h27"/></g><g fill="#CDCDCD" stroke="#2B2422" stroke-miterlimit="10"><path stroke-width=".5" d="M680.5 130.3V74h3v-1.1h2.2v58.4h-2.2v-1z"/><path stroke-width=".25" d="M683.2 101.4V74M682.2 101.4V74M683.2 130.3V103M682.2 130.3V103"/><path stroke-width=".35" d="M680.5 101.1h3.3v2h-3.3z"/></g><path fill="none" stroke="#2B2422" stroke-width=".5" stroke-miterlimit="10" d="M606.6 51h-24.8"/><path fill="none" stroke="#2B2422" stroke-width=".5" stroke-miterlimit="500" d="M617.2 51.5v9M617.2 60.5h-45M572.2 60.5v-9"/><g stroke="#2B2422" stroke-width=".3" stroke-miterlimit="10" stroke-dasharray="3,1"><path fill="#FFF" d="M527.5 91.1l-19.3-19.4.7-.7 19.3 19.3-.7.8"/><path fill="none" d="M508.9 97.8c7.2-.1 12.6-1.6 18.6-6.7 3.2-2.7 4.9-5.5 4.9-5.5"/></g><g fill="#CDCDCD" stroke="#2B2422" stroke-miterlimit="10"><path stroke-width=".5" d="M505.8 98.9h-2.2V70.1h2.2v.9h3v27h-3z"/><path stroke-width=".25" d="M506.1 98V71M507.2 98V71"/></g><text transform="matrix(1 0 0 1 431.2334 197.3374)"><tspan x="0" y="0" fill="#2B2422" font-family="'Berkeley-Bold'" font-size="12">Breakfast</tspan><tspan x=".4" y="12" fill="#2B2422" font-family="'Berkeley-Bold'" font-size="10">10&apos;7&quot; x 9&apos;4&quot;</tspan></text><text transform="matrix(1 0 0 1 566.3867 163.123)"><tspan x="0" y="0" fill="#2B2422" font-family="'Berkeley-Bold'" font-size="12">Family Room</tspan><tspan x="11.7" y="12" fill="#2B2422" font-family="'Berkeley-Bold'" font-size="10">20&apos;9&quot; x 26&apos;</tspan></text><path fill-rule="evenodd" clip-rule="evenodd" fill="#12100B" stroke="#12100B" stroke-width=".5" d="M508.8 98h-3v61.5h3v-2.6h0z"/></g><g id="Study"><path fill-rule="evenodd" clip-rule="evenodd" fill="#FFF" d="M571 383.4h7.8v93.9H571zM599.2 447.6h61.2v37.1h-61.2z"/><path fill-rule="evenodd" clip-rule="evenodd" fill="#12100B" stroke="#12100B" stroke-width=".5" d="M575.9 383.8h2.6v34.9h-2.6zM575.9 477.5v-13.9h2.6v16.9"/><g stroke="#2B2422" stroke-miterlimit="10"><path fill="#FFF" stroke-width=".35" d="M594.2 446.7L577.9 463l.6.6 16.3-16.2-.6-.7"/><path fill="none" stroke-width=".5" d="M578.5 441.1c6.1.1 10.6 1.3 15.6 5.6 2.7 2.3 4.1 4.7 4.1 4.7"/><g><path fill="#FFF" stroke-width=".35" d="M594.2 435.5l-16.3-16.3.6-.6 16.3 16.3-.6.6"/><path fill="none" stroke-width=".5" d="M578.5 441.1c6.1-.1 10.6-1.3 15.6-5.6 2.7-2.3 4.1-4.7 4.1-4.7"/></g></g><text transform="matrix(1 0 0 1 614.7325 458.2251)"><tspan x="0" y="0" fill="#2B2422" font-family="'Berkeley-Bold'" font-size="12">Study</tspan><tspan x="-10.6" y="12" fill="#2B2422" font-family="'Berkeley-Bold'" font-size="10">11&apos;4&quot; x 12&apos;1&quot;</tspan></text></g><g id="_x33_-Car_Garage"><path fill-rule="evenodd" clip-rule="evenodd" fill="#FFF" d="M392.5 501.7H196.8V238.3h165.1v35h30.6z"/><path fill-rule="evenodd" clip-rule="evenodd" fill="#12100B" stroke="#12100B" stroke-width=".5" d="M398.5 498.5h-30v-3h27M202 483.1h-4.5v15.4h30v-3H202zM254.5 495.5h30v3h-30zM311.5 495.5h30v3h-30zM367 235.6v2.7H202v12.3h-4.5v-15.3h108v-6.8h3v7.1zM197.5 322.6h4.5v16.5h-4.5z"/><g fill="#CDCDCD" stroke="#2B2422" stroke-miterlimit="10"><path stroke-width=".5" d="M312.4 498.5v2.2h-28.8v-2.2h.9v-3h27v3z"/><path stroke-width=".25" d="M311.5 498.2h-27M311.5 497.1h-27"/></g><g fill="#CDCDCD" stroke="#2B2422" stroke-miterlimit="10"><path stroke-width=".5" d="M369.4 498.5v2.2h-28.8v-2.2h.9v-3h27v3z"/><path stroke-width=".25" d="M368.5 498.2h-27M368.5 497.1h-27"/></g><g fill="#CDCDCD" stroke="#2B2422" stroke-miterlimit="10"><path stroke-width=".5" d="M255.4 498.5v2.2h-28.8v-2.2h.9v-3h27v3z"/><path stroke-width=".25" d="M254.5 498.2h-27M254.5 497.1h-27"/></g><path fill="none" stroke="#2B2422" stroke-width=".5" stroke-miterlimit="10" d="M202 249.6h1.3v74.2H202zM202 338.2h1.3v146.2H202z"/><path fill="none" stroke="#2B2422" stroke-width=".5" stroke-miterlimit="500" d="M395.5 494H202M362.5 239.8H202"/><text transform="matrix(1 0 0 1 285.6032 374.3149)" fill="#2B2422" font-family="'Berkeley-Bold'" font-size="12">Garage</text></g><g id="UL"><path fill="none" stroke="#2B2422" stroke-width=".3" stroke-miterlimit="500" stroke-dasharray="3,1" d="M671.5 403.4v-41h-42.7M451.4 237.1v45.4M430.8 200.4v-31.9l66.4.1v31.8M497.2 237.1v45.4M356.5 332.8v-60.1h-39v60.1M524.5 442.3l42.4-.1v53.3"/><path fill-rule="evenodd" clip-rule="evenodd" fill="#12100B" stroke="#12100B" stroke-width=".5" d="M421.8 159.5v40.9h42v2.6h-21.4v5.3h-2.6V203h-20.6v-43.5h-62.7v-3h171v3h-18.7V203h-24v-2.6h21.4v-40.9z"/><path fill-rule="evenodd" clip-rule="evenodd" fill="#12100B" stroke="#12100B" stroke-width=".5" d="M305.5 156.5h15v3h-12v101.6h75v-26.6h5.7v2.6h-3v24h53.6v-24h-29.6v-2.6h29.6v-5.2h2.6v5.2h21.4v2.6h-21.4v45.4h63.8v-45.4h-21.4v-2.6h24v48h18v2.6h-71.7l-15.7 15.8-1.9-1.9 2.3-2.2v-33h-71.7v69h35.7l16.8-16.8 1.8 1.8-15.8 15.9 2.8 2.8-1.9 1.9-3-3h-56.2v-2.6h17.2v-69h-57v69h18.8v2.6h-18.8v160.1h9v3h-12z"/><path fill-rule="evenodd" clip-rule="evenodd" fill="#12100B" stroke="#12100B" stroke-width=".5" d="M495.7 332.8v-2.7h-41.3l-25.7 25.7-3.4-3.4-1.9 1.9 3.4 3.4-16.3 16.3v103.5h-15v18h-9v3h12v-18H418v-3h-4.8V375.1l42.3-42.3zM344.5 495.5h15v3h-15zM445 477.5h30v3h-30zM521.9 477.5v-3.7h2.6v21.7h15v3h-18v-18H502v-3zM521.9 332.8h-3.7v-2.7h39.7l2.9 2.9-1.9 1.9-2.1-2.1h-32.3v48.7h27.4v2.6h-27.4v46.5h45v-24h6.4v-22.5h-3v-2.6h3v-29.7l-2.1-2.1 1.8-1.8 2.9 2.9v33h3.8v2.6h-3.8v127.1H592v3h-16.5v-18h-18v-3h18.4v-62.2h-51.4v19.5h-2.6zM626.2 383.8v-30.4h-15v4.7h-2.7v-7.3H679v-19.5h4.5v185.2H667v-3h13.5V404.8h-27v-2.7h27v-48.7h-51.7v48.7h3.7v2.7h-24v-18.4h-3.7v-2.6h3.7v-4.7h2.7v4.7zM619 513.5h21v3h-21zM679 304.3h4.5V156.5h-21v3h18v123H571.8v2.6H679zM554.5 156.5h81v3h-81z"/><path fill="#FFF" stroke="#2B2422" stroke-width=".5" stroke-miterlimit="10" d="M438.3 242.4v13.5c0 .6-.6 1.2-1.2 1.2s-1.6-.1-2.9-.1c-1.3 0-2.2-1.9-3.9-1.9s-13.1-1.2-13.1-6.2 11.2-6 13.2-6c2.4 0 3.2-2.1 4-2.1h2.6c1 .1 1.3.6 1.3 1.6zM526 402.9v-13.5c0-.6.6-1.2 1.2-1.2s1.6.1 2.9.1 2.2 1.9 3.9 1.9c1.7 0 13.1 1.2 13.1 6.2s-11.2 6-13.2 6c-2.4 0-3.2 2.1-4 2.1h-2.6c-1-.1-1.3-.6-1.3-1.6z"/><g stroke="#2B2422" stroke-miterlimit="10"><path fill="#FFF" stroke-width=".35" d="M501.2 348.3l16.3-16.2.7.6-16.3 16.2-.7-.6"/><path fill="none" stroke-width=".5" d="M495.6 332.7c.1 6.1 1.3 10.6 5.6 15.6 2.3 2.7 4.7 4.1 4.7 4.1"/></g><g stroke="#2B2422" stroke-miterlimit="10"><path fill="#FFF" stroke-width=".35" d="M400.4 353.4h23v.9h-23v-.9"/><path fill="none" stroke-width=".5" d="M407.5 338.3c-4.2 4.4-6.6 8.5-7.1 15-.3 3.5.4 6.2.4 6.2"/></g><g stroke="#2B2422" stroke-miterlimit="10"><path fill="#FFF" stroke-width=".35" d="M469 185.7l15.2 15.2.6-.6-15.2-15.2-.6.6"/><path fill="none" stroke-width=".5" d="M463.7 200.3c.1-5.7 1.2-9.9 5.2-14.6 2.1-2.5 4.3-3.8 4.3-3.8"/></g><g stroke="#2B2422" stroke-miterlimit="10"><path fill="#FFF" stroke-width=".35" d="M404.9 251.7l-15.2-15.1-.5.5 15.2 15.2.5-.6"/><path fill="none" stroke-width=".5" d="M410.2 237.1c-.1 5.7-1.2 9.9-5.2 14.6-2.1 2.5-4.3 3.8-4.3 3.8"/></g><g stroke="#2B2422" stroke-miterlimit="10"><path fill="#FFF" stroke-width=".35" d="M469 251.7l15.2-15.1.6.5-15.2 15.2-.6-.6"/><path fill="none" stroke-width=".5" d="M463.7 237.1c.1 5.7 1.2 9.9 5.2 14.6 2.1 2.5 4.3 3.8 4.3 3.8"/></g><g stroke="#2B2422" stroke-miterlimit="10"><path fill="#FFF" stroke-width=".35" d="M425.2 213.5l15.1 15.2-.5.6-15.2-15.2.6-.6"/><path fill="none" stroke-width=".5" d="M439.8 208.2c-5.7.1-9.9 1.2-14.6 5.2-2.5 2.1-3.8 4.3-3.8 4.3"/></g><g stroke="#2B2422" stroke-miterlimit="10"><path fill="#FFF" stroke-width=".35" d="M332.4 318.1l15.3 15.2.6-.6-15.3-15.2-.6.6"/><path fill="none" stroke-width=".5" d="M327.2 332.7c.1-5.7 1.2-10 5.3-14.7 2.1-2.5 4.4-3.9 4.4-3.9"/></g><g stroke="#2B2422" stroke-miterlimit="10"><path fill="#FFF" stroke-width=".35" d="M539.2 457.9L524 473.2l.6.6 15.2-15.3-.6-.6"/><path fill="none" stroke-width=".5" d="M524.6 452.7c5.7.1 9.9 1.2 14.6 5.3 2.5 2.1 3.9 4.4 3.9 4.4"/></g><g stroke="#2B2422" stroke-miterlimit="10"><path fill="#FFF" stroke-width=".35" d="M599.2 401.9l-16.3-16.2-.6.6 16.2 16.2.7-.6"/><path fill="none" stroke-width=".5" d="M604.8 386.3c-.1 6.1-1.3 10.6-5.6 15.6-2.3 2.7-4.6 4.1-4.6 4.1"/></g><g stroke="#2B2422" stroke-miterlimit="10"><path fill="#FFF" stroke-width=".35" d="M557.1 398.7l15.2-15.2.6.6-15.2 15.2-.6-.6"/><path fill="none" stroke-width=".5" d="M551.9 384.1c.1 5.7 1.2 9.9 5.2 14.6 2.1 2.5 4.3 3.8 4.3 3.8"/></g><g stroke="#2B2422" stroke-miterlimit="10"><path fill="#FFF" stroke-width=".35" d="M552.3 348.9h21.5v.8h-21.5v-.8"/><path fill="none" stroke-width=".5" d="M558.9 334.8c-3.9 4.1-6.1 7.9-6.6 14-.3 3.3.4 5.8.4 5.8"/></g><g stroke="#2B2422" stroke-miterlimit="10"><path fill="#FFF" stroke-width=".35" d="M593.9 363.3l15.2 15.2-.6.6-15.1-15.2.5-.6"/><path fill="none" stroke-width=".5" d="M608.5 358c-5.7.1-9.9 1.2-14.6 5.2-2.5 2.1-3.8 4.3-3.8 4.3"/></g><g stroke="#2B2422" stroke-miterlimit="10"><path fill="#FFF" stroke-width=".35" d="M648.3 387.5l-15.2 15.2-.6-.6 15.2-15.1.6.5"/><path fill="none" stroke-width=".5" d="M653.6 402.1c-.1-5.7-1.2-9.9-5.2-14.6-2.1-2.5-4.3-3.8-4.3-3.8"/></g><g stroke="#2B2422" stroke-miterlimit="10"><path fill="#FFF" stroke-width=".35" d="M412.9 299.9h24.6v-.9H413l-.1.9"/><path fill="none" stroke-width=".5" d="M420.5 315.9c-4.5-4.7-7-9-7.6-16-.3-3.7.4-6.6.4-6.6"/></g><g fill="none" stroke="#2B2422" stroke-width=".5" stroke-miterlimit="10"><path d="M618 334.5h45.3v-35.2h-70.4"/><path d="M621.7 330.8l-3.7 3.7 3.7 3.8"/></g><g stroke="#2B2422" stroke-miterlimit="10"><path fill="#FFF" stroke-width=".5" d="M539.5 495.5h18v3h1v2.2h-20v-2.2h1z"/><path fill="none" stroke-width=".25" d="M557.5 498.2h-18M557.5 497.1h-18"/></g><g stroke="#2B2422" stroke-miterlimit="10"><path fill="#FFF" stroke-width=".5" d="M475.1 477.5h27.1v3h1.4v2.2h-30.1v-2.2h1.6z"/><path fill="none" stroke-width=".25" d="M502.2 480.2h-27.1M502.2 479.1h-27.1"/></g><g stroke="#2B2422" stroke-miterlimit="10"><path fill="#FFF" stroke-width=".5" d="M639.9 513.5H667v3h1.4v2.2h-30v-2.2h1.5z"/><path fill="none" stroke-width=".25" d="M667 516.2h-27.1M667 515.1h-27.1"/></g><g stroke="#2B2422" stroke-miterlimit="10"><path fill="#FFF" stroke-width=".5" d="M662.5 159.5h-27.1v-3H634v-2.2h30v2.2h-1.5z"/><path fill="none" stroke-width=".25" d="M635.4 156.8h27.1M635.4 157.9h27.1"/></g><g stroke="#2B2422" stroke-miterlimit="10"><path fill="#FFF" stroke-width=".5" d="M554.5 159.5h-27.1v-3H526v-2.2h30v2.2h-1.5z"/><path fill="none" stroke-width=".25" d="M527.4 156.8h27.1M527.4 157.9h27.1"/></g><g stroke="#2B2422" stroke-miterlimit="10"><path fill="#FFF" stroke-width=".5" d="M678.8 331.4v-27.1h4.7v-1.5h3.4v30.1h-3.4v-1.5z"/><path fill="none" stroke-width=".25" d="M683 304.3v27.1M681.4 304.3v27.1"/></g><g stroke="#2B2422" stroke-miterlimit="10"><path fill="#FFF" stroke-width=".5" d="M591.9 513.5H619v3h1.4v2.2h-30v-2.2h1.5z"/><path fill="none" stroke-width=".25" d="M619 516.2h-27.1M619 515.1h-27.1"/></g><g stroke="#2B2422" stroke-miterlimit="10"><path fill="#FFF" stroke-width=".5" d="M417.9 477.5H445v3h1.4v2.2h-30v-2.2h1.5z"/><path fill="none" stroke-width=".25" d="M445 480.2h-27.1M445 479.1h-27.1"/></g><g stroke="#2B2422" stroke-miterlimit="10"><path fill="#FFF" stroke-width=".5" d="M359.4 495.5h27.1v3h1.4v2.2h-30v-2.2h1.5z"/><path fill="none" stroke-width=".25" d="M386.5 498.2h-27.1M386.5 497.1h-27.1"/></g><g stroke="#2B2422" stroke-miterlimit="10"><path fill="#FFF" stroke-width=".5" d="M317.4 495.5h27.1v3h1.4v2.2h-30v-2.2h1.5z"/><path fill="none" stroke-width=".25" d="M344.5 498.2h-27.1M344.5 497.1h-27.1"/></g><g stroke="#2B2422" stroke-miterlimit="10"><path fill="#FFF" stroke-width=".35" d="M555 266.8l16.3 16.3.6-.6-16.3-16.3-.6.6"/><path fill="none" stroke-width=".5" d="M549.3 282.5c.1-6.1 1.3-10.6 5.6-15.7 2.3-2.7 4.7-4.1 4.7-4.1"/><path fill="#FFF" stroke-width=".35" d="M543.7 266.8l-16.3 16.3-.6-.6 16.3-16.3.6.6"/><path fill="none" stroke-width=".5" d="M549.3 282.5c-.1-6.1-1.3-10.6-5.6-15.7-2.3-2.7-4.7-4.1-4.7-4.1"/></g><path fill="#FFF" stroke="#2B2422" stroke-width=".5" stroke-miterlimit="10" d="M356.5 159.5h-36v-3H319v-1.9h39v1.9h-1.5z"/><path fill="none" stroke="#2B2422" stroke-width=".25" stroke-miterlimit="10" d="M338.2 158h18.4v.8h-18.4zM320.5 157.2h18.4v.8h-18.4z"/><path fill="none" stroke="#2B2422" stroke-width=".5" stroke-miterlimit="500" d="M646 350.8v-29.3M638.5 350.8v-29.3M631 350.8v-29.3M623.5 350.8v-29.3M616 350.8v-29.3M647.5 314.4v-29.3M640 314.4v-29.3M632.5 314.4v-29.3M625 314.4v-29.3M617.5 314.4v-29.3M610 314.4v-29.3M602.5 314.4v-29.3M595 314.4v-29.3M608.5 350.8h-.7V320h-16.5v-4.1h58.5v4.1h-37.9M611.9 350.8v-34.9"/><path fill="none" stroke="#2B2422" stroke-width=".5" stroke-miterlimit="500" d="M611.9 321.5h39.4v-7.1H592v1.5M496 200.4v-30.8h-64.1v30.8M628.8 363.5h41.6v38.6M452.5 237.1v45.4M496 237.1v45.4M318.7 332.8v-58.9h36.7v58.9M383.5 244.6h-43.7L325 229.8v-37.3"/><ellipse fill="none" stroke="#2B2422" stroke-width=".5" stroke-miterlimit="10" cx="532.9" cy="368.3" rx="6.1" ry="7.7"/><ellipse fill="none" stroke="#2B2422" stroke-width=".5" stroke-miterlimit="10" cx="532.9" cy="346" rx="6.1" ry="7.7"/><ellipse fill="none" stroke="#2B2422" stroke-width=".5" stroke-miterlimit="10" cx="362.4" cy="253.1" rx="7.7" ry="6.1"/><ellipse fill="none" stroke="#2B2422" stroke-width=".5" stroke-miterlimit="10" cx="317.1" cy="210.7" rx="6.1" ry="7.7"/><path fill="none" stroke="#2B2422" stroke-width=".5" stroke-miterlimit="500" d="M541 332.8v48.7"/><g fill="none" stroke="#2B2422" stroke-width=".5" stroke-miterlimit="10"><path d="M524.6 408.1h45v23.5h-45z"/><path d="M565.7 415c.7 1.9.7 6.7 0 8.8-.7 2.1-7 3.4-18.9 3.4-11 0-16.8-.3-17.8-2-1.5-2.4-1.4-9.2 0-11.3 1.4-2.1 7.1-2.3 18.1-2.3 10.9 0 17.7.9 18.6 3.4z"/></g><path fill="none" stroke="#2B2422" stroke-width=".5" d="M368.5 159.5h50.6v25.2h-50.6zM417.9 184.6h-18.3"/><path fill="none" stroke="#2B2422" stroke-width=".35" stroke-miterlimit="10" d="M409.1 183h-18.9v.8l18.9-.1v-.7"/><path fill="none" stroke="#2B2422" stroke-width=".5" d="M419.2 182.1h-1.3v2.6h1.3v-25.2l-16.4 9.4"/><path fill="none" stroke="#2B2422" stroke-width=".35" d="M419.2 182.9H418M419.2 183.8H418M398.5 182.9h-15M398.5 183.8h-15"/><path fill="none" stroke="#2B2422" stroke-width=".5" d="M398.3 182.1v2.5"/><ellipse fill="none" stroke="#2B2422" stroke-width=".5" cx="401.6" cy="169.6" rx="1.4" ry="1.5"/><path fill="none" stroke="#2B2422" stroke-width=".5" d="M383.5 184.7v-25.2l17 9.2M400.8 170.7l-17.3 11.2M419.2 182.1l-16.6-11.4M417.9 182.1h-18.3"/><path fill="none" stroke="#2B2422" stroke-width=".5" d="M419.2 159.5h-50.6v25.2h31v-2.6h-28.4v-22.6"/><g stroke="#2B2422" stroke-width=".5"><path fill="#FFF" d="M308.5 159.5h60.1v33h-60.1z"/><path fill="none" d="M313.8 163.7h49.8v25.2h-49.8z"/><ellipse fill="none" cx="338.6" cy="176.3" rx="22.4" ry="10.2"/></g><path fill="none" stroke="#2B2422" stroke-width=".5" d="M383.5 183.5h-13.7v-23.9"/><path fill="none" stroke="#2B2422" stroke-width=".3" stroke-dasharray="3,1" d="M391.3 266h-20.9v19.2h20.9V266M391.3 290h-20.9v19.2h20.9V290M387 314.7h-16.7v14.9H387v-14.9zM377.8 316.6v-53.1M377.8 335v-6"/><text transform="matrix(1 0 0 1 373.8943 287.9263)"><tspan x="0" y="0" fill="#12100B" stroke="#FFF" stroke-width="2" font-family="'Berkeley-Italic'" font-size="8">Opt.</tspan><tspan x="-.2" y="9" fill="#12100B" stroke="#FFF" stroke-width="2" font-family="'Berkeley-Italic'" font-size="8">W/D</tspan></text><path fill="none" stroke="#2B2422" stroke-width=".5" stroke-miterlimit="500" d="M524.5 443.4h41.3v52.1"/><text transform="matrix(0 1 -1 0 374.6631 163.1857)" fill="#2B2422" font-family="'Berkeley-Bold'" font-size="8">Seat</text><text transform="matrix(1 0 0 1 398.4283 288.5942)" fill="#2B2422" font-family="'Berkeley-Bold'" font-size="10">Laundry</text><text transform="matrix(1 0 0 1 373.8943 287.7593)"><tspan x="0" y="0" fill="#2B2422" font-family="'Berkeley-Italic'" font-size="8">Opt.</tspan><tspan x="-.2" y="9" fill="#2B2422" font-family="'Berkeley-Italic'" font-size="8">W/D</tspan></text><text transform="matrix(1 0 0 1 371.1697 320.4438)"><tspan x="0" y="0" fill="#2B2422" font-family="'Berkeley-Italic'" font-size="8">Opt.</tspan><tspan x="3.3" y="8" fill="#2B2422" font-family="'Berkeley-Italic'" font-size="8">LT</tspan></text><text transform="matrix(1 0 0 1 361.6155 209.521)"><tspan x="0" y="0" fill="#2B2422" font-family="'Berkeley-Bold'" font-size="10">Master</tspan><tspan x="4.7" y="10" fill="#2B2422" font-family="'Berkeley-Bold'" font-size="10">Bath</tspan></text><text transform="matrix(1 0 0 1 637.886 374.2788)"><tspan x="0" y="0" fill="#2B2422" font-family="'Berkeley-Bold'" font-size="8">Walk-In</tspan><tspan x="2.2" y="8" fill="#2B2422" font-family="'Berkeley-Bold'" font-size="8">Closet</tspan></text><text transform="matrix(1 0 0 1 535.2728 473.354)"><tspan x="0" y="0" fill="#2B2422" font-family="'Berkeley-Bold'" font-size="8">Walk-In</tspan><tspan x="2.2" y="8" fill="#2B2422" font-family="'Berkeley-Bold'" font-size="8">Closet</tspan></text><text transform="matrix(1 0 0 1 325.2728 299.854)"><tspan x="0" y="0" fill="#2B2422" font-family="'Berkeley-Bold'" font-size="8">Walk-In</tspan><tspan x="2.2" y="8" fill="#2B2422" font-family="'Berkeley-Bold'" font-size="8">Closet</tspan></text><text transform="matrix(1 0 0 1 460.7728 266.354)"><tspan x="0" y="0" fill="#2B2422" font-family="'Berkeley-Bold'" font-size="8">Walk-In</tspan><tspan x="2.2" y="8" fill="#2B2422" font-family="'Berkeley-Bold'" font-size="8">Closet</tspan></text><text transform="matrix(1 0 0 1 441.1751 180.354)"><tspan x="0" y="0" fill="#2B2422" font-family="'Berkeley-Bold'" font-size="8">Walk-In</tspan><tspan x="2.2" y="8" fill="#2B2422" font-family="'Berkeley-Bold'" font-size="8">Closet</tspan></text><text transform="matrix(1 0 0 1 546.3887 366.8813)" fill="#2B2422" font-family="'Berkeley-Bold'" font-size="10">Bath 2</text><text transform="matrix(1 0 0 1 605.5417 369.6558)" fill="#2B2422" font-family="'Berkeley-Bold'" font-size="8">Linen</text><text transform="matrix(1 0 0 1 582.619 301.8589)" fill="#2B2422" font-family="'Berkeley-Bold'" font-size="8">Dn</text><text transform="matrix(1 0 0 1 598.7468 461.4077)"><tspan x="0" y="0" fill="#2B2422" font-family="'Berkeley-Bold'" font-size="12">Bedroom #4</tspan><tspan x="5.5" y="12" fill="#2B2422" font-family="'Berkeley-Bold'" font-size="10">11&apos;4&quot; x 12&apos;1&quot;</tspan></text><text transform="matrix(1 0 0 1 437.863 415.9526)"><tspan x="0" y="0" fill="#2B2422" font-family="'Berkeley-Bold'" font-size="12">Bedroom #3</tspan><tspan x="5.5" y="12" fill="#2B2422" font-family="'Berkeley-Bold'" font-size="10">12&apos;1&quot; x 16&apos;1&quot;</tspan></text><text transform="matrix(1 0 0 1 325.8757 416.7778)"><tspan x="0" y="0" fill="#2B2422" font-family="'Berkeley-Bold'" font-size="12">Bedroom #2</tspan><tspan x="2.9" y="12" fill="#2B2422" font-family="'Berkeley-Bold'" font-size="10">11&apos;4&quot; x 17&apos;10&quot;</tspan></text><text transform="matrix(1 0 0 1 553.8488 221.7329)"><tspan x="0" y="0" fill="#2B2422" font-family="'Berkeley-Bold'" font-size="12">Master Bedroom</tspan><tspan x="16.4" y="10" fill="#2B2422" font-family="'Berkeley-Bold'" font-size="10">19&apos;1&quot; x 13&apos;8&quot;</tspan></text></g><g id="Master_Bad"><path fill-rule="evenodd" clip-rule="evenodd" fill="#FFF" d="M439.5 261.4l-138.5-.3V147.5h138.5z"/><path fill="none" stroke="#2B2422" stroke-width=".5" stroke-miterlimit="500" d="M347.5 216.1h-6.6L328 229v5.5M347.5 216.1h24.6L385 229v5.5"/><path fill="none" stroke="#2B2422" stroke-width=".5" stroke-miterlimit="500" d="M329.5 234.5v-4.9l12-12h30l12 12v4.9M347.5 217.6v-1.5M365.5 217.6v-1.5M383 229.1l1.1-1.1M383.5 230.4h1.5M372.1 218.2l1-1.1M370.8 217.6v-1.5M330.1 229.1L329 228M329.5 230.4H328M341 218.2l-1.1-1.1M342.3 217.6v-1.5"/><path fill="none" stroke="#2B2422" stroke-width=".3" stroke-miterlimit="500" stroke-dasharray="3,1" d="M430.8 200.4v-31.9l66.4.1"/><path fill-rule="evenodd" clip-rule="evenodd" fill="#12100B" stroke="#12100B" stroke-width=".5" d="M368.1 263.8h71.7M442.4 263.8v-34.5h-2.6v5.2h-29.6v2.6h29.6v24h-53.6v-24h3v-2.6h-5.7v26.6h-54v-26.6h-5v2.6h2.4v14.3h-18.4v-14.3h2.5v-2.6h-2.5v-12h-3v41.3h60zM463.8 203v-2.6h-38.6v-40.9h66.4v-3H305.5v30h3v-27h114V203h17.3v5.3h2.6V203z"/><path fill="#FFF" stroke="#2B2422" stroke-width=".5" stroke-miterlimit="10" d="M438.3 242.4v13.5c0 .6-.6 1.2-1.2 1.2s-1.6-.1-2.9-.1c-1.3 0-2.2-1.9-3.9-1.9s-13.1-1.2-13.1-6.2 11.2-6 13.2-6c2.4 0 3.2-2.1 4-2.1h2.6c1 .1 1.3.6 1.3 1.6z"/><g stroke="#2B2422" stroke-miterlimit="10"><path fill="#FFF" stroke-width=".35" d="M404.9 251.8l-15.2-15.2-.5.6 15.2 15.2.5-.6"/><path fill="none" stroke-width=".5" d="M410.2 237.2c-.1 5.7-1.2 9.9-5.2 14.6-2.1 2.5-4.3 3.8-4.3 3.8"/></g><g stroke="#2B2422" stroke-miterlimit="10"><path fill="#FFF" stroke-width=".35" d="M425.2 213.5l15.1 15.2-.5.6-15.2-15.2.6-.6"/><path fill="none" stroke-width=".5" d="M439.8 208.3c-5.7.1-9.9 1.2-14.6 5.2-2.5 2.1-3.8 4.3-3.8 4.3"/></g><g stroke="#2B2422" stroke-miterlimit="10"><path fill="#FFF" stroke-width=".35" d="M321.1 225.2l-9.8 9.7-.3-.4 9.7-9.7.4.4"/><path fill="none" stroke-width=".5" d="M324.5 234.5c-.1-3.6-.8-6.4-3.4-9.4-1.4-1.6-2.8-2.5-2.8-2.5"/></g><path fill="#FFF" stroke="#2B2422" stroke-width=".5" stroke-miterlimit="10" d="M308.5 186.5v36h-3v1.5h-1.9v-39h1.9v1.5z"/><path fill="none" stroke="#2B2422" stroke-width=".25" stroke-miterlimit="10" d="M307 186.5h.8v18.4h-.8zM306.2 204.1h.8v18.4h-.8z"/><ellipse fill="none" stroke="#2B2422" stroke-width=".5" stroke-miterlimit="10" cx="399.9" cy="167.6" rx="7.7" ry="6.1"/><ellipse fill="none" stroke="#2B2422" stroke-width=".5" stroke-miterlimit="10" cx="331.4" cy="167.6" rx="7.7" ry="6.1"/><g stroke="#2B2422" stroke-miterlimit="10"><path fill="#FFF" stroke-width=".35" d="M425.2 213.5l15.1 15.2-.5.6-15.2-15.2.6-.6"/><path fill="none" stroke-width=".5" d="M439.8 208.2c-5.7.1-9.9 1.2-14.6 5.2-2.5 2.1-3.8 4.3-3.8 4.3"/></g><path fill="none" stroke="#2B2422" stroke-width=".5" stroke-miterlimit="500" d="M496 169.6h-64.1v30.8M354.3 176v-16.5M308.5 176h114M376.8 176v-16.5"/><path fill="none" stroke="#2B2422" stroke-width=".5" stroke-linecap="round" stroke-linejoin="round" stroke-miterlimit="500" d="M308.5 239.4h18.4"/><path fill="none" stroke="#2B2422" stroke-width=".5" stroke-linejoin="round" d="M357.5 241.6c.2-.3.4-.6.4-1 0-.8-.6-1.4-1.4-1.4-.8 0-1.4.6-1.4 1.4 0 .8.6 1.4 1.4 1.4.4.1.7-.1 1-.4"/><g stroke="#2B2422" stroke-linejoin="round" stroke-miterlimit="10"><path fill="none" stroke-width=".5" d="M365.6 216.1c-.1-4.9-1.1-8.5-4.5-12.5-1.8-2.1-3.7-3.3-3.7-3.3"/><path fill="#FFF" stroke-width=".35" d="M361.1 203.6l-13.1 13-.5-.5 13.1-13 .5.5"/></g><path fill="none" stroke="#2B2422" stroke-width=".5" stroke-linecap="round" stroke-linejoin="round" stroke-miterlimit="500" d="M329.5 252.1h54"/><path fill="none" stroke="#2B2422" stroke-width=".5" stroke-miterlimit="500" d="M383.5 252.1l-25.7-10.7M355.1 240.3l-25.6-10.7M329.5 252.1l25.8-10.7M357.8 240.3l25.6-10.6M371.5 217.6l-14.1 21.9M355.7 239.6l-14.1-21.9"/><text transform="matrix(1 0 0 1 349.5228 188.6763)"><tspan x="0" y="0" fill="#2B2422" font-family="'Berkeley-Bold'" font-size="10">Master</tspan><tspan x="4.7" y="10" fill="#2B2422" font-family="'Berkeley-Bold'" font-size="10">Bath</tspan></text><text transform="matrix(1 0 0 1 309.9073 247.0933)" fill="#2B2422" font-family="'Berkeley-Bold'" font-size="7">Linen</text><text transform="matrix(1 0 0 1 349.6922 258.7603)" fill="#2B2422" font-family="'Berkeley-Bold'" font-size="7">Seat</text></g><g id="Optional_Plan"><path fill-rule="evenodd" clip-rule="evenodd" fill="#FFF" d="M686.9 537.7H289v-275h153.4v19.8h16.1v28.3h123.8v40h104.6z"/><path fill="none" stroke="#2B2422" stroke-width=".3" stroke-miterlimit="500" stroke-dasharray="3,1" d="M526.8 177.5h135.8v87H526.8zM536.9 328.3h-51.4M485.5 328.3v33.3M671.5 353.4v48.7M620.2 353.4v30.4M353.2 320.4h-44.7M353.2 361.6h-44.7"/><path fill-rule="evenodd" clip-rule="evenodd" fill="#12100B" stroke="#12100B" stroke-width=".5" d="M575.5 498.5h-18v-3h18.4v-3h2.6v21H592v3h-16.5zM524.5 495.5h15v3h-18v-18H502v-3h19.9v-3h2.6zM445 477.5h30v3h-30zM418 480.5v-3h-4.8V364.3h35.2v-2.7h-6v-4.5h-2.6v4.5h-29.3v115.9h-15v18h-9v3h12v-18zM344.5 495.5h15v3h-15zM386.2 261.1h53.6"/><path fill-rule="evenodd" clip-rule="evenodd" fill="#12100B" stroke="#12100B" stroke-width=".5" d="M442.4 261.1v21.4h23.1v2.6h-23.1v15.4h-2.6v-36.7h-53.6v63.7h53.6v-3h2.6v10.1h-2.6v-4.5h-59.6v-2.6h3.3v-63.7h-75v45h47.3v18.7h3.4v2.6h-3.4v3h-2.6v-21.7h-44.7v59.2h44.7v-16.5h2.6v19.2h-47.3v122.2h9v3h-12V261.1h3zM683.5 516.5H667v-3h13.5V404.8H658v-2.7h22.5v-48.7h-69.3v30.4h17.6v18.3h8.2v2.7h-28.5v-18.4h-3.7v-2.6h3.7v-33H679v-19.5h4.5zM578.5 471.5h-2.6v-59.6h-27.4v-2.6h27.4v-45h-51.4v45h3v2.6h-3v41.6h-2.6v-89.2h-3v-2.7h18v-42.3h-60.4v42.3h21.4v2.7h-27v-2.7h3v-45h65.6v28.2h7v2.6h-7v14.2h36.4v-14.2H569v-2.6h9.5v39h3.8v2.6h-3.8zM619 513.5h21v3h-21z"/><g stroke="#2B2422" stroke-miterlimit="10"><path fill="#FFF" stroke-width=".35" d="M563.3 329.1l-16.2 16.2-.6-.6 16.2-16.2.6.6"/><path fill="none" stroke-width=".5" d="M568.9 344.7c-.1-6.1-1.3-10.6-5.6-15.6-2.3-2.7-4.6-4.1-4.6-4.1"/></g><g stroke="#2B2422" stroke-miterlimit="10"><path fill="#FFF" stroke-width=".35" d="M513.7 347.1l-15.2 15.1-.6-.5 15.2-15.2.6.6"/><path fill="none" stroke-width=".5" d="M519 361.7c-.1-5.7-1.2-9.9-5.2-14.6-2.1-2.5-4.3-3.8-4.3-3.8"/></g><g stroke="#2B2422" stroke-miterlimit="10"><path fill="#FFF" stroke-width=".35" d="M364.3 312.8l15.3 15.3.6-.6-15.3-15.2-.6.5"/><path fill="none" stroke-width=".5" d="M359 327.5c.1-5.7 1.2-10 5.3-14.7 2.1-2.5 4.4-3.9 4.4-3.9"/></g><g stroke="#2B2422" stroke-miterlimit="10"><path fill="#FFF" stroke-width=".35" d="M454 380l16.3-16.3.6.6-16.3 16.3-.6-.6"/><path fill="none" stroke-width=".5" d="M448.3 364.3c.1 6.1 1.3 10.6 5.6 15.7 2.3 2.7 4.7 4.1 4.7 4.1"/></g><g stroke="#2B2422" stroke-miterlimit="10"><path fill="#FFF" stroke-width=".35" d="M338.5 349l15.2-15.3-.5-.6-15.3 15.3.6.6"/><path fill="none" stroke-width=".5" d="M353.2 354.2c-5.7-.1-10-1.2-14.7-5.3-2.5-2.1-3.9-4.4-3.9-4.4"/></g><g stroke="#2B2422" stroke-miterlimit="10"><path fill="#FFF" stroke-width=".35" d="M424.1 351.5l16.3-16.2-.6-.7-16.3 16.3.6.6"/><path fill="none" stroke-width=".5" d="M439.8 357.2c-6.1-.1-10.6-1.3-15.6-5.6-2.7-2.3-4.1-4.7-4.1-4.7"/></g><g stroke="#2B2422" stroke-miterlimit="10"><path fill="#FFF" stroke-width=".35" d="M423.1 306.4l17.3 17.4-.6.7-17.4-17.4.7-.7"/><path fill="none" stroke-width=".5" d="M439.8 300.4c-6.5.1-11.4 1.4-16.7 6-2.8 2.4-4.4 5-4.4 5"/></g><g stroke="#2B2422" stroke-miterlimit="10"><path fill="#FFF" stroke-width=".35" d="M539.2 458.7L524 473.9l.5.6 15.2-15.2-.5-.6"/><path fill="none" stroke-width=".5" d="M524.5 453.4c5.7.1 9.9 1.2 14.6 5.3 2.5 2.1 3.9 4.4 3.9 4.4"/></g><g stroke="#2B2422" stroke-miterlimit="10"><path fill="#FFF" stroke-width=".35" d="M543.3 426.5l-15.2-15.2-.6.6 15.3 15.2.5-.6"/><path fill="none" stroke-width=".5" d="M548.6 411.9c-.1 5.7-1.2 9.9-5.3 14.6-2.1 2.5-4.4 3.9-4.4 3.9"/></g><g stroke="#2B2422" stroke-miterlimit="10"><path fill="#FFF" stroke-width=".35" d="M561.3 476.7l15.2 15.2-.6.6-15.2-15.2.6-.6"/><path fill="none" stroke-width=".5" d="M575.9 471.4c-5.7.1-9.9 1.2-14.6 5.3-2.5 2.1-3.9 4.4-3.9 4.4"/></g><g stroke="#2B2422" stroke-miterlimit="10"><path fill="#FFF" stroke-width=".35" d="M599.1 402l-16.2-16.2-.6.6 16.2 16.2.6-.6"/><path fill="none" stroke-width=".5" d="M604.7 386.4c-.1 6.1-1.3 10.6-5.6 15.6-2.3 2.6-4.6 4.1-4.6 4.1"/></g><g stroke="#2B2422" stroke-miterlimit="10"><path fill="#FFF" stroke-width=".35" d="M652.8 387.5l-15.2 15.2-.6-.6 15.2-15.1.6.5"/><path fill="none" stroke-width=".5" d="M658.1 402.1c-.1-5.7-1.2-9.9-5.2-14.6-2.1-2.5-4.3-3.8-4.3-3.8"/></g><g stroke="#2B2422" stroke-miterlimit="10"><path fill="#FFF" stroke-width=".5" d="M539.5 495.5h18v3h1v2.2h-20v-2.2h1z"/><path fill="none" stroke-width=".25" d="M557.5 498.2h-18M557.5 497.1h-18"/></g><g stroke="#2B2422" stroke-miterlimit="10"><path fill="#FFF" stroke-width=".5" d="M475.1 477.5h27.1v3h1.4v2.2h-30.1v-2.2h1.6z"/><path fill="none" stroke-width=".25" d="M502.2 480.2h-27.1M502.2 479.1h-27.1"/></g><g stroke="#2B2422" stroke-miterlimit="10"><path fill="#FFF" stroke-width=".5" d="M639.9 513.5H667v3h1.4v2.2h-30v-2.2h1.5z"/><path fill="none" stroke-width=".25" d="M667 516.2h-27.1M667 515.1h-27.1"/></g><g stroke="#2B2422" stroke-miterlimit="10"><path fill="#FFF" stroke-width=".5" d="M591.9 513.5H619v3h1.4v2.2h-30v-2.2h1.5z"/><path fill="none" stroke-width=".25" d="M619 516.2h-27.1M619 515.1h-27.1"/></g><g stroke="#2B2422" stroke-miterlimit="10"><path fill="#FFF" stroke-width=".5" d="M417.9 477.5H445v3h1.4v2.2h-30v-2.2h1.5z"/><path fill="none" stroke-width=".25" d="M445 480.2h-27.1M445 479.1h-27.1"/></g><g stroke="#2B2422" stroke-miterlimit="10"><path fill="#FFF" stroke-width=".5" d="M359.4 495.5h27.1v3h1.4v2.2h-30v-2.2h1.5z"/><path fill="none" stroke-width=".25" d="M386.5 498.2h-27.1M386.5 497.1h-27.1"/></g><g stroke="#2B2422" stroke-miterlimit="10"><path fill="#FFF" stroke-width=".5" d="M317.4 495.5h27.1v3h1.4v2.2h-30v-2.2h1.5z"/><path fill="none" stroke-width=".25" d="M344.5 498.2h-27.1M344.5 497.1h-27.1"/></g><path fill="none" stroke="#2B2422" stroke-width=".5" stroke-linecap="round" stroke-linejoin="round" stroke-miterlimit="500" d="M607.8 320h-16.5M591.3 315.9v4.1M607.8 350.8V320M608.5 350.8h-.7M611.9 350.8v-34.9"/><path fill="none" stroke="#2B2422" stroke-width=".5" stroke-miterlimit="500" d="M486.7 329.4v32.2M575.9 348.1h-36.4M486.7 329.4v30.7M536.9 329.4h-50.2"/><ellipse fill="none" stroke="#2B2422" stroke-width=".5" stroke-miterlimit="10" cx="370.2" cy="272" rx="7.7" ry="6.1"/><ellipse fill="none" stroke="#2B2422" stroke-width=".5" stroke-miterlimit="10" cx="567.8" cy="450.4" rx="6.1" ry="7.7"/><ellipse fill="none" stroke="#2B2422" stroke-width=".5" stroke-miterlimit="10" cx="567.8" cy="426.2" rx="6.1" ry="7.7"/><path fill="#FFF" stroke="#2B2422" stroke-width=".5" stroke-miterlimit="10" d="M545 365.8h-13.5c-.6 0-1.2.6-1.2 1.2s.1 1.6.1 2.9c0 1.3 1.9 2.2 1.9 3.9 0 1.7 1.2 13.1 6.2 13.1s6-11.2 6-13.2c0-2.4 2.1-3.2 2.1-4v-2.6c-.1-1.1-.6-1.3-1.6-1.3zM349.8 265.3h-13.5c-.6 0-1.2.6-1.2 1.2s.1 1.6.1 2.9c0 1.3 1.9 2.2 1.9 3.9 0 1.7 1.2 13.1 6.2 13.1s6-11.2 6-13.2c0-2.4 2.1-3.2 2.1-4v-2.6c-.1-1.1-.6-1.3-1.6-1.3z"/><g fill="none" stroke="#2B2422" stroke-width=".5" stroke-miterlimit="10"><path d="M553.4 364.4h22.5v44.8h-22.5z"/><path d="M568.9 367.4c-2-.7-7.1-.7-9.3 0-2.2.7-3.5 7.4-3.5 19.8 0 11.6.3 17.6 2.1 18.7 2.6 1.5 9.7 1.5 11.9 0 2.2-1.4 2.4-7.5 2.4-19 .1-11.4-.9-18.6-3.6-19.5z"/></g><g fill="none" stroke="#2B2422" stroke-width=".5" stroke-miterlimit="10"><path d="M308.5 263.9H331v44.8h-22.5z"/><path d="M324 266.9c-2-.7-7.1-.7-9.3 0-2.2.7-3.5 7.4-3.5 19.8 0 11.6.3 17.6 2.1 18.7 2.6 1.5 9.7 1.5 11.9 0 2.2-1.4 2.4-7.5 2.4-19 .1-11.4-.9-18.6-3.6-19.5z"/></g><path fill="none" stroke="#2B2422" stroke-width=".5" stroke-miterlimit="500" d="M559.4 411.9v51h16.5"/><path fill="none" stroke="#2B2422" stroke-width=".5" stroke-linecap="round" stroke-linejoin="round" stroke-miterlimit="500" d="M670.4 353.4v48.7M621.3 353.4v30.4"/><path fill="none" stroke="#2B2422" stroke-width=".5" stroke-miterlimit="500" d="M383.5 280.3h-27v-16.5M353.2 321.5h-44.7M353.2 360.5h-44.7"/><path fill="none" stroke="#2B2422" stroke-width=".3" stroke-dasharray="3,1" d="M409.4 266h-20.9v19.2h20.9V266M409.4 290h-20.9v19.2h20.9V290M405.1 312.5h-16.7V326h16.7v-13.5zM396 312.9v-49.4M396 328.1v-2.3"/><text transform="matrix(1 0 0 1 392.0232 287.7593)"><tspan x="0" y="0" fill="#12100B" stroke="#FFF" stroke-width="2" font-family="'Berkeley-Italic'" font-size="8">Opt.</tspan><tspan x="-.2" y="9" fill="#12100B" stroke="#FFF" stroke-width="2" font-family="'Berkeley-Italic'" font-size="8">W/D</tspan></text><text transform="matrix(1 0 0 1 388.7937 317.8354)"><tspan x="0" y="0" fill="#12100B" stroke="#FFF" font-family="'Berkeley-Italic'" font-size="8">Opt.</tspan><tspan x="3.3" y="8" fill="#12100B" stroke="#FFF" font-family="'Berkeley-Italic'" font-size="8">LT</tspan></text><text transform="matrix(1 0 0 1 400.2076 309.1372)" fill="#12100B" stroke="#FFF" font-family="'Berkeley-Bold'" font-size="10">Laundry</text><text transform="matrix(1 0 0 1 633.9935 372.1841)"><tspan x="0" y="0" fill="#2B2422" font-family="'Berkeley-Bold'" font-size="8">Walk-In</tspan><tspan x="2.2" y="8" fill="#2B2422" font-family="'Berkeley-Bold'" font-size="8">Closet</tspan></text><text transform="matrix(1 0 0 1 510.2347 336.2485)"><tspan x="0" y="0" fill="#2B2422" font-family="'Berkeley-Bold'" font-size="8">Walk-In</tspan><tspan x="2.2" y="8" fill="#2B2422" font-family="'Berkeley-Bold'" font-size="8">Closet</tspan></text><text transform="matrix(1 0 0 1 317.3704 332.2808)"><tspan x="0" y="0" fill="#2B2422" font-family="'Berkeley-Bold'" font-size="8">Walk-In</tspan><tspan x="2.2" y="8" fill="#2B2422" font-family="'Berkeley-Bold'" font-size="8">Closet</tspan></text><text transform="matrix(1 0 0 1 529.0782 446.6597)" fill="#2B2422" font-family="'Berkeley-Bold'" font-size="10">Bath 3</text><text transform="matrix(1 0 0 1 345.4112 300.9927)" fill="#2B2422" font-family="'Berkeley-Bold'" font-size="10">Bath 3</text><text transform="matrix(1 0 0 1 549.6885 356.894)" fill="#2B2422" font-family="'Berkeley-Bold'" font-size="7">Linen</text><text transform="matrix(1 0 0 1 599.8904 466.4077)"><tspan x="0" y="0" fill="#2B2422" font-family="'Berkeley-Bold'" font-size="12">Bedroom #4</tspan><tspan x="5.5" y="12" fill="#2B2422" font-family="'Berkeley-Bold'" font-size="10">11&apos;4&quot; x 12&apos;1&quot;</tspan></text><text transform="matrix(1 0 0 1 439.0066 420.9526)"><tspan x="0" y="0" fill="#2B2422" font-family="'Berkeley-Bold'" font-size="12">Bedroom #3</tspan><tspan x="5.5" y="12" fill="#2B2422" font-family="'Berkeley-Bold'" font-size="10">12&apos;1&quot; x 12&apos;7&quot;</tspan></text><text transform="matrix(1 0 0 1 327.0193 421.7778)"><tspan x="0" y="0" fill="#2B2422" font-family="'Berkeley-Bold'" font-size="12">Bedroom #2</tspan><tspan x="5.5" y="12" fill="#2B2422" font-family="'Berkeley-Bold'" font-size="10">11&apos;4&quot; x 18&apos;5&quot;</tspan></text><text transform="matrix(1 0 0 1 400.2076 309.1372)" fill="#2B2422" font-family="'Berkeley-Bold'" font-size="10">Laundry</text><text transform="matrix(1 0 0 1 391.9666 287.7593)"><tspan x="0" y="0" fill="#2B2422" font-family="'Berkeley-Italic'" font-size="8">Opt.</tspan><tspan x="-.2" y="9" fill="#2B2422" font-family="'Berkeley-Italic'" font-size="8">W/D</tspan></text><text transform="matrix(1 0 0 1 388.7937 317.8354)"><tspan x="0" y="0" fill="#2B2422" font-family="'Berkeley-Italic'" font-size="8">Opt.</tspan><tspan x="3.3" y="8" fill="#2B2422" font-family="'Berkeley-Italic'" font-size="8">LT</tspan></text></g><g id="OA"><path fill="none" stroke="#2B2422" stroke-width=".3" stroke-miterlimit="500" stroke-dasharray="3,1" d="M581.9 327.8L571 340.6M559.6 319.3l9.8 21.3M559.6 364.3l9.8-21.4M581.9 355.8L571 342.9M501.7 319.3h9.1M528.7 364.2v-15.1h-27M499 316.6h11.8M549.3 316.6h34.1M499 316.6v53.3M501.7 319.3v45M546.7 285.1v5.2M546.7 312.8v3.8M549.3 285.1v5.2M549.3 312.8v3.8M549.3 312.8h-2.6M549.3 290.3h-2.6M583.4 319.3v45M557 319.3v45M559.6 319.3v45M531.8 319.3v-2.7M510.8 319.3v-2.7M531.8 319.3h51.6M531.8 316.6h14.9M501.7 366.9h82.5M501.7 364.3h82.5M501.7 366.9v3M501.7 392.4H499M501.7 369.9H499M500 391.4l-16-15.9M499 392.4l-15.9-15.9M499 392.4l1-1M499 392.4v3M501.7 392.4v3M558.3 347v-10.5h-.8v27h.8V347h.7v-27h-.7v16.5M569.9 364.2v-4.4l12-4v-28l-12-4v-4.5"/><circle fill="none" stroke="#2B2422" stroke-width=".3" stroke-miterlimit="500" stroke-dasharray="3,1" cx="570.2" cy="341.8" r="1.5"/><path fill="none" stroke="#2B2422" stroke-width=".3" stroke-miterlimit="500" stroke-dasharray="3,1" d="M482.2 377.4c4.3-4.8 10.4-7.5 16.8-7.5"/><path fill-rule="evenodd" clip-rule="evenodd" fill="#12100B" stroke="#12100B" stroke-width=".5" d="M584.2 395.4h-53.1v2.6h55.7v-44.6H682v-22.1h-3v19.5h-94.8zM307 395.4v-34.1h-3V398h209.1v-2.6zM304 239h209.1v2.6h-22.7v40.9h16.9v2.6h-19.5v-43.5H307v34.2h-3zM528.3 285.1v-2.6h10.9v-40.9h-8.1V239h55.7v43.5H682v21.8h-3v-19.2H577.2v-2.6h7v-40.9h-42.4v40.9h12.9v2.6z"/><ellipse fill="none" stroke="#2B2422" stroke-width=".3" stroke-miterlimit="10" stroke-dasharray="3,1" cx="515.3" cy="356.8" rx="7.7" ry="6.1"/><path fill="#FFF" stroke="#2B2422" stroke-width=".3" stroke-miterlimit="10" stroke-dasharray="3,1" d="M536 363.6h13.5c.6 0 1.2-.6 1.2-1.2s-.1-1.6-.1-2.9c0-1.3-1.9-2.2-1.9-3.9s-1.2-13.1-6.2-13.1-6 11.2-6 13.2c0 2.4-2.1 3.2-2.1 4v2.6c.1 1 .6 1.3 1.6 1.3z"/><g fill="#FFF" stroke="#2B2422" stroke-miterlimit="10"><path stroke-width=".5" d="M682 303.3h2.2v29H682v-1h-3v-27h3z"/><path stroke-width=".25" d="M681.7 304.3v27M680.7 304.3v27"/></g><g stroke="#2B2422" stroke-miterlimit="10"><path fill="#FFF" stroke-width=".5" d="M301.9 274.5h2.1v1.3h3v85.5h-3v1.1h-2.1z"/><path fill="none" stroke-width=".25" d="M304.4 302.9v-27.2M305.4 302.9v-27.2M304.4 331.7v-26.9M305.4 331.7v-26.9M304.4 361.2v-27.1M305.4 361.2v-27.1"/><path fill="#2B2422" stroke-width=".35" d="M303.7 302.7h3.1v2.3h-3.1zM303.7 332h3.1v2.3h-3.1z"/></g><path fill="none" stroke="#2B2422" stroke-width=".5" stroke-linecap="round" stroke-linejoin="round" stroke-miterlimit="500" d="M637.8 350.8v-29.3M640 314.4v-29.3M645.3 350.8v-29.3M622.8 350.8v-29.3M630.3 350.8v-29.3M632.5 314.4v-29.3M615.3 350.8v-29.3M625 314.4v-29.3M610 314.4v-29.3M602.5 314.4v-29.3M617.5 314.4v-29.3M595 314.4v-29.3M587.5 314.4v-29.3M647.5 314.4v-29.3M607.8 350.8v-29.3M583.4 350.8v-34.9M587.5 350.8V320M583.4 315.9h66.4M649.8 320h-62.3M649.8 315.9v4.1M604.8 321.5V320M651.3 321.5h-46.5M651.3 314.4h-67.1M651.3 321.5v-7.1M584.2 315.9v-1.5M583.4 350.8h.8"/><g stroke="#2B2422" stroke-miterlimit="10"><path fill="#FFF" stroke-width=".35" d="M512.5 299.7l15.2-15.1.6.5-15.2 15.2-.6-.6"/><path fill="none" stroke-width=".5" d="M507.3 285.1c.1 5.7 1.2 9.9 5.2 14.6 2.1 2.5 4.3 3.8 4.3 3.8"/></g><g stroke="#2B2422" stroke-width=".3" stroke-miterlimit="10" stroke-dasharray="3,1"><path fill="#FFF" d="M531.1 295.9l16.2 16.2-.6.7-16.2-16.3.6-.6"/><path fill="none" d="M546.7 290.3c-6.1.1-10.6 1.3-15.6 5.6-2.7 2.3-4.1 4.6-4.1 4.6"/></g><g stroke="#2B2422" stroke-width=".3" stroke-miterlimit="10" stroke-dasharray="3,1"><path fill="#FFF" d="M526.6 333.8l-15.2-15.2-.6.6 15.2 15.1.6-.5"/><path fill="none" d="M531.8 319.2c-.1 5.7-1.2 9.9-5.2 14.5-2.1 2.5-4.3 3.8-4.3 3.8"/></g><g stroke="#2B2422" stroke-miterlimit="10"><path fill="#FFF" stroke-width=".35" d="M571.6 300.7l-16.3-16.2-.6.6 16.2 16.2.7-.6"/><path fill="none" stroke-width=".5" d="M577.2 285.1c-.1 6.1-1.3 10.6-5.6 15.6-2.3 2.6-4.6 4.1-4.6 4.1"/></g><path fill="none" stroke="#2B2422" stroke-width=".5" stroke-linecap="round" stroke-linejoin="round" stroke-miterlimit="500" d="M513.1 395.4h18v1.5h-18z"/><g fill="none" stroke="#2B2422" stroke-width=".5" stroke-miterlimit="10"><path d="M610 335.4h52.8v-35.3h-77.9"/><path d="M613.7 331.6l-3.7 3.8 3.7 3.7"/></g><path fill="none" stroke="#2B2422" stroke-width=".5" stroke-linecap="round" stroke-linejoin="round" stroke-miterlimit="500" d="M513.1 240.1h18v1.5h-18z"/><text transform="matrix(1 0 0 1 534.8425 330.1694)"><tspan x="0" y="0" fill="#2B2422" font-family="'Berkeley-Italic'" font-size="8">Opt.</tspan><tspan x="-.5" y="8" fill="#2B2422" font-family="'Berkeley-Italic'" font-size="8">Bath</tspan></text><text transform="matrix(1 0 0 1 534.8425 379.7729)"><tspan x="0" y="0" fill="#2B2422" font-family="'Berkeley-Italic'" font-size="8">Opt.</tspan><tspan x="-5.8" y="8" fill="#2B2422" font-family="'Berkeley-Italic'" font-size="8">Storage</tspan></text><text transform="matrix(1 0 0 1 380.3335 313.4292)"><tspan x="0" y="0" fill="#2B2422" font-family="'Berkeley-BoldItalic'" font-size="12">Optional Attic</tspan><tspan x="9.8" y="12" fill="#2B2422" font-family="'Berkeley-BoldItalic'" font-size="10">20&apos;1&quot; x 17&apos;1&quot;</tspan></text><text transform="matrix(1 0 0 1 508.8074 256.3882)"><tspan x="0" y="0" fill="#2B2422" font-family="'Berkeley-BoldItalic'" font-size="8">Opt.</tspan><tspan x="-5.4" y="8" fill="#2B2422" font-family="'Berkeley-BoldItalic'" font-size="8">Walk-In</tspan><tspan x="-3.2" y="16" fill="#2B2422" font-family="'Berkeley-BoldItalic'" font-size="8">Closet</tspan></text><text transform="matrix(1 0 0 1 553.7485 265.0425)" fill="#2B2422" font-family="'Berkeley-Bold'" font-size="8">HVAC</text><text transform="matrix(1 0 0 1 574.6932 302.5054)" fill="#2B2422" font-family="'Berkeley-Bold'" font-size="8">Dn</text></g></svg>