<svg version="1.1" id="Layer_1" xmlns="http://www.w3.org/2000/svg" xmlns:xlink="http://www.w3.org/1999/xlink" x="0px" y="0px" width="41.75px" height="41.55px" viewBox="0 0 41.75 41.55" enable-background="new 0 0 41.75 41.55" xml:space="preserve" class="ng-scope">
<path fill-rule="evenodd" clip-rule="evenodd" fill="#FFFFFF" d="M20.225,20.825c0.3-0.166,0.534-0.366,0.7-0.6v-8.45
	c-2.7,0.233-4.967-0.066-6.8-0.899c-0.267-1.601-0.184-3.101,0.25-4.5h-9.35c-0.533,0-0.833,0.267-0.9,0.8
	c-0.434,4.3-0.434,8.6,0,12.899c0.065,0.492,0.232,0.742,0.5,0.75c-0.268-0.008-0.435-0.258-0.5-0.75c-0.434-4.3-0.434-8.6,0-12.899
	c0.066-0.534,0.367-0.8,0.9-0.8h9.35c-0.434,1.4-0.517,2.9-0.25,4.5c1.833,0.833,4.1,1.133,6.8,0.899v8.45
	C20.758,20.458,20.525,20.659,20.225,20.825z"></path>
<path fill-rule="evenodd" clip-rule="evenodd" fill="#FFFFFF" d="M20.925,39.475v-2.5v-15.55c0.033-0.434-0.2-0.634-0.7-0.601h-15.6
	h-2.55c0.434-0.199,0.667-0.449,0.7-0.75v-13.3c-0.167-1.233,0.1-2.066,0.8-2.5c0.7-0.433,1.883-0.633,3.55-0.6h7.6
	c0-0.233,0-0.434,0-0.6c0.034-0.4,0.333-0.684,0.9-0.85c0.566-0.167,1.267-0.2,2.1-0.1c0.833,0.133,1.517,0.2,2.05,0.2
	c1.667,0,3.3-0.2,4.9-0.6c1.167-0.033,1.583,0.533,1.25,1.7c0,0.1-0.017,0.183-0.05,0.25h3c0.733-1.2,1.466-1.8,2.2-1.8
	c0.767,0.233,1.417,0.833,1.95,1.8c1.4-0.133,2.7,0.05,3.9,0.55c0.2,0.033,0.367,0.15,0.5,0.35c0.367,0.533,0.567,1.183,0.6,1.95
	c0.033,0.667,0.05,1.35,0.05,2.05l0.85,0.851l-0.85,1.649v2.4c1.1-0.267,1.633,0.117,1.6,1.15c-0.4,1.434-0.6,2.899-0.6,4.399
	c0,0.5,0.067,1.116,0.2,1.851c0.1,0.766,0.066,1.399-0.1,1.899c-0.167,0.534-0.45,0.817-0.85,0.851c-0.066,0-0.15,0-0.25,0v10.8
	c0.033,1.667-0.167,2.85-0.6,3.55c-0.433,0.7-1.267,0.967-2.5,0.8h-13.3C21.375,38.809,21.125,39.042,20.925,39.475
	c0.2-0.434,0.45-0.666,0.75-0.7h13.3c1.233,0.167,2.067-0.1,2.5-0.8c0.434-0.7,0.633-1.883,0.6-3.55v-10.8c0.1,0,0.184,0,0.25,0
	c0.4-0.033,0.684-0.316,0.85-0.851c0.167-0.5,0.2-1.134,0.1-1.899c-0.133-0.734-0.2-1.351-0.2-1.851c0-1.5,0.2-2.966,0.6-4.399
	c0.033-1.033-0.5-1.417-1.6-1.15v-2.4l0.85-1.649l-0.85-0.851c0-0.7-0.017-1.383-0.05-2.05c-0.033-0.767-0.233-1.417-0.6-1.95
	c-0.133-0.2-0.3-0.317-0.5-0.35c-1.2-0.5-2.5-0.683-3.9-0.55c-0.533-0.967-1.184-1.567-1.95-1.8c-0.733,0-1.467,0.6-2.2,1.8h-3
	c0.033-0.067,0.05-0.15,0.05-0.25c0.333-1.167-0.083-1.733-1.25-1.7c-1.6,0.4-3.233,0.6-4.9,0.6c-0.533,0-1.217-0.067-2.05-0.2
	c-0.833-0.1-1.533-0.066-2.1,0.1c-0.567,0.167-0.867,0.45-0.9,0.85c0,0.167,0,0.367,0,0.6h-7.6c-1.667-0.034-2.85,0.167-3.55,0.6
	c-0.7,0.434-0.967,1.267-0.8,2.5v13.3c-0.033,0.301-0.267,0.551-0.7,0.75c-1.3,0-1.95-0.467-1.95-1.399V2.875
	c0-1.833,0.816-2.75,2.45-2.75h36.3c1.033,0,1.767,0.267,2.2,0.8c0.367,0.4,0.55,0.95,0.55,1.65v36.4c0,1.633-0.917,2.45-2.75,2.45
	h-16.55C21.392,41.425,20.925,40.775,20.925,39.475z"></path>
<path fill-rule="evenodd" clip-rule="evenodd" fill="#FFFFFF" d="M14.725,3.675l0.2,1.8c1.333-0.1,2.65-0.05,3.95,0.15
	c1.3,0.067,2.517-0.183,3.65-0.75c1.033,0.367,1.45,1.083,1.25,2.15c-0.2,1.167-0.35,2.333-0.45,3.5l2.9-2.6
	c-0.033-0.1-0.066-0.217-0.1-0.35l-0.15-1.35l-0.1-2.55l0.1,2.55l0.15,1.35c0.033,0.133,0.066,0.25,0.1,0.35l-2.9,2.6
	c0.1-1.167,0.25-2.333,0.45-3.5c0.2-1.066-0.217-1.783-1.25-2.15c-1.133,0.567-2.35,0.817-3.65,0.75c-1.3-0.2-2.617-0.25-3.95-0.15
	L14.725,3.675z"></path>
<path fill-rule="evenodd" clip-rule="evenodd" fill="#FFFFFF" d="M14.925,5.475c-0.467,0-0.667,0.25-0.6,0.75
	c0,0.033,0.017,0.083,0.05,0.15c-0.034-0.066-0.05-0.117-0.05-0.15C14.258,5.725,14.458,5.475,14.925,5.475z"></path>
<path fill-rule="evenodd" clip-rule="evenodd" fill="#FFFFFF" d="M20.925,11.775c0.7,0.067,1.383-0.033,2.05-0.3
	c-0.033-0.334,0.083-0.65,0.35-0.95c-0.267,0.3-0.383,0.616-0.35,0.95C22.308,11.742,21.625,11.842,20.925,11.775z"></path>
<path fill-rule="evenodd" clip-rule="evenodd" fill="#FFFFFF" d="M22.975,11.475l3.75,5.25l0.5,0.15c0.6,0.1,1.15-0.117,1.65-0.65
	c0.233-0.233,0.45-0.434,0.65-0.6l2.7-1.5l-0.35-0.9c-0.833-1.9-1.667-3.35-2.5-4.35c-0.867-1.034-1.467-1.517-1.8-1.45
	c-0.333,0.033-0.733,0.167-1.2,0.4c-0.067,0.033-0.117,0.066-0.15,0.1c0.034-0.034,0.083-0.067,0.15-0.1
	c0.466-0.233,0.867-0.367,1.2-0.4c0.333-0.067,0.934,0.417,1.8,1.45c0.833,1,1.667,2.449,2.5,4.35l0.35,0.9l-2.7,1.5
	c-0.2,0.166-0.417,0.366-0.65,0.6c-0.5,0.533-1.05,0.75-1.65,0.65l-0.5-0.15L22.975,11.475z"></path>
<path fill-rule="evenodd" clip-rule="evenodd" fill="#FFFFFF" d="M26.125,7.575c0.066,0.1,0.15,0.183,0.25,0.25
	C26.275,7.758,26.191,7.675,26.125,7.575z"></path>
<path fill-rule="evenodd" clip-rule="evenodd" fill="#FFFFFF" d="M28.875,3.675l-2.9,2.55L28.875,3.675z"></path>
<path fill-rule="evenodd" clip-rule="evenodd" fill="#FFFFFF" d="M27.225,16.875c-0.4,0.934-0.466,2.25-0.2,3.949
	c-0.033,1.7,0.566,2.984,1.8,3.851h4.45l0.3-1.25c-0.033-0.667-0.066-1.333-0.1-2c-0.133-1.7,0.067-3.351,0.6-4.95
	c-0.267-0.334-0.566-0.533-0.9-0.6c-1.167-0.467-2.383-0.551-3.65-0.25c1.267-0.301,2.483-0.217,3.65,0.25
	c0.333,0.066,0.633,0.266,0.9,0.6c-0.533,1.6-0.733,3.25-0.6,4.95c0.034,0.667,0.067,1.333,0.1,2l-0.3,1.25h-4.45
	c-1.233-0.866-1.833-2.15-1.8-3.851C26.758,19.125,26.825,17.809,27.225,16.875z"></path>
<path fill-rule="evenodd" clip-rule="evenodd" fill="#FFFFFF" d="M20.925,21.425c0.033-0.233,0.217-0.434,0.55-0.601h5.55h-5.55
	C21.142,20.992,20.958,21.192,20.925,21.425z"></path>
<path fill-rule="evenodd" clip-rule="evenodd" fill="#FFFFFF" d="M33.575,23.425c0.6-0.067,1.2-0.067,1.8,0l2.95,0.2l-2.95-0.2
	C34.775,23.358,34.175,23.358,33.575,23.425z"></path>
<polygon fill-rule="evenodd" clip-rule="evenodd" fill="#FFFFFF" points="38.075,11.075 35.375,13.425 38.075,13.475 35.375,13.425 
	"></polygon>
<path fill-rule="evenodd" clip-rule="evenodd" fill="#FFFFFF" d="M33.025,3.675c1.4,1.933,3.083,3.566,5.05,4.899
	C36.108,7.242,34.425,5.608,33.025,3.675z"></path>
<path fill-rule="evenodd" clip-rule="evenodd" fill="#FFFFFF" d="M31.875,13.225l3.5,0.2L31.875,13.225z"></path>
<path fill-rule="evenodd" clip-rule="evenodd" fill="#FFFFFF" d="M35.375,23.425v13.1c0,0.534-0.267,0.833-0.8,0.9
	c-4.3,0.433-8.6,0.433-12.9,0c-0.492-0.065-0.742-0.216-0.75-0.45c0.008,0.234,0.258,0.385,0.75,0.45c4.3,0.433,8.6,0.433,12.9,0
	c0.533-0.067,0.8-0.366,0.8-0.9V23.425z"></path>
<path fill-rule="evenodd" clip-rule="evenodd" fill="none" stroke="#383635" stroke-width="0.3" stroke-linecap="round" stroke-linejoin="round" stroke-miterlimit="3" d="
	M20.225,20.825c0.3-0.166,0.534-0.366,0.7-0.6v-8.45c-2.7,0.233-4.967-0.066-6.8-0.899c-0.267-1.601-0.184-3.101,0.25-4.5h-9.35
	c-0.533,0-0.833,0.267-0.9,0.8c-0.434,4.3-0.434,8.6,0,12.899c0.065,0.492,0.232,0.742,0.5,0.75H20.225z" style="stroke: rgb(0, 0, 0);"></path>
<path fill-rule="evenodd" clip-rule="evenodd" fill="none" stroke="#383635" stroke-width="0.3" stroke-linecap="round" stroke-linejoin="round" stroke-miterlimit="3" d="
	M2.075,20.825c0.434-0.199,0.667-0.449,0.7-0.75v-13.3c-0.167-1.233,0.1-2.066,0.8-2.5c0.7-0.433,1.883-0.633,3.55-0.6h7.6
	c0-0.233,0-0.434,0-0.6c0.034-0.4,0.333-0.684,0.9-0.85c0.566-0.167,1.267-0.2,2.1-0.1c0.833,0.133,1.517,0.2,2.05,0.2
	c1.667,0,3.3-0.2,4.9-0.6c1.167-0.033,1.583,0.533,1.25,1.7c0,0.1-0.017,0.183-0.05,0.25h3c0.733-1.2,1.466-1.8,2.2-1.8
	c0.767,0.233,1.417,0.833,1.95,1.8c1.4-0.133,2.7,0.05,3.9,0.55c0.2,0.033,0.367,0.15,0.5,0.35c0.367,0.533,0.567,1.183,0.6,1.95
	c0.033,0.667,0.05,1.35,0.05,2.05l0.85,0.851l-0.85,1.649v2.4c1.1-0.267,1.633,0.117,1.6,1.15c-0.4,1.434-0.6,2.899-0.6,4.399
	c0,0.5,0.067,1.116,0.2,1.851c0.1,0.766,0.066,1.399-0.1,1.899c-0.167,0.534-0.45,0.817-0.85,0.851c-0.066,0-0.15,0-0.25,0v10.8
	c0.033,1.667-0.167,2.85-0.6,3.55c-0.433,0.7-1.267,0.967-2.5,0.8h-13.3c-0.3,0.034-0.55,0.267-0.75,0.7c0,1.3,0.467,1.95,1.4,1.95
	h16.55c1.833,0,2.75-0.817,2.75-2.45v-36.4c0-0.7-0.184-1.25-0.55-1.65c-0.433-0.534-1.167-0.8-2.2-0.8h-36.3
	c-1.633,0-2.45,0.917-2.45,2.75v16.55C0.125,20.358,0.775,20.825,2.075,20.825z" style="stroke: rgb(0, 0, 0);"></path>
<line fill-rule="evenodd" clip-rule="evenodd" fill="none" stroke="#383635" stroke-width="0.3" stroke-linecap="round" stroke-linejoin="round" stroke-miterlimit="3" x1="4.625" y1="20.825" x2="2.075" y2="20.825" style="stroke: rgb(0, 0, 0);"></line>
<path fill-rule="evenodd" clip-rule="evenodd" fill="none" stroke="#383635" stroke-width="0.3" stroke-linecap="round" stroke-linejoin="round" stroke-miterlimit="3" d="
	M14.725,3.675l0.2,1.8c1.333-0.1,2.65-0.05,3.95,0.15c1.3,0.067,2.517-0.183,3.65-0.75c1.033,0.367,1.45,1.083,1.25,2.15
	c-0.2,1.167-0.35,2.333-0.45,3.5l2.9-2.6c-0.033-0.1-0.066-0.217-0.1-0.35l-0.15-1.35l-0.1-2.55" style="stroke: rgb(0, 0, 0);"></path>
<path fill-rule="evenodd" clip-rule="evenodd" fill="none" stroke="#383635" stroke-width="0.3" stroke-linecap="round" stroke-linejoin="round" stroke-miterlimit="3" d="
	M14.925,5.475c-0.467,0-0.667,0.25-0.6,0.75c0,0.033,0.017,0.083,0.05,0.15" style="stroke: rgb(0, 0, 0);"></path>
<path fill-rule="evenodd" clip-rule="evenodd" fill="none" stroke="#383635" stroke-width="0.3" stroke-linecap="round" stroke-linejoin="round" stroke-miterlimit="3" d="
	M20.925,11.775c0.7,0.067,1.383-0.033,2.05-0.3c-0.033-0.334,0.083-0.65,0.35-0.95" style="stroke: rgb(0, 0, 0);"></path>
<path fill-rule="evenodd" clip-rule="evenodd" fill="none" stroke="#383635" stroke-width="0.3" stroke-linecap="round" stroke-linejoin="round" stroke-miterlimit="3" d="
	M22.975,11.475l3.75,5.25l0.5,0.15c0.6,0.1,1.15-0.117,1.65-0.65c0.233-0.233,0.45-0.434,0.65-0.6l2.7-1.5l-0.35-0.9
	c-0.833-1.9-1.667-3.35-2.5-4.35c-0.867-1.034-1.467-1.517-1.8-1.45c-0.333,0.033-0.733,0.167-1.2,0.4
	c-0.067,0.033-0.117,0.066-0.15,0.1" style="stroke: rgb(0, 0, 0);"></path>
<path fill-rule="evenodd" clip-rule="evenodd" fill="none" stroke="#383635" stroke-width="0.3" stroke-linecap="round" stroke-linejoin="round" stroke-miterlimit="3" d="
	M26.125,7.575c0.066,0.1,0.15,0.183,0.25,0.25" style="stroke: rgb(0, 0, 0);"></path>
<line fill-rule="evenodd" clip-rule="evenodd" fill="none" stroke="#383635" stroke-width="0.3" stroke-linecap="round" stroke-linejoin="round" stroke-miterlimit="3" x1="28.875" y1="3.675" x2="25.975" y2="6.225" style="stroke: rgb(0, 0, 0);"></line>
<path fill-rule="evenodd" clip-rule="evenodd" fill="none" stroke="#383635" stroke-width="0.3" stroke-linecap="round" stroke-linejoin="round" stroke-miterlimit="3" d="
	M27.225,16.875c-0.4,0.934-0.466,2.25-0.2,3.949c-0.033,1.7,0.566,2.984,1.8,3.851h4.45l0.3-1.25c-0.033-0.667-0.066-1.333-0.1-2
	c-0.133-1.7,0.067-3.351,0.6-4.95c-0.267-0.334-0.566-0.533-0.9-0.6c-1.167-0.467-2.383-0.551-3.65-0.25" style="stroke: rgb(0, 0, 0);"></path>
<path fill-rule="evenodd" clip-rule="evenodd" fill="none" stroke="#383635" stroke-width="0.3" stroke-linecap="round" stroke-linejoin="round" stroke-miterlimit="3" d="
	M20.925,39.475v-2.5v-15.55c0.033-0.434-0.2-0.634-0.7-0.601" style="stroke: rgb(0, 0, 0);"></path>
<path fill-rule="evenodd" clip-rule="evenodd" fill="none" stroke="#383635" stroke-width="0.3" stroke-linecap="round" stroke-linejoin="round" stroke-miterlimit="3" d="
	M20.925,21.425c0.033-0.233,0.217-0.434,0.55-0.601h5.55" style="stroke: rgb(0, 0, 0);"></path>
<path fill-rule="evenodd" clip-rule="evenodd" fill="none" stroke="#383635" stroke-width="0.3" stroke-linecap="round" stroke-linejoin="round" stroke-miterlimit="3" d="
	M33.575,23.425c0.6-0.067,1.2-0.067,1.8,0l2.95,0.2" style="stroke: rgb(0, 0, 0);"></path>
<polyline fill-rule="evenodd" clip-rule="evenodd" fill="none" stroke="#383635" stroke-width="0.3" stroke-linecap="round" stroke-linejoin="round" stroke-miterlimit="3" points="
	38.075,11.075 35.375,13.425 38.075,13.475 " style="stroke: rgb(0, 0, 0);"></polyline>
<path fill-rule="evenodd" clip-rule="evenodd" fill="none" stroke="#383635" stroke-width="0.3" stroke-linecap="round" stroke-linejoin="round" stroke-miterlimit="3" d="
	M33.025,3.675c1.4,1.933,3.083,3.566,5.05,4.899" style="stroke: rgb(0, 0, 0);"></path>
<line fill-rule="evenodd" clip-rule="evenodd" fill="none" stroke="#383635" stroke-width="0.3" stroke-linecap="round" stroke-linejoin="round" stroke-miterlimit="3" x1="31.875" y1="13.225" x2="35.375" y2="13.425" style="stroke: rgb(0, 0, 0);"></line>
<path fill-rule="evenodd" clip-rule="evenodd" fill="none" stroke="#383635" stroke-width="0.3" stroke-linecap="round" stroke-linejoin="round" stroke-miterlimit="3" d="
	M35.375,23.425v13.1c0,0.534-0.267,0.833-0.8,0.9c-4.3,0.433-8.6,0.433-12.9,0c-0.492-0.065-0.742-0.216-0.75-0.45" style="stroke: rgb(0, 0, 0);"></path>
</svg>