<svg version="1.1" id="Layer_1" xmlns="http://www.w3.org/2000/svg" xmlns:xlink="http://www.w3.org/1999/xlink" x="0px" y="0px" width="53.954px" height="23.538px" viewBox="0 0 53.954 23.538" enable-background="new 0 0 53.954 23.538" xml:space="preserve" class="ng-scope">
<path fill-rule="evenodd" clip-rule="evenodd" fill="#FFFFFF" d="M52.427,18.775c0.567,2.6,0.1,3.982-1.4,4.149
	c-4.8,0.267-10.067,0.284-15.8,0.05l-0.25-1.899l-0.1,1.8c-4.934,0.733-9.934,0.717-15-0.05l-0.15-0.45
	c-0.067,0.334-0.3,0.55-0.7,0.65l-0.5,0.05c-2.6,0.033-5.933,0.033-10,0c-4.1-0.034-6.35-0.167-6.75-0.4
	c-0.433-0.267-0.667-0.933-0.7-2v-2c-0.667-0.3-0.983-0.816-0.95-1.55c0.233-4.467,0.517-8.916,0.85-13.35
	c0.033-0.234,0.083-0.467,0.15-0.7l1.65-0.45c0-1.166,0.25-1.934,0.75-2.3l0.7-0.2h44c0.5,0,0.95,0.033,1.35,0.1
	c1.333,0.301,1.983,1.117,1.95,2.45l-2.9,0.3l-0.05-0.05c-0.066-0.399-0.117-0.667-0.15-0.8c-0.066-0.3-2.316-0.5-6.75-0.6
	c-4.4-0.066-6.733,0.033-7,0.3c-0.1,0.134-0.167,0.517-0.2,1.149c-0.067-0.666-0.184-1.066-0.35-1.199
	c-0.167-0.301-2.533-0.4-7.1-0.301c-4.467,0.066-6.733,0.25-6.8,0.551c-0.067,0.333-0.133,1.199-0.2,2.6
	c-0.033-1.4-0.1-2.267-0.2-2.6c-0.066-0.301-2.333-0.484-6.8-0.551c-4.367-0.1-6.683,0-6.95,0.301c-0.167,0.166-0.267,0.8-0.3,1.899
	c0.033-1.1,0.133-1.733,0.3-1.899c0.267-0.301,2.583-0.4,6.95-0.301c4.467,0.066,6.733,0.25,6.8,0.551
	c0.1,0.333,0.167,1.199,0.2,2.6c0.067-1.4,0.133-2.267,0.2-2.6c0.066-0.301,2.333-0.484,6.8-0.551c4.567-0.1,6.933,0,7.1,0.301
	c0.167,0.133,0.283,0.533,0.35,1.199c0.033-0.633,0.1-1.016,0.2-1.149c0.267-0.267,2.6-0.366,7-0.3c4.434,0.1,6.684,0.3,6.75,0.6
	c0.033,0.133,0.083,0.4,0.15,0.8c0,0.034,0,0.083,0,0.15v3.55c-0.1,0.367-0.183,0.584-0.25,0.65c-0.066,0.066-0.45,0.133-1.15,0.199
	l-8.8-3.649l-0.1,3.45c-1.467-0.066-2.533-0.15-3.2-0.25l-0.7-0.301l0.1-3.75l-0.1,3.75l0.7,0.301c0.667,0.1,1.733,0.184,3.2,0.25
	l0.1-3.45l8.8,3.649c0.7-0.066,1.083-0.133,1.15-0.199c0.067-0.066,0.15-0.283,0.25-0.65v-3.55c0.034,0,0.05-0.034,0.05-0.101
	l2.9-0.3l1.35,0.45l0.95,14.7l-0.45,0.8L52.427,18.775l-3.2-0.4c-0.534-0.934-0.784-1.9-0.75-2.9c0.033-1.066,0.033-2.116,0-3.149
	c0.033,1.033,0.033,2.083,0,3.149c-0.034,1,0.216,1.967,0.75,2.9L52.427,18.775z"></path>
<path fill-rule="evenodd" clip-rule="evenodd" fill="#FFFFFF" d="M2.777,2.625c0.6,0.033,1.267,0.033,2,0
	c0.5,0.066,0.8,0.416,0.9,1.05c-0.1-0.634-0.4-0.983-0.9-1.05C4.044,2.658,3.377,2.658,2.777,2.625z"></path>
<path fill-rule="evenodd" clip-rule="evenodd" fill="#FFFFFF" d="M5.777,3.675h-0.1l0.1,1.25v1.8c0.3,0.167,0.85,0.283,1.65,0.351
	l8.3-3.4l0.15,3.7c2.367,0,3.65-0.066,3.85-0.2c0.167-0.1,0.267-0.7,0.3-1.8c0-0.233,0-0.483,0-0.75c0,0.267,0,0.517,0,0.75
	c-0.033,1.1-0.133,1.7-0.3,1.8c-0.2,0.134-1.483,0.2-3.85,0.2l-0.15-3.7l-8.3,3.4c-0.8-0.067-1.35-0.184-1.65-0.351v-1.8V3.675z"></path>
<path fill-rule="evenodd" clip-rule="evenodd" fill="#FFFFFF" d="M38.277,7.275c-0.267,1-0.8,1.8-1.6,2.399
	c-0.066,0-0.117,0.034-0.15,0.101c0.033,0,0.05,0.016,0.05,0.05c1.867,1.399,3.9,2.5,6.1,3.3c0.934,0.334,1.85,0.75,2.75,1.25
	c0.5,0.3,1.133,0.35,1.9,0.15l1.15-2.2c0.833-1.101,1.667-2.184,2.5-3.25l-2.4-0.95l-1.4-0.65l1.4,0.65l2.4,0.95
	c-0.833,1.066-1.667,2.149-2.5,3.25l-1.15,2.2c-0.767,0.199-1.4,0.149-1.9-0.15c-0.9-0.5-1.816-0.916-2.75-1.25
	c-2.2-0.8-4.233-1.9-6.1-3.3c0-0.034-0.017-0.05-0.05-0.05c0.033-0.066,0.083-0.101,0.15-0.101
	C37.478,9.075,38.011,8.275,38.277,7.275z"></path>
<path fill-rule="evenodd" clip-rule="evenodd" fill="#FFFFFF" d="M48.577,6.625v1.5V6.625z"></path>
<path fill-rule="evenodd" clip-rule="evenodd" fill="#FFFFFF" d="M20.027,5.375l0.3,1.8c4.867,0.567,9.55,0.417,14.05-0.45
	c-4.5,0.867-9.184,1.018-14.05,0.45L20.027,5.375z"></path>
<path fill-rule="evenodd" clip-rule="evenodd" fill="#FFFFFF" d="M1.077,18.675l3.5-0.1c0.267-0.167,0.434-0.417,0.5-0.75
	c0.3-1.934,0.45-3.833,0.45-5.7l-2.5-3l2.65-1.1l0.1-1.301l-0.1,1.301l-2.65,1.1l2.5,3c0,1.867-0.15,3.767-0.45,5.7
	c-0.066,0.333-0.233,0.583-0.5,0.75L1.077,18.675z"></path>
<path fill-rule="evenodd" clip-rule="evenodd" fill="#FFFFFF" d="M7.427,7.075l-1.75,0.95L7.427,7.075z"></path>
<path fill-rule="evenodd" clip-rule="evenodd" fill="#FFFFFF" d="M5.527,12.125c0.367,0.533,0.7,1.05,1,1.55
	c0.1,0.2,0.25,0.366,0.45,0.5c0.167,0.167,0.383,0.3,0.65,0.4c2.566-1.134,5.117-2.284,7.65-3.45c0.7-0.367,1.3-0.7,1.8-1
	c0.2-0.1,0.383-0.233,0.55-0.4c-0.533-0.467-0.983-1.016-1.35-1.649c-0.167-0.233-0.3-0.467-0.4-0.7c0.1,0.233,0.233,0.467,0.4,0.7
	c0.367,0.634,0.817,1.183,1.35,1.649c-0.167,0.167-0.35,0.301-0.55,0.4c-0.5,0.3-1.1,0.633-1.8,1
	c-2.533,1.166-5.083,2.316-7.65,3.45c-0.267-0.101-0.483-0.233-0.65-0.4c-0.2-0.134-0.35-0.3-0.45-0.5
	C6.228,13.175,5.894,12.658,5.527,12.125z"></path>
<path fill-rule="evenodd" clip-rule="evenodd" fill="#FFFFFF" d="M19.728,22.375v-15.2V22.375z"></path>
<path fill-rule="evenodd" clip-rule="evenodd" fill="#FFFFFF" d="M34.978,21.075l0.1-14.05L34.978,21.075z"></path>
<path fill-rule="evenodd" clip-rule="evenodd" fill="none" stroke="#383635" stroke-width="0.3" d="M5.777,3.675
	c0.033-1.1,0.133-1.733,0.3-1.899c0.267-0.301,2.583-0.4,6.95-0.301c4.467,0.066,6.733,0.25,6.8,0.551
	c0.1,0.333,0.167,1.199,0.2,2.6c0.067-1.4,0.133-2.267,0.2-2.6c0.066-0.301,2.333-0.484,6.8-0.551c4.567-0.1,6.933,0,7.1,0.301
	c0.167,0.133,0.283,0.533,0.35,1.199c0.033-0.633,0.1-1.016,0.2-1.149c0.267-0.267,2.6-0.366,7-0.3c4.434,0.1,6.684,0.3,6.75,0.6
	c0.033,0.133,0.083,0.4,0.15,0.8" style="stroke: rgb(0, 0, 0);"></path>
<path fill-rule="evenodd" clip-rule="evenodd" fill="none" stroke="#383635" stroke-width="0.3" d="M48.627,2.975l2.9-0.3
	c0.033-1.333-0.617-2.149-1.95-2.45c-0.4-0.066-0.85-0.1-1.35-0.1h-44l-0.7,0.2c-0.5,0.366-0.75,1.134-0.75,2.3
	c0.6,0.033,1.267,0.033,2,0c0.5,0.066,0.8,0.416,0.9,1.05" style="stroke: rgb(0, 0, 0);"></path>
<path fill-rule="evenodd" clip-rule="evenodd" fill="none" stroke="#383635" stroke-width="0.3" d="M34.478,2.975l-0.1,3.75
	l0.7,0.301c0.667,0.1,1.733,0.184,3.2,0.25l0.1-3.45l8.8,3.649c0.7-0.066,1.083-0.133,1.15-0.199c0.067-0.066,0.15-0.283,0.25-0.65
	v-3.55c0-0.067,0-0.116,0-0.15" style="stroke: rgb(0, 0, 0);"></path>
<path fill-rule="evenodd" clip-rule="evenodd" fill="none" stroke="#383635" stroke-width="0.3" d="M48.577,3.075
	c0.034,0,0.05-0.034,0.05-0.101" style="stroke: rgb(0, 0, 0);"></path>
<path fill-rule="evenodd" clip-rule="evenodd" fill="none" stroke="#383635" stroke-width="0.3" d="M38.277,7.275
	c-0.267,1-0.8,1.8-1.6,2.399c-0.066,0-0.117,0.034-0.15,0.101c0.033,0,0.05,0.016,0.05,0.05c1.867,1.399,3.9,2.5,6.1,3.3
	c0.934,0.334,1.85,0.75,2.75,1.25c0.5,0.3,1.133,0.35,1.9,0.15l1.15-2.2c0.833-1.101,1.667-2.184,2.5-3.25l-2.4-0.95l-1.4-0.65" style="stroke: rgb(0, 0, 0);"></path>
<line fill-rule="evenodd" clip-rule="evenodd" fill="none" stroke="#383635" stroke-width="0.3" x1="48.577" y1="6.625" x2="48.577" y2="8.125" style="stroke: rgb(0, 0, 0);"></line>
<polyline fill-rule="evenodd" clip-rule="evenodd" fill="none" stroke="#383635" stroke-width="0.3" points="52.427,18.775 
	53.377,18.625 53.827,17.825 52.877,3.125 51.527,2.675 " style="stroke: rgb(0, 0, 0);"></polyline>
<path fill-rule="evenodd" clip-rule="evenodd" fill="none" stroke="#383635" stroke-width="0.3" d="M48.478,12.325
	c0.033,1.033,0.033,2.083,0,3.149c-0.034,1,0.216,1.967,0.75,2.9l3.2,0.4" style="stroke: rgb(0, 0, 0);"></path>
<path fill-rule="evenodd" clip-rule="evenodd" fill="none" stroke="#383635" stroke-width="0.3" d="M34.978,21.075l0.25,1.899
	c5.733,0.234,11,0.217,15.8-0.05c1.5-0.167,1.967-1.55,1.4-4.149" style="stroke: rgb(0, 0, 0);"></path>
<path fill-rule="evenodd" clip-rule="evenodd" fill="none" stroke="#383635" stroke-width="0.3" d="M5.777,4.925v1.8
	c0.3,0.167,0.85,0.283,1.65,0.351l8.3-3.4l0.15,3.7c2.367,0,3.65-0.066,3.85-0.2c0.167-0.1,0.267-0.7,0.3-1.8
	c0-0.233,0-0.483,0-0.75" style="stroke: rgb(0, 0, 0);"></path>
<path fill-rule="evenodd" clip-rule="evenodd" fill="none" stroke="#383635" stroke-width="0.3" d="M20.027,5.375l0.3,1.8
	c4.867,0.567,9.55,0.417,14.05-0.45" style="stroke: rgb(0, 0, 0);"></path>
<path fill-rule="evenodd" clip-rule="evenodd" fill="none" stroke="#383635" stroke-width="0.3" d="M2.777,2.625l-1.65,0.45
	c-0.067,0.233-0.117,0.466-0.15,0.7c-0.333,4.434-0.617,8.883-0.85,13.35c-0.033,0.733,0.283,1.25,0.95,1.55l3.5-0.1
	c0.267-0.167,0.434-0.417,0.5-0.75c0.3-1.934,0.45-3.833,0.45-5.7l-2.5-3l2.65-1.1l0.1-1.301" style="stroke: rgb(0, 0, 0);"></path>
<line fill-rule="evenodd" clip-rule="evenodd" fill="none" stroke="#383635" stroke-width="0.3" x1="5.777" y1="4.925" x2="5.677" y2="3.675" style="stroke: rgb(0, 0, 0);"></line>
<line fill-rule="evenodd" clip-rule="evenodd" fill="none" stroke="#383635" stroke-width="0.3" x1="5.777" y1="3.675" x2="5.777" y2="4.925" style="stroke: rgb(0, 0, 0);"></line>
<line fill-rule="evenodd" clip-rule="evenodd" fill="none" stroke="#383635" stroke-width="0.3" x1="7.427" y1="7.075" x2="5.677" y2="8.025" style="stroke: rgb(0, 0, 0);"></line>
<path fill-rule="evenodd" clip-rule="evenodd" fill="none" stroke="#383635" stroke-width="0.3" d="M5.527,12.125
	c0.367,0.533,0.7,1.05,1,1.55c0.1,0.2,0.25,0.366,0.45,0.5c0.167,0.167,0.383,0.3,0.65,0.4c2.566-1.134,5.117-2.284,7.65-3.45
	c0.7-0.367,1.3-0.7,1.8-1c0.2-0.1,0.383-0.233,0.55-0.4c-0.533-0.467-0.983-1.016-1.35-1.649c-0.167-0.233-0.3-0.467-0.4-0.7" style="stroke: rgb(0, 0, 0);"></path>
<path fill-rule="evenodd" clip-rule="evenodd" fill="none" stroke="#383635" stroke-width="0.3" d="M1.077,18.675v2
	c0.034,1.067,0.267,1.733,0.7,2c0.4,0.233,2.65,0.366,6.75,0.4c4.067,0.033,7.4,0.033,10,0l0.5-0.05c0.4-0.101,0.633-0.316,0.7-0.65
	v-15.2" style="stroke: rgb(0, 0, 0);"></path>
<path fill-rule="evenodd" clip-rule="evenodd" fill="none" stroke="#383635" stroke-width="0.3" d="M19.728,22.375l0.15,0.45
	c5.066,0.767,10.066,0.783,15,0.05l0.1-1.8l0.1-14.05" style="stroke: rgb(0, 0, 0);"></path>
</svg>