<svg version="1.1" id="Layer_1" xmlns="http://www.w3.org/2000/svg" xmlns:xlink="http://www.w3.org/1999/xlink" x="0px" y="0px" width="39.199px" height="39.2px" viewBox="0 0 39.199 39.2" enable-background="new 0 0 39.199 39.2" xml:space="preserve" class="ng-scope">
<path fill-rule="evenodd" clip-rule="evenodd" fill="#FFFFFF" d="M24.1,1.95L23.85,1.9l-4.3-0.45l-4.3,0.45l-0.2,0.05
	c-0.134,0.033-0.267,0.067-0.4,0.1v0.7c3.267-0.7,6.533-0.7,9.8,0H24.5v-0.7C24.366,2.017,24.233,1.983,24.1,1.95
	c0.134,0.033,0.267,0.067,0.4,0.1v0.7h-0.051v-0.7C24.316,2.017,24.199,1.983,24.1,1.95z"></path>
<path fill-rule="evenodd" clip-rule="evenodd" fill="#FFFFFF" d="M15.05,1.95c-0.167,0.033-0.316,0.067-0.45,0.1v0.7h0.05H14.6v-0.7
	C14.733,2.017,14.883,1.983,15.05,1.95z"></path>
<path fill-rule="evenodd" clip-rule="evenodd" fill="#FFFFFF" d="M14.649,4.85H14.6v0.6v0.7h0.05c0.4-0.133,0.816-0.25,1.25-0.35
	l3.65-0.45l3.7,0.45c0.399,0.1,0.8,0.217,1.199,0.35H24.5v-0.7v-0.6h-0.051H24.5v0.6v0.7h-0.051c-0.399-0.133-0.8-0.25-1.199-0.35
	l-3.7-0.45l-3.65,0.45c-0.434,0.1-0.85,0.217-1.25,0.35H14.6v-0.7v-0.6H14.649z"></path>
<path fill-rule="evenodd" clip-rule="evenodd" fill="#FFFFFF" d="M24.449,4c-3.267-0.8-6.533-0.8-9.8,0H14.6v0.85V4h0.05v0.85
	c3.334-0.767,6.601-0.767,9.8,0V4H24.5V2.75V4H24.449z"></path>
<path fill-rule="evenodd" clip-rule="evenodd" fill="#FFFFFF" d="M14.6,4V2.75V4z"></path>
<path fill-rule="evenodd" clip-rule="evenodd" fill="#FFFFFF" d="M24.5,4.85V4V4.85z"></path>
<polygon fill-rule="evenodd" clip-rule="evenodd" fill="#FFFFFF" points="26,9.101 24.5,9.101 23.1,9.101 24.5,9.101 "></polygon>
<path fill-rule="evenodd" clip-rule="evenodd" fill="#FFFFFF" d="M5.5,13.101h3.449v-4H12.5h0.649V5.5h-0.6V5.45V3.5h0.6V1.05
	c4.233-1.233,8.517-1.233,12.851,0V3.5h0.649v1.95H26.6V5.5H26v3.601h0.649h3.65v4h3.399V12.5h0.051h1.949v0.601h2.45
	c1.233,4.333,1.233,8.616,0,12.85h-2.45v0.65H33.75V26.55h-0.051v-0.6H30.3v4.5h-3.65H26v3.25h0.6v0.05v1.95H26v2.45
	c-4.334,1.233-8.617,1.233-12.851,0V35.7H12.5v-1.95h0.05V33.7h0.6v-3.25H12.5H8.949v-4.5H5.5v0.6H5.449H3.5v-0.6H1.05
	c-1.233-4.233-1.233-8.517,0-12.85H3.5v-0.65h1.949v0.05H5.5V13.101H5.449H5.5z"></path>
<path fill-rule="evenodd" clip-rule="evenodd" fill="#FFFFFF" d="M13.149,5.5V5.45V5.5z"></path>
<path fill-rule="evenodd" clip-rule="evenodd" fill="#FFFFFF" d="M13.149,5.45h-0.6H13.149z"></path>
<path fill-rule="evenodd" clip-rule="evenodd" fill="#FFFFFF" d="M13.149,3.5v1.95c0.5-0.233,0.983-0.233,1.45,0
	c-0.467-0.233-0.95-0.233-1.45,0V3.5z"></path>
<polygon fill-rule="evenodd" clip-rule="evenodd" fill="#FFFFFF" points="16.05,9.101 16.05,30.45 16.05,9.101 14.6,9.101 
	13.149,9.101 14.6,9.101 "></polygon>
<path fill-rule="evenodd" clip-rule="evenodd" fill="#FFFFFF" d="M19.55,9.101h-3.5H19.55z"></path>
<polygon fill-rule="evenodd" clip-rule="evenodd" fill="#FFFFFF" points="16.05,30.45 19.55,30.45 16.05,30.45 14.649,30.45 
	13.149,30.45 14.649,30.45 "></polygon>
<polygon fill-rule="evenodd" clip-rule="evenodd" fill="#FFFFFF" points="19.55,30.45 19.55,9.101 19.55,30.45 23.1,30.45 
	24.55,30.45 26,30.45 24.55,30.45 23.1,30.45 "></polygon>
<path fill-rule="evenodd" clip-rule="evenodd" fill="#FFFFFF" d="M14.6,6.15v2.95V6.15z"></path>
<path fill-rule="evenodd" clip-rule="evenodd" fill="#FFFFFF" d="M26,5.45V5.5V5.45c-0.467-0.267-0.967-0.267-1.5,0
	C25.033,5.184,25.533,5.184,26,5.45z"></path>
<path fill-rule="evenodd" clip-rule="evenodd" fill="#FFFFFF" d="M26.6,5.45H26H26.6z"></path>
<polygon fill-rule="evenodd" clip-rule="evenodd" fill="#FFFFFF" points="23.1,9.101 23.1,30.45 23.1,9.101 19.55,9.101 "></polygon>
<path fill-rule="evenodd" clip-rule="evenodd" fill="#FFFFFF" d="M26,35.7v-1.95c-0.233,0.101-0.467,0.167-0.7,0.2h-0.101
	c-0.199-0.033-0.416-0.1-0.649-0.2c0.233,0.101,0.45,0.167,0.649,0.2H25.3c0.233-0.033,0.467-0.1,0.7-0.2V35.7z"></path>
<path fill-rule="evenodd" clip-rule="evenodd" fill="#FFFFFF" d="M24.5,6.15v2.95V6.15z"></path>
<polygon fill-rule="evenodd" clip-rule="evenodd" fill="#FFFFFF" points="30.3,25.95 30.3,24.45 30.3,14.55 30.3,13.101 30.3,14.55 
	30.3,24.45 "></polygon>
<polygon fill-rule="evenodd" clip-rule="evenodd" fill="#FFFFFF" points="33.75,13.101 33.75,12.5 33.75,13.101 33.699,13.101 "></polygon>
<path fill-rule="evenodd" clip-rule="evenodd" fill="#FFFFFF" d="M30.3,24.45h2.75c0.6-1.867,0.866-3.733,0.8-5.6L33.5,16.25
	c-0.101-0.533-0.233-1.066-0.4-1.6c-0.033-0.034-0.05-0.067-0.05-0.101H30.3h2.75c0,0.033,0.017,0.066,0.05,0.101
	c0.167,0.533,0.3,1.066,0.4,1.6l0.35,2.601c0.066,1.866-0.2,3.732-0.8,5.6H30.3z"></path>
<path fill-rule="evenodd" clip-rule="evenodd" fill="#FFFFFF" d="M35.25,14.65c-0.034-0.034-0.051-0.067-0.051-0.101h-0.85
	c0,0.033,0.017,0.066,0.05,0.101c-0.033-0.034-0.05-0.067-0.05-0.101h0.85C35.199,14.583,35.216,14.616,35.25,14.65z"></path>
<path fill-rule="evenodd" clip-rule="evenodd" fill="#FFFFFF" d="M35.199,24.45c0.801-3.267,0.817-6.533,0.051-9.8h-0.851
	c0.101,0.5,0.184,0.983,0.25,1.45l0.2,1.449c0.033,0.566,0.066,1.134,0.1,1.7c0,1.7-0.199,3.434-0.6,5.2H35.199h1.25h0.7
	c0.434-1.633,0.65-3.267,0.65-4.9L37.449,15.9l-0.05-0.3c-0.1-0.334-0.184-0.65-0.25-0.95H36.5
	c-0.034-0.034-0.051-0.067-0.051-0.101h0.7c0.066,0.334,0.15,0.684,0.25,1.051c-0.1-0.367-0.184-0.717-0.25-1.051h-0.7
	c0,0.033,0.017,0.066,0.051,0.101c0.166,0.8,0.283,1.616,0.35,2.45l-0.4,7.35H35.199z"></path>
<path fill-rule="evenodd" clip-rule="evenodd" fill="#FFFFFF" d="M33.05,14.55h0.7H33.05z"></path>
<path fill-rule="evenodd" clip-rule="evenodd" fill="#FFFFFF" d="M34.35,14.55h-0.6c0.1-0.232,0.166-0.449,0.199-0.649V13.8
	c-0.033-0.232-0.1-0.467-0.199-0.699h1.949H33.75c0.1,0.232,0.166,0.467,0.199,0.699V13.9c-0.033,0.2-0.1,0.417-0.199,0.649H34.35z"></path>
<path fill-rule="evenodd" clip-rule="evenodd" fill="#FFFFFF" d="M35.199,14.55h1.25H35.199z"></path>
<path fill-rule="evenodd" clip-rule="evenodd" fill="#FFFFFF" d="M34.35,24.45h-0.6c0.267,0.533,0.267,1.033,0,1.5h1.949H33.75
	c0.267-0.467,0.267-0.967,0-1.5H34.35z"></path>
<path fill-rule="evenodd" clip-rule="evenodd" fill="#FFFFFF" d="M33.699,25.95h0.051H33.699z"></path>
<path fill-rule="evenodd" clip-rule="evenodd" fill="#FFFFFF" d="M33.75,24.45h-0.7H33.75z"></path>
<path fill-rule="evenodd" clip-rule="evenodd" fill="#FFFFFF" d="M33.75,25.95v0.6V25.95z"></path>
<path fill-rule="evenodd" clip-rule="evenodd" fill="#FFFFFF" d="M14.649,30.45v2.6c1.867,0.601,3.733,0.867,5.601,0.801
	l2.649-0.351c0.5-0.1,1.017-0.233,1.55-0.399c0.034-0.033,0.067-0.051,0.101-0.051v-2.6v2.6c-0.033,0-0.066,0.018-0.101,0.051
	c-0.533,0.166-1.05,0.3-1.55,0.399l-2.649,0.351c-1.867,0.066-3.733-0.2-5.601-0.801V30.45z"></path>
<polygon fill-rule="evenodd" clip-rule="evenodd" fill="#FFFFFF" points="14.649,33.05 14.649,33.7 14.6,33.75 14.649,34.351 
	14.6,33.75 14.649,33.7 "></polygon>
<path fill-rule="evenodd" clip-rule="evenodd" fill="#FFFFFF" d="M14.649,35.2c3.267,0.8,6.533,0.816,9.8,0.05V34.4
	c0.034-0.034,0.067-0.05,0.101-0.05V33.75v-0.7v0.7v0.601c-0.033,0-0.066,0.016-0.101,0.05c-0.5,0.1-0.983,0.183-1.449,0.25
	l-1.45,0.2c-0.566,0.033-1.134,0.066-1.7,0.1c-1.7,0-3.434-0.2-5.2-0.6V35.2v1.25V35.2z"></path>
<polygon fill-rule="evenodd" clip-rule="evenodd" fill="#FFFFFF" points="13.149,33.7 13.149,33.75 12.55,33.75 13.149,33.75 "></polygon>
<path fill-rule="evenodd" clip-rule="evenodd" fill="#FFFFFF" d="M14.6,33.75c-0.5,0.267-0.983,0.267-1.45,0v1.95v-1.95
	C13.616,34.017,14.1,34.017,14.6,33.75z"></path>
<path fill-rule="evenodd" clip-rule="evenodd" fill="#FFFFFF" d="M23.25,37.45c0.399-0.1,0.8-0.2,1.199-0.3V36.5
	c-0.8,0.167-1.616,0.284-2.449,0.351l-7.351-0.4v0.7c1.634,0.433,3.283,0.649,4.95,0.649L23.25,37.45c0.433-0.1,0.866-0.2,1.3-0.3
	v-0.7V35.2v-0.85v0.85v1.25v0.7C24.116,37.25,23.683,37.351,23.25,37.45z"></path>
<path fill-rule="evenodd" clip-rule="evenodd" fill="#FFFFFF" d="M24.449,36.5c0.034-0.033,0.067-0.05,0.101-0.05
	C24.517,36.45,24.483,36.467,24.449,36.5z"></path>
<path fill-rule="evenodd" clip-rule="evenodd" fill="#FFFFFF" d="M24.55,35.2c-0.033,0-0.066,0.017-0.101,0.05
	C24.483,35.217,24.517,35.2,24.55,35.2z"></path>
<path fill-rule="evenodd" clip-rule="evenodd" fill="#FFFFFF" d="M26,33.7v0.05V33.7z"></path>
<path fill-rule="evenodd" clip-rule="evenodd" fill="#FFFFFF" d="M26,33.75h0.6H26z"></path>
<path fill-rule="evenodd" clip-rule="evenodd" fill="#FFFFFF" d="M26.649,9.101v21.35V9.101z"></path>
<path fill-rule="evenodd" clip-rule="evenodd" fill="#FFFFFF" d="M12.5,30.45V9.101V30.45z"></path>
<path fill-rule="evenodd" clip-rule="evenodd" fill="#FFFFFF" d="M2.75,24.45v0.05H4v-0.05v0.05H2.75V24.45
	c-0.7-3.267-0.7-6.533,0-9.8v-0.05h-0.7c-0.033,0.133-0.066,0.283-0.101,0.449c0.034-0.166,0.067-0.316,0.101-0.449h0.7v0.05h-0.7
	c-0.033,0.134-0.066,0.267-0.101,0.399l-0.05,0.2l-0.45,4.3l0.45,4.301l0.05,0.25c0.034,0.1,0.067,0.217,0.101,0.35H2.75z"></path>
<path fill-rule="evenodd" clip-rule="evenodd" fill="#FFFFFF" d="M4.85,24.45c-0.767-3.334-0.767-6.6,0-9.8v-0.05H4v0.05v-0.05h0.85
	v0.05H4c-0.801,3.267-0.801,6.533,0,9.8H4.85v0.05V24.45z"></path>
<path fill-rule="evenodd" clip-rule="evenodd" fill="#FFFFFF" d="M4,24.5h0.85h0.6c-0.233,0.467-0.233,0.95,0,1.45
	c-0.233-0.5-0.233-0.983,0-1.45h-0.6H4z"></path>
<path fill-rule="evenodd" clip-rule="evenodd" fill="#FFFFFF" d="M2.75,24.5h-0.7c-0.033-0.134-0.066-0.267-0.101-0.399
	c0.034,0.133,0.067,0.266,0.101,0.399H2.75z"></path>
<path fill-rule="evenodd" clip-rule="evenodd" fill="#FFFFFF" d="M2.75,14.601H4H2.75z"></path>
<path fill-rule="evenodd" clip-rule="evenodd" fill="#FFFFFF" d="M5.449,12.5v0.601V12.5z"></path>
<path fill-rule="evenodd" clip-rule="evenodd" fill="#FFFFFF" d="M4.85,14.601h0.6c-0.267-0.533-0.267-1.033,0-1.5H3.5h1.949
	c-0.267,0.467-0.267,0.967,0,1.5H4.85z"></path>
<path fill-rule="evenodd" clip-rule="evenodd" fill="#FFFFFF" d="M6.149,14.65c-0.133,0.399-0.25,0.816-0.35,1.25L5.35,19.55
	l0.45,3.7c0.1,0.4,0.217,0.8,0.35,1.2v0.05h2.8v-9.899h-2.8V14.65v-0.05h2.8V24.5h-2.8v-0.05c-0.133-0.4-0.25-0.8-0.35-1.2
	l-0.45-3.7L5.8,15.9C5.899,15.467,6.017,15.05,6.149,14.65z"></path>
<path fill-rule="evenodd" clip-rule="evenodd" fill="#FFFFFF" d="M5.449,14.601h0.7H5.449z"></path>
<path fill-rule="evenodd" clip-rule="evenodd" fill="#FFFFFF" d="M8.949,14.601v-1.5V14.601z"></path>
<polygon fill-rule="evenodd" clip-rule="evenodd" fill="#FFFFFF" points="5.449,25.95 5.449,26.55 5.449,25.95 5.5,25.95 "></polygon>
<path fill-rule="evenodd" clip-rule="evenodd" fill="#FFFFFF" d="M6.149,24.5h-0.7H6.149z"></path>
<path fill-rule="evenodd" clip-rule="evenodd" fill="#FFFFFF" d="M8.949,24.5v1.45V24.5z"></path>
<path fill-rule="evenodd" clip-rule="evenodd" fill="none" stroke="#383635" stroke-width="0.3" d="M24.449,2.75H24.5v-0.7
	c-0.134-0.033-0.267-0.067-0.4-0.1c0.1,0.033,0.217,0.067,0.35,0.1V2.75z" style="stroke: rgb(0, 0, 0);"></path>
<path fill-rule="evenodd" clip-rule="evenodd" fill="none" stroke="#383635" stroke-width="0.3" d="M24.1,1.95L23.85,1.9l-4.3-0.45
	l-4.3,0.45l-0.2,0.05c-0.134,0.033-0.267,0.067-0.4,0.1v0.7c3.267-0.7,6.533-0.7,9.8,0" style="stroke: rgb(0, 0, 0);"></path>
<path fill-rule="evenodd" clip-rule="evenodd" fill="none" stroke="#383635" stroke-width="0.3" d="M15.05,1.95
	c-0.167,0.033-0.316,0.067-0.45,0.1v0.7h0.05" style="stroke: rgb(0, 0, 0);"></path>
<path fill-rule="evenodd" clip-rule="evenodd" fill="none" stroke="#383635" stroke-width="0.3" d="M14.649,4.85H14.6v0.6v0.7h0.05
	c0.4-0.133,0.816-0.25,1.25-0.35l3.65-0.45l3.7,0.45c0.399,0.1,0.8,0.217,1.199,0.35H24.5v-0.7v-0.6h-0.051
	C21.25,4.083,17.983,4.083,14.649,4.85V4H14.6v0.85" style="stroke: rgb(0, 0, 0);"></path>
<line fill-rule="evenodd" clip-rule="evenodd" fill="none" stroke="#383635" stroke-width="0.3" x1="14.6" y1="4" x2="14.6" y2="2.75" style="stroke: rgb(0, 0, 0);"></line>
<path fill-rule="evenodd" clip-rule="evenodd" fill="none" stroke="#383635" stroke-width="0.3" d="M13.149,3.5V1.05
	c4.233-1.233,8.517-1.233,12.851,0V3.5" style="stroke: rgb(0, 0, 0);"></path>
<polyline fill-rule="evenodd" clip-rule="evenodd" fill="none" stroke="#383635" stroke-width="0.3" points="26,5.5 26,9.101 
	26.649,9.101 30.3,9.101 30.3,13.101 33.699,13.101 33.75,13.101 " style="stroke: rgb(0, 0, 0);"></polyline>
<path fill-rule="evenodd" clip-rule="evenodd" fill="none" stroke="#383635" stroke-width="0.3" d="M35.699,13.101h2.45
	c1.233,4.333,1.233,8.616,0,12.85h-2.45" style="stroke: rgb(0, 0, 0);"></path>
<polyline fill-rule="evenodd" clip-rule="evenodd" fill="none" stroke="#383635" stroke-width="0.3" points="33.699,25.95 
	30.3,25.95 30.3,30.45 26.649,30.45 26,30.45 26,33.7 26,33.75 " style="stroke: rgb(0, 0, 0);"></polyline>
<line fill-rule="evenodd" clip-rule="evenodd" fill="none" stroke="#383635" stroke-width="0.3" x1="26.6" y1="33.75" x2="26.6" y2="35.7" style="stroke: rgb(0, 0, 0);"></line>
<path fill-rule="evenodd" clip-rule="evenodd" fill="none" stroke="#383635" stroke-width="0.3" d="M26,35.7v2.45
	c-4.334,1.233-8.617,1.233-12.851,0V35.7" style="stroke: rgb(0, 0, 0);"></path>
<polyline fill-rule="evenodd" clip-rule="evenodd" fill="none" stroke="#383635" stroke-width="0.3" points="13.149,33.7 
	13.149,30.45 12.5,30.45 8.949,30.45 8.949,25.95 5.5,25.95 " style="stroke: rgb(0, 0, 0);"></polyline>
<path fill-rule="evenodd" clip-rule="evenodd" fill="none" stroke="#383635" stroke-width="0.3" d="M3.5,25.95H1.05
	c-1.233-4.233-1.233-8.517,0-12.85H3.5" style="stroke: rgb(0, 0, 0);"></path>
<polyline fill-rule="evenodd" clip-rule="evenodd" fill="none" stroke="#383635" stroke-width="0.3" points="5.5,13.101 
	8.949,13.101 8.949,9.101 12.5,9.101 13.149,9.101 13.149,5.5 13.149,5.45 " style="stroke: rgb(0, 0, 0);"></polyline>
<path fill-rule="evenodd" clip-rule="evenodd" fill="none" stroke="#383635" stroke-width="0.3" d="M13.149,3.5v1.95
	c0.5-0.233,0.983-0.233,1.45,0" style="stroke: rgb(0, 0, 0);"></path>
<polyline fill-rule="evenodd" clip-rule="evenodd" fill="none" stroke="#383635" stroke-width="0.3" points="16.05,9.101 
	14.6,9.101 13.149,9.101 " style="stroke: rgb(0, 0, 0);"></polyline>
<line fill-rule="evenodd" clip-rule="evenodd" fill="none" stroke="#383635" stroke-width="0.3" x1="19.55" y1="9.101" x2="16.05" y2="9.101" style="stroke: rgb(0, 0, 0);"></line>
<polyline fill-rule="evenodd" clip-rule="evenodd" fill="none" stroke="#383635" stroke-width="0.3" points="16.05,30.45 
	19.55,30.45 23.1,30.45 24.55,30.45 26,30.45 " style="stroke: rgb(0, 0, 0);"></polyline>
<line fill-rule="evenodd" clip-rule="evenodd" fill="none" stroke="#383635" stroke-width="0.3" x1="14.6" y1="6.15" x2="14.6" y2="9.101" style="stroke: rgb(0, 0, 0);"></line>
<line fill-rule="evenodd" clip-rule="evenodd" fill="none" stroke="#383635" stroke-width="0.3" x1="26" y1="5.45" x2="26" y2="5.5" style="stroke: rgb(0, 0, 0);"></line>
<line fill-rule="evenodd" clip-rule="evenodd" fill="none" stroke="#383635" stroke-width="0.3" x1="24.449" y1="4" x2="24.449" y2="4.85" style="stroke: rgb(0, 0, 0);"></line>
<polyline fill-rule="evenodd" clip-rule="evenodd" fill="none" stroke="#383635" stroke-width="0.3" points="24.449,4 24.5,4 
	24.5,2.75 " style="stroke: rgb(0, 0, 0);"></polyline>
<line fill-rule="evenodd" clip-rule="evenodd" fill="none" stroke="#383635" stroke-width="0.3" x1="24.5" y1="4.85" x2="24.5" y2="4" style="stroke: rgb(0, 0, 0);"></line>
<polyline fill-rule="evenodd" clip-rule="evenodd" fill="none" stroke="#383635" stroke-width="0.3" points="26,9.101 24.5,9.101 
	23.1,9.101 19.55,9.101 " style="stroke: rgb(0, 0, 0);"></polyline>
<line fill-rule="evenodd" clip-rule="evenodd" fill="none" stroke="#383635" stroke-width="0.3" x1="24.5" y1="6.15" x2="24.5" y2="9.101" style="stroke: rgb(0, 0, 0);"></line>
<path fill-rule="evenodd" clip-rule="evenodd" fill="none" stroke="#383635" stroke-width="0.3" d="M26,5.45
	c-0.467-0.267-0.967-0.267-1.5,0" style="stroke: rgb(0, 0, 0);"></path>
<path fill-rule="evenodd" clip-rule="evenodd" fill="none" stroke="#383635" stroke-width="0.3" d="M14.649,4
	c3.267-0.8,6.533-0.8,9.8,0" style="stroke: rgb(0, 0, 0);"></path>
<polyline fill-rule="evenodd" clip-rule="evenodd" fill="none" stroke="#383635" stroke-width="0.3" points="30.3,25.95 
	30.3,24.45 30.3,14.55 30.3,13.101 " style="stroke: rgb(0, 0, 0);"></polyline>
<path fill-rule="evenodd" clip-rule="evenodd" fill="none" stroke="#383635" stroke-width="0.3" d="M30.3,24.45h2.75
	c0.6-1.867,0.866-3.733,0.8-5.6L33.5,16.25c-0.101-0.533-0.233-1.066-0.4-1.6c-0.033-0.034-0.05-0.067-0.05-0.101H30.3" style="stroke: rgb(0, 0, 0);"></path>
<path fill-rule="evenodd" clip-rule="evenodd" fill="none" stroke="#383635" stroke-width="0.3" d="M35.25,14.65
	c-0.034-0.034-0.051-0.067-0.051-0.101h-0.85c0,0.033,0.017,0.066,0.05,0.101H35.25z" style="stroke: rgb(0, 0, 0);"></path>
<path fill-rule="evenodd" clip-rule="evenodd" fill="none" stroke="#383635" stroke-width="0.3" d="M35.699,13.101H33.75
	c0.1,0.232,0.166,0.467,0.199,0.699V13.9c-0.033,0.2-0.1,0.417-0.199,0.649h0.6" style="stroke: rgb(0, 0, 0);"></path>
<line fill-rule="evenodd" clip-rule="evenodd" fill="none" stroke="#383635" stroke-width="0.3" x1="33.75" y1="14.55" x2="33.05" y2="14.55" style="stroke: rgb(0, 0, 0);"></line>
<path fill-rule="evenodd" clip-rule="evenodd" fill="none" stroke="#383635" stroke-width="0.3" d="M37.399,15.601
	c-0.1-0.367-0.184-0.717-0.25-1.051h-0.7c0,0.033,0.017,0.066,0.051,0.101h0.649C37.216,14.95,37.3,15.267,37.399,15.601l0.05,0.3
	L37.8,19.55c0,1.634-0.217,3.268-0.65,4.9h-0.7h-1.25h-0.85h-0.6c0.267,0.533,0.267,1.033,0,1.5h1.949" style="stroke: rgb(0, 0, 0);"></path>
<line fill-rule="evenodd" clip-rule="evenodd" fill="none" stroke="#383635" stroke-width="0.3" x1="35.199" y1="14.55" x2="36.449" y2="14.55" style="stroke: rgb(0, 0, 0);"></line>
<path fill-rule="evenodd" clip-rule="evenodd" fill="none" stroke="#383635" stroke-width="0.3" d="M34.399,14.65
	c0.101,0.5,0.184,0.983,0.25,1.45l0.2,1.449c0.033,0.566,0.066,1.134,0.1,1.7c0,1.7-0.199,3.434-0.6,5.2" style="stroke: rgb(0, 0, 0);"></path>
<line fill-rule="evenodd" clip-rule="evenodd" fill="none" stroke="#383635" stroke-width="0.3" x1="33.699" y1="25.95" x2="33.75" y2="25.95" style="stroke: rgb(0, 0, 0);"></line>
<line fill-rule="evenodd" clip-rule="evenodd" fill="none" stroke="#383635" stroke-width="0.3" x1="33.75" y1="24.45" x2="33.05" y2="24.45" style="stroke: rgb(0, 0, 0);"></line>
<path fill-rule="evenodd" clip-rule="evenodd" fill="none" stroke="#383635" stroke-width="0.3" d="M36.449,24.45l0.4-7.35
	c-0.066-0.834-0.184-1.65-0.35-2.45" style="stroke: rgb(0, 0, 0);"></path>
<polyline fill-rule="evenodd" clip-rule="evenodd" fill="none" stroke="#383635" stroke-width="0.3" points="13.149,30.45 
	14.649,30.45 16.05,30.45 " style="stroke: rgb(0, 0, 0);"></polyline>
<path fill-rule="evenodd" clip-rule="evenodd" fill="none" stroke="#383635" stroke-width="0.3" d="M14.649,30.45v2.6
	c1.867,0.601,3.733,0.867,5.601,0.801l2.649-0.351c0.5-0.1,1.017-0.233,1.55-0.399c0.034-0.033,0.067-0.051,0.101-0.051v-2.6" style="stroke: rgb(0, 0, 0);"></path>
<path fill-rule="evenodd" clip-rule="evenodd" fill="none" stroke="#383635" stroke-width="0.3" d="M14.649,33.05v0.65l-0.05,0.05
	l0.05,0.601c1.767,0.399,3.5,0.6,5.2,0.6c0.566-0.033,1.134-0.066,1.7-0.1l1.45-0.2c0.466-0.067,0.949-0.15,1.449-0.25
	c0.034-0.034,0.067-0.05,0.101-0.05V33.75v-0.7" style="stroke: rgb(0, 0, 0);"></path>
<line fill-rule="evenodd" clip-rule="evenodd" fill="none" stroke="#383635" stroke-width="0.3" x1="13.149" y1="33.75" x2="13.149" y2="33.7" style="stroke: rgb(0, 0, 0);"></line>
<polyline fill-rule="evenodd" clip-rule="evenodd" fill="none" stroke="#383635" stroke-width="0.3" points="14.649,36.45 
	14.649,35.2 14.649,34.351 " style="stroke: rgb(0, 0, 0);"></polyline>
<path fill-rule="evenodd" clip-rule="evenodd" fill="none" stroke="#383635" stroke-width="0.3" d="M14.6,33.75
	c-0.5,0.267-0.983,0.267-1.45,0v1.95" style="stroke: rgb(0, 0, 0);"></path>
<path fill-rule="evenodd" clip-rule="evenodd" fill="none" stroke="#383635" stroke-width="0.3" d="M23.25,37.45L19.6,37.8
	c-1.667,0-3.316-0.217-4.95-0.649v-0.7" style="stroke: rgb(0, 0, 0);"></path>
<path fill-rule="evenodd" clip-rule="evenodd" fill="none" stroke="#383635" stroke-width="0.3" d="M24.55,34.351v0.85v1.25v0.7
	c-0.434,0.1-0.867,0.2-1.3,0.3c0.399-0.1,0.8-0.2,1.199-0.3V36.5c-0.8,0.167-1.616,0.284-2.449,0.351l-7.351-0.4" style="stroke: rgb(0, 0, 0);"></path>
<path fill-rule="evenodd" clip-rule="evenodd" fill="none" stroke="#383635" stroke-width="0.3" d="M14.649,35.2
	c3.267,0.8,6.533,0.816,9.8,0.05V34.4" style="stroke: rgb(0, 0, 0);"></path>
<path fill-rule="evenodd" clip-rule="evenodd" fill="none" stroke="#383635" stroke-width="0.3" d="M24.449,36.5
	c0.034-0.033,0.067-0.05,0.101-0.05" style="stroke: rgb(0, 0, 0);"></path>
<path fill-rule="evenodd" clip-rule="evenodd" fill="none" stroke="#383635" stroke-width="0.3" d="M24.55,35.2
	c-0.033,0-0.066,0.017-0.101,0.05" style="stroke: rgb(0, 0, 0);"></path>
<path fill-rule="evenodd" clip-rule="evenodd" fill="none" stroke="#383635" stroke-width="0.3" d="M26,35.7v-1.95
	c-0.233,0.101-0.467,0.167-0.7,0.2h-0.101c-0.199-0.033-0.416-0.1-0.649-0.2" style="stroke: rgb(0, 0, 0);"></path>
<path fill-rule="evenodd" clip-rule="evenodd" fill="none" stroke="#383635" stroke-width="0.3" d="M35.199,24.45
	c0.801-3.267,0.817-6.533,0.051-9.8" style="stroke: rgb(0, 0, 0);"></path>
<rect x="4" y="14.601" fill-rule="evenodd" clip-rule="evenodd" fill="none" stroke="#383635" stroke-width="0.3" width="0.85" height="0.05" style="stroke: rgb(0, 0, 0);"></rect>
<path fill-rule="evenodd" clip-rule="evenodd" fill="none" stroke="#383635" stroke-width="0.3" d="M2.75,14.65v-0.05h-0.7
	c-0.033,0.133-0.066,0.283-0.101,0.449c0.034-0.133,0.067-0.266,0.101-0.399H2.75z" style="stroke: rgb(0, 0, 0);"></path>
<line fill-rule="evenodd" clip-rule="evenodd" fill="none" stroke="#383635" stroke-width="0.3" x1="2.75" y1="14.601" x2="4" y2="14.601" style="stroke: rgb(0, 0, 0);"></line>
<line fill-rule="evenodd" clip-rule="evenodd" fill="none" stroke="#383635" stroke-width="0.3" x1="5.449" y1="13.101" x2="5.5" y2="13.101" style="stroke: rgb(0, 0, 0);"></line>
<path fill-rule="evenodd" clip-rule="evenodd" fill="none" stroke="#383635" stroke-width="0.3" d="M4.85,14.601h0.6
	c-0.267-0.533-0.267-1.033,0-1.5H3.5" style="stroke: rgb(0, 0, 0);"></path>
<path fill-rule="evenodd" clip-rule="evenodd" fill="none" stroke="#383635" stroke-width="0.3" d="M6.149,14.65
	c-0.133,0.399-0.25,0.816-0.35,1.25L5.35,19.55l0.45,3.7c0.1,0.4,0.217,0.8,0.35,1.2v0.05h2.8v-9.899h-2.8V14.65z" style="stroke: rgb(0, 0, 0);"></path>
<line fill-rule="evenodd" clip-rule="evenodd" fill="none" stroke="#383635" stroke-width="0.3" x1="5.449" y1="14.601" x2="6.149" y2="14.601" style="stroke: rgb(0, 0, 0);"></line>
<line fill-rule="evenodd" clip-rule="evenodd" fill="none" stroke="#383635" stroke-width="0.3" x1="8.949" y1="14.601" x2="8.949" y2="13.101" style="stroke: rgb(0, 0, 0);"></line>
<polyline fill-rule="evenodd" clip-rule="evenodd" fill="none" stroke="#383635" stroke-width="0.3" points="1.949,24.101 
	1.899,23.851 1.449,19.55 1.899,15.25 1.949,15.05 " style="stroke: rgb(0, 0, 0);"></polyline>
<path fill-rule="evenodd" clip-rule="evenodd" fill="none" stroke="#383635" stroke-width="0.3" d="M2.75,24.45v0.05H4v-0.05
	c-0.801-3.267-0.801-6.533,0-9.8" style="stroke: rgb(0, 0, 0);"></path>
<path fill-rule="evenodd" clip-rule="evenodd" fill="none" stroke="#383635" stroke-width="0.3" d="M2.75,24.45h-0.7
	c-0.033-0.133-0.066-0.25-0.101-0.35c0.034,0.133,0.067,0.266,0.101,0.399h0.7" style="stroke: rgb(0, 0, 0);"></path>
<path fill-rule="evenodd" clip-rule="evenodd" fill="none" stroke="#383635" stroke-width="0.3" d="M5.449,25.95
	c-0.233-0.5-0.233-0.983,0-1.45h-0.6H4" style="stroke: rgb(0, 0, 0);"></path>
<polyline fill-rule="evenodd" clip-rule="evenodd" fill="none" stroke="#383635" stroke-width="0.3" points="4.85,24.5 4.85,24.45 
	4,24.45 " style="stroke: rgb(0, 0, 0);"></polyline>
<line fill-rule="evenodd" clip-rule="evenodd" fill="none" stroke="#383635" stroke-width="0.3" x1="5.449" y1="25.95" x2="5.5" y2="25.95" style="stroke: rgb(0, 0, 0);"></line>
<line fill-rule="evenodd" clip-rule="evenodd" fill="none" stroke="#383635" stroke-width="0.3" x1="6.149" y1="24.5" x2="5.449" y2="24.5" style="stroke: rgb(0, 0, 0);"></line>
<line fill-rule="evenodd" clip-rule="evenodd" fill="none" stroke="#383635" stroke-width="0.3" x1="8.949" y1="24.5" x2="8.949" y2="25.95" style="stroke: rgb(0, 0, 0);"></line>
<path fill-rule="evenodd" clip-rule="evenodd" fill="none" stroke="#383635" stroke-width="0.3" d="M2.75,24.45
	c-0.7-3.267-0.7-6.533,0-9.8" style="stroke: rgb(0, 0, 0);"></path>
<path fill-rule="evenodd" clip-rule="evenodd" fill="none" stroke="#383635" stroke-width="0.3" d="M4.85,24.45
	c-0.767-3.334-0.767-6.6,0-9.8" style="stroke: rgb(0, 0, 0);"></path>
<polyline fill-rule="evenodd" clip-rule="evenodd" fill="none" stroke="#383635" stroke-width="0.3" stroke-linecap="round" stroke-linejoin="round" stroke-miterlimit="3" points="
	13.149,5.5 12.55,5.5 12.55,5.45 12.55,3.5 13.149,3.5 " style="stroke: rgb(0, 0, 0);"></polyline>
<polyline fill-rule="evenodd" clip-rule="evenodd" fill="none" stroke="#383635" stroke-width="0.3" stroke-linecap="round" stroke-linejoin="round" stroke-miterlimit="3" points="
	26,3.5 26.649,3.5 26.649,5.45 26.6,5.45 26.6,5.5 26,5.5 " style="stroke: rgb(0, 0, 0);"></polyline>
<polyline fill-rule="evenodd" clip-rule="evenodd" fill="none" stroke="#383635" stroke-width="0.3" stroke-linecap="round" stroke-linejoin="round" stroke-miterlimit="3" points="
	33.699,13.101 33.699,12.5 33.75,12.5 35.699,12.5 35.699,13.101 " style="stroke: rgb(0, 0, 0);"></polyline>
<polyline fill-rule="evenodd" clip-rule="evenodd" fill="none" stroke="#383635" stroke-width="0.3" stroke-linecap="round" stroke-linejoin="round" stroke-miterlimit="3" points="
	35.699,25.95 35.699,26.601 33.75,26.601 33.75,26.55 33.699,26.55 33.699,25.95 " style="stroke: rgb(0, 0, 0);"></polyline>
<polyline fill-rule="evenodd" clip-rule="evenodd" fill="none" stroke="#383635" stroke-width="0.3" stroke-linecap="round" stroke-linejoin="round" stroke-miterlimit="3" points="
	26,33.7 26.6,33.7 26.6,33.75 " style="stroke: rgb(0, 0, 0);"></polyline>
<line fill-rule="evenodd" clip-rule="evenodd" fill="none" stroke="#383635" stroke-width="0.3" stroke-linecap="round" stroke-linejoin="round" stroke-miterlimit="3" x1="26.6" y1="35.7" x2="26" y2="35.7" style="stroke: rgb(0, 0, 0);"></line>
<polyline fill-rule="evenodd" clip-rule="evenodd" fill="none" stroke="#383635" stroke-width="0.3" stroke-linecap="round" stroke-linejoin="round" stroke-miterlimit="3" points="
	13.149,35.7 12.5,35.7 12.5,33.75 12.55,33.75 12.55,33.7 13.149,33.7 " style="stroke: rgb(0, 0, 0);"></polyline>
<polyline fill-rule="evenodd" clip-rule="evenodd" fill="none" stroke="#383635" stroke-width="0.3" stroke-linecap="round" stroke-linejoin="round" stroke-miterlimit="3" points="
	5.5,25.95 5.5,26.55 5.449,26.55 3.5,26.55 3.5,25.95 " style="stroke: rgb(0, 0, 0);"></polyline>
<polyline fill-rule="evenodd" clip-rule="evenodd" fill="none" stroke="#383635" stroke-width="0.3" stroke-linecap="round" stroke-linejoin="round" stroke-miterlimit="3" points="
	3.5,13.101 3.5,12.45 5.449,12.45 5.449,12.5 5.5,12.5 5.5,13.101 " style="stroke: rgb(0, 0, 0);"></polyline>
<line fill-rule="evenodd" clip-rule="evenodd" fill="none" stroke="#383635" stroke-width="0.3" stroke-linecap="round" stroke-linejoin="round" stroke-miterlimit="3" x1="13.149" y1="5.45" x2="12.55" y2="5.45" style="stroke: rgb(0, 0, 0);"></line>
<line fill-rule="evenodd" clip-rule="evenodd" fill="none" stroke="#383635" stroke-width="0.3" stroke-linecap="round" stroke-linejoin="round" stroke-miterlimit="3" x1="16.05" y1="9.101" x2="16.05" y2="30.45" style="stroke: rgb(0, 0, 0);"></line>
<line fill-rule="evenodd" clip-rule="evenodd" fill="none" stroke="#383635" stroke-width="0.3" stroke-linecap="round" stroke-linejoin="round" stroke-miterlimit="3" x1="19.55" y1="30.45" x2="19.55" y2="9.101" style="stroke: rgb(0, 0, 0);"></line>
<line fill-rule="evenodd" clip-rule="evenodd" fill="none" stroke="#383635" stroke-width="0.3" stroke-linecap="round" stroke-linejoin="round" stroke-miterlimit="3" x1="26.6" y1="5.45" x2="26" y2="5.45" style="stroke: rgb(0, 0, 0);"></line>
<line fill-rule="evenodd" clip-rule="evenodd" fill="none" stroke="#383635" stroke-width="0.3" stroke-linecap="round" stroke-linejoin="round" stroke-miterlimit="3" x1="23.1" y1="9.101" x2="23.1" y2="30.45" style="stroke: rgb(0, 0, 0);"></line>
<line fill-rule="evenodd" clip-rule="evenodd" fill="none" stroke="#383635" stroke-width="0.3" stroke-linecap="round" stroke-linejoin="round" stroke-miterlimit="3" x1="33.75" y1="13.101" x2="33.75" y2="12.5" style="stroke: rgb(0, 0, 0);"></line>
<line fill-rule="evenodd" clip-rule="evenodd" fill="none" stroke="#383635" stroke-width="0.3" stroke-linecap="round" stroke-linejoin="round" stroke-miterlimit="3" x1="33.75" y1="25.95" x2="33.75" y2="26.55" style="stroke: rgb(0, 0, 0);"></line>
<line fill-rule="evenodd" clip-rule="evenodd" fill="none" stroke="#383635" stroke-width="0.3" stroke-linecap="round" stroke-linejoin="round" stroke-miterlimit="3" x1="12.55" y1="33.75" x2="13.149" y2="33.75" style="stroke: rgb(0, 0, 0);"></line>
<line fill-rule="evenodd" clip-rule="evenodd" fill="none" stroke="#383635" stroke-width="0.3" stroke-linecap="round" stroke-linejoin="round" stroke-miterlimit="3" x1="26" y1="33.75" x2="26.6" y2="33.75" style="stroke: rgb(0, 0, 0);"></line>
<line fill-rule="evenodd" clip-rule="evenodd" fill="none" stroke="#383635" stroke-width="0.3" stroke-linecap="round" stroke-linejoin="round" stroke-miterlimit="3" x1="26.649" y1="9.101" x2="26.649" y2="30.45" style="stroke: rgb(0, 0, 0);"></line>
<line fill-rule="evenodd" clip-rule="evenodd" fill="none" stroke="#383635" stroke-width="0.3" stroke-linecap="round" stroke-linejoin="round" stroke-miterlimit="3" x1="12.5" y1="30.45" x2="12.5" y2="9.101" style="stroke: rgb(0, 0, 0);"></line>
<line fill-rule="evenodd" clip-rule="evenodd" fill="none" stroke="#383635" stroke-width="0.3" stroke-linecap="round" stroke-linejoin="round" stroke-miterlimit="3" x1="5.449" y1="12.5" x2="5.449" y2="13.101" style="stroke: rgb(0, 0, 0);"></line>
<line fill-rule="evenodd" clip-rule="evenodd" fill="none" stroke="#383635" stroke-width="0.3" stroke-linecap="round" stroke-linejoin="round" stroke-miterlimit="3" x1="5.449" y1="25.95" x2="5.449" y2="26.55" style="stroke: rgb(0, 0, 0);"></line>
</svg>