<svg version="1.1" id="Layer_1" xmlns="http://www.w3.org/2000/svg" xmlns:xlink="http://www.w3.org/1999/xlink" x="0px" y="0px" width="63.602px" height="65.304px" viewBox="0 0 63.602 65.304" enable-background="new 0 0 63.602 65.304" xml:space="preserve" class="ng-scope">
<path fill-rule="evenodd" clip-rule="evenodd" fill="#FFFFFF" d="M45.977,0.129l14.7,1.25l0.6,1.2c1.101,0.1,1.768,0.684,2,1.75
	c0.066,0.333,0.134,0.667,0.2,1l-1.149,59.05c-0.234,0.366-0.584,0.634-1.051,0.8c-1.366,0-2.732,0-4.1,0c-1.233,0-2.45,0-3.65,0
	c-1.434-0.033-2.85-0.033-4.25,0l-46.3-0.15c-0.433-0.133-0.716-0.434-0.85-0.899c-0.133-0.5-0.25-1-0.35-1.5
	c-0.267-0.134-0.434-0.333-0.5-0.601c-0.033-0.366-0.233-2.684-0.6-6.949c-0.2-2.066-0.383-4.117-0.55-6.15l0.25-0.65
	c0.2-0.5,0.617-0.783,1.25-0.85c-0.267-1.4-0.034-2.75,0.7-4.05c0.067-0.067,0.15-0.134,0.25-0.2l18-0.05l0.9,0.95
	c0.5-0.367,1.034-0.634,1.6-0.801c1.1-0.166,2.233-0.25,3.4-0.25c1.4,0,2.817,0.018,4.25,0.051c1.3,0,2.617,0.033,3.95,0.1
	c1.433,0.033,2.867,0.066,4.3,0.1c0.567-0.1,0.9,0.084,1,0.551l1-0.65l-0.4-0.25c-0.333-1.9-0.467-3.867-0.4-5.9
	c0.033-0.833,0.05-1.666,0.05-2.5c0-1.434,0.017-2.85,0.05-4.25c0.033-1,0.066-2,0.1-3c0.033-0.866,0.033-1.717,0-2.55
	c0-0.667,0.283-1.033,0.85-1.1c-0.267,0-0.45-0.267-0.55-0.8c-0.1-0.2-0.15-0.417-0.15-0.65c0-1.767,0-3.4,0-4.9
	c0.033-7.233,0.1-11.133,0.2-11.7c0-0.433,0.1-0.733,0.3-0.9c0.033-0.067,0.1-0.1,0.2-0.1h3.85l-0.15-3.45L45.977,0.129z"></path>
<path fill-rule="evenodd" clip-rule="evenodd" fill="#FFFFFF" d="M45.077,4.579c0.067,0.434,0.217,0.85,0.45,1.25
	c0.233,0.333,0.55,0.567,0.95,0.7c1.4,0.267,2.833,0.483,4.3,0.65l2.95-1.75l0.3,0.35l0.1,1.45l2.1,0.1h4.601
	c0.333-0.566,0.482-1.267,0.449-2.1c-0.033-0.9-0.033-1.783,0-2.65c-0.033,0.867-0.033,1.75,0,2.65
	c0.033,0.833-0.116,1.534-0.449,2.1h-4.601l-2.1-0.1l-0.1-1.45l-0.3-0.35l-2.95,1.75c-1.467-0.167-2.9-0.383-4.3-0.65
	c-0.4-0.133-0.716-0.367-0.95-0.7C45.293,5.429,45.144,5.013,45.077,4.579z"></path>
<path fill-rule="evenodd" clip-rule="evenodd" fill="#FFFFFF" d="M50.777,7.179l-2.75,1.45c0.333,1.633,0.683,3.25,1.05,4.85
	c0.333,1.5,0.733,2.983,1.2,4.45c0.133,0.367,0.3,0.717,0.5,1.05c0.267-0.167,0.533-0.333,0.8-0.5c1.2-0.667,2.517-0.883,3.95-0.65
	h1.15l-1-5.5l-1.55-5.1l1.55,5.1l1,5.5h-1.15c-1.434-0.233-2.75-0.017-3.95,0.65c-0.267,0.167-0.533,0.333-0.8,0.5
	c-0.2-0.333-0.367-0.683-0.5-1.05c-0.467-1.467-0.867-2.95-1.2-4.45c-0.367-1.6-0.717-3.216-1.05-4.85L50.777,7.179z"></path>
<path fill-rule="evenodd" clip-rule="evenodd" fill="#FFFFFF" d="M56.227,7.329c-0.267,0.6-0.45,2.267-0.55,5
	C55.777,9.596,55.96,7.929,56.227,7.329z"></path>
<path fill-rule="evenodd" clip-rule="evenodd" fill="#FFFFFF" d="M55.527,17.829c0,3.1,0.05,5.067,0.15,5.9l1.75,0.65h1.6
	c1.4,0,2.283-0.067,2.65-0.2c0.334-0.166,0.55-2.467,0.65-6.9c0-0.4,0-0.817,0-1.25c0.066-5.3-0.066-8.117-0.4-8.45
	c-0.166-0.1-0.533-0.183-1.1-0.25c0.566,0.067,0.934,0.15,1.1,0.25c0.334,0.333,0.467,3.15,0.4,8.45c0,0.433,0,0.85,0,1.25
	c-0.101,4.433-0.316,6.734-0.65,6.9c-0.367,0.133-1.25,0.2-2.65,0.2h-1.6l-1.75-0.65C55.577,22.896,55.527,20.929,55.527,17.829z"></path>
<path fill-rule="evenodd" clip-rule="evenodd" fill="#FFFFFF" d="M59.026,24.379c1.4,0.033,2.2,0.183,2.4,0.45
	c0.267,0.266,0.4,2.083,0.4,5.449c0.033,1.134,0.033,2.434,0,3.9c0,0.133,0,0.25,0,0.35c0,0.9,0,1.734,0,2.5
	c-0.033,1.101-0.084,2.033-0.15,2.801c-0.033,2.166-0.166,3.316-0.4,3.449c-0.333,0.066-1.016,0.134-2.05,0.2l1.9,0.4
	c0.3,0.566,0.433,1.233,0.399,2c-0.1,2.033-0.133,4.033-0.1,6c0.066,2.899,0.05,5.85-0.05,8.85c-0.034,0.7-0.2,1.217-0.5,1.55
	l-5.95-0.199l-0.25-5.9l-1.75,0.95l1.7,0.5c0.066,1.033,0.1,2.083,0.1,3.149c0,0.867-0.183,1.601-0.55,2.2
	c-0.4,0.101-0.8,0.217-1.2,0.351c-4.4,0.434-8.8,0.217-13.2-0.65c-0.033-0.9-0.05-1.8-0.05-2.7c0-0.366,0-0.733,0-1.1
	c0-0.7,0.067-1.384,0.2-2.05l0.05-13l-0.05,13c-0.133,0.666-0.2,1.35-0.2,2.05c0,0.366,0,0.733,0,1.1c0,0.9,0.017,1.8,0.05,2.7
	c4.4,0.867,8.8,1.084,13.2,0.65c0.4-0.134,0.8-0.25,1.2-0.351c0.367-0.6,0.55-1.333,0.55-2.2c0-1.066-0.033-2.116-0.1-3.149
	l-1.7-0.5l1.75-0.95l0.25,5.9l5.95,0.199c0.3-0.333,0.466-0.85,0.5-1.55c0.1-3,0.116-5.95,0.05-8.85c-0.033-1.967,0-3.967,0.1-6
	c0.033-0.767-0.1-1.434-0.399-2l-1.9-0.4c1.034-0.066,1.717-0.134,2.05-0.2c0.234-0.133,0.367-1.283,0.4-3.449
	c0.066-0.768,0.117-1.7,0.15-2.801c0-0.766,0-1.6,0-2.5c0-0.1,0-0.217,0-0.35c0.033-1.467,0.033-2.767,0-3.9
	c0-3.366-0.134-5.184-0.4-5.449C61.227,24.562,60.427,24.413,59.026,24.379z"></path>
<path fill-rule="evenodd" clip-rule="evenodd" fill="#FFFFFF" d="M40.977,43.179l14.45,0.05c-0.1-1.134-0.183-2.267-0.25-3.399
	c-0.067-1.334-0.1-2.65-0.1-3.95c0-1.233,0.017-2.467,0.05-3.7c0.033-1.334,0.117-2.65,0.25-3.95c0.1-1.267,0.233-2.517,0.4-3.75
	l1.65-0.1l-1.65,0.1c-0.167,1.233-0.3,2.483-0.4,3.75c-0.133,1.3-0.217,2.616-0.25,3.95c-0.034,1.233-0.05,2.467-0.05,3.7
	c0,1.3,0.033,2.616,0.1,3.95c0.067,1.133,0.15,2.266,0.25,3.399L40.977,43.179z"></path>
<path fill-rule="evenodd" clip-rule="evenodd" fill="#FFFFFF" d="M41.227,23.629l14.45,0.1L41.227,23.629z"></path>
<path fill-rule="evenodd" clip-rule="evenodd" fill="#FFFFFF" d="M39.927,56.83l4.85-0.15l-1.6-2c2.067-1.533,4.383-2.684,6.95-3.45
	c0.833-0.267,1.683-0.517,2.55-0.75c0.3-0.1,0.617-0.116,0.95-0.05l1.1,1.8l0.8-8.7l1.05-0.05l-1.15-0.25l1.15,0.25l-1.05,0.05
	l-0.8,8.7l-1.1-1.8c-0.333-0.066-0.65-0.05-0.95,0.05c-0.867,0.233-1.717,0.483-2.55,0.75c-2.567,0.767-4.883,1.917-6.95,3.45l1.6,2
	L39.927,56.83z"></path>
<polygon fill-rule="evenodd" clip-rule="evenodd" fill="#FFFFFF" points="44.777,56.679 45.427,60.129 52.927,57.129 45.427,60.129 
	"></polygon>
<path fill-rule="evenodd" clip-rule="evenodd" fill="#FFFFFF" d="M21.477,44.08l0.05,13.25c0,0.833,0,1.649,0,2.449
	c0,0.066,0,0.134,0,0.2h0.1c0-0.033,0-0.1,0-0.2c0-1.666,0.167-2.566,0.5-2.699c0.433-0.268,3.133-0.351,8.1-0.25
	c1.167,0,2.217,0,3.15,0c3.233,0.133,5.233,0.333,6,0.6c0.033,0.767,0.05,1.55,0.05,2.35c0,0.066,0,0.134,0,0.2v0.05
	c0,0.734-0.017,1.334-0.05,1.801c-0.067,0.666-0.2,1.1-0.4,1.3c-0.367,0.267-3.267,0.366-8.7,0.3c-5.4-0.1-8.15-0.283-8.25-0.55
	c-0.2-0.467-0.333-1.434-0.4-2.9c0.066,1.467,0.2,2.434,0.4,2.9c0.1,0.267,2.85,0.45,8.25,0.55c5.433,0.066,8.333-0.033,8.7-0.3
	c0.2-0.2,0.333-0.634,0.4-1.3c0.033-0.467,0.05-1.066,0.05-1.801v-0.05c0-0.066,0-0.134,0-0.2c0-0.8-0.017-1.583-0.05-2.35
	c-0.767-0.267-2.767-0.467-6-0.6c-0.934,0-1.983,0-3.15,0c-4.966-0.101-7.667-0.018-8.1,0.25c-0.333,0.133-0.5,1.033-0.5,2.699
	c0,0.101,0,0.167,0,0.2h-0.1c0-0.066,0-0.134,0-0.2c0-0.8,0-1.616,0-2.449L21.477,44.08z"></path>
<path fill-rule="evenodd" clip-rule="evenodd" fill="#FFFFFF" d="M59.227,43.479h-2.65H59.227z"></path>
<polygon fill-rule="evenodd" clip-rule="evenodd" fill="#FFFFFF" points="54.727,52.229 57.277,55.08 57.077,55.479 54.677,56.179 
	57.077,55.479 57.277,55.08 "></polygon>
<path fill-rule="evenodd" clip-rule="evenodd" fill="#FFFFFF" d="M1.627,47.429c0.566-0.033,1.15-0.05,1.75-0.05
	c0.367,0.033,0.733,0.134,1.1,0.3c0.3,0.066,0.517,0.217,0.65,0.45c0.333,0.733,0.566,1.517,0.7,2.35c0.2,1.5,0.35,3.034,0.45,4.601
	c0.933-1.101,1.25-2.367,0.95-3.801c-0.033-0.166-0.033-0.333,0-0.5c1.9,0.066,3.684,0.417,5.35,1.051c1,0.333,2,0.666,3,1
	c0.5,0.1,1,0.232,1.5,0.399c0.333,0.2,0.667,0.434,1,0.7l-0.3,2.9l3.75,0.5l-3.75-0.5l0.3-2.9c-0.333-0.267-0.667-0.5-1-0.7
	c-0.5-0.167-1-0.3-1.5-0.399c-1-0.334-2-0.667-3-1c-1.667-0.634-3.45-0.984-5.35-1.051c-0.033,0.167-0.033,0.334,0,0.5
	c0.3,1.434-0.017,2.7-0.95,3.801c-0.1-1.566-0.25-3.101-0.45-4.601c-0.133-0.833-0.367-1.616-0.7-2.35
	c-0.133-0.233-0.35-0.384-0.65-0.45c-0.367-0.166-0.733-0.267-1.1-0.3C2.777,47.379,2.193,47.396,1.627,47.429z"></path>
<polygon fill-rule="evenodd" clip-rule="evenodd" fill="#FFFFFF" points="6.277,55.08 5.177,56.08 5.777,56.58 6.277,56.58 
	5.777,56.58 5.177,56.08 "></polygon>
<path fill-rule="evenodd" clip-rule="evenodd" fill="#FFFFFF" d="M6.277,56.58v0.25c0.167-0.066,0.55-0.117,1.15-0.15
	c0.467,0.2,0.95,0.416,1.45,0.65c1.466,0.766,3.05,1.25,4.75,1.449c0.7,0.134,1.367,0.367,2,0.7c0.8,0.4,1.583,0.534,2.35,0.4
	l-0.2-3.05l0.2,3.05c-0.767,0.134-1.55,0-2.35-0.4c-0.633-0.333-1.3-0.566-2-0.7c-1.7-0.199-3.284-0.684-4.75-1.449
	c-0.5-0.234-0.983-0.45-1.45-0.65L6.277,56.58z"></path>
<path fill-rule="evenodd" clip-rule="evenodd" fill="#FFFFFF" d="M21.527,59.979c0,1.767-0.15,2.767-0.45,3
	c-0.1,0.101-0.367,0.184-0.8,0.25c-1.2,0.134-3.483,0.15-6.85,0.05c-4.733-0.066-7.183-0.266-7.35-0.6
	c-0.066,0.1-0.133,0.15-0.2,0.15c-1.434,0.333-2.8,0.266-4.1-0.2c1.3,0.466,2.667,0.533,4.1,0.2c0.066,0,0.133-0.051,0.2-0.15
	c0.167,0.334,2.617,0.533,7.35,0.6c3.367,0.101,5.65,0.084,6.85-0.05c0.433-0.066,0.7-0.149,0.8-0.25
	C21.377,62.746,21.527,61.746,21.527,59.979z"></path>
<path fill-rule="evenodd" clip-rule="evenodd" fill="#FFFFFF" d="M6.277,56.83c-0.333,0.232-0.5,1.217-0.5,2.949
	c0.033,1.533,0.133,2.5,0.3,2.9c-0.167-0.4-0.267-1.367-0.3-2.9C5.777,58.046,5.943,57.062,6.277,56.83z"></path>
<path fill-rule="evenodd" clip-rule="evenodd" fill="none" stroke="#383635" stroke-width="0.3" d="M45.977,0.129l14.7,1.25
	l0.6,1.2c1.101,0.1,1.768,0.684,2,1.75c0.066,0.333,0.134,0.667,0.2,1l-1.149,59.05c-0.234,0.366-0.584,0.634-1.051,0.8
	c-1.366,0-2.732,0-4.1,0c-1.233,0-2.45,0-3.65,0c-1.434-0.033-2.85-0.033-4.25,0l-46.3-0.15c-0.433-0.133-0.716-0.434-0.85-0.899
	c-0.133-0.5-0.25-1-0.35-1.5c-0.267-0.134-0.434-0.333-0.5-0.601c-0.033-0.366-0.233-2.684-0.6-6.949
	c-0.2-2.066-0.383-4.117-0.55-6.15l0.25-0.65c0.2-0.5,0.617-0.783,1.25-0.85c-0.267-1.4-0.034-2.75,0.7-4.05
	c0.067-0.067,0.15-0.134,0.25-0.2l18-0.05l0.9,0.95c0.5-0.367,1.034-0.634,1.6-0.801c1.1-0.166,2.233-0.25,3.4-0.25
	c1.4,0,2.817,0.018,4.25,0.051c1.3,0,2.617,0.033,3.95,0.1c1.433,0.033,2.867,0.066,4.3,0.1c0.567-0.1,0.9,0.084,1,0.551l1-0.65
	l-0.4-0.25c-0.333-1.9-0.467-3.867-0.4-5.9c0.033-0.833,0.05-1.666,0.05-2.5c0-1.434,0.017-2.85,0.05-4.25c0.033-1,0.066-2,0.1-3
	c0.033-0.866,0.033-1.717,0-2.55c0-0.667,0.283-1.033,0.85-1.1c-0.267,0-0.45-0.267-0.55-0.8c-0.1-0.2-0.15-0.417-0.15-0.65
	c0-1.767,0-3.4,0-4.9c0.033-7.233,0.1-11.133,0.2-11.7c0-0.433,0.1-0.733,0.3-0.9c0.033-0.067,0.1-0.1,0.2-0.1h3.85l-0.15-3.45
	L45.977,0.129z" style="stroke: rgb(0, 0, 0);"></path>
<path fill-rule="evenodd" clip-rule="evenodd" fill="none" stroke="#383635" stroke-width="0.3" d="M45.077,4.579
	c0.067,0.434,0.217,0.85,0.45,1.25c0.233,0.333,0.55,0.567,0.95,0.7c1.4,0.267,2.833,0.483,4.3,0.65l2.95-1.75l0.3,0.35l0.1,1.45
	l2.1,0.1h4.601c0.333-0.566,0.482-1.267,0.449-2.1c-0.033-0.9-0.033-1.783,0-2.65" style="stroke: rgb(0, 0, 0);"></path>
<path fill-rule="evenodd" clip-rule="evenodd" fill="none" stroke="#383635" stroke-width="0.3" d="M50.777,7.179l-2.75,1.45
	c0.333,1.633,0.683,3.25,1.05,4.85c0.333,1.5,0.733,2.983,1.2,4.45c0.133,0.367,0.3,0.717,0.5,1.05c0.267-0.167,0.533-0.333,0.8-0.5
	c1.2-0.667,2.517-0.883,3.95-0.65h1.15l-1-5.5l-1.55-5.1" style="stroke: rgb(0, 0, 0);"></path>
<path fill-rule="evenodd" clip-rule="evenodd" fill="none" stroke="#383635" stroke-width="0.3" d="M56.227,7.329
	c-0.267,0.6-0.45,2.267-0.55,5" style="stroke: rgb(0, 0, 0);"></path>
<path fill-rule="evenodd" clip-rule="evenodd" fill="none" stroke="#383635" stroke-width="0.3" d="M55.527,17.829
	c0,3.1,0.05,5.067,0.15,5.9l1.75,0.65h1.6c1.4,0,2.283-0.067,2.65-0.2c0.334-0.166,0.55-2.467,0.65-6.9c0-0.4,0-0.817,0-1.25
	c0.066-5.3-0.066-8.117-0.4-8.45c-0.166-0.1-0.533-0.183-1.1-0.25" style="stroke: rgb(0, 0, 0);"></path>
<path fill-rule="evenodd" clip-rule="evenodd" fill="none" stroke="#383635" stroke-width="0.3" d="M59.026,24.379
	c1.4,0.033,2.2,0.183,2.4,0.45c0.267,0.266,0.4,2.083,0.4,5.449c0.033,1.134,0.033,2.434,0,3.9c0,0.133,0,0.25,0,0.35
	c0,0.9,0,1.734,0,2.5c-0.033,1.101-0.084,2.033-0.15,2.801c-0.033,2.166-0.166,3.316-0.4,3.449c-0.333,0.066-1.016,0.134-2.05,0.2
	l1.9,0.4c0.3,0.566,0.433,1.233,0.399,2c-0.1,2.033-0.133,4.033-0.1,6c0.066,2.899,0.05,5.85-0.05,8.85
	c-0.034,0.7-0.2,1.217-0.5,1.55l-5.95-0.199l-0.25-5.9l-1.75,0.95l1.7,0.5c0.066,1.033,0.1,2.083,0.1,3.149
	c0,0.867-0.183,1.601-0.55,2.2c-0.4,0.101-0.8,0.217-1.2,0.351c-4.4,0.434-8.8,0.217-13.2-0.65c-0.033-0.9-0.05-1.8-0.05-2.7
	c0-0.366,0-0.733,0-1.1c0-0.7,0.067-1.384,0.2-2.05l0.05-13" style="stroke: rgb(0, 0, 0);"></path>
<path fill-rule="evenodd" clip-rule="evenodd" fill="none" stroke="#383635" stroke-width="0.3" d="M40.977,43.179l14.45,0.05
	c-0.1-1.134-0.183-2.267-0.25-3.399c-0.067-1.334-0.1-2.65-0.1-3.95c0-1.233,0.017-2.467,0.05-3.7c0.033-1.334,0.117-2.65,0.25-3.95
	c0.1-1.267,0.233-2.517,0.4-3.75l1.65-0.1" style="stroke: rgb(0, 0, 0);"></path>
<line fill-rule="evenodd" clip-rule="evenodd" fill="none" stroke="#383635" stroke-width="0.3" x1="41.227" y1="23.629" x2="55.677" y2="23.729" style="stroke: rgb(0, 0, 0);"></line>
<path fill-rule="evenodd" clip-rule="evenodd" fill="none" stroke="#383635" stroke-width="0.3" d="M39.927,56.83l4.85-0.15l-1.6-2
	c2.067-1.533,4.383-2.684,6.95-3.45c0.833-0.267,1.683-0.517,2.55-0.75c0.3-0.1,0.617-0.116,0.95-0.05l1.1,1.8l0.8-8.7l1.05-0.05
	l-1.15-0.25" style="stroke: rgb(0, 0, 0);"></path>
<polyline fill-rule="evenodd" clip-rule="evenodd" fill="none" stroke="#383635" stroke-width="0.3" points="44.777,56.679 
	45.427,60.129 52.927,57.129 " style="stroke: rgb(0, 0, 0);"></polyline>
<path fill-rule="evenodd" clip-rule="evenodd" fill="none" stroke="#383635" stroke-width="0.3" d="M21.477,44.08l0.05,13.25
	c0,0.833,0,1.649,0,2.449c0,0.066,0,0.134,0,0.2h0.1c0-0.033,0-0.1,0-0.2c0-1.666,0.167-2.566,0.5-2.699
	c0.433-0.268,3.133-0.351,8.1-0.25c1.167,0,2.217,0,3.15,0c3.233,0.133,5.233,0.333,6,0.6c0.033,0.767,0.05,1.55,0.05,2.35
	c0,0.066,0,0.134,0,0.2v0.05c0,0.734-0.017,1.334-0.05,1.801c-0.067,0.666-0.2,1.1-0.4,1.3c-0.367,0.267-3.267,0.366-8.7,0.3
	c-5.4-0.1-8.15-0.283-8.25-0.55c-0.2-0.467-0.333-1.434-0.4-2.9" style="stroke: rgb(0, 0, 0);"></path>
<line fill-rule="evenodd" clip-rule="evenodd" fill="none" stroke="#383635" stroke-width="0.3" x1="59.227" y1="43.479" x2="56.577" y2="43.479" style="stroke: rgb(0, 0, 0);"></line>
<polyline fill-rule="evenodd" clip-rule="evenodd" fill="none" stroke="#383635" stroke-width="0.3" points="54.727,52.229 
	57.277,55.08 57.077,55.479 54.677,56.179 " style="stroke: rgb(0, 0, 0);"></polyline>
<path fill-rule="evenodd" clip-rule="evenodd" fill="none" stroke="#383635" stroke-width="0.3" d="M1.627,47.429
	c0.566-0.033,1.15-0.05,1.75-0.05c0.367,0.033,0.733,0.134,1.1,0.3c0.3,0.066,0.517,0.217,0.65,0.45
	c0.333,0.733,0.566,1.517,0.7,2.35c0.2,1.5,0.35,3.034,0.45,4.601c0.933-1.101,1.25-2.367,0.95-3.801
	c-0.033-0.166-0.033-0.333,0-0.5c1.9,0.066,3.684,0.417,5.35,1.051c1,0.333,2,0.666,3,1c0.5,0.1,1,0.232,1.5,0.399
	c0.333,0.2,0.667,0.434,1,0.7l-0.3,2.9l3.75,0.5" style="stroke: rgb(0, 0, 0);"></path>
<path fill-rule="evenodd" clip-rule="evenodd" fill="none" stroke="#383635" stroke-width="0.3" d="M6.277,55.08l-1.1,1l0.6,0.5
	h0.5l1.15,0.1c0.467,0.2,0.95,0.416,1.45,0.65c1.466,0.766,3.05,1.25,4.75,1.449c0.7,0.134,1.367,0.367,2,0.7
	c0.8,0.4,1.583,0.534,2.35,0.4l-0.2-3.05" style="stroke: rgb(0, 0, 0);"></path>
<path fill-rule="evenodd" clip-rule="evenodd" fill="none" stroke="#383635" stroke-width="0.3" d="M6.277,56.58v0.25
	c0.167-0.066,0.55-0.117,1.15-0.15" style="stroke: rgb(0, 0, 0);"></path>
<path fill-rule="evenodd" clip-rule="evenodd" fill="none" stroke="#383635" stroke-width="0.3" d="M21.527,59.979
	c0,1.767-0.15,2.767-0.45,3c-0.1,0.101-0.367,0.184-0.8,0.25c-1.2,0.134-3.483,0.15-6.85,0.05c-4.733-0.066-7.183-0.266-7.35-0.6
	c-0.066,0.1-0.133,0.15-0.2,0.15c-1.434,0.333-2.8,0.266-4.1-0.2" style="stroke: rgb(0, 0, 0);"></path>
<path fill-rule="evenodd" clip-rule="evenodd" fill="none" stroke="#383635" stroke-width="0.3" d="M6.277,56.83
	c-0.333,0.232-0.5,1.217-0.5,2.949c0.033,1.533,0.133,2.5,0.3,2.9" style="stroke: rgb(0, 0, 0);"></path>
</svg>