<svg version="1.1" id="Layer_1" xmlns="http://www.w3.org/2000/svg" xmlns:xlink="http://www.w3.org/1999/xlink" x="0px" y="0px" width="50.605px" height="48.1px" viewBox="0 0 50.605 48.1" enable-background="new 0 0 50.605 48.1" xml:space="preserve" class="ng-scope">
<path fill-rule="evenodd" clip-rule="evenodd" fill="#FFFFFF" d="M19.103,3.425c-3.733,0.467-6.7,2.184-8.9,5.15
	C12.403,5.608,15.37,3.892,19.103,3.425z"></path>
<path fill-rule="evenodd" clip-rule="evenodd" fill="#FFFFFF" d="M12.503,12.125c-0.7-1.2-1.467-2.383-2.3-3.55
	c-0.167-0.267-0.35-0.517-0.55-0.75c-0.567-0.333-0.75-0.8-0.55-1.4v-0.1c2.167-2.433,4.95-4.05,8.35-4.85l0.05-0.05v0.05
	c0.633-0.067,1.033,0.3,1.2,1.1c0.133,0.3,0.267,0.583,0.4,0.85c0.6,1.233,1.233,2.434,1.9,3.6c-0.667-1.167-1.3-2.367-1.9-3.6
	c-0.133-0.267-0.267-0.55-0.4-0.85c-0.167-0.8-0.566-1.167-1.2-1.1v-0.05l-0.05,0.05c-3.4,0.8-6.183,2.417-8.35,4.85v0.1
	c-0.2,0.6-0.017,1.067,0.55,1.4c0.2,0.233,0.383,0.483,0.55,0.75C11.036,9.742,11.803,10.925,12.503,12.125z"></path>
<path fill-rule="evenodd" clip-rule="evenodd" fill="#FFFFFF" d="M21.003,7.025c-3.067,0.733-5.784,2.3-8.15,4.7
	c-0.133,0.134-0.25,0.267-0.35,0.399c-0.4,0.4-0.767,0.801-1.1,1.2c0.333-0.399,0.7-0.8,1.1-1.2c0.1-0.133,0.216-0.266,0.35-0.399
	C15.219,9.325,17.936,7.758,21.003,7.025c0.433-0.1,0.9-0.183,1.4-0.25C21.903,6.842,21.436,6.925,21.003,7.025z"></path>
<path fill-rule="evenodd" clip-rule="evenodd" fill="#FFFFFF" d="M8.753,30.375l-6.85-0.199c-0.333-0.033-0.567-0.167-0.7-0.4
	c-1.367-3.9-1.433-7.584-0.2-11.05c0-0.067,0.033-0.15,0.1-0.25c0.167-0.333,0.383-0.534,0.65-0.601l7.1-0.25
	c-0.2,0.5-0.367,1.018-0.5,1.551c-0.466,1.566-0.7,3.232-0.7,5c0,1.732,0.217,3.366,0.65,4.899
	C8.436,29.508,8.586,29.941,8.753,30.375c-0.167-0.434-0.317-0.866-0.45-1.3c-0.433-1.533-0.65-3.167-0.65-4.899
	c0-1.768,0.233-3.434,0.7-5c0.133-0.533,0.3-1.051,0.5-1.551c0.633-1.533,1.483-2.967,2.55-4.3l-3.6-6.75
	c-0.067-0.267-0.017-0.55,0.15-0.85c0.067-0.133,0.133-0.217,0.2-0.25c2.4-2.8,5.617-4.583,9.65-5.35c0.267,0,0.5,0.133,0.7,0.4
	l3.9,6.25c0.933-0.167,1.917-0.25,2.95-0.25c0.767,0,1.517,0.05,2.25,0.15c0.467,0.033,0.934,0.1,1.4,0.2
	c-0.467-0.1-0.934-0.167-1.4-0.2l3.8-6.15c0.2-0.267,0.433-0.4,0.7-0.4c4.067,0.767,7.284,2.55,9.65,5.35
	c0.066,0.033,0.133,0.117,0.2,0.25c0.2,0.3,0.267,0.583,0.2,0.85l-3.3,6.2c-0.3-0.367-0.617-0.717-0.95-1.05
	c-0.067-0.067-0.117-0.116-0.15-0.15c0.6-1,1.25-2,1.95-3c0.2-0.267,0.4-0.517,0.6-0.75c0.533-0.333,0.717-0.8,0.55-1.4l-0.05-0.1
	c-2.133-2.433-4.9-4.05-8.3-4.85l-0.05-0.05l-0.05,0.05c-0.633-0.067-1.017,0.3-1.15,1.1c-0.133,0.3-0.284,0.583-0.45,0.85
	c-0.567,1.167-1.167,2.317-1.8,3.45c0.633-1.133,1.233-2.283,1.8-3.45c0.167-0.267,0.317-0.55,0.45-0.85
	c0.133-0.8,0.517-1.167,1.15-1.1l0.05-0.05l0.05,0.05c3.4,0.8,6.167,2.417,8.3,4.85l0.05,0.1c0.167,0.6-0.017,1.067-0.55,1.4
	c-0.2,0.233-0.4,0.483-0.6,0.75c-0.7,1-1.35,2-1.95,3c0.033,0.034,0.083,0.083,0.15,0.15c0.333,0.333,0.65,0.683,0.95,1.05
	c1.267,1.434,2.25,2.983,2.95,4.65l7.05,0.25c0.267,0.066,0.483,0.266,0.65,0.6c0.066,0.1,0.1,0.184,0.1,0.25
	c1.233,3.467,1.167,7.15-0.2,11.05c-0.133,0.233-0.367,0.366-0.7,0.4l-6.65,0.2c0.167-0.434,0.3-0.867,0.4-1.301
	c1.167,0.033,2.317,0.084,3.45,0.15c0.3,0.033,0.617,0.066,0.95,0.1c0.767,0.268,1.3,0.117,1.6-0.449v-0.101
	c1-3.333,0.983-6.55-0.05-9.649l-0.05-0.051c-0.433-0.467-0.933-0.533-1.5-0.199c-0.333,0.033-0.65,0.066-0.95,0.1
	c-1.233,0.133-2.417,0.2-3.55,0.2c-0.167-0.534-0.35-1.05-0.55-1.55c0.2,0.5,0.383,1.016,0.55,1.55c1.133,0,2.317-0.067,3.55-0.2
	c0.3-0.033,0.617-0.066,0.95-0.1c0.567-0.334,1.067-0.268,1.5,0.199l0.05,0.051c1.033,3.1,1.05,6.316,0.05,9.649v0.101
	c-0.3,0.566-0.833,0.717-1.6,0.449c-0.333-0.033-0.65-0.066-0.95-0.1c-1.133-0.066-2.283-0.117-3.45-0.15
	c-0.1,0.434-0.233,0.867-0.4,1.301c-0.633,1.8-1.583,3.482-2.85,5.05c-0.3,0.366-0.6,0.716-0.9,1.05
	c-0.133,0.133-0.267,0.267-0.4,0.4c-2.367,2.366-5.083,3.916-8.15,4.649c-0.534,0.134-1.067,0.233-1.6,0.3
	c0.533-0.066,1.066-0.166,1.6-0.3c3.066-0.733,5.783-2.283,8.15-4.649c0.133-0.134,0.267-0.268,0.4-0.4
	c0.3-0.334,0.6-0.684,0.9-1.05l3.3,6.2c0.133,0.3,0.133,0.566,0,0.8c-2.667,3.1-5.817,4.983-9.45,5.649
	c-0.067,0.033-0.167,0.066-0.3,0.101c-0.333,0-0.6-0.101-0.8-0.3l-3.8-6.051c-0.9,0.134-1.833,0.2-2.8,0.2
	c-0.966,0-1.9-0.066-2.8-0.2c-0.567-0.1-1.117-0.199-1.65-0.3c-3.033-0.767-5.717-2.316-8.05-4.649
	c-0.133-0.134-0.283-0.283-0.45-0.45c-0.333-0.366-0.633-0.717-0.9-1.05C10.303,33.675,9.386,32.075,8.753,30.375z"></path>
<path fill-rule="evenodd" clip-rule="evenodd" fill="#FFFFFF" d="M9.103,6.325l0.05,0.05c0.3,0,1.316-0.283,3.05-0.85
	c1.833-0.6,3.583-1.95,5.25-4.05c-1.667,2.1-3.417,3.45-5.25,4.05c-1.733,0.567-2.75,0.85-3.05,0.85L9.103,6.325z"></path>
<path fill-rule="evenodd" clip-rule="evenodd" fill="#FFFFFF" d="M32.503,1.475c1.667,2.1,3.4,3.45,5.2,4.05
	c1.733,0.567,2.767,0.85,3.1,0.85v-0.05v0.05c-0.333,0-1.367-0.283-3.1-0.85C35.903,4.925,34.169,3.575,32.503,1.475z"></path>
<path fill-rule="evenodd" clip-rule="evenodd" fill="#FFFFFF" d="M39.703,8.575c-2.2-2.966-5.167-4.683-8.9-5.15
	C34.536,3.892,37.503,5.608,39.703,8.575z"></path>
<path fill-rule="evenodd" clip-rule="evenodd" fill="#FFFFFF" d="M48.453,28.575c-1-2.5-1.316-4.683-0.95-6.55
	c0.4-1.8,0.683-2.834,0.85-3.1h0.05h-0.05c-0.167,0.266-0.45,1.3-0.85,3.1C47.136,23.892,47.453,26.075,48.453,28.575z"></path>
<path fill-rule="evenodd" clip-rule="evenodd" fill="#FFFFFF" d="M42.453,28.875c0.4-1.5,0.6-3.066,0.6-4.699
	c0-1.834-0.233-3.566-0.7-5.2c0.467,1.634,0.7,3.366,0.7,5.2C43.053,25.808,42.853,27.375,42.453,28.875z"></path>
<path fill-rule="evenodd" clip-rule="evenodd" fill="#FFFFFF" d="M45.903,18.775c1.467,3.367,1.467,6.783,0,10.25
	C47.37,25.558,47.37,22.142,45.903,18.775z"></path>
<path fill-rule="evenodd" clip-rule="evenodd" fill="#FFFFFF" d="M38.303,36.275c0.633,1.066,1.3,2.117,2,3.15
	c0.167,0.266,0.35,0.533,0.55,0.8c0.6,0.533,0.717,1.066,0.35,1.6l0.05,0.05l-0.05,0.051c-2.4,2.533-5.183,4.116-8.35,4.75h-0.05
	h-0.05c-0.633-0.134-0.95-0.533-0.95-1.2c-0.133-0.333-0.267-0.634-0.4-0.9c-0.5-1.134-1.05-2.216-1.65-3.25
	c0.6,1.034,1.15,2.116,1.65,3.25c0.133,0.267,0.267,0.567,0.4,0.9c0,0.667,0.317,1.066,0.95,1.2h0.05h0.05
	c3.167-0.634,5.95-2.217,8.35-4.75l0.05-0.051l-0.05-0.05c0.367-0.533,0.25-1.066-0.35-1.6c-0.2-0.267-0.383-0.534-0.55-0.8
	C39.603,38.392,38.936,37.341,38.303,36.275z"></path>
<path fill-rule="evenodd" clip-rule="evenodd" fill="#FFFFFF" d="M41.203,41.925c-2.667,0.366-4.733,1.166-6.2,2.399
	c-1.333,1.233-2.067,2-2.2,2.3v0.051v-0.051c0.133-0.3,0.867-1.066,2.2-2.3C36.469,43.091,38.536,42.292,41.203,41.925z"></path>
<path fill-rule="evenodd" clip-rule="evenodd" fill="#FFFFFF" d="M9.453,41.925c2.667,0.366,4.733,1.166,6.2,2.399
	c1.333,1.233,2.066,2,2.2,2.3v0.051v-0.051c-0.133-0.3-0.867-1.066-2.2-2.3C14.186,43.091,12.12,42.292,9.453,41.925z"></path>
<path fill-rule="evenodd" clip-rule="evenodd" fill="#FFFFFF" d="M22.553,41.625l-3.85,6.051c-0.2,0.199-0.467,0.3-0.8,0.3
	c-0.133-0.034-0.233-0.067-0.3-0.101c-3.633-0.666-6.783-2.55-9.45-5.649c-0.133-0.233-0.133-0.5,0-0.8l3.35-6.25
	c0.267,0.333,0.566,0.684,0.9,1.05c0.167,0.167,0.316,0.316,0.45,0.45c2.333,2.333,5.017,3.883,8.05,4.649
	C21.436,41.425,21.986,41.525,22.553,41.625z"></path>
<path fill-rule="evenodd" clip-rule="evenodd" fill="#FFFFFF" d="M2.253,19.075l-0.05,0.05h0.05c0.167,0.268,0.45,1.301,0.85,3.101
	c0.367,1.866,0.05,4.05-0.95,6.55v0.1c0.3,0.566,0.833,0.717,1.6,0.45c0.333-0.033,0.65-0.066,0.95-0.1
	c-1.467-3.467-1.467-6.884,0-10.25c-0.3-0.034-0.617-0.067-0.95-0.101C3.186,18.542,2.686,18.609,2.253,19.075
	c0.433-0.466,0.933-0.533,1.5-0.2c0.333,0.033,0.65,0.066,0.95,0.101c-1.467,3.366-1.467,6.783,0,10.25
	c-0.3,0.033-0.617,0.066-0.95,0.1c-0.767,0.267-1.3,0.116-1.6-0.45v-0.1c1-2.5,1.316-4.684,0.95-6.55
	c-0.4-1.8-0.683-2.833-0.85-3.101h-0.05L2.253,19.075z"></path>
<path fill-rule="evenodd" clip-rule="evenodd" fill="#FFFFFF" d="M4.703,18.975c1.233,0.134,2.45,0.2,3.65,0.2
	C7.153,19.175,5.936,19.109,4.703,18.975z"></path>
<path fill-rule="evenodd" clip-rule="evenodd" fill="#FFFFFF" d="M2.203,19.125c-1.033,3.101-1.05,6.316-0.05,9.65
	C1.153,25.441,1.169,22.225,2.203,19.125z"></path>
<path fill-rule="evenodd" clip-rule="evenodd" fill="#FFFFFF" d="M4.703,29.225c1.2-0.067,2.4-0.116,3.6-0.15
	C7.103,29.109,5.903,29.158,4.703,29.225z"></path>
<path fill-rule="evenodd" clip-rule="evenodd" fill="#FFFFFF" d="M20.903,41.325c-0.6,1.034-1.15,2.116-1.65,3.25
	c-0.133,0.267-0.267,0.567-0.4,0.9c0,0.667-0.316,1.066-0.95,1.2h-0.05c-3.2-0.634-6-2.217-8.4-4.75l-0.05-0.051l0.05-0.05
	c-0.367-0.533-0.25-1.066,0.35-1.6c0.2-0.267,0.383-0.534,0.55-0.8c0.733-1.066,1.417-2.134,2.05-3.2
	c-0.633,1.066-1.317,2.134-2.05,3.2c-0.167,0.266-0.35,0.533-0.55,0.8c-0.6,0.533-0.717,1.066-0.35,1.6l-0.05,0.05l0.05,0.051
	c2.4,2.533,5.2,4.116,8.4,4.75h0.05c0.633-0.134,0.95-0.533,0.95-1.2c0.133-0.333,0.267-0.634,0.4-0.9
	C19.753,43.441,20.303,42.359,20.903,41.325z"></path>
<path fill-rule="evenodd" clip-rule="evenodd" fill="#FFFFFF" d="M19.253,44.575c-3.667-0.433-6.633-2.149-8.9-5.149
	C12.62,42.425,15.586,44.142,19.253,44.575z"></path>
<path fill-rule="evenodd" clip-rule="evenodd" fill="#FFFFFF" d="M40.303,39.425c-2.267,3-5.233,4.717-8.9,5.149
	C35.069,44.142,38.036,42.425,40.303,39.425z"></path>
<path fill-rule="evenodd" clip-rule="evenodd" fill="#FFFFFF" d="M29.003,6.875c3.3,0.667,6.216,2.233,8.75,4.7
	C35.219,9.108,32.303,7.542,29.003,6.875z"></path>
<path fill-rule="evenodd" clip-rule="evenodd" fill="none" stroke="#383635" stroke-width="0.3" stroke-linecap="round" stroke-linejoin="round" stroke-miterlimit="3" d="
	M12.503,12.125c-0.7-1.2-1.467-2.383-2.3-3.55c-0.167-0.267-0.35-0.517-0.55-0.75c-0.567-0.333-0.75-0.8-0.55-1.4v-0.1
	c2.167-2.433,4.95-4.05,8.35-4.85l0.05-0.05v0.05c0.633-0.067,1.033,0.3,1.2,1.1c0.133,0.3,0.267,0.583,0.4,0.85
	c0.6,1.233,1.233,2.434,1.9,3.6" style="stroke: rgb(0, 0, 0);"></path>
<path fill-rule="evenodd" clip-rule="evenodd" fill="none" stroke="#383635" stroke-width="0.3" stroke-linecap="round" stroke-linejoin="round" stroke-miterlimit="3" d="
	M22.403,6.775l-3.9-6.25c-0.2-0.267-0.434-0.4-0.7-0.4c-4.033,0.767-7.25,2.55-9.65,5.35c-0.067,0.033-0.133,0.117-0.2,0.25
	c-0.167,0.3-0.217,0.583-0.15,0.85l3.6,6.75" style="stroke: rgb(0, 0, 0);"></path>
<path fill-rule="evenodd" clip-rule="evenodd" fill="none" stroke="#383635" stroke-width="0.3" stroke-linecap="round" stroke-linejoin="round" stroke-miterlimit="3" d="
	M9.103,6.325l0.05,0.05c0.3,0,1.316-0.283,3.05-0.85c1.833-0.6,3.583-1.95,5.25-4.05" style="stroke: rgb(0, 0, 0);"></path>
<path fill-rule="evenodd" clip-rule="evenodd" fill="none" stroke="#383635" stroke-width="0.3" stroke-linecap="round" stroke-linejoin="round" stroke-miterlimit="3" d="
	M29.003,6.875c0.633-1.133,1.233-2.283,1.8-3.45c0.167-0.267,0.317-0.55,0.45-0.85c0.133-0.8,0.517-1.167,1.15-1.1l0.05-0.05
	l0.05,0.05c3.4,0.8,6.167,2.417,8.3,4.85l0.05,0.1c0.167,0.6-0.017,1.067-0.55,1.4c-0.2,0.233-0.4,0.483-0.6,0.75
	c-0.7,1-1.35,2-1.95,3" style="stroke: rgb(0, 0, 0);"></path>
<path fill-rule="evenodd" clip-rule="evenodd" fill="none" stroke="#383635" stroke-width="0.3" stroke-linecap="round" stroke-linejoin="round" stroke-miterlimit="3" d="
	M38.853,12.775l3.3-6.2c0.066-0.267,0-0.55-0.2-0.85c-0.066-0.133-0.133-0.217-0.2-0.25c-2.367-2.8-5.583-4.583-9.65-5.35
	c-0.267,0-0.5,0.133-0.7,0.4l-3.8,6.15" style="stroke: rgb(0, 0, 0);"></path>
<path fill-rule="evenodd" clip-rule="evenodd" fill="none" stroke="#383635" stroke-width="0.3" stroke-linecap="round" stroke-linejoin="round" stroke-miterlimit="3" d="
	M10.203,8.575c2.2-2.966,5.167-4.683,8.9-5.15" style="stroke: rgb(0, 0, 0);"></path>
<path fill-rule="evenodd" clip-rule="evenodd" fill="none" stroke="#383635" stroke-width="0.3" stroke-linecap="round" stroke-linejoin="round" stroke-miterlimit="3" d="
	M32.503,1.475c1.667,2.1,3.4,3.45,5.2,4.05c1.733,0.567,2.767,0.85,3.1,0.85v-0.05" style="stroke: rgb(0, 0, 0);"></path>
<path fill-rule="evenodd" clip-rule="evenodd" fill="none" stroke="#383635" stroke-width="0.3" stroke-linecap="round" stroke-linejoin="round" stroke-miterlimit="3" d="
	M39.703,8.575c-2.2-2.966-5.167-4.683-8.9-5.15" style="stroke: rgb(0, 0, 0);"></path>
<path fill-rule="evenodd" clip-rule="evenodd" fill="none" stroke="#383635" stroke-width="0.3" stroke-linecap="round" stroke-linejoin="round" stroke-miterlimit="3" d="
	M42.053,30.175l6.65-0.2c0.333-0.034,0.567-0.167,0.7-0.4c1.367-3.899,1.433-7.583,0.2-11.05c0-0.066-0.033-0.15-0.1-0.25
	c-0.167-0.334-0.383-0.533-0.65-0.6l-7.05-0.25" style="stroke: rgb(0, 0, 0);"></path>
<path fill-rule="evenodd" clip-rule="evenodd" fill="none" stroke="#383635" stroke-width="0.3" stroke-linecap="round" stroke-linejoin="round" stroke-miterlimit="3" d="
	M42.353,18.975c1.133,0,2.317-0.067,3.55-0.2c0.3-0.033,0.617-0.066,0.95-0.1c0.567-0.334,1.067-0.268,1.5,0.199l0.05,0.051
	c1.033,3.1,1.05,6.316,0.05,9.649v0.101c-0.3,0.566-0.833,0.717-1.6,0.449c-0.333-0.033-0.65-0.066-0.95-0.1
	c-1.133-0.066-2.283-0.117-3.45-0.15" style="stroke: rgb(0, 0, 0);"></path>
<path fill-rule="evenodd" clip-rule="evenodd" fill="none" stroke="#383635" stroke-width="0.3" stroke-linecap="round" stroke-linejoin="round" stroke-miterlimit="3" d="
	M48.453,28.575c-1-2.5-1.316-4.683-0.95-6.55c0.4-1.8,0.683-2.834,0.85-3.1h0.05" style="stroke: rgb(0, 0, 0);"></path>
<path fill-rule="evenodd" clip-rule="evenodd" fill="none" stroke="#383635" stroke-width="0.3" stroke-linecap="round" stroke-linejoin="round" stroke-miterlimit="3" d="
	M45.903,18.775c1.467,3.367,1.467,6.783,0,10.25" style="stroke: rgb(0, 0, 0);"></path>
<path fill-rule="evenodd" clip-rule="evenodd" fill="none" stroke="#383635" stroke-width="0.3" stroke-linecap="round" stroke-linejoin="round" stroke-miterlimit="3" d="
	M38.303,36.275c0.633,1.066,1.3,2.117,2,3.15c0.167,0.266,0.35,0.533,0.55,0.8c0.6,0.533,0.717,1.066,0.35,1.6l0.05,0.05
	l-0.05,0.051c-2.4,2.533-5.183,4.116-8.35,4.75h-0.05h-0.05c-0.633-0.134-0.95-0.533-0.95-1.2c-0.133-0.333-0.267-0.634-0.4-0.9
	c-0.5-1.134-1.05-2.216-1.65-3.25" style="stroke: rgb(0, 0, 0);"></path>
<path fill-rule="evenodd" clip-rule="evenodd" fill="none" stroke="#383635" stroke-width="0.3" stroke-linecap="round" stroke-linejoin="round" stroke-miterlimit="3" d="
	M28.153,41.625l3.8,6.051c0.2,0.199,0.467,0.3,0.8,0.3c0.133-0.034,0.233-0.067,0.3-0.101c3.633-0.666,6.783-2.55,9.45-5.649
	c0.133-0.233,0.133-0.5,0-0.8l-3.3-6.2" style="stroke: rgb(0, 0, 0);"></path>
<path fill-rule="evenodd" clip-rule="evenodd" fill="none" stroke="#383635" stroke-width="0.3" stroke-linecap="round" stroke-linejoin="round" stroke-miterlimit="3" d="
	M2.253,19.075l-0.05,0.05h0.05c0.167,0.268,0.45,1.301,0.85,3.101c0.367,1.866,0.05,4.05-0.95,6.55v0.1
	c0.3,0.566,0.833,0.717,1.6,0.45c0.333-0.033,0.65-0.066,0.95-0.1c-1.467-3.467-1.467-6.884,0-10.25
	c-0.3-0.034-0.617-0.067-0.95-0.101C3.186,18.542,2.686,18.609,2.253,19.075z" style="stroke: rgb(0, 0, 0);"></path>
<path fill-rule="evenodd" clip-rule="evenodd" fill="none" stroke="#383635" stroke-width="0.3" stroke-linecap="round" stroke-linejoin="round" stroke-miterlimit="3" d="
	M8.853,17.625l-7.1,0.25c-0.267,0.066-0.483,0.268-0.65,0.601c-0.066,0.1-0.1,0.183-0.1,0.25c-1.233,3.466-1.167,7.149,0.2,11.05
	c0.133,0.233,0.367,0.367,0.7,0.4l6.85,0.199" style="stroke: rgb(0, 0, 0);"></path>
<path fill-rule="evenodd" clip-rule="evenodd" fill="none" stroke="#383635" stroke-width="0.3" stroke-linecap="round" stroke-linejoin="round" stroke-miterlimit="3" d="
	M4.703,18.975c1.233,0.134,2.45,0.2,3.65,0.2" style="stroke: rgb(0, 0, 0);"></path>
<path fill-rule="evenodd" clip-rule="evenodd" fill="none" stroke="#383635" stroke-width="0.3" stroke-linecap="round" stroke-linejoin="round" stroke-miterlimit="3" d="
	M2.203,19.125c-1.033,3.101-1.05,6.316-0.05,9.65" style="stroke: rgb(0, 0, 0);"></path>
<path fill-rule="evenodd" clip-rule="evenodd" fill="none" stroke="#383635" stroke-width="0.3" stroke-linecap="round" stroke-linejoin="round" stroke-miterlimit="3" d="
	M4.703,29.225c1.2-0.067,2.4-0.116,3.6-0.15" style="stroke: rgb(0, 0, 0);"></path>
<path fill-rule="evenodd" clip-rule="evenodd" fill="none" stroke="#383635" stroke-width="0.3" stroke-linecap="round" stroke-linejoin="round" stroke-miterlimit="3" d="
	M20.903,41.325c-0.6,1.034-1.15,2.116-1.65,3.25c-0.133,0.267-0.267,0.567-0.4,0.9c0,0.667-0.316,1.066-0.95,1.2h-0.05
	c-3.2-0.634-6-2.217-8.4-4.75l-0.05-0.051l0.05-0.05c-0.367-0.533-0.25-1.066,0.35-1.6c0.2-0.267,0.383-0.534,0.55-0.8
	c0.733-1.066,1.417-2.134,2.05-3.2" style="stroke: rgb(0, 0, 0);"></path>
<path fill-rule="evenodd" clip-rule="evenodd" fill="none" stroke="#383635" stroke-width="0.3" stroke-linecap="round" stroke-linejoin="round" stroke-miterlimit="3" d="
	M11.503,35.175l-3.35,6.25c-0.133,0.3-0.133,0.566,0,0.8c2.667,3.1,5.816,4.983,9.45,5.649c0.067,0.033,0.167,0.066,0.3,0.101
	c0.333,0,0.6-0.101,0.8-0.3l3.85-6.051" style="stroke: rgb(0, 0, 0);"></path>
<path fill-rule="evenodd" clip-rule="evenodd" fill="none" stroke="#383635" stroke-width="0.3" stroke-linecap="round" stroke-linejoin="round" stroke-miterlimit="3" d="
	M17.853,46.675v-0.051c-0.133-0.3-0.867-1.066-2.2-2.3c-1.467-1.233-3.533-2.033-6.2-2.399" style="stroke: rgb(0, 0, 0);"></path>
<path fill-rule="evenodd" clip-rule="evenodd" fill="none" stroke="#383635" stroke-width="0.3" stroke-linecap="round" stroke-linejoin="round" stroke-miterlimit="3" d="
	M32.803,46.675v-0.051c0.133-0.3,0.867-1.066,2.2-2.3c1.466-1.233,3.533-2.033,6.2-2.399" style="stroke: rgb(0, 0, 0);"></path>
<path fill-rule="evenodd" clip-rule="evenodd" fill="none" stroke="#383635" stroke-width="0.3" stroke-linecap="round" stroke-linejoin="round" stroke-miterlimit="3" d="
	M19.253,44.575c-3.667-0.433-6.633-2.149-8.9-5.149" style="stroke: rgb(0, 0, 0);"></path>
<path fill-rule="evenodd" clip-rule="evenodd" fill="none" stroke="#383635" stroke-width="0.3" stroke-linecap="round" stroke-linejoin="round" stroke-miterlimit="3" d="
	M40.303,39.425c-2.267,3-5.233,4.717-8.9,5.149" style="stroke: rgb(0, 0, 0);"></path>
<path fill-rule="evenodd" clip-rule="evenodd" fill="none" stroke="#383635" stroke-width="0.3" d="M21.003,7.025
	c0.433-0.1,0.9-0.183,1.4-0.25" style="stroke: rgb(0, 0, 0);"></path>
<path fill-rule="evenodd" clip-rule="evenodd" fill="none" stroke="#383635" stroke-width="0.3" d="M11.403,13.325
	c0.333-0.399,0.7-0.8,1.1-1.2" style="stroke: rgb(0, 0, 0);"></path>
<path fill-rule="evenodd" clip-rule="evenodd" fill="none" stroke="#383635" stroke-width="0.3" d="M27.603,6.675
	c-0.733-0.1-1.483-0.15-2.25-0.15c-1.033,0-2.017,0.083-2.95,0.25" style="stroke: rgb(0, 0, 0);"></path>
<path fill-rule="evenodd" clip-rule="evenodd" fill="none" stroke="#383635" stroke-width="0.3" d="M27.603,6.675
	c0.467,0.033,0.934,0.1,1.4,0.2c3.3,0.667,6.216,2.233,8.75,4.7c0.033,0.034,0.083,0.083,0.15,0.15
	c0.333,0.333,0.65,0.683,0.95,1.05" style="stroke: rgb(0, 0, 0);"></path>
<path fill-rule="evenodd" clip-rule="evenodd" fill="none" stroke="#383635" stroke-width="0.3" d="M41.803,17.425
	c0.2,0.5,0.383,1.016,0.55,1.55" style="stroke: rgb(0, 0, 0);"></path>
<path fill-rule="evenodd" clip-rule="evenodd" fill="none" stroke="#383635" stroke-width="0.3" d="M42.453,28.875
	c-0.1,0.434-0.233,0.867-0.4,1.301" style="stroke: rgb(0, 0, 0);"></path>
<path fill-rule="evenodd" clip-rule="evenodd" fill="none" stroke="#383635" stroke-width="0.3" d="M41.803,17.425
	c-0.7-1.667-1.683-3.217-2.95-4.65" style="stroke: rgb(0, 0, 0);"></path>
<path fill-rule="evenodd" clip-rule="evenodd" fill="none" stroke="#383635" stroke-width="0.3" d="M42.453,28.875
	c0.4-1.5,0.6-3.066,0.6-4.699c0-1.834-0.233-3.566-0.7-5.2" style="stroke: rgb(0, 0, 0);"></path>
<path fill-rule="evenodd" clip-rule="evenodd" fill="none" stroke="#383635" stroke-width="0.3" d="M28.153,41.625
	c0.533-0.066,1.066-0.166,1.6-0.3c3.066-0.733,5.783-2.283,8.15-4.649c0.133-0.134,0.267-0.268,0.4-0.4
	c0.3-0.334,0.6-0.684,0.9-1.05c1.267-1.567,2.217-3.25,2.85-5.05" style="stroke: rgb(0, 0, 0);"></path>
<path fill-rule="evenodd" clip-rule="evenodd" fill="none" stroke="#383635" stroke-width="0.3" d="M21.003,7.025
	c-3.067,0.733-5.784,2.3-8.15,4.7c-0.133,0.134-0.25,0.267-0.35,0.399" style="stroke: rgb(0, 0, 0);"></path>
<path fill-rule="evenodd" clip-rule="evenodd" fill="none" stroke="#383635" stroke-width="0.3" d="M11.403,13.325
	c-1.067,1.333-1.917,2.767-2.55,4.3c-0.2,0.5-0.367,1.018-0.5,1.551c-0.466,1.566-0.7,3.232-0.7,5c0,1.732,0.217,3.366,0.65,4.899
	c0.133,0.434,0.283,0.866,0.45,1.3c0.633,1.7,1.55,3.301,2.75,4.801c0.267,0.333,0.566,0.684,0.9,1.05
	c0.167,0.167,0.316,0.316,0.45,0.45c2.333,2.333,5.017,3.883,8.05,4.649c0.533,0.101,1.083,0.2,1.65,0.3
	c0.9,0.134,1.833,0.2,2.8,0.2c0.967,0,1.9-0.066,2.8-0.2" style="stroke: rgb(0, 0, 0);"></path>
</svg>