<svg version="1.1" id="Layer_1" xmlns="http://www.w3.org/2000/svg" xmlns:xlink="http://www.w3.org/1999/xlink" x="0px" y="0px" width="55.555px" height="55.405px" viewBox="0 0 55.555 55.405" enable-background="new 0 0 55.555 55.405" xml:space="preserve" class="ng-scope">
<path fill-rule="evenodd" clip-rule="evenodd" fill="#FFFFFF" d="M9.003,15.053v-1.3v-4.95h4.75l0.2-6.9
	c0.034-0.333,0.167-0.566,0.4-0.7c3.9-1.367,7.583-1.434,11.05-0.2c0.067,0,0.15,0.033,0.25,0.1c0.333,0.167,0.533,0.383,0.6,0.65
	l0.25,7.05h2.65l0.2-6.9c0.033-0.333,0.167-0.566,0.4-0.7c3.9-1.367,7.583-1.434,11.05-0.2c0.067,0,0.15,0.033,0.25,0.1
	c0.333,0.167,0.534,0.383,0.6,0.65l0.25,7.05h4.8v5l6.95,0.2c0.334,0.033,0.566,0.167,0.7,0.4c1.366,3.9,1.433,7.583,0.2,11.05
	c0,0.066-0.033,0.15-0.101,0.25c-0.167,0.334-0.384,0.533-0.65,0.601l-7.1,0.25v2.649l6.95,0.2c0.334,0.034,0.566,0.167,0.7,0.4
	c1.366,3.899,1.433,7.583,0.2,11.05c0,0.066-0.033,0.15-0.101,0.25c-0.167,0.334-0.384,0.533-0.65,0.6l-7.1,0.25v4.851h-4.8
	l-0.25,6.85c-0.066,0.267-0.267,0.483-0.6,0.65c-0.1,0.066-0.183,0.1-0.25,0.1c-3.466,1.233-7.15,1.167-11.05-0.2
	c-0.233-0.133-0.367-0.366-0.4-0.699l-0.2-6.7h-2.65l-0.25,6.85c-0.067,0.267-0.267,0.483-0.6,0.65c-0.1,0.066-0.183,0.1-0.25,0.1
	c-3.467,1.233-7.15,1.167-11.05-0.2c-0.233-0.133-0.367-0.366-0.4-0.699l-0.2-6.7h-4.75v-4.9l-7.25-0.25
	c-0.267-0.066-0.483-0.267-0.65-0.6c-0.067-0.101-0.1-0.184-0.1-0.25c-1.233-3.467-1.167-7.15,0.2-11.05
	c0.133-0.234,0.367-0.367,0.7-0.4l7.1-0.2v-2.649l-7.25-0.25c-0.267-0.066-0.483-0.268-0.65-0.601c-0.067-0.1-0.1-0.183-0.1-0.25
	c-1.233-3.466-1.167-7.149,0.2-11.05c0.133-0.233,0.367-0.367,0.7-0.4l7.1-0.2V15.053c-1.434,0-2.867-0.05-4.3-0.15
	C6.136,15.002,7.569,15.053,9.003,15.053v9.899v1.551v-1.551V15.053z"></path>
<path fill-rule="evenodd" clip-rule="evenodd" fill="#FFFFFF" d="M2.153,15.303h0.05c0.267-0.6,0.784-0.767,1.55-0.5
	c0.333,0.033,0.65,0.066,0.95,0.1c-1.466,3.467-1.466,6.884,0,10.25c-0.3,0.034-0.617,0.067-0.95,0.101
	c-0.567,0.333-1.067,0.266-1.5-0.2l-0.05-0.05h0.05c0.167-0.268,0.45-1.301,0.85-3.101c0.367-1.866,0.05-4.05-0.95-6.55V15.303v0.05
	c1,2.5,1.317,4.684,0.95,6.55c-0.4,1.8-0.684,2.833-0.85,3.101h-0.05l0.05,0.05c0.433,0.466,0.933,0.533,1.5,0.2
	c0.333-0.033,0.65-0.066,0.95-0.101c-1.466-3.366-1.466-6.783,0-10.25c-0.3-0.033-0.617-0.066-0.95-0.1
	c-0.767-0.267-1.283-0.1-1.55,0.5H2.153z"></path>
<path fill-rule="evenodd" clip-rule="evenodd" fill="#FFFFFF" d="M14.903,4.703c3.467-1.467,6.883-1.467,10.25,0
	c0.033-0.3,0.067-0.617,0.1-0.95c0.333-0.566,0.267-1.066-0.2-1.5l-0.05-0.05v0.05c-0.267,0.167-1.3,0.45-3.1,0.85
	c-1.867,0.367-4.05,0.05-6.55-0.95h-0.05v0.05c-0.6,0.267-0.767,0.783-0.5,1.55C14.836,4.086,14.87,4.402,14.903,4.703
	c-0.033-0.3-0.067-0.617-0.1-0.95c-0.267-0.767-0.1-1.283,0.5-1.55v-0.05h0.05c2.5,1,4.683,1.317,6.55,0.95
	c1.8-0.4,2.833-0.683,3.1-0.85v-0.05l0.05,0.05c0.467,0.434,0.533,0.934,0.2,1.5c-0.033,0.333-0.067,0.65-0.1,0.95
	C21.786,3.236,18.37,3.236,14.903,4.703c0.1,1.367,0.15,2.733,0.15,4.1C15.053,7.436,15.003,6.069,14.903,4.703z"></path>
<path fill-rule="evenodd" clip-rule="evenodd" fill="#FFFFFF" d="M25.003,2.203c-3.1-1.033-6.317-1.05-9.65-0.05
	C18.686,1.152,21.903,1.169,25.003,2.203z"></path>
<path fill-rule="evenodd" clip-rule="evenodd" fill="#FFFFFF" d="M30.303,4.703c3.467-1.467,6.883-1.467,10.25,0
	c0.034-0.3,0.067-0.617,0.1-0.95c0.333-0.566,0.267-1.066-0.2-1.5l-0.05-0.05v0.05c-0.267,0.167-1.3,0.45-3.1,0.85
	c-1.867,0.367-4.05,0.05-6.55-0.95h-0.05v0.05c-0.6,0.267-0.767,0.783-0.5,1.55C30.236,4.086,30.27,4.402,30.303,4.703
	c-0.033-0.3-0.066-0.617-0.1-0.95c-0.267-0.767-0.1-1.283,0.5-1.55v-0.05h0.05c2.5,1,4.683,1.317,6.55,0.95
	c1.8-0.4,2.833-0.683,3.1-0.85v-0.05l0.05,0.05c0.467,0.434,0.534,0.934,0.2,1.5c-0.033,0.333-0.066,0.65-0.1,0.95
	C37.186,3.236,33.77,3.236,30.303,4.703c0.1,1.367,0.15,2.733,0.15,4.1C30.453,7.436,30.403,6.069,30.303,4.703z"></path>
<path fill-rule="evenodd" clip-rule="evenodd" fill="#FFFFFF" d="M30.753,2.152c3.333-1,6.55-0.983,9.65,0.05
	C37.303,1.169,34.086,1.152,30.753,2.152z"></path>
<path fill-rule="evenodd" clip-rule="evenodd" fill="#FFFFFF" d="M40.353,8.803h1.55H40.353h-9.9h-1.3h1.3H40.353
	c0-1.333,0.066-2.7,0.2-4.1C40.419,6.103,40.353,7.469,40.353,8.803z"></path>
<path fill-rule="evenodd" clip-rule="evenodd" fill="#FFFFFF" d="M46.703,13.803v1.3V13.803z"></path>
<path fill-rule="evenodd" clip-rule="evenodd" fill="#FFFFFF" d="M46.703,15.103c1.4,0,2.784-0.05,4.15-0.15
	c0.3-0.033,0.616-0.067,0.95-0.1c0.767-0.267,1.284-0.1,1.55,0.5h0.05v0.05c1,3.333,0.983,6.55-0.05,9.65l-0.05,0.05
	c-0.433,0.467-0.933,0.533-1.5,0.2c-0.333-0.034-0.65-0.067-0.95-0.101c-1.434-0.133-2.817-0.199-4.15-0.199
	c1.333,0,2.717,0.066,4.15,0.199c0.3,0.033,0.616,0.066,0.95,0.101c0.567,0.333,1.067,0.267,1.5-0.2l0.05-0.05
	c1.033-3.101,1.05-6.317,0.05-9.65v-0.05h-0.05c-0.267-0.6-0.784-0.767-1.55-0.5c-0.333,0.033-0.65,0.067-0.95,0.1
	C49.486,15.053,48.103,15.103,46.703,15.103v9.9v1.55v-1.55V15.103z"></path>
<polygon fill-rule="evenodd" clip-rule="evenodd" fill="#FFFFFF" points="46.703,41.952 46.703,40.402 46.703,30.503 46.703,29.202 
	46.703,30.503 46.703,40.402 "></polygon>
<polygon fill-rule="evenodd" clip-rule="evenodd" fill="#FFFFFF" points="26.503,8.803 24.953,8.803 15.053,8.803 13.753,8.803 
	15.053,8.803 24.953,8.803 "></polygon>
<path fill-rule="evenodd" clip-rule="evenodd" fill="#FFFFFF" d="M15.053,46.803h-1.3H15.053c0,1.3-0.05,2.6-0.15,3.899
	c-0.033,0.301-0.067,0.617-0.1,0.95c-0.267,0.767-0.1,1.284,0.5,1.55v0.051h0.05c3.333,1,6.55,0.982,9.65-0.051l0.05-0.05
	c0.467-0.433,0.533-0.933,0.2-1.5c-0.033-0.333-0.067-0.649-0.1-0.95c-0.133-1.333-0.2-2.633-0.2-3.899
	c0,1.267,0.067,2.566,0.2,3.899c0.033,0.301,0.067,0.617,0.1,0.95c0.333,0.567,0.267,1.067-0.2,1.5l-0.05,0.05
	c-3.1,1.033-6.317,1.051-9.65,0.051h-0.05v-0.051c-0.6-0.266-0.767-0.783-0.5-1.55c0.033-0.333,0.067-0.649,0.1-0.95
	C15.003,49.402,15.053,48.103,15.053,46.803h9.9h1.55h-1.55H15.053z"></path>
<path fill-rule="evenodd" clip-rule="evenodd" fill="#FFFFFF" d="M25.003,53.202v-0.05c-0.267-0.167-1.3-0.45-3.1-0.85
	c-1.867-0.366-4.05-0.05-6.55,0.95c2.5-1,4.683-1.316,6.55-0.95c1.8,0.399,2.833,0.683,3.1,0.85V53.202z"></path>
<path fill-rule="evenodd" clip-rule="evenodd" fill="#FFFFFF" d="M25.153,50.702c-3.367,1.467-6.783,1.467-10.25,0
	C18.37,52.169,21.786,52.169,25.153,50.702z"></path>
<path fill-rule="evenodd" clip-rule="evenodd" fill="#FFFFFF" d="M30.753,53.253c3.333,1,6.55,0.982,9.65-0.051v-0.05
	c-0.267-0.167-1.3-0.45-3.1-0.85C35.436,51.937,33.253,52.253,30.753,53.253h-0.05v-0.051c-0.6-0.266-0.767-0.783-0.5-1.55
	c0.034-0.333,0.067-0.649,0.1-0.95c0.1-1.3,0.15-2.6,0.15-3.899c0,1.3-0.05,2.6-0.15,3.899c-0.033,0.301-0.066,0.617-0.1,0.95
	c-0.267,0.767-0.1,1.284,0.5,1.55v0.051H30.753c2.5-1,4.683-1.316,6.55-0.95c1.8,0.399,2.833,0.683,3.1,0.85v0.05
	C37.303,54.235,34.086,54.253,30.753,53.253z"></path>
<path fill-rule="evenodd" clip-rule="evenodd" fill="#FFFFFF" d="M40.353,46.803h-9.9h-1.3h1.3H40.353
	c0,1.267,0.066,2.566,0.2,3.899c0.034,0.301,0.067,0.617,0.1,0.95c0.333,0.567,0.267,1.067-0.2,1.5l-0.05,0.05l0.05-0.05
	c0.467-0.433,0.534-0.933,0.2-1.5c-0.033-0.333-0.066-0.649-0.1-0.95C40.419,49.369,40.353,48.069,40.353,46.803z"></path>
<path fill-rule="evenodd" clip-rule="evenodd" fill="#FFFFFF" d="M41.903,46.803h-1.55H41.903z"></path>
<path fill-rule="evenodd" clip-rule="evenodd" fill="#FFFFFF" d="M40.553,50.702c-3.367,1.467-6.783,1.467-10.25,0
	C33.77,52.169,37.186,52.169,40.553,50.702z"></path>
<path fill-rule="evenodd" clip-rule="evenodd" fill="#FFFFFF" d="M53.403,15.402c-1,2.5-1.316,4.684-0.95,6.55
	c0.4,1.801,0.684,2.834,0.85,3.101h0.05h-0.05c-0.167-0.267-0.45-1.3-0.85-3.101C52.086,20.086,52.403,17.902,53.403,15.402z"></path>
<path fill-rule="evenodd" clip-rule="evenodd" fill="#FFFFFF" d="M53.353,30.753c-0.267-0.601-0.784-0.768-1.55-0.5
	c-0.333,0.033-0.65,0.066-0.95,0.1c1.466,3.467,1.466,6.883,0,10.25c0.3,0.033,0.616,0.066,0.95,0.1
	c0.567,0.334,1.067,0.268,1.5-0.199l0.05-0.051h-0.05c-0.167-0.266-0.45-1.3-0.85-3.1c-0.366-1.867-0.05-4.05,0.95-6.55v-0.05
	H53.353h0.05v0.05c-1,2.5-1.316,4.683-0.95,6.55c0.4,1.8,0.684,2.834,0.85,3.1h0.05l-0.05,0.051c-0.433,0.467-0.933,0.533-1.5,0.199
	c-0.333-0.033-0.65-0.066-0.95-0.1c1.466-3.367,1.466-6.783,0-10.25c0.3-0.033,0.616-0.066,0.95-0.1
	C52.569,29.985,53.086,30.152,53.353,30.753z"></path>
<path fill-rule="evenodd" clip-rule="evenodd" fill="#FFFFFF" d="M50.853,25.202c1.466-3.366,1.466-6.783,0-10.25
	C52.319,18.419,52.319,21.836,50.853,25.202z"></path>
<path fill-rule="evenodd" clip-rule="evenodd" fill="#FFFFFF" d="M53.403,30.803c1,3.333,0.983,6.55-0.05,9.649
	C54.386,37.353,54.403,34.136,53.403,30.803z"></path>
<path fill-rule="evenodd" clip-rule="evenodd" fill="#FFFFFF" d="M50.853,40.603c-1.434-0.133-2.817-0.2-4.15-0.2
	C48.036,40.402,49.419,40.47,50.853,40.603z"></path>
<path fill-rule="evenodd" clip-rule="evenodd" fill="#FFFFFF" d="M50.853,30.353c-1.367,0.1-2.75,0.15-4.15,0.15
	C48.103,30.503,49.486,30.452,50.853,30.353z"></path>
<path fill-rule="evenodd" clip-rule="evenodd" fill="#FFFFFF" d="M24.953,8.803c0-1.333,0.067-2.7,0.2-4.1
	C25.02,6.103,24.953,7.469,24.953,8.803z"></path>
<path fill-rule="evenodd" clip-rule="evenodd" fill="#FFFFFF" d="M9.003,40.353c-1.4,0-2.833,0.066-4.3,0.2
	c-0.3,0.033-0.617,0.066-0.95,0.1c-0.567,0.333-1.067,0.267-1.5-0.2l-0.05-0.05c-1.033-3.1-1.05-6.316-0.05-9.649v-0.051h0.05
	c0.267-0.6,0.784-0.766,1.55-0.5c0.333,0.033,0.65,0.066,0.95,0.101c1.434,0.1,2.867,0.149,4.3,0.149c-1.434,0-2.867-0.05-4.3-0.149
	c-0.3-0.034-0.617-0.067-0.95-0.101c-0.767-0.266-1.283-0.1-1.55,0.5h-0.05v0.051c-1,3.333-0.983,6.55,0.05,9.649l0.05,0.05
	c0.433,0.467,0.933,0.533,1.5,0.2c0.333-0.033,0.65-0.066,0.95-0.1C6.169,40.419,7.603,40.353,9.003,40.353z"></path>
<polygon fill-rule="evenodd" clip-rule="evenodd" fill="#FFFFFF" points="9.003,41.902 9.003,40.353 9.003,30.452 9.003,29.152 
	9.003,30.452 9.003,40.353 "></polygon>
<path fill-rule="evenodd" clip-rule="evenodd" fill="#FFFFFF" d="M4.703,25.152c1.467-0.134,2.9-0.2,4.3-0.2
	C7.603,24.952,6.169,25.019,4.703,25.152z"></path>
<path fill-rule="evenodd" clip-rule="evenodd" fill="#FFFFFF" d="M2.153,15.353c-1,3.334-0.983,6.55,0.05,9.65
	C1.169,21.902,1.153,18.687,2.153,15.353z"></path>
<path fill-rule="evenodd" clip-rule="evenodd" fill="#FFFFFF" d="M2.153,30.753c1,2.5,1.317,4.684,0.95,6.55
	c-0.4,1.8-0.684,2.833-0.85,3.1h-0.05h0.05c0.167-0.267,0.45-1.3,0.85-3.1C3.47,35.437,3.153,33.253,2.153,30.753z"></path>
<path fill-rule="evenodd" clip-rule="evenodd" fill="#FFFFFF" d="M4.703,40.553c-1.466-3.366-1.466-6.784,0-10.25
	C3.236,33.769,3.236,37.187,4.703,40.553z"></path>
<path fill-rule="evenodd" clip-rule="evenodd" fill="none" stroke="#383635" stroke-width="0.3" stroke-linecap="round" stroke-linejoin="round" stroke-miterlimit="3" d="
	M13.753,8.803l0.2-6.9c0.034-0.333,0.167-0.566,0.4-0.7c3.9-1.367,7.583-1.434,11.05-0.2c0.067,0,0.15,0.033,0.25,0.1
	c0.333,0.167,0.533,0.383,0.6,0.65l0.25,7.05" style="stroke: rgb(0, 0, 0);"></path>
<path fill-rule="evenodd" clip-rule="evenodd" fill="none" stroke="#383635" stroke-width="0.3" stroke-linecap="round" stroke-linejoin="round" stroke-miterlimit="3" d="
	M29.153,8.803l0.2-6.9c0.033-0.333,0.167-0.566,0.4-0.7c3.9-1.367,7.583-1.434,11.05-0.2c0.067,0,0.15,0.033,0.25,0.1
	c0.333,0.167,0.534,0.383,0.6,0.65l0.25,7.05" style="stroke: rgb(0, 0, 0);"></path>
<path fill-rule="evenodd" clip-rule="evenodd" fill="none" stroke="#383635" stroke-width="0.3" stroke-linecap="round" stroke-linejoin="round" stroke-miterlimit="3" d="
	M46.703,13.803l6.95,0.2c0.334,0.033,0.566,0.167,0.7,0.4c1.366,3.9,1.433,7.583,0.2,11.05c0,0.066-0.033,0.15-0.101,0.25
	c-0.167,0.334-0.384,0.533-0.65,0.601l-7.1,0.25" style="stroke: rgb(0, 0, 0);"></path>
<path fill-rule="evenodd" clip-rule="evenodd" fill="none" stroke="#383635" stroke-width="0.3" stroke-linecap="round" stroke-linejoin="round" stroke-miterlimit="3" d="
	M46.703,29.202l6.95,0.2c0.334,0.034,0.566,0.167,0.7,0.4c1.366,3.899,1.433,7.583,0.2,11.05c0,0.066-0.033,0.15-0.101,0.25
	c-0.167,0.334-0.384,0.533-0.65,0.6l-7.1,0.25" style="stroke: rgb(0, 0, 0);"></path>
<path fill-rule="evenodd" clip-rule="evenodd" fill="none" stroke="#383635" stroke-width="0.3" stroke-linecap="round" stroke-linejoin="round" stroke-miterlimit="3" d="
	M41.903,46.803l-0.25,6.85c-0.066,0.267-0.267,0.483-0.6,0.65c-0.1,0.066-0.183,0.1-0.25,0.1c-3.466,1.233-7.15,1.167-11.05-0.2
	c-0.233-0.133-0.367-0.366-0.4-0.699l-0.2-6.7" style="stroke: rgb(0, 0, 0);"></path>
<path fill-rule="evenodd" clip-rule="evenodd" fill="none" stroke="#383635" stroke-width="0.3" stroke-linecap="round" stroke-linejoin="round" stroke-miterlimit="3" d="
	M26.503,46.803l-0.25,6.85c-0.067,0.267-0.267,0.483-0.6,0.65c-0.1,0.066-0.183,0.1-0.25,0.1c-3.467,1.233-7.15,1.167-11.05-0.2
	c-0.233-0.133-0.367-0.366-0.4-0.699l-0.2-6.7" style="stroke: rgb(0, 0, 0);"></path>
<path fill-rule="evenodd" clip-rule="evenodd" fill="none" stroke="#383635" stroke-width="0.3" stroke-linecap="round" stroke-linejoin="round" stroke-miterlimit="3" d="
	M9.003,41.902l-7.25-0.25c-0.267-0.066-0.483-0.267-0.65-0.6c-0.067-0.101-0.1-0.184-0.1-0.25c-1.233-3.467-1.167-7.15,0.2-11.05
	c0.133-0.234,0.367-0.367,0.7-0.4l7.1-0.2" style="stroke: rgb(0, 0, 0);"></path>
<path fill-rule="evenodd" clip-rule="evenodd" fill="none" stroke="#383635" stroke-width="0.3" stroke-linecap="round" stroke-linejoin="round" stroke-miterlimit="3" d="
	M9.003,26.503l-7.25-0.25c-0.267-0.066-0.483-0.268-0.65-0.601c-0.067-0.1-0.1-0.183-0.1-0.25c-1.233-3.466-1.167-7.149,0.2-11.05
	c0.133-0.233,0.367-0.367,0.7-0.4l7.1-0.2" style="stroke: rgb(0, 0, 0);"></path>
<path fill-rule="evenodd" clip-rule="evenodd" fill="none" stroke="#383635" stroke-width="0.3" stroke-linecap="round" stroke-linejoin="round" stroke-miterlimit="3" d="
	M14.903,4.703c3.467-1.467,6.883-1.467,10.25,0c0.033-0.3,0.067-0.617,0.1-0.95c0.333-0.566,0.267-1.066-0.2-1.5l-0.05-0.05v0.05
	c-0.267,0.167-1.3,0.45-3.1,0.85c-1.867,0.367-4.05,0.05-6.55-0.95h-0.05v0.05c-0.6,0.267-0.767,0.783-0.5,1.55
	C14.836,4.086,14.87,4.402,14.903,4.703c0.1,1.367,0.15,2.733,0.15,4.1" style="stroke: rgb(0, 0, 0);"></path>
<path fill-rule="evenodd" clip-rule="evenodd" fill="none" stroke="#383635" stroke-width="0.3" stroke-linecap="round" stroke-linejoin="round" stroke-miterlimit="3" d="
	M25.003,2.203c-3.1-1.033-6.317-1.05-9.65-0.05" style="stroke: rgb(0, 0, 0);"></path>
<path fill-rule="evenodd" clip-rule="evenodd" fill="none" stroke="#383635" stroke-width="0.3" stroke-linecap="round" stroke-linejoin="round" stroke-miterlimit="3" d="
	M30.303,4.703c3.467-1.467,6.883-1.467,10.25,0c0.034-0.3,0.067-0.617,0.1-0.95c0.333-0.566,0.267-1.066-0.2-1.5l-0.05-0.05v0.05
	c-0.267,0.167-1.3,0.45-3.1,0.85c-1.867,0.367-4.05,0.05-6.55-0.95h-0.05v0.05c-0.6,0.267-0.767,0.783-0.5,1.55
	C30.236,4.086,30.27,4.402,30.303,4.703c0.1,1.367,0.15,2.733,0.15,4.1" style="stroke: rgb(0, 0, 0);"></path>
<path fill-rule="evenodd" clip-rule="evenodd" fill="none" stroke="#383635" stroke-width="0.3" stroke-linecap="round" stroke-linejoin="round" stroke-miterlimit="3" d="
	M30.753,2.152c3.333-1,6.55-0.983,9.65,0.05" style="stroke: rgb(0, 0, 0);"></path>
<path fill-rule="evenodd" clip-rule="evenodd" fill="none" stroke="#383635" stroke-width="0.3" stroke-linecap="round" stroke-linejoin="round" stroke-miterlimit="3" d="
	M46.703,15.103c1.4,0,2.784-0.05,4.15-0.15c0.3-0.033,0.616-0.067,0.95-0.1c0.767-0.267,1.284-0.1,1.55,0.5h0.05v0.05
	c1,3.333,0.983,6.55-0.05,9.65l-0.05,0.05c-0.433,0.467-0.933,0.533-1.5,0.2c-0.333-0.034-0.65-0.067-0.95-0.101
	c-1.434-0.133-2.817-0.199-4.15-0.199" style="stroke: rgb(0, 0, 0);"></path>
<path fill-rule="evenodd" clip-rule="evenodd" fill="none" stroke="#383635" stroke-width="0.3" stroke-linecap="round" stroke-linejoin="round" stroke-miterlimit="3" d="
	M24.953,46.803c0,1.267,0.067,2.566,0.2,3.899c0.033,0.301,0.067,0.617,0.1,0.95c0.333,0.567,0.267,1.067-0.2,1.5l-0.05,0.05
	c-3.1,1.033-6.317,1.051-9.65,0.051h-0.05v-0.051c-0.6-0.266-0.767-0.783-0.5-1.55c0.033-0.333,0.067-0.649,0.1-0.95
	c0.1-1.3,0.15-2.6,0.15-3.899" style="stroke: rgb(0, 0, 0);"></path>
<path fill-rule="evenodd" clip-rule="evenodd" fill="none" stroke="#383635" stroke-width="0.3" stroke-linecap="round" stroke-linejoin="round" stroke-miterlimit="3" d="
	M25.003,53.202v-0.05c-0.267-0.167-1.3-0.45-3.1-0.85c-1.867-0.366-4.05-0.05-6.55,0.95" style="stroke: rgb(0, 0, 0);"></path>
<path fill-rule="evenodd" clip-rule="evenodd" fill="none" stroke="#383635" stroke-width="0.3" stroke-linecap="round" stroke-linejoin="round" stroke-miterlimit="3" d="
	M25.153,50.702c-3.367,1.467-6.783,1.467-10.25,0" style="stroke: rgb(0, 0, 0);"></path>
<path fill-rule="evenodd" clip-rule="evenodd" fill="none" stroke="#383635" stroke-width="0.3" stroke-linecap="round" stroke-linejoin="round" stroke-miterlimit="3" d="
	M30.753,53.253c3.333,1,6.55,0.982,9.65-0.051v-0.05c-0.267-0.167-1.3-0.45-3.1-0.85C35.436,51.937,33.253,52.253,30.753,53.253
	h-0.05v-0.051c-0.6-0.266-0.767-0.783-0.5-1.55c0.034-0.333,0.067-0.649,0.1-0.95c0.1-1.3,0.15-2.6,0.15-3.899" style="stroke: rgb(0, 0, 0);"></path>
<path fill-rule="evenodd" clip-rule="evenodd" fill="none" stroke="#383635" stroke-width="0.3" stroke-linecap="round" stroke-linejoin="round" stroke-miterlimit="3" d="
	M40.353,46.803c0,1.267,0.066,2.566,0.2,3.899c0.034,0.301,0.067,0.617,0.1,0.95c0.333,0.567,0.267,1.067-0.2,1.5l-0.05,0.05" style="stroke: rgb(0, 0, 0);"></path>
<path fill-rule="evenodd" clip-rule="evenodd" fill="none" stroke="#383635" stroke-width="0.3" stroke-linecap="round" stroke-linejoin="round" stroke-miterlimit="3" d="
	M40.553,50.702c-3.367,1.467-6.783,1.467-10.25,0" style="stroke: rgb(0, 0, 0);"></path>
<path fill-rule="evenodd" clip-rule="evenodd" fill="none" stroke="#383635" stroke-width="0.3" stroke-linecap="round" stroke-linejoin="round" stroke-miterlimit="3" d="
	M53.403,15.402c-1,2.5-1.316,4.684-0.95,6.55c0.4,1.801,0.684,2.834,0.85,3.101h0.05" style="stroke: rgb(0, 0, 0);"></path>
<path fill-rule="evenodd" clip-rule="evenodd" fill="none" stroke="#383635" stroke-width="0.3" stroke-linecap="round" stroke-linejoin="round" stroke-miterlimit="3" d="
	M53.353,30.753c-0.267-0.601-0.784-0.768-1.55-0.5c-0.333,0.033-0.65,0.066-0.95,0.1c1.466,3.467,1.466,6.883,0,10.25
	c0.3,0.033,0.616,0.066,0.95,0.1c0.567,0.334,1.067,0.268,1.5-0.199l0.05-0.051h-0.05c-0.167-0.266-0.45-1.3-0.85-3.1
	c-0.366-1.867-0.05-4.05,0.95-6.55v-0.05H53.353z" style="stroke: rgb(0, 0, 0);"></path>
<path fill-rule="evenodd" clip-rule="evenodd" fill="none" stroke="#383635" stroke-width="0.3" stroke-linecap="round" stroke-linejoin="round" stroke-miterlimit="3" d="
	M50.853,25.202c1.466-3.366,1.466-6.783,0-10.25" style="stroke: rgb(0, 0, 0);"></path>
<path fill-rule="evenodd" clip-rule="evenodd" fill="none" stroke="#383635" stroke-width="0.3" stroke-linecap="round" stroke-linejoin="round" stroke-miterlimit="3" d="
	M53.403,30.803c1,3.333,0.983,6.55-0.05,9.649" style="stroke: rgb(0, 0, 0);"></path>
<path fill-rule="evenodd" clip-rule="evenodd" fill="none" stroke="#383635" stroke-width="0.3" stroke-linecap="round" stroke-linejoin="round" stroke-miterlimit="3" d="
	M40.553,4.703c-0.133,1.4-0.2,2.767-0.2,4.1" style="stroke: rgb(0, 0, 0);"></path>
<path fill-rule="evenodd" clip-rule="evenodd" fill="none" stroke="#383635" stroke-width="0.3" stroke-linecap="round" stroke-linejoin="round" stroke-miterlimit="3" d="
	M50.853,40.603c-1.434-0.133-2.817-0.2-4.15-0.2" style="stroke: rgb(0, 0, 0);"></path>
<path fill-rule="evenodd" clip-rule="evenodd" fill="none" stroke="#383635" stroke-width="0.3" stroke-linecap="round" stroke-linejoin="round" stroke-miterlimit="3" d="
	M50.853,30.353c-1.367,0.1-2.75,0.15-4.15,0.15" style="stroke: rgb(0, 0, 0);"></path>
<path fill-rule="evenodd" clip-rule="evenodd" fill="none" stroke="#383635" stroke-width="0.3" stroke-linecap="round" stroke-linejoin="round" stroke-miterlimit="3" d="
	M24.953,8.803c0-1.333,0.067-2.7,0.2-4.1" style="stroke: rgb(0, 0, 0);"></path>
<path fill-rule="evenodd" clip-rule="evenodd" fill="none" stroke="#383635" stroke-width="0.3" stroke-linecap="round" stroke-linejoin="round" stroke-miterlimit="3" d="
	M2.153,15.303v0.05c1,2.5,1.317,4.684,0.95,6.55c-0.4,1.8-0.684,2.833-0.85,3.101h-0.05l0.05,0.05c0.433,0.466,0.933,0.533,1.5,0.2
	c0.333-0.033,0.65-0.066,0.95-0.101c-1.466-3.366-1.466-6.783,0-10.25c-0.3-0.033-0.617-0.066-0.95-0.1
	c-0.767-0.267-1.283-0.1-1.55,0.5H2.153z" style="stroke: rgb(0, 0, 0);"></path>
<path fill-rule="evenodd" clip-rule="evenodd" fill="none" stroke="#383635" stroke-width="0.3" stroke-linecap="round" stroke-linejoin="round" stroke-miterlimit="3" d="
	M4.703,14.902c1.434,0.1,2.867,0.15,4.3,0.15" style="stroke: rgb(0, 0, 0);"></path>
<path fill-rule="evenodd" clip-rule="evenodd" fill="none" stroke="#383635" stroke-width="0.3" stroke-linecap="round" stroke-linejoin="round" stroke-miterlimit="3" d="
	M9.003,40.353c-1.4,0-2.833,0.066-4.3,0.2c-0.3,0.033-0.617,0.066-0.95,0.1c-0.567,0.333-1.067,0.267-1.5-0.2l-0.05-0.05
	c-1.033-3.1-1.05-6.316-0.05-9.649v-0.051h0.05c0.267-0.6,0.784-0.766,1.55-0.5c0.333,0.033,0.65,0.066,0.95,0.101
	c1.434,0.1,2.867,0.149,4.3,0.149" style="stroke: rgb(0, 0, 0);"></path>
<path fill-rule="evenodd" clip-rule="evenodd" fill="none" stroke="#383635" stroke-width="0.3" stroke-linecap="round" stroke-linejoin="round" stroke-miterlimit="3" d="
	M4.703,25.152c1.467-0.134,2.9-0.2,4.3-0.2" style="stroke: rgb(0, 0, 0);"></path>
<path fill-rule="evenodd" clip-rule="evenodd" fill="none" stroke="#383635" stroke-width="0.3" stroke-linecap="round" stroke-linejoin="round" stroke-miterlimit="3" d="
	M2.153,15.353c-1,3.334-0.983,6.55,0.05,9.65" style="stroke: rgb(0, 0, 0);"></path>
<path fill-rule="evenodd" clip-rule="evenodd" fill="none" stroke="#383635" stroke-width="0.3" stroke-linecap="round" stroke-linejoin="round" stroke-miterlimit="3" d="
	M2.153,30.753c1,2.5,1.317,4.684,0.95,6.55c-0.4,1.8-0.684,2.833-0.85,3.1h-0.05" style="stroke: rgb(0, 0, 0);"></path>
<path fill-rule="evenodd" clip-rule="evenodd" fill="none" stroke="#383635" stroke-width="0.3" stroke-linecap="round" stroke-linejoin="round" stroke-miterlimit="3" d="
	M4.703,40.553c-1.466-3.366-1.466-6.784,0-10.25" style="stroke: rgb(0, 0, 0);"></path>
<line fill-rule="evenodd" clip-rule="evenodd" fill="none" stroke="#383635" stroke-width="0.3" x1="26.503" y1="8.803" x2="29.153" y2="8.803" style="stroke: rgb(0, 0, 0);"></line>
<polyline fill-rule="evenodd" clip-rule="evenodd" fill="none" stroke="#383635" stroke-width="0.3" points="41.903,8.803 
	46.703,8.803 46.703,13.803 46.703,15.103 " style="stroke: rgb(0, 0, 0);"></polyline>
<line fill-rule="evenodd" clip-rule="evenodd" fill="none" stroke="#383635" stroke-width="0.3" x1="46.703" y1="26.553" x2="46.703" y2="29.202" style="stroke: rgb(0, 0, 0);"></line>
<polyline fill-rule="evenodd" clip-rule="evenodd" fill="none" stroke="#383635" stroke-width="0.3" points="46.703,41.952 
	46.703,46.803 41.903,46.803 40.353,46.803 30.453,46.803 29.153,46.803 26.503,46.803 " style="stroke: rgb(0, 0, 0);"></polyline>
<polyline fill-rule="evenodd" clip-rule="evenodd" fill="none" stroke="#383635" stroke-width="0.3" points="13.753,46.803 
	9.003,46.803 9.003,41.902 9.003,40.353 9.003,30.452 9.003,29.152 9.003,26.503 " style="stroke: rgb(0, 0, 0);"></polyline>
<polyline fill-rule="evenodd" clip-rule="evenodd" fill="none" stroke="#383635" stroke-width="0.3" points="9.003,13.752 
	9.003,8.803 13.753,8.803 " style="stroke: rgb(0, 0, 0);"></polyline>
<line fill-rule="evenodd" clip-rule="evenodd" fill="none" stroke="#383635" stroke-width="0.3" x1="40.353" y1="8.803" x2="41.903" y2="8.803" style="stroke: rgb(0, 0, 0);"></line>
<line fill-rule="evenodd" clip-rule="evenodd" fill="none" stroke="#383635" stroke-width="0.3" x1="46.703" y1="25.003" x2="46.703" y2="26.553" style="stroke: rgb(0, 0, 0);"></line>
<polyline fill-rule="evenodd" clip-rule="evenodd" fill="none" stroke="#383635" stroke-width="0.3" points="46.703,41.952 
	46.703,40.402 46.703,30.503 46.703,29.202 " style="stroke: rgb(0, 0, 0);"></polyline>
<polyline fill-rule="evenodd" clip-rule="evenodd" fill="none" stroke="#383635" stroke-width="0.3" points="40.353,8.803 
	30.453,8.803 29.153,8.803 " style="stroke: rgb(0, 0, 0);"></polyline>
<line fill-rule="evenodd" clip-rule="evenodd" fill="none" stroke="#383635" stroke-width="0.3" x1="46.703" y1="25.003" x2="46.703" y2="15.103" style="stroke: rgb(0, 0, 0);"></line>
<polyline fill-rule="evenodd" clip-rule="evenodd" fill="none" stroke="#383635" stroke-width="0.3" points="26.503,8.803 
	24.953,8.803 15.053,8.803 13.753,8.803 " style="stroke: rgb(0, 0, 0);"></polyline>
<line fill-rule="evenodd" clip-rule="evenodd" fill="none" stroke="#383635" stroke-width="0.3" x1="15.053" y1="46.803" x2="13.753" y2="46.803" style="stroke: rgb(0, 0, 0);"></line>
<polyline fill-rule="evenodd" clip-rule="evenodd" fill="none" stroke="#383635" stroke-width="0.3" points="15.053,46.803 
	24.953,46.803 26.503,46.803 " style="stroke: rgb(0, 0, 0);"></polyline>
<line fill-rule="evenodd" clip-rule="evenodd" fill="none" stroke="#383635" stroke-width="0.3" x1="9.003" y1="15.053" x2="9.003" y2="13.752" style="stroke: rgb(0, 0, 0);"></line>
<polyline fill-rule="evenodd" clip-rule="evenodd" fill="none" stroke="#383635" stroke-width="0.3" points="9.003,15.053 
	9.003,24.952 9.003,26.503 " style="stroke: rgb(0, 0, 0);"></polyline>
</svg>