<svg version="1.1" id="Layer_1" xmlns="http://www.w3.org/2000/svg" xmlns:xlink="http://www.w3.org/1999/xlink" x="0px" y="0px" width="69.956px" height="40.205px" viewBox="0 0 69.956 40.205" enable-background="new 0 0 69.956 40.205" xml:space="preserve" class="ng-scope">
<path fill-rule="evenodd" clip-rule="evenodd" fill="#FFFFFF" d="M12.603,2.152v0.05c-0.6,0.267-0.767,0.783-0.5,1.55
	c0.033,0.333,0.066,0.65,0.1,0.95c3.466-1.467,6.883-1.467,10.25,0c0.033-0.3,0.066-0.617,0.1-0.95c0.333-0.566,0.267-1.066-0.2-1.5
	l-0.05-0.05v0.05c-0.267,0.167-1.3,0.45-3.1,0.85c-1.867,0.367-4.05,0.05-6.55-0.95H12.603h0.05c2.5,1,4.684,1.317,6.55,0.95
	c1.8-0.4,2.833-0.683,3.1-0.85v-0.05l0.05,0.05c0.467,0.434,0.533,0.934,0.2,1.5c-0.033,0.333-0.066,0.65-0.1,0.95
	c-3.367-1.467-6.784-1.467-10.25,0c-0.034-0.3-0.067-0.617-0.1-0.95c-0.267-0.767-0.1-1.283,0.5-1.55V2.152z"></path>
<path fill-rule="evenodd" clip-rule="evenodd" fill="#FFFFFF" d="M2.953,14.053l4.6-0.15V8.003h3.5l0.2-6.101
	c0.033-0.333,0.167-0.566,0.4-0.7c3.9-1.367,7.583-1.434,11.05-0.2c0.066,0,0.15,0.033,0.25,0.1c0.333,0.167,0.533,0.383,0.6,0.65
	l0.25,6.25h4.6l0.2-6.101c0.033-0.333,0.167-0.566,0.4-0.7c3.9-1.367,7.583-1.434,11.05-0.2c0.067,0,0.15,0.033,0.25,0.1
	c0.333,0.167,0.534,0.383,0.6,0.65l0.25,6.25h4.9l0.2-6.101c0.033-0.333,0.167-0.566,0.4-0.7c3.9-1.367,7.583-1.434,11.05-0.2
	c0.066,0,0.15,0.033,0.25,0.1c0.333,0.167,0.533,0.383,0.6,0.65l0.25,6.25h3.601v5.899l5.8,0.2c0.267,0.066,0.483,0.267,0.649,0.6
	c0.066,0.101,0.101,0.184,0.101,0.25c1.233,3.467,1.167,7.15-0.2,11.051c-0.133,0.232-0.367,0.366-0.7,0.399l-5.649,0.2v5.95h-3.65
	l-0.2,5.899c-0.066,0.268-0.267,0.484-0.6,0.65c-0.1,0.066-0.184,0.1-0.25,0.1c-3.467,1.234-7.15,1.167-11.05-0.199
	c-0.233-0.134-0.367-0.367-0.4-0.7l-0.15-5.75h-5l-0.2,5.899c-0.066,0.268-0.267,0.484-0.6,0.65c-0.1,0.066-0.183,0.1-0.25,0.1
	c-3.466,1.234-7.15,1.167-11.05-0.199c-0.233-0.134-0.367-0.367-0.4-0.7l-0.15-5.75h-4.7l-0.2,5.899
	c-0.066,0.268-0.267,0.484-0.6,0.65c-0.1,0.066-0.184,0.1-0.25,0.1c-3.467,1.234-7.15,1.167-11.05-0.199
	c-0.233-0.134-0.367-0.367-0.4-0.7l-0.15-5.75h-3.55v-5.95l-4.4-0.15l-1.25-0.05c-0.333-0.033-0.566-0.167-0.7-0.399
	c-1.367-3.9-1.434-7.584-0.2-11.051c0-0.066,0.033-0.149,0.1-0.25c0.167-0.333,0.383-0.533,0.65-0.6L2.953,14.053z"></path>
<path fill-rule="evenodd" clip-rule="evenodd" fill="#FFFFFF" d="M12.203,4.703c0.066,1.1,0.117,2.2,0.15,3.3
	C12.319,6.902,12.269,5.803,12.203,4.703z"></path>
<polygon fill-rule="evenodd" clip-rule="evenodd" fill="#FFFFFF" points="12.353,8.003 11.052,8.003 12.353,8.003 22.252,8.003 "></polygon>
<path fill-rule="evenodd" clip-rule="evenodd" fill="#FFFFFF" d="M22.252,8.003c0.033-1.067,0.1-2.167,0.2-3.3
	C22.353,5.836,22.286,6.936,22.252,8.003h1.55H22.252z"></path>
<path fill-rule="evenodd" clip-rule="evenodd" fill="#FFFFFF" d="M2.302,15.402c-1.1,3.067-1.15,6.267-0.15,9.601
	c1-2.5,1.317-4.684,0.95-6.551C2.736,16.819,2.469,15.803,2.302,15.402c-0.033-0.033-0.05-0.066-0.05-0.1
	C2.252,15.336,2.269,15.369,2.302,15.402c0.167,0.4,0.434,1.417,0.8,3.05c0.367,1.867,0.05,4.051-0.95,6.551
	C1.152,21.669,1.203,18.47,2.302,15.402z"></path>
<path fill-rule="evenodd" clip-rule="evenodd" fill="#FFFFFF" d="M2.252,15.303c0.433-0.467,0.933-0.534,1.5-0.2
	c0.333,0.033,0.65,0.066,0.95,0.1c0.966,0.101,1.917,0.167,2.85,0.2v-1.5v1.5c-0.933-0.033-1.883-0.1-2.85-0.2
	c-0.3-0.033-0.617-0.066-0.95-0.1C3.186,14.769,2.686,14.836,2.252,15.303z"></path>
<polygon fill-rule="evenodd" clip-rule="evenodd" fill="#FFFFFF" points="7.552,15.402 7.552,25.353 7.552,26.603 7.552,25.353 "></polygon>
<polygon fill-rule="evenodd" clip-rule="evenodd" fill="#FFFFFF" points="11.103,32.553 12.353,32.553 22.302,32.553 23.752,32.553 
	22.302,32.553 12.353,32.553 "></polygon>
<path fill-rule="evenodd" clip-rule="evenodd" fill="#FFFFFF" d="M7.552,25.353c-0.966,0-1.917,0.033-2.85,0.1
	c-0.3,0.033-0.617,0.066-0.95,0.101c-0.767,0.267-1.3,0.116-1.6-0.45c0.3,0.566,0.833,0.717,1.6,0.45
	c0.333-0.034,0.65-0.067,0.95-0.101C5.636,25.386,6.586,25.353,7.552,25.353z"></path>
<path fill-rule="evenodd" clip-rule="evenodd" fill="#FFFFFF" d="M2.152,25.103v-0.1V25.103z"></path>
<path fill-rule="evenodd" clip-rule="evenodd" fill="#FFFFFF" d="M12.603,38.053h0.05c2.5-1,4.684-1.317,6.55-0.95
	c1.8,0.4,2.833,0.684,3.1,0.85v0.051l0.05-0.051c0.467-0.434,0.533-0.934,0.2-1.5c-0.033-0.333-0.066-0.649-0.1-0.949
	c-3.367,1.467-6.784,1.467-10.25,0c-0.034,0.3-0.067,0.616-0.1,0.949C11.836,37.22,12.002,37.753,12.603,38.053
	c-0.6-0.3-0.767-0.833-0.5-1.601c0.033-0.333,0.066-0.649,0.1-0.949c3.466,1.467,6.883,1.467,10.25,0
	c0.033,0.3,0.066,0.616,0.1,0.949c0.333,0.566,0.267,1.066-0.2,1.5l-0.05,0.051v-0.051c-0.267-0.166-1.3-0.449-3.1-0.85
	c-1.867-0.367-4.05-0.05-6.55,0.95H12.603z"></path>
<path fill-rule="evenodd" clip-rule="evenodd" fill="#FFFFFF" d="M12.203,35.503c0.066-0.967,0.117-1.95,0.15-2.95
	C12.319,33.553,12.269,34.536,12.203,35.503z"></path>
<path fill-rule="evenodd" clip-rule="evenodd" fill="#FFFFFF" d="M4.703,15.202c-1.467,3.367-1.467,6.783,0,10.25
	C3.236,21.985,3.236,18.569,4.703,15.202z"></path>
<path fill-rule="evenodd" clip-rule="evenodd" fill="#FFFFFF" d="M62.403,13.902v1.5V13.902z"></path>
<path fill-rule="evenodd" clip-rule="evenodd" fill="#FFFFFF" d="M62.403,15.402v9.95v1.25v-1.25c0.967,0,1.916,0.033,2.85,0.1
	c0.3,0.033,0.617,0.066,0.95,0.101c0.767,0.267,1.3,0.116,1.6-0.45v-0.1c1-3.334,1.034-6.5,0.101-9.5c0.934,3,0.899,6.166-0.101,9.5
	v0.1c-0.3,0.566-0.833,0.717-1.6,0.45c-0.333-0.034-0.65-0.067-0.95-0.101c-0.934-0.066-1.883-0.1-2.85-0.1V15.402
	c0.934-0.033,1.883-0.1,2.85-0.2c0.3-0.033,0.617-0.066,0.95-0.1c0.566-0.334,1.066-0.267,1.5,0.2c-0.434-0.467-0.934-0.534-1.5-0.2
	c-0.333,0.033-0.65,0.066-0.95,0.1C64.286,15.303,63.336,15.369,62.403,15.402z"></path>
<path fill-rule="evenodd" clip-rule="evenodd" fill="#FFFFFF" d="M67.703,15.303v0.05l0.2,0.15c-0.033-0.066-0.084-0.117-0.15-0.15
	v-0.05H67.703z"></path>
<path fill-rule="evenodd" clip-rule="evenodd" fill="#FFFFFF" d="M67.703,15.353c-0.167,0.267-0.45,1.3-0.851,3.1
	c-0.366,1.867-0.05,4.051,0.95,6.551c-1-2.5-1.316-4.684-0.95-6.551C67.252,16.652,67.536,15.619,67.703,15.353z"></path>
<path fill-rule="evenodd" clip-rule="evenodd" fill="#FFFFFF" d="M65.252,25.452c1.467-3.467,1.467-6.883,0-10.25
	C66.719,18.569,66.719,21.985,65.252,25.452z"></path>
<path fill-rule="evenodd" clip-rule="evenodd" fill="#FFFFFF" d="M57.302,2.203c-3.1-1.033-6.316-1.05-9.65-0.05
	c2.5,1,4.684,1.317,6.55,0.95c1.8-0.4,2.833-0.683,3.1-0.85V2.203l0.05,0.05c0.466,0.434,0.533,0.934,0.2,1.5
	c-0.033,0.333-0.066,0.65-0.1,0.95c-0.1,1.133-0.167,2.233-0.2,3.3c0.033-1.067,0.1-2.167,0.2-3.3c0.033-0.3,0.066-0.617,0.1-0.95
	c0.333-0.566,0.267-1.066-0.2-1.5L57.302,2.203v0.05c-0.267,0.167-1.3,0.45-3.1,0.85c-1.867,0.367-4.05,0.05-6.55-0.95
	C50.986,1.152,54.203,1.169,57.302,2.203z"></path>
<path fill-rule="evenodd" clip-rule="evenodd" fill="#FFFFFF" d="M29.703,8.003h9.9h1.55h-1.55c0.033-1.067,0.1-2.167,0.2-3.3
	c-0.1,1.133-0.167,2.233-0.2,3.3H29.703h-1.3H29.703c-0.034-1.101-0.083-2.2-0.15-3.3C29.619,5.803,29.669,6.902,29.703,8.003z"></path>
<polygon fill-rule="evenodd" clip-rule="evenodd" fill="#FFFFFF" points="46.052,8.003 47.353,8.003 57.252,8.003 58.802,8.003 
	57.252,8.003 47.353,8.003 "></polygon>
<path fill-rule="evenodd" clip-rule="evenodd" fill="#FFFFFF" d="M39.652,2.252v-0.05l0.05,0.05c0.466,0.434,0.533,0.934,0.2,1.5
	c-0.033,0.333-0.066,0.65-0.1,0.95c-3.367-1.467-6.783-1.467-10.25,0c-0.033-0.3-0.066-0.617-0.1-0.95
	c-0.267-0.767-0.1-1.283,0.5-1.55v-0.05h0.05c2.5,1,4.683,1.317,6.55,0.95C38.353,2.703,39.386,2.419,39.652,2.252
	c-0.267,0.167-1.3,0.45-3.1,0.85c-1.867,0.367-4.05,0.05-6.55-0.95h-0.05v0.05c-0.6,0.267-0.767,0.783-0.5,1.55
	c0.033,0.333,0.066,0.65,0.1,0.95c3.467-1.467,6.883-1.467,10.25,0c0.034-0.3,0.067-0.617,0.1-0.95c0.333-0.566,0.267-1.066-0.2-1.5
	l-0.05-0.05V2.252z"></path>
<path fill-rule="evenodd" clip-rule="evenodd" fill="#FFFFFF" d="M47.652,2.152h-0.05v0.05c-0.6,0.267-0.767,0.783-0.5,1.55
	c0.033,0.333,0.066,0.65,0.1,0.95c0.066,1.1,0.116,2.2,0.15,3.3c-0.034-1.101-0.083-2.2-0.15-3.3c-0.034-0.3-0.067-0.617-0.1-0.95
	c-0.267-0.767-0.1-1.283,0.5-1.55v-0.05H47.652z"></path>
<path fill-rule="evenodd" clip-rule="evenodd" fill="#FFFFFF" d="M57.453,4.703c-3.367-1.467-6.784-1.467-10.25,0
	C50.669,3.236,54.086,3.236,57.453,4.703z"></path>
<polygon fill-rule="evenodd" clip-rule="evenodd" fill="#FFFFFF" points="28.453,32.553 29.703,32.553 39.652,32.553 41.103,32.553 
	39.652,32.553 29.703,32.553 "></polygon>
<path fill-rule="evenodd" clip-rule="evenodd" fill="#FFFFFF" d="M30.002,38.053c3.333,1,6.55,0.983,9.65-0.05v-0.051
	c-0.267-0.166-1.3-0.449-3.1-0.85C34.686,36.735,32.502,37.053,30.002,38.053h-0.05c-0.6-0.3-0.767-0.833-0.5-1.601
	c0.033-0.333,0.066-0.649,0.1-0.949c0.067-0.967,0.117-1.95,0.15-2.95c-0.034,1-0.083,1.983-0.15,2.95
	c-0.033,0.3-0.066,0.616-0.1,0.949c-0.267,0.768-0.1,1.301,0.5,1.601H30.002c2.5-1,4.683-1.317,6.55-0.95
	c1.8,0.4,2.833,0.684,3.1,0.85v0.051C36.552,39.036,33.336,39.053,30.002,38.053z"></path>
<path fill-rule="evenodd" clip-rule="evenodd" fill="#FFFFFF" d="M22.302,32.553c0,0.966,0.05,1.95,0.15,2.95
	C22.353,34.503,22.302,33.519,22.302,32.553z"></path>
<path fill-rule="evenodd" clip-rule="evenodd" fill="#FFFFFF" d="M47.353,32.553h9.95h1.45h-1.45H47.353h-1.25H47.353
	c-0.034,1-0.083,1.983-0.15,2.95c-0.034,0.3-0.067,0.616-0.1,0.949c-0.267,0.768-0.1,1.301,0.5,1.601h0.05
	c3.333,1,6.55,0.983,9.65-0.05l0.05-0.051c0.466-0.434,0.533-0.934,0.2-1.5c-0.033-0.333-0.066-0.649-0.1-0.949
	c-0.1-1-0.15-1.984-0.15-2.95c0,0.966,0.05,1.95,0.15,2.95c0.033,0.3,0.066,0.616,0.1,0.949c0.333,0.566,0.267,1.066-0.2,1.5
	l-0.05,0.051c-3.1,1.033-6.316,1.05-9.65,0.05h-0.05c-0.6-0.3-0.767-0.833-0.5-1.601c0.033-0.333,0.066-0.649,0.1-0.949
	C47.269,34.536,47.319,33.553,47.353,32.553z"></path>
<path fill-rule="evenodd" clip-rule="evenodd" fill="#FFFFFF" d="M39.652,32.553c0,0.966,0.05,1.95,0.15,2.95
	c0.034,0.3,0.067,0.616,0.1,0.949c0.333,0.566,0.267,1.066-0.2,1.5l-0.05,0.051l0.05-0.051c0.466-0.434,0.533-0.934,0.2-1.5
	c-0.033-0.333-0.066-0.649-0.1-0.949C39.703,34.503,39.652,33.519,39.652,32.553z"></path>
<path fill-rule="evenodd" clip-rule="evenodd" fill="#FFFFFF" d="M47.652,38.053c2.5-1,4.684-1.317,6.55-0.95
	c1.8,0.4,2.833,0.684,3.1,0.85v0.051v-0.051c-0.267-0.166-1.3-0.449-3.1-0.85C52.336,36.735,50.152,37.053,47.652,38.053z"></path>
<path fill-rule="evenodd" clip-rule="evenodd" fill="#FFFFFF" d="M57.453,35.503c-3.367,1.467-6.784,1.467-10.25,0
	C50.669,36.97,54.086,36.97,57.453,35.503z"></path>
<path fill-rule="evenodd" clip-rule="evenodd" fill="#FFFFFF" d="M39.802,35.503c-3.367,1.467-6.783,1.467-10.25,0
	C33.019,36.97,36.436,36.97,39.802,35.503z"></path>
<path fill-rule="evenodd" clip-rule="evenodd" fill="#FFFFFF" d="M30.002,2.152c3.333-1,6.55-0.983,9.65,0.05
	C36.552,1.169,33.336,1.152,30.002,2.152z"></path>
<path fill-rule="evenodd" clip-rule="evenodd" fill="#FFFFFF" d="M22.302,2.203c-3.1-1.033-6.316-1.05-9.65-0.05
	C15.986,1.152,19.203,1.169,22.302,2.203z"></path>
<path fill-rule="evenodd" clip-rule="evenodd" fill="#FFFFFF" d="M22.302,38.003c-3.1,1.033-6.316,1.05-9.65,0.05
	C15.986,39.053,19.203,39.036,22.302,38.003z"></path>
<path fill-rule="evenodd" clip-rule="evenodd" fill="none" stroke="#383635" stroke-width="0.3" stroke-linecap="round" stroke-linejoin="round" stroke-miterlimit="3" d="
	M12.603,2.152v0.05c-0.6,0.267-0.767,0.783-0.5,1.55c0.033,0.333,0.066,0.65,0.1,0.95c3.466-1.467,6.883-1.467,10.25,0
	c0.033-0.3,0.066-0.617,0.1-0.95c0.333-0.566,0.267-1.066-0.2-1.5l-0.05-0.05v0.05c-0.267,0.167-1.3,0.45-3.1,0.85
	c-1.867,0.367-4.05,0.05-6.55-0.95H12.603z" style="stroke: rgb(0, 0, 0);"></path>
<path fill-rule="evenodd" clip-rule="evenodd" fill="none" stroke="#383635" stroke-width="0.3" stroke-linecap="round" stroke-linejoin="round" stroke-miterlimit="3" d="
	M11.052,8.003l0.2-6.101c0.033-0.333,0.167-0.566,0.4-0.7c3.9-1.367,7.583-1.434,11.05-0.2c0.066,0,0.15,0.033,0.25,0.1
	c0.333,0.167,0.533,0.383,0.6,0.65l0.25,6.25" style="stroke: rgb(0, 0, 0);"></path>
<path fill-rule="evenodd" clip-rule="evenodd" fill="none" stroke="#383635" stroke-width="0.3" stroke-linecap="round" stroke-linejoin="round" stroke-miterlimit="3" d="
	M28.402,8.003l0.2-6.101c0.033-0.333,0.167-0.566,0.4-0.7c3.9-1.367,7.583-1.434,11.05-0.2c0.067,0,0.15,0.033,0.25,0.1
	c0.333,0.167,0.534,0.383,0.6,0.65l0.25,6.25" style="stroke: rgb(0, 0, 0);"></path>
<path fill-rule="evenodd" clip-rule="evenodd" fill="none" stroke="#383635" stroke-width="0.3" stroke-linecap="round" stroke-linejoin="round" stroke-miterlimit="3" d="
	M46.052,8.003l0.2-6.101c0.033-0.333,0.167-0.566,0.4-0.7c3.9-1.367,7.583-1.434,11.05-0.2c0.066,0,0.15,0.033,0.25,0.1
	c0.333,0.167,0.533,0.383,0.6,0.65l0.25,6.25" style="stroke: rgb(0, 0, 0);"></path>
<path fill-rule="evenodd" clip-rule="evenodd" fill="none" stroke="#383635" stroke-width="0.3" stroke-linecap="round" stroke-linejoin="round" stroke-miterlimit="3" d="
	M62.403,13.902l5.8,0.2c0.267,0.066,0.483,0.267,0.649,0.6c0.066,0.101,0.101,0.184,0.101,0.25c1.233,3.467,1.167,7.15-0.2,11.051
	c-0.133,0.232-0.367,0.366-0.7,0.399l-5.649,0.2" style="stroke: rgb(0, 0, 0);"></path>
<path fill-rule="evenodd" clip-rule="evenodd" fill="none" stroke="#383635" stroke-width="0.3" stroke-linecap="round" stroke-linejoin="round" stroke-miterlimit="3" d="
	M58.752,32.553l-0.2,5.899c-0.066,0.268-0.267,0.484-0.6,0.65c-0.1,0.066-0.184,0.1-0.25,0.1c-3.467,1.234-7.15,1.167-11.05-0.199
	c-0.233-0.134-0.367-0.367-0.4-0.7l-0.15-5.75" style="stroke: rgb(0, 0, 0);"></path>
<path fill-rule="evenodd" clip-rule="evenodd" fill="none" stroke="#383635" stroke-width="0.3" stroke-linecap="round" stroke-linejoin="round" stroke-miterlimit="3" d="
	M41.103,32.553l-0.2,5.899c-0.066,0.268-0.267,0.484-0.6,0.65c-0.1,0.066-0.183,0.1-0.25,0.1c-3.466,1.234-7.15,1.167-11.05-0.199
	c-0.233-0.134-0.367-0.367-0.4-0.7l-0.15-5.75" style="stroke: rgb(0, 0, 0);"></path>
<path fill-rule="evenodd" clip-rule="evenodd" fill="none" stroke="#383635" stroke-width="0.3" stroke-linecap="round" stroke-linejoin="round" stroke-miterlimit="3" d="
	M23.752,32.553l-0.2,5.899c-0.066,0.268-0.267,0.484-0.6,0.65c-0.1,0.066-0.184,0.1-0.25,0.1c-3.467,1.234-7.15,1.167-11.05-0.199
	c-0.233-0.134-0.367-0.367-0.4-0.7l-0.15-5.75" style="stroke: rgb(0, 0, 0);"></path>
<path fill-rule="evenodd" clip-rule="evenodd" fill="none" stroke="#383635" stroke-width="0.3" stroke-linecap="round" stroke-linejoin="round" stroke-miterlimit="3" d="
	M3.152,26.452l-1.25-0.05c-0.333-0.033-0.566-0.167-0.7-0.399c-1.367-3.9-1.434-7.584-0.2-11.051c0-0.066,0.033-0.149,0.1-0.25
	c0.167-0.333,0.383-0.533,0.65-0.6l1.2-0.05" style="stroke: rgb(0, 0, 0);"></path>
<path fill-rule="evenodd" clip-rule="evenodd" fill="none" stroke="#383635" stroke-width="0.3" stroke-linecap="round" stroke-linejoin="round" stroke-miterlimit="3" d="
	M12.203,4.703c0.066,1.1,0.117,2.2,0.15,3.3" style="stroke: rgb(0, 0, 0);"></path>
<path fill-rule="evenodd" clip-rule="evenodd" fill="none" stroke="#383635" stroke-width="0.3" stroke-linecap="round" stroke-linejoin="round" stroke-miterlimit="3" d="
	M22.252,8.003c0.033-1.067,0.1-2.167,0.2-3.3" style="stroke: rgb(0, 0, 0);"></path>
<path fill-rule="evenodd" clip-rule="evenodd" fill="none" stroke="#383635" stroke-width="0.3" stroke-linecap="round" stroke-linejoin="round" stroke-miterlimit="3" d="
	M2.302,15.402c-1.1,3.067-1.15,6.267-0.15,9.601c1-2.5,1.317-4.684,0.95-6.551C2.736,16.819,2.469,15.803,2.302,15.402
	c-0.033-0.033-0.05-0.066-0.05-0.1" style="stroke: rgb(0, 0, 0);"></path>
<line fill-rule="evenodd" clip-rule="evenodd" fill="none" stroke="#383635" stroke-width="0.3" stroke-linecap="round" stroke-linejoin="round" stroke-miterlimit="3" x1="2.152" y1="25.103" x2="2.152" y2="25.003" style="stroke: rgb(0, 0, 0);"></line>
<path fill-rule="evenodd" clip-rule="evenodd" fill="none" stroke="#383635" stroke-width="0.3" stroke-linecap="round" stroke-linejoin="round" stroke-miterlimit="3" d="
	M12.603,38.053h0.05c2.5-1,4.684-1.317,6.55-0.95c1.8,0.4,2.833,0.684,3.1,0.85v0.051l0.05-0.051c0.467-0.434,0.533-0.934,0.2-1.5
	c-0.033-0.333-0.066-0.649-0.1-0.949c-3.367,1.467-6.784,1.467-10.25,0c-0.034,0.3-0.067,0.616-0.1,0.949
	C11.836,37.22,12.002,37.753,12.603,38.053z" style="stroke: rgb(0, 0, 0);"></path>
<path fill-rule="evenodd" clip-rule="evenodd" fill="none" stroke="#383635" stroke-width="0.3" stroke-linecap="round" stroke-linejoin="round" stroke-miterlimit="3" d="
	M12.203,35.503c0.066-0.967,0.117-1.95,0.15-2.95" style="stroke: rgb(0, 0, 0);"></path>
<path fill-rule="evenodd" clip-rule="evenodd" fill="none" stroke="#383635" stroke-width="0.3" stroke-linecap="round" stroke-linejoin="round" stroke-miterlimit="3" d="
	M4.703,15.202c-1.467,3.367-1.467,6.783,0,10.25" style="stroke: rgb(0, 0, 0);"></path>
<path fill-rule="evenodd" clip-rule="evenodd" fill="none" stroke="#383635" stroke-width="0.3" stroke-linecap="round" stroke-linejoin="round" stroke-miterlimit="3" d="
	M62.403,15.402c0.934-0.033,1.883-0.1,2.85-0.2c0.3-0.033,0.617-0.066,0.95-0.1c0.566-0.334,1.066-0.267,1.5,0.2" style="stroke: rgb(0, 0, 0);"></path>
<path fill-rule="evenodd" clip-rule="evenodd" fill="none" stroke="#383635" stroke-width="0.3" stroke-linecap="round" stroke-linejoin="round" stroke-miterlimit="3" d="
	M67.903,15.503c0.934,3,0.899,6.166-0.101,9.5v0.1c-0.3,0.566-0.833,0.717-1.6,0.45c-0.333-0.034-0.65-0.067-0.95-0.101
	c-0.934-0.066-1.883-0.1-2.85-0.1" style="stroke: rgb(0, 0, 0);"></path>
<path fill-rule="evenodd" clip-rule="evenodd" fill="none" stroke="#383635" stroke-width="0.3" stroke-linecap="round" stroke-linejoin="round" stroke-miterlimit="3" d="
	M67.703,15.353c-0.167,0.267-0.45,1.3-0.851,3.1c-0.366,1.867-0.05,4.051,0.95,6.551" style="stroke: rgb(0, 0, 0);"></path>
<path fill-rule="evenodd" clip-rule="evenodd" fill="none" stroke="#383635" stroke-width="0.3" stroke-linecap="round" stroke-linejoin="round" stroke-miterlimit="3" d="
	M65.252,25.452c1.467-3.467,1.467-6.883,0-10.25" style="stroke: rgb(0, 0, 0);"></path>
<path fill-rule="evenodd" clip-rule="evenodd" fill="none" stroke="#383635" stroke-width="0.3" stroke-linecap="round" stroke-linejoin="round" stroke-miterlimit="3" d="
	M57.302,2.203c-3.1-1.033-6.316-1.05-9.65-0.05c2.5,1,4.684,1.317,6.55,0.95c1.8-0.4,2.833-0.683,3.1-0.85V2.203l0.05,0.05
	c0.466,0.434,0.533,0.934,0.2,1.5c-0.033,0.333-0.066,0.65-0.1,0.95c-0.1,1.133-0.167,2.233-0.2,3.3" style="stroke: rgb(0, 0, 0);"></path>
<path fill-rule="evenodd" clip-rule="evenodd" fill="none" stroke="#383635" stroke-width="0.3" stroke-linecap="round" stroke-linejoin="round" stroke-miterlimit="3" d="
	M47.353,8.003c-0.034-1.101-0.083-2.2-0.15-3.3c-0.034-0.3-0.067-0.617-0.1-0.95c-0.267-0.767-0.1-1.283,0.5-1.55v-0.05h0.05" style="stroke: rgb(0, 0, 0);"></path>
<path fill-rule="evenodd" clip-rule="evenodd" fill="none" stroke="#383635" stroke-width="0.3" stroke-linecap="round" stroke-linejoin="round" stroke-miterlimit="3" d="
	M39.652,2.252c-0.267,0.167-1.3,0.45-3.1,0.85c-1.867,0.367-4.05,0.05-6.55-0.95h-0.05v0.05c-0.6,0.267-0.767,0.783-0.5,1.55
	c0.033,0.333,0.066,0.65,0.1,0.95c3.467-1.467,6.883-1.467,10.25,0c0.034-0.3,0.067-0.617,0.1-0.95c0.333-0.566,0.267-1.066-0.2-1.5
	l-0.05-0.05V2.252z" style="stroke: rgb(0, 0, 0);"></path>
<path fill-rule="evenodd" clip-rule="evenodd" fill="none" stroke="#383635" stroke-width="0.3" stroke-linecap="round" stroke-linejoin="round" stroke-miterlimit="3" d="
	M39.802,4.703c-0.1,1.133-0.167,2.233-0.2,3.3" style="stroke: rgb(0, 0, 0);"></path>
<path fill-rule="evenodd" clip-rule="evenodd" fill="none" stroke="#383635" stroke-width="0.3" stroke-linecap="round" stroke-linejoin="round" stroke-miterlimit="3" d="
	M57.453,4.703c-3.367-1.467-6.784-1.467-10.25,0" style="stroke: rgb(0, 0, 0);"></path>
<path fill-rule="evenodd" clip-rule="evenodd" fill="none" stroke="#383635" stroke-width="0.3" stroke-linecap="round" stroke-linejoin="round" stroke-miterlimit="3" d="
	M29.703,8.003c-0.034-1.101-0.083-2.2-0.15-3.3" style="stroke: rgb(0, 0, 0);"></path>
<path fill-rule="evenodd" clip-rule="evenodd" fill="none" stroke="#383635" stroke-width="0.3" stroke-linecap="round" stroke-linejoin="round" stroke-miterlimit="3" d="
	M30.002,38.053c3.333,1,6.55,0.983,9.65-0.05v-0.051c-0.267-0.166-1.3-0.449-3.1-0.85C34.686,36.735,32.502,37.053,30.002,38.053
	h-0.05c-0.6-0.3-0.767-0.833-0.5-1.601c0.033-0.333,0.066-0.649,0.1-0.949c0.067-0.967,0.117-1.95,0.15-2.95" style="stroke: rgb(0, 0, 0);"></path>
<path fill-rule="evenodd" clip-rule="evenodd" fill="none" stroke="#383635" stroke-width="0.3" stroke-linecap="round" stroke-linejoin="round" stroke-miterlimit="3" d="
	M22.302,32.553c0,0.966,0.05,1.95,0.15,2.95" style="stroke: rgb(0, 0, 0);"></path>
<path fill-rule="evenodd" clip-rule="evenodd" fill="none" stroke="#383635" stroke-width="0.3" stroke-linecap="round" stroke-linejoin="round" stroke-miterlimit="3" d="
	M57.302,32.553c0,0.966,0.05,1.95,0.15,2.95c0.033,0.3,0.066,0.616,0.1,0.949c0.333,0.566,0.267,1.066-0.2,1.5l-0.05,0.051
	c-3.1,1.033-6.316,1.05-9.65,0.05h-0.05c-0.6-0.3-0.767-0.833-0.5-1.601c0.033-0.333,0.066-0.649,0.1-0.949
	c0.066-0.967,0.116-1.95,0.15-2.95" style="stroke: rgb(0, 0, 0);"></path>
<path fill-rule="evenodd" clip-rule="evenodd" fill="none" stroke="#383635" stroke-width="0.3" stroke-linecap="round" stroke-linejoin="round" stroke-miterlimit="3" d="
	M39.652,32.553c0,0.966,0.05,1.95,0.15,2.95c0.034,0.3,0.067,0.616,0.1,0.949c0.333,0.566,0.267,1.066-0.2,1.5l-0.05,0.051" style="stroke: rgb(0, 0, 0);"></path>
<path fill-rule="evenodd" clip-rule="evenodd" fill="none" stroke="#383635" stroke-width="0.3" stroke-linecap="round" stroke-linejoin="round" stroke-miterlimit="3" d="
	M47.652,38.053c2.5-1,4.684-1.317,6.55-0.95c1.8,0.4,2.833,0.684,3.1,0.85v0.051" style="stroke: rgb(0, 0, 0);"></path>
<path fill-rule="evenodd" clip-rule="evenodd" fill="none" stroke="#383635" stroke-width="0.3" stroke-linecap="round" stroke-linejoin="round" stroke-miterlimit="3" d="
	M57.453,35.503c-3.367,1.467-6.784,1.467-10.25,0" style="stroke: rgb(0, 0, 0);"></path>
<path fill-rule="evenodd" clip-rule="evenodd" fill="none" stroke="#383635" stroke-width="0.3" stroke-linecap="round" stroke-linejoin="round" stroke-miterlimit="3" d="
	M39.802,35.503c-3.367,1.467-6.783,1.467-10.25,0" style="stroke: rgb(0, 0, 0);"></path>
<path fill-rule="evenodd" clip-rule="evenodd" fill="none" stroke="#383635" stroke-width="0.3" stroke-linecap="round" stroke-linejoin="round" stroke-miterlimit="3" d="
	M30.002,2.152c3.333-1,6.55-0.983,9.65,0.05" style="stroke: rgb(0, 0, 0);"></path>
<path fill-rule="evenodd" clip-rule="evenodd" fill="none" stroke="#383635" stroke-width="0.3" stroke-linecap="round" stroke-linejoin="round" stroke-miterlimit="3" d="
	M22.302,2.203c-3.1-1.033-6.316-1.05-9.65-0.05" style="stroke: rgb(0, 0, 0);"></path>
<path fill-rule="evenodd" clip-rule="evenodd" fill="none" stroke="#383635" stroke-width="0.3" stroke-linecap="round" stroke-linejoin="round" stroke-miterlimit="3" d="
	M22.302,38.003c-3.1,1.033-6.316,1.05-9.65,0.05" style="stroke: rgb(0, 0, 0);"></path>
<polyline fill-rule="evenodd" clip-rule="evenodd" fill="none" stroke="#383635" stroke-width="0.3" points="23.802,8.003 
	28.402,8.003 29.703,8.003 39.603,8.003 41.152,8.003 46.052,8.003 47.353,8.003 57.252,8.003 58.802,8.003 62.403,8.003 
	62.403,13.902 62.403,15.402 62.403,25.353 62.403,26.603 62.403,32.553 58.752,32.553 " style="stroke: rgb(0, 0, 0);"></polyline>
<line fill-rule="evenodd" clip-rule="evenodd" fill="none" stroke="#383635" stroke-width="0.3" x1="46.103" y1="32.553" x2="41.103" y2="32.553" style="stroke: rgb(0, 0, 0);"></line>
<line fill-rule="evenodd" clip-rule="evenodd" fill="none" stroke="#383635" stroke-width="0.3" x1="28.453" y1="32.553" x2="23.752" y2="32.553" style="stroke: rgb(0, 0, 0);"></line>
<polyline fill-rule="evenodd" clip-rule="evenodd" fill="none" stroke="#383635" stroke-width="0.3" points="11.103,32.553 
	7.552,32.553 7.552,26.603 3.152,26.452 " style="stroke: rgb(0, 0, 0);"></polyline>
<polyline fill-rule="evenodd" clip-rule="evenodd" fill="none" stroke="#383635" stroke-width="0.3" points="2.953,14.053 
	7.552,13.902 7.552,8.003 11.052,8.003 " style="stroke: rgb(0, 0, 0);"></polyline>
<line fill-rule="evenodd" clip-rule="evenodd" fill="none" stroke="#383635" stroke-width="0.3" x1="12.353" y1="8.003" x2="22.252" y2="8.003" style="stroke: rgb(0, 0, 0);"></line>
<line fill-rule="evenodd" clip-rule="evenodd" fill="none" stroke="#383635" stroke-width="0.3" x1="12.353" y1="8.003" x2="11.052" y2="8.003" style="stroke: rgb(0, 0, 0);"></line>
<path fill-rule="evenodd" clip-rule="evenodd" fill="none" stroke="#383635" stroke-width="0.3" d="M2.252,15.303
	c0.433-0.467,0.933-0.534,1.5-0.2c0.333,0.033,0.65,0.066,0.95,0.1c0.966,0.101,1.917,0.167,2.85,0.2v-1.5" style="stroke: rgb(0, 0, 0);"></path>
<polyline fill-rule="evenodd" clip-rule="evenodd" fill="none" stroke="#383635" stroke-width="0.3" points="7.552,15.402 
	7.552,25.353 7.552,26.603 " style="stroke: rgb(0, 0, 0);"></polyline>
<polyline fill-rule="evenodd" clip-rule="evenodd" fill="none" stroke="#383635" stroke-width="0.3" points="11.103,32.553 
	12.353,32.553 22.302,32.553 23.752,32.553 " style="stroke: rgb(0, 0, 0);"></polyline>
<path fill-rule="evenodd" clip-rule="evenodd" fill="none" stroke="#383635" stroke-width="0.3" d="M7.552,25.353
	c-0.966,0-1.917,0.033-2.85,0.1c-0.3,0.033-0.617,0.066-0.95,0.101c-0.767,0.267-1.3,0.116-1.6-0.45" style="stroke: rgb(0, 0, 0);"></path>
<line fill-rule="evenodd" clip-rule="evenodd" fill="none" stroke="#383635" stroke-width="0.3" x1="23.802" y1="8.003" x2="22.252" y2="8.003" style="stroke: rgb(0, 0, 0);"></line>
<polyline fill-rule="evenodd" clip-rule="evenodd" fill="none" stroke="#383635" stroke-width="0.3" points="28.453,32.553 
	29.703,32.553 39.652,32.553 41.103,32.553 " style="stroke: rgb(0, 0, 0);"></polyline>
<line fill-rule="evenodd" clip-rule="evenodd" fill="none" stroke="#383635" stroke-width="0.3" x1="47.353" y1="32.553" x2="46.103" y2="32.553" style="stroke: rgb(0, 0, 0);"></line>
<polyline fill-rule="evenodd" clip-rule="evenodd" fill="none" stroke="#383635" stroke-width="0.3" points="47.353,32.553 
	57.302,32.553 58.752,32.553 " style="stroke: rgb(0, 0, 0);"></polyline>
</svg>