<svg version="1.1" id="Layer_1" xmlns="http://www.w3.org/2000/svg" xmlns:xlink="http://www.w3.org/1999/xlink" x="0px" y="0px" width="25.75px" height="25.25px" viewBox="0 0 25.75 25.25" enable-background="new 0 0 25.75 25.25" xml:space="preserve" class="ng-scope">
<path fill-rule="evenodd" clip-rule="evenodd" fill="#FFFFFF" d="M5.125,22.525c-0.066,0-0.116,0-0.149,0
	c-0.134,0-0.233-0.033-0.301-0.101c-0.1-0.1-0.149-0.216-0.149-0.35c0-0.034,0-0.067,0-0.101l1.399-1.5
	c-1.566-1.566-2.55-3.383-2.949-5.449l-1.301,0.399c0.033,0.034,0.051,0.067,0.051,0.101c0.066,0.1,0.116,0.199,0.149,0.3l-0.7,0.75
	c-0.699-1.2-1.05-2.534-1.05-4c0-1.667,0.467-3.167,1.4-4.5l0.649,0.649c-0.1,0.134-0.183,0.283-0.25,0.45
	c-0.033,0.034-0.066,0.083-0.1,0.15l1.25,0.399c0.1-0.399,0.217-0.783,0.35-1.149c0.101-0.2,0.2-0.4,0.301-0.601
	c0.5-1.133,1.232-2.184,2.199-3.149l-1.399-1.45c0-0.033,0-0.084,0-0.15c0-0.1,0.05-0.199,0.149-0.3
	c0.067-0.1,0.167-0.149,0.301-0.149c0.033,0,0.066,0,0.1,0h0.05l1.4,1.449c2.066-1.8,4.517-2.699,7.35-2.699
	c0.733,0,1.45,0.066,2.15,0.199c0.3,0.033,0.566,0.084,0.8,0.15c0-0.033,0-0.084,0-0.15V1.575v-0.75v-0.15
	c0-0.366,0.167-0.55,0.5-0.55h7.75c0.333,0,0.5,0.184,0.5,0.55v0.15v0.75v0.149c0,0.334-0.167,0.5-0.5,0.5h-3.85v2.051
	c0.166,0.166,0.333,0.333,0.5,0.5c2.166,2.166,3.25,4.783,3.25,7.85c0,3.1-1.084,5.733-3.25,7.9c-0.167,0.166-0.334,0.316-0.5,0.449
	l0.05,2.101h3.85c0.333,0,0.5,0.167,0.5,0.5v0.149v0.75v0.15c0,0.334-0.167,0.5-0.5,0.5h-7.75c-0.333,0-0.5-0.166-0.5-0.5v-0.15
	v-0.75v-0.149c0-0.067,0-0.116,0-0.15c0.367-0.1,0.7-0.216,1-0.35c-0.333,0.134-0.683,0.25-1.05,0.35
	c-0.033,0.034-0.083,0.05-0.15,0.05l-0.6,0.101c-0.7,0.134-1.434,0.2-2.2,0.2c-2.833,0-5.267-0.9-7.3-2.7L5.125,22.525z
	 M20.425,2.225h-2.55c-0.333-0.133-0.683-0.25-1.05-0.35c0.367,0.1,0.717,0.217,1.05,0.35c0.134,0.033,0.25,0.084,0.351,0.15
	c0.533,0.2,1.033,0.45,1.5,0.75c0.232,0.166,0.467,0.334,0.699,0.5v-1.15V2.225h0.801H20.425z M20.425,3.625
	c0.268,0.2,0.533,0.416,0.801,0.65C20.958,4.041,20.692,3.825,20.425,3.625z M16.825,0.825h8.75H16.825z M16.825,1.575h8.75H16.825z
	 M17.425,12.725v-0.449c0-0.134-0.05-0.25-0.149-0.351c-0.101-0.1-0.217-0.149-0.351-0.149h-6.3c-0.133,0-0.25,0.05-0.35,0.149
	c-0.101,0.101-0.15,0.217-0.15,0.351v0.449c0,0.167,0.05,0.301,0.15,0.4c0.1,0.1,0.217,0.15,0.35,0.15h6.3
	c0.134,0,0.25-0.051,0.351-0.15C17.375,13.025,17.425,12.892,17.425,12.725c0,0.167-0.05,0.301-0.149,0.4
	c-0.101,0.1-0.217,0.15-0.351,0.15h-6.3c-0.133,0-0.25-0.051-0.35-0.15c-0.101-0.1-0.15-0.233-0.15-0.4v-0.449
	c0-0.134,0.05-0.25,0.15-0.351c0.1-0.1,0.217-0.149,0.35-0.149h6.3c0.134,0,0.25,0.05,0.351,0.149
	c0.1,0.101,0.149,0.217,0.149,0.351V12.725z M21.226,20.975c-0.268,0.234-0.533,0.467-0.801,0.7
	C20.692,21.441,20.958,21.209,21.226,20.975z M20.425,21.675c-0.232,0.167-0.467,0.317-0.699,0.45c-0.467,0.3-0.95,0.566-1.45,0.8
	c-0.134,0.067-0.267,0.116-0.4,0.15h2.55h0.851h-0.851v-0.25V21.675z M25.625,23.725h-8.75H25.625z M25.625,24.475h-8.75H25.625z
	 M5.925,4.825l0.051-0.05c0.166-0.2,0.35-0.384,0.55-0.551c-0.2,0.167-0.384,0.351-0.55,0.551L5.925,4.825z M3.075,9.725
	c-0.066,0.2-0.117,0.417-0.15,0.65C2.958,10.142,3.009,9.925,3.075,9.725z M2.925,10.375l-1.399-0.45c-0.3,0.8-0.45,1.65-0.45,2.55
	c0,0.834,0.117,1.617,0.35,2.351l1.4-0.45c0.033,0.233,0.083,0.45,0.15,0.65c-0.067-0.2-0.117-0.417-0.15-0.65
	c-0.066-0.566-0.1-1.15-0.1-1.75C2.726,11.858,2.792,11.108,2.925,10.375z M6.575,18.025c-0.066-0.7,0.117-1.316,0.55-1.851
	c0.434-0.533,1-0.8,1.7-0.8s1.3,0.267,1.8,0.8c0.5,0.534,0.75,1.15,0.75,1.851c0,0.699-0.233,1.283-0.7,1.75
	c-0.433,0.434-0.967,0.649-1.6,0.649c-0.133,0-0.283-0.017-0.45-0.05c-0.033-0.033-0.066-0.084-0.1-0.15
	c-0.267-0.266-0.567-0.467-0.9-0.6c-0.167-0.066-0.316-0.117-0.45-0.15c-0.166-0.199-0.3-0.416-0.399-0.649
	C6.675,18.592,6.608,18.325,6.575,18.025c0.033,0.3,0.1,0.566,0.2,0.8c0.1,0.233,0.233,0.45,0.399,0.649
	c0.134,0.033,0.283,0.084,0.45,0.15c0.333,0.133,0.634,0.334,0.9,0.6c0.033,0.066,0.066,0.117,0.1,0.15
	c0.167,0.033,0.317,0.05,0.45,0.05c0.633,0,1.167-0.216,1.6-0.649c0.467-0.467,0.7-1.051,0.7-1.75c0-0.7-0.25-1.316-0.75-1.851
	c-0.5-0.533-1.1-0.8-1.8-0.8s-1.267,0.267-1.7,0.8C6.692,16.709,6.509,17.325,6.575,18.025z M9.375,16.475
	c0.101-0.066,0.2-0.1,0.3-0.1c0.134,0,0.25,0.033,0.351,0.1c0.066,0.101,0.1,0.217,0.1,0.351c0.033,0.134,0,0.25-0.1,0.35
	c-0.067,0.101-0.167,0.15-0.3,0.15c-0.134-0.034-0.233-0.083-0.301-0.15c-0.1-0.1-0.149-0.216-0.149-0.35S9.309,16.575,9.375,16.475
	c-0.066,0.101-0.1,0.217-0.1,0.351s0.05,0.25,0.149,0.35c0.067,0.067,0.167,0.116,0.301,0.15c0.133,0,0.232-0.05,0.3-0.15
	c0.1-0.1,0.133-0.216,0.1-0.35c0-0.134-0.033-0.25-0.1-0.351c-0.101-0.066-0.217-0.1-0.351-0.1
	C9.575,16.375,9.476,16.408,9.375,16.475z M8.275,16.925c0.033,0.101,0,0.2-0.101,0.3c-0.066,0.066-0.149,0.101-0.25,0.101
	c-0.133,0-0.232-0.034-0.3-0.101c-0.1-0.1-0.149-0.199-0.149-0.3c-0.033-0.134,0-0.25,0.1-0.35c0.066-0.067,0.15-0.101,0.25-0.101
	c0.133,0,0.233,0.033,0.3,0.101C8.226,16.675,8.275,16.791,8.275,16.925c0-0.134-0.05-0.25-0.15-0.35
	c-0.066-0.067-0.167-0.101-0.3-0.101c-0.1,0-0.184,0.033-0.25,0.101c-0.1,0.1-0.133,0.216-0.1,0.35c0,0.101,0.05,0.2,0.149,0.3
	c0.067,0.066,0.167,0.101,0.3,0.101c0.101,0,0.184-0.034,0.25-0.101C8.275,17.125,8.309,17.025,8.275,16.925z M7.976,18.975
	c-0.067,0.066-0.15,0.101-0.25,0.101c-0.101,0-0.184-0.034-0.25-0.101c-0.101-0.066-0.15-0.149-0.15-0.25
	c0-0.1,0.033-0.184,0.1-0.25c0.067-0.1,0.15-0.149,0.25-0.149c0.067,0,0.15,0.05,0.25,0.149c0.067,0.066,0.101,0.15,0.101,0.25
	C8.025,18.825,8.009,18.908,7.976,18.975c0.033-0.066,0.05-0.149,0.05-0.25c0-0.1-0.033-0.184-0.101-0.25
	c-0.1-0.1-0.183-0.149-0.25-0.149c-0.1,0-0.183,0.05-0.25,0.149c-0.066,0.066-0.1,0.15-0.1,0.25c0,0.101,0.05,0.184,0.15,0.25
	c0.066,0.066,0.149,0.101,0.25,0.101C7.825,19.075,7.908,19.041,7.976,18.975z M10.025,18.375c0.066-0.066,0.149-0.1,0.25-0.1
	c0.1,0,0.2,0.033,0.3,0.1c0.066,0.1,0.1,0.2,0.1,0.3c0,0.101-0.033,0.184-0.1,0.25c-0.066,0.101-0.167,0.134-0.3,0.101
	c-0.101,0-0.184-0.033-0.25-0.101c-0.067-0.066-0.101-0.149-0.101-0.25C9.925,18.541,9.958,18.441,10.025,18.375
	c-0.067,0.066-0.101,0.166-0.101,0.3c0,0.101,0.033,0.184,0.101,0.25c0.066,0.067,0.149,0.101,0.25,0.101
	c0.133,0.033,0.233,0,0.3-0.101c0.066-0.066,0.1-0.149,0.1-0.25c0-0.1-0.033-0.2-0.1-0.3c-0.1-0.066-0.2-0.1-0.3-0.1
	C10.175,18.275,10.092,18.309,10.025,18.375z M1.525,9.925c0.033-0.033,0.066-0.083,0.1-0.149c0.067-0.167,0.134-0.316,0.2-0.45
	c-0.066,0.134-0.133,0.283-0.2,0.45C1.592,9.842,1.559,9.892,1.525,9.925z M1.675,15.425c-0.066-0.167-0.133-0.35-0.199-0.55
	c0-0.033-0.018-0.05-0.051-0.05c0.033,0,0.051,0.017,0.051,0.05C1.542,15.075,1.608,15.258,1.675,15.425z M9.325,19.625
	c0,0.066-0.017,0.133-0.05,0.2c-0.067,0.066-0.15,0.1-0.25,0.1c-0.101,0-0.184-0.033-0.25-0.1c-0.033-0.067-0.067-0.134-0.101-0.2
	c0-0.1,0.033-0.184,0.101-0.25c0.066-0.066,0.133-0.1,0.2-0.1c0.1,0,0.183,0.033,0.25,0.1C9.292,19.441,9.325,19.525,9.325,19.625
	c0-0.1-0.033-0.184-0.1-0.25c-0.067-0.066-0.15-0.1-0.25-0.1c-0.067,0-0.134,0.033-0.2,0.1c-0.067,0.066-0.101,0.15-0.101,0.25
	c0.033,0.066,0.067,0.133,0.101,0.2c0.066,0.066,0.149,0.1,0.25,0.1c0.1,0,0.183-0.033,0.25-0.1
	C9.309,19.758,9.325,19.691,9.325,19.625z M6.575,21.075c-0.2-0.167-0.4-0.351-0.6-0.55l-0.051-0.051l0.051,0.051
	C6.175,20.725,6.375,20.908,6.575,21.075z"></path>
<path fill-rule="evenodd" clip-rule="evenodd" fill="#333333" d="M4.525,21.975c0,0.033,0,0.066,0,0.101
	c0,0.134,0.05,0.25,0.149,0.35c0.067,0.067,0.167,0.101,0.301,0.101c0.033,0,0.083,0,0.149,0l-0.05,0.05
	c-0.033,0.066-0.083,0.134-0.15,0.2c-0.066,0.1-0.166,0.149-0.3,0.149c-0.133,0-0.25-0.05-0.35-0.149
	c-0.101-0.101-0.15-0.2-0.15-0.301c0-0.133,0.05-0.25,0.15-0.35c0.066-0.066,0.133-0.117,0.2-0.15H4.525z M5.075,2.775
	c-0.033,0-0.066,0-0.1,0c-0.134,0-0.233,0.05-0.301,0.149c-0.1,0.101-0.149,0.2-0.149,0.3c0,0.066,0,0.117,0,0.15l-0.05-0.05
	c-0.067-0.034-0.134-0.067-0.2-0.101c-0.101-0.1-0.15-0.217-0.15-0.35s0.05-0.25,0.15-0.35c0.1-0.101,0.217-0.15,0.35-0.15
	c0.134,0,0.233,0.05,0.3,0.15C4.992,2.592,5.042,2.675,5.075,2.775z M20.425,2.475v1.15c-0.232-0.166-0.467-0.334-0.699-0.5
	L20.425,2.475z M19.726,22.125c0.232-0.133,0.467-0.283,0.699-0.45v1.15L19.726,22.125z" style="fill: rgb(0, 0, 0);"></path>
<path fill-rule="evenodd" clip-rule="evenodd" fill="none" stroke="#383635" stroke-width="0.3" d="M21.226,4.275
	c0.166,0.166,0.333,0.333,0.5,0.5c2.166,2.166,3.25,4.783,3.25,7.85c0,3.1-1.084,5.733-3.25,7.9c-0.167,0.166-0.334,0.316-0.5,0.449
	c-0.268,0.234-0.533,0.467-0.801,0.7c-0.232,0.167-0.467,0.317-0.699,0.45c-0.467,0.3-0.95,0.566-1.45,0.8
	c-0.134,0.067-0.267,0.116-0.4,0.15 M16.875,23.425h-0.05c-0.033,0.034-0.083,0.05-0.15,0.05l-0.6,0.101
	c-0.7,0.134-1.434,0.2-2.2,0.2c-2.833,0-5.267-0.9-7.3-2.7c-0.2-0.167-0.4-0.351-0.6-0.55l-0.051-0.051
	c-1.566-1.566-2.55-3.383-2.949-5.449 M3.075,9.725c0.1-0.399,0.217-0.783,0.35-1.149c0.101-0.2,0.2-0.4,0.301-0.601
	c0.5-1.133,1.232-2.184,2.199-3.149l0.051-0.05c0.166-0.2,0.35-0.384,0.55-0.551c2.066-1.8,4.517-2.699,7.35-2.699
	c0.733,0,1.45,0.066,2.15,0.199c0.3,0.033,0.566,0.084,0.8,0.15 M19.726,3.125c0.232,0.166,0.467,0.334,0.699,0.5
	c0.268,0.2,0.533,0.416,0.801,0.65 M19.726,3.125c-0.467-0.3-0.967-0.55-1.5-0.75c-0.101-0.066-0.217-0.117-0.351-0.15
	c-0.333-0.133-0.683-0.25-1.05-0.35 M17.425,12.725v-0.449c0-0.134-0.05-0.25-0.149-0.351c-0.101-0.1-0.217-0.149-0.351-0.149h-6.3
	c-0.133,0-0.25,0.05-0.35,0.149c-0.101,0.101-0.15,0.217-0.15,0.351v0.449c0,0.167,0.05,0.301,0.15,0.4
	c0.1,0.1,0.217,0.15,0.35,0.15h6.3c0.134,0,0.25-0.051,0.351-0.15C17.375,13.025,17.425,12.892,17.425,12.725z M16.875,23.425
	c0.367-0.1,0.7-0.216,1-0.35c-0.333,0.134-0.683,0.25-1.05,0.35 M3.075,9.725c-0.066,0.2-0.117,0.417-0.15,0.65
	c-0.133,0.733-0.199,1.483-0.199,2.25c0,0.6,0.033,1.184,0.1,1.75c0.033,0.233,0.083,0.45,0.15,0.65 M6.575,18.025
	c-0.066-0.7,0.117-1.316,0.55-1.851c0.434-0.533,1-0.8,1.7-0.8s1.3,0.267,1.8,0.8c0.5,0.534,0.75,1.15,0.75,1.851
	c0,0.699-0.233,1.283-0.7,1.75c-0.433,0.434-0.967,0.649-1.6,0.649c-0.133,0-0.283-0.017-0.45-0.05
	c-0.033-0.033-0.066-0.084-0.1-0.15c-0.267-0.266-0.567-0.467-0.9-0.6c-0.167-0.066-0.316-0.117-0.45-0.15
	c-0.166-0.199-0.3-0.416-0.399-0.649C6.675,18.592,6.608,18.325,6.575,18.025z M9.375,16.475c0.101-0.066,0.2-0.1,0.3-0.1
	c0.134,0,0.25,0.033,0.351,0.1c0.066,0.101,0.1,0.217,0.1,0.351c0.033,0.134,0,0.25-0.1,0.35c-0.067,0.101-0.167,0.15-0.3,0.15
	c-0.134-0.034-0.233-0.083-0.301-0.15c-0.1-0.1-0.149-0.216-0.149-0.35S9.309,16.575,9.375,16.475z M8.275,16.925
	c0.033,0.101,0,0.2-0.101,0.3c-0.066,0.066-0.149,0.101-0.25,0.101c-0.133,0-0.232-0.034-0.3-0.101c-0.1-0.1-0.149-0.199-0.149-0.3
	c-0.033-0.134,0-0.25,0.1-0.35c0.066-0.067,0.15-0.101,0.25-0.101c0.133,0,0.233,0.033,0.3,0.101
	C8.226,16.675,8.275,16.791,8.275,16.925z M7.976,18.975c-0.067,0.066-0.15,0.101-0.25,0.101c-0.101,0-0.184-0.034-0.25-0.101
	c-0.101-0.066-0.15-0.149-0.15-0.25c0-0.1,0.033-0.184,0.1-0.25c0.067-0.1,0.15-0.149,0.25-0.149c0.067,0,0.15,0.05,0.25,0.149
	c0.067,0.066,0.101,0.15,0.101,0.25C8.025,18.825,8.009,18.908,7.976,18.975z M10.025,18.375c0.066-0.066,0.149-0.1,0.25-0.1
	c0.1,0,0.2,0.033,0.3,0.1c0.066,0.1,0.1,0.2,0.1,0.3c0,0.101-0.033,0.184-0.1,0.25c-0.066,0.101-0.167,0.134-0.3,0.101
	c-0.101,0-0.184-0.033-0.25-0.101c-0.067-0.066-0.101-0.149-0.101-0.25C9.925,18.541,9.958,18.441,10.025,18.375z M9.325,19.625
	c0,0.066-0.017,0.133-0.05,0.2c-0.067,0.066-0.15,0.1-0.25,0.1c-0.101,0-0.184-0.033-0.25-0.1c-0.033-0.067-0.067-0.134-0.101-0.2
	c0-0.1,0.033-0.184,0.101-0.25c0.066-0.066,0.133-0.1,0.2-0.1c0.1,0,0.183,0.033,0.25,0.1C9.292,19.441,9.325,19.525,9.325,19.625z" style="stroke: rgb(0, 0, 0);"></path>
<path fill-rule="evenodd" clip-rule="evenodd" fill="none" stroke="#383635" stroke-width="0.3" stroke-linecap="round" stroke-linejoin="round" stroke-miterlimit="3" d="
	M16.825,1.875c0-0.033,0-0.084,0-0.15V1.575v-0.75v-0.15c0-0.366,0.167-0.55,0.5-0.55h7.75c0.333,0,0.5,0.184,0.5,0.55v0.15v0.75
	v0.149c0,0.334-0.167,0.5-0.5,0.5h-3.85v2.051 M21.226,20.975l0.05,2.101h3.85c0.333,0,0.5,0.167,0.5,0.5v0.149v0.75v0.15
	c0,0.334-0.167,0.5-0.5,0.5h-7.75c-0.333,0-0.5-0.166-0.5-0.5v-0.15v-0.75v-0.149c0-0.067,0-0.116,0-0.15 M6.575,21.075l-1.45,1.45
	l-0.05,0.05c-0.033,0.066-0.083,0.134-0.15,0.2c-0.066,0.1-0.166,0.149-0.3,0.149c-0.133,0-0.25-0.05-0.35-0.149
	c-0.101-0.101-0.15-0.2-0.15-0.301c0-0.133,0.05-0.25,0.15-0.35c0.066-0.066,0.133-0.117,0.2-0.15h0.05l1.399-1.5 M2.976,15.025
	l-1.301,0.399c0.033,0.034,0.051,0.067,0.051,0.101c0.066,0.1,0.116,0.199,0.149,0.3l-0.7,0.75c-0.699-1.2-1.05-2.534-1.05-4
	c0-1.667,0.467-3.167,1.4-4.5l0.649,0.649c-0.1,0.134-0.183,0.283-0.25,0.45c-0.033,0.034-0.066,0.083-0.1,0.15l1.25,0.399
	 M5.925,4.825l-1.399-1.45l-0.05-0.05c-0.067-0.034-0.134-0.067-0.2-0.101c-0.101-0.1-0.15-0.217-0.15-0.35s0.05-0.25,0.15-0.35
	c0.1-0.101,0.217-0.15,0.35-0.15c0.134,0,0.233,0.05,0.3,0.15c0.067,0.066,0.117,0.149,0.15,0.25h0.05l1.4,1.449 M20.425,2.475
	l-0.699,0.65 M20.425,3.625v-1.15 M20.425,2.225v0.25 M20.425,2.225h0.801 M17.875,2.225h2.55 M16.825,0.825h8.75 M16.825,1.575
	h8.75 M20.425,21.675v1.15v0.25h0.851 M17.875,23.075h2.55 M19.726,22.125l0.699,0.7 M25.625,23.725h-8.75 M25.625,24.475h-8.75
	 M5.075,2.775c-0.033,0-0.066,0-0.1,0c-0.134,0-0.233,0.05-0.301,0.149c-0.1,0.101-0.149,0.2-0.149,0.3c0,0.066,0,0.117,0,0.15
	 M1.525,9.925c0.033-0.033,0.066-0.083,0.1-0.149c0.067-0.167,0.134-0.316,0.2-0.45 M2.925,10.375l-1.399-0.45
	c-0.3,0.8-0.45,1.65-0.45,2.55c0,0.834,0.117,1.617,0.35,2.351l1.4-0.45 M1.675,15.425c-0.066-0.167-0.133-0.35-0.199-0.55
	c0-0.033-0.018-0.05-0.051-0.05 M5.125,22.525c-0.066,0-0.116,0-0.149,0c-0.134,0-0.233-0.033-0.301-0.101
	c-0.1-0.1-0.149-0.216-0.149-0.35c0-0.034,0-0.067,0-0.101" style="stroke: rgb(0, 0, 0);"></path>
</svg>