<svg version="1.1" id="Layer_1" xmlns="http://www.w3.org/2000/svg" xmlns:xlink="http://www.w3.org/1999/xlink" x="0px" y="0px" width="15.097px" height="14.517px" viewBox="0 0 15.097 14.517" enable-background="new 0 0 15.097 14.517" xml:space="preserve" class="ng-scope">
<path fill-rule="evenodd" clip-rule="evenodd" fill="#FFFFFF" d="M4.514,0.132c1.267-0.033,2.383,0.05,3.35,0.25
	c1.066,0.167,2.1,0.5,3.1,1s1.8,1.184,2.4,2.05c0.7,0.967,1.167,2.067,1.4,3.301c0.167,1.166,0.233,2.166,0.2,3
	c0,0.066,0,0.133,0,0.199v0.051c-0.033,0.866-0.466,1.566-1.3,2.1c-0.867,0.5-1.917,0.917-3.15,1.25c-1.233,0.3-2.35,0.3-3.35,0
	c-0.333,0.533-0.883,0.866-1.65,1c-0.8,0.167-1.567-0.017-2.3-0.55c-0.767-0.5-1.283-1.017-1.55-1.55
	c-0.267-0.467-0.5-0.967-0.7-1.5c-0.267-0.567-0.483-1.384-0.65-2.45c-0.233-1.066-0.25-2.267-0.05-3.601
	c0.167-1.399,0.6-2.483,1.3-3.25C2.264,0.632,3.247,0.198,4.514,0.132z"></path>
<path fill-rule="evenodd" clip-rule="evenodd" fill="#FFFFFF" d="M7.164,13.332c1.8-2.967,3.6-3.95,5.4-2.95
	C10.764,9.382,8.963,10.365,7.164,13.332z"></path>
<path fill-rule="evenodd" clip-rule="evenodd" fill="none" stroke="#383635" stroke-width="0.3" stroke-linecap="round" stroke-linejoin="round" stroke-miterlimit="3" d="
	M4.514,0.132c1.267-0.033,2.383,0.05,3.35,0.25c1.066,0.167,2.1,0.5,3.1,1s1.8,1.184,2.4,2.05c0.7,0.967,1.167,2.067,1.4,3.301
	c0.167,1.166,0.233,2.166,0.2,3c0,0.066,0,0.133,0,0.199v0.051c-0.033,0.866-0.466,1.566-1.3,2.1c-0.867,0.5-1.917,0.917-3.15,1.25
	c-1.233,0.3-2.35,0.3-3.35,0c-0.333,0.533-0.883,0.866-1.65,1c-0.8,0.167-1.567-0.017-2.3-0.55c-0.767-0.5-1.283-1.017-1.55-1.55
	c-0.267-0.467-0.5-0.967-0.7-1.5c-0.267-0.567-0.483-1.384-0.65-2.45c-0.233-1.066-0.25-2.267-0.05-3.601
	c0.167-1.399,0.6-2.483,1.3-3.25C2.264,0.632,3.247,0.198,4.514,0.132z" style="stroke: rgb(0, 0, 0);"></path>
<path fill-rule="evenodd" clip-rule="evenodd" fill="none" stroke="#383635" stroke-width="0.3" stroke-linecap="round" stroke-linejoin="round" stroke-miterlimit="3" d="
	M7.164,13.332c1.8-2.967,3.6-3.95,5.4-2.95" style="stroke: rgb(0, 0, 0);"></path>
</svg>