<svg version="1.1" id="Layer_1" xmlns="http://www.w3.org/2000/svg" xmlns:xlink="http://www.w3.org/1999/xlink" x="0px" y="0px" width="36.909px" height="21.05px" viewBox="0 0 36.909 21.05" enable-background="new 0 0 36.909 21.05" xml:space="preserve" class="ng-scope">
<path fill-rule="evenodd" clip-rule="evenodd" fill="#FFFFFF" d="M34.779,8.375l-0.05-0.2c0.2-0.1,0.383-0.149,0.55-0.149
	c0.033,0,0.067,0,0.1,0c0.2,0,0.35,0.017,0.45,0.05c0.167,0.1,0.316,0.184,0.45,0.25c0.233,0.233,0.4,0.616,0.5,1.15v8.149
	c0.033,0.334-0.117,0.667-0.45,1c-0.167,0.167-0.333,0.267-0.5,0.3c-0.167,1.067-0.867,1.667-2.1,1.801
	c-2.4,0.1-4.8,0.166-7.2,0.199h-16.15c-2.4-0.033-4.8-0.1-7.2-0.199c-1.233-0.134-1.933-0.733-2.1-1.801
	c-0.167-0.033-0.333-0.133-0.5-0.3c-0.333-0.333-0.483-0.666-0.45-1V9.476c0.1-0.534,0.267-0.917,0.5-1.15
	c0.133-0.066,0.267-0.15,0.4-0.25c0.133-0.033,0.3-0.05,0.5-0.05c0.033,0,0.067,0,0.1,0c0.167,0,0.35,0.05,0.55,0.149
	c0.4-0.233,0.833-0.466,1.3-0.699c0-0.101,0.017-0.2,0.05-0.301c0.167-0.866,0.783-1.583,1.85-2.149c1.067-0.634,2.4-1.05,4-1.25
	c4.233-0.367,7.267-0.566,9.1-0.601c1.8,0.034,4.816,0.233,9.05,0.601c1.6,0.2,2.934,0.616,4,1.25
	c1.067,0.566,1.684,1.283,1.85,2.149c0.033,0.2,0.067,0.384,0.1,0.551c0.367,0.199,0.733,0.383,1.1,0.55
	c-0.367-0.167-0.733-0.351-1.1-0.55c-0.033-0.167-0.067-0.351-0.1-0.551c-0.167-0.866-0.783-1.583-1.85-2.149
	c-1.066-0.634-2.4-1.05-4-1.25c-4.233-0.367-7.25-0.566-9.05-0.601c-1.833,0.034-4.867,0.233-9.1,0.601c-1.6,0.2-2.933,0.616-4,1.25
	c-1.067,0.566-1.683,1.283-1.85,2.149c-0.033,0.101-0.05,0.2-0.05,0.301c-0.467,0.233-0.9,0.466-1.3,0.699
	c-0.2-0.1-0.383-0.149-0.55-0.149c-0.033,0-0.067,0-0.1,0c-0.2,0-0.367,0.017-0.5,0.05c-0.933-4.134,0.917-6.55,5.55-7.25
	c3.933-0.467,7.9-0.7,11.9-0.7c3.967,0,7.917,0.233,11.85,0.7c4.633,0.7,6.466,3.116,5.5,7.25c-0.1-0.033-0.25-0.05-0.45-0.05
	c-0.033,0-0.067,0-0.1,0c-0.167,0-0.35,0.05-0.55,0.149c-0.067,0.034-0.117,0.067-0.15,0.101
	C34.646,8.309,34.713,8.342,34.779,8.375c0.533,0.367,0.55,0.95,0.05,1.75c-0.034,0.066-0.083,0.134-0.15,0.2
	c-0.233,0.3-0.433,0.6-0.6,0.9c0.167-0.301,0.367-0.601,0.6-0.9c0.067-0.066,0.117-0.134,0.15-0.2
	C35.33,9.325,35.313,8.742,34.779,8.375z"></path>
<path fill-rule="evenodd" clip-rule="evenodd" fill="#FFFFFF" d="M3.479,7.476c0.3-0.167,0.6-0.334,0.9-0.5
	c0.933-0.467,1.717-0.967,2.35-1.5c0.233-0.2,0.5-0.351,0.8-0.45c0.067,0,0.117-0.033,0.15-0.101c0.333-0.133,0.667-0.166,1-0.1
	c0.267,0,0.45,0.167,0.55,0.5c0.066,0.134,0.117,0.283,0.15,0.45c0.167,0.566,0.367,1.116,0.6,1.649c0.133,0,0.267,0,0.4,0h16.15
	c0.233-0.533,0.434-1.083,0.6-1.649c0.033-0.167,0.083-0.316,0.15-0.45c0.1-0.333,0.267-0.5,0.5-0.5
	c0.367-0.066,0.717-0.033,1.05,0.1c0.033,0.067,0.083,0.101,0.15,0.101c0.267,0.1,0.533,0.25,0.8,0.45
	c0.633,0.533,1.417,1.033,2.35,1.5c0.467,0.267,0.917,0.517,1.35,0.75c-0.434-0.233-0.883-0.483-1.35-0.75
	c-0.933-0.467-1.717-0.967-2.35-1.5c-0.267-0.2-0.533-0.351-0.8-0.45c-0.067,0-0.117-0.033-0.15-0.101
	c-0.333-0.133-0.684-0.166-1.05-0.1c-0.233,0-0.4,0.167-0.5,0.5c-0.066,0.134-0.117,0.283-0.15,0.45
	c-0.167,0.566-0.367,1.116-0.6,1.649h-16.15c-0.133,0-0.267,0-0.4,0c-0.233-0.533-0.434-1.083-0.6-1.649
	c-0.033-0.167-0.083-0.316-0.15-0.45c-0.1-0.333-0.283-0.5-0.55-0.5c-0.333-0.066-0.667-0.033-1,0.1
	c-0.033,0.067-0.083,0.101-0.15,0.101c-0.3,0.1-0.566,0.25-0.8,0.45c-0.633,0.533-1.417,1.033-2.35,1.5
	C4.08,7.142,3.779,7.309,3.479,7.476z"></path>
<path fill-rule="evenodd" clip-rule="evenodd" fill="#FFFFFF" d="M9.979,7.425c0.066,0.134,0.133,0.284,0.2,0.45
	c0.067,0.2,0.217,0.517,0.45,0.95c0.167,0.4,0.35,0.767,0.55,1.1c0.2,0.301,0.15,0.667-0.15,1.101c-0.3,0.434-0.617,0.75-0.95,0.95
	c-0.333,0.166-0.833,0.55-1.5,1.149c-0.667,0.601-1.333,0.95-2,1.05c-0.667,0.101-1.133,0.2-1.4,0.301
	c-0.3,0.133-0.683-0.067-1.15-0.601c-0.433-0.5-0.783-1.05-1.05-1.649c0.267,0.6,0.617,1.149,1.05,1.649
	c0.467,0.533,0.85,0.733,1.15,0.601c0.267-0.101,0.733-0.2,1.4-0.301c0.667-0.1,1.333-0.449,2-1.05c0.667-0.6,1.167-0.983,1.5-1.149
	c0.333-0.2,0.65-0.517,0.95-0.95c0.3-0.434,0.35-0.8,0.15-1.101c-0.2-0.333-0.383-0.699-0.55-1.1c-0.233-0.434-0.383-0.75-0.45-0.95
	C10.113,7.709,10.046,7.559,9.979,7.425z"></path>
<path fill-rule="evenodd" clip-rule="evenodd" fill="#FFFFFF" d="M2.979,12.226c-0.067-0.134-0.133-0.267-0.2-0.4
	c0,0.134,0,0.267,0,0.4c-0.066,1.733,0,3.533,0.2,5.399c0.033,0.334-0.117,0.667-0.45,1c0.2,0.733,0.684,1.101,1.45,1.101
	c2.167,0.1,4.3,0.166,6.4,0.199h16.15c2.1-0.033,4.233-0.1,6.4-0.199c0.767,0,1.25-0.367,1.45-1.101
	c-0.333-0.333-0.483-0.666-0.45-1c0.233-2.267,0.284-4.399,0.15-6.399c-0.233,0.333-0.417,0.666-0.55,1
	c-0.267,0.6-0.633,1.149-1.1,1.649c-0.433,0.533-0.8,0.733-1.1,0.601c-0.3-0.101-0.767-0.2-1.4-0.301
	c-0.667-0.1-1.35-0.449-2.05-1.05c-0.633-0.6-1.133-0.983-1.5-1.149c-0.3-0.2-0.6-0.517-0.9-0.95c-0.3-0.434-0.35-0.8-0.15-1.101
	c0.2-0.333,0.383-0.699,0.55-1.1c0.2-0.434,0.333-0.75,0.4-0.95c0.067-0.166,0.15-0.316,0.25-0.45c-0.1,0.134-0.183,0.284-0.25,0.45
	c-0.066,0.2-0.2,0.517-0.4,0.95c-0.167,0.4-0.35,0.767-0.55,1.1c-0.2,0.301-0.15,0.667,0.15,1.101c0.3,0.434,0.6,0.75,0.9,0.95
	c0.367,0.166,0.867,0.55,1.5,1.149c0.7,0.601,1.383,0.95,2.05,1.05c0.633,0.101,1.1,0.2,1.4,0.301c0.3,0.133,0.667-0.067,1.1-0.601
	c0.467-0.5,0.833-1.05,1.1-1.649c0.133-0.334,0.317-0.667,0.55-1c0.133,2,0.083,4.133-0.15,6.399c-0.033,0.334,0.117,0.667,0.45,1
	c-0.2,0.733-0.683,1.101-1.45,1.101c-2.167,0.1-4.3,0.166-6.4,0.199h-16.15c-2.1-0.033-4.233-0.1-6.4-0.199
	c-0.767,0-1.25-0.367-1.45-1.101c0.333-0.333,0.483-0.666,0.45-1c-0.2-1.866-0.267-3.666-0.2-5.399H2.979z"></path>
<path fill-rule="evenodd" clip-rule="evenodd" fill="#FFFFFF" d="M35.83,18.925c-0.1,0.067-0.25,0.101-0.45,0.101h-0.1
	c-0.267,0-0.566-0.134-0.9-0.4c0.333,0.267,0.633,0.4,0.9,0.4h0.1C35.58,19.025,35.729,18.992,35.83,18.925z"></path>
<path fill-rule="evenodd" clip-rule="evenodd" fill="#FFFFFF" d="M2.779,11.825c-0.233-0.467-0.55-0.967-0.95-1.5
	c-0.067-0.066-0.117-0.134-0.15-0.2c-0.5-0.8-0.483-1.383,0.05-1.75c0.133-0.066,0.283-0.133,0.45-0.2
	c-0.167,0.067-0.316,0.134-0.45,0.2c-0.533,0.367-0.55,0.95-0.05,1.75c0.034,0.066,0.083,0.134,0.15,0.2
	C2.229,10.858,2.546,11.358,2.779,11.825z"></path>
<path fill-rule="evenodd" clip-rule="evenodd" fill="#FFFFFF" d="M2.529,18.625c-0.333,0.267-0.633,0.4-0.9,0.4h-0.1
	c-0.2,0-0.35-0.033-0.45-0.101c0.1,0.067,0.25,0.101,0.45,0.101h0.1C1.896,19.025,2.196,18.892,2.529,18.625z"></path>
<path fill-rule="evenodd" clip-rule="evenodd" fill="#B59A87" d="M34.729,8.175l0.05,0.2c-0.066-0.033-0.133-0.066-0.2-0.1
	C34.613,8.242,34.663,8.209,34.729,8.175z" style="fill: rgb(0, 0, 0);"></path>
<path fill-rule="evenodd" clip-rule="evenodd" fill="#B59A87" d="M2.779,12.226c0-0.134,0-0.267,0-0.4
	c0.067,0.134,0.133,0.267,0.2,0.4H2.779z" style="fill: rgb(0, 0, 0);"></path>
<path fill-rule="evenodd" clip-rule="evenodd" fill="none" stroke="#383635" stroke-width="0.3" stroke-linecap="round" stroke-linejoin="round" stroke-miterlimit="3" d="
	M1.029,8.075c0.133-0.033,0.3-0.05,0.5-0.05c0.033,0,0.067,0,0.1,0c0.167,0,0.35,0.05,0.55,0.149c0.4-0.233,0.833-0.466,1.3-0.699
	c0-0.101,0.017-0.2,0.05-0.301c0.167-0.866,0.783-1.583,1.85-2.149c1.067-0.634,2.4-1.05,4-1.25c4.233-0.367,7.267-0.566,9.1-0.601
	c1.8,0.034,4.816,0.233,9.05,0.601c1.6,0.2,2.934,0.616,4,1.25c1.067,0.566,1.684,1.283,1.85,2.149c0.033,0.2,0.067,0.384,0.1,0.551
	c0.367,0.199,0.733,0.383,1.1,0.55c0.033-0.033,0.083-0.066,0.15-0.101c0.2-0.1,0.383-0.149,0.55-0.149c0.033,0,0.067,0,0.1,0
	c0.2,0,0.35,0.017,0.45,0.05c0.966-4.134-0.867-6.55-5.5-7.25c-3.934-0.467-7.883-0.7-11.85-0.7c-4,0-7.967,0.233-11.9,0.7
	C1.946,1.525,0.096,3.941,1.029,8.075z" style="stroke: rgb(0, 0, 0);"></path>
<path fill-rule="evenodd" clip-rule="evenodd" fill="none" stroke="#383635" stroke-width="0.3" stroke-linecap="round" stroke-linejoin="round" stroke-miterlimit="3" d="
	M3.479,7.476c0.3-0.167,0.6-0.334,0.9-0.5c0.933-0.467,1.717-0.967,2.35-1.5c0.233-0.2,0.5-0.351,0.8-0.45
	c0.067,0,0.117-0.033,0.15-0.101c0.333-0.133,0.667-0.166,1-0.1c0.267,0,0.45,0.167,0.55,0.5c0.066,0.134,0.117,0.283,0.15,0.45
	c0.167,0.566,0.367,1.116,0.6,1.649c0.133,0,0.267,0,0.4,0h16.15c0.233-0.533,0.434-1.083,0.6-1.649
	c0.033-0.167,0.083-0.316,0.15-0.45c0.1-0.333,0.267-0.5,0.5-0.5c0.367-0.066,0.717-0.033,1.05,0.1
	c0.033,0.067,0.083,0.101,0.15,0.101c0.267,0.1,0.533,0.25,0.8,0.45c0.633,0.533,1.417,1.033,2.35,1.5
	c0.467,0.267,0.917,0.517,1.35,0.75" style="stroke: rgb(0, 0, 0);"></path>
<path fill-rule="evenodd" clip-rule="evenodd" fill="none" stroke="#383635" stroke-width="0.3" stroke-linecap="round" stroke-linejoin="round" stroke-miterlimit="3" d="
	M9.979,7.425c0.066,0.134,0.133,0.284,0.2,0.45c0.067,0.2,0.217,0.517,0.45,0.95c0.167,0.4,0.35,0.767,0.55,1.1
	c0.2,0.301,0.15,0.667-0.15,1.101c-0.3,0.434-0.617,0.75-0.95,0.95c-0.333,0.166-0.833,0.55-1.5,1.149
	c-0.667,0.601-1.333,0.95-2,1.05c-0.667,0.101-1.133,0.2-1.4,0.301c-0.3,0.133-0.683-0.067-1.15-0.601
	c-0.433-0.5-0.783-1.05-1.05-1.649c-0.067-0.134-0.133-0.267-0.2-0.4c0,0.134,0,0.267,0,0.4c-0.066,1.733,0,3.533,0.2,5.399
	c0.033,0.334-0.117,0.667-0.45,1c0.2,0.733,0.684,1.101,1.45,1.101c2.167,0.1,4.3,0.166,6.4,0.199h16.15
	c2.1-0.033,4.233-0.1,6.4-0.199c0.767,0,1.25-0.367,1.45-1.101c-0.333-0.333-0.483-0.666-0.45-1c0.233-2.267,0.284-4.399,0.15-6.399
	c-0.233,0.333-0.417,0.666-0.55,1c-0.267,0.6-0.633,1.149-1.1,1.649c-0.433,0.533-0.8,0.733-1.1,0.601
	c-0.3-0.101-0.767-0.2-1.4-0.301c-0.667-0.1-1.35-0.449-2.05-1.05c-0.633-0.6-1.133-0.983-1.5-1.149c-0.3-0.2-0.6-0.517-0.9-0.95
	c-0.3-0.434-0.35-0.8-0.15-1.101c0.2-0.333,0.383-0.699,0.55-1.1c0.2-0.434,0.333-0.75,0.4-0.95c0.067-0.166,0.15-0.316,0.25-0.45" style="stroke: rgb(0, 0, 0);"></path>
<path fill-rule="evenodd" clip-rule="evenodd" fill="none" stroke="#383635" stroke-width="0.3" stroke-linecap="round" stroke-linejoin="round" stroke-miterlimit="3" d="
	M34.08,11.226c0.167-0.301,0.367-0.601,0.6-0.9c0.067-0.066,0.117-0.134,0.15-0.2c0.5-0.8,0.483-1.383-0.05-1.75
	c-0.066-0.033-0.133-0.066-0.2-0.1" style="stroke: rgb(0, 0, 0);"></path>
<path fill-rule="evenodd" clip-rule="evenodd" fill="none" stroke="#383635" stroke-width="0.3" stroke-linecap="round" stroke-linejoin="round" stroke-miterlimit="3" d="
	M35.83,8.075c0.167,0.1,0.316,0.184,0.45,0.25c0.233,0.233,0.4,0.616,0.5,1.15v8.149c0.033,0.334-0.117,0.667-0.45,1
	c-0.167,0.167-0.333,0.267-0.5,0.3c-0.167,1.067-0.867,1.667-2.1,1.801c-2.4,0.1-4.8,0.166-7.2,0.199h-16.15
	c-2.4-0.033-4.8-0.1-7.2-0.199c-1.233-0.134-1.933-0.733-2.1-1.801c-0.167-0.033-0.333-0.133-0.5-0.3
	c-0.333-0.333-0.483-0.666-0.45-1V9.476c0.1-0.534,0.267-0.917,0.5-1.15c0.133-0.066,0.267-0.15,0.4-0.25" style="stroke: rgb(0, 0, 0);"></path>
<path fill-rule="evenodd" clip-rule="evenodd" fill="none" stroke="#383635" stroke-width="0.3" stroke-linecap="round" stroke-linejoin="round" stroke-miterlimit="3" d="
	M35.83,18.925c-0.1,0.067-0.25,0.101-0.45,0.101h-0.1c-0.267,0-0.566-0.134-0.9-0.4" style="stroke: rgb(0, 0, 0);"></path>
<path fill-rule="evenodd" clip-rule="evenodd" fill="none" stroke="#383635" stroke-width="0.3" stroke-linecap="round" stroke-linejoin="round" stroke-miterlimit="3" d="
	M2.779,11.825c-0.233-0.467-0.55-0.967-0.95-1.5c-0.067-0.066-0.117-0.134-0.15-0.2c-0.5-0.8-0.483-1.383,0.05-1.75
	c0.133-0.066,0.283-0.133,0.45-0.2" style="stroke: rgb(0, 0, 0);"></path>
<path fill-rule="evenodd" clip-rule="evenodd" fill="none" stroke="#383635" stroke-width="0.3" stroke-linecap="round" stroke-linejoin="round" stroke-miterlimit="3" d="
	M2.529,18.625c-0.333,0.267-0.633,0.4-0.9,0.4h-0.1c-0.2,0-0.35-0.033-0.45-0.101" style="stroke: rgb(0, 0, 0);"></path>
</svg>