<svg version="1.1" id="Layer_1" xmlns="http://www.w3.org/2000/svg" xmlns:xlink="http://www.w3.org/1999/xlink" x="0px" y="0px" width="39.9px" height="20.399px" viewBox="0 0 39.9 20.399" enable-background="new 0 0 39.9 20.399" xml:space="preserve" class="ng-scope">
<path fill-rule="evenodd" clip-rule="evenodd" fill="#FFFFFF" d="M0.125,0.125h39.65v9.65c-0.033,0.233-0.134,0.417-0.3,0.55v5.5
	c0,1.434-0.717,2.149-2.15,2.149h-6.45v0.4c0,0.134-0.033,0.233-0.1,0.3c-0.101,0.1-0.2,0.15-0.3,0.15
	c-0.134,0-0.233-0.051-0.301-0.15c-0.1-0.066-0.149-0.166-0.149-0.3v-0.4h-1.65v0.45c0,0.666-0.316,1-0.95,1h-1.8
	c0,0.1-0.05,0.184-0.149,0.25c-0.067,0.1-0.167,0.15-0.301,0.15c-0.1,0-0.199-0.051-0.3-0.15c-0.066-0.066-0.1-0.15-0.1-0.25h-4.45
	v0.45c0,0.1-0.05,0.2-0.15,0.3c-0.066,0.066-0.166,0.1-0.3,0.1c-0.1,0-0.2-0.033-0.3-0.1c-0.066-0.1-0.1-0.2-0.1-0.3v-0.45h-4.051
	c0,0.1-0.05,0.184-0.149,0.25c-0.066,0.1-0.167,0.15-0.3,0.15c-0.101,0-0.2-0.051-0.301-0.15c-0.066-0.066-0.1-0.15-0.1-0.25h-1.9
	c-0.666,0-1-0.334-1-1v-0.45h-1.55v0.4c0,0.134-0.033,0.233-0.1,0.3c-0.101,0.1-0.2,0.15-0.3,0.15c-0.134,0-0.233-0.051-0.301-0.15
	c-0.1-0.066-0.149-0.166-0.149-0.3v-0.4h-6.65c-1.434,0-2.149-0.716-2.149-2.149v-5.5c-0.233-0.134-0.351-0.4-0.351-0.8V0.125z"></path>
<path fill-rule="evenodd" clip-rule="evenodd" fill="#FFFFFF" d="M0.476,10.325c0.166,0.1,0.383,0.149,0.649,0.149h4.75h0.9h3.899
	c0.634,0,0.967-0.316,1-0.95v-0.05c0-0.667,0.334-1,1-1h5.95h0.851h1.149h0.851h5.949c0.634,0,0.95,0.333,0.95,1v0.05
	c0.033,0.633,0.367,0.95,1,0.95h3.9h0.85h4.7c0.267,0,0.483-0.05,0.65-0.149c-0.167,0.1-0.384,0.149-0.65,0.149h-4.7h-0.85h-3.9
	c-0.633,0-0.967-0.316-1-0.95v-0.05c0-0.667-0.316-1-0.95-1h-5.949h-0.851h-1.149h-0.851h-5.95c-0.666,0-1,0.333-1,1v0.05
	c-0.033,0.633-0.366,0.95-1,0.95H6.775h-0.9h-4.75C0.858,10.475,0.642,10.425,0.476,10.325z"></path>
<path fill-rule="evenodd" clip-rule="evenodd" fill="#FFFFFF" d="M6.775,10.475c-0.033,0.101-0.084,0.184-0.15,0.25
	c-0.066,0.101-0.166,0.15-0.3,0.15s-0.233-0.05-0.3-0.15c-0.066-0.066-0.117-0.149-0.15-0.25c0.033,0.101,0.084,0.184,0.15,0.25
	c0.066,0.101,0.166,0.15,0.3,0.15s0.233-0.05,0.3-0.15C6.691,10.658,6.742,10.575,6.775,10.475z"></path>
<path fill-rule="evenodd" clip-rule="evenodd" fill="#FFFFFF" d="M10.125,17.975h-0.85H10.125z"></path>
<path fill-rule="evenodd" clip-rule="evenodd" fill="#FFFFFF" d="M21.476,8.475c-0.034,0.1-0.084,0.2-0.15,0.3
	c-0.066,0.066-0.167,0.1-0.3,0.1c-0.134,0-0.233-0.034-0.3-0.1c-0.067-0.1-0.101-0.2-0.101-0.3c0,0.1,0.033,0.2,0.101,0.3
	c0.066,0.066,0.166,0.1,0.3,0.1c0.133,0,0.233-0.034,0.3-0.1C21.392,8.675,21.441,8.575,21.476,8.475z"></path>
<path fill-rule="evenodd" clip-rule="evenodd" fill="#FFFFFF" d="M19.476,8.475c0,0.1-0.051,0.2-0.15,0.3
	c-0.066,0.066-0.167,0.1-0.3,0.1c-0.101,0-0.2-0.034-0.3-0.1c-0.067-0.1-0.101-0.2-0.101-0.3c0,0.1,0.033,0.2,0.101,0.3
	c0.1,0.066,0.199,0.1,0.3,0.1c0.133,0,0.233-0.034,0.3-0.1C19.425,8.675,19.476,8.575,19.476,8.475z"></path>
<path fill-rule="evenodd" clip-rule="evenodd" fill="#FFFFFF" d="M34.125,10.475c0,0.101-0.05,0.184-0.149,0.25
	c-0.067,0.101-0.167,0.15-0.301,0.15c-0.1,0-0.199-0.05-0.3-0.15c-0.066-0.066-0.1-0.149-0.1-0.25c0,0.101,0.033,0.184,0.1,0.25
	c0.101,0.101,0.2,0.15,0.3,0.15c0.134,0,0.233-0.05,0.301-0.15C34.075,10.658,34.125,10.575,34.125,10.475z"></path>
<path fill-rule="evenodd" clip-rule="evenodd" fill="#FFFFFF" d="M30.025,17.975h0.85H30.025z"></path>
<path fill-rule="evenodd" clip-rule="evenodd" fill="#FFFFFF" d="M25.625,19.425h-0.85H25.625z"></path>
<path fill-rule="evenodd" clip-rule="evenodd" fill="#FFFFFF" d="M15.425,19.425h-0.85H15.425z"></path>
<path fill-rule="evenodd" clip-rule="evenodd" fill="#FFFFFF" d="M20.325,19.425h-0.85H20.325z"></path>
<path fill-rule="evenodd" clip-rule="evenodd" fill="none" stroke="#383635" stroke-width="0.3" stroke-linecap="round" stroke-linejoin="round" stroke-miterlimit="3" d="
	M0.125,0.125h39.65v9.65c-0.033,0.233-0.134,0.417-0.3,0.55v5.5c0,1.434-0.717,2.149-2.15,2.149h-6.45v0.4
	c0,0.134-0.033,0.233-0.1,0.3c-0.101,0.1-0.2,0.15-0.3,0.15c-0.134,0-0.233-0.051-0.301-0.15c-0.1-0.066-0.149-0.166-0.149-0.3v-0.4
	h-1.65v0.45c0,0.666-0.316,1-0.95,1h-1.8c0,0.1-0.05,0.184-0.149,0.25c-0.067,0.1-0.167,0.15-0.301,0.15
	c-0.1,0-0.199-0.051-0.3-0.15c-0.066-0.066-0.1-0.15-0.1-0.25h-4.45v0.45c0,0.1-0.05,0.2-0.15,0.3c-0.066,0.066-0.166,0.1-0.3,0.1
	c-0.1,0-0.2-0.033-0.3-0.1c-0.066-0.1-0.1-0.2-0.1-0.3v-0.45h-4.051c0,0.1-0.05,0.184-0.149,0.25c-0.066,0.1-0.167,0.15-0.3,0.15
	c-0.101,0-0.2-0.051-0.301-0.15c-0.066-0.066-0.1-0.15-0.1-0.25h-1.9c-0.666,0-1-0.334-1-1v-0.45h-1.55v0.4
	c0,0.134-0.033,0.233-0.1,0.3c-0.101,0.1-0.2,0.15-0.3,0.15c-0.134,0-0.233-0.051-0.301-0.15c-0.1-0.066-0.149-0.166-0.149-0.3v-0.4
	h-6.65c-1.434,0-2.149-0.716-2.149-2.149v-5.5c-0.233-0.134-0.351-0.4-0.351-0.8V0.125z" style="stroke: rgb(0, 0, 0);"></path>
<path fill-rule="evenodd" clip-rule="evenodd" fill="none" stroke="#383635" stroke-width="0.3" stroke-linecap="round" stroke-linejoin="round" stroke-miterlimit="3" d="
	M0.476,10.325c0.166,0.1,0.383,0.149,0.649,0.149h4.75h0.9h3.899c0.634,0,0.967-0.316,1-0.95v-0.05c0-0.667,0.334-1,1-1h5.95h0.851
	h1.149h0.851h5.949c0.634,0,0.95,0.333,0.95,1v0.05c0.033,0.633,0.367,0.95,1,0.95h3.9h0.85h4.7c0.267,0,0.483-0.05,0.65-0.149" style="stroke: rgb(0, 0, 0);"></path>
<path fill-rule="evenodd" clip-rule="evenodd" fill="none" stroke="#383635" stroke-width="0.3" stroke-linecap="round" stroke-linejoin="round" stroke-miterlimit="3" d="
	M6.775,10.475c-0.033,0.101-0.084,0.184-0.15,0.25c-0.066,0.101-0.166,0.15-0.3,0.15s-0.233-0.05-0.3-0.15
	c-0.066-0.066-0.117-0.149-0.15-0.25" style="stroke: rgb(0, 0, 0);"></path>
<line fill-rule="evenodd" clip-rule="evenodd" fill="none" stroke="#383635" stroke-width="0.3" stroke-linecap="round" stroke-linejoin="round" stroke-miterlimit="3" x1="10.125" y1="17.975" x2="9.275" y2="17.975" style="stroke: rgb(0, 0, 0);"></line>
<path fill-rule="evenodd" clip-rule="evenodd" fill="none" stroke="#383635" stroke-width="0.3" stroke-linecap="round" stroke-linejoin="round" stroke-miterlimit="3" d="
	M21.476,8.475c-0.034,0.1-0.084,0.2-0.15,0.3c-0.066,0.066-0.167,0.1-0.3,0.1c-0.134,0-0.233-0.034-0.3-0.1
	c-0.067-0.1-0.101-0.2-0.101-0.3" style="stroke: rgb(0, 0, 0);"></path>
<path fill-rule="evenodd" clip-rule="evenodd" fill="none" stroke="#383635" stroke-width="0.3" stroke-linecap="round" stroke-linejoin="round" stroke-miterlimit="3" d="
	M19.476,8.475c0,0.1-0.051,0.2-0.15,0.3c-0.066,0.066-0.167,0.1-0.3,0.1c-0.101,0-0.2-0.034-0.3-0.1c-0.067-0.1-0.101-0.2-0.101-0.3
	" style="stroke: rgb(0, 0, 0);"></path>
<path fill-rule="evenodd" clip-rule="evenodd" fill="none" stroke="#383635" stroke-width="0.3" stroke-linecap="round" stroke-linejoin="round" stroke-miterlimit="3" d="
	M34.125,10.475c0,0.101-0.05,0.184-0.149,0.25c-0.067,0.101-0.167,0.15-0.301,0.15c-0.1,0-0.199-0.05-0.3-0.15
	c-0.066-0.066-0.1-0.149-0.1-0.25" style="stroke: rgb(0, 0, 0);"></path>
<line fill-rule="evenodd" clip-rule="evenodd" fill="none" stroke="#383635" stroke-width="0.3" stroke-linecap="round" stroke-linejoin="round" stroke-miterlimit="3" x1="30.025" y1="17.975" x2="30.875" y2="17.975" style="stroke: rgb(0, 0, 0);"></line>
<line fill-rule="evenodd" clip-rule="evenodd" fill="none" stroke="#383635" stroke-width="0.3" stroke-linecap="round" stroke-linejoin="round" stroke-miterlimit="3" x1="25.625" y1="19.425" x2="24.775" y2="19.425" style="stroke: rgb(0, 0, 0);"></line>
<line fill-rule="evenodd" clip-rule="evenodd" fill="none" stroke="#383635" stroke-width="0.3" stroke-linecap="round" stroke-linejoin="round" stroke-miterlimit="3" x1="15.425" y1="19.425" x2="14.575" y2="19.425" style="stroke: rgb(0, 0, 0);"></line>
<line fill-rule="evenodd" clip-rule="evenodd" fill="none" stroke="#383635" stroke-width="0.3" stroke-linecap="round" stroke-linejoin="round" stroke-miterlimit="3" x1="20.325" y1="19.425" x2="19.476" y2="19.425" style="stroke: rgb(0, 0, 0);"></line>
</svg>