<svg version="1.1" id="Layer_1" xmlns="http://www.w3.org/2000/svg" xmlns:xlink="http://www.w3.org/1999/xlink" x="0px" y="0px" width="28.83px" height="28.83px" viewBox="0 2.15 28.83 28.83" enable-background="new 0 2.15 28.83 28.83" xml:space="preserve">
	<path d="M9.09,11.29h0.09h11.37c0,0,3.82,4.14,3.63,7.69c-0.2,3.55-3.84,7.97-3.84,7.97H9.78
		c0,0-4-3.69-3.84-8.47" fill="#FFFFFF"></path>
	<path fill="#FFFFFF" stroke="#000000" stroke-miterlimit="10" d="M18.29,18.46l0.19-0.07l0.11-0.11l0.11,0.04
		l0.08-0.04l0.11,0.08l3.97,0.9c0.79,0.34,1.13,0.83,1.01,1.46c-0.11,0.53-0.38,0.98-0.83,1.39c-0.45,0.38-0.9,0.53-1.39,0.45
		c-0.26-0.04-1.43-0.53-3.56-1.54c-0.26-0.04-0.45-0.15-0.53-0.3c-0.11-0.11-0.11-0.41,0-0.82l-0.67-0.26
		c0.11-0.26,0.15-0.52,0.11-0.79c0-0.04,0-0.07,0-0.11c0.56,0.3,0.83,0.38,0.86,0.26L18.29,18.46 M14.02,12.68l0.26-0.79l1.65-0.07
		c0.26,0.19,0.41,0.49,0.41,0.82l-0.3,0.71c0.04,0.19-0.04,0.38-0.22,0.56l-0.38,0.04v2.51c-0.11-0.04-0.26-0.04-0.41-0.04
		c-0.04,0-0.07,0-0.11,0v-2.48h-0.3c-0.26-0.19-0.38-0.41-0.3-0.64L14.02,12.68z M18.22,12.64c0.64-0.56,1.31-0.67,1.95-0.38
		c0.53,0.26,0.9,0.64,1.16,1.13s0.3,0.94,0.08,1.31l-2.81,2.44l-0.08,0.04l-0.11,0.11c-0.04,0.04-0.08,0.04-0.11,0.07l-0.19,0.11
		c-0.19,0.04-0.49-0.04-0.9-0.26l-0.64,0.56l-0.11-0.04c-0.04-0.04-0.04-0.04-0.08-0.07c-0.23-0.15-0.45-0.26-0.71-0.34
		c0.56-0.38,0.79-0.6,0.68-0.67L15.9,16.2v-0.15c-0.08-0.11-0.11-0.19-0.08-0.23h0.04l-0.04-0.11l0.15-0.08L18.22,12.64z
		 M13.76,21.61l0.08-0.22c0.11-0.11,0.41-0.23,0.86-0.3l0.11-0.45c0.15,0,0.3,0,0.45,0c0.19-0.04,0.34-0.04,0.49-0.07
		c-0.08,0.34-0.04,0.52,0.08,0.52l0.67,0.15l0.08,0.08c0.11,0.04,0.19,0.08,0.19,0.15l0.11,0.07c0.08,0.11,0.04,0.19-0.07,0.23
		l0.34,3.52c-0.11,0.79-0.53,1.2-1.28,1.31l-1.72-0.26c-0.56-0.22-0.86-0.56-0.98-1.01l0.52-3.38l-0.04-0.04l0.07-0.22
		C13.72,21.64,13.72,21.64,13.76,21.61z M13.83,19.62c-0.08-0.07-0.11-0.15-0.15-0.23c-0.04-0.11-0.08-0.26-0.08-0.38
		c-0.04-0.34,0.08-0.67,0.38-0.97c0.26-0.26,0.6-0.41,1.01-0.45s0.79,0.08,1.09,0.34c0.34,0.23,0.49,0.52,0.52,0.9
		c0.04,0.38-0.07,0.71-0.34,0.98c-0.23,0.23-0.49,0.38-0.79,0.41c-0.07,0.04-0.15,0.04-0.26,0.04c-0.04,0-0.04,0-0.07,0
		c-0.41,0-0.75-0.11-1.05-0.34C13.98,19.84,13.87,19.73,13.83,19.62z M13.16,19.06c0.04,0.23,0.08,0.45,0.19,0.64
		c-0.38,0.04-0.52,0.07-0.49,0.19l0.07,0.68v0.04c-0.04,0.11-0.07,0.19-0.15,0.23l-0.11,0.15h-0.23l-3.68,1.39
		c-0.9,0.15-1.5-0.04-1.84-0.6c-0.3-0.49-0.41-0.98-0.3-1.5c0.04-0.56,0.3-0.94,0.75-1.13l3.9-0.71V18.4h0.23c0.04,0,0.04,0,0.07,0
		h0.3l0.56,0.6l0.71-0.08C13.16,18.94,13.16,19.02,13.16,19.06z M9.33,12.87c0.45-0.38,0.98-0.6,1.58-0.71
		c0.64-0.11,1.13,0,1.46,0.34c0.19,0.11,0.79,1.13,1.88,3.04h0.04c0.15,0.19,0.23,0.34,0.19,0.49c0,0.19-0.15,0.41-0.49,0.68
		l0.41,0.71c-0.26,0.08-0.53,0.23-0.75,0.41l-0.04,0.04c-0.22-0.49-0.41-0.68-0.53-0.6l-0.64,0.3l-0.26-0.04h-0.11l-0.04-0.04
		l-0.08-0.04v-0.08L9.21,14.6C8.77,13.88,8.81,13.32,9.33,12.87z M9.26,10.62c-0.71,0.41-1.39,1.01-1.99,1.76
		c-1.35,1.76-2.02,3.86-2.02,6.34s0.68,4.58,2.02,6.3c0.71,0.86,1.5,1.54,2.36,1.99h10.61c0.86-0.45,1.61-1.13,2.33-1.99
		c1.39-1.72,2.06-3.82,2.06-6.3s-0.68-4.58-2.06-6.34c-0.56-0.75-1.24-1.35-1.99-1.76c-0.04-0.04-0.04-0.04-0.07-0.04H9.29
		C9.26,10.58,9.26,10.58,9.26,10.62z"></path>
	<path fill="#FFFFFF" d="M18.29,18.46l0.19-0.07l0.11-0.11l0.11,0.04l0.08-0.04l0.11,0.08l3.97,0.9
		c0.79,0.34,1.13,0.83,1.01,1.46c-0.11,0.53-0.38,0.98-0.83,1.39c-0.45,0.38-0.9,0.53-1.39,0.45c-0.26-0.04-1.43-0.53-3.56-1.54
		c-0.26-0.04-0.45-0.15-0.53-0.3c-0.11-0.11-0.11-0.41,0-0.82l-0.67-0.26c0.11-0.26,0.15-0.52,0.11-0.79c0-0.04,0-0.07,0-0.11
		c0.56,0.3,0.83,0.38,0.86,0.26L18.29,18.46 M14.02,12.68l0.26-0.79l1.65-0.07c0.26,0.19,0.41,0.49,0.41,0.82l-0.3,0.71
		c0.04,0.19-0.04,0.38-0.22,0.56l-0.38,0.04v2.51c-0.11-0.04-0.26-0.04-0.41-0.04c-0.04,0-0.07,0-0.11,0v-2.48h-0.3
		c-0.26-0.19-0.38-0.41-0.3-0.64L14.02,12.68z M18.22,12.64c0.64-0.56,1.31-0.67,1.95-0.38c0.53,0.26,0.9,0.64,1.16,1.13
		s0.3,0.94,0.08,1.31l-2.81,2.44l-0.08,0.04l-0.11,0.11c-0.04,0.04-0.08,0.04-0.11,0.07l-0.19,0.11c-0.19,0.04-0.49-0.04-0.9-0.26
		l-0.64,0.56l-0.11-0.04c-0.04-0.04-0.04-0.04-0.08-0.07c-0.23-0.15-0.45-0.26-0.71-0.34c0.56-0.38,0.79-0.6,0.68-0.67L15.9,16.2
		v-0.15c-0.08-0.11-0.11-0.19-0.08-0.23h0.04l-0.04-0.11l0.15-0.08L18.22,12.64z M13.76,21.61l0.08-0.22
		c0.11-0.11,0.41-0.23,0.86-0.3l0.11-0.45c0.15,0,0.3,0,0.45,0c0.19-0.04,0.34-0.04,0.49-0.07c-0.08,0.34-0.04,0.52,0.08,0.52
		l0.67,0.15l0.08,0.08c0.11,0.04,0.19,0.08,0.19,0.15l0.11,0.07c0.08,0.11,0.04,0.19-0.07,0.23l0.34,3.52
		c-0.11,0.79-0.53,1.2-1.28,1.31l-1.72-0.26c-0.56-0.22-0.86-0.56-0.98-1.01l0.52-3.38l-0.04-0.04l0.07-0.22
		C13.72,21.64,13.72,21.64,13.76,21.61z M13.83,19.62c-0.08-0.07-0.11-0.15-0.15-0.23c-0.04-0.11-0.08-0.26-0.08-0.38
		c-0.04-0.34,0.08-0.67,0.38-0.97c0.26-0.26,0.6-0.41,1.01-0.45s0.79,0.08,1.09,0.34c0.34,0.23,0.49,0.52,0.52,0.9
		c0.04,0.38-0.07,0.71-0.34,0.98c-0.23,0.23-0.49,0.38-0.79,0.41c-0.07,0.04-0.15,0.04-0.26,0.04c-0.04,0-0.04,0-0.07,0
		c-0.41,0-0.75-0.11-1.05-0.34C13.98,19.84,13.87,19.73,13.83,19.62z M13.16,19.06c0.04,0.23,0.08,0.45,0.19,0.64
		c-0.38,0.04-0.52,0.07-0.49,0.19l0.07,0.68v0.04c-0.04,0.11-0.07,0.19-0.15,0.23l-0.11,0.15h-0.23l-3.68,1.39
		c-0.9,0.15-1.5-0.04-1.84-0.6c-0.3-0.49-0.41-0.98-0.3-1.5c0.04-0.56,0.3-0.94,0.75-1.13l3.9-0.71V18.4h0.23c0.04,0,0.04,0,0.07,0
		h0.3l0.56,0.6l0.71-0.08C13.16,18.94,13.16,19.02,13.16,19.06z M9.33,12.87c0.45-0.38,0.98-0.6,1.58-0.71
		c0.64-0.11,1.13,0,1.46,0.34c0.19,0.11,0.79,1.13,1.88,3.04h0.04c0.15,0.19,0.23,0.34,0.19,0.49c0,0.19-0.15,0.41-0.49,0.68
		l0.41,0.71c-0.26,0.08-0.53,0.23-0.75,0.41l-0.04,0.04c-0.22-0.49-0.41-0.68-0.53-0.6l-0.64,0.3l-0.26-0.04h-0.11l-0.04-0.04
		l-0.08-0.04v-0.08L9.21,14.6C8.77,13.88,8.81,13.32,9.33,12.87z M9.26,10.62c-0.71,0.41-1.39,1.01-1.99,1.76
		c-1.35,1.76-2.02,3.86-2.02,6.34s0.68,4.58,2.02,6.3c0.71,0.86,1.5,1.54,2.36,1.99h10.61c0.86-0.45,1.61-1.13,2.33-1.99
		c1.39-1.72,2.06-3.82,2.06-6.3s-0.68-4.58-2.06-6.34c-0.56-0.75-1.24-1.35-1.99-1.76c-0.04-0.04-0.04-0.04-0.07-0.04H9.29
		C9.26,10.58,9.26,10.58,9.26,10.62z"></path>
</g>
</svg>