<svg version="1.1" id="Layer_1" xmlns="http://www.w3.org/2000/svg" xmlns:xlink="http://www.w3.org/1999/xlink" x="0px" y="0px" width="17.74px" height="16.9px" viewBox="0 0 17.74 16.9" enable-background="new 0 0 17.74 16.9" xml:space="preserve" class="ng-scope">
<path fill-rule="evenodd" clip-rule="evenodd" fill="#FFFFFF" d="M11.964,2.975l0.25-1.05l0.35-1.5c1.4,0.233,2.533,0.534,3.4,0.9
	l-0.4,1.6l-2.2,3.101c-0.433-0.033-0.916-0.084-1.449-0.15c-0.067,0-0.15,0-0.25,0v0.4h1.35c0.167,0,0.316,0.033,0.45,0.1
	c0-0.2,0.1-0.367,0.3-0.5s0.417-0.166,0.65-0.1c1.866,6.033,2.899,9.333,3.1,9.899c0.134,0.366,0.134,0.667,0,0.9l-0.3,0.2h-1.95
	c-0.134,0-0.267-0.084-0.4-0.25l-0.199-0.301c-0.101-0.833-0.25-2.184-0.45-4.05c-0.033-0.033-0.033-0.066,0-0.1
	c-0.033-0.2-0.066-0.4-0.101-0.601v0.601h-2.449v0.35h2.449v1.7h-2.449v0.35h2.449v0.801c0,0.3-0.116,0.566-0.35,0.8
	c-0.2,0.2-0.45,0.3-0.75,0.3h-8.35c-0.334,0-0.601-0.1-0.801-0.3c-0.233-0.233-0.35-0.5-0.35-0.8v-0.801h2.15v-0.35h-2.15v-1.6
	c-0.2,1.699-0.35,2.934-0.45,3.699l-0.2,0.301c-0.133,0.166-0.25,0.25-0.35,0.25h-2l-0.25-0.2c-0.167-0.233-0.184-0.534-0.05-0.9
	c0.2-0.566,1.233-3.866,3.1-9.899c0.167-0.033,0.316-0.033,0.45,0c0.066,0.033,0.134,0.066,0.2,0.1s0.133,0.084,0.2,0.15
	c0.066,0.066,0.1,0.166,0.1,0.3c0.134-0.034,0.267-0.05,0.4-0.05h1v-0.4c-0.367,0.033-0.7,0.066-1,0.1l-0.4,0.051V5.975l-2.4-3.1
	l-0.399-1.5c1-0.367,2.083-0.666,3.25-0.9l0.35,1.5l0.25,1.051c0.134-0.033,0.25-0.051,0.351-0.051l-0.25-1.05l-0.351-1.5
	c1.101-0.2,2.25-0.3,3.45-0.3v1.45v1.1c0.066,0,0.15,0,0.25,0c0.033,0,0.066,0,0.1,0v-1.1v-1.45c1.101,0,2.217,0.084,3.351,0.25
	l-0.351,1.45l-0.25,1.1C11.714,2.925,11.831,2.941,11.964,2.975l-0.15,0.601c-0.133-0.034-0.25-0.067-0.35-0.101l-0.601,2.351
	c-0.566-0.034-1.233-0.05-2-0.05v-2.45c-0.033,0-0.066,0-0.1,0c-0.1,0-0.184,0-0.25,0v2.45c-0.634,0-1.35,0.016-2.15,0.05l-0.55-2.3
	L5.665,2.975l0.149,0.551c-0.133,0.033-0.25,0.066-0.35,0.1l0.45,1.9l0.05,0.05v0.3h-0.05c-0.101,0-0.184,0-0.25,0
	c0.066,0,0.149,0,0.25,0h0.05v-0.3l0.05,0.3h-0.05l0.05,0.4h5.2l0.05-0.45l0.55-2.25L11.964,2.975z"></path>
<path fill-rule="evenodd" clip-rule="evenodd" fill="#FFFFFF" d="M11.264,5.825c0.066,0,0.116,0.017,0.15,0.05h0.05
	c0.066,0,0.133,0,0.2,0c-0.067,0-0.134,0-0.2,0h-0.05C11.38,5.842,11.331,5.825,11.264,5.825z"></path>
<path fill-rule="evenodd" clip-rule="evenodd" fill="#FFFFFF" d="M5.314,3.025l0.15,0.6L5.314,3.025z"></path>
<path fill-rule="evenodd" clip-rule="evenodd" fill="#FFFFFF" d="M11.464,3.475l0.149-0.55L11.464,3.475z"></path>
<path fill-rule="evenodd" clip-rule="evenodd" fill="#FFFFFF" d="M13.714,8.325c0.066,0.6,0.133,1.167,0.2,1.7
	C13.847,9.492,13.781,8.925,13.714,8.325c-0.033-0.101-0.05-0.217-0.05-0.351c-0.067-0.5-0.134-1.016-0.2-1.55v-0.05v0.05
	c0.066,0.534,0.133,1.05,0.2,1.55h-2h-0.45h0.45v0.351H13.714z"></path>
<polygon fill-rule="evenodd" clip-rule="evenodd" fill="#FFFFFF" points="11.214,10.025 6.014,10.025 6.014,10.375 11.214,10.375 
	11.214,10.025 11.665,10.025 "></polygon>
<path fill-rule="evenodd" clip-rule="evenodd" fill="#FFFFFF" d="M13.915,10.025h-2.25v0.35h2.3c0.066,0.4,0.116,0.767,0.149,1.1
	c-0.033-0.333-0.083-0.699-0.149-1.1C13.964,10.275,13.948,10.158,13.915,10.025z"></path>
<polygon fill-rule="evenodd" clip-rule="evenodd" fill="#FFFFFF" points="11.214,8.325 11.665,8.325 11.214,8.325 11.214,7.975 
	6.014,7.975 5.665,7.975 6.014,7.975 6.014,8.325 "></polygon>
<path fill-rule="evenodd" clip-rule="evenodd" fill="#FFFFFF" d="M11.214,6.275h0.45H11.214z"></path>
<path fill-rule="evenodd" clip-rule="evenodd" fill="#FFFFFF" d="M11.665,10.375h-0.45H11.665z"></path>
<polygon fill-rule="evenodd" clip-rule="evenodd" fill="#FFFFFF" points="11.214,12.075 11.665,12.075 11.214,12.075 6.014,12.075 
	6.014,12.425 11.214,12.425 "></polygon>
<path fill-rule="evenodd" clip-rule="evenodd" fill="#FFFFFF" d="M15.564,2.925c-1.033-0.466-2.149-0.8-3.35-1
	C13.415,2.125,14.531,2.459,15.564,2.925z"></path>
<polygon fill-rule="evenodd" clip-rule="evenodd" fill="#FFFFFF" points="11.214,14.125 11.665,14.125 11.214,14.125 6.014,14.125 
	6.014,14.475 11.214,14.475 "></polygon>
<path fill-rule="evenodd" clip-rule="evenodd" fill="#FFFFFF" d="M11.214,14.475h0.45H11.214z"></path>
<path fill-rule="evenodd" clip-rule="evenodd" fill="#FFFFFF" d="M11.214,12.425h0.45H11.214z"></path>
<path fill-rule="evenodd" clip-rule="evenodd" fill="#FFFFFF" d="M8.514,3.325v-0.65V3.325z"></path>
<path fill-rule="evenodd" clip-rule="evenodd" fill="#FFFFFF" d="M8.864,3.325v-0.65V3.325z"></path>
<path fill-rule="evenodd" clip-rule="evenodd" fill="#FFFFFF" d="M8.514,1.575c-1.033,0-2.066,0.116-3.1,0.35
	C6.448,1.691,7.481,1.575,8.514,1.575z"></path>
<path fill-rule="evenodd" clip-rule="evenodd" fill="#FFFFFF" d="M4.064,8.325c-0.1,0.6-0.184,1.167-0.25,1.7
	C3.88,9.492,3.964,8.925,4.064,8.325h1.601V7.975H4.114C4.081,8.108,4.064,8.225,4.064,8.325z"></path>
<path fill-rule="evenodd" clip-rule="evenodd" fill="#FFFFFF" d="M3.764,10.375c-0.066,0.6-0.134,1.166-0.2,1.7
	C3.63,11.541,3.698,10.975,3.764,10.375h1.9v-0.35H3.814C3.814,10.158,3.797,10.275,3.764,10.375z"></path>
<path fill-rule="evenodd" clip-rule="evenodd" fill="#FFFFFF" d="M4.114,7.975c0.034-0.5,0.084-1.016,0.15-1.55
	c0-0.033,0-0.066,0-0.1c0,0.033,0,0.066,0,0.1C4.198,6.959,4.148,7.475,4.114,7.975z"></path>
<path fill-rule="evenodd" clip-rule="evenodd" fill="#FFFFFF" d="M3.564,12.075c0,0.1-0.017,0.216-0.05,0.35h2.15v-0.35h0.35h-0.35
	H3.564z"></path>
<path fill-rule="evenodd" clip-rule="evenodd" fill="#FFFFFF" d="M6.014,6.275h-0.35H6.014z"></path>
<path fill-rule="evenodd" clip-rule="evenodd" fill="#FFFFFF" d="M6.014,8.325h-0.35H6.014z"></path>
<path fill-rule="evenodd" clip-rule="evenodd" fill="#FFFFFF" d="M6.014,10.375h-0.35H6.014z"></path>
<path fill-rule="evenodd" clip-rule="evenodd" fill="#FFFFFF" d="M5.665,10.025h0.35H5.665z"></path>
<path fill-rule="evenodd" clip-rule="evenodd" fill="#FFFFFF" d="M1.864,2.875c1.167-0.367,2.233-0.666,3.2-0.9
	C4.097,2.209,3.031,2.508,1.864,2.875z"></path>
<path fill-rule="evenodd" clip-rule="evenodd" fill="#FFFFFF" d="M6.014,14.125h-0.35H6.014z"></path>
<path fill-rule="evenodd" clip-rule="evenodd" fill="#FFFFFF" d="M5.665,14.475h0.35H5.665z"></path>
<path fill-rule="evenodd" clip-rule="evenodd" fill="#FFFFFF" d="M5.665,12.425h0.35H5.665z"></path>
<path fill-rule="evenodd" clip-rule="evenodd" fill="#FFFFFF" d="M3.514,12.425v0.101V12.425z"></path>
<path fill-rule="evenodd" clip-rule="evenodd" fill="#FFFFFF" d="M8.864,1.575c0.967,0,1.967,0.083,3,0.25
	C10.831,1.658,9.831,1.575,8.864,1.575z"></path>
<path fill-rule="evenodd" clip-rule="evenodd" fill="none" stroke="#383635" stroke-width="0.3" d="M11.964,2.975l0.25-1.05
	l0.35-1.5c1.4,0.233,2.533,0.534,3.4,0.9l-0.4,1.6l-2.2,3.101c-0.433-0.033-0.916-0.084-1.449-0.15c-0.067,0-0.15,0-0.25,0v0.4h1.35
	c0.167,0,0.316,0.033,0.45,0.1c0-0.2,0.1-0.367,0.3-0.5s0.417-0.166,0.65-0.1c1.866,6.033,2.899,9.333,3.1,9.899
	c0.134,0.366,0.134,0.667,0,0.9l-0.3,0.2h-1.95c-0.134,0-0.267-0.084-0.4-0.25l-0.199-0.301c-0.101-0.833-0.25-2.184-0.45-4.05
	c-0.033-0.033-0.033-0.066,0-0.1c-0.033-0.2-0.066-0.4-0.101-0.601v0.601h-2.449v0.35h2.449v1.7h-2.449v0.35h2.449v0.801
	c0,0.3-0.116,0.566-0.35,0.8c-0.2,0.2-0.45,0.3-0.75,0.3h-8.35c-0.334,0-0.601-0.1-0.801-0.3c-0.233-0.233-0.35-0.5-0.35-0.8v-0.801
	h2.15v-0.35h-2.15v-1.6c-0.2,1.699-0.35,2.934-0.45,3.699l-0.2,0.301c-0.133,0.166-0.25,0.25-0.35,0.25h-2l-0.25-0.2
	c-0.167-0.233-0.184-0.534-0.05-0.9c0.2-0.566,1.233-3.866,3.1-9.899c0.167-0.033,0.316-0.033,0.45,0
	c0.066,0.033,0.134,0.066,0.2,0.1s0.133,0.084,0.2,0.15c0.066,0.066,0.1,0.166,0.1,0.3c0.134-0.034,0.267-0.05,0.4-0.05h1v-0.4
	c-0.367,0.033-0.7,0.066-1,0.1l-0.4,0.051V5.975l-2.4-3.1l-0.399-1.5c1-0.367,2.083-0.666,3.25-0.9l0.35,1.5l0.25,1.051" style="stroke: rgb(0, 0, 0);"></path>
<path fill-rule="evenodd" clip-rule="evenodd" fill="none" stroke="#383635" stroke-width="0.3" d="M5.665,2.975l-0.25-1.05
	l-0.351-1.5c1.101-0.2,2.25-0.3,3.45-0.3v1.45v1.1" style="stroke: rgb(0, 0, 0);"></path>
<path fill-rule="evenodd" clip-rule="evenodd" fill="none" stroke="#383635" stroke-width="0.3" d="M8.864,2.675v-1.1v-1.45
	c1.101,0,2.217,0.084,3.351,0.25l-0.351,1.45l-0.25,1.1" style="stroke: rgb(0, 0, 0);"></path>
<line fill-rule="evenodd" clip-rule="evenodd" fill="none" stroke="#383635" stroke-width="0.3" x1="11.814" y1="3.575" x2="11.964" y2="2.975" style="stroke: rgb(0, 0, 0);"></line>
<path fill-rule="evenodd" clip-rule="evenodd" fill="none" stroke="#383635" stroke-width="0.3" d="M11.264,5.825
	c0.066,0,0.116,0.017,0.15,0.05h0.05c0.066,0,0.133,0,0.2,0" style="stroke: rgb(0, 0, 0);"></path>
<path fill-rule="evenodd" clip-rule="evenodd" fill="none" stroke="#383635" stroke-width="0.3" d="M8.864,3.325v2.45
	c0.767,0,1.434,0.016,2,0.05l0.601-2.351l0.149-0.55" style="stroke: rgb(0, 0, 0);"></path>
<polyline fill-rule="evenodd" clip-rule="evenodd" fill="none" stroke="#383635" stroke-width="0.3" points="11.814,3.575 
	11.264,5.825 11.214,6.275 11.665,6.275 " style="stroke: rgb(0, 0, 0);"></polyline>
<path fill-rule="evenodd" clip-rule="evenodd" fill="none" stroke="#383635" stroke-width="0.3" d="M13.665,7.975
	c-0.067-0.5-0.134-1.016-0.2-1.55v-0.05" style="stroke: rgb(0, 0, 0);"></path>
<path fill-rule="evenodd" clip-rule="evenodd" fill="none" stroke="#383635" stroke-width="0.3" d="M13.665,7.975
	c0,0.134,0.017,0.25,0.05,0.351c0.066,0.6,0.133,1.167,0.2,1.7c0.033,0.133,0.05,0.25,0.05,0.35c0.066,0.4,0.116,0.767,0.149,1.1" style="stroke: rgb(0, 0, 0);"></path>
<rect x="11.214" y="7.975" fill-rule="evenodd" clip-rule="evenodd" fill="none" stroke="#383635" stroke-width="0.3" width="0.45" height="0.351" style="stroke: rgb(0, 0, 0);"></rect>
<polyline fill-rule="evenodd" clip-rule="evenodd" fill="none" stroke="#383635" stroke-width="0.3" points="11.214,10.025 
	6.014,10.025 6.014,10.375 11.214,10.375 11.214,10.025 11.665,10.025 " style="stroke: rgb(0, 0, 0);"></polyline>
<polyline fill-rule="evenodd" clip-rule="evenodd" fill="none" stroke="#383635" stroke-width="0.3" points="13.915,10.025 
	11.665,10.025 11.665,10.375 13.964,10.375 " style="stroke: rgb(0, 0, 0);"></polyline>
<line fill-rule="evenodd" clip-rule="evenodd" fill="none" stroke="#383635" stroke-width="0.3" x1="11.665" y1="10.375" x2="11.214" y2="10.375" style="stroke: rgb(0, 0, 0);"></line>
<line fill-rule="evenodd" clip-rule="evenodd" fill="none" stroke="#383635" stroke-width="0.3" x1="11.214" y1="12.075" x2="11.665" y2="12.075" style="stroke: rgb(0, 0, 0);"></line>
<line fill-rule="evenodd" clip-rule="evenodd" fill="none" stroke="#383635" stroke-width="0.3" x1="11.665" y1="7.975" x2="13.665" y2="7.975" style="stroke: rgb(0, 0, 0);"></line>
<line fill-rule="evenodd" clip-rule="evenodd" fill="none" stroke="#383635" stroke-width="0.3" x1="13.714" y1="8.325" x2="11.665" y2="8.325" style="stroke: rgb(0, 0, 0);"></line>
<path fill-rule="evenodd" clip-rule="evenodd" fill="none" stroke="#383635" stroke-width="0.3" d="M15.564,2.925
	c-1.033-0.466-2.149-0.8-3.35-1" style="stroke: rgb(0, 0, 0);"></path>
<line fill-rule="evenodd" clip-rule="evenodd" fill="none" stroke="#383635" stroke-width="0.3" x1="11.214" y1="14.125" x2="11.665" y2="14.125" style="stroke: rgb(0, 0, 0);"></line>
<line fill-rule="evenodd" clip-rule="evenodd" fill="none" stroke="#383635" stroke-width="0.3" x1="11.214" y1="14.475" x2="11.665" y2="14.475" style="stroke: rgb(0, 0, 0);"></line>
<line fill-rule="evenodd" clip-rule="evenodd" fill="none" stroke="#383635" stroke-width="0.3" x1="11.214" y1="12.425" x2="11.665" y2="12.425" style="stroke: rgb(0, 0, 0);"></line>
<rect x="6.014" y="14.125" fill-rule="evenodd" clip-rule="evenodd" fill="none" stroke="#383635" stroke-width="0.3" width="5.2" height="0.35" style="stroke: rgb(0, 0, 0);"></rect>
<rect x="6.014" y="12.075" fill-rule="evenodd" clip-rule="evenodd" fill="none" stroke="#383635" stroke-width="0.3" width="5.2" height="0.35" style="stroke: rgb(0, 0, 0);"></rect>
<line fill-rule="evenodd" clip-rule="evenodd" fill="none" stroke="#383635" stroke-width="0.3" x1="5.814" y1="3.525" x2="5.665" y2="2.975" style="stroke: rgb(0, 0, 0);"></line>
<line fill-rule="evenodd" clip-rule="evenodd" fill="none" stroke="#383635" stroke-width="0.3" x1="5.464" y1="3.625" x2="5.314" y2="3.025" style="stroke: rgb(0, 0, 0);"></line>
<path fill-rule="evenodd" clip-rule="evenodd" fill="none" stroke="#383635" stroke-width="0.3" d="M5.665,5.875
	c0.066,0,0.149,0,0.25,0h0.05v-0.3l-0.05-0.05l-0.45-1.9" style="stroke: rgb(0, 0, 0);"></path>
<path fill-rule="evenodd" clip-rule="evenodd" fill="none" stroke="#383635" stroke-width="0.3" d="M5.814,3.525l0.55,2.3
	c0.801-0.034,1.517-0.05,2.15-0.05v-2.45v-0.65" style="stroke: rgb(0, 0, 0);"></path>
<polyline fill-rule="evenodd" clip-rule="evenodd" fill="none" stroke="#383635" stroke-width="0.3" points="5.964,5.875 
	6.014,5.875 5.964,5.575 " style="stroke: rgb(0, 0, 0);"></polyline>
<line fill-rule="evenodd" clip-rule="evenodd" fill="none" stroke="#383635" stroke-width="0.3" x1="8.864" y1="3.325" x2="8.864" y2="2.675" style="stroke: rgb(0, 0, 0);"></line>
<path fill-rule="evenodd" clip-rule="evenodd" fill="none" stroke="#383635" stroke-width="0.3" d="M8.514,1.575
	c-1.033,0-2.066,0.116-3.1,0.35" style="stroke: rgb(0, 0, 0);"></path>
<path fill-rule="evenodd" clip-rule="evenodd" fill="none" stroke="#383635" stroke-width="0.3" d="M4.064,8.325h1.601V7.975H4.114
	C4.081,8.108,4.064,8.225,4.064,8.325c-0.1,0.6-0.184,1.167-0.25,1.7" style="stroke: rgb(0, 0, 0);"></path>
<path fill-rule="evenodd" clip-rule="evenodd" fill="none" stroke="#383635" stroke-width="0.3" d="M4.114,7.975
	c0.034-0.5,0.084-1.016,0.15-1.55c0-0.033,0-0.066,0-0.1" style="stroke: rgb(0, 0, 0);"></path>
<path fill-rule="evenodd" clip-rule="evenodd" fill="none" stroke="#383635" stroke-width="0.3" d="M3.764,10.375h1.9v-0.35H3.814
	C3.814,10.158,3.797,10.275,3.764,10.375c-0.066,0.6-0.134,1.166-0.2,1.7h2.101h0.35" style="stroke: rgb(0, 0, 0);"></path>
<line fill-rule="evenodd" clip-rule="evenodd" fill="none" stroke="#383635" stroke-width="0.3" x1="6.014" y1="6.275" x2="5.665" y2="6.275" style="stroke: rgb(0, 0, 0);"></line>
<polyline fill-rule="evenodd" clip-rule="evenodd" fill="none" stroke="#383635" stroke-width="0.3" points="6.014,8.325 
	6.014,7.975 5.665,7.975 " style="stroke: rgb(0, 0, 0);"></polyline>
<line fill-rule="evenodd" clip-rule="evenodd" fill="none" stroke="#383635" stroke-width="0.3" x1="6.014" y1="8.325" x2="5.665" y2="8.325" style="stroke: rgb(0, 0, 0);"></line>
<line fill-rule="evenodd" clip-rule="evenodd" fill="none" stroke="#383635" stroke-width="0.3" x1="6.014" y1="10.375" x2="5.665" y2="10.375" style="stroke: rgb(0, 0, 0);"></line>
<line fill-rule="evenodd" clip-rule="evenodd" fill="none" stroke="#383635" stroke-width="0.3" x1="5.665" y1="10.025" x2="6.014" y2="10.025" style="stroke: rgb(0, 0, 0);"></line>
<path fill-rule="evenodd" clip-rule="evenodd" fill="none" stroke="#383635" stroke-width="0.3" d="M1.864,2.875
	c1.167-0.367,2.233-0.666,3.2-0.9" style="stroke: rgb(0, 0, 0);"></path>
<line fill-rule="evenodd" clip-rule="evenodd" fill="none" stroke="#383635" stroke-width="0.3" x1="6.014" y1="6.275" x2="5.964" y2="5.875" style="stroke: rgb(0, 0, 0);"></line>
<line fill-rule="evenodd" clip-rule="evenodd" fill="none" stroke="#383635" stroke-width="0.3" x1="6.014" y1="14.125" x2="5.665" y2="14.125" style="stroke: rgb(0, 0, 0);"></line>
<line fill-rule="evenodd" clip-rule="evenodd" fill="none" stroke="#383635" stroke-width="0.3" x1="5.665" y1="14.475" x2="6.014" y2="14.475" style="stroke: rgb(0, 0, 0);"></line>
<line fill-rule="evenodd" clip-rule="evenodd" fill="none" stroke="#383635" stroke-width="0.3" x1="5.665" y1="12.425" x2="6.014" y2="12.425" style="stroke: rgb(0, 0, 0);"></line>
<line fill-rule="evenodd" clip-rule="evenodd" fill="none" stroke="#383635" stroke-width="0.3" x1="3.514" y1="12.425" x2="3.514" y2="12.525" style="stroke: rgb(0, 0, 0);"></line>
<path fill-rule="evenodd" clip-rule="evenodd" fill="none" stroke="#383635" stroke-width="0.3" d="M3.564,12.075
	c0,0.1-0.017,0.216-0.05,0.35h2.15v-0.35" style="stroke: rgb(0, 0, 0);"></path>
<line fill-rule="evenodd" clip-rule="evenodd" fill="none" stroke="#383635" stroke-width="0.3" x1="11.214" y1="6.275" x2="6.014" y2="6.275" style="stroke: rgb(0, 0, 0);"></line>
<line fill-rule="evenodd" clip-rule="evenodd" fill="none" stroke="#383635" stroke-width="0.3" x1="11.214" y1="8.325" x2="6.014" y2="8.325" style="stroke: rgb(0, 0, 0);"></line>
<line fill-rule="evenodd" clip-rule="evenodd" fill="none" stroke="#383635" stroke-width="0.3" x1="6.014" y1="7.975" x2="11.214" y2="7.975" style="stroke: rgb(0, 0, 0);"></line>
<path fill-rule="evenodd" clip-rule="evenodd" fill="none" stroke="#383635" stroke-width="0.3" d="M8.864,1.575
	c0.967,0,1.967,0.083,3,0.25" style="stroke: rgb(0, 0, 0);"></path>
<path fill-rule="evenodd" clip-rule="evenodd" fill="none" stroke="#383635" stroke-width="0.3" stroke-linecap="round" stroke-linejoin="round" stroke-miterlimit="3" d="
	M5.314,3.025c0.134-0.033,0.25-0.051,0.351-0.051" style="stroke: rgb(0, 0, 0);"></path>
<path fill-rule="evenodd" clip-rule="evenodd" fill="none" stroke="#383635" stroke-width="0.3" stroke-linecap="round" stroke-linejoin="round" stroke-miterlimit="3" d="
	M8.514,2.675c0.066,0,0.15,0,0.25,0c0.033,0,0.066,0,0.1,0" style="stroke: rgb(0, 0, 0);"></path>
<path fill-rule="evenodd" clip-rule="evenodd" fill="none" stroke="#383635" stroke-width="0.3" stroke-linecap="round" stroke-linejoin="round" stroke-miterlimit="3" d="
	M11.614,2.925c0.101,0,0.217,0.017,0.351,0.05" style="stroke: rgb(0, 0, 0);"></path>
<path fill-rule="evenodd" clip-rule="evenodd" fill="none" stroke="#383635" stroke-width="0.3" stroke-linecap="round" stroke-linejoin="round" stroke-miterlimit="3" d="
	M11.464,3.475c0.1,0.033,0.217,0.066,0.35,0.101" style="stroke: rgb(0, 0, 0);"></path>
<path fill-rule="evenodd" clip-rule="evenodd" fill="none" stroke="#383635" stroke-width="0.3" stroke-linecap="round" stroke-linejoin="round" stroke-miterlimit="3" d="
	M5.464,3.625c0.1-0.033,0.217-0.066,0.35-0.1" style="stroke: rgb(0, 0, 0);"></path>
<path fill-rule="evenodd" clip-rule="evenodd" fill="none" stroke="#383635" stroke-width="0.3" stroke-linecap="round" stroke-linejoin="round" stroke-miterlimit="3" d="
	M8.514,3.325c0.066,0,0.15,0,0.25,0c0.033,0,0.066,0,0.1,0" style="stroke: rgb(0, 0, 0);"></path>
</svg>