<svg version="1.1" id="Layer_1" xmlns="http://www.w3.org/2000/svg" xmlns:xlink="http://www.w3.org/1999/xlink" x="0px" y="0px" width="56.4px" height="40.3px" viewBox="0 0 56.4 40.3" enable-background="new 0 0 56.4 40.3" xml:space="preserve" class="ng-scope">
<path fill="#FFFFFF" d="M36.97,1.67c0.2-0.27,2.67-0.38,7.4-0.35c4.73,0.1,7.12,0.27,7.15,0.5v0.05c0.03,0.17,0.07,0.47,0.1,0.9v3.2
	c-0.03,0.3-0.08,0.48-0.15,0.55c-0.07,0.03-0.43,0.07-1.1,0.1l-7.3-3.15l-0.8-0.05l-0.05,3.2c-2.43-0.1-4.08-0.18-4.95-0.25
	l-0.55-0.35l0.05-3.35c-0.07-0.6-0.17-0.93-0.3-1c-0.2-0.33-2.83-0.47-7.9-0.4c-5.1,0.13-7.67,0.3-7.7,0.5
	c-0.1,0.37-0.15,1.18-0.15,2.45c-0.03,1.4,0.03,2.13,0.2,2.2c0.27,0.17,2.8,0.22,7.6,0.15c4.83-0.07,7.57-0.25,8.2-0.55
	c-0.63,0.3-3.37,0.48-8.2,0.55c-4.8,0.07-7.33,0.02-7.6-0.15c-0.17-0.07-0.23-0.8-0.2-2.2c0-1.27,0.05-2.08,0.15-2.45
	c0.03-0.2,2.6-0.37,7.7-0.5c5.07-0.07,7.7,0.07,7.9,0.4c0.13,0.07,0.23,0.4,0.3,1l-0.05,3.35l0.55,0.35
	c0.87,0.07,2.52,0.15,4.95,0.25l0.05-3.2l0.8,0.05l7.3,3.15c0.67-0.03,1.03-0.07,1.1-0.1c0.07-0.07,0.12-0.25,0.15-0.55v-3.2
	c-0.03-0.43-0.07-0.73-0.1-0.9V1.83c-0.03-0.23-2.42-0.4-7.15-0.5C39.64,1.29,37.18,1.41,36.97,1.67c-0.1,0.1-0.17,0.43-0.2,1
	C36.81,2.11,36.88,1.77,36.97,1.67z"></path>
<path fill="#FFFFFF" d="M20.38,6.42c0.23-0.07,0.33-0.8,0.3-2.2c0-1.27-0.08-2.08-0.25-2.45c-0.07-0.2-2.52-0.37-7.35-0.5
	c-4.73-0.07-7.22,0.07-7.45,0.4c-0.13,0.1-0.23,0.62-0.3,1.55c0.07-0.93,0.17-1.45,0.3-1.55c0.23-0.33,2.72-0.47,7.45-0.4
	c4.83,0.13,7.28,0.3,7.35,0.5c0.17,0.37,0.25,1.18,0.25,2.45C20.71,5.63,20.61,6.36,20.38,6.42v13.65V6.42z"></path>
<path fill="#FFFFFF" d="M5.32,4.33v-1.1h-0.1c-0.1-0.53-0.35-0.82-0.75-0.85c-0.7,0.03-1.33,0.02-1.9-0.05
	c0.57,0.07,1.2,0.08,1.9,0.05c0.4,0.03,0.65,0.32,0.75,0.85L5.32,4.33z"></path>
<path fill="#FFFFFF" d="M55.32,38.07c-0.03,1.33-0.28,2.02-0.75,2.05c-0.83,0.03-6.25,0.05-16.25,0.05c-0.2-0.07-0.38-0.2-0.55-0.4
	c-0.33-0.4-0.5-0.88-0.5-1.45l-0.1-18.35l-0.45,0.6c-5.47,0.43-10.92,0.27-16.35-0.5c-0.1,0.27-0.3,0.43-0.6,0.5l-0.55,0.05
	c-2.8,0-5.62,0-8.45,0c-5.73-0.07-8.77-0.12-9.1-0.15c-0.23-0.03-0.42-0.08-0.55-0.15l-0.05-0.25v-3.3h2.95
	c0.37-0.33,0.6-0.73,0.7-1.2c0.1-0.57,0.17-1.12,0.2-1.65c0.07-1,0.12-2,0.15-3l1.2,2c0.97,0.13,1.83,0,2.6-0.4
	c0.9-0.53,1.83-1,2.8-1.4c0.83-0.37,1.62-0.75,2.35-1.15c0.57-0.27,1.1-0.57,1.6-0.9c0.2-0.13,0.37-0.27,0.5-0.4l-1.5-2.05
	c3.67,0.03,5.58-0.03,5.75-0.2c-0.17,0.17-2.08,0.23-5.75,0.2l1.5,2.05c-0.13,0.13-0.3,0.27-0.5,0.4c-0.5,0.33-1.03,0.63-1.6,0.9
	c-0.73,0.4-1.52,0.78-2.35,1.15c-0.97,0.4-1.9,0.87-2.8,1.4c-0.77,0.4-1.63,0.53-2.6,0.4l-1.2-2c-0.03,1-0.08,2-0.15,3
	c-0.03,0.53-0.1,1.08-0.2,1.65c-0.1,0.47-0.33,0.87-0.7,1.2H1.07c-0.37-0.03-0.63-0.28-0.8-0.75l-0.15-0.65l0.75-12
	c0-0.23,0.08-0.43,0.25-0.6c0.27-0.37,0.75-0.52,1.45-0.45c0-1.07,0.22-1.75,0.65-2.05l0.7-0.1h46.85l0.6-0.05
	c0.43,0,0.85,0.03,1.25,0.1c1.23,0.27,1.82,1,1.75,2.2c-0.4,0-0.82,0.02-1.25,0.05c-0.57-0.17-1.07-0.07-1.5,0.3
	c0.43-0.37,0.93-0.47,1.5-0.3c0.43-0.03,0.85-0.05,1.25-0.05l1.15,0.15c0.17,0.23,0.27,0.5,0.3,0.8c0.3,4.17,0.45,8.37,0.45,12.6
	c0,0.23-0.1,0.48-0.3,0.75l-0.8,0.1l-2.95-0.35c-0.4-0.77-0.6-1.62-0.6-2.55c0-0.93-0.02-1.87-0.05-2.8l2.45-2.9l-2.4-0.95v-1.3v1.3
	l2.4,0.95l-2.45,2.9c0.03,0.93,0.05,1.87,0.05,2.8c0,0.93,0.2,1.78,0.6,2.55l2.95,0.35L55.32,38.07z"></path>
<path fill="#FFFFFF" d="M50.38,6.63l1.25,0.65L50.38,6.63z"></path>
<path fill="#FFFFFF" d="M40.68,8.58c-0.03,0.07-0.07,0.13-0.1,0.2c0.63,0.47,1.33,0.9,2.1,1.3c1.43,0.8,2.95,1.48,4.55,2.05
	c0.77,0.27,1.53,0.53,2.3,0.8c0.17,0.1,0.33,0.15,0.5,0.15l1.55-1.95l-1.55,1.95c-0.17,0-0.33-0.05-0.5-0.15
	c-0.77-0.27-1.53-0.53-2.3-0.8c-1.6-0.57-3.12-1.25-4.55-2.05c-0.77-0.4-1.47-0.83-2.1-1.3C40.61,8.71,40.64,8.64,40.68,8.58
	c0.77-0.43,1.28-1.08,1.55-1.95C41.96,7.49,41.44,8.14,40.68,8.58z"></path>
<path fill="#FFFFFF" d="M37.18,19.98l0.1-13.6L37.18,19.98z"></path>
<path fill="#FFFFFF" d="M14.27,4.27c0.1-0.33,0.17-0.65,0.2-0.95l-0.8,0.05c-0.73,0.77-1.6,1.2-2.6,1.3c-1.2,0.13-2.32,0.5-3.35,1.1
	c-0.3,0.23-0.62,0.43-0.95,0.6c-0.7-0.03-1.18-0.15-1.45-0.35v-1.7v1.7c0.27,0.2,0.75,0.32,1.45,0.35c0.33-0.17,0.65-0.37,0.95-0.6
	c1.03-0.6,2.15-0.97,3.35-1.1c1-0.1,1.87-0.53,2.6-1.3l0.8-0.05C14.44,3.63,14.38,3.94,14.27,4.27c-0.2,0.83-0.08,1.62,0.35,2.35
	C14.19,5.89,14.07,5.11,14.27,4.27z"></path>
<polygon fill="#FFFFFF" points="5.22,7.13 5.32,6.02 5.22,7.13 6.77,6.38 "></polygon>
<path fill="#FFFFFF" d="M3.52,7.73c-0.3-0.1-0.52,0.03-0.65,0.4c-0.03,0.07-0.07,0.15-0.1,0.25l2.3,2.55l-2.3-2.55
	c0.03-0.1,0.07-0.18,0.1-0.25C3.01,7.76,3.22,7.63,3.52,7.73c0.67-0.2,1.23-0.4,1.7-0.6C4.76,7.33,4.19,7.52,3.52,7.73z"></path>
<path fill="none" stroke="#383635" stroke-width="0.3" d="M36.72,6.02c-0.63,0.3-3.37,0.48-8.2,0.55c-4.8,0.07-7.33,0.02-7.6-0.15
	c-0.17-0.07-0.23-0.8-0.2-2.2c0-1.27,0.05-2.08,0.15-2.45c0.03-0.2,2.6-0.37,7.7-0.5c5.07-0.07,7.7,0.07,7.9,0.4
	c0.13,0.07,0.23,0.4,0.3,1L36.72,6.02l0.55,0.35c0.87,0.07,2.52,0.15,4.95,0.25l0.05-3.2l0.8,0.05l7.3,3.15
	c0.67-0.03,1.03-0.07,1.1-0.1c0.07-0.07,0.12-0.25,0.15-0.55v-3.2c-0.03-0.43-0.07-0.73-0.1-0.9V1.83c-0.03-0.23-2.42-0.4-7.15-0.5
	c-4.73-0.03-7.2,0.08-7.4,0.35c-0.1,0.1-0.17,0.43-0.2,1" style="stroke: rgb(0, 0, 0);"></path>
<path fill="none" stroke="#383635" stroke-width="0.3" d="M5.32,3.23c0.07-0.93,0.17-1.45,0.3-1.55c0.23-0.33,2.72-0.47,7.45-0.4
	c4.83,0.13,7.28,0.3,7.35,0.5c0.17,0.37,0.25,1.18,0.25,2.45c0.03,1.4-0.07,2.13-0.3,2.2v13.65" style="stroke: rgb(0, 0, 0);"></path>
<path fill="none" stroke="#383635" stroke-width="0.3" d="M51.63,2.77c0.43-0.37,0.93-0.47,1.5-0.3c0.43-0.03,0.85-0.05,1.25-0.05
	c0.07-1.2-0.52-1.93-1.75-2.2c-0.4-0.07-0.82-0.1-1.25-0.1l-0.6,0.05H3.93l-0.7,0.1c-0.43,0.3-0.65,0.98-0.65,2.05
	c0.57,0.07,1.2,0.08,1.9,0.05c0.4,0.03,0.65,0.32,0.75,0.85" style="stroke: rgb(0, 0, 0);"></path>
<path fill="none" stroke="#383635" stroke-width="0.3" d="M51.63,5.98v1.3l2.4,0.95l-2.45,2.9c0.03,0.93,0.05,1.87,0.05,2.8
	c0,0.93,0.2,1.78,0.6,2.55l2.95,0.35l0.8-0.1c0.2-0.27,0.3-0.52,0.3-0.75c0-4.23-0.15-8.43-0.45-12.6c-0.03-0.3-0.13-0.57-0.3-0.8
	l-1.15-0.15" style="stroke: rgb(0, 0, 0);"></path>
<line fill="none" stroke="#383635" stroke-width="0.3" x1="50.38" y1="6.63" x2="51.63" y2="7.27" style="stroke: rgb(0, 0, 0);"></line>
<path fill="none" stroke="#383635" stroke-width="0.3" d="M51.57,11.13l-1.55,1.95c-0.17,0-0.33-0.05-0.5-0.15
	c-0.77-0.27-1.53-0.53-2.3-0.8c-1.6-0.57-3.12-1.25-4.55-2.05c-0.77-0.4-1.47-0.83-2.1-1.3c0.03-0.07,0.07-0.13,0.1-0.2
	c0.77-0.43,1.28-1.08,1.55-1.95" style="stroke: rgb(0, 0, 0);"></path>
<path fill="none" stroke="#383635" stroke-width="0.3" d="M20.38,6.43c-0.17,0.17-2.08,0.23-5.75,0.2l1.5,2.05
	c-0.13,0.13-0.3,0.27-0.5,0.4c-0.5,0.33-1.03,0.63-1.6,0.9c-0.73,0.4-1.52,0.78-2.35,1.15c-0.97,0.4-1.9,0.87-2.8,1.4
	c-0.77,0.4-1.63,0.53-2.6,0.4l-1.2-2c-0.03,1-0.08,2-0.15,3c-0.03,0.53-0.1,1.08-0.2,1.65c-0.1,0.47-0.33,0.87-0.7,1.2H1.07v3.3
	l0.05,0.25c0.13,0.07,0.32,0.12,0.55,0.15c0.33,0.03,3.37,0.08,9.1,0.15c2.83,0,5.65,0,8.45,0l0.55-0.05c0.3-0.07,0.5-0.23,0.6-0.5" style="stroke: rgb(0, 0, 0);"></path>
<path fill="none" stroke="#383635" stroke-width="0.3" d="M20.38,20.08c5.43,0.77,10.88,0.93,16.35,0.5l0.45-0.6" style="stroke: rgb(0, 0, 0);"></path>
<line fill="none" stroke="#383635" stroke-width="0.3" x1="37.18" y1="19.98" x2="37.27" y2="6.38" style="stroke: rgb(0, 0, 0);"></line>
<path fill="none" stroke="#383635" stroke-width="0.3" d="M5.32,3.23v1.1v1.7c0.27,0.2,0.75,0.32,1.45,0.35
	c0.33-0.17,0.65-0.37,0.95-0.6c1.03-0.6,2.15-0.97,3.35-1.1c1-0.1,1.87-0.53,2.6-1.3l0.8-0.05c-0.03,0.3-0.1,0.62-0.2,0.95
	c-0.2,0.83-0.08,1.62,0.35,2.35" style="stroke: rgb(0, 0, 0);"></path>
<path fill="none" stroke="#383635" stroke-width="0.3" d="M2.57,2.33c-0.7-0.07-1.18,0.08-1.45,0.45c-0.17,0.17-0.25,0.37-0.25,0.6
	l-0.75,12l0.15,0.65c0.17,0.47,0.43,0.72,0.8,0.75" style="stroke: rgb(0, 0, 0);"></path>
<line fill="none" stroke="#383635" stroke-width="0.3" x1="5.32" y1="4.33" x2="5.22" y2="3.23" style="stroke: rgb(0, 0, 0);"></line>
<polyline fill="none" stroke="#383635" stroke-width="0.3" points="5.32,6.02 5.22,7.13 6.77,6.38 " style="stroke: rgb(0, 0, 0);"></polyline>
<path fill="none" stroke="#383635" stroke-width="0.3" d="M5.07,10.92l-2.3-2.55c0.03-0.1,0.07-0.18,0.1-0.25
	c0.13-0.37,0.35-0.5,0.65-0.4c0.67-0.2,1.23-0.4,1.7-0.6" style="stroke: rgb(0, 0, 0);"></path>
<path fill="none" stroke="#383635" stroke-width="0.3" d="M37.18,19.98l0.1,18.35c0,0.57,0.17,1.05,0.5,1.45
	c0.17,0.2,0.35,0.33,0.55,0.4c10,0,15.42-0.02,16.25-0.05c0.47-0.03,0.72-0.71,0.75-2.05l-0.15-21.25" style="stroke: rgb(0, 0, 0);"></path>
</svg>