<svg version="1.1" id="Layer_1" xmlns="http://www.w3.org/2000/svg" xmlns:xlink="http://www.w3.org/1999/xlink" x="0px" y="0px" width="56.401px" height="40.3px" viewBox="0 0 56.401 40.3" enable-background="new 0 0 56.401 40.3" xml:space="preserve" class="ng-scope">
<path fill-rule="evenodd" clip-rule="evenodd" fill="#FFFFFF" d="M19.625,2.675c-0.033-0.567-0.1-0.9-0.2-1
	c-0.2-0.267-2.667-0.383-7.4-0.35c-4.733,0.1-7.117,0.267-7.15,0.5v0.05c-0.033,0.167-0.066,0.467-0.1,0.9v3.2
	c0.034,0.3,0.083,0.483,0.15,0.55c0.066,0.033,0.433,0.066,1.1,0.1l7.3-3.15l0.8-0.05l0.05,3.2c2.433-0.1,4.083-0.183,4.95-0.25
	l0.55-0.35L19.625,2.675c0.067-0.6,0.167-0.934,0.3-1c0.2-0.333,2.833-0.467,7.9-0.4c5.1,0.133,7.667,0.3,7.7,0.5
	c0.1,0.367,0.15,1.183,0.15,2.45c0.033,1.4-0.034,2.133-0.2,2.2c-0.267,0.167-2.8,0.217-7.6,0.15c-4.833-0.067-7.566-0.25-8.2-0.55
	c0.633,0.3,3.367,0.483,8.2,0.55c4.8,0.067,7.333,0.017,7.6-0.15c0.167-0.067,0.233-0.8,0.2-2.2c0-1.267-0.05-2.083-0.15-2.45
	c-0.033-0.2-2.6-0.367-7.7-0.5c-5.067-0.067-7.7,0.066-7.9,0.4C19.792,1.742,19.692,2.075,19.625,2.675l0.05,3.35l-0.55,0.35
	c-0.867,0.067-2.517,0.15-4.95,0.25l-0.05-3.2l-0.8,0.05l-7.3,3.15c-0.667-0.033-1.033-0.066-1.1-0.1
	c-0.067-0.067-0.117-0.25-0.15-0.55v-3.2c0.034-0.434,0.067-0.733,0.1-0.9v-0.05c0.033-0.233,2.417-0.4,7.15-0.5
	c4.733-0.033,7.2,0.083,7.4,0.35C19.525,1.775,19.592,2.108,19.625,2.675z"></path>
<path fill-rule="evenodd" clip-rule="evenodd" fill="#FFFFFF" d="M36.025,20.075V6.425c-0.233-0.067-0.333-0.8-0.3-2.2
	c0-1.267,0.083-2.083,0.25-2.45c0.067-0.2,2.517-0.367,7.35-0.5c4.733-0.067,7.217,0.066,7.45,0.4c0.133,0.1,0.233,0.617,0.3,1.55
	c-0.067-0.933-0.167-1.45-0.3-1.55c-0.233-0.333-2.716-0.467-7.45-0.4c-4.833,0.133-7.283,0.3-7.35,0.5
	c-0.167,0.367-0.25,1.183-0.25,2.45c-0.033,1.4,0.067,2.133,0.3,2.2V20.075z"></path>
<path fill-rule="evenodd" clip-rule="evenodd" fill="#FFFFFF" d="M51.175,3.225c0.1-0.533,0.35-0.816,0.75-0.85
	c0.7,0.034,1.333,0.017,1.9-0.05c-0.567,0.067-1.2,0.083-1.9,0.05C51.525,2.409,51.275,2.692,51.175,3.225h-0.1v1.1L51.175,3.225z"></path>
<path fill-rule="evenodd" clip-rule="evenodd" fill="#FFFFFF" d="M1.225,16.825l2.95-0.35c0.4-0.768,0.6-1.617,0.6-2.551
	s0.017-1.866,0.05-2.8l-2.45-2.899l2.4-0.95v-1.3v1.3l-2.4,0.95l2.45,2.899c-0.033,0.934-0.05,1.866-0.05,2.8s-0.2,1.783-0.6,2.551
	L1.225,16.825l-0.8-0.1c-0.2-0.268-0.3-0.518-0.3-0.75c0-4.234,0.15-8.434,0.45-12.601c0.033-0.3,0.133-0.566,0.3-0.8l1.15-0.15
	c0.4,0,0.817,0.017,1.25,0.05c0.567-0.167,1.067-0.066,1.5,0.3c-0.433-0.367-0.933-0.467-1.5-0.3c-0.433-0.033-0.85-0.05-1.25-0.05
	c-0.066-1.2,0.517-1.934,1.75-2.2c0.4-0.066,0.817-0.1,1.25-0.1l0.6,0.05h46.85l0.7,0.1c0.433,0.3,0.65,0.983,0.65,2.05
	c0.7-0.067,1.183,0.083,1.45,0.45c0.167,0.167,0.25,0.367,0.25,0.6l0.75,12l-0.149,0.65c-0.167,0.466-0.434,0.716-0.801,0.75h-2.95
	c-0.367-0.333-0.6-0.733-0.7-1.2c-0.1-0.566-0.167-1.117-0.2-1.65c-0.067-1-0.117-2-0.15-3l-1.2,2c-0.967,0.134-1.833,0-2.6-0.399
	c-0.9-0.534-1.833-1-2.8-1.4c-0.833-0.366-1.617-0.75-2.35-1.149c-0.566-0.268-1.1-0.566-1.6-0.9c-0.2-0.133-0.367-0.267-0.5-0.4
	l1.5-2.05c-3.667,0.034-5.583-0.033-5.75-0.2c0.167,0.167,2.083,0.233,5.75,0.2l-1.5,2.05c0.133,0.134,0.3,0.268,0.5,0.4
	c0.5,0.334,1.034,0.633,1.6,0.9c0.733,0.399,1.517,0.783,2.35,1.149c0.967,0.4,1.9,0.866,2.8,1.4c0.767,0.399,1.633,0.533,2.6,0.399
	l1.2-2c0.033,1,0.083,2,0.15,3c0.033,0.533,0.1,1.084,0.2,1.65c0.1,0.467,0.333,0.867,0.7,1.2h2.95v3.3l-0.05,0.25
	c-0.134,0.066-0.316,0.117-0.55,0.15c-0.333,0.033-3.367,0.083-9.1,0.149c-2.833,0-5.65,0-8.45,0l-0.55-0.05
	c-0.3-0.066-0.5-0.233-0.6-0.5c-5.433,0.767-10.883,0.934-16.35,0.5l-0.45-0.6l-0.1,18.35c0,0.566-0.167,1.05-0.5,1.45
	c-0.167,0.2-0.35,0.333-0.55,0.399c-10,0-15.417-0.016-16.25-0.05c-0.467-0.033-0.717-0.716-0.75-2.05L1.225,16.825z"></path>
<path fill-rule="evenodd" clip-rule="evenodd" fill="#FFFFFF" d="M4.775,7.275l1.25-0.65L4.775,7.275z"></path>
<path fill-rule="evenodd" clip-rule="evenodd" fill="#FFFFFF" d="M14.175,6.625c0.267,0.866,0.783,1.517,1.55,1.95
	c0.033,0.066,0.067,0.133,0.1,0.2c-0.633,0.466-1.333,0.899-2.1,1.3c-1.433,0.8-2.95,1.483-4.55,2.05
	c-0.767,0.267-1.534,0.534-2.3,0.8c-0.167,0.101-0.333,0.15-0.5,0.15l-1.55-1.95l1.55,1.95c0.167,0,0.333-0.05,0.5-0.15
	c0.767-0.266,1.533-0.533,2.3-0.8c1.6-0.566,3.117-1.25,4.55-2.05c0.767-0.4,1.467-0.834,2.1-1.3c-0.033-0.067-0.067-0.134-0.1-0.2
	C14.958,8.142,14.442,7.491,14.175,6.625z"></path>
<path fill-rule="evenodd" clip-rule="evenodd" fill="#FFFFFF" d="M19.125,6.375l0.1,13.601L19.125,6.375z"></path>
<path fill-rule="evenodd" clip-rule="evenodd" fill="#FFFFFF" d="M41.775,6.625c0.434-0.733,0.55-1.517,0.35-2.35
	c-0.1-0.333-0.167-0.65-0.2-0.95l0.8,0.05c0.733,0.767,1.6,1.2,2.6,1.3c1.2,0.133,2.316,0.5,3.35,1.1
	c0.3,0.233,0.617,0.433,0.95,0.6c0.7-0.033,1.184-0.15,1.45-0.35v-1.7v1.7c-0.267,0.2-0.75,0.316-1.45,0.35
	c-0.333-0.167-0.65-0.367-0.95-0.6c-1.034-0.6-2.15-0.967-3.35-1.1c-1-0.1-1.867-0.533-2.6-1.3l-0.8-0.05
	c0.033,0.3,0.1,0.617,0.2,0.95C42.325,5.108,42.208,5.892,41.775,6.625z"></path>
<polygon fill-rule="evenodd" clip-rule="evenodd" fill="#FFFFFF" points="49.625,6.375 51.175,7.125 51.075,6.025 51.175,7.125 "></polygon>
<path fill-rule="evenodd" clip-rule="evenodd" fill="#FFFFFF" d="M51.175,7.125c0.466,0.2,1.033,0.4,1.7,0.601
	c0.3-0.101,0.517,0.033,0.65,0.399c0.034,0.067,0.067,0.15,0.1,0.25l-2.3,2.55l2.3-2.55c-0.033-0.1-0.066-0.183-0.1-0.25
	c-0.133-0.366-0.35-0.5-0.65-0.399C52.208,7.525,51.642,7.325,51.175,7.125z"></path>
<path fill-rule="evenodd" clip-rule="evenodd" fill="none" stroke="#383635" stroke-width="0.3" d="M19.625,2.675
	c-0.033-0.567-0.1-0.9-0.2-1c-0.2-0.267-2.667-0.383-7.4-0.35c-4.733,0.1-7.117,0.267-7.15,0.5v0.05
	c-0.033,0.167-0.066,0.467-0.1,0.9v3.2c0.034,0.3,0.083,0.483,0.15,0.55c0.066,0.033,0.433,0.066,1.1,0.1l7.3-3.15l0.8-0.05
	l0.05,3.2c2.433-0.1,4.083-0.183,4.95-0.25l0.55-0.35L19.625,2.675c0.067-0.6,0.167-0.934,0.3-1c0.2-0.333,2.833-0.467,7.9-0.4
	c5.1,0.133,7.667,0.3,7.7,0.5c0.1,0.367,0.15,1.183,0.15,2.45c0.033,1.4-0.034,2.133-0.2,2.2c-0.267,0.167-2.8,0.217-7.6,0.15
	c-4.833-0.067-7.566-0.25-8.2-0.55" style="stroke: rgb(0, 0, 0);"></path>
<path fill-rule="evenodd" clip-rule="evenodd" fill="none" stroke="#383635" stroke-width="0.3" d="M36.025,20.075V6.425
	c-0.233-0.067-0.333-0.8-0.3-2.2c0-1.267,0.083-2.083,0.25-2.45c0.067-0.2,2.517-0.367,7.35-0.5c4.733-0.067,7.217,0.066,7.45,0.4
	c0.133,0.1,0.233,0.617,0.3,1.55" style="stroke: rgb(0, 0, 0);"></path>
<path fill-rule="evenodd" clip-rule="evenodd" fill="none" stroke="#383635" stroke-width="0.3" d="M51.175,3.225
	c0.1-0.533,0.35-0.816,0.75-0.85c0.7,0.034,1.333,0.017,1.9-0.05c0-1.067-0.217-1.75-0.65-2.05l-0.7-0.1H5.625l-0.6-0.05
	c-0.433,0-0.85,0.034-1.25,0.1c-1.233,0.267-1.816,1-1.75,2.2c0.4,0,0.817,0.017,1.25,0.05c0.567-0.167,1.067-0.066,1.5,0.3" style="stroke: rgb(0, 0, 0);"></path>
<path fill-rule="evenodd" clip-rule="evenodd" fill="none" stroke="#383635" stroke-width="0.3" d="M2.025,2.425l-1.15,0.15
	c-0.167,0.233-0.267,0.5-0.3,0.8c-0.3,4.167-0.45,8.366-0.45,12.601c0,0.232,0.1,0.482,0.3,0.75l0.8,0.1l2.95-0.35
	c0.4-0.768,0.6-1.617,0.6-2.551s0.017-1.866,0.05-2.8l-2.45-2.899l2.4-0.95v-1.3" style="stroke: rgb(0, 0, 0);"></path>
<line fill-rule="evenodd" clip-rule="evenodd" fill="none" stroke="#383635" stroke-width="0.3" x1="4.775" y1="7.275" x2="6.025" y2="6.625" style="stroke: rgb(0, 0, 0);"></line>
<path fill-rule="evenodd" clip-rule="evenodd" fill="none" stroke="#383635" stroke-width="0.3" d="M14.175,6.625
	c0.267,0.866,0.783,1.517,1.55,1.95c0.033,0.066,0.067,0.133,0.1,0.2c-0.633,0.466-1.333,0.899-2.1,1.3
	c-1.433,0.8-2.95,1.483-4.55,2.05c-0.767,0.267-1.534,0.534-2.3,0.8c-0.167,0.101-0.333,0.15-0.5,0.15l-1.55-1.95" style="stroke: rgb(0, 0, 0);"></path>
<path fill-rule="evenodd" clip-rule="evenodd" fill="none" stroke="#383635" stroke-width="0.3" d="M36.025,20.075
	c0.1,0.267,0.3,0.434,0.6,0.5l0.55,0.05c2.8,0,5.617,0,8.45,0c5.733-0.066,8.767-0.116,9.1-0.149c0.233-0.033,0.416-0.084,0.55-0.15
	l0.05-0.25v-3.3h-2.95c-0.367-0.333-0.6-0.733-0.7-1.2c-0.1-0.566-0.167-1.117-0.2-1.65c-0.067-1-0.117-2-0.15-3l-1.2,2
	c-0.967,0.134-1.833,0-2.6-0.399c-0.9-0.534-1.833-1-2.8-1.4c-0.833-0.366-1.617-0.75-2.35-1.149c-0.566-0.268-1.1-0.566-1.6-0.9
	c-0.2-0.133-0.367-0.267-0.5-0.4l1.5-2.05c-3.667,0.034-5.583-0.033-5.75-0.2" style="stroke: rgb(0, 0, 0);"></path>
<path fill-rule="evenodd" clip-rule="evenodd" fill="none" stroke="#383635" stroke-width="0.3" d="M19.225,19.976l0.45,0.6
	c5.466,0.434,10.917,0.267,16.35-0.5" style="stroke: rgb(0, 0, 0);"></path>
<line fill-rule="evenodd" clip-rule="evenodd" fill="none" stroke="#383635" stroke-width="0.3" x1="19.125" y1="6.375" x2="19.225" y2="19.976" style="stroke: rgb(0, 0, 0);"></line>
<path fill-rule="evenodd" clip-rule="evenodd" fill="none" stroke="#383635" stroke-width="0.3" d="M41.775,6.625
	c0.434-0.733,0.55-1.517,0.35-2.35c-0.1-0.333-0.167-0.65-0.2-0.95l0.8,0.05c0.733,0.767,1.6,1.2,2.6,1.3
	c1.2,0.133,2.316,0.5,3.35,1.1c0.3,0.233,0.617,0.433,0.95,0.6c0.7-0.033,1.184-0.15,1.45-0.35v-1.7v-1.1" style="stroke: rgb(0, 0, 0);"></path>
<path fill-rule="evenodd" clip-rule="evenodd" fill="none" stroke="#383635" stroke-width="0.3" d="M55.325,16.775
	c0.367-0.034,0.634-0.284,0.801-0.75l0.149-0.65l-0.75-12c0-0.233-0.083-0.433-0.25-0.6c-0.267-0.367-0.75-0.517-1.45-0.45" style="stroke: rgb(0, 0, 0);"></path>
<line fill-rule="evenodd" clip-rule="evenodd" fill="none" stroke="#383635" stroke-width="0.3" x1="51.175" y1="3.225" x2="51.075" y2="4.325" style="stroke: rgb(0, 0, 0);"></line>
<polyline fill-rule="evenodd" clip-rule="evenodd" fill="none" stroke="#383635" stroke-width="0.3" points="49.625,6.375 
	51.175,7.125 51.075,6.025 " style="stroke: rgb(0, 0, 0);"></polyline>
<path fill-rule="evenodd" clip-rule="evenodd" fill="none" stroke="#383635" stroke-width="0.3" d="M51.175,7.125
	c0.466,0.2,1.033,0.4,1.7,0.601c0.3-0.101,0.517,0.033,0.65,0.399c0.034,0.067,0.067,0.15,0.1,0.25l-2.3,2.55" style="stroke: rgb(0, 0, 0);"></path>
<path fill-rule="evenodd" clip-rule="evenodd" fill="none" stroke="#383635" stroke-width="0.3" d="M1.225,16.825l-0.15,21.25
	c0.033,1.334,0.283,2.017,0.75,2.05c0.833,0.034,6.25,0.05,16.25,0.05c0.2-0.066,0.383-0.199,0.55-0.399
	c0.333-0.4,0.5-0.884,0.5-1.45l0.1-18.35" style="stroke: rgb(0, 0, 0);"></path>
</svg>