<svg version="1.1" xmlns="http://www.w3.org/2000/svg" xmlns:xlink="http://www.w3.org/1999/xlink" x="0px" y="0px" width="20px" height="34px" viewBox="0 0 20 34" enable-background="new 0 0 20 34" xml:space="preserve" class="ng-scope">
<g id="Layer_2">
</g>
<g id="Layer_4">
</g>
<g id="Layer_1">
	<path fill-rule="evenodd" clip-rule="evenodd" fill="#FFFFFF" d="M19.01,2.24c0.43,1.77,0.63,6.05,0.6,12.85
		c0,3.4-0.07,6.63-0.2,9.7c-0.07,0.83-0.35,1.37-0.85,1.6c-0.27,0.07-0.55,0.08-0.85,0.05c0-0.7,0-1.42,0-2.15
		c0-3.13-0.1-5.22-0.3-6.25c-0.17-1-0.23-2.9-0.2-5.7c0.97-0.4,1.52-0.65,1.65-0.75c0.3-0.13,0.45-0.22,0.45-0.25
		c0.03,0-0.05-0.08-0.25-0.25c-0.27-0.23-0.72-0.72-1.35-1.45c-0.2-0.2-0.37-0.35-0.5-0.45V9.14v-5.2h1.05
		c0.27-0.3,0.45-0.67,0.55-1.1C18.87,2.6,18.94,2.4,19.01,2.24c-0.07,0.17-0.13,0.37-0.2,0.6c-0.1,0.43-0.28,0.8-0.55,1.1h-1.05
		l-8.2,0.1c-0.4-0.5-0.85-1.15-1.35-1.95L7.21,2.74c-0.3,0.4-0.47,0.77-0.5,1.1l-0.15,0.2l-5.5,0.05c-0.63-0.8-0.82-1.65-0.55-2.55
		c0.13-0.3,0.28-0.58,0.45-0.85l0.25-0.25h17.35C18.89,0.94,19.04,1.54,19.01,2.24z"></path>
	<path fill-rule="evenodd" clip-rule="evenodd" fill="#FFFFFF" d="M17.21,3.94v5.2c-0.47-0.57-0.75-0.97-0.85-1.2
		c-0.07-0.03-0.12-0.1-0.15-0.2l-2.15-2c-0.47-0.37-0.9-0.75-1.3-1.15l-0.1-0.05c-0.13,0.03-0.27,0.17-0.4,0.4l-0.4,0.75
		c-0.2,0.37-0.43,0.68-0.7,0.95c-0.07,0-0.13-0.03-0.2-0.1c-0.2-0.17-0.85-1-1.95-2.5L17.21,3.94z"></path>
	<path fill-rule="evenodd" clip-rule="evenodd" fill="#FFFFFF" d="M12.11,10.74c0.3-0.2,0.63-0.38,1-0.55
		c0.3-0.1,0.35-0.27,0.15-0.5c-0.1-0.13-0.22-0.25-0.35-0.35l-0.75-1.25c-0.47-0.77-0.8-1.25-1-1.45c0.27-0.27,0.5-0.58,0.7-0.95
		l0.4-0.75c0.13-0.23,0.27-0.37,0.4-0.4l0.1,0.05c0.4,0.4,0.83,0.78,1.3,1.15l2.15,2c0.03,0.1,0.08,0.17,0.15,0.2
		c0.1,0.23,0.38,0.63,0.85,1.2v0.05c0.13,0.1,0.3,0.25,0.5,0.45c0.63,0.73,1.08,1.22,1.35,1.45c0.2,0.17,0.28,0.25,0.25,0.25
		c0,0.03-0.15,0.12-0.45,0.25c-0.13,0.1-0.68,0.35-1.65,0.75h-0.05c-0.93,0.47-1.47,0.8-1.6,1c-0.1,0.23-0.25,0.28-0.45,0.15
		c-0.13-0.1-0.23-0.22-0.3-0.35L12.11,10.74z"></path>
	<path fill-rule="evenodd" clip-rule="evenodd" fill="#FFFFFF" d="M11.16,6.64c0.2,0.2,0.53,0.68,1,1.45l0.75,1.25
		c0.13,0.1,0.25,0.22,0.35,0.35c0.2,0.23,0.15,0.4-0.15,0.5c-0.37,0.17-0.7,0.35-1,0.55c-0.57,0.4-0.85,0.85-0.85,1.35
		c0,0.47-0.1,0.75-0.3,0.85c-0.1,0.13-0.35,0.08-0.75-0.15c-1.57-0.97-3.12-2.75-4.65-5.35l-0.8-0.5c-0.43-0.3-0.45-0.45-0.05-0.45
		c0.33-0.03,0.75-0.5,1.25-1.4l0.6-1.05l0.15-0.2c0.03-0.33,0.2-0.7,0.5-1.1l0.45-0.65c0.5,0.8,0.95,1.45,1.35,1.95
		c1.1,1.5,1.75,2.33,1.95,2.5C11.02,6.6,11.09,6.64,11.16,6.64z"></path>
	<path fill-rule="evenodd" clip-rule="evenodd" fill="#FFFFFF" d="M12.11,10.74l2.7,2.4c0.07,0.13,0.17,0.25,0.3,0.35
		c0.2,0.13,0.35,0.08,0.45-0.15c0.13-0.2,0.67-0.53,1.6-1h0.05c-0.03,2.8,0.03,4.7,0.2,5.7c0.2,1.03,0.3,3.12,0.3,6.25
		c0,0.73,0,1.45,0,2.15c-0.07,2.03-0.07,3.12,0,3.25c0.03,0.97-0.18,1.85-0.65,2.65c-0.6,0.93-1.43,1.33-2.5,1.2
		c-0.97-0.2-3.08-0.27-6.35-0.2c-1.57,0.03-3.07,0.1-4.5,0.2l-0.35-0.2c-0.27-0.1-0.5-0.25-0.7-0.45c-0.77-0.57-1.17-1.38-1.2-2.45
		c-0.07-1.73-0.2-10.52-0.4-26.35l5.5-0.05l-0.6,1.05c-0.5,0.9-0.92,1.37-1.25,1.4c-0.4,0-0.38,0.15,0.05,0.45l0.8,0.5
		c1.53,2.6,3.08,4.38,4.65,5.35c0.4,0.23,0.65,0.28,0.75,0.15c0.2-0.1,0.3-0.38,0.3-0.85C11.26,11.59,11.54,11.14,12.11,10.74z"></path>
	<path fill-rule="evenodd" clip-rule="evenodd" fill="#FFFFFF" stroke="#373535" stroke-width="0.3" d="M17.21,3.94h1.05
		c0.27-0.3,0.45-0.67,0.55-1.1c0.07-0.23,0.13-0.43,0.2-0.6c0.03-0.7-0.12-1.3-0.45-1.8H1.21L0.96,0.69
		C0.79,0.95,0.64,1.24,0.51,1.54c-0.27,0.9-0.08,1.75,0.55,2.55l5.5-0.05l0.15-0.2c0.03-0.33,0.2-0.7,0.5-1.1l0.45-0.65
		c0.5,0.8,0.95,1.45,1.35,1.95L17.21,3.94z M11.16,6.64c-0.07,0-0.13-0.03-0.2-0.1c-0.2-0.17-0.85-1-1.95-2.5 M11.16,6.64
		c0.27-0.27,0.5-0.58,0.7-0.95l0.4-0.75c0.13-0.23,0.27-0.37,0.4-0.4l0.1,0.05c0.4,0.4,0.83,0.78,1.3,1.15l2.15,2
		c0.03,0.1,0.08,0.17,0.15,0.2c0.1,0.23,0.38,0.63,0.85,1.2v-5.2 M12.11,10.74c-0.57,0.4-0.85,0.85-0.85,1.35
		c0,0.47-0.1,0.75-0.3,0.85c-0.1,0.13-0.35,0.08-0.75-0.15c-1.57-0.97-3.12-2.75-4.65-5.35l-0.8-0.5c-0.43-0.3-0.45-0.45-0.05-0.45
		c0.33-0.03,0.75-0.5,1.25-1.4l0.6-1.05 M1.06,4.09c0.2,15.83,0.33,24.62,0.4,26.35c0.03,1.07,0.43,1.88,1.2,2.45
		c0.2,0.2,0.43,0.35,0.7,0.45l0.35,0.2c1.43-0.1,2.93-0.17,4.5-0.2c3.27-0.07,5.38,0,6.35,0.2c1.07,0.13,1.9-0.27,2.5-1.2
		c0.47-0.8,0.68-1.68,0.65-2.65c-0.07-0.13-0.07-1.22,0-3.25c0-0.7,0-1.42,0-2.15c0-3.13-0.1-5.22-0.3-6.25
		c-0.17-1-0.23-2.9-0.2-5.7h-0.05c-0.93,0.47-1.47,0.8-1.6,1c-0.1,0.23-0.25,0.28-0.45,0.15c-0.13-0.1-0.23-0.22-0.3-0.35l-2.7-2.4
		c0.3-0.2,0.63-0.38,1-0.55c0.3-0.1,0.35-0.27,0.15-0.5c-0.1-0.13-0.22-0.25-0.35-0.35l-0.75-1.25c-0.47-0.77-0.8-1.25-1-1.45
		 M17.21,9.14v0.05c0.13,0.1,0.3,0.25,0.5,0.45c0.63,0.73,1.08,1.22,1.35,1.45c0.2,0.17,0.28,0.25,0.25,0.25
		c0,0.03-0.15,0.12-0.45,0.25c-0.13,0.1-0.68,0.35-1.65,0.75 M17.71,26.44c0.3,0.03,0.58,0.02,0.85-0.05
		c0.5-0.23,0.78-0.77,0.85-1.6c0.13-3.07,0.2-6.3,0.2-9.7c0.03-6.8-0.17-11.08-0.6-12.85" style="stroke: rgb(0, 0, 0);"></path>
</g>
</svg>