<svg version="1.1" id="Layer_1" xmlns="http://www.w3.org/2000/svg" xmlns:xlink="http://www.w3.org/1999/xlink" x="0px" y="0px" width="23.025px" height="39.8px" viewBox="0 0 23.025 39.8" enable-background="new 0 0 23.025 39.8" xml:space="preserve" class="ng-scope">
<path fill-rule="evenodd" clip-rule="evenodd" fill="#FFFFFF" d="M16.4,10.575v0.85v0.15c0,0.1,0,0.184,0,0.25
	c-0.033,0.033-0.051,0.066-0.051,0.1c-0.1,0.434-0.416,0.65-0.949,0.65h-1.7v0.75c0.967,0.233,2.033,0.35,3.2,0.35
	c0.5,0,1-0.016,1.5-0.05l0.149-0.2c0.5,0.134,1.033,0.134,1.601,0c0.899-0.199,1.767-0.199,2.6,0c0.2,0.301,0.2,0.601,0,0.9
	c-0.8,0.233-1.667,0.233-2.6,0c-0.533-0.2-1.067-0.2-1.601,0l-0.05-0.15c-0.566,0.033-1.1,0.051-1.6,0.051
	c-1.167,0-2.233-0.117-3.2-0.351v10.601c1,0.166,2,0.449,3,0.85c0.2,2.2-0.05,4.25-0.75,6.15h-0.2c0.267,0.1,0.5,0.25,0.7,0.449
	c0.233,0.268,0.399,0.551,0.5,0.851c0.033,0.167,0.05,0.333,0.05,0.5v0.05c0,0.3-0.05,0.566-0.15,0.8
	c0.634-0.066,1.018-0.384,1.15-0.95v-7.149c0.267-0.2,0.55-0.2,0.85,0v7.149c-0.533,1.2-1.383,1.75-2.55,1.65
	c-0.333,0.267-0.733,0.4-1.2,0.4H12.4v4.449H10.55v-4.449h-3.1c-0.467,0-0.867-0.15-1.2-0.45h-0.3c-1.367,0.233-2.333-0.3-2.9-1.601
	v-7.149c0.333-0.2,0.617-0.2,0.851,0v7.149c0.199,0.734,0.816,1.066,1.85,1c-0.133-0.266-0.2-0.55-0.2-0.85v-0.05
	c0-0.167,0.017-0.333,0.05-0.5c0.101-0.3,0.268-0.583,0.5-0.851c0.233-0.199,0.483-0.35,0.75-0.449H6.5
	c-0.967-1.434-1.184-3.467-0.65-6.101c1.134-0.5,2.283-0.833,3.45-1v-10.5c-0.1,0.034-0.2,0.05-0.3,0.05
	c-1.3,0.268-2.783,0.351-4.45,0.25l-0.1,0.15c-0.533-0.2-1.05-0.2-1.55,0c-0.967,0.233-1.834,0.233-2.601,0
	c-0.233-0.3-0.233-0.6,0-0.9c0.8-0.199,1.667-0.199,2.601,0c0.533,0.134,1.05,0.134,1.55,0l0.149,0.2
	c1.634,0.101,3.101,0.017,4.4-0.25c0.1,0,0.2-0.017,0.3-0.05v-0.75H7.65c-0.634,0-0.95-0.334-0.95-1v-3.95c0-0.667,0.316-1,0.95-1
	H8.4C8.3,6.358,8.217,5.958,8.15,5.425L8.05,3.475H7.8v-0.65H8.4l0.149,2.6c0.067,0.566,0.233,0.967,0.5,1.2H9.3v-6.5h4.4v6.5h1.7
	c0.666,0,1,0.333,1,1v1.101v0.5v0.899V10.575z"></path>
<path fill-rule="evenodd" clip-rule="evenodd" fill="#FFFFFF" d="M9.05,6.625H8.4H9.05z"></path>
<path fill-rule="evenodd" clip-rule="evenodd" fill="#FFFFFF" d="M7.2,8.025v3.649c0,0.434,0.217,0.65,0.649,0.65h7.25
	c0.367,0,0.584-0.133,0.65-0.4c0-0.033,0-0.066,0-0.1s0-0.084,0-0.15V8.025c0-0.434-0.217-0.65-0.65-0.65H7.85
	C7.417,7.375,7.2,7.592,7.2,8.025c0-0.434,0.217-0.65,0.649-0.65h7.25c0.434,0,0.65,0.217,0.65,0.65v3.649c0,0.066,0,0.117,0,0.15
	s0,0.066,0,0.1c-0.066,0.268-0.283,0.4-0.65,0.4H7.85c-0.433,0-0.649-0.217-0.649-0.65V8.025z"></path>
<path fill-rule="evenodd" clip-rule="evenodd" fill="#FFFFFF" d="M9.3,6.625h4.4H9.3z"></path>
<path fill-rule="evenodd" clip-rule="evenodd" fill="#FFFFFF" d="M18.4,13.625c0,0.2,0.033,0.384,0.1,0.55
	C18.434,14.009,18.4,13.825,18.4,13.625z"></path>
<path fill-rule="evenodd" clip-rule="evenodd" fill="#FFFFFF" d="M20.15,13.425c-0.2,0.301-0.2,0.601,0,0.9
	C19.95,14.025,19.95,13.726,20.15,13.425z"></path>
<path fill-rule="evenodd" clip-rule="evenodd" fill="#FFFFFF" d="M13.7,13.325c-0.3,0.2-0.3,0.383,0,0.55
	C13.4,13.708,13.4,13.525,13.7,13.325z"></path>
<path fill-rule="evenodd" clip-rule="evenodd" fill="#FFFFFF" d="M9.3,13.325c0.3,0.2,0.3,0.383,0,0.55
	C9.6,13.708,9.6,13.525,9.3,13.325z"></path>
<path fill-rule="evenodd" clip-rule="evenodd" fill="#FFFFFF" d="M2.9,13.425c0.166,0.301,0.166,0.601,0,0.9
	C3.066,14.025,3.066,13.726,2.9,13.425z"></path>
<path fill-rule="evenodd" clip-rule="evenodd" fill="#FFFFFF" d="M4.55,14.175c0.067-0.166,0.083-0.35,0.05-0.55
	C4.633,13.825,4.617,14.009,4.55,14.175z"></path>
<path fill-rule="evenodd" clip-rule="evenodd" fill="#FFFFFF" d="M9.3,24.375c0.5-0.066,1.017-0.1,1.55-0.1v-5.9H12.2v5.9
	c0.5,0.033,1,0.1,1.5,0.2c-0.5-0.101-1-0.167-1.5-0.2v-5.9H10.85v5.9C10.316,24.275,9.8,24.309,9.3,24.375z"></path>
<path fill-rule="evenodd" clip-rule="evenodd" fill="#FFFFFF" d="M10.85,24.275c0.434-0.034,0.884-0.034,1.351,0
	C11.733,24.241,11.283,24.241,10.85,24.275z"></path>
<path fill-rule="evenodd" clip-rule="evenodd" fill="#FFFFFF" d="M15.75,31.476c-0.2-0.066-0.417-0.101-0.65-0.101H7.45
	c-0.2,0-0.4,0.034-0.601,0.101c0.2-0.066,0.4-0.101,0.601-0.101H15.1C15.333,31.375,15.55,31.409,15.75,31.476z"></path>
<path fill-rule="evenodd" clip-rule="evenodd" fill="#FFFFFF" d="M9.3,12.575h4.4H9.3z"></path>
<path fill-rule="evenodd" clip-rule="evenodd" fill="#FFFFFF" d="M16.3,34.825c0.033-0.033,0.083-0.084,0.15-0.15
	c0.167-0.166,0.3-0.35,0.399-0.55c-0.1,0.2-0.232,0.384-0.399,0.55C16.383,34.741,16.333,34.792,16.3,34.825z"></path>
<path fill-rule="evenodd" clip-rule="evenodd" fill="#FFFFFF" d="M5.6,32.775c0.101,0.333,0.268,0.616,0.5,0.85
	c0.167,0.167,0.351,0.3,0.551,0.4c0.232,0.134,0.5,0.2,0.8,0.2H15.1c0.233,0,0.45-0.033,0.65-0.101c0.267-0.1,0.5-0.267,0.7-0.5
	c0.233-0.233,0.399-0.517,0.5-0.85c-0.101,0.333-0.267,0.616-0.5,0.85c-0.2,0.233-0.434,0.4-0.7,0.5
	c-0.2,0.067-0.417,0.101-0.65,0.101H7.45c-0.3,0-0.567-0.066-0.8-0.2c-0.2-0.101-0.384-0.233-0.551-0.4
	C5.867,33.392,5.7,33.108,5.6,32.775z"></path>
<path fill-rule="evenodd" clip-rule="evenodd" fill="#FFFFFF" d="M10.55,35.226H12.4H10.55z"></path>
<path fill-rule="evenodd" clip-rule="evenodd" fill="#FFFFFF" d="M5.75,34.175c0.066,0.167,0.184,0.334,0.35,0.5
	c0.033,0.033,0.084,0.066,0.15,0.101c-0.066-0.034-0.117-0.067-0.15-0.101C5.934,34.509,5.816,34.342,5.75,34.175z"></path>
<path fill-rule="evenodd" clip-rule="evenodd" fill="#FFFFFF" d="M3.9,33.175c-0.233-0.333-0.518-0.333-0.851,0
	C3.383,32.842,3.667,32.842,3.9,33.175z"></path>
<path fill-rule="evenodd" clip-rule="evenodd" fill="#FFFFFF" d="M18,33.175c0.267-0.333,0.55-0.333,0.85,0
	C18.55,32.842,18.267,32.842,18,33.175z"></path>
<path fill-rule="evenodd" clip-rule="evenodd" fill="#333333" d="M7.7,1.975v2.3c-0.101,0.2-0.25,0.333-0.45,0.4
	c-0.133,0.033-0.283,0.05-0.45,0.05H5.2c-0.2,0-0.351-0.017-0.45-0.05c-0.2-0.067-0.35-0.2-0.45-0.4v-2.3
	c0.067-0.133,0.167-0.233,0.3-0.3H4.7l0.149-0.05h2.4C7.45,1.692,7.6,1.809,7.7,1.975z M18.3,10.575v-0.45V10.575H17v0.85h-0.35H17
	h1.3V10.575z M18.5,9.175v2.301c-0.066,0.133-0.167,0.232-0.3,0.3l-0.25,0.05H16.4c0-0.066,0-0.15,0-0.25v-0.15h0.25v-0.85H16.4
	v-0.45h0.25V9.226H16.4v-0.5h1.25c0.166,0,0.316,0.033,0.449,0.1C18.3,8.892,18.434,9.009,18.5,9.175z M7.45,2.875v0.45V2.875v-0.85
	h-1.3H5.85h-1.3v0.85v0.45v0.95h1.3H6.15h1.3v-0.95h-1.3v0.95H5.85v-0.95h-1.3v-0.45h1.3v-0.85H6.15v0.85H7.45z M17,9.226h-0.35H17
	v0.899h1.3V9.226H17z" style="fill: rgb(0, 0, 0);"></path>
<path fill-rule="evenodd" clip-rule="evenodd" fill="none" stroke="#383635" stroke-width="0.3" stroke-linecap="round" stroke-linejoin="round" stroke-miterlimit="3" d="
	M16.35,11.925c-0.1,0.434-0.416,0.65-0.949,0.65h-1.7v0.75c0.967,0.233,2.033,0.35,3.2,0.35c0.5,0,1-0.016,1.5-0.05l0.149-0.2
	c0.5,0.134,1.033,0.134,1.601,0c0.899-0.199,1.767-0.199,2.6,0c0.2,0.301,0.2,0.601,0,0.9c-0.8,0.233-1.667,0.233-2.6,0
	c-0.533-0.2-1.067-0.2-1.601,0l-0.05-0.15c-0.566,0.033-1.1,0.051-1.6,0.051c-1.167,0-2.233-0.117-3.2-0.351v10.601
	c1,0.166,2,0.449,3,0.85c0.2,2.2-0.05,4.25-0.75,6.15h-0.2c0.267,0.1,0.5,0.25,0.7,0.449c0.233,0.268,0.399,0.551,0.5,0.851
	c0.033,0.167,0.05,0.333,0.05,0.5v0.05c0,0.3-0.05,0.566-0.15,0.8c0.634-0.066,1.018-0.384,1.15-0.95v-7.149
	c0.267-0.2,0.55-0.2,0.85,0v7.149c-0.533,1.2-1.383,1.75-2.55,1.65c-0.333,0.267-0.733,0.4-1.2,0.4H12.4v4.449H10.55v-4.449h-3.1
	c-0.467,0-0.867-0.15-1.2-0.45h-0.3c-1.367,0.233-2.333-0.3-2.9-1.601v-7.149c0.333-0.2,0.617-0.2,0.851,0v7.149
	c0.199,0.734,0.816,1.066,1.85,1c-0.133-0.266-0.2-0.55-0.2-0.85v-0.05c0-0.167,0.017-0.333,0.05-0.5
	c0.101-0.3,0.268-0.583,0.5-0.851c0.233-0.199,0.483-0.35,0.75-0.449H6.5c-0.967-1.434-1.184-3.467-0.65-6.101
	c1.134-0.5,2.283-0.833,3.45-1v-10.5c-0.1,0.034-0.2,0.05-0.3,0.05c-1.3,0.268-2.783,0.351-4.45,0.25l-0.1,0.15
	c-0.533-0.2-1.05-0.2-1.55,0c-0.967,0.233-1.834,0.233-2.601,0c-0.233-0.3-0.233-0.6,0-0.9c0.8-0.199,1.667-0.199,2.601,0
	c0.533,0.134,1.05,0.134,1.55,0l0.149,0.2c1.634,0.101,3.101,0.017,4.4-0.25c0.1,0,0.2-0.017,0.3-0.05v-0.75H7.65
	c-0.634,0-0.95-0.334-0.95-1v-3.95c0-0.667,0.316-1,0.95-1H8.4C8.3,6.358,8.217,5.958,8.15,5.425L8.05,3.475H7.8v0.35
	c0,0.2-0.033,0.35-0.1,0.45v0.4H7.25c-0.133,0.033-0.283,0.05-0.45,0.05H5.2c-0.2,0-0.351-0.017-0.45-0.05H4.3v-0.4
	c-0.066-0.1-0.1-0.25-0.1-0.45v-1.35c0-0.2,0.033-0.367,0.1-0.5v-0.3h0.3H4.7l0.05-0.05C4.85,1.592,5,1.575,5.2,1.575h1.6
	c0.167,0,0.317,0.017,0.45,0.05H7.7v0.35c0.066,0.133,0.1,0.3,0.1,0.5v0.35H8.4l0.149,2.6c0.067,0.566,0.233,0.967,0.5,1.2H9.3v-6.5
	h4.4v6.5h1.7c0.666,0,1,0.333,1,1v1.101h1.25c0.166,0,0.316,0.033,0.449,0.1h0.4v0.35c0.066,0.134,0.1,0.301,0.1,0.5v1.301
	c0,0.199-0.033,0.366-0.1,0.5v0.3h-0.3c-0.033,0.033-0.067,0.05-0.101,0.05c-0.133,0.066-0.283,0.1-0.449,0.1H16.35
	c0-0.033,0.018-0.066,0.051-0.1c0-0.066,0-0.15,0-0.25v-0.15v-0.85" style="stroke: rgb(0, 0, 0);"></path>
<line fill-rule="evenodd" clip-rule="evenodd" fill="none" stroke="#383635" stroke-width="0.3" stroke-linecap="round" stroke-linejoin="round" stroke-miterlimit="3" x1="4.85" y1="1.625" x2="4.75" y2="1.625" style="stroke: rgb(0, 0, 0);"></line>
<path fill-rule="evenodd" clip-rule="evenodd" fill="none" stroke="#383635" stroke-width="0.3" stroke-linecap="round" stroke-linejoin="round" stroke-miterlimit="3" d="
	M4.7,1.675l0.149-0.05h2.4c0.2,0.067,0.35,0.184,0.45,0.35" style="stroke: rgb(0, 0, 0);"></path>
<path fill-rule="evenodd" clip-rule="evenodd" fill="none" stroke="#383635" stroke-width="0.3" stroke-linecap="round" stroke-linejoin="round" stroke-miterlimit="3" d="
	M4.6,1.675c-0.133,0.066-0.232,0.167-0.3,0.3v2.3c0.101,0.2,0.25,0.333,0.45,0.4" style="stroke: rgb(0, 0, 0);"></path>
<polyline fill-rule="evenodd" clip-rule="evenodd" fill="none" stroke="#383635" stroke-width="0.3" stroke-linecap="round" stroke-linejoin="round" stroke-miterlimit="3" points="
	6.15,2.025 7.45,2.025 7.45,2.875 7.45,3.325 7.45,4.275 6.15,4.275 5.85,4.275 4.55,4.275 4.55,3.325 4.55,2.875 4.55,2.025 
	5.85,2.025 6.15,2.025 6.15,2.875 7.45,2.875 " style="stroke: rgb(0, 0, 0);"></polyline>
<line fill-rule="evenodd" clip-rule="evenodd" fill="none" stroke="#383635" stroke-width="0.3" stroke-linecap="round" stroke-linejoin="round" stroke-miterlimit="3" x1="7.8" y1="3.475" x2="7.8" y2="2.825" style="stroke: rgb(0, 0, 0);"></line>
<path fill-rule="evenodd" clip-rule="evenodd" fill="none" stroke="#383635" stroke-width="0.3" stroke-linecap="round" stroke-linejoin="round" stroke-miterlimit="3" d="
	M7.25,4.675c0.2-0.067,0.35-0.2,0.45-0.4v-2.3" style="stroke: rgb(0, 0, 0);"></path>
<polyline fill-rule="evenodd" clip-rule="evenodd" fill="none" stroke="#383635" stroke-width="0.3" stroke-linecap="round" stroke-linejoin="round" stroke-miterlimit="3" points="
	5.85,4.275 5.85,3.325 4.55,3.325 " style="stroke: rgb(0, 0, 0);"></polyline>
<polyline fill-rule="evenodd" clip-rule="evenodd" fill="none" stroke="#383635" stroke-width="0.3" stroke-linecap="round" stroke-linejoin="round" stroke-miterlimit="3" points="
	7.45,3.325 6.15,3.325 6.15,4.275 " style="stroke: rgb(0, 0, 0);"></polyline>
<polyline fill-rule="evenodd" clip-rule="evenodd" fill="none" stroke="#383635" stroke-width="0.3" stroke-linecap="round" stroke-linejoin="round" stroke-miterlimit="3" points="
	4.55,2.875 5.85,2.875 5.85,2.025 " style="stroke: rgb(0, 0, 0);"></polyline>
<line fill-rule="evenodd" clip-rule="evenodd" fill="none" stroke="#383635" stroke-width="0.3" stroke-linecap="round" stroke-linejoin="round" stroke-miterlimit="3" x1="9.05" y1="6.625" x2="8.4" y2="6.625" style="stroke: rgb(0, 0, 0);"></line>
<path fill-rule="evenodd" clip-rule="evenodd" fill="none" stroke="#383635" stroke-width="0.3" stroke-linecap="round" stroke-linejoin="round" stroke-miterlimit="3" d="
	M7.2,8.025v3.649c0,0.434,0.217,0.65,0.649,0.65h7.25c0.367,0,0.584-0.133,0.65-0.4c0-0.033,0-0.066,0-0.1s0-0.084,0-0.15V8.025
	c0-0.434-0.217-0.65-0.65-0.65H7.85C7.417,7.375,7.2,7.592,7.2,8.025z" style="stroke: rgb(0, 0, 0);"></path>
<line fill-rule="evenodd" clip-rule="evenodd" fill="none" stroke="#383635" stroke-width="0.3" stroke-linecap="round" stroke-linejoin="round" stroke-miterlimit="3" x1="9.3" y1="6.625" x2="13.7" y2="6.625" style="stroke: rgb(0, 0, 0);"></line>
<path fill-rule="evenodd" clip-rule="evenodd" fill="none" stroke="#383635" stroke-width="0.3" stroke-linecap="round" stroke-linejoin="round" stroke-miterlimit="3" d="
	M18.1,8.825c0.2,0.066,0.334,0.184,0.4,0.35v2.301c-0.066,0.133-0.167,0.232-0.3,0.3l-0.25,0.05H18.1" style="stroke: rgb(0, 0, 0);"></path>
<polygon fill-rule="evenodd" clip-rule="evenodd" fill="none" stroke="#383635" stroke-width="0.3" stroke-linecap="round" stroke-linejoin="round" stroke-miterlimit="3" points="
	18.3,10.575 18.3,10.125 17,10.125 17,9.226 16.65,9.226 16.65,10.125 16.4,10.125 16.4,10.575 16.65,10.575 16.65,11.425 
	17,11.425 17,10.575 " style="stroke: rgb(0, 0, 0);"></polygon>
<polyline fill-rule="evenodd" clip-rule="evenodd" fill="none" stroke="#383635" stroke-width="0.3" stroke-linecap="round" stroke-linejoin="round" stroke-miterlimit="3" points="
	18.3,10.125 18.3,9.226 17,9.226 " style="stroke: rgb(0, 0, 0);"></polyline>
<path fill-rule="evenodd" clip-rule="evenodd" fill="none" stroke="#383635" stroke-width="0.3" stroke-linecap="round" stroke-linejoin="round" stroke-miterlimit="3" d="
	M18.4,13.625c0,0.2,0.033,0.384,0.1,0.55" style="stroke: rgb(0, 0, 0);"></path>
<path fill-rule="evenodd" clip-rule="evenodd" fill="none" stroke="#383635" stroke-width="0.3" stroke-linecap="round" stroke-linejoin="round" stroke-miterlimit="3" d="
	M20.15,13.425c-0.2,0.301-0.2,0.601,0,0.9" style="stroke: rgb(0, 0, 0);"></path>
<polyline fill-rule="evenodd" clip-rule="evenodd" fill="none" stroke="#383635" stroke-width="0.3" stroke-linecap="round" stroke-linejoin="round" stroke-miterlimit="3" points="
	17,11.425 18.3,11.425 18.3,10.575 " style="stroke: rgb(0, 0, 0);"></polyline>
<polyline fill-rule="evenodd" clip-rule="evenodd" fill="none" stroke="#383635" stroke-width="0.3" stroke-linecap="round" stroke-linejoin="round" stroke-miterlimit="3" points="
	16.65,9.226 16.4,9.226 16.4,10.125 " style="stroke: rgb(0, 0, 0);"></polyline>
<line fill-rule="evenodd" clip-rule="evenodd" fill="none" stroke="#383635" stroke-width="0.3" stroke-linecap="round" stroke-linejoin="round" stroke-miterlimit="3" x1="16.4" y1="9.226" x2="16.4" y2="8.726" style="stroke: rgb(0, 0, 0);"></line>
<path fill-rule="evenodd" clip-rule="evenodd" fill="none" stroke="#383635" stroke-width="0.3" stroke-linecap="round" stroke-linejoin="round" stroke-miterlimit="3" d="
	M13.7,13.325c-0.3,0.2-0.3,0.383,0,0.55" style="stroke: rgb(0, 0, 0);"></path>
<line fill-rule="evenodd" clip-rule="evenodd" fill="none" stroke="#383635" stroke-width="0.3" stroke-linecap="round" stroke-linejoin="round" stroke-miterlimit="3" x1="16.4" y1="11.425" x2="16.65" y2="11.425" style="stroke: rgb(0, 0, 0);"></line>
<line fill-rule="evenodd" clip-rule="evenodd" fill="none" stroke="#383635" stroke-width="0.3" stroke-linecap="round" stroke-linejoin="round" stroke-miterlimit="3" x1="17.95" y1="11.825" x2="16.4" y2="11.825" style="stroke: rgb(0, 0, 0);"></line>
<path fill-rule="evenodd" clip-rule="evenodd" fill="none" stroke="#383635" stroke-width="0.3" stroke-linecap="round" stroke-linejoin="round" stroke-miterlimit="3" d="
	M9.3,13.325c0.3,0.2,0.3,0.383,0,0.55" style="stroke: rgb(0, 0, 0);"></path>
<path fill-rule="evenodd" clip-rule="evenodd" fill="none" stroke="#383635" stroke-width="0.3" stroke-linecap="round" stroke-linejoin="round" stroke-miterlimit="3" d="
	M2.9,13.425c0.166,0.301,0.166,0.601,0,0.9" style="stroke: rgb(0, 0, 0);"></path>
<path fill-rule="evenodd" clip-rule="evenodd" fill="none" stroke="#383635" stroke-width="0.3" stroke-linecap="round" stroke-linejoin="round" stroke-miterlimit="3" d="
	M4.55,14.175c0.067-0.166,0.083-0.35,0.05-0.55" style="stroke: rgb(0, 0, 0);"></path>
<path fill-rule="evenodd" clip-rule="evenodd" fill="none" stroke="#383635" stroke-width="0.3" stroke-linecap="round" stroke-linejoin="round" stroke-miterlimit="3" d="
	M9.3,24.375c0.5-0.066,1.017-0.1,1.55-0.1v-5.9H12.2v5.9c0.5,0.033,1,0.1,1.5,0.2" style="stroke: rgb(0, 0, 0);"></path>
<path fill-rule="evenodd" clip-rule="evenodd" fill="none" stroke="#383635" stroke-width="0.3" stroke-linecap="round" stroke-linejoin="round" stroke-miterlimit="3" d="
	M10.85,24.275c0.434-0.034,0.884-0.034,1.351,0" style="stroke: rgb(0, 0, 0);"></path>
<path fill-rule="evenodd" clip-rule="evenodd" fill="none" stroke="#383635" stroke-width="0.3" stroke-linecap="round" stroke-linejoin="round" stroke-miterlimit="3" d="
	M15.75,31.476c-0.2-0.066-0.417-0.101-0.65-0.101H7.45c-0.2,0-0.4,0.034-0.601,0.101" style="stroke: rgb(0, 0, 0);"></path>
<line fill-rule="evenodd" clip-rule="evenodd" fill="none" stroke="#383635" stroke-width="0.3" stroke-linecap="round" stroke-linejoin="round" stroke-miterlimit="3" x1="9.3" y1="12.575" x2="13.7" y2="12.575" style="stroke: rgb(0, 0, 0);"></line>
<path fill-rule="evenodd" clip-rule="evenodd" fill="none" stroke="#383635" stroke-width="0.3" stroke-linecap="round" stroke-linejoin="round" stroke-miterlimit="3" d="
	M16.3,34.825c0.033-0.033,0.083-0.084,0.15-0.15c0.167-0.166,0.3-0.35,0.399-0.55" style="stroke: rgb(0, 0, 0);"></path>
<path fill-rule="evenodd" clip-rule="evenodd" fill="none" stroke="#383635" stroke-width="0.3" stroke-linecap="round" stroke-linejoin="round" stroke-miterlimit="3" d="
	M5.6,32.775c0.101,0.333,0.268,0.616,0.5,0.85c0.167,0.167,0.351,0.3,0.551,0.4c0.232,0.134,0.5,0.2,0.8,0.2H15.1
	c0.233,0,0.45-0.033,0.65-0.101c0.267-0.1,0.5-0.267,0.7-0.5c0.233-0.233,0.399-0.517,0.5-0.85" style="stroke: rgb(0, 0, 0);"></path>
<line fill-rule="evenodd" clip-rule="evenodd" fill="none" stroke="#383635" stroke-width="0.3" stroke-linecap="round" stroke-linejoin="round" stroke-miterlimit="3" x1="10.55" y1="35.226" x2="12.4" y2="35.226" style="stroke: rgb(0, 0, 0);"></line>
<path fill-rule="evenodd" clip-rule="evenodd" fill="none" stroke="#383635" stroke-width="0.3" stroke-linecap="round" stroke-linejoin="round" stroke-miterlimit="3" d="
	M5.75,34.175c0.066,0.167,0.184,0.334,0.35,0.5c0.033,0.033,0.084,0.066,0.15,0.101" style="stroke: rgb(0, 0, 0);"></path>
<path fill-rule="evenodd" clip-rule="evenodd" fill="none" stroke="#383635" stroke-width="0.3" stroke-linecap="round" stroke-linejoin="round" stroke-miterlimit="3" d="
	M3.9,33.175c-0.233-0.333-0.518-0.333-0.851,0" style="stroke: rgb(0, 0, 0);"></path>
<path fill-rule="evenodd" clip-rule="evenodd" fill="none" stroke="#383635" stroke-width="0.3" stroke-linecap="round" stroke-linejoin="round" stroke-miterlimit="3" d="
	M18,33.175c0.267-0.333,0.55-0.333,0.85,0" style="stroke: rgb(0, 0, 0);"></path>
</svg>