<svg version="1.1" id="Layer_1" xmlns="http://www.w3.org/2000/svg" xmlns:xlink="http://www.w3.org/1999/xlink" x="0px" y="0px" width="28.83px" height="28.83px" viewBox="0 2.15 28.83 28.83" enable-background="new 0 2.15 28.83 28.83" xml:space="preserve">
	<polygon fill="#FFFFFF" points="10.87,15.23 21.28,18.48 21.28,22.61 18.68,24.92 13.06,25.86 9.75,24.51 6.53,21.01 	"></polygon>
	<path fill="#FFFFFF" stroke="#000000" stroke-miterlimit="10" d="M14.23,16.82c1.84,0,3.45,0.41,4.76,1.24
		c1.31,0.79,1.95,1.76,1.95,2.92s-0.64,2.14-1.95,2.96c-1.31,0.79-2.93,1.2-4.76,1.2c-1.84,0-3.45-0.41-4.76-1.2
		c-1.31-0.82-1.95-1.8-1.95-2.96s0.64-2.14,1.95-2.92C10.78,17.23,12.39,16.82,14.23,16.82 M19.37,13.93
		c-1.43-1.42-3.15-2.14-5.14-2.14s-3.71,0.71-5.14,2.14c-1.01,1.01-1.65,2.14-1.95,3.38c-0.38,0.34-0.67,0.67-0.9,1.09
		c-0.3,0.45-0.49,0.94-0.56,1.5c-0.04,0.26-0.08,0.49-0.08,0.75c0,1.54,0.86,2.89,2.55,3.98c1.2,0.79,2.59,1.27,4.16,1.5
		c0.6,0.15,1.24,0.22,1.91,0.22c0.68,0,1.31-0.08,1.95-0.22c1.54-0.23,2.92-0.71,4.13-1.5c1.46-0.94,2.29-2.06,2.47-3.38
		c0.04-0.26,0.07-0.49,0.07-0.75c-0.04-0.98-0.38-1.88-1.05-2.66c-0.15-0.19-0.3-0.34-0.49-0.49
		C21.02,16.07,20.38,14.95,19.37,13.93z"></path>
	<path fill="#FFFFFF" stroke="#000000" stroke-miterlimit="10" d="M16.26,20.83c-0.56-0.41-1.24-0.6-2.02-0.6
		c-0.79,0-1.46,0.19-2.02,0.6c-0.56,0.37-0.9,0.82-0.98,1.39c0.08,0.56,0.41,1.05,0.98,1.42c0.56,0.41,1.24,0.6,2.02,0.6
		c0.79,0,1.46-0.19,2.02-0.6c0.56-0.38,0.9-0.86,0.98-1.42C17.16,21.66,16.82,21.21,16.26,20.83"></path>
	<path fill="#FFFFFF" d="M14.23,16.82c1.84,0,3.45,0.41,4.76,1.24c1.31,0.79,1.95,1.76,1.95,2.92
		s-0.64,2.14-1.95,2.96c-1.31,0.79-2.93,1.2-4.76,1.2c-1.84,0-3.45-0.41-4.76-1.2c-1.31-0.82-1.95-1.8-1.95-2.96
		s0.64-2.14,1.95-2.92C10.78,17.23,12.39,16.82,14.23,16.82 M19.37,13.93c-1.43-1.42-3.15-2.14-5.14-2.14s-3.71,0.71-5.14,2.14
		c-1.01,1.01-1.65,2.14-1.95,3.38c-0.38,0.34-0.67,0.67-0.9,1.09c-0.3,0.45-0.49,0.94-0.56,1.5c-0.04,0.26-0.08,0.49-0.08,0.75
		c0,1.54,0.86,2.89,2.55,3.98c1.2,0.79,2.59,1.27,4.16,1.5c0.6,0.15,1.24,0.22,1.91,0.22c0.68,0,1.31-0.08,1.95-0.22
		c1.54-0.23,2.92-0.71,4.13-1.5c1.46-0.94,2.29-2.06,2.47-3.38c0.04-0.26,0.07-0.49,0.07-0.75c-0.04-0.98-0.38-1.88-1.05-2.66
		c-0.15-0.19-0.3-0.34-0.49-0.49C21.02,16.07,20.38,14.95,19.37,13.93z"></path>
	<path fill="#FFFFFF" d="M16.26,20.83c-0.56-0.41-1.24-0.6-2.02-0.6c-0.79,0-1.46,0.19-2.02,0.6
		c-0.56,0.37-0.9,0.82-0.98,1.39c0.08,0.56,0.41,1.05,0.98,1.42c0.56,0.41,1.24,0.6,2.02,0.6c0.79,0,1.46-0.19,2.02-0.6
		c0.56-0.38,0.9-0.86,0.98-1.42C17.16,21.66,16.82,21.21,16.26,20.83"></path>
</svg>