<svg version="1.1" id="Layer_1" xmlns="http://www.w3.org/2000/svg" xmlns:xlink="http://www.w3.org/1999/xlink" x="0px" y="0px" width="28.83px" height="28.83px" viewBox="0 2.15 28.83 28.83" enable-background="new 0 2.15 28.83 28.83" xml:space="preserve">
	<polyline fill="#FFFFFF" points="5.03,17.67 17.43,24.17 23.25,19.7 12.65,12.89 	"></polyline>
	<path fill="#FFFFFF" stroke="#000000" stroke-linecap="square" stroke-miterlimit="10" d="M20.35,19.9
		c0.11,0.26,0,0.45-0.3,0.64l-0.68,0.38l-1.16,0.26c-0.45,0.04-0.86-0.07-1.2-0.3c-0.38-0.19-0.6-0.45-0.67-0.71
		c-0.04-0.34,0.07-0.56,0.38-0.75L17.35,19l1.16-0.22l1.24,0.38C20.12,19.34,20.31,19.6,20.35,19.9 M12.62,19.3l0.34,0.37
		c0.04,0.19,0,0.38-0.19,0.49l-0.04,0.04l-0.71,0.11c-0.26,0-0.52-0.07-0.71-0.26L7.6,18.02l-0.41-0.49
		c-0.04-0.19,0.04-0.34,0.22-0.41l0.04-0.07l0.67-0.08l0.75,0.23L12.62,19.3z M17.12,15.96l0.38,0.56c0.04,0.19-0.04,0.34-0.22,0.41
		l-0.68,0.08c-0.3,0.04-0.56-0.04-0.75-0.23l-3.79-2.02l-0.34-0.49c-0.04-0.19,0.04-0.3,0.23-0.41l0.68-0.15
		c0.3-0.04,0.56,0.04,0.75,0.22L17.12,15.96z M14.2,12.77c-1.01-0.15-1.95-0.15-2.81,0l-7.31,4.54c-0.04,0.15-0.04,0.3-0.04,0.45
		c-0.04,0.41,0,0.79,0.19,1.2c0.56,1.43,1.88,2.7,3.94,3.83c1.99,1.16,4.13,1.88,6.38,2.14l3.19-0.07l6.9-4.39
		c0.11-0.26,0.19-0.6,0.15-0.94c-0.04-0.26-0.15-0.56-0.26-0.86c-0.49-1.39-1.73-2.66-3.75-3.83S16.56,13,14.2,12.77z"></path>
	<path fill="#FFFFFF" d="M20.35,19.9c0.11,0.26,0,0.45-0.3,0.64l-0.68,0.38l-1.16,0.26
		c-0.45,0.04-0.86-0.07-1.2-0.3c-0.38-0.19-0.6-0.45-0.67-0.71c-0.04-0.34,0.07-0.56,0.38-0.75L17.35,19l1.16-0.22l1.24,0.38
		C20.12,19.34,20.31,19.6,20.35,19.9 M12.62,19.3l0.34,0.37c0.04,0.19,0,0.38-0.19,0.49l-0.04,0.04l-0.71,0.11
		c-0.26,0-0.52-0.07-0.71-0.26L7.6,18.02l-0.41-0.49c-0.04-0.19,0.04-0.34,0.22-0.41l0.04-0.07l0.67-0.08l0.75,0.23L12.62,19.3z
		 M17.12,15.96l0.38,0.56c0.04,0.19-0.04,0.34-0.22,0.41l-0.68,0.08c-0.3,0.04-0.56-0.04-0.75-0.23l-3.79-2.02l-0.34-0.49
		c-0.04-0.19,0.04-0.3,0.23-0.41l0.68-0.15c0.3-0.04,0.56,0.04,0.75,0.22L17.12,15.96z M14.2,12.77c-1.01-0.15-1.95-0.15-2.81,0
		l-7.31,4.54c-0.04,0.15-0.04,0.3-0.04,0.45c-0.04,0.41,0,0.79,0.19,1.2c0.56,1.43,1.88,2.7,3.94,3.83
		c1.99,1.16,4.13,1.88,6.38,2.14l3.19-0.07l6.9-4.39c0.11-0.26,0.19-0.6,0.15-0.94c-0.04-0.26-0.15-0.56-0.26-0.86
		c-0.49-1.39-1.73-2.66-3.75-3.83S16.56,13,14.2,12.77z"></path>
</svg>