<svg version="1.1" id="Layer_1" xmlns="http://www.w3.org/2000/svg" xmlns:xlink="http://www.w3.org/1999/xlink" width="35.75px" height="48px" viewBox="0 0 35.75 48" enable-background="new 0 0 35.75 47.65" xml:space="preserve" class="ng-scope">
<path fill-rule="evenodd" clip-rule="evenodd" fill="#FFFFFF" d="M34.075,1.625c0.033,0.101,0.083,0.184,0.15,0.25v0.05v-0.05
	c0-0.066-0.033-0.149-0.1-0.25H34.075l-2.15-0.3c-0.5,0-1.367,0-2.6,0c-1.267,0.134-2.033,0.2-2.3,0.2c-0.2,0-1.433,0-3.7,0
	c-2.333,0-3.883,0-4.65,0c-0.3,0-0.567,0.116-0.8,0.35c0.467,0.101,0.8,0.617,1,1.55c-0.2-0.933-0.533-1.449-1-1.55
	c0.233-0.233,0.5-0.35,0.8-0.35c0.767,0,2.316,0,4.65,0c2.267,0,3.5,0,3.7,0c0.267,0,1.034-0.066,2.3-0.2c1.233,0,2.1,0,2.6,0
	L34.075,1.625z"></path>
<path fill-rule="evenodd" clip-rule="evenodd" fill="#FFFFFF" d="M34.075,0.575c-0.067,0.2-0.1,0.384-0.1,0.55
	c0,0.233,0.033,0.4,0.1,0.5c-0.067-0.1-0.1-0.267-0.1-0.5C33.975,0.959,34.008,0.775,34.075,0.575z"></path>
<path fill-rule="evenodd" clip-rule="evenodd" fill="#FFFFFF" d="M34.475,24.175c-0.2,0-0.433,0.051-0.7,0.15
	c-0.233,0-0.483,0-0.75,0c-0.6-0.066-1.25-0.2-1.95-0.4c-0.267-0.066-0.6-0.149-1-0.25c-0.733-0.166-1.733-0.316-3-0.449
	c-0.833-0.134-1.783-0.25-2.85-0.351c-0.333-0.066-0.8-0.149-1.4-0.25c-0.833-0.2-1.917-0.45-3.25-0.75
	c-0.233-0.066-0.467-0.133-0.7-0.2c-0.933-0.199-1.783-0.383-2.55-0.55c-1.1-0.3-2.067-0.566-2.9-0.8
	c-0.133-0.066-0.267-0.116-0.4-0.15c-0.367-0.1-1.233-0.333-2.6-0.699c-0.6-0.167-1.3-0.367-2.1-0.601c-0.3-0.1-0.6-0.2-0.9-0.3
	c-1.133-0.366-2.05-0.634-2.75-0.8c-0.167-0.033-0.333-0.066-0.5-0.101c-0.067-0.033-0.133-0.05-0.2-0.05
	c-0.967-0.166-1.6-0.3-1.9-0.399c0.3,0.1,0.933,0.233,1.9,0.399c0.067,0,0.133,0.017,0.2,0.05c0.167,0.034,0.333,0.067,0.5,0.101
	c0.7,0.166,1.617,0.434,2.75,0.8c0.3,0.1,0.6,0.2,0.9,0.3c0.8,0.233,1.5,0.434,2.1,0.601c1.367,0.366,2.233,0.6,2.6,0.699
	c0.133,0.034,0.267,0.084,0.4,0.15c0.833,0.233,1.8,0.5,2.9,0.8c0.767,0.167,1.617,0.351,2.55,0.55c0.233,0.067,0.467,0.134,0.7,0.2
	c1.333,0.3,2.417,0.55,3.25,0.75c0.6,0.101,1.066,0.184,1.4,0.25c1.067,0.101,2.017,0.217,2.85,0.351
	c1.267,0.133,2.267,0.283,3,0.449c0.4,0.101,0.733,0.184,1,0.25c0.7,0.2,1.35,0.334,1.95,0.4c0.267,0,0.517,0,0.75,0
	C34.042,24.226,34.275,24.175,34.475,24.175c0,2.867,0,5.467,0,7.801c0,0.433,0,0.85,0,1.25c0,7.5,0.017,11.75,0.05,12.75
	c0,0.8-0.333,1.3-1,1.5l-1.05,0.05c-0.467,0-0.933,0-1.4,0c-0.333,0-0.667,0-1,0c-1,0-2,0-3,0c-1.4,0-2.817,0-4.25,0
	c-1.067,0-2.15,0-3.25,0c-0.367,0-0.75,0-1.15,0c-0.733,0-1.434,0-2.1,0c-1.033,0-2,0-2.9,0c-1.1,0-2.1,0-3,0c-1.133,0-2.133,0-3,0
	c-1.133,0-2.05,0-2.75,0c-0.167,0-0.333,0-0.5,0c-0.5-0.033-0.817-0.05-0.95-0.05c-0.5-0.034-0.817-0.317-0.95-0.851l-0.2-29.399
	c-0.167-0.101-0.3-0.15-0.4-0.15c-0.4-0.066-0.6-0.184-0.6-0.35c0-0.101,0.083-0.584,0.25-1.45c0.066-0.4,0.1-0.733,0.1-1
	c0.1-0.601,0.1-1.017,0-1.25c0.1-0.566,0.15-1.017,0.15-1.351c0.066,0,0.15,0,0.25,0h4.2c17.333,0.134,26.534,0.084,27.6-0.149
	c0.2,0,0.35,0,0.45,0c-0.1,0-0.25,0-0.45,0c-1.066,0.233-10.267,0.283-27.6,0.149h-4.2c-0.1,0-0.184,0-0.25,0l0.05-9.899
	c0.167,0.366,0.317,0.6,0.45,0.7c0.433,0.433,0.683,0.8,0.75,1.1c0.033,0.167-0.017,0.434-0.15,0.8
	c-0.133,0.434-0.233,0.851-0.3,1.25c-0.1,0.5-0.15,0.967-0.15,1.4c-0.033,0.166-0.05,0.267-0.05,0.3c0.066,0.667,0.066,1.167,0,1.5
	l0.1,0.1c0.267,0.134,0.75,0.2,1.45,0.2h0.15c0,0.033-0.05,0.101-0.15,0.2c-0.1,0.2-0.267,0.417-0.5,0.65
	c-0.033,0.1,0.017,0.233,0.15,0.399c0.333,0.233,2.017,0.5,5.05,0.8c0.533,0,1.267-0.05,2.2-0.149c1.267-0.2,2.017-0.417,2.25-0.65
	c0.267-0.233,0.35-0.517,0.25-0.85v-0.05h0.2c0,0.233,0.083,0.483,0.25,0.75c0.4,0.633,1.617,0.949,3.65,0.949
	c1.1,0.034,2.25,0.034,3.45,0c1.1-0.366,1.75-0.633,1.95-0.8c0.2-0.233,0.3-0.399,0.3-0.5c0.033,0.066,0.1,0.15,0.2,0.25
	c0.233,0.233,1.017,0.4,2.35,0.5c0.833,0.101,1.55,0.15,2.15,0.15c3.1-0.2,4.767-0.417,5-0.65c0.133-0.166,0.15-0.333,0.05-0.5
	c-0.133-0.2-0.267-0.366-0.4-0.5c0.133,0.134,0.267,0.3,0.4,0.5c0.1,0.167,0.083,0.334-0.05,0.5c-0.233,0.233-1.9,0.45-5,0.65
	c-0.6,0-1.316-0.05-2.15-0.15c-1.333-0.1-2.117-0.267-2.35-0.5c-0.1-0.1-0.167-0.184-0.2-0.25c0,0.101-0.1,0.267-0.3,0.5
	c-0.2,0.167-0.85,0.434-1.95,0.8c-1.2,0.034-2.35,0.034-3.45,0c-2.033,0-3.25-0.316-3.65-0.949c-0.167-0.267-0.25-0.517-0.25-0.75
	h-0.2v0.05c0.1,0.333,0.017,0.616-0.25,0.85c-0.233,0.233-0.983,0.45-2.25,0.65c-0.933,0.1-1.667,0.149-2.2,0.149
	c-3.034-0.3-4.717-0.566-5.05-0.8c-0.133-0.166-0.183-0.3-0.15-0.399c0.233-0.233,0.4-0.45,0.5-0.65c0.1-0.1,0.15-0.167,0.15-0.2
	h-0.15c-0.7,0-1.183-0.066-1.45-0.2l-0.1-0.1c0.066-0.333,0.066-0.833,0-1.5c0-0.033,0.017-0.134,0.05-0.3
	c0-0.434,0.05-0.9,0.15-1.4c0.067-0.399,0.167-0.816,0.3-1.25c0.133-0.366,0.183-0.633,0.15-0.8c-0.067-0.3-0.317-0.667-0.75-1.1
	c-0.133-0.101-0.283-0.334-0.45-0.7c-0.167,0.166-0.383,0.25-0.65,0.25c-0.2,0-0.367-0.084-0.5-0.25c-0.233-0.2-0.35-0.45-0.35-0.75
	c0-0.233,0.117-0.434,0.35-0.601c0.133-0.199,0.3-0.3,0.5-0.3c0.267,0,0.483,0.101,0.65,0.3c0.067,0.034,0.1,0.084,0.1,0.15h32.35
	c0.033-0.033,0.083-0.066,0.15-0.1c0.2-0.167,0.4-0.25,0.6-0.25c0.233,0,0.45,0.083,0.65,0.25c0.1,0.199,0.15,0.416,0.15,0.649
	c0,0.267-0.05,0.517-0.15,0.75c-0.2,0.167-0.417,0.25-0.65,0.25c-0.2,0-0.4-0.066-0.6-0.2l-0.1,0.2
	c-0.066,0.033-0.15,0.101-0.25,0.2c-0.367,0.4-0.583,0.75-0.65,1.05c-0.1,0.2-0.067,0.5,0.1,0.9c0.133,0.467,0.233,0.916,0.3,1.35
	c0.067,0.467,0.083,0.934,0.05,1.4c0,0.066,0,0.116,0,0.149c-0.1,0.7-0.133,1.217-0.1,1.551v0.199c-0.133,0.134-0.567,0.2-1.3,0.2
	c-0.167-0.267-0.216-0.6-0.15-1c0.067-0.434,0.133-0.767,0.2-1c0.066-0.267,0.1-0.666,0.1-1.2c-0.034-0.566-0.017-1.033,0.05-1.399
	c0.133-0.601-0.05-0.934-0.55-1l-0.75,0.1c-0.434,0.134-0.9,0.233-1.4,0.3c-1.133,0.134-2.083,0.167-2.85,0.101
	c-1.1-0.233-1.917-0.384-2.45-0.45c0.533,0.066,1.35,0.217,2.45,0.45c0.767,0.066,1.716,0.033,2.85-0.101
	c0.5-0.066,0.967-0.166,1.4-0.3l0.75-0.1c0.5,0.066,0.683,0.399,0.55,1c-0.067,0.366-0.083,0.833-0.05,1.399
	c0,0.534-0.034,0.934-0.1,1.2c-0.067,0.233-0.133,0.566-0.2,1c-0.066,0.4-0.017,0.733,0.15,1c0.733,0,1.167-0.066,1.3-0.2V8.726
	c-0.033-0.334,0-0.851,0.1-1.551c0-0.033,0-0.083,0-0.149c0.033-0.467,0.017-0.934-0.05-1.4c-0.066-0.434-0.167-0.883-0.3-1.35
	c-0.167-0.4-0.2-0.7-0.1-0.9c0.067-0.3,0.283-0.649,0.65-1.05c0.1-0.1,0.184-0.167,0.25-0.2l-0.05,9.4c0.433,0.1,0.683,0.6,0.75,1.5
	c0.1,0.467,0.1,1.017,0,1.649c0.267,1.2,0.45,2.717,0.55,4.551c0,1.399-0.05,2.683-0.15,3.85
	C35.225,23.575,34.975,23.941,34.475,24.175z"></path>
<path fill-rule="evenodd" clip-rule="evenodd" fill="#FFFFFF" d="M17.875,1.875c-0.167-0.066-0.367-0.1-0.6-0.1
	c-0.8-0.101-2.316-0.101-4.55,0c-2.367,0-3.6,0-3.7,0c-0.933-0.167-1.733-0.25-2.4-0.25c-1.133-0.033-2.017-0.033-2.65,0l-2.35,0.25
	l2.35-0.25c0.633-0.033,1.517-0.033,2.65,0c0.667,0,1.467,0.083,2.4,0.25c0.1,0,1.333,0,3.7,0c2.233-0.101,3.75-0.101,4.55,0
	C17.508,1.775,17.708,1.809,17.875,1.875z"></path>
<path fill-rule="evenodd" clip-rule="evenodd" fill="#FFFFFF" d="M13.325,9.476c0-0.067,0.05-0.2,0.15-0.4s0.183-0.45,0.25-0.75
	c0.033-0.3,0.05-0.566,0.05-0.8c0-0.267,0-0.434,0-0.5c-0.1-0.667-0.15-1.101-0.15-1.3c0-0.034,0-0.067,0-0.101
	c-0.033-0.133-0.05-0.233-0.05-0.3c0,0.066,0.017,0.167,0.05,0.3c0,0.033,0,0.066,0,0.101c0,0.199,0.05,0.633,0.15,1.3
	c0,0.066,0,0.233,0,0.5c0,0.233-0.017,0.5-0.05,0.8c-0.067,0.3-0.15,0.55-0.25,0.75S13.325,9.408,13.325,9.476z"></path>
<path fill-rule="evenodd" clip-rule="evenodd" fill="#FFFFFF" d="M13.575,5.325c-0.267-1.267,0.1-1.816,1.1-1.65
	C13.675,3.509,13.309,4.059,13.575,5.325z"></path>
<path fill-rule="evenodd" clip-rule="evenodd" fill="#FFFFFF" d="M14.675,3.675c0.533,0.067,1.45,0.217,2.75,0.45
	c0.233,0.033,0.5,0.05,0.8,0.05c0.2,0,0.417-0.017,0.65-0.05c0.2,0,0.4,0,0.6,0c0.2-0.033,0.4-0.066,0.6-0.1
	c0.667-0.066,1.183-0.15,1.55-0.25c-0.367,0.1-0.883,0.184-1.55,0.25c-0.2,0.033-0.4,0.066-0.6,0.1c-0.2,0-0.4,0-0.6,0
	c-0.233,0.033-0.45,0.05-0.65,0.05c-0.3,0-0.567-0.017-0.8-0.05C16.125,3.892,15.208,3.742,14.675,3.675z"></path>
<path fill-rule="evenodd" clip-rule="evenodd" fill="#FFFFFF" d="M21.625,3.775c0.633-0.066,0.9,0.267,0.8,1
	C22.525,4.042,22.258,3.709,21.625,3.775z"></path>
<path fill-rule="evenodd" clip-rule="evenodd" fill="#FFFFFF" d="M22.425,4.775c0.033,0.3,0.066,0.616,0.1,0.95
	c0,0.333,0,0.683,0,1.05c0,0.333,0,0.783,0,1.35c0,0.533,0.034,0.884,0.1,1.05c0.067,0.167,0.133,0.284,0.2,0.351
	c0-0.033,0.017-0.101,0.05-0.2c0.167-0.4,0.25-0.667,0.25-0.8c0.1-0.167,0.133-0.584,0.1-1.25c0-0.033,0-0.117,0-0.25
	c-0.033-0.733-0.067-1.2-0.1-1.4c0-0.2,0-0.316,0-0.35c0,0.033,0,0.149,0,0.35c0.033,0.2,0.067,0.667,0.1,1.4
	c0,0.133,0,0.217,0,0.25c0.033,0.666,0,1.083-0.1,1.25c0,0.133-0.083,0.399-0.25,0.8c-0.033,0.1-0.05,0.167-0.05,0.2
	c-0.067-0.066-0.133-0.184-0.2-0.351c-0.066-0.166-0.1-0.517-0.1-1.05c0-0.566,0-1.017,0-1.35c0-0.367,0-0.717,0-1.05
	C22.492,5.392,22.458,5.075,22.425,4.775z"></path>
<path fill-rule="evenodd" clip-rule="evenodd" fill="#FFFFFF" d="M23.125,5.275c-0.467-1.467-0.017-2.033,1.35-1.7
	C23.108,3.242,22.658,3.809,23.125,5.275z"></path>
<path fill-rule="evenodd" clip-rule="evenodd" fill="#FFFFFF" d="M3.875,9.125c0.067-0.3,0.1-0.816,0.1-1.55c0-0.134,0-0.316,0-0.55
	c-0.033-0.5-0.067-0.967-0.1-1.4c0-0.267-0.017-0.517-0.05-0.75c-0.2-0.7-0.05-1.066,0.45-1.1c0.233-0.066,0.45-0.05,0.65,0.05
	l1.6,0.3c1.034,0.167,1.934,0.2,2.7,0.101c0.6-0.067,1.417-0.2,2.45-0.4c-1.034,0.2-1.85,0.333-2.45,0.4
	c-0.767,0.1-1.667,0.066-2.7-0.101l-1.6-0.3c-0.2-0.1-0.417-0.116-0.65-0.05c-0.5,0.033-0.65,0.399-0.45,1.1
	c0.033,0.233,0.05,0.483,0.05,0.75c0.033,0.434,0.067,0.9,0.1,1.4c0,0.233,0,0.416,0,0.55C3.975,8.309,3.942,8.825,3.875,9.125z"></path>
<path fill-rule="evenodd" clip-rule="evenodd" fill="#FFFFFF" d="M11.675,3.825c1.033-0.233,1.5,0.366,1.4,1.8
	c-0.033,0.066-0.05,0.15-0.05,0.25c0-0.1,0.017-0.184,0.05-0.25C13.175,4.191,12.708,3.592,11.675,3.825z"></path>
<path fill-rule="evenodd" clip-rule="evenodd" fill="#FFFFFF" d="M13.025,5.875v1.15c-0.033,0.233-0.066,0.55-0.1,0.95
	c-0.067,0.399-0.083,0.666-0.05,0.8c0,0.1,0.067,0.3,0.2,0.6c0.033,0.033,0.05,0.066,0.05,0.101c0-0.034-0.017-0.067-0.05-0.101
	c-0.133-0.3-0.2-0.5-0.2-0.6c-0.033-0.134-0.017-0.4,0.05-0.8c0.033-0.4,0.066-0.717,0.1-0.95V5.875z"></path>
<path fill-rule="evenodd" clip-rule="evenodd" fill="#FFFFFF" d="M22.825,9.525c0,0.033,0.017,0.05,0.05,0.05v0.05
	c0.033,0.033,0.05,0.117,0.05,0.25c0-0.133-0.017-0.217-0.05-0.25v-0.05C22.842,9.575,22.825,9.559,22.825,9.525z"></path>
<path fill-rule="evenodd" clip-rule="evenodd" fill="#FFFFFF" d="M1.725,0.575c0.1,0.134,0.15,0.283,0.15,0.45
	c0,0.2-0.083,0.45-0.25,0.75c0.167-0.3,0.25-0.55,0.25-0.75C1.875,0.858,1.825,0.709,1.725,0.575z"></path>
<path fill-rule="evenodd" clip-rule="evenodd" fill="none" stroke="#383635" stroke-width="0.3" stroke-linecap="round" stroke-linejoin="round" stroke-miterlimit="3" d="
	M13.575,5.325c-0.267-1.267,0.1-1.816,1.1-1.65" style="stroke: rgb(0, 0, 0);"></path>
<path fill-rule="evenodd" clip-rule="evenodd" fill="none" stroke="#383635" stroke-width="0.3" stroke-linecap="round" stroke-linejoin="round" stroke-miterlimit="3" d="
	M21.625,3.775c0.633-0.066,0.9,0.267,0.8,1" style="stroke: rgb(0, 0, 0);"></path>
<path fill-rule="evenodd" clip-rule="evenodd" fill="none" stroke="#383635" stroke-width="0.3" stroke-linecap="round" stroke-linejoin="round" stroke-miterlimit="3" d="
	M23.125,5.275c-0.467-1.467-0.017-2.033,1.35-1.7" style="stroke: rgb(0, 0, 0);"></path>
<path fill-rule="evenodd" clip-rule="evenodd" fill="none" stroke="#383635" stroke-width="0.3" stroke-linecap="round" stroke-linejoin="round" stroke-miterlimit="3" d="
	M11.675,3.825c1.033-0.233,1.5,0.366,1.4,1.8c-0.033,0.066-0.05,0.15-0.05,0.25" style="stroke: rgb(0, 0, 0);"></path>
<path fill-rule="evenodd" clip-rule="evenodd" fill="none" stroke="#383635" stroke-width="0.3" d="M34.075,1.625l-2.15-0.3
	c-0.5,0-1.367,0-2.6,0c-1.267,0.134-2.033,0.2-2.3,0.2c-0.2,0-1.433,0-3.7,0c-2.333,0-3.883,0-4.65,0c-0.3,0-0.567,0.116-0.8,0.35
	c0.467,0.101,0.8,0.617,1,1.55" style="stroke: rgb(0, 0, 0);"></path>
<path fill-rule="evenodd" clip-rule="evenodd" fill="none" stroke="#383635" stroke-width="0.3" d="M34.075,0.575
	c-0.067,0.2-0.1,0.384-0.1,0.55c0,0.233,0.033,0.4,0.1,0.5h0.05c0.067,0.101,0.1,0.184,0.1,0.25v0.05c0.2,0.134,0.4,0.2,0.6,0.2
	c0.233,0,0.45-0.083,0.65-0.25c0.1-0.233,0.15-0.483,0.15-0.75c0-0.233-0.05-0.45-0.15-0.649c-0.2-0.167-0.417-0.25-0.65-0.25
	c-0.2,0-0.4,0.083-0.6,0.25C34.158,0.509,34.108,0.542,34.075,0.575z" style="stroke: rgb(0, 0, 0);"></path>
<path fill-rule="evenodd" clip-rule="evenodd" fill="none" stroke="#383635" stroke-width="0.3" d="M34.075,1.625
	c0.033,0.101,0.083,0.184,0.15,0.25" style="stroke: rgb(0, 0, 0);"></path>
<path fill-rule="evenodd" clip-rule="evenodd" fill="none" stroke="#383635" stroke-width="0.3" d="M24.475,3.575
	c0.533,0.066,1.35,0.217,2.45,0.45c0.767,0.066,1.716,0.033,2.85-0.101c0.5-0.066,0.967-0.166,1.4-0.3l0.75-0.1
	c0.5,0.066,0.683,0.399,0.55,1c-0.067,0.366-0.083,0.833-0.05,1.399c0,0.534-0.034,0.934-0.1,1.2c-0.067,0.233-0.133,0.566-0.2,1
	c-0.066,0.4-0.017,0.733,0.15,1c0.733,0,1.167-0.066,1.3-0.2V8.726c-0.033-0.334,0-0.851,0.1-1.551c0-0.033,0-0.083,0-0.149
	c0.033-0.467,0.017-0.934-0.05-1.4c-0.066-0.434-0.167-0.883-0.3-1.35c-0.167-0.4-0.2-0.7-0.1-0.9c0.067-0.3,0.283-0.649,0.65-1.05
	c0.1-0.1,0.184-0.167,0.25-0.2l0.1-0.2" style="stroke: rgb(0, 0, 0);"></path>
<path fill-rule="evenodd" clip-rule="evenodd" fill="none" stroke="#383635" stroke-width="0.3" d="M32.275,9.125
	c0.133,0.134,0.267,0.3,0.4,0.5c0.1,0.167,0.083,0.334-0.05,0.5c-0.233,0.233-1.9,0.45-5,0.65c-0.6,0-1.316-0.05-2.15-0.15
	c-1.333-0.1-2.117-0.267-2.35-0.5c-0.1-0.1-0.167-0.184-0.2-0.25c0,0.101-0.1,0.267-0.3,0.5c-0.2,0.167-0.85,0.434-1.95,0.8
	c-1.2,0.034-2.35,0.034-3.45,0c-2.033,0-3.25-0.316-3.65-0.949c-0.167-0.267-0.25-0.517-0.25-0.75h-0.2v0.05
	c0.1,0.333,0.017,0.616-0.25,0.85c-0.233,0.233-0.983,0.45-2.25,0.65c-0.933,0.1-1.667,0.149-2.2,0.149
	c-3.034-0.3-4.717-0.566-5.05-0.8c-0.133-0.166-0.183-0.3-0.15-0.399c0.233-0.233,0.4-0.45,0.5-0.65c0.1-0.1,0.15-0.167,0.15-0.2
	h-0.15c-0.7,0-1.183-0.066-1.45-0.2l-0.1-0.1c0.066-0.333,0.066-0.833,0-1.5c0-0.033,0.017-0.134,0.05-0.3
	c0-0.434,0.05-0.9,0.15-1.4c0.067-0.399,0.167-0.816,0.3-1.25c0.133-0.366,0.183-0.633,0.15-0.8c-0.067-0.3-0.317-0.667-0.75-1.1
	c-0.133-0.101-0.283-0.334-0.45-0.7l-0.05,9.899c0.066,0,0.15,0,0.25,0h4.2c17.333,0.134,26.534,0.084,27.6-0.149
	c0.2,0,0.35,0,0.45,0l0.05-9.4" style="stroke: rgb(0, 0, 0);"></path>
<path fill-rule="evenodd" clip-rule="evenodd" fill="none" stroke="#383635" stroke-width="0.3" d="M34.475,24.175
	c0.5-0.233,0.75-0.6,0.75-1.1c0.1-1.167,0.15-2.45,0.15-3.85c-0.1-1.834-0.283-3.351-0.55-4.551c0.1-0.633,0.1-1.183,0-1.649
	c-0.067-0.9-0.317-1.4-0.75-1.5" style="stroke: rgb(0, 0, 0);"></path>
<path fill-rule="evenodd" clip-rule="evenodd" fill="none" stroke="#383635" stroke-width="0.3" d="M2.075,17.226
	c0.3,0.1,0.933,0.233,1.9,0.399c0.067,0,0.133,0.017,0.2,0.05c0.167,0.034,0.333,0.067,0.5,0.101c0.7,0.166,1.617,0.434,2.75,0.8
	c0.3,0.1,0.6,0.2,0.9,0.3c0.8,0.233,1.5,0.434,2.1,0.601c1.367,0.366,2.233,0.6,2.6,0.699c0.133,0.034,0.267,0.084,0.4,0.15
	c0.833,0.233,1.8,0.5,2.9,0.8c0.767,0.167,1.617,0.351,2.55,0.55c0.233,0.067,0.467,0.134,0.7,0.2c1.333,0.3,2.417,0.55,3.25,0.75
	c0.6,0.101,1.066,0.184,1.4,0.25c1.067,0.101,2.017,0.217,2.85,0.351c1.267,0.133,2.267,0.283,3,0.449c0.4,0.101,0.733,0.184,1,0.25
	c0.7,0.2,1.35,0.334,1.95,0.4c0.267,0,0.517,0,0.75,0c0.267-0.1,0.5-0.15,0.7-0.15c0,2.867,0,5.467,0,7.801c0,0.433,0,0.85,0,1.25
	c0,7.5,0.017,11.75,0.05,12.75c0,0.8-0.333,1.3-1,1.5l-1.05,0.05c-0.467,0-0.933,0-1.4,0c-0.333,0-0.667,0-1,0c-1,0-2,0-3,0
	c-1.4,0-2.817,0-4.25,0c-1.067,0-2.15,0-3.25,0c-0.367,0-0.75,0-1.15,0c-0.733,0-1.434,0-2.1,0c-1.033,0-2,0-2.9,0c-1.1,0-2.1,0-3,0
	c-1.133,0-2.133,0-3,0c-1.133,0-2.05,0-2.75,0c-0.167,0-0.333,0-0.5,0c-0.5-0.033-0.817-0.05-0.95-0.05
	c-0.5-0.034-0.817-0.317-0.95-0.851L2.075,17.226c-0.167-0.101-0.3-0.15-0.4-0.15c-0.4-0.066-0.6-0.184-0.6-0.35
	c0-0.101,0.083-0.584,0.25-1.45c0.066-0.4,0.1-0.733,0.1-1c0.1-0.601,0.1-1.017,0-1.25c0.1-0.566,0.15-1.017,0.15-1.351" style="stroke: rgb(0, 0, 0);"></path>
<path fill-rule="evenodd" clip-rule="evenodd" fill="none" stroke="#383635" stroke-width="0.3" d="M17.875,1.875
	c-0.167-0.066-0.367-0.1-0.6-0.1c-0.8-0.101-2.316-0.101-4.55,0c-2.367,0-3.6,0-3.7,0c-0.933-0.167-1.733-0.25-2.4-0.25
	c-1.133-0.033-2.017-0.033-2.65,0l-2.35,0.25" style="stroke: rgb(0, 0, 0);"></path>
<path fill-rule="evenodd" clip-rule="evenodd" fill="none" stroke="#383635" stroke-width="0.3" d="M13.325,9.476
	c0-0.067,0.05-0.2,0.15-0.4s0.183-0.45,0.25-0.75c0.033-0.3,0.05-0.566,0.05-0.8c0-0.267,0-0.434,0-0.5
	c-0.1-0.667-0.15-1.101-0.15-1.3c0-0.034,0-0.067,0-0.101c-0.033-0.133-0.05-0.233-0.05-0.3" style="stroke: rgb(0, 0, 0);"></path>
<path fill-rule="evenodd" clip-rule="evenodd" fill="none" stroke="#383635" stroke-width="0.3" d="M14.675,3.675
	c0.533,0.067,1.45,0.217,2.75,0.45c0.233,0.033,0.5,0.05,0.8,0.05c0.2,0,0.417-0.017,0.65-0.05c0.2,0,0.4,0,0.6,0
	c0.2-0.033,0.4-0.066,0.6-0.1c0.667-0.066,1.183-0.15,1.55-0.25" style="stroke: rgb(0, 0, 0);"></path>
<path fill-rule="evenodd" clip-rule="evenodd" fill="none" stroke="#383635" stroke-width="0.3" d="M22.425,4.775
	c0.033,0.3,0.066,0.616,0.1,0.95c0,0.333,0,0.683,0,1.05c0,0.333,0,0.783,0,1.35c0,0.533,0.034,0.884,0.1,1.05
	c0.067,0.167,0.133,0.284,0.2,0.351c0-0.033,0.017-0.101,0.05-0.2c0.167-0.4,0.25-0.667,0.25-0.8c0.1-0.167,0.133-0.584,0.1-1.25
	c0-0.033,0-0.117,0-0.25c-0.033-0.733-0.067-1.2-0.1-1.4c0-0.2,0-0.316,0-0.35" style="stroke: rgb(0, 0, 0);"></path>
<path fill-rule="evenodd" clip-rule="evenodd" fill="none" stroke="#383635" stroke-width="0.3" d="M3.875,9.125
	c0.067-0.3,0.1-0.816,0.1-1.55c0-0.134,0-0.316,0-0.55c-0.033-0.5-0.067-0.967-0.1-1.4c0-0.267-0.017-0.517-0.05-0.75
	c-0.2-0.7-0.05-1.066,0.45-1.1c0.233-0.066,0.45-0.05,0.65,0.05l1.6,0.3c1.034,0.167,1.934,0.2,2.7,0.101
	c0.6-0.067,1.417-0.2,2.45-0.4" style="stroke: rgb(0, 0, 0);"></path>
<path fill-rule="evenodd" clip-rule="evenodd" fill="none" stroke="#383635" stroke-width="0.3" d="M13.025,5.875v1.15
	c-0.033,0.233-0.066,0.55-0.1,0.95c-0.067,0.399-0.083,0.666-0.05,0.8c0,0.1,0.067,0.3,0.2,0.6c0.033,0.033,0.05,0.066,0.05,0.101" style="stroke: rgb(0, 0, 0);"></path>
<path fill-rule="evenodd" clip-rule="evenodd" fill="none" stroke="#383635" stroke-width="0.3" d="M22.825,9.525
	c0,0.033,0.017,0.05,0.05,0.05v0.05c0.033,0.033,0.05,0.117,0.05,0.25" style="stroke: rgb(0, 0, 0);"></path>
<path fill-rule="evenodd" clip-rule="evenodd" fill="none" stroke="#383635" stroke-width="0.3" d="M1.725,0.575
	c0.1,0.134,0.15,0.283,0.15,0.45c0,0.2-0.083,0.45-0.25,0.75c-0.167,0.166-0.383,0.25-0.65,0.25c-0.2,0-0.367-0.084-0.5-0.25
	c-0.233-0.2-0.35-0.45-0.35-0.75c0-0.233,0.117-0.434,0.35-0.601c0.133-0.199,0.3-0.3,0.5-0.3c0.267,0,0.483,0.101,0.65,0.3
	C1.692,0.459,1.725,0.509,1.725,0.575h32.35" style="stroke: rgb(0, 0, 0);"></path>
</svg>