<svg version="1.1" id="Layer_1" xmlns="http://www.w3.org/2000/svg" xmlns:xlink="http://www.w3.org/1999/xlink" x="0px" y="0px" width="28.83px" height="28.83px" viewBox="0 2.15 28.83 28.83" enable-background="new 0 2.15 28.83 28.83" xml:space="preserve">
	<path fill="#FFFFFF" d="M10.65,16.71c0,0-3.25,2.8-2.53,4.39s3.79,3.63,6.28,3.72c2.49,0.08,6.55-1.8,6.28-3.91
		c-0.26-2.11-5.28-4.06-5.28-4.06"></path>
	<path fill="#FFFFFF" stroke="#000000" stroke-miterlimit="10" d="M17.46,19.06c0-0.38-0.11-0.67-0.38-0.94
		c2.14,0.6,3.19,1.54,3.19,2.85c0,0.86-0.56,1.61-1.72,2.25s-2.55,0.94-4.16,0.94s-3-0.3-4.13-0.94c-1.16-0.64-1.72-1.39-1.72-2.25
		c0-1.31,1.05-2.29,3.15-2.85c-0.26,0.3-0.38,0.6-0.38,0.94c0,0.56,0.3,1.01,0.9,1.39c0.6,0.41,1.31,0.6,2.17,0.6
		s1.58-0.19,2.18-0.6C17.16,20.07,17.46,19.62,17.46,19.06 M19.6,16.88V10.8c0-0.94-0.9-1.69-2.7-2.21l-2.51-0.34L11.87,8.6
		c-1.8,0.52-2.7,1.27-2.7,2.21L9.21,11v5.93c-0.3,0.3-0.45,0.64-0.45,1.01v0.04l0.04,0.11v0.34c-0.86,0.68-1.27,1.54-1.27,2.55
		c0,1.31,0.75,2.36,2.25,3.15c1.31,0.71,2.85,1.05,4.61,1.05s3.34-0.34,4.65-1.05c1.5-0.79,2.25-1.84,2.25-3.15
		c0-1.01-0.41-1.84-1.24-2.51v-0.38l0.04-0.11v-0.04C20.08,17.52,19.93,17.18,19.6,16.88z"></path>
	<path fill="#FFFFFF" d="M17.46,19.06c0-0.38-0.11-0.67-0.38-0.94c2.14,0.6,3.19,1.54,3.19,2.85
		c0,0.86-0.56,1.61-1.72,2.25s-2.55,0.94-4.16,0.94s-3-0.3-4.13-0.94c-1.16-0.64-1.72-1.39-1.72-2.25c0-1.31,1.05-2.29,3.15-2.85
		c-0.26,0.3-0.38,0.6-0.38,0.94c0,0.56,0.3,1.01,0.9,1.39c0.6,0.41,1.31,0.6,2.17,0.6s1.58-0.19,2.18-0.6
		C17.16,20.07,17.46,19.62,17.46,19.06 M19.6,16.88V10.8c0-0.94-0.9-1.69-2.7-2.21l-2.51-0.34L11.87,8.6
		c-1.8,0.52-2.7,1.27-2.7,2.21L9.21,11v5.93c-0.3,0.3-0.45,0.64-0.45,1.01v0.04l0.04,0.11v0.34c-0.86,0.68-1.27,1.54-1.27,2.55
		c0,1.31,0.75,2.36,2.25,3.15c1.31,0.71,2.85,1.05,4.61,1.05s3.34-0.34,4.65-1.05c1.5-0.79,2.25-1.84,2.25-3.15
		c0-1.01-0.41-1.84-1.24-2.51v-0.38l0.04-0.11v-0.04C20.08,17.52,19.93,17.18,19.6,16.88z"></path>
</svg>