<svg version="1.1" id="Layer_1" xmlns="http://www.w3.org/2000/svg" xmlns:xlink="http://www.w3.org/1999/xlink" x="0px" y="0px" width="11.4px" height="11.55px" viewBox="0 0 11.4 11.55" enable-background="new 0 0 11.4 11.55" xml:space="preserve" class="ng-scope">
<path fill-rule="evenodd" clip-rule="evenodd" fill="#FFFFFF" d="M5.75,10.149c-1.233,0-2.3-0.416-3.199-1.25
	C1.717,8,1.301,6.949,1.301,5.75H5.75H1.301c0-1.233,0.416-2.267,1.25-3.101c0.899-0.866,1.966-1.3,3.199-1.3
	c1.2,0,2.217,0.434,3.051,1.3c0.866,0.834,1.3,1.867,1.3,3.101H5.75V10.149V5.75h4.351c0,1.199-0.434,2.25-1.3,3.149
	C7.967,9.733,6.95,10.149,5.75,10.149z"></path>
<path fill-rule="evenodd" clip-rule="evenodd" fill="#FFFFFF" d="M5.75,5.75v-4.4V5.75z"></path>
<path fill-rule="evenodd" clip-rule="evenodd" fill="none" stroke="#383635" stroke-width="0.3" d="M5.75,10.149
	c1.2,0,2.217-0.416,3.051-1.25c0.866-0.899,1.3-1.95,1.3-3.149H5.75V10.149v1.4" style="stroke: rgb(0, 0, 0);"></path>
<line fill-rule="evenodd" clip-rule="evenodd" fill="none" stroke="#383635" stroke-width="0.3" x1="10.101" y1="5.75" x2="11.4" y2="5.75" style="stroke: rgb(0, 0, 0);"></line>
<path fill-rule="evenodd" clip-rule="evenodd" fill="none" stroke="#383635" stroke-width="0.3" d="M5.75,1.35
	c1.2,0,2.217,0.434,3.051,1.3c0.866,0.834,1.3,1.867,1.3,3.101" style="stroke: rgb(0, 0, 0);"></path>
<path fill-rule="evenodd" clip-rule="evenodd" fill="none" stroke="#383635" stroke-width="0.3" d="M1.301,5.75
	c0-1.233,0.416-2.267,1.25-3.101c0.899-0.866,1.966-1.3,3.199-1.3V0" style="stroke: rgb(0, 0, 0);"></path>
<line fill-rule="evenodd" clip-rule="evenodd" fill="none" stroke="#383635" stroke-width="0.3" x1="1.301" y1="5.75" x2="0" y2="5.75" style="stroke: rgb(0, 0, 0);"></line>
<path fill-rule="evenodd" clip-rule="evenodd" fill="none" stroke="#383635" stroke-width="0.3" d="M5.75,5.75H1.301
	c0,1.199,0.416,2.25,1.25,3.149c0.899,0.834,1.966,1.25,3.199,1.25" style="stroke: rgb(0, 0, 0);"></path>
<line fill-rule="evenodd" clip-rule="evenodd" fill="none" stroke="#383635" stroke-width="0.3" x1="5.75" y1="5.75" x2="5.75" y2="1.35" style="stroke: rgb(0, 0, 0);"></line>
</svg>