<svg version="1.1" id="Layer_1" xmlns="http://www.w3.org/2000/svg" xmlns:xlink="http://www.w3.org/1999/xlink" x="0px" y="0px" width="40.918px" height="23.212px" viewBox="0 0 40.918 23.212" enable-background="new 0 0 40.918 23.212" xml:space="preserve" class="ng-scope">
<path fill-rule="evenodd" clip-rule="evenodd" fill="#FFFFFF" d="M5.293,4.475v1.85V4.475z"></path>
<path fill-rule="evenodd" clip-rule="evenodd" fill="#FFFFFF" d="M39.343,1.925c0.367,0.2,0.55,0.5,0.55,0.899
	c0.067,0.4,0.233,2.9,0.5,7.5c0.133,2.367,0.267,4.684,0.4,6.95l-0.1,0.65c-0.233,0.533-0.55,0.833-0.95,0.899
	c-0.067,0-0.15,0-0.25,0l0.15,1.9c0,1.467-0.267,2.217-0.8,2.25c-0.833,0.066-6.9,0.1-18.2,0.1c-0.133,0.033-0.267,0-0.4-0.1
	c-0.2-0.066-0.317-0.283-0.35-0.65c-0.067,0.301-0.317,0.518-0.75,0.65l-0.45,0.1c-2.767,0-5.583-0.033-8.45-0.1
	c-5.6-0.033-8.55-0.066-8.85-0.1c-0.333-0.066-0.583-0.167-0.75-0.301l-0.05-0.25v-3.6c-0.3-0.3-0.45-0.584-0.45-0.85
	c-0.067-4.734,0.05-9.45,0.35-14.15c0-0.233,0.05-0.45,0.15-0.65l1.6-0.5c0-1.166,0.25-1.916,0.75-2.25l0.7-0.199h33.3
	c1.133,0.1,1.733,0.616,1.8,1.55L39.343,1.925z"></path>
<path fill-rule="evenodd" clip-rule="evenodd" fill="#FFFFFF" d="M35.243,6.524v-2.6c-0.033-0.767-0.083-1.333-0.15-1.7
	c-0.067-0.233-0.117-0.383-0.15-0.45c-0.267-0.267-2.733-0.366-7.4-0.3c-4.667,0.033-7.05,0.2-7.15,0.5
	c-0.133,0.367-0.217,1.1-0.25,2.2v2.2c0.006,0.404,0.106,0.67,0.3,0.8c0.2,0.167,1.784,0.25,4.75,0.25
	c0.367-0.833,0.483-1.733,0.35-2.7c-0.033-0.334-0.066-0.666-0.1-1l0.45-0.05l7.85,3.35c0.733-0.1,1.217-0.183,1.45-0.25
	c-0.233,0.067-0.716,0.15-1.45,0.25l-7.85-3.35l-0.45,0.05c0.034,0.334,0.067,0.666,0.1,1c0.133,0.967,0.017,1.867-0.35,2.7
	c-2.966,0-4.55-0.083-4.75-0.25c-0.193-0.13-0.293-0.396-0.3-0.8v-2.2c0.033-1.101,0.117-1.833,0.25-2.2
	c0.1-0.3,2.483-0.467,7.15-0.5c4.667-0.066,7.133,0.033,7.4,0.3c0.034,0.067,0.083,0.217,0.15,0.45
	c0.066,0.367,0.117,0.934,0.15,1.7V6.524z"></path>
<path fill-rule="evenodd" clip-rule="evenodd" fill="#FFFFFF" d="M35.193,6.774h0.05v1.101c0.733,0.166,1.45,0.399,2.15,0.699
	c0.167,0.066,0.333,0.15,0.5,0.25c0.1,0.134,0.2,0.301,0.3,0.5l-2.95,3.551c0,0.899,0.033,1.816,0.1,2.75
	c0.033,0.732,0.15,1.467,0.35,2.199c0.034,0.234,0.1,0.467,0.2,0.7l3.6,0.3l-3.6-0.3c-0.1-0.233-0.167-0.466-0.2-0.7
	c-0.2-0.732-0.316-1.467-0.35-2.199c-0.067-0.934-0.1-1.851-0.1-2.75l2.95-3.551c-0.1-0.199-0.2-0.366-0.3-0.5
	c-0.167-0.1-0.333-0.184-0.5-0.25c-0.7-0.3-1.417-0.533-2.15-0.699V6.774v-0.25C35.242,6.596,35.225,6.678,35.193,6.774z"></path>
<path fill-rule="evenodd" clip-rule="evenodd" fill="#FFFFFF" d="M33.743,7.024l1.5,0.851L33.743,7.024z"></path>
<polygon fill-rule="evenodd" clip-rule="evenodd" fill="#FFFFFF" points="38.793,1.675 35.543,1.925 35.243,3.925 35.543,1.925 "></polygon>
<path fill-rule="evenodd" clip-rule="evenodd" fill="#FFFFFF" d="M5.293,3.625c0-1.033,0.1-1.65,0.3-1.851
	c0.2-0.267,2.633-0.366,7.3-0.3c4.633,0.033,6.983,0.2,7.05,0.5c0.133,0.367,0.2,1.1,0.2,2.2c0-1.101-0.067-1.833-0.2-2.2
	c-0.066-0.3-2.417-0.467-7.05-0.5c-4.667-0.066-7.1,0.033-7.3,0.3C5.393,1.975,5.293,2.592,5.293,3.625l-0.15,0.1l-0.25-0.8
	c-0.767-0.3-1.65-0.417-2.65-0.351c1-0.066,1.883,0.051,2.65,0.351l0.25,0.8c0.033,0.2,0.083,0.45,0.15,0.75
	C5.293,4.175,5.293,3.891,5.293,3.625z"></path>
<path fill-rule="evenodd" clip-rule="evenodd" fill="#FFFFFF" d="M19.893,22.324V7.175c-0.3,0.2-2.633,0.25-7,0.149
	c-4.4-0.066-6.933-0.25-7.6-0.55c0.667,0.3,3.2,0.483,7.6,0.55c4.367,0.101,6.7,0.051,7-0.149V22.324z"></path>
<path fill-rule="evenodd" clip-rule="evenodd" fill="#FFFFFF" d="M5.293,6.774c0-0.193,0-0.344,0-0.45
	c-0.002,0.106-0.035,0.257-0.1,0.45c-0.1,2.934-0.216,5.866-0.35,8.8c-0.034,0.934-0.2,1.867-0.5,2.801
	c-0.1,0.033-0.2,0.05-0.3,0.05c-1.066,0.433-2.217,0.533-3.45,0.3c1.233,0.233,2.383,0.133,3.45-0.3c0.1,0,0.2-0.017,0.3-0.05
	c0.3-0.934,0.466-1.867,0.5-2.801c0.133-2.934,0.25-5.866,0.35-8.8H5.293z"></path>
<path fill-rule="evenodd" clip-rule="evenodd" fill="#FFFFFF" d="M20.143,6.375c-0.005,0.404-0.088,0.67-0.25,0.8
	C20.055,7.045,20.138,6.779,20.143,6.375z"></path>
<path fill-rule="evenodd" clip-rule="evenodd" fill="#FFFFFF" d="M35.243,12.875c-0.333,0.467-0.533,0.833-0.6,1.1
	c-0.267,0.666-0.967,0.733-2.1,0.2l-1.7-1c-0.7-0.2-1.45-0.467-2.25-0.8c-1.633-0.566-2.7-1.101-3.2-1.601
	c-0.567-0.167-1.017-0.366-1.35-0.6c-0.6-0.4-0.633-0.717-0.1-0.95c0.567-0.267,0.983-0.85,1.25-1.75v-0.05v0.05
	c-0.267,0.9-0.683,1.483-1.25,1.75c-0.533,0.233-0.5,0.55,0.1,0.95c0.333,0.233,0.783,0.433,1.35,0.6c0.5,0.5,1.567,1.034,3.2,1.601
	c0.8,0.333,1.55,0.6,2.25,0.8l1.7,1c1.133,0.533,1.833,0.466,2.1-0.2C34.71,13.708,34.91,13.342,35.243,12.875z"></path>
<path fill-rule="evenodd" clip-rule="evenodd" fill="none" stroke="#383635" stroke-width="0.3" d="M39.343,1.925
	c0.367,0.2,0.55,0.5,0.55,0.899c0.067,0.4,0.233,2.9,0.5,7.5c0.133,2.367,0.267,4.684,0.4,6.95l-0.1,0.65
	c-0.233,0.533-0.55,0.833-0.95,0.899c-0.067,0-0.15,0-0.25,0l0.15,1.9c0,1.467-0.267,2.217-0.8,2.25c-0.833,0.066-6.9,0.1-18.2,0.1
	c-0.133,0.033-0.267,0-0.4-0.1c-0.2-0.066-0.317-0.283-0.35-0.65c-0.067,0.301-0.317,0.518-0.75,0.65l-0.45,0.1
	c-2.767,0-5.583-0.033-8.45-0.1c-5.6-0.033-8.55-0.066-8.85-0.1c-0.333-0.066-0.583-0.167-0.75-0.301l-0.05-0.25v-3.6
	c-0.3-0.3-0.45-0.584-0.45-0.85c-0.067-4.734,0.05-9.45,0.35-14.15c0-0.233,0.05-0.45,0.15-0.65l1.6-0.5
	c0-1.166,0.25-1.916,0.75-2.25l0.7-0.199h33.3c1.133,0.1,1.733,0.616,1.8,1.55L39.343,1.925z" style="stroke: rgb(0, 0, 0);"></path>
<path fill-rule="evenodd" clip-rule="evenodd" fill="none" stroke="#383635" stroke-width="0.3" d="M35.243,6.524v-2.6
	c-0.033-0.767-0.083-1.333-0.15-1.7c-0.067-0.233-0.117-0.383-0.15-0.45c-0.267-0.267-2.733-0.366-7.4-0.3
	c-4.667,0.033-7.05,0.2-7.15,0.5c-0.133,0.367-0.217,1.1-0.25,2.2v2.2c0.006,0.404,0.106,0.67,0.3,0.8
	c0.2,0.167,1.784,0.25,4.75,0.25c0.367-0.833,0.483-1.733,0.35-2.7c-0.033-0.334-0.066-0.666-0.1-1l0.45-0.05l7.85,3.35
	c0.733-0.1,1.217-0.183,1.45-0.25C35.225,6.678,35.242,6.596,35.243,6.524v0.25v1.101c0.733,0.166,1.45,0.399,2.15,0.699
	c0.167,0.066,0.333,0.15,0.5,0.25c0.1,0.134,0.2,0.301,0.3,0.5l-2.95,3.551c0,0.899,0.033,1.816,0.1,2.75
	c0.033,0.732,0.15,1.467,0.35,2.199c0.034,0.234,0.1,0.467,0.2,0.7l3.6,0.3" style="stroke: rgb(0, 0, 0);"></path>
<line fill-rule="evenodd" clip-rule="evenodd" fill="none" stroke="#383635" stroke-width="0.3" x1="33.743" y1="7.024" x2="35.243" y2="7.875" style="stroke: rgb(0, 0, 0);"></line>
<polyline fill-rule="evenodd" clip-rule="evenodd" fill="none" stroke="#383635" stroke-width="0.3" points="38.793,1.675 
	35.543,1.925 35.243,3.925 " style="stroke: rgb(0, 0, 0);"></polyline>
<path fill-rule="evenodd" clip-rule="evenodd" fill="none" stroke="#383635" stroke-width="0.3" d="M5.293,3.625
	c0-1.033,0.1-1.65,0.3-1.851c0.2-0.267,2.633-0.366,7.3-0.3c4.633,0.033,6.983,0.2,7.05,0.5c0.133,0.367,0.2,1.1,0.2,2.2" style="stroke: rgb(0, 0, 0);"></path>
<path fill-rule="evenodd" clip-rule="evenodd" fill="none" stroke="#383635" stroke-width="0.3" d="M19.893,22.324V7.175
	c-0.3,0.2-2.633,0.25-7,0.149c-4.4-0.066-6.933-0.25-7.6-0.55c0-0.193,0-0.344,0-0.45c-0.002,0.106-0.035,0.257-0.1,0.45
	c-0.1,2.934-0.216,5.866-0.35,8.8c-0.034,0.934-0.2,1.867-0.5,2.801c-0.1,0.033-0.2,0.05-0.3,0.05
	c-1.066,0.433-2.217,0.533-3.45,0.3" style="stroke: rgb(0, 0, 0);"></path>
<path fill-rule="evenodd" clip-rule="evenodd" fill="none" stroke="#383635" stroke-width="0.3" d="M20.143,6.375
	c-0.005,0.404-0.088,0.67-0.25,0.8" style="stroke: rgb(0, 0, 0);"></path>
<path fill-rule="evenodd" clip-rule="evenodd" fill="none" stroke="#383635" stroke-width="0.3" d="M35.243,12.875
	c-0.333,0.467-0.533,0.833-0.6,1.1c-0.267,0.666-0.967,0.733-2.1,0.2l-1.7-1c-0.7-0.2-1.45-0.467-2.25-0.8
	c-1.633-0.566-2.7-1.101-3.2-1.601c-0.567-0.167-1.017-0.366-1.35-0.6c-0.6-0.4-0.633-0.717-0.1-0.95
	c0.567-0.267,0.983-0.85,1.25-1.75v-0.05" style="stroke: rgb(0, 0, 0);"></path>
<path fill-rule="evenodd" clip-rule="evenodd" fill="none" stroke="#383635" stroke-width="0.3" d="M5.143,3.725l-0.25-0.8
	c-0.767-0.3-1.65-0.417-2.65-0.351" style="stroke: rgb(0, 0, 0);"></path>
<path fill-rule="evenodd" clip-rule="evenodd" fill="none" stroke="#383635" stroke-width="0.3" d="M5.143,3.725
	c0.033,0.2,0.083,0.45,0.15,0.75c0-0.3,0-0.584,0-0.85" style="stroke: rgb(0, 0, 0);"></path>
<line fill-rule="evenodd" clip-rule="evenodd" fill="none" stroke="#383635" stroke-width="0.3" x1="5.293" y1="6.324" x2="5.293" y2="4.475" style="stroke: rgb(0, 0, 0);"></line>
</svg>