<svg version="1.1" id="Layer_1" xmlns="http://www.w3.org/2000/svg" xmlns:xlink="http://www.w3.org/1999/xlink" x="0px" y="0px" width="40.15px" height="23.562px" viewBox="0 0 40.15 23.562" enable-background="new 0 0 40.15 23.562" xml:space="preserve" class="ng-scope">
<path fill-rule="evenodd" clip-rule="evenodd" fill="#FFFFFF" d="M19.825,4.325v17.65l-0.55,0.55h-0.05h-0.05
	c-1.6,0.133-3.417,0.233-5.45,0.3c-3.2,0.1-6.434-0.033-9.7-0.4v-10.55v10.55c-0.867,0.867-1.8,1.117-2.8,0.75l-0.15-0.1
	c-0.233-0.066-0.434-0.15-0.6-0.25l-0.35-0.4V5.875c0-0.934,0.267-1.866,0.8-2.8c0.067-0.1,0.117-0.184,0.15-0.25
	c1.1-1.733,2.883-2.616,5.35-2.65c1.233,0,2.35-0.017,3.35-0.05c1.333,0,2.65,0,3.95,0c2,0,3.65,0,4.95,0c0.4,0,0.784,0,1.15,0
	c9.333,0,14.233,0.017,14.7,0.05l0.85,0.101c0.667,0.1,1.3,0.3,1.9,0.6c1.767,0.867,2.667,2.483,2.7,4.851
	c0.033,1.267,0.05,2.583,0.05,3.949c0,5.733-0.017,10.034-0.05,12.9c-0.367,0.267-0.767,0.5-1.2,0.7
	c-0.967,0.333-1.8,0.149-2.5-0.55v-0.301V12.025v-1.55V6.425c0-0.399-0.15-0.85-0.45-1.35c-0.467-0.967-1.284-1.45-2.45-1.45
	c-0.733,0-1.9,0.017-3.5,0.05c-0.367,0-0.733,0-1.1,0c0.367,0,0.733,0,1.1,0c1.6-0.033,2.767-0.05,3.5-0.05
	c1.167,0,1.983,0.483,2.45,1.45c0.3,0.5,0.45,0.95,0.45,1.35v4.051v1.55v10.399c-5.033,0.5-10.183,0.5-15.45,0h-0.05
	c-0.2,0-0.383-0.083-0.55-0.25c-0.199-0.165-0.299-0.332-0.3-0.5V5.025c0.034-0.066,0.05-0.167,0.05-0.3c0-0.301,0.1-0.551,0.3-0.75
	C20.469,3.781,20.71,3.682,21,3.675h-2.325v0.051h0.05h0.05L19.825,4.325z"></path>
<path fill-rule="evenodd" clip-rule="evenodd" fill="#FFFFFF" d="M21,3.675h0.025c1.2,0,2.417,0,3.65,0c1.3,0,2.633,0,4,0
	c-1.367,0-2.7,0-4,0c-1.233,0-2.45,0-3.65,0H21z"></path>
<path fill-rule="evenodd" clip-rule="evenodd" fill="#FFFFFF" d="M36.275,12.025c-1.967-0.2-3.7-1-5.2-2.4
	c-1.1-1.233-1.9-3.2-2.4-5.899h0.05C31.425,5.492,33.942,8.259,36.275,12.025c-2.333-3.767-4.85-6.533-7.55-8.3l0.05-0.051h-0.1
	v0.051c0.5,2.699,1.3,4.666,2.4,5.899C32.575,11.025,34.308,11.825,36.275,12.025z"></path>
<path fill-rule="evenodd" clip-rule="evenodd" fill="#FFFFFF" d="M3.875,11.775h-0.05c-0.067-1.033,0-1.967,0.2-2.8
	c-0.2,0.833-0.267,1.767-0.2,2.8v0.05c0.066,0,0.133,0.017,0.2,0.05L3.875,11.775c0.033-0.101,0.083-0.217,0.15-0.351
	c1.167-2.466,3.6-5.033,7.3-7.699c-0.434,0-0.833,0-1.2,0c-2.133,0-3.367,0.017-3.7,0.05l-1.3,0.649
	c-0.8,0.667-1.183,1.483-1.15,2.45c0,0.267,0.017,0.967,0.05,2.101c-0.033-1.134-0.05-1.834-0.05-2.101
	c-0.033-0.967,0.35-1.783,1.15-2.45l1.3-0.649c0.333-0.033,1.567-0.05,3.7-0.05c0.367,0,0.767,0,1.2,0c0.733,0,1.533,0,2.4,0
	c1.8,0,3.45,0,4.95,0c-1.5,0-3.15,0-4.95,0c-0.867,0-1.667,0-2.4,0c-3.7,2.666-6.133,5.233-7.3,7.699
	C3.958,11.559,3.908,11.675,3.875,11.775z"></path>
<path fill-rule="evenodd" clip-rule="evenodd" fill="#FFFFFF" d="M36.275,10.476c-0.133-1.2-0.6-2.4-1.4-3.601
	c-1.933-2.066-3.967-3.133-6.1-3.2c2.133,0.067,4.167,1.134,6.1,3.2C35.675,8.075,36.142,9.275,36.275,10.476z"></path>
<path fill-rule="evenodd" clip-rule="evenodd" fill="#FFFFFF" d="M4.025,8.976c0.267-1.167,0.767-2.167,1.5-3
	c1.367-1.367,2.9-2.117,4.6-2.25c-1.7,0.133-3.233,0.883-4.6,2.25C4.792,6.809,4.292,7.809,4.025,8.976z"></path>
<path fill-rule="evenodd" clip-rule="evenodd" fill="#FFFFFF" d="M11.325,3.726c0.233,1.8-0.417,3.616-1.95,5.449
	c-1.533,1.9-3.317,2.801-5.35,2.7c2.033,0.101,3.817-0.8,5.35-2.7C10.908,7.342,11.558,5.525,11.325,3.726z"></path>
<path fill-rule="evenodd" clip-rule="evenodd" fill="#B59A87" d="M18.675,3.675H21c-0.29,0.007-0.531,0.106-0.725,0.301
	c-0.2,0.199-0.3,0.449-0.3,0.75l-0.05-0.051c0-0.133-0.033-0.25-0.1-0.35l-1.05-0.6h-0.05L18.675,3.675l0.05,0.051h-0.05V3.675z" style="fill: rgb(0, 0, 0);"></path>
<polygon fill-rule="evenodd" clip-rule="evenodd" fill="#B59A87" points="28.725,3.726 28.675,3.675 28.775,3.675 " style="fill: rgb(0, 0, 0);"></polygon>
<path fill-rule="evenodd" clip-rule="evenodd" fill="#B59A87" d="M3.825,11.775h0.05l-0.05,0.05l0.05-0.05l0.15,0.1
	c-0.066-0.033-0.133-0.05-0.2-0.05V11.775z" style="fill: rgb(0, 0, 0);"></path>
<path fill-rule="evenodd" clip-rule="evenodd" fill="#E8D1C0" d="M28.725,3.726h-0.05V3.675L28.725,3.726z" style="fill: rgb(0, 0, 0);"></path>
<line fill-rule="evenodd" clip-rule="evenodd" fill="none" stroke="#383635" stroke-width="0.3" stroke-linecap="round" stroke-linejoin="round" stroke-miterlimit="3" x1="18.725" y1="3.726" x2="18.675" y2="3.675" style="stroke: rgb(0, 0, 0);"></line>
<path fill-rule="evenodd" clip-rule="evenodd" fill="none" stroke="#383635" stroke-width="0.3" stroke-linecap="round" stroke-linejoin="round" stroke-miterlimit="3" d="
	M18.725,3.726h0.05l1.05,0.6c0.066,0.1,0.1,0.217,0.1,0.35" style="stroke: rgb(0, 0, 0);"></path>
<path fill-rule="evenodd" clip-rule="evenodd" fill="none" stroke="#383635" stroke-width="0.3" stroke-linecap="round" stroke-linejoin="round" stroke-miterlimit="3" d="
	M19.975,4.726c0-0.301,0.1-0.551,0.3-0.75C20.469,3.781,20.71,3.682,21,3.675" style="stroke: rgb(0, 0, 0);"></path>
<line fill-rule="evenodd" clip-rule="evenodd" fill="none" stroke="#383635" stroke-width="0.3" stroke-linecap="round" stroke-linejoin="round" stroke-miterlimit="3" x1="28.675" y1="3.675" x2="28.775" y2="3.675" style="stroke: rgb(0, 0, 0);"></line>
<path fill-rule="evenodd" clip-rule="evenodd" fill="none" stroke="#383635" stroke-width="0.3" stroke-linecap="round" stroke-linejoin="round" stroke-miterlimit="3" d="
	M36.275,10.476v1.55c-1.967-0.2-3.7-1-5.2-2.4c-1.1-1.233-1.9-3.2-2.4-5.899" style="stroke: rgb(0, 0, 0);"></path>
<path fill-rule="evenodd" clip-rule="evenodd" fill="none" stroke="#383635" stroke-width="0.3" stroke-linecap="round" stroke-linejoin="round" stroke-miterlimit="3" d="
	M4.025,11.875c-0.066-0.033-0.133-0.05-0.2-0.05v-0.05c-0.067-1.033,0-1.967,0.2-2.8c0.267-1.167,0.767-2.167,1.5-3
	c1.367-1.367,2.9-2.117,4.6-2.25c0.367,0,0.767,0,1.2,0" style="stroke: rgb(0, 0, 0);"></path>
<path fill-rule="evenodd" clip-rule="evenodd" fill="none" stroke="#383635" stroke-width="0.3" stroke-linecap="round" stroke-linejoin="round" stroke-miterlimit="3" d="
	M19.975,4.726c0,0.133-0.017,0.233-0.05,0.3v16.649c0.001,0.168,0.102,0.335,0.3,0.5c0.167,0.167,0.35,0.25,0.55,0.25" style="stroke: rgb(0, 0, 0);"></path>
<line fill-rule="evenodd" clip-rule="evenodd" fill="none" stroke="#383635" stroke-width="0.3" stroke-linecap="round" stroke-linejoin="round" stroke-miterlimit="3" x1="19.925" y1="5.025" x2="19.925" y2="4.675" style="stroke: rgb(0, 0, 0);"></line>
<path fill-rule="evenodd" clip-rule="evenodd" fill="none" stroke="#383635" stroke-width="0.3" stroke-linecap="round" stroke-linejoin="round" stroke-miterlimit="3" d="
	M28.725,3.726c2.7,1.767,5.217,4.533,7.55,8.3" style="stroke: rgb(0, 0, 0);"></path>
<polyline fill-rule="evenodd" clip-rule="evenodd" fill="none" stroke="#383635" stroke-width="0.3" stroke-linecap="round" stroke-linejoin="round" stroke-miterlimit="3" points="
	28.725,3.726 28.675,3.675 28.675,3.726 " style="stroke: rgb(0, 0, 0);"></polyline>
<path fill-rule="evenodd" clip-rule="evenodd" fill="none" stroke="#383635" stroke-width="0.3" stroke-linecap="round" stroke-linejoin="round" stroke-miterlimit="3" d="
	M36.275,10.476c-0.133-1.2-0.6-2.4-1.4-3.601c-1.933-2.066-3.967-3.133-6.1-3.2" style="stroke: rgb(0, 0, 0);"></path>
<line fill-rule="evenodd" clip-rule="evenodd" fill="none" stroke="#383635" stroke-width="0.3" stroke-linecap="round" stroke-linejoin="round" stroke-miterlimit="3" x1="3.875" y1="11.775" x2="3.825" y2="11.825" style="stroke: rgb(0, 0, 0);"></line>
<path fill-rule="evenodd" clip-rule="evenodd" fill="none" stroke="#383635" stroke-width="0.3" stroke-linecap="round" stroke-linejoin="round" stroke-miterlimit="3" d="
	M3.875,11.775c0.033-0.101,0.083-0.217,0.15-0.351c1.167-2.466,3.6-5.033,7.3-7.699c0.233,1.8-0.417,3.616-1.95,5.449
	c-1.533,1.9-3.317,2.801-5.35,2.7" style="stroke: rgb(0, 0, 0);"></path>
<line fill-rule="evenodd" clip-rule="evenodd" fill="none" stroke="#383635" stroke-width="0.3" stroke-linecap="round" stroke-linejoin="round" stroke-miterlimit="3" x1="19.825" y1="21.976" x2="19.275" y2="22.525" style="stroke: rgb(0, 0, 0);"></line>
<path fill-rule="evenodd" clip-rule="evenodd" fill="none" stroke="#383635" stroke-width="0.3" stroke-linecap="round" stroke-linejoin="round" stroke-miterlimit="3" d="
	M19.825,21.976c0.065-0.132,0.099-0.231,0.1-0.301" style="stroke: rgb(0, 0, 0);"></path>
<line fill-rule="evenodd" clip-rule="evenodd" fill="none" stroke="#383635" stroke-width="0.3" x1="18.675" y1="3.726" x2="18.725" y2="3.726" style="stroke: rgb(0, 0, 0);"></line>
<line fill-rule="evenodd" clip-rule="evenodd" fill="none" stroke="#383635" stroke-width="0.3" x1="21" y1="3.675" x2="18.675" y2="3.675" style="stroke: rgb(0, 0, 0);"></line>
<path fill-rule="evenodd" clip-rule="evenodd" fill="none" stroke="#383635" stroke-width="0.3" d="M21,3.675h0.025
	c1.2,0,2.417,0,3.65,0c1.3,0,2.633,0,4,0" style="stroke: rgb(0, 0, 0);"></path>
<path fill-rule="evenodd" clip-rule="evenodd" fill="none" stroke="#383635" stroke-width="0.3" d="M28.775,3.675
	c0.367,0,0.733,0,1.1,0c1.6-0.033,2.767-0.05,3.5-0.05c1.167,0,1.983,0.483,2.45,1.45c0.3,0.5,0.45,0.95,0.45,1.35v4.051" style="stroke: rgb(0, 0, 0);"></path>
<path fill-rule="evenodd" clip-rule="evenodd" fill="none" stroke="#383635" stroke-width="0.3" d="M36.275,12.025v10.399v0.301
	c0.7,0.699,1.533,0.883,2.5,0.55c0.434-0.2,0.833-0.434,1.2-0.7c0.033-2.866,0.05-7.167,0.05-12.9c0-1.366-0.017-2.683-0.05-3.949
	c-0.033-2.367-0.934-3.983-2.7-4.851c-0.6-0.3-1.233-0.5-1.9-0.6l-0.85-0.101c-0.467-0.033-5.367-0.05-14.7-0.05
	c-0.367,0-0.75,0-1.15,0c-1.3,0-2.95,0-4.95,0c-1.3,0-2.617,0-3.95,0c-1,0.033-2.117,0.05-3.35,0.05
	c-2.466,0.034-4.25,0.917-5.35,2.65c-0.034,0.066-0.083,0.15-0.15,0.25c-0.533,0.934-0.8,1.866-0.8,2.8v16.55l0.35,0.4
	c0.167,0.1,0.367,0.184,0.6,0.25l0.15,0.1c1,0.367,1.933,0.117,2.8-0.75v-10.55" style="stroke: rgb(0, 0, 0);"></path>
<path fill-rule="evenodd" clip-rule="evenodd" fill="none" stroke="#383635" stroke-width="0.3" d="M4.025,8.976
	c-0.033-1.134-0.05-1.834-0.05-2.101c-0.033-0.967,0.35-1.783,1.15-2.45l1.3-0.649c0.333-0.033,1.567-0.05,3.7-0.05" style="stroke: rgb(0, 0, 0);"></path>
<path fill-rule="evenodd" clip-rule="evenodd" fill="none" stroke="#383635" stroke-width="0.3" d="M11.325,3.726
	c0.733,0,1.533,0,2.4,0c1.8,0,3.45,0,4.95,0" style="stroke: rgb(0, 0, 0);"></path>
<path fill-rule="evenodd" clip-rule="evenodd" fill="none" stroke="#383635" stroke-width="0.3" d="M20.775,22.425h0.05
	c5.267,0.5,10.417,0.5,15.45,0" style="stroke: rgb(0, 0, 0);"></path>
<path fill-rule="evenodd" clip-rule="evenodd" fill="none" stroke="#383635" stroke-width="0.3" d="M19.225,22.525h-0.05
	c-1.6,0.133-3.417,0.233-5.45,0.3c-3.2,0.1-6.434-0.033-9.7-0.4" style="stroke: rgb(0, 0, 0);"></path>
</svg>