<svg version="1.1" id="Layer_1" xmlns="http://www.w3.org/2000/svg" xmlns:xlink="http://www.w3.org/1999/xlink" x="0px" y="0px" width="28.83px" height="28.83px" viewBox="0 2.15 28.83 28.83" enable-background="new 0 2.15 28.83 28.83" xml:space="preserve" class="ng-scope">
	<rect fill="#FFFFFF" x="7.97" y="6.36" width="13.5" height="21.38"></rect>
	<path fill="#FFFFFF" stroke="#000000" stroke-miterlimit="10" d="M20.07,20.53v5.85h-3.82v1.05h-2.74v-1.05H9.49
		v-5.85H20.07 M13.81,19.26v-0.6h-1.95v-4.54h5.63v4.54h-2.02v0.6H13.81z M16.84,7.71c0.6,0.6,0.9,1.35,0.9,2.21s-0.3,1.57-0.9,2.17
		c-0.6,0.64-1.35,0.94-2.21,0.94s-1.57-0.3-2.17-0.94c-0.64-0.6-0.94-1.31-0.94-2.17c0-0.86,0.3-1.61,0.94-2.21
		c0.6-0.6,1.31-0.9,2.17-0.9S16.24,7.11,16.84,7.71z M22.13,6.66c0-0.52-0.26-0.79-0.75-0.79H7.84c-0.49,0-0.71,0.26-0.71,0.79
		v20.92c0,0.53,0.23,0.79,0.71,0.79h13.54c0.49,0,0.75-0.26,0.75-0.79C22.13,27.58,22.13,6.66,22.13,6.66z"></path>
	<path fill="#FFFFFF" stroke="#000000" stroke-miterlimit="10" d="M16.58,8.01c0.52,0.52,0.79,1.16,0.79,1.91
		c0,0.79-0.26,1.42-0.79,1.95c-0.52,0.52-1.16,0.79-1.95,0.79c-0.75,0-1.39-0.26-1.91-0.79c-0.56-0.52-0.82-1.16-0.82-1.95
		c0-0.75,0.26-1.39,0.82-1.91c0.53-0.56,1.16-0.83,1.91-0.83C15.42,7.18,16.06,7.44,16.58,8.01 M17.63,9.92c0-0.83-0.3-1.54-0.9-2.1
		c-0.56-0.56-1.27-0.83-2.1-0.83c-0.79,0-1.5,0.26-2.06,0.83s-0.86,1.27-0.86,2.1c0,0.82,0.3,1.5,0.86,2.06
		c0.56,0.6,1.28,0.9,2.06,0.9c0.83,0,1.54-0.3,2.1-0.9C17.33,11.42,17.63,10.74,17.63,9.92z"></path>
	<circle fill="#FFFFFF" stroke="#000000" stroke-miterlimit="10" cx="14.67" cy="9.99" r="0.41"></circle>
	<path fill="#FFFFFF" d="M20.07,20.53v5.85h-3.82v1.05h-2.74v-1.05H9.49v-5.85H20.07 M13.81,19.26v-0.6h-1.95
		v-4.54h5.63v4.54h-2.02v0.6H13.81z M16.84,7.71c0.6,0.6,0.9,1.35,0.9,2.21s-0.3,1.57-0.9,2.17c-0.6,0.64-1.35,0.94-2.21,0.94
		s-1.57-0.3-2.17-0.94c-0.64-0.6-0.94-1.31-0.94-2.17c0-0.86,0.3-1.61,0.94-2.21c0.6-0.6,1.31-0.9,2.17-0.9S16.24,7.11,16.84,7.71z
		 M22.13,6.66c0-0.52-0.26-0.79-0.75-0.79H7.84c-0.49,0-0.71,0.26-0.71,0.79v20.92c0,0.53,0.23,0.79,0.71,0.79h13.54
		c0.49,0,0.75-0.26,0.75-0.79C22.13,27.58,22.13,6.66,22.13,6.66z"></path>
	<path fill="#FFFFFF" d="M16.58,8.01c0.52,0.52,0.79,1.16,0.79,1.91c0,0.79-0.26,1.42-0.79,1.95
		c-0.52,0.52-1.16,0.79-1.95,0.79c-0.75,0-1.39-0.26-1.91-0.79c-0.56-0.52-0.82-1.16-0.82-1.95c0-0.75,0.26-1.39,0.82-1.91
		c0.53-0.56,1.16-0.83,1.91-0.83C15.42,7.18,16.06,7.44,16.58,8.01 M17.63,9.92c0-0.83-0.3-1.54-0.9-2.1
		c-0.56-0.56-1.27-0.83-2.1-0.83c-0.79,0-1.5,0.26-2.06,0.83s-0.86,1.27-0.86,2.1c0,0.82,0.3,1.5,0.86,2.06
		c0.56,0.6,1.28,0.9,2.06,0.9c0.83,0,1.54-0.3,2.1-0.9C17.33,11.42,17.63,10.74,17.63,9.92z"></path>
	<circle fill="#FFFFFF" cx="14.67" cy="9.99" r="0.41"></circle>
</svg>