<svg version="1.1" xmlns="http://www.w3.org/2000/svg" xmlns:xlink="http://www.w3.org/1999/xlink" width="21px" height="14.3px" viewBox="0 0 21 14.3" xml:space="preserve" class="ng-scope">
<path fill-rule="evenodd" clip-rule="evenodd" fill="#FFFFFF" d="M0.125,3.125c0-0.833,0.316-1.533,0.95-2.1
	c0.633-0.601,1.383-0.9,2.25-0.9h13.85c0.867,0,1.617,0.3,2.25,0.9c0.6,0.566,0.9,1.267,0.9,2.1v8c0,0.834-0.3,1.566-0.9,2.2
	c-0.633,0.566-1.383,0.85-2.25,0.85H3.325c-0.867,0-1.617-0.283-2.25-0.85c-0.633-0.634-0.95-1.366-0.95-2.2V3.125z"></path>
<path fill-rule="evenodd" clip-rule="evenodd" fill="#FFFFFF" d="M3.475,5.625c0.333-0.133,0.667-0.083,1,0.15l0.65,0.8v0.05
	c0.066-0.033,0.133-0.05,0.2-0.05c0.1,0,0.167,0,0.2,0l0.3-0.8c0.267-0.334,0.567-0.517,0.9-0.55c-0.333,0.033-0.633,0.216-0.9,0.55
	l-0.3,0.8c-0.033,0-0.1,0-0.2,0c-0.066,0-0.133,0.017-0.2,0.05v-0.05l-0.65-0.8C4.142,5.542,3.808,5.492,3.475,5.625z"></path>
<path fill-rule="evenodd" clip-rule="evenodd" fill="#FFFFFF" d="M5.525,6.575c0.067,0.033,0.117,0.083,0.15,0.15
	c0.1,0.066,0.15,0.166,0.15,0.3c0,0.1-0.05,0.2-0.15,0.3c0.3,0.3,0.517,0.517,0.65,0.65c0.367,0.199,0.7,0.283,1,0.25
	c-0.3,0.033-0.633-0.051-1-0.25c-0.133-0.134-0.35-0.351-0.65-0.65c0.1-0.1,0.15-0.2,0.15-0.3c0-0.134-0.05-0.233-0.15-0.3
	C5.642,6.658,5.592,6.608,5.525,6.575z"></path>
<path fill-rule="evenodd" clip-rule="evenodd" fill="#FFFFFF" d="M5.125,6.625l-0.05,0.101c-0.1,0.066-0.15,0.166-0.15,0.3
	c0,0.1,0.05,0.2,0.15,0.3c0.034,0.033,0.083,0.05,0.15,0.05c0.033,0.033,0.066,0.05,0.1,0.05c0.167,0,0.284-0.033,0.35-0.1
	c-0.066,0.066-0.183,0.1-0.35,0.1c-0.033,0-0.066-0.017-0.1-0.05c-0.067,0-0.117-0.017-0.15-0.05c-0.1-0.1-0.15-0.2-0.15-0.3
	c0-0.134,0.05-0.233,0.15-0.3L5.125,6.625z"></path>
<path fill-rule="evenodd" clip-rule="evenodd" fill="#FFFFFF" d="M5.225,7.375c-0.067,0.4-0.133,0.667-0.2,0.8
	c-0.233,0.4-0.567,0.634-1,0.7c0.433-0.066,0.767-0.3,1-0.7C5.092,8.042,5.158,7.775,5.225,7.375z"></path>
<path fill-rule="evenodd" clip-rule="evenodd" fill="#FFFFFF" d="M12.525,5.775c0.333-0.101,0.667-0.033,1,0.2l0.65,0.85
	c0.1,0,0.184,0,0.25,0c0.067,0,0.117,0,0.15,0l0.35-0.9c0.267-0.333,0.567-0.533,0.9-0.6c-0.333,0.066-0.633,0.267-0.9,0.6
	l-0.35,0.9c-0.033,0-0.083,0-0.15,0c-0.066,0-0.15,0-0.25,0l-0.65-0.85C13.191,5.742,12.858,5.675,12.525,5.775z"></path>
<path fill-rule="evenodd" clip-rule="evenodd" fill="#FFFFFF" d="M14.175,6.825v0.05c-0.133,0.101-0.2,0.2-0.2,0.3
	c0,0.134,0.066,0.233,0.2,0.301c0,0.033,0.05,0.05,0.15,0.05c0.034,0.033,0.067,0.05,0.1,0.05c0.1,0,0.2-0.033,0.3-0.1
	c0.066-0.067,0.1-0.167,0.1-0.301c0-0.1-0.033-0.199-0.1-0.3c-0.034-0.033-0.083-0.05-0.15-0.05c0.067,0,0.117,0.017,0.15,0.05
	c0.066,0.101,0.1,0.2,0.1,0.3c0,0.134-0.033,0.233-0.1,0.301c-0.1,0.066-0.2,0.1-0.3,0.1c-0.033,0-0.066-0.017-0.1-0.05
	c-0.1,0-0.15-0.017-0.15-0.05c-0.133-0.067-0.2-0.167-0.2-0.301c0-0.1,0.066-0.199,0.2-0.3V6.825z"></path>
<path fill-rule="evenodd" clip-rule="evenodd" fill="#FFFFFF" d="M16.425,8.476c-0.367,0.033-0.7-0.067-1-0.301
	c-0.233-0.133-0.467-0.366-0.7-0.699c0.233,0.333,0.466,0.566,0.7,0.699C15.725,8.408,16.058,8.509,16.425,8.476z"></path>
<path fill-rule="evenodd" clip-rule="evenodd" fill="#FFFFFF" d="M14.325,7.525c-0.1,0.399-0.216,0.7-0.35,0.899
	c-0.133,0.334-0.434,0.567-0.9,0.7c0.467-0.133,0.767-0.366,0.9-0.7C14.108,8.226,14.225,7.925,14.325,7.525z"></path>
<path fill-rule="evenodd" clip-rule="evenodd" fill="none" stroke="#383635" stroke-width="0.3" d="M0.125,3.125v8
	c0,0.834,0.316,1.566,0.95,2.2c0.633,0.566,1.383,0.85,2.25,0.85h13.85c0.867,0,1.617-0.283,2.25-0.85c0.6-0.634,0.9-1.366,0.9-2.2
	v-8c0-0.833-0.3-1.533-0.9-2.1c-0.633-0.601-1.383-0.9-2.25-0.9H3.325c-0.867,0-1.617,0.3-2.25,0.9
	C0.441,1.592,0.125,2.292,0.125,3.125z" style="stroke: rgb(0, 0, 0);"></path>
<path fill-rule="evenodd" clip-rule="evenodd" fill="none" stroke="#383635" stroke-width="0.3" d="M3.475,5.625
	c0.333-0.133,0.667-0.083,1,0.15l0.65,0.8v0.05c0.066-0.033,0.133-0.05,0.2-0.05c0.1,0,0.167,0,0.2,0l0.3-0.8
	c0.267-0.334,0.567-0.517,0.9-0.55" style="stroke: rgb(0, 0, 0);"></path>
<path fill-rule="evenodd" clip-rule="evenodd" fill="none" stroke="#383635" stroke-width="0.3" d="M5.525,6.575
	c0.067,0.033,0.117,0.083,0.15,0.15c0.1,0.066,0.15,0.166,0.15,0.3c0,0.1-0.05,0.2-0.15,0.3c0.3,0.3,0.517,0.517,0.65,0.65
	c0.367,0.199,0.7,0.283,1,0.25" style="stroke: rgb(0, 0, 0);"></path>
<path fill-rule="evenodd" clip-rule="evenodd" fill="none" stroke="#383635" stroke-width="0.3" d="M5.125,6.625l-0.05,0.101
	c-0.1,0.066-0.15,0.166-0.15,0.3c0,0.1,0.05,0.2,0.15,0.3c0.034,0.033,0.083,0.05,0.15,0.05c0.033,0.033,0.066,0.05,0.1,0.05
	c0.167,0,0.284-0.033,0.35-0.1" style="stroke: rgb(0, 0, 0);"></path>
<path fill-rule="evenodd" clip-rule="evenodd" fill="none" stroke="#383635" stroke-width="0.3" d="M5.225,7.375
	c-0.067,0.4-0.133,0.667-0.2,0.8c-0.233,0.4-0.567,0.634-1,0.7" style="stroke: rgb(0, 0, 0);"></path>
<path fill-rule="evenodd" clip-rule="evenodd" fill="none" stroke="#383635" stroke-width="0.3" d="M12.525,5.775
	c0.333-0.101,0.667-0.033,1,0.2l0.65,0.85c0.1,0,0.184,0,0.25,0c0.067,0,0.117,0,0.15,0l0.35-0.9c0.267-0.333,0.567-0.533,0.9-0.6" style="stroke: rgb(0, 0, 0);"></path>
<path fill-rule="evenodd" clip-rule="evenodd" fill="none" stroke="#383635" stroke-width="0.3" d="M14.175,6.825v0.05
	c-0.133,0.101-0.2,0.2-0.2,0.3c0,0.134,0.066,0.233,0.2,0.301c0,0.033,0.05,0.05,0.15,0.05c0.034,0.033,0.067,0.05,0.1,0.05
	c0.1,0,0.2-0.033,0.3-0.1c0.066-0.067,0.1-0.167,0.1-0.301c0-0.1-0.033-0.199-0.1-0.3c-0.034-0.033-0.083-0.05-0.15-0.05" style="stroke: rgb(0, 0, 0);"></path>
<path fill-rule="evenodd" clip-rule="evenodd" fill="none" stroke="#383635" stroke-width="0.3" d="M16.425,8.476
	c-0.367,0.033-0.7-0.067-1-0.301c-0.233-0.133-0.467-0.366-0.7-0.699" style="stroke: rgb(0, 0, 0);"></path>
<path fill-rule="evenodd" clip-rule="evenodd" fill="none" stroke="#383635" stroke-width="0.3" d="M14.325,7.525
	c-0.1,0.399-0.216,0.7-0.35,0.899c-0.133,0.334-0.434,0.567-0.9,0.7" style="stroke: rgb(0, 0, 0);"></path>
</svg>