<svg version="1.1" id="Layer_1" xmlns="http://www.w3.org/2000/svg" xmlns:xlink="http://www.w3.org/1999/xlink" x="0px" y="0px" width="23.55px" height="23.899px" viewBox="0 0 23.55 23.899" enable-background="new 0 0 23.55 23.899" xml:space="preserve" class="ng-scope">
<path fill-rule="evenodd" clip-rule="evenodd" fill="#FFFFFF" d="M10.275,7.675c0.566-0.134,0.917-0.4,1.05-0.8
	c0.1-0.233,0.217-0.584,0.35-1.051c-0.133,0-0.217-0.033-0.25-0.1c-0.1-0.1-0.15-0.217-0.15-0.35c0-0.134,0.05-0.233,0.15-0.301
	c0.033-0.033,0.066-0.066,0.1-0.1l-0.75-0.9c-0.4-0.333-0.767-0.433-1.1-0.3c0.333-0.133,0.7-0.033,1.1,0.3l0.75,0.9
	c-0.034,0.033-0.067,0.066-0.1,0.1c-0.1,0.067-0.15,0.167-0.15,0.301c0,0.133,0.05,0.25,0.15,0.35c0.033,0.066,0.117,0.1,0.25,0.1
	c-0.133,0.467-0.25,0.817-0.35,1.051C11.192,7.274,10.842,7.541,10.275,7.675z"></path>
<path fill-rule="evenodd" clip-rule="evenodd" fill="#FFFFFF" d="M13.375,3.324c-0.466,0.034-0.8,0.233-1,0.601l-0.5,0.899
	c0.1,0.101,0.167,0.184,0.2,0.25c0.133,0.067,0.2,0.167,0.2,0.301c0,0.133-0.067,0.25-0.2,0.35c0,0.033-0.017,0.05-0.05,0.05
	c0.367,0.434,0.65,0.7,0.85,0.8c0.367,0.267,0.717,0.384,1.05,0.351c-0.333,0.033-0.684-0.084-1.05-0.351
	c-0.2-0.1-0.483-0.366-0.85-0.8c0.033,0,0.05-0.017,0.05-0.05c0.133-0.1,0.2-0.217,0.2-0.35c0-0.134-0.067-0.233-0.2-0.301
	c-0.033-0.066-0.1-0.149-0.2-0.25l0.5-0.899C12.575,3.558,12.909,3.358,13.375,3.324z"></path>
<path fill-rule="evenodd" clip-rule="evenodd" fill="#FFFFFF" d="M3.525,3.574c2.267-2.3,5-3.449,8.2-3.449
	c3.233,0,5.983,1.149,8.25,3.449c2.3,2.334,3.45,5.134,3.45,8.4c0,3.233-1.15,6-3.45,8.3c-2.267,2.334-5.017,3.5-8.25,3.5
	c-3.2,0-5.933-1.166-8.2-3.5c-2.267-2.3-3.4-5.066-3.4-8.3C0.125,8.708,1.258,5.908,3.525,3.574z"></path>
<path fill-rule="evenodd" clip-rule="evenodd" fill="#FFFFFF" d="M15.275,10.375c0.333-0.067,0.683,0.033,1.05,0.3l0.75,0.95
	c0.1-0.034,0.183-0.051,0.25-0.051s0.133,0,0.2,0l0.35-0.949c0.267-0.434,0.617-0.667,1.05-0.7c-0.434,0.033-0.783,0.267-1.05,0.7
	l-0.35,0.949c-0.067,0-0.133,0-0.2,0s-0.15,0.017-0.25,0.051l-0.75-0.95C15.958,10.408,15.608,10.308,15.275,10.375z"></path>
<path fill-rule="evenodd" clip-rule="evenodd" fill="#FFFFFF" d="M19.525,13.524c-0.4,0.033-0.767-0.066-1.1-0.3
	c-0.167-0.167-0.434-0.434-0.8-0.8c-0.066,0.1-0.167,0.149-0.3,0.149c-0.033,0-0.067-0.033-0.1-0.1c0,0.033,0,0.066,0,0.1
	c-0.1,0.4-0.2,0.7-0.3,0.9c-0.2,0.4-0.55,0.7-1.05,0.9c0.5-0.2,0.85-0.5,1.05-0.9c0.1-0.2,0.2-0.5,0.3-0.9c0-0.033,0-0.066,0-0.1
	c0.033,0.066,0.067,0.1,0.1,0.1c0.133,0,0.233-0.05,0.3-0.149c0.367,0.366,0.633,0.633,0.8,0.8
	C18.758,13.458,19.125,13.558,19.525,13.524z"></path>
<path fill-rule="evenodd" clip-rule="evenodd" fill="#FFFFFF" d="M17.625,12.425c0.034,0,0.05-0.017,0.05-0.05
	c0.066-0.067,0.1-0.167,0.1-0.301c0-0.133-0.034-0.25-0.1-0.35c-0.1-0.066-0.15-0.116-0.15-0.15c0,0.034,0.05,0.084,0.15,0.15
	c0.066,0.1,0.1,0.217,0.1,0.35c0,0.134-0.034,0.233-0.1,0.301C17.675,12.408,17.659,12.425,17.625,12.425z"></path>
<path fill-rule="evenodd" clip-rule="evenodd" fill="#FFFFFF" d="M11.875,4.824h-0.1c-0.067,0-0.15,0.051-0.25,0.15
	c0.1-0.1,0.183-0.15,0.25-0.15H11.875z"></path>
<path fill-rule="evenodd" clip-rule="evenodd" fill="#FFFFFF" d="M11.675,5.824c0.033,0.034,0.066,0.051,0.1,0.051
	c0.066,0,0.15-0.034,0.25-0.101c-0.1,0.066-0.184,0.101-0.25,0.101C11.742,5.875,11.708,5.858,11.675,5.824z"></path>
<path fill-rule="evenodd" clip-rule="evenodd" fill="#FFFFFF" d="M11.425,11.675c-0.033,0-0.067,0.017-0.1,0.05
	c-0.067,0.1-0.1,0.217-0.1,0.35c0,0.134,0.033,0.233,0.1,0.301c0.067,0.066,0.133,0.1,0.2,0.1l0.15,0.1
	c0.133,0,0.217-0.05,0.25-0.149l0.1-0.05c0.066-0.067,0.1-0.167,0.1-0.301c0-0.133-0.033-0.25-0.1-0.35
	c-0.067-0.066-0.117-0.116-0.15-0.15c-0.066,0-0.133,0-0.2,0c-0.1,0-0.167,0.034-0.2,0.101c0.033-0.066,0.1-0.101,0.2-0.101
	c0.066,0,0.133,0,0.2,0c0.034,0.034,0.083,0.084,0.15,0.15c0.066,0.1,0.1,0.217,0.1,0.35c0,0.134-0.033,0.233-0.1,0.301l-0.1,0.05
	c-0.033,0.1-0.117,0.149-0.25,0.149l-0.15-0.1c-0.067,0-0.133-0.033-0.2-0.1c-0.067-0.067-0.1-0.167-0.1-0.301
	c0-0.133,0.033-0.25,0.1-0.35C11.358,11.691,11.392,11.675,11.425,11.675z"></path>
<path fill-rule="evenodd" clip-rule="evenodd" fill="#FFFFFF" d="M11.425,11.625v0.05h0.05L11.425,11.625l-0.8-0.9
	c-0.367-0.3-0.7-0.366-1-0.2c0.3-0.166,0.633-0.1,1,0.2L11.425,11.625z"></path>
<path fill-rule="evenodd" clip-rule="evenodd" fill="#FFFFFF" d="M13.775,13.675c-0.367,0.033-0.733-0.084-1.1-0.351
	c-0.133-0.199-0.367-0.5-0.7-0.899h-0.05h0.05c0.333,0.399,0.567,0.7,0.7,0.899C13.042,13.591,13.409,13.708,13.775,13.675z"></path>
<path fill-rule="evenodd" clip-rule="evenodd" fill="#FFFFFF" d="M11.525,12.475v0.05c-0.133,0.5-0.233,0.834-0.3,1
	c-0.2,0.434-0.55,0.717-1.05,0.851c0.5-0.134,0.85-0.417,1.05-0.851c0.067-0.166,0.167-0.5,0.3-1V12.475z"></path>
<path fill-rule="evenodd" clip-rule="evenodd" fill="#FFFFFF" d="M10.025,16.475c0.333-0.1,0.667,0,1,0.3l0.85,0.8v0.051
	c0.034-0.034,0.1-0.051,0.2-0.051s0.167,0,0.2,0l0.35-0.899c0.267-0.367,0.6-0.601,1-0.7c-0.4,0.1-0.733,0.333-1,0.7l-0.35,0.899
	c-0.034,0-0.1,0-0.2,0s-0.167,0.017-0.2,0.051v-0.051l-0.85-0.8C10.692,16.475,10.358,16.375,10.025,16.475z"></path>
<path fill-rule="evenodd" clip-rule="evenodd" fill="#FFFFFF" d="M17.075,11.625c0,0.033-0.033,0.066-0.1,0.1
	c-0.066,0.1-0.1,0.217-0.1,0.35c0,0.134,0.034,0.233,0.1,0.301c0.067,0.066,0.15,0.1,0.25,0.1c-0.1,0-0.183-0.033-0.25-0.1
	c-0.066-0.067-0.1-0.167-0.1-0.301c0-0.133,0.034-0.25,0.1-0.35C17.042,11.691,17.075,11.658,17.075,11.625z"></path>
<path fill-rule="evenodd" clip-rule="evenodd" fill="#FFFFFF" d="M11.875,11.574l0.4-0.899c0.2-0.4,0.5-0.634,0.9-0.7
	c-0.4,0.066-0.7,0.3-0.9,0.7L11.875,11.574z"></path>
<path fill-rule="evenodd" clip-rule="evenodd" fill="#FFFFFF" d="M6.075,11.574c-0.033,0-0.083,0-0.15,0
	c-0.1,0-0.167,0.017-0.2,0.051c-0.066,0.033-0.117,0.066-0.15,0.1c-0.1,0.1-0.15,0.217-0.15,0.35c0,0.134,0.05,0.233,0.15,0.301
	c0.033,0.066,0.1,0.1,0.2,0.1c0.033,0.066,0.083,0.1,0.15,0.1c0.1,0,0.183-0.05,0.25-0.149c0.033,0,0.05-0.017,0.05-0.05
	c0.167-0.067,0.25-0.167,0.25-0.301c0-0.133-0.083-0.25-0.25-0.35C6.192,11.658,6.142,11.608,6.075,11.574l0.4-0.949
	c0.233-0.4,0.533-0.634,0.9-0.7c-0.367,0.066-0.667,0.3-0.9,0.7L6.075,11.574c0.067,0.034,0.117,0.084,0.15,0.15
	c0.167,0.1,0.25,0.217,0.25,0.35c0,0.134-0.083,0.233-0.25,0.301c0,0.033-0.017,0.05-0.05,0.05c-0.067,0.1-0.15,0.149-0.25,0.149
	c-0.067,0-0.117-0.033-0.15-0.1c-0.1,0-0.167-0.033-0.2-0.1c-0.1-0.067-0.15-0.167-0.15-0.301c0-0.133,0.05-0.25,0.15-0.35
	c0.033-0.033,0.083-0.066,0.15-0.1c0.033-0.034,0.1-0.051,0.2-0.051C5.992,11.574,6.042,11.574,6.075,11.574z"></path>
<path fill-rule="evenodd" clip-rule="evenodd" fill="#FFFFFF" d="M5.725,11.625l-0.85-0.95c-0.4-0.267-0.783-0.334-1.15-0.2
	c0.367-0.134,0.75-0.066,1.15,0.2L5.725,11.625z"></path>
<path fill-rule="evenodd" clip-rule="evenodd" fill="#FFFFFF" d="M4.425,14.375c0.467-0.167,0.8-0.467,1-0.9
	c0.1-0.167,0.217-0.5,0.35-1c-0.133,0.5-0.25,0.833-0.35,1C5.225,13.908,4.892,14.208,4.425,14.375z"></path>
<path fill-rule="evenodd" clip-rule="evenodd" fill="#FFFFFF" d="M6.175,12.425c0.333,0.366,0.583,0.649,0.75,0.85
	c0.367,0.267,0.733,0.367,1.1,0.3c-0.367,0.067-0.733-0.033-1.1-0.3C6.758,13.074,6.508,12.791,6.175,12.425z"></path>
<path fill-rule="evenodd" clip-rule="evenodd" fill="#FFFFFF" d="M11.875,17.625c-0.066,0.066-0.117,0.1-0.15,0.1
	c-0.033,0.134-0.05,0.267-0.05,0.4c0,0.1,0.017,0.199,0.05,0.3c0.1,0.066,0.167,0.1,0.2,0.1c0.033,0.033,0.066,0.066,0.1,0.101h0.05
	c0.133,0,0.233-0.051,0.3-0.15c0.034,0,0.05-0.017,0.05-0.05c0.1-0.101,0.15-0.2,0.15-0.3c0-0.134-0.05-0.267-0.15-0.4
	c-0.033-0.066-0.083-0.116-0.15-0.15c0.066,0.034,0.117,0.084,0.15,0.15c0.1,0.134,0.15,0.267,0.15,0.4c0,0.1-0.05,0.199-0.15,0.3
	c0,0.033-0.017,0.05-0.05,0.05c-0.066,0.1-0.167,0.15-0.3,0.15h-0.05c-0.034-0.034-0.067-0.067-0.1-0.101
	c-0.033,0-0.1-0.033-0.2-0.1c-0.033-0.101-0.05-0.2-0.05-0.3c0-0.134,0.017-0.267,0.05-0.4
	C11.758,17.725,11.809,17.691,11.875,17.625z"></path>
<path fill-rule="evenodd" clip-rule="evenodd" fill="#FFFFFF" d="M14.275,19.675c-0.4,0.033-0.767-0.084-1.1-0.351
	c-0.2-0.133-0.467-0.416-0.8-0.85c0.333,0.434,0.6,0.717,0.8,0.85C13.508,19.591,13.875,19.708,14.275,19.675z"></path>
<path fill-rule="evenodd" clip-rule="evenodd" fill="#FFFFFF" d="M11.925,18.524v0.05c-0.1,0.434-0.184,0.75-0.25,0.95
	c-0.2,0.467-0.55,0.767-1.05,0.9c0.5-0.134,0.85-0.434,1.05-0.9c0.066-0.2,0.15-0.517,0.25-0.95V18.524z"></path>
<polygon fill-rule="evenodd" clip-rule="evenodd" fill="#B59A87" points="11.425,11.675 11.425,11.625 11.475,11.675 " style="fill: rgb(0, 0, 0);"></polygon>
<path fill-rule="evenodd" clip-rule="evenodd" fill="none" stroke="#383635" stroke-width="0.3" d="M10.275,7.675
	c0.566-0.134,0.917-0.4,1.05-0.8c0.1-0.233,0.217-0.584,0.35-1.051c-0.133,0-0.217-0.033-0.25-0.1c-0.1-0.1-0.15-0.217-0.15-0.35
	c0-0.134,0.05-0.233,0.15-0.301c0.033-0.033,0.066-0.066,0.1-0.1l-0.75-0.9c-0.4-0.333-0.767-0.433-1.1-0.3" style="stroke: rgb(0, 0, 0);"></path>
<path fill-rule="evenodd" clip-rule="evenodd" fill="none" stroke="#383635" stroke-width="0.3" d="M13.375,3.324
	c-0.466,0.034-0.8,0.233-1,0.601l-0.5,0.899c0.1,0.101,0.167,0.184,0.2,0.25c0.133,0.067,0.2,0.167,0.2,0.301
	c0,0.133-0.067,0.25-0.2,0.35c0,0.033-0.017,0.05-0.05,0.05c0.367,0.434,0.65,0.7,0.85,0.8c0.367,0.267,0.717,0.384,1.05,0.351" style="stroke: rgb(0, 0, 0);"></path>
<path fill-rule="evenodd" clip-rule="evenodd" fill="none" stroke="#383635" stroke-width="0.3" d="M3.525,3.574
	c-2.267,2.334-3.4,5.134-3.4,8.4c0,3.233,1.133,6,3.4,8.3c2.267,2.334,5,3.5,8.2,3.5c3.233,0,5.983-1.166,8.25-3.5
	c2.3-2.3,3.45-5.066,3.45-8.3c0-3.267-1.15-6.066-3.45-8.4c-2.267-2.3-5.017-3.449-8.25-3.449C8.525,0.125,5.792,1.274,3.525,3.574z
	" style="stroke: rgb(0, 0, 0);"></path>
<path fill-rule="evenodd" clip-rule="evenodd" fill="none" stroke="#383635" stroke-width="0.3" d="M15.275,10.375
	c0.333-0.067,0.683,0.033,1.05,0.3l0.75,0.95c0.1-0.034,0.183-0.051,0.25-0.051s0.133,0,0.2,0l0.35-0.949
	c0.267-0.434,0.617-0.667,1.05-0.7" style="stroke: rgb(0, 0, 0);"></path>
<path fill-rule="evenodd" clip-rule="evenodd" fill="none" stroke="#383635" stroke-width="0.3" d="M19.525,13.524
	c-0.4,0.033-0.767-0.066-1.1-0.3c-0.167-0.167-0.434-0.434-0.8-0.8c-0.066,0.1-0.167,0.149-0.3,0.149c-0.033,0-0.067-0.033-0.1-0.1
	c0,0.033,0,0.066,0,0.1c-0.1,0.4-0.2,0.7-0.3,0.9c-0.2,0.4-0.55,0.7-1.05,0.9" style="stroke: rgb(0, 0, 0);"></path>
<path fill-rule="evenodd" clip-rule="evenodd" fill="none" stroke="#383635" stroke-width="0.3" d="M17.625,12.425
	c0.034,0,0.05-0.017,0.05-0.05c0.066-0.067,0.1-0.167,0.1-0.301c0-0.133-0.034-0.25-0.1-0.35c-0.1-0.066-0.15-0.116-0.15-0.15" style="stroke: rgb(0, 0, 0);"></path>
<path fill-rule="evenodd" clip-rule="evenodd" fill="none" stroke="#383635" stroke-width="0.3" d="M11.875,4.824h-0.1
	c-0.067,0-0.15,0.051-0.25,0.15" style="stroke: rgb(0, 0, 0);"></path>
<path fill-rule="evenodd" clip-rule="evenodd" fill="none" stroke="#383635" stroke-width="0.3" d="M11.675,5.824
	c0.033,0.034,0.066,0.051,0.1,0.051c0.066,0,0.15-0.034,0.25-0.101" style="stroke: rgb(0, 0, 0);"></path>
<path fill-rule="evenodd" clip-rule="evenodd" fill="none" stroke="#383635" stroke-width="0.3" d="M11.425,11.675
	c-0.033,0-0.067,0.017-0.1,0.05c-0.067,0.1-0.1,0.217-0.1,0.35c0,0.134,0.033,0.233,0.1,0.301c0.067,0.066,0.133,0.1,0.2,0.1
	l0.15,0.1c0.133,0,0.217-0.05,0.25-0.149l0.1-0.05c0.066-0.067,0.1-0.167,0.1-0.301c0-0.133-0.033-0.25-0.1-0.35
	c-0.067-0.066-0.117-0.116-0.15-0.15c-0.066,0-0.133,0-0.2,0c-0.1,0-0.167,0.034-0.2,0.101H11.425z" style="stroke: rgb(0, 0, 0);"></path>
<line fill-rule="evenodd" clip-rule="evenodd" fill="none" stroke="#383635" stroke-width="0.3" x1="11.425" y1="11.625" x2="11.425" y2="11.675" style="stroke: rgb(0, 0, 0);"></line>
<path fill-rule="evenodd" clip-rule="evenodd" fill="none" stroke="#383635" stroke-width="0.3" d="M13.775,13.675
	c-0.367,0.033-0.733-0.084-1.1-0.351c-0.133-0.199-0.367-0.5-0.7-0.899h-0.05" style="stroke: rgb(0, 0, 0);"></path>
<path fill-rule="evenodd" clip-rule="evenodd" fill="none" stroke="#383635" stroke-width="0.3" d="M11.525,12.475v0.05
	c-0.133,0.5-0.233,0.834-0.3,1c-0.2,0.434-0.55,0.717-1.05,0.851" style="stroke: rgb(0, 0, 0);"></path>
<path fill-rule="evenodd" clip-rule="evenodd" fill="none" stroke="#383635" stroke-width="0.3" d="M9.625,10.524
	c0.3-0.166,0.633-0.1,1,0.2l0.8,0.9" style="stroke: rgb(0, 0, 0);"></path>
<path fill-rule="evenodd" clip-rule="evenodd" fill="none" stroke="#383635" stroke-width="0.3" d="M10.025,16.475
	c0.333-0.1,0.667,0,1,0.3l0.85,0.8v0.051c0.034-0.034,0.1-0.051,0.2-0.051s0.167,0,0.2,0l0.35-0.899c0.267-0.367,0.6-0.601,1-0.7" style="stroke: rgb(0, 0, 0);"></path>
<path fill-rule="evenodd" clip-rule="evenodd" fill="none" stroke="#383635" stroke-width="0.3" d="M17.075,11.625
	c0,0.033-0.033,0.066-0.1,0.1c-0.066,0.1-0.1,0.217-0.1,0.35c0,0.134,0.034,0.233,0.1,0.301c0.067,0.066,0.15,0.1,0.25,0.1" style="stroke: rgb(0, 0, 0);"></path>
<path fill-rule="evenodd" clip-rule="evenodd" fill="none" stroke="#383635" stroke-width="0.3" d="M11.875,11.574l0.4-0.899
	c0.2-0.4,0.5-0.634,0.9-0.7" style="stroke: rgb(0, 0, 0);"></path>
<path fill-rule="evenodd" clip-rule="evenodd" fill="none" stroke="#383635" stroke-width="0.3" d="M6.075,11.574
	c-0.033,0-0.083,0-0.15,0c-0.1,0-0.167,0.017-0.2,0.051c-0.066,0.033-0.117,0.066-0.15,0.1c-0.1,0.1-0.15,0.217-0.15,0.35
	c0,0.134,0.05,0.233,0.15,0.301c0.033,0.066,0.1,0.1,0.2,0.1c0.033,0.066,0.083,0.1,0.15,0.1c0.1,0,0.183-0.05,0.25-0.149
	c0.033,0,0.05-0.017,0.05-0.05c0.167-0.067,0.25-0.167,0.25-0.301c0-0.133-0.083-0.25-0.25-0.35
	C6.192,11.658,6.142,11.608,6.075,11.574l0.4-0.949c0.233-0.4,0.533-0.634,0.9-0.7" style="stroke: rgb(0, 0, 0);"></path>
<path fill-rule="evenodd" clip-rule="evenodd" fill="none" stroke="#383635" stroke-width="0.3" d="M5.725,11.625l-0.85-0.95
	c-0.4-0.267-0.783-0.334-1.15-0.2" style="stroke: rgb(0, 0, 0);"></path>
<path fill-rule="evenodd" clip-rule="evenodd" fill="none" stroke="#383635" stroke-width="0.3" d="M4.425,14.375
	c0.467-0.167,0.8-0.467,1-0.9c0.1-0.167,0.217-0.5,0.35-1" style="stroke: rgb(0, 0, 0);"></path>
<path fill-rule="evenodd" clip-rule="evenodd" fill="none" stroke="#383635" stroke-width="0.3" d="M6.175,12.425
	c0.333,0.366,0.583,0.649,0.75,0.85c0.367,0.267,0.733,0.367,1.1,0.3" style="stroke: rgb(0, 0, 0);"></path>
<path fill-rule="evenodd" clip-rule="evenodd" fill="none" stroke="#383635" stroke-width="0.3" d="M11.875,17.625
	c-0.066,0.066-0.117,0.1-0.15,0.1c-0.033,0.134-0.05,0.267-0.05,0.4c0,0.1,0.017,0.199,0.05,0.3c0.1,0.066,0.167,0.1,0.2,0.1
	c0.033,0.033,0.066,0.066,0.1,0.101h0.05c0.133,0,0.233-0.051,0.3-0.15c0.034,0,0.05-0.017,0.05-0.05c0.1-0.101,0.15-0.2,0.15-0.3
	c0-0.134-0.05-0.267-0.15-0.4c-0.033-0.066-0.083-0.116-0.15-0.15" style="stroke: rgb(0, 0, 0);"></path>
<path fill-rule="evenodd" clip-rule="evenodd" fill="none" stroke="#383635" stroke-width="0.3" d="M14.275,19.675
	c-0.4,0.033-0.767-0.084-1.1-0.351c-0.2-0.133-0.467-0.416-0.8-0.85" style="stroke: rgb(0, 0, 0);"></path>
<path fill-rule="evenodd" clip-rule="evenodd" fill="none" stroke="#383635" stroke-width="0.3" d="M11.925,18.524v0.05
	c-0.1,0.434-0.184,0.75-0.25,0.95c-0.2,0.467-0.55,0.767-1.05,0.9" style="stroke: rgb(0, 0, 0);"></path>
</svg>