<svg version="1.1" id="Layer_1" xmlns="http://www.w3.org/2000/svg" xmlns:xlink="http://www.w3.org/1999/xlink" x="0px" y="0px" width="13.845px" height="13.421px" viewBox="0 0 13.845 13.421" enable-background="new 0 0 13.845 13.421" xml:space="preserve" class="ng-scope">
<path fill-rule="evenodd" clip-rule="evenodd" fill="#FFFFFF" d="M1.895,0.371c0.533-0.066,1.05-0.116,1.55-0.149
	c2.767-0.167,5.583-0.117,8.45,0.149c0.4,0,0.767,0.15,1.1,0.45c0.267,0.3,0.4,0.65,0.4,1.05c0.433,3.233,0.433,6.467,0,9.7
	c0,0.4-0.133,0.75-0.4,1.05c-0.333,0.3-0.7,0.45-1.1,0.45c-3.3,0.3-6.633,0.3-10,0c-0.434,0-0.784-0.15-1.05-0.45
	c-0.3-0.3-0.45-0.649-0.45-1.05c-0.3-2.833-0.35-5.684-0.15-8.55c0.034-0.367,0.083-0.75,0.15-1.15c0-0.399,0.15-0.75,0.45-1.05
	C1.111,0.521,1.461,0.371,1.895,0.371z"></path>
<path fill-rule="evenodd" clip-rule="evenodd" fill="#FFFFFF" d="M7.045,4.071c-0.3,0.267-0.45,0.616-0.45,1.05l0.1,1
	c0.033,0,0.1,0.017,0.2,0.05c0.133,0.034,0.233,0.117,0.3,0.25c0.067,0.101,0.083,0.2,0.05,0.301l-0.1,0.1h0.05
	c0.5,0.167,0.85,0.3,1.05,0.4c0.467,0.033,0.85-0.051,1.15-0.25c-0.3,0.199-0.684,0.283-1.15,0.25c-0.2-0.101-0.55-0.233-1.05-0.4
	h-0.05l0.1-0.1c0.034-0.101,0.017-0.2-0.05-0.301c-0.067-0.133-0.167-0.216-0.3-0.25c-0.1-0.033-0.167-0.05-0.2-0.05l-0.1-1
	C6.595,4.688,6.745,4.338,7.045,4.071z"></path>
<path fill-rule="evenodd" clip-rule="evenodd" fill="#FFFFFF" d="M6.695,6.121c-0.033,0.033-0.083,0.066-0.15,0.101
	c-0.1,0.033-0.15,0.1-0.15,0.199c-0.034,0.034-0.067,0.067-0.1,0.101c0,0.1,0.033,0.217,0.1,0.35c0.066,0.101,0.15,0.167,0.25,0.2
	c0.1,0.033,0.167,0.033,0.2,0h0.2c0.1-0.066,0.133-0.15,0.1-0.25c0.033,0.1,0,0.184-0.1,0.25h-0.2c-0.033,0.033-0.1,0.033-0.2,0
	c-0.1-0.033-0.184-0.1-0.25-0.2c-0.067-0.133-0.1-0.25-0.1-0.35c0.033-0.033,0.066-0.066,0.1-0.101c0-0.1,0.05-0.166,0.15-0.199
	C6.611,6.188,6.662,6.154,6.695,6.121z"></path>
<path fill-rule="evenodd" clip-rule="evenodd" fill="#FFFFFF" d="M6.395,6.421l-0.05-0.05l-1.15-0.399
	c-0.467-0.067-0.783,0.05-0.95,0.35c0.167-0.3,0.483-0.417,0.95-0.35l1.15,0.399L6.395,6.421z"></path>
<path fill-rule="evenodd" clip-rule="evenodd" fill="#FFFFFF" d="M6.645,9.371c0.367-0.366,0.517-0.783,0.45-1.25
	c0-0.2-0.083-0.55-0.25-1.05c0.167,0.5,0.25,0.85,0.25,1.05C7.162,8.588,7.012,9.005,6.645,9.371z"></path>
<path fill-rule="evenodd" clip-rule="evenodd" fill="none" stroke="#383635" stroke-width="0.3" stroke-linecap="round" stroke-linejoin="round" stroke-miterlimit="3" d="
	M1.895,0.371c0.533-0.066,1.05-0.116,1.55-0.149c2.767-0.167,5.583-0.117,8.45,0.149c0.4,0,0.767,0.15,1.1,0.45
	c0.267,0.3,0.4,0.65,0.4,1.05c0.433,3.233,0.433,6.467,0,9.7c0,0.4-0.133,0.75-0.4,1.05c-0.333,0.3-0.7,0.45-1.1,0.45
	c-3.3,0.3-6.633,0.3-10,0c-0.434,0-0.784-0.15-1.05-0.45c-0.3-0.3-0.45-0.649-0.45-1.05c-0.3-2.833-0.35-5.684-0.15-8.55
	c0.034-0.367,0.083-0.75,0.15-1.15c0-0.399,0.15-0.75,0.45-1.05C1.111,0.521,1.461,0.371,1.895,0.371z" style="stroke: rgb(0, 0, 0);"></path>
<path fill-rule="evenodd" clip-rule="evenodd" fill="none" stroke="#383635" stroke-width="0.3" d="M7.045,4.071
	c-0.3,0.267-0.45,0.616-0.45,1.05l0.1,1c0.033,0,0.1,0.017,0.2,0.05c0.133,0.034,0.233,0.117,0.3,0.25
	c0.067,0.101,0.083,0.2,0.05,0.301l-0.1,0.1h0.05c0.5,0.167,0.85,0.3,1.05,0.4c0.467,0.033,0.85-0.051,1.15-0.25" style="stroke: rgb(0, 0, 0);"></path>
<path fill-rule="evenodd" clip-rule="evenodd" fill="none" stroke="#383635" stroke-width="0.3" d="M6.695,6.121
	c-0.033,0.033-0.083,0.066-0.15,0.101c-0.1,0.033-0.15,0.1-0.15,0.199c-0.034,0.034-0.067,0.067-0.1,0.101
	c0,0.1,0.033,0.217,0.1,0.35c0.066,0.101,0.15,0.167,0.25,0.2c0.1,0.033,0.167,0.033,0.2,0h0.2c0.1-0.066,0.133-0.15,0.1-0.25" style="stroke: rgb(0, 0, 0);"></path>
<path fill-rule="evenodd" clip-rule="evenodd" fill="none" stroke="#383635" stroke-width="0.3" d="M6.395,6.421l-0.05-0.05
	l-1.15-0.399c-0.467-0.067-0.783,0.05-0.95,0.35" style="stroke: rgb(0, 0, 0);"></path>
<path fill-rule="evenodd" clip-rule="evenodd" fill="none" stroke="#383635" stroke-width="0.3" d="M6.645,9.371
	c0.367-0.366,0.517-0.783,0.45-1.25c0-0.2-0.083-0.55-0.25-1.05" style="stroke: rgb(0, 0, 0);"></path>
</svg>