<svg version="1.1" id="Layer_1" xmlns="http://www.w3.org/2000/svg" xmlns:xlink="http://www.w3.org/1999/xlink" x="0px" y="0px" width="27.55px" height="26.919px" viewBox="0 0 27.55 26.919" enable-background="new 0 0 27.55 26.919" xml:space="preserve" class="ng-scope">
<path fill-rule="evenodd" clip-rule="evenodd" fill="#FFFFFF" d="M14.975,1.844c0.133,0.4,0.233,0.8,0.3,1.2
	c0.9-0.867,2-1.416,3.3-1.65c0.134,0.467-0.1,1.434-0.699,2.9c-0.101,0.233-0.217,0.45-0.351,0.65
	c1.233-0.334,2.483-0.268,3.75,0.199c-0.1,0.4-0.6,0.967-1.5,1.7c-0.167,0.366-0.149,0.8,0.05,1.3c0.134,0.467,0.268,0.934,0.4,1.4
	c1.066-1,2.367-1.65,3.9-1.95c0.133,0.567-0.15,1.717-0.851,3.45c-0.133,0.3-0.25,0.584-0.35,0.85c1.467-0.434,2.967-0.35,4.5,0.25
	c-0.2,0.566-1.033,1.434-2.5,2.601c-0.434,0.333-0.884,0.6-1.351,0.8c-0.1,0.066-0.217,0.133-0.35,0.2
	c0.2,0.066,0.383,0.149,0.55,0.25c1.233,0.634,2,1.517,2.3,2.649c0.367,1.101,0.518,1.783,0.45,2.051
	c-0.733-0.2-1.533-0.283-2.399-0.25c-0.334,0.033-0.667,0.05-1,0.05c0.066,0.134,0.116,0.25,0.149,0.35
	c0.7,1.767,0.983,2.917,0.851,3.45c-1.9-0.334-3.45-1.233-4.65-2.7c0,0.634-0.083,1.267-0.25,1.9c-0.4,1.666-0.8,2.717-1.2,3.149
	c-0.033,0.067-0.066,0.117-0.1,0.15c0-0.033-0.033-0.083-0.101-0.15c-1.767-1.866-2.399-4.133-1.899-6.8
	c-0.4,0.7-0.934,1.384-1.601,2.05c-1.066,0.801-2.183,1.101-3.35,0.9c-1.133-0.166-1.85-0.35-2.15-0.55
	c0.601-0.534,1.033-1.217,1.301-2.05c0.066-0.101,0.133-0.2,0.199-0.301c-0.066-0.033-0.133-0.066-0.199-0.1
	c-0.434-0.1-0.817-0.25-1.15-0.45c-0.033,0.233-0.083,0.467-0.15,0.7c-0.3,1.233-0.6,2-0.899,2.3c0,0.034-0.017,0.067-0.05,0.101
	c0-0.033-0.018-0.066-0.051-0.101c-1.232-1.333-1.683-2.95-1.35-4.85c-0.3,0.466-0.684,0.933-1.15,1.399
	c-0.767,0.601-1.566,0.834-2.399,0.7s-1.333-0.267-1.5-0.399c0.399-0.367,0.7-0.867,0.899-1.5c0.033-0.101,0.067-0.184,0.101-0.25
	c-0.467-0.101-0.884-0.283-1.25-0.551c-0.4-0.3-0.75-0.35-1.05-0.149c0.533-0.833,1.017-1.434,1.449-1.8
	c0.334-0.301,0.667-0.533,1-0.7c-0.232-0.101-0.467-0.25-0.699-0.45c-1.033-0.834-1.617-1.434-1.75-1.8
	c1.066-0.4,2.116-0.483,3.149-0.25c-0.1-0.267-0.2-0.583-0.3-0.95c-0.1-0.666-0.333-1.267-0.7-1.8
	c0.267-0.034,0.817-0.017,1.65,0.05c0.5,0,0.95,0.133,1.35,0.4c0.233-0.334,0.467-0.584,0.7-0.75c0.4-0.334,0.8-0.617,1.2-0.851
	c-0.267-0.134-0.533-0.3-0.8-0.5C5.142,6.378,4.458,5.661,4.324,5.194c1.268-0.467,2.5-0.551,3.7-0.25
	c-0.133-0.367-0.25-0.75-0.35-1.15c-0.134-0.767-0.417-1.45-0.851-2.05c0.334-0.034,0.983-0.017,1.95,0.05
	c0.967,0,1.833,0.416,2.601,1.25c0.032,0.032,0.049,0.065,0.05,0.1c0-0.034,0-0.067,0-0.1c0.267-1.1,0.8-1.916,1.6-2.45
	c0.833-0.5,1.634-0.6,2.4-0.3C14.857,0.627,14.708,1.144,14.975,1.844z"></path>
<path fill-rule="evenodd" clip-rule="evenodd" fill="#FFFFFF" d="M7.175,7.844c1.5-0.733,3.217-0.649,5.149,0.25
	c0.101,0,0.2,0.017,0.301,0.05c-0.801-0.866-1.567-1.566-2.301-2.1c-0.767-0.533-1.533-0.9-2.3-1.1c0.767,0.199,1.533,0.566,2.3,1.1
	c0.733,0.533,1.5,1.233,2.301,2.1c-0.101-0.033-0.2-0.05-0.301-0.05C10.392,7.194,8.675,7.11,7.175,7.844z"></path>
<path fill-rule="evenodd" clip-rule="evenodd" fill="#FFFFFF" d="M12.324,8.094c-1.133-0.1-1.899-0.116-2.3-0.05
	c0.533,0.666,0.867,1.416,1,2.25c0.033,0.066,0.05,0.133,0.05,0.2c0.067,0.466,0.2,0.933,0.4,1.399c0.033,0,0.066,0.018,0.1,0.051
	c0.033,0,0.067,0,0.101,0c0.833,0.232,1.683,0.649,2.55,1.25c0.133,0.1,0.283,0.217,0.45,0.35c0.767,0.6,1.583,1.367,2.45,2.3
	c-0.301-0.399-0.551-0.833-0.75-1.3c-0.634-1.4-0.917-3-0.851-4.8c0-0.034-0.017-0.083-0.05-0.15c-0.1-0.1-0.184-0.183-0.25-0.25
	c-0.3-0.3-0.6-0.533-0.9-0.7c-0.333-0.166-0.649-0.3-0.949-0.399c-0.134-0.034-0.25-0.05-0.351-0.05
	c-0.133-0.033-0.25-0.051-0.35-0.051h-0.05h0.05c0.1,0,0.217,0.018,0.35,0.051c0.101,0,0.217,0.016,0.351,0.05
	c0.3,0.1,0.616,0.233,0.949,0.399c0.301,0.167,0.601,0.4,0.9,0.7c0.066,0.067,0.15,0.15,0.25,0.25c0.033,0.067,0.05,0.116,0.05,0.15
	c-0.066,1.8,0.217,3.399,0.851,4.8c0.199,0.467,0.449,0.9,0.75,1.3c-0.867-0.933-1.684-1.7-2.45-2.3
	c-0.167-0.133-0.317-0.25-0.45-0.35c-0.867-0.601-1.717-1.018-2.55-1.25c-0.033,0-0.067,0-0.101,0
	c-0.033-0.033-0.066-0.051-0.1-0.051c-0.2-0.467-0.333-0.934-0.4-1.399c0-0.067-0.017-0.134-0.05-0.2
	c-0.133-0.834-0.467-1.584-1-2.25C10.425,7.978,11.191,7.994,12.324,8.094z"></path>
<path fill-rule="evenodd" clip-rule="evenodd" fill="#FFFFFF" d="M3.274,11.744c0.7,0.2,1.367,0.517,2,0.95
	c0.267,0.199,0.533,0.416,0.8,0.649c0.134-0.167,0.268-0.333,0.4-0.5c-0.133-0.5-0.217-1-0.25-1.5c-0.267-0.134-0.5-0.283-0.7-0.45
	c-0.467-0.333-0.85-0.366-1.149-0.1c0.3-0.533,0.6-0.983,0.899-1.35c-0.3,0.366-0.6,0.816-0.899,1.35
	c0.3-0.267,0.683-0.233,1.149,0.1c0.2,0.167,0.434,0.316,0.7,0.45c0.033,0.5,0.117,1,0.25,1.5c-0.133,0.167-0.267,0.333-0.4,0.5
	c-0.267-0.233-0.533-0.45-0.8-0.649C4.642,12.261,3.975,11.944,3.274,11.744z"></path>
<path fill-rule="evenodd" clip-rule="evenodd" fill="#FFFFFF" d="M6.074,13.344c-0.1,0.101-0.199,0.184-0.3,0.25
	c0.167,0.101,0.45,0.2,0.851,0.3c0.1,0.033,0.199,0.066,0.3,0.101c0.2,0.033,0.433,0.066,0.7,0.1c0.133,0.034,0.267,0.05,0.399,0.05
	c0.233,0,0.467-0.016,0.7-0.05c-1-0.833-1.55-1.483-1.65-1.95c1.467-0.533,2.934-0.616,4.4-0.25c-1.467-0.366-2.934-0.283-4.4,0.25
	c0.101,0.467,0.65,1.117,1.65,1.95c-0.233,0.034-0.467,0.05-0.7,0.05c-0.133,0-0.267-0.016-0.399-0.05
	c-0.268-0.033-0.5-0.066-0.7-0.1c-0.101-0.034-0.2-0.067-0.3-0.101c-0.4-0.1-0.684-0.199-0.851-0.3
	C5.875,13.527,5.975,13.444,6.074,13.344z"></path>
<path fill-rule="evenodd" clip-rule="evenodd" fill="#FFFFFF" d="M11.024,10.294c-0.433,0.3-0.917,0.584-1.45,0.85
	c-0.366,0.134-0.767,0.268-1.199,0.4c-0.467,0.066-0.917,0.066-1.351,0c-0.033,0.1-0.066,0.217-0.1,0.35
	c-0.134,0.334-0.283,0.65-0.45,0.95c0.167-0.3,0.316-0.616,0.45-0.95c0.033-0.133,0.066-0.25,0.1-0.35
	c0.434,0.066,0.884,0.066,1.351,0c0.433-0.133,0.833-0.267,1.199-0.4C10.107,10.878,10.592,10.594,11.024,10.294z"></path>
<path fill-rule="evenodd" clip-rule="evenodd" fill="#FFFFFF" d="M7.024,11.544c-0.3-0.033-0.566-0.1-0.8-0.2
	C6.458,11.444,6.725,11.511,7.024,11.544z"></path>
<path fill-rule="evenodd" clip-rule="evenodd" fill="#FFFFFF" d="M8.024,14.144c-0.1,0.066-0.183,0.134-0.25,0.2
	c-0.1,0.101-0.183,0.217-0.25,0.351c0.033,0,0.2-0.051,0.5-0.15c0.2-0.066,0.483-0.166,0.851-0.3
	c-0.067-0.067-0.117-0.116-0.15-0.15c0.033,0.034,0.083,0.083,0.15,0.15c-0.367,0.134-0.65,0.233-0.851,0.3
	c-0.3,0.1-0.467,0.15-0.5,0.15c0.067-0.134,0.15-0.25,0.25-0.351C7.842,14.277,7.925,14.21,8.024,14.144z"></path>
<path fill-rule="evenodd" clip-rule="evenodd" fill="#FFFFFF" d="M14.324,8.644c0.167,0.033,0.367,0.051,0.601,0.051
	c0.333,0,0.649,0,0.95,0c0.333-0.867,0.866-1.533,1.6-2c0.967-0.634,1.934-0.783,2.9-0.45c-0.301,0.167-0.5,0.366-0.601,0.6
	c0.101-0.233,0.3-0.433,0.601-0.6c-0.967-0.333-1.934-0.184-2.9,0.45c-0.733,0.467-1.267,1.133-1.6,2c-0.301,0-0.617,0-0.95,0
	C14.691,8.694,14.491,8.677,14.324,8.644z"></path>
<path fill-rule="evenodd" clip-rule="evenodd" fill="#FFFFFF" d="M13.024,8.194c1.767-1.601,2.517-3.316,2.25-5.15
	C15.541,4.878,14.791,6.594,13.024,8.194z"></path>
<path fill-rule="evenodd" clip-rule="evenodd" fill="#FFFFFF" d="M17.524,4.944c-0.6,1.133-1.5,2.033-2.7,2.699
	c-0.533,0.268-0.967,0.45-1.3,0.551c-0.066,0.033-0.116,0.05-0.149,0.05c0.033,0,0.083-0.017,0.149-0.05
	c0.333-0.101,0.767-0.283,1.3-0.551C16.024,6.978,16.925,6.077,17.524,4.944z"></path>
<path fill-rule="evenodd" clip-rule="evenodd" fill="#FFFFFF" d="M15.225,9.344c0.1,0.067,0.217,0.15,0.35,0.25
	c0.067-0.333,0.167-0.634,0.301-0.899c-0.134,0.266-0.233,0.566-0.301,0.899C15.441,9.494,15.324,9.411,15.225,9.344z"></path>
<path fill-rule="evenodd" clip-rule="evenodd" fill="#FFFFFF" d="M15.524,9.744c0.033-0.034,0.05-0.083,0.05-0.15
	C15.574,9.661,15.558,9.71,15.524,9.744z"></path>
<path fill-rule="evenodd" clip-rule="evenodd" fill="#FFFFFF" d="M20.225,9.544c0.033,0.4,0.05,0.783,0.05,1.15
	c-0.033,0.5-0.116,1-0.25,1.5c-0.3,0.833-0.783,1.649-1.45,2.449c-0.166,0.2-0.35,0.4-0.55,0.601c-0.233,0.233-0.5,0.466-0.8,0.7
	c0.033,0,0.083,0.016,0.15,0.05c0.066-0.034,0.3-0.101,0.699-0.2c0.4-0.166,0.934-0.4,1.601-0.7c1.433-0.8,2.517-1.866,3.25-3.2
	c-0.733,1.334-1.817,2.4-3.25,3.2c-0.667,0.3-1.2,0.534-1.601,0.7c-0.399,0.1-0.633,0.166-0.699,0.2
	c-0.067-0.034-0.117-0.05-0.15-0.05c0.3-0.234,0.566-0.467,0.8-0.7c0.2-0.2,0.384-0.4,0.55-0.601c0.667-0.8,1.15-1.616,1.45-2.449
	c0.134-0.5,0.217-1,0.25-1.5C20.274,10.327,20.258,9.944,20.225,9.544z"></path>
<path fill-rule="evenodd" clip-rule="evenodd" fill="#FFFFFF" d="M11.425,3.144c-0.101,1.934,0.316,3.601,1.25,5
	C11.741,6.744,11.324,5.077,11.425,3.144z"></path>
<path fill-rule="evenodd" clip-rule="evenodd" fill="#FFFFFF" d="M23.125,20.494c-0.733-1.534-1.884-2.75-3.45-3.65
	c-0.033,0-0.067,0-0.101,0c-0.5-0.267-0.916-0.45-1.25-0.55c-0.1-0.066-0.183-0.1-0.25-0.1c-0.333-0.066-0.55-0.117-0.649-0.15
	c0.066,0.066,0.183,0.25,0.35,0.55c0.267,0.333,0.567,0.833,0.9,1.5c0.533,1.167,0.8,2.333,0.8,3.5c0-1.167-0.267-2.333-0.8-3.5
	c-0.333-0.667-0.634-1.167-0.9-1.5c-0.167-0.3-0.283-0.483-0.35-0.55c0.1,0.033,0.316,0.084,0.649,0.15c0.067,0,0.15,0.033,0.25,0.1
	c0.334,0.1,0.75,0.283,1.25,0.55c0.033,0,0.067,0,0.101,0C21.241,17.744,22.392,18.96,23.125,20.494z"></path>
<path fill-rule="evenodd" clip-rule="evenodd" fill="#FFFFFF" d="M23.225,15.744c-1.066,0.433-2.217,0.649-3.45,0.649
	c-0.033,0-0.066,0-0.1,0c-0.533-0.033-0.983-0.066-1.351-0.1c0.367,0.033,0.817,0.066,1.351,0.1c0.033,0,0.066,0,0.1,0
	C21.008,16.394,22.158,16.177,23.225,15.744z"></path>
<path fill-rule="evenodd" clip-rule="evenodd" fill="#FFFFFF" d="M10.125,19.794c0.066,0,0.133,0,0.199,0
	c0.467,0.066,0.983,0.066,1.551,0c0.133-0.033,0.267-0.066,0.399-0.1c2.2-0.768,3.851-2,4.95-3.7v-0.05h-0.05h-0.05
	c0-0.033-0.018-0.051-0.051-0.051c-0.933-0.5-1.816-0.833-2.649-1c-0.9-0.166-1.75-0.166-2.55,0c-0.467,0.101-0.934,0.268-1.4,0.5
	c-0.233,0.134-0.45,0.268-0.65,0.4c-0.267,0.166-0.533,0.367-0.8,0.6c-0.133,0.101-0.25,0.217-0.35,0.351
	c-0.5,0.466-1.033,1.167-1.601,2.1c0.4-0.3,0.867-0.233,1.4,0.2c0.167,0.1,0.333,0.2,0.5,0.3c-0.167-0.1-0.333-0.2-0.5-0.3
	c-0.533-0.434-1-0.5-1.4-0.2c0.567-0.933,1.101-1.634,1.601-2.1c0.1-0.134,0.217-0.25,0.35-0.351c0.267-0.232,0.533-0.434,0.8-0.6
	c0.2-0.133,0.417-0.267,0.65-0.4c0.467-0.232,0.934-0.399,1.4-0.5c0.8-0.166,1.649-0.166,2.55,0c0.833,0.167,1.717,0.5,2.649,1
	c0.033,0,0.051,0.018,0.051,0.051h0.05h0.05v0.05c-1.1,1.7-2.75,2.933-4.95,3.7c-0.133,0.033-0.267,0.066-0.399,0.1
	c-0.567,0.066-1.084,0.066-1.551,0C10.258,19.794,10.191,19.794,10.125,19.794z"></path>
<polygon fill-rule="evenodd" clip-rule="evenodd" fill="#FFFFFF" points="17.125,15.844 17.125,15.894 17.175,15.944 17.125,15.894 
	"></polygon>
<path fill-rule="evenodd" clip-rule="evenodd" fill="#FFFFFF" d="M17.225,15.994c-0.6,1.399-1.033,2.683-1.3,3.85
	C16.191,18.677,16.625,17.394,17.225,15.994z"></path>
<path fill-rule="evenodd" clip-rule="evenodd" fill="#FFFFFF" d="M17.425,16.044l-0.05-0.05L17.425,16.044z"></path>
<path fill-rule="evenodd" clip-rule="evenodd" fill="#FFFFFF" d="M8.875,14.244c0.199,0.134,0.416,0.3,0.649,0.5
	c0.101,0.066,0.2,0.149,0.3,0.25c0.2,0.134,0.417,0.267,0.65,0.399c-0.233-0.133-0.45-0.266-0.65-0.399
	c-0.1-0.101-0.199-0.184-0.3-0.25C9.291,14.544,9.074,14.378,8.875,14.244z"></path>
<path fill-rule="evenodd" clip-rule="evenodd" fill="#FFFFFF" d="M7.524,14.694v0.05c0.067,0.033,0.233,0.066,0.5,0.1
	c0.067,0,0.117,0.017,0.15,0.05c0.267,0.033,0.583,0.066,0.95,0.101c0.033,0,0.066,0,0.1,0c0.2,0,0.4,0,0.6,0
	c-0.199,0-0.399,0-0.6,0c-0.033,0-0.066,0-0.1,0c-0.367-0.034-0.684-0.067-0.95-0.101c-0.033-0.033-0.083-0.05-0.15-0.05
	c-0.267-0.033-0.433-0.066-0.5-0.1V14.694H7.375c-0.434,1-0.733,1.916-0.9,2.75v0.05v-0.05c0.167-0.834,0.467-1.75,0.9-2.75H7.524z"></path>
<path fill-rule="evenodd" clip-rule="evenodd" fill="#FFFFFF" d="M8.675,16.744c-0.067-0.2-0.15-0.4-0.25-0.601
	c-0.2-0.434-0.4-0.783-0.601-1.05c-0.133-0.167-0.232-0.283-0.3-0.35c0.067,0.066,0.167,0.183,0.3,0.35
	c0.2,0.267,0.4,0.616,0.601,1.05C8.524,16.344,8.607,16.544,8.675,16.744z"></path>
<path fill-rule="evenodd" clip-rule="evenodd" fill="#FFFFFF" d="M2.574,14.244c1.367-0.7,2.934-0.55,4.7,0.45
	c0.033,0,0.067,0,0.101,0c0-0.033-0.018-0.051-0.051-0.051c-0.232-0.266-0.467-0.516-0.699-0.75c0.232,0.234,0.467,0.484,0.699,0.75
	c0.033,0,0.051,0.018,0.051,0.051c-0.033,0-0.067,0-0.101,0C5.508,13.694,3.941,13.544,2.574,14.244z"></path>
<path fill-rule="evenodd" clip-rule="evenodd" fill="#FFFFFF" d="M8.175,14.894c0.3,0.066,0.616,0.217,0.95,0.45
	c0.232,0.134,0.467,0.284,0.699,0.45c-0.232-0.166-0.467-0.316-0.699-0.45C8.791,15.11,8.475,14.96,8.175,14.894z"></path>
<path fill-rule="evenodd" clip-rule="evenodd" fill="#FFFFFF" d="M10.324,19.894c0-0.033,0-0.066,0-0.1
	C10.324,19.827,10.324,19.86,10.324,19.894z"></path>
<path fill-rule="evenodd" clip-rule="evenodd" fill="#FFFFFF" d="M7.375,14.694c-0.801,1.3-2.051,2.217-3.75,2.75
	c-0.434,0.033-0.834,0.033-1.2,0c0.366,0.033,0.767,0.033,1.2,0C5.324,16.911,6.574,15.994,7.375,14.694z"></path>
<path fill-rule="evenodd" clip-rule="evenodd" fill="#FFFFFF" d="M7.324,14.644c-0.133-0.232-0.267-0.449-0.399-0.649
	C7.058,14.194,7.191,14.411,7.324,14.644z"></path>
<path fill-rule="evenodd" clip-rule="evenodd" fill="none" stroke="#383635" stroke-width="0.3" stroke-linecap="round" stroke-linejoin="round" stroke-miterlimit="3" d="
	M14.975,1.844c0.133,0.4,0.233,0.8,0.3,1.2c0.9-0.867,2-1.416,3.3-1.65c0.134,0.467-0.1,1.434-0.699,2.9
	c-0.101,0.233-0.217,0.45-0.351,0.65c1.233-0.334,2.483-0.268,3.75,0.199c-0.1,0.4-0.6,0.967-1.5,1.7
	c-0.167,0.366-0.149,0.8,0.05,1.3c0.134,0.467,0.268,0.934,0.4,1.4c1.066-1,2.367-1.65,3.9-1.95c0.133,0.567-0.15,1.717-0.851,3.45
	c-0.133,0.3-0.25,0.584-0.35,0.85c1.467-0.434,2.967-0.35,4.5,0.25c-0.2,0.566-1.033,1.434-2.5,2.601
	c-0.434,0.333-0.884,0.6-1.351,0.8c-0.1,0.066-0.217,0.133-0.35,0.2c0.2,0.066,0.383,0.149,0.55,0.25c1.233,0.634,2,1.517,2.3,2.649
	c0.367,1.101,0.518,1.783,0.45,2.051c-0.733-0.2-1.533-0.283-2.399-0.25c-0.334,0.033-0.667,0.05-1,0.05
	c0.066,0.134,0.116,0.25,0.149,0.35c0.7,1.767,0.983,2.917,0.851,3.45c-1.9-0.334-3.45-1.233-4.65-2.7c0,0.634-0.083,1.267-0.25,1.9
	c-0.4,1.666-0.8,2.717-1.2,3.149c-0.033,0.067-0.066,0.117-0.1,0.15c0-0.033-0.033-0.083-0.101-0.15
	c-1.767-1.866-2.399-4.133-1.899-6.8c-0.4,0.7-0.934,1.384-1.601,2.05c-1.066,0.801-2.183,1.101-3.35,0.9
	c-1.133-0.166-1.85-0.35-2.15-0.55c0.601-0.534,1.033-1.217,1.301-2.05c0.066-0.101,0.133-0.2,0.199-0.301
	c-0.066-0.033-0.133-0.066-0.199-0.1c-0.434-0.1-0.817-0.25-1.15-0.45c-0.033,0.233-0.083,0.467-0.15,0.7
	c-0.3,1.233-0.6,2-0.899,2.3c0,0.034-0.017,0.067-0.05,0.101c0-0.033-0.018-0.066-0.051-0.101c-1.232-1.333-1.683-2.95-1.35-4.85
	c-0.3,0.466-0.684,0.933-1.15,1.399c-0.767,0.601-1.566,0.834-2.399,0.7s-1.333-0.267-1.5-0.399c0.399-0.367,0.7-0.867,0.899-1.5
	c0.033-0.101,0.067-0.184,0.101-0.25c-0.467-0.101-0.884-0.283-1.25-0.551c-0.4-0.3-0.75-0.35-1.05-0.149
	c0.533-0.833,1.017-1.434,1.449-1.8c0.334-0.301,0.667-0.533,1-0.7c-0.232-0.101-0.467-0.25-0.699-0.45
	c-1.033-0.834-1.617-1.434-1.75-1.8c1.066-0.4,2.116-0.483,3.149-0.25c-0.1-0.267-0.2-0.583-0.3-0.95
	c-0.1-0.666-0.333-1.267-0.7-1.8c0.267-0.034,0.817-0.017,1.65,0.05c0.5,0,0.95,0.133,1.35,0.4c0.233-0.334,0.467-0.584,0.7-0.75
	c0.4-0.334,0.8-0.617,1.2-0.851c-0.267-0.134-0.533-0.3-0.8-0.5C5.142,6.378,4.458,5.661,4.324,5.194
	c1.268-0.467,2.5-0.551,3.7-0.25c-0.133-0.367-0.25-0.75-0.35-1.15c-0.134-0.767-0.417-1.45-0.851-2.05
	c0.334-0.034,0.983-0.017,1.95,0.05c0.967,0,1.833,0.416,2.601,1.25c0.032,0.032,0.049,0.065,0.05,0.1c0-0.034,0-0.067,0-0.1
	c0.267-1.1,0.8-1.916,1.6-2.45c0.833-0.5,1.634-0.6,2.4-0.3C14.857,0.627,14.708,1.144,14.975,1.844z" style="stroke: rgb(0, 0, 0);"></path>
<path fill-rule="evenodd" clip-rule="evenodd" fill="none" stroke="#383635" stroke-width="0.3" stroke-linecap="round" stroke-linejoin="round" stroke-miterlimit="3" d="
	M7.175,7.844c1.5-0.733,3.217-0.649,5.149,0.25c0.101,0,0.2,0.017,0.301,0.05c-0.801-0.866-1.567-1.566-2.301-2.1
	c-0.767-0.533-1.533-0.9-2.3-1.1" style="stroke: rgb(0, 0, 0);"></path>
<path fill-rule="evenodd" clip-rule="evenodd" fill="none" stroke="#383635" stroke-width="0.3" stroke-linecap="round" stroke-linejoin="round" stroke-miterlimit="3" d="
	M12.324,8.094c-1.133-0.1-1.899-0.116-2.3-0.05c0.533,0.666,0.867,1.416,1,2.25c0.033,0.066,0.05,0.133,0.05,0.2
	c0.067,0.466,0.2,0.933,0.4,1.399c0.033,0,0.066,0.018,0.1,0.051c0.033,0,0.067,0,0.101,0c0.833,0.232,1.683,0.649,2.55,1.25
	c0.133,0.1,0.283,0.217,0.45,0.35c0.767,0.6,1.583,1.367,2.45,2.3c-0.301-0.399-0.551-0.833-0.75-1.3c-0.634-1.4-0.917-3-0.851-4.8
	c0-0.034-0.017-0.083-0.05-0.15c-0.1-0.1-0.184-0.183-0.25-0.25c-0.3-0.3-0.6-0.533-0.9-0.7c-0.333-0.166-0.649-0.3-0.949-0.399
	c-0.134-0.034-0.25-0.05-0.351-0.05c-0.133-0.033-0.25-0.051-0.35-0.051h-0.05" style="stroke: rgb(0, 0, 0);"></path>
<path fill-rule="evenodd" clip-rule="evenodd" fill="none" stroke="#383635" stroke-width="0.3" stroke-linecap="round" stroke-linejoin="round" stroke-miterlimit="3" d="
	M3.274,11.744c0.7,0.2,1.367,0.517,2,0.95c0.267,0.199,0.533,0.416,0.8,0.649c0.134-0.167,0.268-0.333,0.4-0.5
	c-0.133-0.5-0.217-1-0.25-1.5c-0.267-0.134-0.5-0.283-0.7-0.45c-0.467-0.333-0.85-0.366-1.149-0.1c0.3-0.533,0.6-0.983,0.899-1.35" style="stroke: rgb(0, 0, 0);"></path>
<path fill-rule="evenodd" clip-rule="evenodd" fill="none" stroke="#383635" stroke-width="0.3" stroke-linecap="round" stroke-linejoin="round" stroke-miterlimit="3" d="
	M6.074,13.344c-0.1,0.101-0.199,0.184-0.3,0.25c0.167,0.101,0.45,0.2,0.851,0.3c0.1,0.033,0.199,0.066,0.3,0.101
	c0.2,0.033,0.433,0.066,0.7,0.1c0.133,0.034,0.267,0.05,0.399,0.05c0.233,0,0.467-0.016,0.7-0.05c-1-0.833-1.55-1.483-1.65-1.95
	c1.467-0.533,2.934-0.616,4.4-0.25" style="stroke: rgb(0, 0, 0);"></path>
<path fill-rule="evenodd" clip-rule="evenodd" fill="none" stroke="#383635" stroke-width="0.3" stroke-linecap="round" stroke-linejoin="round" stroke-miterlimit="3" d="
	M11.024,10.294c-0.433,0.3-0.917,0.584-1.45,0.85c-0.366,0.134-0.767,0.268-1.199,0.4c-0.467,0.066-0.917,0.066-1.351,0
	c-0.033,0.1-0.066,0.217-0.1,0.35c-0.134,0.334-0.283,0.65-0.45,0.95" style="stroke: rgb(0, 0, 0);"></path>
<path fill-rule="evenodd" clip-rule="evenodd" fill="none" stroke="#383635" stroke-width="0.3" stroke-linecap="round" stroke-linejoin="round" stroke-miterlimit="3" d="
	M7.024,11.544c-0.3-0.033-0.566-0.1-0.8-0.2" style="stroke: rgb(0, 0, 0);"></path>
<path fill-rule="evenodd" clip-rule="evenodd" fill="none" stroke="#383635" stroke-width="0.3" stroke-linecap="round" stroke-linejoin="round" stroke-miterlimit="3" d="
	M8.024,14.144c-0.1,0.066-0.183,0.134-0.25,0.2c-0.1,0.101-0.183,0.217-0.25,0.351c0.033,0,0.2-0.051,0.5-0.15
	c0.2-0.066,0.483-0.166,0.851-0.3c-0.067-0.067-0.117-0.116-0.15-0.15" style="stroke: rgb(0, 0, 0);"></path>
<path fill-rule="evenodd" clip-rule="evenodd" fill="none" stroke="#383635" stroke-width="0.3" stroke-linecap="round" stroke-linejoin="round" stroke-miterlimit="3" d="
	M14.324,8.644c0.167,0.033,0.367,0.051,0.601,0.051c0.333,0,0.649,0,0.95,0c0.333-0.867,0.866-1.533,1.6-2
	c0.967-0.634,1.934-0.783,2.9-0.45c-0.301,0.167-0.5,0.366-0.601,0.6" style="stroke: rgb(0, 0, 0);"></path>
<path fill-rule="evenodd" clip-rule="evenodd" fill="none" stroke="#383635" stroke-width="0.3" stroke-linecap="round" stroke-linejoin="round" stroke-miterlimit="3" d="
	M13.024,8.194c1.767-1.601,2.517-3.316,2.25-5.15" style="stroke: rgb(0, 0, 0);"></path>
<path fill-rule="evenodd" clip-rule="evenodd" fill="none" stroke="#383635" stroke-width="0.3" stroke-linecap="round" stroke-linejoin="round" stroke-miterlimit="3" d="
	M17.524,4.944c-0.6,1.133-1.5,2.033-2.7,2.699c-0.533,0.268-0.967,0.45-1.3,0.551c-0.066,0.033-0.116,0.05-0.149,0.05" style="stroke: rgb(0, 0, 0);"></path>
<path fill-rule="evenodd" clip-rule="evenodd" fill="none" stroke="#383635" stroke-width="0.3" stroke-linecap="round" stroke-linejoin="round" stroke-miterlimit="3" d="
	M15.225,9.344c0.1,0.067,0.217,0.15,0.35,0.25c0.067-0.333,0.167-0.634,0.301-0.899" style="stroke: rgb(0, 0, 0);"></path>
<path fill-rule="evenodd" clip-rule="evenodd" fill="none" stroke="#383635" stroke-width="0.3" stroke-linecap="round" stroke-linejoin="round" stroke-miterlimit="3" d="
	M15.524,9.744c0.033-0.034,0.05-0.083,0.05-0.15" style="stroke: rgb(0, 0, 0);"></path>
<path fill-rule="evenodd" clip-rule="evenodd" fill="none" stroke="#383635" stroke-width="0.3" stroke-linecap="round" stroke-linejoin="round" stroke-miterlimit="3" d="
	M20.225,9.544c0.033,0.4,0.05,0.783,0.05,1.15c-0.033,0.5-0.116,1-0.25,1.5c-0.3,0.833-0.783,1.649-1.45,2.449
	c-0.166,0.2-0.35,0.4-0.55,0.601c-0.233,0.233-0.5,0.466-0.8,0.7c0.033,0,0.083,0.016,0.15,0.05c0.066-0.034,0.3-0.101,0.699-0.2
	c0.4-0.166,0.934-0.4,1.601-0.7c1.433-0.8,2.517-1.866,3.25-3.2" style="stroke: rgb(0, 0, 0);"></path>
<path fill-rule="evenodd" clip-rule="evenodd" fill="none" stroke="#383635" stroke-width="0.3" stroke-linecap="round" stroke-linejoin="round" stroke-miterlimit="3" d="
	M11.425,3.144c-0.101,1.934,0.316,3.601,1.25,5" style="stroke: rgb(0, 0, 0);"></path>
<path fill-rule="evenodd" clip-rule="evenodd" fill="none" stroke="#383635" stroke-width="0.3" stroke-linecap="round" stroke-linejoin="round" stroke-miterlimit="3" d="
	M23.125,20.494c-0.733-1.534-1.884-2.75-3.45-3.65c-0.033,0-0.067,0-0.101,0c-0.5-0.267-0.916-0.45-1.25-0.55
	c-0.1-0.066-0.183-0.1-0.25-0.1c-0.333-0.066-0.55-0.117-0.649-0.15c0.066,0.066,0.183,0.25,0.35,0.55
	c0.267,0.333,0.567,0.833,0.9,1.5c0.533,1.167,0.8,2.333,0.8,3.5" style="stroke: rgb(0, 0, 0);"></path>
<path fill-rule="evenodd" clip-rule="evenodd" fill="none" stroke="#383635" stroke-width="0.3" stroke-linecap="round" stroke-linejoin="round" stroke-miterlimit="3" d="
	M23.225,15.744c-1.066,0.433-2.217,0.649-3.45,0.649c-0.033,0-0.066,0-0.1,0c-0.533-0.033-0.983-0.066-1.351-0.1" style="stroke: rgb(0, 0, 0);"></path>
<path fill-rule="evenodd" clip-rule="evenodd" fill="none" stroke="#383635" stroke-width="0.3" stroke-linecap="round" stroke-linejoin="round" stroke-miterlimit="3" d="
	M10.125,19.794c0.066,0,0.133,0,0.199,0c0.467,0.066,0.983,0.066,1.551,0c0.133-0.033,0.267-0.066,0.399-0.1
	c2.2-0.768,3.851-2,4.95-3.7v-0.05h-0.05h-0.05c0-0.033-0.018-0.051-0.051-0.051c-0.933-0.5-1.816-0.833-2.649-1
	c-0.9-0.166-1.75-0.166-2.55,0c-0.467,0.101-0.934,0.268-1.4,0.5c-0.233,0.134-0.45,0.268-0.65,0.4
	c-0.267,0.166-0.533,0.367-0.8,0.6c-0.133,0.101-0.25,0.217-0.35,0.351c-0.5,0.466-1.033,1.167-1.601,2.1
	c0.4-0.3,0.867-0.233,1.4,0.2c0.167,0.1,0.333,0.2,0.5,0.3" style="stroke: rgb(0, 0, 0);"></path>
<polyline fill-rule="evenodd" clip-rule="evenodd" fill="none" stroke="#383635" stroke-width="0.3" stroke-linecap="round" stroke-linejoin="round" stroke-miterlimit="3" points="
	17.125,15.844 17.125,15.894 17.175,15.944 " style="stroke: rgb(0, 0, 0);"></polyline>
<path fill-rule="evenodd" clip-rule="evenodd" fill="none" stroke="#383635" stroke-width="0.3" stroke-linecap="round" stroke-linejoin="round" stroke-miterlimit="3" d="
	M17.225,15.994c-0.6,1.399-1.033,2.683-1.3,3.85" style="stroke: rgb(0, 0, 0);"></path>
<line fill-rule="evenodd" clip-rule="evenodd" fill="none" stroke="#383635" stroke-width="0.3" stroke-linecap="round" stroke-linejoin="round" stroke-miterlimit="3" x1="17.425" y1="16.044" x2="17.375" y2="15.994" style="stroke: rgb(0, 0, 0);"></line>
<path fill-rule="evenodd" clip-rule="evenodd" fill="none" stroke="#383635" stroke-width="0.3" stroke-linecap="round" stroke-linejoin="round" stroke-miterlimit="3" d="
	M8.875,14.244c0.199,0.134,0.416,0.3,0.649,0.5c0.101,0.066,0.2,0.149,0.3,0.25c0.2,0.134,0.417,0.267,0.65,0.399" style="stroke: rgb(0, 0, 0);"></path>
<path fill-rule="evenodd" clip-rule="evenodd" fill="none" stroke="#383635" stroke-width="0.3" stroke-linecap="round" stroke-linejoin="round" stroke-miterlimit="3" d="
	M7.524,14.694v0.05c0.067,0.033,0.233,0.066,0.5,0.1c0.067,0,0.117,0.017,0.15,0.05c0.267,0.033,0.583,0.066,0.95,0.101
	c0.033,0,0.066,0,0.1,0c0.2,0,0.4,0,0.6,0" style="stroke: rgb(0, 0, 0);"></path>
<path fill-rule="evenodd" clip-rule="evenodd" fill="none" stroke="#383635" stroke-width="0.3" stroke-linecap="round" stroke-linejoin="round" stroke-miterlimit="3" d="
	M7.524,14.694H7.375c-0.434,1-0.733,1.916-0.9,2.75v0.05" style="stroke: rgb(0, 0, 0);"></path>
<path fill-rule="evenodd" clip-rule="evenodd" fill="none" stroke="#383635" stroke-width="0.3" stroke-linecap="round" stroke-linejoin="round" stroke-miterlimit="3" d="
	M8.675,16.744c-0.067-0.2-0.15-0.4-0.25-0.601c-0.2-0.434-0.4-0.783-0.601-1.05c-0.133-0.167-0.232-0.283-0.3-0.35" style="stroke: rgb(0, 0, 0);"></path>
<path fill-rule="evenodd" clip-rule="evenodd" fill="none" stroke="#383635" stroke-width="0.3" stroke-linecap="round" stroke-linejoin="round" stroke-miterlimit="3" d="
	M2.574,14.244c1.367-0.7,2.934-0.55,4.7,0.45c0.033,0,0.067,0,0.101,0c0-0.033-0.018-0.051-0.051-0.051
	c-0.232-0.266-0.467-0.516-0.699-0.75" style="stroke: rgb(0, 0, 0);"></path>
<path fill-rule="evenodd" clip-rule="evenodd" fill="none" stroke="#383635" stroke-width="0.3" stroke-linecap="round" stroke-linejoin="round" stroke-miterlimit="3" d="
	M8.175,14.894c0.3,0.066,0.616,0.217,0.95,0.45c0.232,0.134,0.467,0.284,0.699,0.45" style="stroke: rgb(0, 0, 0);"></path>
<path fill-rule="evenodd" clip-rule="evenodd" fill="none" stroke="#383635" stroke-width="0.3" stroke-linecap="round" stroke-linejoin="round" stroke-miterlimit="3" d="
	M10.324,19.894c0-0.033,0-0.066,0-0.1" style="stroke: rgb(0, 0, 0);"></path>
<path fill-rule="evenodd" clip-rule="evenodd" fill="none" stroke="#383635" stroke-width="0.3" stroke-linecap="round" stroke-linejoin="round" stroke-miterlimit="3" d="
	M7.375,14.694c-0.801,1.3-2.051,2.217-3.75,2.75c-0.434,0.033-0.834,0.033-1.2,0" style="stroke: rgb(0, 0, 0);"></path>
<path fill-rule="evenodd" clip-rule="evenodd" fill="none" stroke="#383635" stroke-width="0.3" stroke-linecap="round" stroke-linejoin="round" stroke-miterlimit="3" d="
	M7.324,14.644c-0.133-0.232-0.267-0.449-0.399-0.649" style="stroke: rgb(0, 0, 0);"></path>
</svg>