<svg version="1.1" xmlns="http://www.w3.org/2000/svg" xmlns:xlink="http://www.w3.org/1999/xlink" width="39px" height="52.851px" viewBox="0 0 39 52.851" xml:space="preserve">
<path fill-rule="evenodd" clip-rule="evenodd" fill="#FFFFFF" d="M38.225,21.726v0.05c0,1.434-0.066,2.684-0.2,3.75
	c0,0.634-0.267,1.066-0.8,1.3c0,12.233,0.017,19.017,0.05,20.351c0,0.533-0.167,0.949-0.5,1.25h0.55v4.3h-2.35v-0.3h-32.3v0.3h-2.3
	v-4.2h1.45c-0.233-0.134-0.383-0.333-0.45-0.6l-0.25-21.051c-0.5,0-0.833-0.116-1-0.35c0-0.033,0-0.3,0-0.8
	c0-0.2,0.017-0.684,0.05-1.45c0.1-0.733,0.167-1.25,0.2-1.55c0.067-0.233,0.1-0.4,0.1-0.5c0.067-0.101,0.083-0.25,0.05-0.45
	c-0.034-0.033-0.05-0.066-0.05-0.1c-0.1-0.233-0.15-0.983-0.15-2.25c0.033-1.067,0.083-2.117,0.15-3.15
	c0.1-0.634,0.184-1.05,0.25-1.25l0.15-10.4c-0.1-0.133-0.1-0.233,0-0.3h-0.5v-4.05h2.3v0.15h32.3V0.125h2.35v4h-0.55
	c0.1,0.101,0.1,0.25,0,0.45v10.25c0.466,0.101,0.733,0.467,0.8,1.101c0.133,0.366,0.133,0.783,0,1.25
	C37.875,18.409,38.092,19.926,38.225,21.726z"></path>
<path fill-rule="evenodd" clip-rule="evenodd" fill="#FFFFFF" d="M36.775,4.125l-1.8-0.149l-0.6-0.05
	c-0.633-0.101-1.617-0.101-2.95,0c-1.367,0.1-2.2,0.149-2.5,0.149c-0.167,0.033-0.75,0.017-1.75-0.05
	c-0.5-0.033-1.067-0.05-1.7-0.05c-2.933,0-4.883,0-5.85,0c-0.333,0.033-0.617,0.083-0.85,0.149c-0.067,0-0.133,0.017-0.2,0.051
	c0.067,0,0.133,0.017,0.2,0.05c0.566,0.166,0.95,0.583,1.15,1.25c-0.2-0.667-0.583-1.084-1.15-1.25
	c-0.067-0.033-0.133-0.05-0.2-0.05c0.067-0.034,0.133-0.051,0.2-0.051c0.233-0.066,0.517-0.116,0.85-0.149c0.967,0,2.917,0,5.85,0
	c0.633,0,1.2,0.017,1.7,0.05c1,0.066,1.583,0.083,1.75,0.05c0.3,0,1.133-0.05,2.5-0.149c1.333-0.101,2.316-0.101,2.95,0l0.6,0.05
	L36.775,4.125z"></path>
<path fill-rule="evenodd" clip-rule="evenodd" fill="#FFFFFF" d="M36.775,4.575c-0.067,0.033-0.184,0.15-0.35,0.351
	c-0.367,0.399-0.6,0.733-0.7,1c-0.033,0.233,0.017,0.566,0.15,1c0.333,0.933,0.467,1.85,0.4,2.75c0,0.666,0,1.183,0,1.55
	c-0.267,0-0.534,0.033-0.8,0.1v3.65c0.267-0.066,0.567-0.117,0.9-0.15c0.167,0,0.3,0,0.4,0c-0.1,0-0.233,0-0.4,0
	c-0.333,0.033-0.633,0.084-0.9,0.15v-3.65c0.267-0.066,0.533-0.1,0.8-0.1c0-0.367,0-0.884,0-1.55c0.066-0.9-0.067-1.817-0.4-2.75
	c-0.133-0.434-0.183-0.767-0.15-1c0.1-0.267,0.333-0.601,0.7-1C36.592,4.726,36.708,4.608,36.775,4.575z"></path>
<path fill-rule="evenodd" clip-rule="evenodd" fill="#FFFFFF" d="M34.975,3.976v-3.55V3.976z"></path>
<path fill-rule="evenodd" clip-rule="evenodd" fill="#FFFFFF" d="M0.875,4.625c0.034,0.167,0.117,0.317,0.25,0.45
	c0.467,0.467,0.75,0.8,0.85,1s0.033,0.533-0.2,1c-0.4,1.033-0.534,1.967-0.4,2.8c0,0.667,0,1.167,0,1.5h0.85l0.5,0.101
	c1.1,0.033,2.1,0.05,3,0.05c0-0.1,0-0.217,0-0.35c0-1.167-0.083-2.284-0.25-3.351c-0.233-0.934-0.017-1.434,0.65-1.5
	c0.367-0.033,0.717,0,1.05,0.101l1.95,0.55c0.367,0.066,0.717,0.116,1.05,0.149c0.833-0.033,1.566-0.1,2.2-0.199
	c0.9-0.101,2.35-0.334,4.35-0.7c0.567-0.134,1-0.084,1.3,0.149c0.433,0.334,0.55,1.084,0.35,2.25c0,0.101,0,0.233,0,0.4
	c0,0.134-0.017,0.384-0.05,0.75c0.033,0.333,0.017,0.75-0.05,1.25c0,0.233-0.017,0.4-0.05,0.5h0.6c0.333-0.033,0.517-0.134,0.55-0.3
	c0-0.134,0-0.25,0-0.351c0-0.433-0.017-0.8-0.05-1.1c0-0.533-0.033-0.983-0.1-1.35c-0.033,0.033-0.05,0-0.05-0.101
	c-0.1-0.233-0.15-0.483-0.15-0.75c-0.034-0.3-0.034-0.55,0-0.75c0.033-0.233,0.25-0.416,0.65-0.55c0.066-0.033,0.133-0.05,0.2-0.05
	c0.333-0.134,0.633-0.167,0.9-0.101c0.933,0.067,2.433,0.284,4.5,0.65c0.566,0.066,1.2,0.1,1.9,0.1
	c0.367,0.034,0.75,0.017,1.15-0.05c0.833-0.166,1.55-0.333,2.15-0.5l1.05-0.1c0.667,0.066,0.917,0.517,0.75,1.35
	c-0.233,1.167-0.35,2.316-0.35,3.45c0,0.134,0,0.25,0,0.35c1.1,0,2.283-0.017,3.55-0.05c-1.267,0.033-2.45,0.05-3.55,0.05
	c0-0.1,0-0.216,0-0.35c0-1.134,0.117-2.283,0.35-3.45c0.167-0.833-0.083-1.283-0.75-1.35l-1.05,0.1c-0.6,0.167-1.316,0.334-2.15,0.5
	c-0.4,0.066-0.783,0.084-1.15,0.05c-0.7,0-1.333-0.033-1.9-0.1c-2.067-0.366-3.567-0.583-4.5-0.65
	c-0.267-0.066-0.567-0.033-0.9,0.101c-0.066,0-0.133,0.017-0.2,0.05c-0.4,0.134-0.617,0.316-0.65,0.55c-0.034,0.2-0.034,0.45,0,0.75
	c0,0.267,0.05,0.517,0.15,0.75c0,0.101,0.017,0.134,0.05,0.101c0.067,0.366,0.1,0.816,0.1,1.35c0.033,0.3,0.05,0.667,0.05,1.1
	c0,0.101,0,0.217,0,0.351c-0.033,0.166-0.216,0.267-0.55,0.3h-0.6c0.033-0.1,0.05-0.267,0.05-0.5c0.066-0.5,0.083-0.917,0.05-1.25
	c0.033-0.366,0.05-0.616,0.05-0.75c0-0.167,0-0.3,0-0.4c0.2-1.166,0.083-1.916-0.35-2.25c-0.3-0.233-0.733-0.283-1.3-0.149
	c-2,0.366-3.45,0.6-4.35,0.7c-0.633,0.1-1.367,0.166-2.2,0.199c-0.333-0.033-0.684-0.083-1.05-0.149l-1.95-0.55
	c-0.333-0.101-0.684-0.134-1.05-0.101c-0.667,0.066-0.883,0.566-0.65,1.5c0.167,1.066,0.25,2.184,0.25,3.351c0,0.133,0,0.25,0,0.35
	c-0.9,0-1.9-0.017-3-0.05l-0.5-0.101h-0.85c0-0.333,0-0.833,0-1.5c-0.133-0.833,0-1.767,0.4-2.8c0.233-0.467,0.3-0.8,0.2-1
	s-0.383-0.533-0.85-1C0.992,4.942,0.909,4.792,0.875,4.625z"></path>
<path fill-rule="evenodd" clip-rule="evenodd" fill="#FFFFFF" d="M31.925,11.375c0,0.967,0.083,1.567,0.25,1.801
	c0.133,0.233,0.316,0.483,0.55,0.75c0.1,0.166,0.067,0.333-0.1,0.5c-0.233,0.166-0.566,0.35-1,0.55c0.167,0.033,0.767,0.05,1.8,0.05
	c0.733,0,1.417-0.017,2.05-0.05c-0.633,0.033-1.316,0.05-2.05,0.05c-1.033,0-1.633-0.017-1.8-0.05c0.434-0.2,0.767-0.384,1-0.55
	c0.167-0.167,0.2-0.334,0.1-0.5c-0.233-0.267-0.417-0.517-0.55-0.75C32.008,12.942,31.925,12.342,31.925,11.375z"></path>
<path fill-rule="evenodd" clip-rule="evenodd" fill="#FFFFFF" d="M18.225,11.525c-0.033,0.6-0.017,0.967,0.05,1.1v0.051
	c0.066,0.3,0.167,0.583,0.3,0.85c0.167,0.4,0.117,0.75-0.15,1.05c-0.167,0.134-0.317,0.25-0.45,0.351h0.05
	c-0.034,0.033-0.067,0.05-0.1,0.05l2.05,0.05c0.1,0.066,0.167,0.116,0.2,0.15c0.267,0.1,0.583,0.149,0.95,0.149
	c-0.066-0.434-0.1-0.684-0.1-0.75c0-0.399,0.167-0.616,0.5-0.649c0.066-0.101,0.5-0.084,1.3,0.05c0.633,0.1,1.533,0.149,2.7,0.149
	c1.267,0.034,2.1-0.017,2.5-0.149c0.7-0.2,1.45-0.3,2.25-0.3c0.333-0.034,0.483,0.116,0.45,0.449c-0.1,0.101-0.183,0.25-0.25,0.45
	c-0.133,0.3-0.2,0.566-0.2,0.8c0.533-0.133,0.983-0.267,1.35-0.399c-0.367,0.133-0.816,0.267-1.35,0.399c0-0.233,0.066-0.5,0.2-0.8
	c0.067-0.2,0.15-0.35,0.25-0.45c0.033-0.333-0.117-0.483-0.45-0.449c-0.8,0-1.55,0.1-2.25,0.3c-0.4,0.133-1.233,0.184-2.5,0.149
	c-1.167,0-2.067-0.05-2.7-0.149c-0.8-0.134-1.233-0.15-1.3-0.05c-0.333,0.033-0.5,0.25-0.5,0.649c0,0.066,0.033,0.316,0.1,0.75
	c-0.367,0-0.683-0.05-0.95-0.149c-0.033-0.034-0.1-0.084-0.2-0.15l-2.05-0.05c0.033,0,0.066-0.017,0.1-0.05h-0.05
	c0.133-0.101,0.283-0.217,0.45-0.351c0.267-0.3,0.316-0.649,0.15-1.05c-0.133-0.267-0.233-0.55-0.3-0.85v-0.051
	C18.208,12.492,18.192,12.125,18.225,11.525z"></path>
<path fill-rule="evenodd" clip-rule="evenodd" fill="#FFFFFF" d="M30.275,15.375c0,0.634,0.066,1.184,0.2,1.65
	c0.033,0.366,0.133,0.85,0.3,1.45c0.066,0.467-0.017,0.733-0.25,0.8c-0.367-0.066-0.65-0.1-0.85-0.1c-0.267,0-0.5,0-0.7,0
	c-0.433,0-0.833,0.066-1.2,0.199c-0.8,0.2-2.017,0.2-3.65,0c-0.233-0.033-0.6-0.033-1.1,0c-0.534,0.101-1,0.15-1.4,0.15
	c-0.433,0.033-0.7-0.083-0.8-0.35c-0.067-0.233-0.017-0.534,0.15-0.9c0.133-0.2,0.184-0.767,0.15-1.7c0-0.434,0-0.85,0-1.25
	c0,0.4,0,0.816,0,1.25c0.034,0.934-0.017,1.5-0.15,1.7c-0.167,0.366-0.217,0.667-0.15,0.9c0.1,0.267,0.367,0.383,0.8,0.35
	c0.4,0,0.867-0.05,1.4-0.15c0.5-0.033,0.867-0.033,1.1,0c1.633,0.2,2.85,0.2,3.65,0c0.367-0.133,0.767-0.199,1.2-0.199
	c0.2,0,0.434,0,0.7,0c0.2,0,0.483,0.033,0.85,0.1c0.233-0.066,0.316-0.333,0.25-0.8c-0.167-0.601-0.267-1.084-0.3-1.45
	C30.342,16.559,30.275,16.009,30.275,15.375z"></path>
<path fill-rule="evenodd" clip-rule="evenodd" fill="#FFFFFF" d="M18.575,4.176c-0.133-0.034-0.383-0.051-0.75-0.051
	c-0.967-0.066-2.917-0.066-5.85,0c-0.667,0-1.267,0-1.8,0c-0.867,0.067-1.333,0.101-1.4,0.101c-1.034-0.066-1.883-0.117-2.55-0.15
	c-1.333-0.066-2.3-0.066-2.9,0l-0.65,0.05l-1.5,0.15h-0.3v0.05v-0.05h0.3l1.5-0.15l0.65-0.05c0.6-0.066,1.567-0.066,2.9,0
	c0.667,0.033,1.517,0.084,2.55,0.15c0.066,0,0.533-0.033,1.4-0.101c0.533,0,1.133,0,1.8,0c2.934-0.066,4.883-0.066,5.85,0
	C18.192,4.125,18.442,4.142,18.575,4.176z"></path>
<path fill-rule="evenodd" clip-rule="evenodd" fill="#FFFFFF" d="M5.725,11.525c0,1-0.083,1.616-0.25,1.85
	c-0.167,0.167-0.367,0.417-0.6,0.75c-0.066,0.134,0.017,0.301,0.25,0.5c0.067,0.134,0.184,0.217,0.35,0.25
	c0.434,0.233,1.067,0.5,1.9,0.801c0-0.334-0.05-0.667-0.15-1c-0.1-0.134-0.2-0.284-0.3-0.45c-0.067-0.3,0.083-0.4,0.45-0.3l0.7,0.05
	c0.6,0.066,1.083,0.133,1.45,0.2c0.433,0.066,1.316,0.1,2.65,0.1c1.167-0.033,2.05-0.066,2.65-0.1
	c0.733-0.067,1.183-0.101,1.35-0.101c0.267,0.066,0.4,0.316,0.4,0.75v0.65c0.367,0,0.65-0.05,0.85-0.15
	c0.2-0.1,0.367-0.217,0.5-0.35c-0.133,0.133-0.3,0.25-0.5,0.35c-0.2,0.101-0.483,0.15-0.85,0.15v-0.65c0-0.434-0.133-0.684-0.4-0.75
	c-0.167,0-0.617,0.033-1.35,0.101c-0.6,0.033-1.483,0.066-2.65,0.1c-1.333,0-2.217-0.033-2.65-0.1c-0.367-0.067-0.85-0.134-1.45-0.2
	l-0.7-0.05c-0.367-0.101-0.517,0-0.45,0.3c0.1,0.166,0.2,0.316,0.3,0.45c0.1,0.333,0.15,0.666,0.15,1
	c-0.833-0.301-1.466-0.567-1.9-0.801c-0.167-0.033-0.283-0.116-0.35-0.25c-0.233-0.199-0.316-0.366-0.25-0.5
	c0.233-0.333,0.434-0.583,0.6-0.75C5.642,13.142,5.725,12.525,5.725,11.525z"></path>
<path fill-rule="evenodd" clip-rule="evenodd" fill="#FFFFFF" d="M16.575,15.476c0,0.333-0.017,0.767-0.05,1.3
	c0,0.9,0.033,1.45,0.1,1.65c0.2,0.366,0.284,0.666,0.25,0.899c-0.167,0.3-0.45,0.45-0.85,0.45c-0.633-0.134-1.133-0.217-1.5-0.25
	c-0.4-0.066-0.767-0.066-1.1,0c-1.533,0.2-2.717,0.2-3.55,0c-0.5-0.1-0.867-0.167-1.1-0.2c-0.434,0.033-0.733,0.05-0.9,0.05
	c-0.433,0.034-0.683,0.051-0.75,0.051c-0.3-0.034-0.4-0.284-0.3-0.75c0.2-0.601,0.333-1.101,0.4-1.5c0.1-0.467,0.15-0.967,0.15-1.5
	c0,0.533-0.05,1.033-0.15,1.5c-0.066,0.399-0.2,0.899-0.4,1.5c-0.1,0.466,0,0.716,0.3,0.75c0.067,0,0.317-0.017,0.75-0.051
	c0.167,0,0.467-0.017,0.9-0.05c0.233,0.033,0.6,0.101,1.1,0.2c0.833,0.2,2.017,0.2,3.55,0c0.333-0.066,0.7-0.066,1.1,0
	c0.367,0.033,0.867,0.116,1.5,0.25c0.4,0,0.683-0.15,0.85-0.45c0.034-0.233-0.05-0.533-0.25-0.899c-0.066-0.2-0.1-0.75-0.1-1.65
	C16.559,16.242,16.575,15.809,16.575,15.476z"></path>
<path fill-rule="evenodd" clip-rule="evenodd" fill="#FFFFFF" d="M19.375,11.226c0.1,0.6,0.117,1.017,0.05,1.25
	c-0.333,0.899-0.383,1.517-0.15,1.85c0.066,0.101,0.133,0.2,0.2,0.3c0.133,0.134,0.283,0.25,0.45,0.351h-0.05
	c0.034,0.033,0.067,0.05,0.1,0.05c-0.033,0-0.066-0.017-0.1-0.05h0.05c-0.167-0.101-0.317-0.217-0.45-0.351
	c-0.066-0.1-0.133-0.199-0.2-0.3c-0.233-0.333-0.184-0.95,0.15-1.85C19.492,12.242,19.475,11.825,19.375,11.226z"></path>
<path fill-rule="evenodd" clip-rule="evenodd" fill="#FFFFFF" d="M37.225,26.825c-0.3,0.033-0.583,0.084-0.85,0.15
	c-0.733,0.033-1.716-0.117-2.95-0.45c-0.767-0.233-2.067-0.333-3.9-0.3c-2.1,0.166-3.434,0.25-4,0.25c-1.3,0.033-3.45,0.033-6.45,0
	c-3.333,0-5.6-0.066-6.8-0.2c-1.233-0.066-2.967-0.033-5.2,0.1c-1.9,0.134-3.55,0.284-4.95,0.45c-0.433,0.033-0.767,0.05-1,0.05
	c0.233,0,0.567-0.017,1-0.05c1.4-0.166,3.05-0.316,4.95-0.45c2.233-0.133,3.967-0.166,5.2-0.1c1.2,0.134,3.466,0.2,6.8,0.2
	c3,0.033,5.15,0.033,6.45,0c0.566,0,1.9-0.084,4-0.25c1.833-0.033,3.133,0.066,3.9,0.3c1.233,0.333,2.217,0.483,2.95,0.45
	C36.642,26.909,36.925,26.858,37.225,26.825z"></path>
<path fill-rule="evenodd" clip-rule="evenodd" fill="#FFFFFF" d="M1.825,48.525c0.2,0.066,0.45,0.134,0.75,0.2h0.1
	c0.833,0.033,6.4,0.05,16.7,0.05c5.267,0,10.467,0,15.6,0l1.15-0.05c0.3-0.101,0.517-0.2,0.65-0.3c-0.133,0.1-0.35,0.199-0.65,0.3
	l-1.15,0.05c-5.133,0-10.333,0-15.6,0c-10.3,0-15.867-0.017-16.7-0.05h-0.1C2.275,48.659,2.025,48.592,1.825,48.525z"></path>
<path fill-rule="evenodd" clip-rule="evenodd" fill="#FFFFFF" d="M2.675,0.426v3.699V0.426z"></path>
<polygon fill-rule="evenodd" clip-rule="evenodd" fill="#FFFFFF" points="2.225,11.375 2.225,14.875 5.475,14.875 2.225,14.875 "></polygon>
<path fill-rule="evenodd" clip-rule="evenodd" fill="#FFFFFF" d="M0.725,15.025l0.15-0.05c0-0.066,0.3-0.101,0.9-0.101h0.45h-0.45
	c-0.6,0-0.9,0.034-0.9,0.101L0.725,15.025z"></path>
<path fill-rule="evenodd" clip-rule="evenodd" fill="#FFFFFF" d="M34.975,48.775v3.65V48.775z"></path>
<path fill-rule="evenodd" clip-rule="evenodd" fill="#FFFFFF" d="M2.675,52.426v-3.7V52.426z"></path>
<path fill-rule="evenodd" clip-rule="evenodd" fill="none" stroke="#383635" stroke-width="0.3" stroke-linecap="round" stroke-linejoin="round" stroke-miterlimit="3" d="
	M38.225,21.775c0,1.434-0.066,2.684-0.2,3.75c0,0.634-0.267,1.066-0.8,1.3c0,12.233,0.017,19.017,0.05,20.351
	c0,0.533-0.167,0.949-0.5,1.25h0.55v4.3h-2.35v-0.3h-32.3v0.3h-2.3v-4.2h1.45c-0.233-0.134-0.383-0.333-0.45-0.6l-0.25-21.051
	c-0.5,0-0.833-0.116-1-0.35c0-0.033,0-0.3,0-0.8c0-0.2,0.017-0.684,0.05-1.45c0.1-0.733,0.167-1.25,0.2-1.55
	c0.067-0.233,0.1-0.4,0.1-0.5c0.067-0.101,0.083-0.25,0.05-0.45c-0.034-0.033-0.05-0.066-0.05-0.1c-0.1-0.233-0.15-0.983-0.15-2.25
	c0.033-1.067,0.083-2.117,0.15-3.15c0.1-0.634,0.184-1.05,0.25-1.25l0.15-10.4c-0.1-0.133-0.1-0.233,0-0.3h-0.5v-4.05h2.3v0.15h32.3
	V0.125h2.35v4h-0.55c0.1,0.101,0.1,0.25,0,0.45v10.25c0.466,0.101,0.733,0.467,0.8,1.101c0.133,0.366,0.133,0.783,0,1.25
	c0.3,1.233,0.517,2.75,0.65,4.55" style="stroke: rgb(0, 0, 0);"></path>
<path fill-rule="evenodd" clip-rule="evenodd" fill="none" stroke="#383635" stroke-width="0.3" stroke-linecap="round" stroke-linejoin="round" stroke-miterlimit="3" d="
	M36.775,4.125l-1.8-0.149l-0.6-0.05c-0.633-0.101-1.617-0.101-2.95,0c-1.367,0.1-2.2,0.149-2.5,0.149
	c-0.167,0.033-0.75,0.017-1.75-0.05c-0.5-0.033-1.067-0.05-1.7-0.05c-2.933,0-4.883,0-5.85,0c-0.333,0.033-0.617,0.083-0.85,0.149
	c-0.067,0-0.133,0.017-0.2,0.051c0.067,0,0.133,0.017,0.2,0.05c0.566,0.166,0.95,0.583,1.15,1.25" style="stroke: rgb(0, 0, 0);"></path>
<path fill-rule="evenodd" clip-rule="evenodd" fill="none" stroke="#383635" stroke-width="0.3" stroke-linecap="round" stroke-linejoin="round" stroke-miterlimit="3" d="
	M36.775,4.575c-0.067,0.033-0.184,0.15-0.35,0.351c-0.367,0.399-0.6,0.733-0.7,1c-0.033,0.233,0.017,0.566,0.15,1
	c0.333,0.933,0.467,1.85,0.4,2.75c0,0.666,0,1.183,0,1.55c-0.267,0-0.534,0.033-0.8,0.1v3.65c0.267-0.066,0.567-0.117,0.9-0.15
	c0.167,0,0.3,0,0.4,0" style="stroke: rgb(0, 0, 0);"></path>
<line fill-rule="evenodd" clip-rule="evenodd" fill="none" stroke="#383635" stroke-width="0.3" stroke-linecap="round" stroke-linejoin="round" stroke-miterlimit="3" x1="34.975" y1="3.976" x2="34.975" y2="0.426" style="stroke: rgb(0, 0, 0);"></line>
<path fill-rule="evenodd" clip-rule="evenodd" fill="none" stroke="#383635" stroke-width="0.3" stroke-linecap="round" stroke-linejoin="round" stroke-miterlimit="3" d="
	M0.875,4.625c0.034,0.167,0.117,0.317,0.25,0.45c0.467,0.467,0.75,0.8,0.85,1s0.033,0.533-0.2,1c-0.4,1.033-0.534,1.967-0.4,2.8
	c0,0.667,0,1.167,0,1.5h0.85l0.5,0.101c1.1,0.033,2.1,0.05,3,0.05c0-0.1,0-0.217,0-0.35c0-1.167-0.083-2.284-0.25-3.351
	c-0.233-0.934-0.017-1.434,0.65-1.5c0.367-0.033,0.717,0,1.05,0.101l1.95,0.55c0.367,0.066,0.717,0.116,1.05,0.149
	c0.833-0.033,1.566-0.1,2.2-0.199c0.9-0.101,2.35-0.334,4.35-0.7c0.567-0.134,1-0.084,1.3,0.149c0.433,0.334,0.55,1.084,0.35,2.25
	c0,0.101,0,0.233,0,0.4c0,0.134-0.017,0.384-0.05,0.75c0.033,0.333,0.017,0.75-0.05,1.25c0,0.233-0.017,0.4-0.05,0.5h0.6
	c0.333-0.033,0.517-0.134,0.55-0.3c0-0.134,0-0.25,0-0.351c0-0.433-0.017-0.8-0.05-1.1c0-0.533-0.033-0.983-0.1-1.35
	c-0.033,0.033-0.05,0-0.05-0.101c-0.1-0.233-0.15-0.483-0.15-0.75c-0.034-0.3-0.034-0.55,0-0.75c0.033-0.233,0.25-0.416,0.65-0.55
	c0.066-0.033,0.133-0.05,0.2-0.05c0.333-0.134,0.633-0.167,0.9-0.101c0.933,0.067,2.433,0.284,4.5,0.65c0.566,0.066,1.2,0.1,1.9,0.1
	c0.367,0.034,0.75,0.017,1.15-0.05c0.833-0.166,1.55-0.333,2.15-0.5l1.05-0.1c0.667,0.066,0.917,0.517,0.75,1.35
	c-0.233,1.167-0.35,2.316-0.35,3.45c0,0.134,0,0.25,0,0.35c1.1,0,2.283-0.017,3.55-0.05" style="stroke: rgb(0, 0, 0);"></path>
<path fill-rule="evenodd" clip-rule="evenodd" fill="none" stroke="#383635" stroke-width="0.3" stroke-linecap="round" stroke-linejoin="round" stroke-miterlimit="3" d="
	M31.925,11.375c0,0.967,0.083,1.567,0.25,1.801c0.133,0.233,0.316,0.483,0.55,0.75c0.1,0.166,0.067,0.333-0.1,0.5
	c-0.233,0.166-0.566,0.35-1,0.55c0.167,0.033,0.767,0.05,1.8,0.05c0.733,0,1.417-0.017,2.05-0.05" style="stroke: rgb(0, 0, 0);"></path>
<path fill-rule="evenodd" clip-rule="evenodd" fill="none" stroke="#383635" stroke-width="0.3" stroke-linecap="round" stroke-linejoin="round" stroke-miterlimit="3" d="
	M18.225,11.525c-0.033,0.6-0.017,0.967,0.05,1.1v0.051c0.066,0.3,0.167,0.583,0.3,0.85c0.167,0.4,0.117,0.75-0.15,1.05
	c-0.167,0.134-0.317,0.25-0.45,0.351h0.05c-0.034,0.033-0.067,0.05-0.1,0.05l2.05,0.05c0.1,0.066,0.167,0.116,0.2,0.15
	c0.267,0.1,0.583,0.149,0.95,0.149c-0.066-0.434-0.1-0.684-0.1-0.75c0-0.399,0.167-0.616,0.5-0.649c0.066-0.101,0.5-0.084,1.3,0.05
	c0.633,0.1,1.533,0.149,2.7,0.149c1.267,0.034,2.1-0.017,2.5-0.149c0.7-0.2,1.45-0.3,2.25-0.3c0.333-0.034,0.483,0.116,0.45,0.449
	c-0.1,0.101-0.183,0.25-0.25,0.45c-0.133,0.3-0.2,0.566-0.2,0.8c0.533-0.133,0.983-0.267,1.35-0.399" style="stroke: rgb(0, 0, 0);"></path>
<path fill-rule="evenodd" clip-rule="evenodd" fill="none" stroke="#383635" stroke-width="0.3" stroke-linecap="round" stroke-linejoin="round" stroke-miterlimit="3" d="
	M30.275,15.375c0,0.634,0.066,1.184,0.2,1.65c0.033,0.366,0.133,0.85,0.3,1.45c0.066,0.467-0.017,0.733-0.25,0.8
	c-0.367-0.066-0.65-0.1-0.85-0.1c-0.267,0-0.5,0-0.7,0c-0.433,0-0.833,0.066-1.2,0.199c-0.8,0.2-2.017,0.2-3.65,0
	c-0.233-0.033-0.6-0.033-1.1,0c-0.534,0.101-1,0.15-1.4,0.15c-0.433,0.033-0.7-0.083-0.8-0.35c-0.067-0.233-0.017-0.534,0.15-0.9
	c0.133-0.2,0.184-0.767,0.15-1.7c0-0.434,0-0.85,0-1.25" style="stroke: rgb(0, 0, 0);"></path>
<path fill-rule="evenodd" clip-rule="evenodd" fill="none" stroke="#383635" stroke-width="0.3" stroke-linecap="round" stroke-linejoin="round" stroke-miterlimit="3" d="
	M18.575,4.176c-0.133-0.034-0.383-0.051-0.75-0.051c-0.967-0.066-2.917-0.066-5.85,0c-0.667,0-1.267,0-1.8,0
	c-0.867,0.067-1.333,0.101-1.4,0.101c-1.034-0.066-1.883-0.117-2.55-0.15c-1.333-0.066-2.3-0.066-2.9,0l-0.65,0.05l-1.5,0.15h-0.3
	v0.05" style="stroke: rgb(0, 0, 0);"></path>
<path fill-rule="evenodd" clip-rule="evenodd" fill="none" stroke="#383635" stroke-width="0.3" stroke-linecap="round" stroke-linejoin="round" stroke-miterlimit="3" d="
	M5.725,11.525c0,1-0.083,1.616-0.25,1.85c-0.167,0.167-0.367,0.417-0.6,0.75c-0.066,0.134,0.017,0.301,0.25,0.5
	c0.067,0.134,0.184,0.217,0.35,0.25c0.434,0.233,1.067,0.5,1.9,0.801c0-0.334-0.05-0.667-0.15-1c-0.1-0.134-0.2-0.284-0.3-0.45
	c-0.067-0.3,0.083-0.4,0.45-0.3l0.7,0.05c0.6,0.066,1.083,0.133,1.45,0.2c0.433,0.066,1.316,0.1,2.65,0.1
	c1.167-0.033,2.05-0.066,2.65-0.1c0.733-0.067,1.183-0.101,1.35-0.101c0.267,0.066,0.4,0.316,0.4,0.75v0.65
	c0.367,0,0.65-0.05,0.85-0.15c0.2-0.1,0.367-0.217,0.5-0.35" style="stroke: rgb(0, 0, 0);"></path>
<path fill-rule="evenodd" clip-rule="evenodd" fill="none" stroke="#383635" stroke-width="0.3" stroke-linecap="round" stroke-linejoin="round" stroke-miterlimit="3" d="
	M16.575,15.476c0,0.333-0.017,0.767-0.05,1.3c0,0.9,0.033,1.45,0.1,1.65c0.2,0.366,0.284,0.666,0.25,0.899
	c-0.167,0.3-0.45,0.45-0.85,0.45c-0.633-0.134-1.133-0.217-1.5-0.25c-0.4-0.066-0.767-0.066-1.1,0c-1.533,0.2-2.717,0.2-3.55,0
	c-0.5-0.1-0.867-0.167-1.1-0.2c-0.434,0.033-0.733,0.05-0.9,0.05c-0.433,0.034-0.683,0.051-0.75,0.051
	c-0.3-0.034-0.4-0.284-0.3-0.75c0.2-0.601,0.333-1.101,0.4-1.5c0.1-0.467,0.15-0.967,0.15-1.5" style="stroke: rgb(0, 0, 0);"></path>
<path fill-rule="evenodd" clip-rule="evenodd" fill="none" stroke="#383635" stroke-width="0.3" stroke-linecap="round" stroke-linejoin="round" stroke-miterlimit="3" d="
	M19.375,11.226c0.1,0.6,0.117,1.017,0.05,1.25c-0.333,0.899-0.383,1.517-0.15,1.85c0.066,0.101,0.133,0.2,0.2,0.3
	c0.133,0.134,0.283,0.25,0.45,0.351h-0.05c0.034,0.033,0.067,0.05,0.1,0.05" style="stroke: rgb(0, 0, 0);"></path>
<path fill-rule="evenodd" clip-rule="evenodd" fill="none" stroke="#383635" stroke-width="0.3" stroke-linecap="round" stroke-linejoin="round" stroke-miterlimit="3" d="
	M37.225,26.825c-0.3,0.033-0.583,0.084-0.85,0.15c-0.733,0.033-1.716-0.117-2.95-0.45c-0.767-0.233-2.067-0.333-3.9-0.3
	c-2.1,0.166-3.434,0.25-4,0.25c-1.3,0.033-3.45,0.033-6.45,0c-3.333,0-5.6-0.066-6.8-0.2c-1.233-0.066-2.967-0.033-5.2,0.1
	c-1.9,0.134-3.55,0.284-4.95,0.45c-0.433,0.033-0.767,0.05-1,0.05" style="stroke: rgb(0, 0, 0);"></path>
<path fill-rule="evenodd" clip-rule="evenodd" fill="none" stroke="#383635" stroke-width="0.3" stroke-linecap="round" stroke-linejoin="round" stroke-miterlimit="3" d="
	M1.825,48.525c0.2,0.066,0.45,0.134,0.75,0.2h0.1c0.833,0.033,6.4,0.05,16.7,0.05c5.267,0,10.467,0,15.6,0l1.15-0.05
	c0.3-0.101,0.517-0.2,0.65-0.3" style="stroke: rgb(0, 0, 0);"></path>
<line fill-rule="evenodd" clip-rule="evenodd" fill="none" stroke="#383635" stroke-width="0.3" stroke-linecap="round" stroke-linejoin="round" stroke-miterlimit="3" x1="2.675" y1="0.426" x2="2.675" y2="4.125" style="stroke: rgb(0, 0, 0);"></line>
<polyline fill-rule="evenodd" clip-rule="evenodd" fill="none" stroke="#383635" stroke-width="0.3" stroke-linecap="round" stroke-linejoin="round" stroke-miterlimit="3" points="
	2.225,11.375 2.225,14.875 5.475,14.875 " style="stroke: rgb(0, 0, 0);"></polyline>
<path fill-rule="evenodd" clip-rule="evenodd" fill="none" stroke="#383635" stroke-width="0.3" stroke-linecap="round" stroke-linejoin="round" stroke-miterlimit="3" d="
	M0.725,15.025l0.15-0.05c0-0.066,0.3-0.101,0.9-0.101h0.45" style="stroke: rgb(0, 0, 0);"></path>
<line fill-rule="evenodd" clip-rule="evenodd" fill="none" stroke="#383635" stroke-width="0.3" stroke-linecap="round" stroke-linejoin="round" stroke-miterlimit="3" x1="34.975" y1="48.775" x2="34.975" y2="52.426" style="stroke: rgb(0, 0, 0);"></line>
<line fill-rule="evenodd" clip-rule="evenodd" fill="none" stroke="#383635" stroke-width="0.3" stroke-linecap="round" stroke-linejoin="round" stroke-miterlimit="3" x1="2.675" y1="52.426" x2="2.675" y2="48.726" style="stroke: rgb(0, 0, 0);"></line>
</svg>