<svg version="1.1" id="Layer_1" xmlns="http://www.w3.org/2000/svg" xmlns:xlink="http://www.w3.org/1999/xlink" x="0px" y="0px" width="28.83px" height="28.83px" viewBox="0 2.15 28.83 28.83" enable-background="new 0 2.15 28.83 28.83" xml:space="preserve" class="ng-scope">
	<rect x="8.59" y="13.2" width="10.28" height="13.25" fill="#FFFFFF"></rect>
	<path fill="#000000" stroke="#000000" stroke-miterlimit="10" d="M13.74,22.31h1.01c0.45,0,0.83,0.15,1.13,0.45
		c0.34,0.34,0.49,0.71,0.49,1.16s-0.15,0.83-0.49,1.13c-0.3,0.34-0.67,0.49-1.13,0.49h-1.01c-0.45,0-0.83-0.15-1.16-0.49
		c-0.3-0.3-0.45-0.67-0.45-1.13c0-0.45,0.15-0.82,0.45-1.16C12.92,22.46,13.29,22.31,13.74,22.31 M16.48,14.7
		c0-0.26,0.11-0.53,0.3-0.71c0.19-0.19,0.41-0.3,0.67-0.3s0.49,0.11,0.67,0.3s0.3,0.45,0.3,0.71v4.54c0,0.26-0.11,0.53-0.3,0.71
		c-0.19,0.19-0.41,0.3-0.67,0.3s-0.49-0.11-0.67-0.3c-0.19-0.19-0.3-0.45-0.3-0.71V14.7z M10.85,13.69c0.26,0,0.49,0.11,0.68,0.3
		s0.26,0.45,0.26,0.71v4.54c0,0.26-0.07,0.53-0.26,0.71c-0.19,0.19-0.41,0.3-0.68,0.3h-0.04c-0.26,0-0.49-0.11-0.67-0.3
		c-0.19-0.19-0.3-0.45-0.3-0.71V14.7c0-0.26,0.11-0.53,0.3-0.71s0.41-0.3,0.67-0.3H10.85z M19.85,11.59
		c-0.04-0.04-0.04-0.04-0.08-0.04H8.57c-0.04,0-0.04,0-0.04,0.04C7.82,12,7.14,12.6,6.54,13.35c-1.35,1.76-2.02,3.86-2.02,6.34
		s0.67,4.58,2.02,6.3c0.71,0.86,1.5,1.54,2.36,1.99h10.61c0.86-0.45,1.61-1.13,2.32-1.99c1.39-1.72,2.06-3.82,2.06-6.3
		c0-2.47-0.67-4.57-2.06-6.34C21.28,12.6,20.6,12,19.85,11.59z"></path>
	<path fill="#FFFFFF" d="M13.74,22.31h1.01c0.45,0,0.83,0.15,1.13,0.45c0.34,0.34,0.49,0.71,0.49,1.16s-0.15,0.83-0.49,1.13
		c-0.3,0.34-0.67,0.49-1.13,0.49h-1.01c-0.45,0-0.83-0.15-1.16-0.49c-0.3-0.3-0.45-0.67-0.45-1.13c0-0.45,0.15-0.82,0.45-1.16
		C12.92,22.46,13.29,22.31,13.74,22.31 M16.48,14.7c0-0.26,0.11-0.53,0.3-0.71c0.19-0.19,0.41-0.3,0.67-0.3s0.49,0.11,0.67,0.3
		s0.3,0.45,0.3,0.71v4.54c0,0.26-0.11,0.53-0.3,0.71c-0.19,0.19-0.41,0.3-0.67,0.3s-0.49-0.11-0.67-0.3
		c-0.19-0.19-0.3-0.45-0.3-0.71V14.7z M10.85,13.69c0.26,0,0.49,0.11,0.68,0.3s0.26,0.45,0.26,0.71v4.54c0,0.26-0.07,0.53-0.26,0.71
		c-0.19,0.19-0.41,0.3-0.68,0.3h-0.04c-0.26,0-0.49-0.11-0.67-0.3c-0.19-0.19-0.3-0.45-0.3-0.71V14.7c0-0.26,0.11-0.53,0.3-0.71
		s0.41-0.3,0.67-0.3H10.85z M19.85,11.59c-0.04-0.04-0.04-0.04-0.08-0.04H8.57c-0.04,0-0.04,0-0.04,0.04
		C7.82,12,7.14,12.6,6.54,13.35c-1.35,1.76-2.02,3.86-2.02,6.34s0.67,4.58,2.02,6.3c0.71,0.86,1.5,1.54,2.36,1.99h10.61
		c0.86-0.45,1.61-1.13,2.32-1.99c1.39-1.72,2.06-3.82,2.06-6.3c0-2.47-0.67-4.57-2.06-6.34C21.28,12.6,20.6,12,19.85,11.59z"></path>
</svg>