<svg version="1.1" id="Layer_1" xmlns="http://www.w3.org/2000/svg" xmlns:xlink="http://www.w3.org/1999/xlink" x="0px" y="0px" width="28.83px" height="28.83px" viewBox="0 2.15 28.83 28.83" enable-background="new 0 2.15 28.83 28.83" xml:space="preserve">
	<circle cx="15.31" cy="18.01" r="8.56" fill="#FFFFFF"></circle>
	<path fill="#000000" stroke="#000000" stroke-miterlimit="10" d="M12.39,17.35h5.44l0.04,0.04l-2.74,3.6l-2.81-3.52L12.39,17.35
		 M7.33,19.04l2.55-1.2l3.67,4.76l-1.65,2.25L7.33,19.04z M13.55,10.9h2.21v2.63h1.13v2.14h-3.34C13.55,15.67,13.55,10.9,13.55,10.9
		z M20.34,17.95l2.47,1.16l-4.39,5.93l-1.72-2.21L20.34,17.95z M24.09,18.14c0-2.47-0.9-4.58-2.66-6.34
		c-1.31-1.31-2.81-2.14-4.5-2.48c-0.56-0.11-1.16-0.19-1.76-0.19c-0.04,0-0.04,0-0.07,0c-0.98,0-1.88,0.15-2.74,0.41l-0.98,0.38
		c-0.97,0.45-1.88,1.09-2.66,1.88c-1.76,1.76-2.63,3.86-2.63,6.34s0.86,4.61,2.63,6.38c1.76,1.76,3.9,2.63,6.38,2.63
		c2.47,0,4.57-0.86,6.34-2.63C23.19,22.75,24.09,20.61,24.09,18.14z"></path>
	<path fill="#FFFFFF" d="M12.39,17.35h5.44l0.04,0.04l-2.74,3.6l-2.81-3.52L12.39,17.35 M7.33,19.04l2.55-1.2l3.67,4.76l-1.65,2.25
		L7.33,19.04z M13.55,10.9h2.21v2.63h1.13v2.14h-3.34C13.55,15.67,13.55,10.9,13.55,10.9z M20.34,17.95l2.47,1.16l-4.39,5.93
		l-1.72-2.21L20.34,17.95z M24.09,18.14c0-2.47-0.9-4.58-2.66-6.34c-1.31-1.31-2.81-2.14-4.5-2.48c-0.56-0.11-1.16-0.19-1.76-0.19
		c-0.04,0-0.04,0-0.07,0c-0.98,0-1.88,0.15-2.74,0.41l-0.98,0.38c-0.97,0.45-1.88,1.09-2.66,1.88c-1.76,1.76-2.63,3.86-2.63,6.34
		s0.86,4.61,2.63,6.38c1.76,1.76,3.9,2.63,6.38,2.63c2.47,0,4.57-0.86,6.34-2.63C23.19,22.75,24.09,20.61,24.09,18.14z"></path>
</svg>