<svg version="1.1" id="Layer_1" xmlns="http://www.w3.org/2000/svg" xmlns:xlink="http://www.w3.org/1999/xlink" x="0px" y="0px" width="23.45px" height="22.55px" viewBox="0 0 23.45 22.55" enable-background="new 0 0 23.45 22.55" xml:space="preserve" class="ng-scope">
<path fill-rule="evenodd" clip-rule="evenodd" fill="#FFFFFF" d="M2.175,2.475c0.067-1.466,0.683-2.25,1.85-2.35h15.45
	c1.133,0.1,1.733,0.884,1.8,2.35c0.667-0.066,1.133,0.134,1.4,0.601c0.167,0.166,0.25,0.366,0.25,0.6l0.4,13.05l-0.1,0.851
	c-0.033,0.1-0.1,0.216-0.2,0.35c-0.434,0.5-0.967,0.7-1.6,0.6c-0.6,0-1.267-0.066-2-0.199c-0.333-0.4-0.5-0.817-0.5-1.25
	c-0.1-3.467-0.2-6.934-0.3-10.4c-1.133,0.4-3.434,0.667-6.9,0.8c-3.466-0.133-5.75-0.399-6.85-0.8c1.1,0.4,3.383,0.667,6.85,0.8
	c3.467-0.133,5.767-0.399,6.9-0.8c0.1,3.467,0.2,6.934,0.3,10.4c0,0.433,0.167,0.85,0.5,1.25c0.733,0.133,1.4,0.199,2,0.199
	c0.633,0.101,1.167-0.1,1.6-0.6v1.45c0.066,0.333,0,0.8-0.2,1.399c-0.2,0.534-0.533,0.884-1,1.051c-0.467,0.166-1.933,0.3-4.4,0.399
	c-1.867,0.066-3.767,0.134-5.7,0.2c-1.933-0.066-3.833-0.134-5.7-0.2c-2.467-0.1-3.934-0.233-4.4-0.399
	c-0.467-0.167-0.784-0.517-0.95-1.051c-0.2-0.6-0.267-1.066-0.2-1.399v-1.45c0.067,0.066,0.167,0.116,0.3,0.15
	c1.066,0.533,2.167,0.616,3.3,0.25c0.067-0.067,0.133-0.117,0.2-0.15l0.6-11.5c-0.034-1.1-0.05-1.767-0.05-2
	c-0.066-0.533-0.083-0.916-0.05-1.15c-0.167-0.533-0.417-0.833-0.75-0.899C3.358,2.625,2.742,2.575,2.175,2.475
	c0.567,0.101,1.183,0.15,1.85,0.15c0.333,0.066,0.583,0.366,0.75,0.899c-0.033,0.234-0.017,0.617,0.05,1.15
	c0,0.233,0.017,0.9,0.05,2l-0.6,11.5c-0.067,0.033-0.133,0.083-0.2,0.15c-1.133,0.366-2.233,0.283-3.3-0.25
	c-0.133-0.034-0.233-0.084-0.3-0.15c-0.1-0.134-0.183-0.25-0.25-0.35l-0.1-0.851l0.45-13.05c0-0.233,0.067-0.434,0.2-0.6
	C1.075,2.608,1.542,2.408,2.175,2.475z"></path>
<path fill-rule="evenodd" clip-rule="evenodd" fill="#FFFFFF" d="M4.875,6.675c0-1.033,0-1.65,0-1.85l-0.05-0.15l0.05,0.15
	C4.875,5.024,4.875,5.642,4.875,6.675z"></path>
<path fill-rule="evenodd" clip-rule="evenodd" fill="#FFFFFF" d="M4.875,4.825c0-0.867,0.05-1.734,0.15-2.601
	c0.033-0.167,0.1-0.316,0.2-0.45c4.333-0.5,8.667-0.5,13,0l0.4,0.45v2.601l0.05-0.15c0.067-0.533,0.083-0.916,0.05-1.15
	c0.133-0.533,0.383-0.833,0.75-0.899c0.633,0,1.233-0.05,1.8-0.15c-0.567,0.101-1.167,0.15-1.8,0.15
	c-0.367,0.066-0.617,0.366-0.75,0.899c0.034,0.234,0.017,0.617-0.05,1.15l-0.05,0.15V2.225l-0.4-0.45c-4.333-0.5-8.667-0.5-13,0
	c-0.1,0.134-0.167,0.283-0.2,0.45C4.925,3.091,4.875,3.958,4.875,4.825z"></path>
<path fill-rule="evenodd" clip-rule="evenodd" fill="#FFFFFF" d="M18.625,4.825c0,0.199,0,0.816,0,1.85c0.033-1.1,0.05-1.767,0.05-2
	c0,0.233-0.017,0.9-0.05,2C18.625,5.642,18.625,5.024,18.625,4.825z"></path>
<path fill-rule="evenodd" clip-rule="evenodd" fill="none" stroke="#383635" stroke-width="0.3" d="M2.175,2.475
	c-0.633-0.066-1.1,0.134-1.4,0.601c-0.133,0.166-0.2,0.366-0.2,0.6l-0.45,13.05l0.1,0.851c0.067,0.1,0.15,0.216,0.25,0.35
	c0.067,0.066,0.167,0.116,0.3,0.15c1.066,0.533,2.167,0.616,3.3,0.25c0.067-0.067,0.133-0.117,0.2-0.15l0.6-11.5
	c-0.034-1.1-0.05-1.767-0.05-2c-0.066-0.533-0.083-0.916-0.05-1.15c-0.167-0.533-0.417-0.833-0.75-0.899
	C3.358,2.625,2.742,2.575,2.175,2.475z" style="stroke: rgb(0, 0, 0);"></path>
<path fill-rule="evenodd" clip-rule="evenodd" fill="none" stroke="#383635" stroke-width="0.3" d="M4.875,6.675
	c0-1.033,0-1.65,0-1.85l-0.05-0.15" style="stroke: rgb(0, 0, 0);"></path>
<path fill-rule="evenodd" clip-rule="evenodd" fill="none" stroke="#383635" stroke-width="0.3" d="M4.875,4.825
	c0-0.867,0.05-1.734,0.15-2.601c0.033-0.167,0.1-0.316,0.2-0.45c4.333-0.5,8.667-0.5,13,0l0.4,0.45v2.601l0.05-0.15
	c0.067-0.533,0.083-0.916,0.05-1.15c0.133-0.533,0.383-0.833,0.75-0.899c0.633,0,1.233-0.05,1.8-0.15
	c-0.067-1.466-0.667-2.25-1.8-2.35H4.025c-1.167,0.1-1.783,0.884-1.85,2.35" style="stroke: rgb(0, 0, 0);"></path>
<path fill-rule="evenodd" clip-rule="evenodd" fill="none" stroke="#383635" stroke-width="0.3" d="M0.475,17.925v1.45
	c-0.066,0.333,0,0.8,0.2,1.399c0.167,0.534,0.483,0.884,0.95,1.051c0.466,0.166,1.933,0.3,4.4,0.399
	c1.867,0.066,3.767,0.134,5.7,0.2c1.934-0.066,3.833-0.134,5.7-0.2c2.467-0.1,3.933-0.233,4.4-0.399c0.467-0.167,0.8-0.517,1-1.051
	c0.2-0.6,0.267-1.066,0.2-1.399v-1.45c-0.434,0.5-0.967,0.7-1.6,0.6c-0.6,0-1.267-0.066-2-0.199c-0.333-0.4-0.5-0.817-0.5-1.25
	c-0.1-3.467-0.2-6.934-0.3-10.4c-1.133,0.4-3.434,0.667-6.9,0.8c-3.466-0.133-5.75-0.399-6.85-0.8" style="stroke: rgb(0, 0, 0);"></path>
<path fill-rule="evenodd" clip-rule="evenodd" fill="none" stroke="#383635" stroke-width="0.3" d="M21.275,2.475
	c0.667-0.066,1.133,0.134,1.4,0.601c0.167,0.166,0.25,0.366,0.25,0.6l0.4,13.05l-0.1,0.851c-0.033,0.1-0.1,0.216-0.2,0.35" style="stroke: rgb(0, 0, 0);"></path>
<path fill-rule="evenodd" clip-rule="evenodd" fill="none" stroke="#383635" stroke-width="0.3" d="M18.625,4.825
	c0,0.199,0,0.816,0,1.85c0.033-1.1,0.05-1.767,0.05-2" style="stroke: rgb(0, 0, 0);"></path>
</svg>