<svg version="1.1" id="Layer_1" xmlns="http://www.w3.org/2000/svg" xmlns:xlink="http://www.w3.org/1999/xlink" x="0px" y="0px" width="14.9px" height="29.423px" viewBox="0 0 14.9 29.423" enable-background="new 0 0 14.9 29.423" xml:space="preserve" class="ng-scope">
<path fill-rule="evenodd" clip-rule="evenodd" fill="#FFFFFF" d="M0.775,9.019V6.468c0.699-0.199,1.416-0.366,2.149-0.5
	c-0.1-1.833-0.233-3.649-0.399-5.45c0.533-0.066,1.05-0.183,1.55-0.35c0.166,1.833,0.3,3.684,0.399,5.55
	c1.934-0.266,3.9-0.266,5.9,0c0.066-1.866,0.184-3.716,0.35-5.55c0.5,0.167,1.017,0.284,1.551,0.35
	c-0.167,1.8-0.284,3.617-0.351,5.45c0.733,0.134,1.467,0.301,2.2,0.5v2.551h0.65v2.05h-0.65v10.899v1.801v0.55
	c-0.733-0.2-1.467-0.366-2.2-0.5c0.066,1.8,0.184,3.616,0.351,5.45c-0.5-0.101-1.017-0.2-1.551-0.301
	c-0.133-1.8-0.25-3.583-0.35-5.35c-1.934-0.233-3.9-0.217-5.9,0.05c-0.133,1.767-0.267,3.534-0.399,5.3
	c-0.533,0.101-1.05,0.2-1.55,0.301c0.166-1.801,0.3-3.601,0.399-5.4c-0.733,0.133-1.45,0.283-2.149,0.45v-2.25v-11h-0.65v-2.05
	H0.775v2.05V9.019z"></path>
<path fill-rule="evenodd" clip-rule="evenodd" fill="#FFFFFF" d="M11.925,5.968c-0.533-0.133-1.05-0.217-1.55-0.25
	C10.875,5.751,11.392,5.835,11.925,5.968z"></path>
<path fill-rule="evenodd" clip-rule="evenodd" fill="#FFFFFF" d="M12.575,7.519c-0.233-0.066-0.483-0.117-0.75-0.15
	c0,0.233,0,0.467,0,0.7c0.233,0.033,0.483,0.083,0.75,0.149V7.519z"></path>
<path fill-rule="evenodd" clip-rule="evenodd" fill="#FFFFFF" d="M12.575,9.519V8.218V9.519c-0.267-0.066-0.533-0.117-0.8-0.15
	c-0.034,0.267-0.051,0.566-0.051,0.9c-0.5-0.134-1.017-0.217-1.55-0.25c0.533,0.033,1.05,0.116,1.55,0.25
	c0.301,0.033,0.584,0.083,0.851,0.149V9.519z"></path>
<path fill-rule="evenodd" clip-rule="evenodd" fill="#FFFFFF" d="M10.225,9.119c0.5,0.033,1.017,0.117,1.551,0.25
	C11.241,9.236,10.725,9.152,10.225,9.119c-1.899-0.267-3.767-0.267-5.6,0c-0.533,0.033-1.05,0.117-1.55,0.25
	c0.5-0.133,1.017-0.217,1.55-0.25c0,0.267,0,0.566,0,0.9c1.866-0.234,3.717-0.234,5.55,0C10.175,9.685,10.191,9.385,10.225,9.119z"></path>
<path fill-rule="evenodd" clip-rule="evenodd" fill="#FFFFFF" d="M11.825,8.069c-0.533-0.101-1.05-0.167-1.55-0.2
	C10.775,7.902,11.292,7.968,11.825,8.069z"></path>
<path fill-rule="evenodd" clip-rule="evenodd" fill="#FFFFFF" d="M10.275,7.869c0-0.267,0-0.533,0-0.8
	c-1.9-0.267-3.817-0.267-5.75,0c0,0.267,0.017,0.533,0.05,0.8c-0.533,0.033-1.05,0.1-1.55,0.2c0.5-0.101,1.017-0.167,1.55-0.2
	C6.475,7.635,8.375,7.635,10.275,7.869z"></path>
<path fill-rule="evenodd" clip-rule="evenodd" fill="#FFFFFF" d="M2.275,8.218v1.301V8.218c0.233-0.066,0.483-0.116,0.75-0.149
	c-0.034-0.233-0.051-0.467-0.051-0.7c0.5-0.133,1.017-0.233,1.551-0.3c-0.534,0.066-1.051,0.167-1.551,0.3
	c-0.233,0.033-0.466,0.084-0.699,0.15V8.218z"></path>
<path fill-rule="evenodd" clip-rule="evenodd" fill="#FFFFFF" d="M3.075,9.369c-0.267,0.033-0.533,0.084-0.8,0.15v0.899v0.65v0.7
	c0.267-0.101,0.55-0.184,0.85-0.25c0.5-0.134,1.017-0.25,1.55-0.351c1.834-0.3,3.667-0.3,5.5,0c0.5,0.101,1.017,0.217,1.55,0.351
	c0.267,0.066,0.551,0.149,0.851,0.25v-0.7v-0.65v0.65v0.7c-0.3-0.101-0.584-0.184-0.851-0.25c-0.533-0.134-1.05-0.25-1.55-0.351
	c-1.833-0.3-3.666-0.3-5.5,0c-0.533,0.101-1.05,0.217-1.55,0.351c-0.3,0.066-0.583,0.149-0.85,0.25v-0.7v-0.65
	c0.267-0.066,0.533-0.116,0.8-0.149C3.075,9.968,3.075,9.668,3.075,9.369z"></path>
<path fill-rule="evenodd" clip-rule="evenodd" fill="#FFFFFF" d="M10.275,7.069c0.533,0.066,1.05,0.167,1.55,0.3
	C11.325,7.236,10.809,7.135,10.275,7.069z"></path>
<path fill-rule="evenodd" clip-rule="evenodd" fill="#FFFFFF" d="M12.575,11.069c0.533-0.3,1.05-0.3,1.55,0v-2.05v2.05
	C13.625,10.769,13.108,10.769,12.575,11.069z"></path>
<path fill-rule="evenodd" clip-rule="evenodd" fill="#FFFFFF" d="M12.575,11.769v9.85c0.434,0.5,0.95,0.617,1.55,0.35
	c-0.6,0.268-1.116,0.15-1.55-0.35V11.769z"></path>
<path fill-rule="evenodd" clip-rule="evenodd" fill="#FFFFFF" d="M11.925,23.819c-0.533-0.101-1.05-0.167-1.55-0.2
	C10.875,23.652,11.392,23.718,11.925,23.819z"></path>
<path fill-rule="evenodd" clip-rule="evenodd" fill="#FFFFFF" d="M4.475,5.718c-0.533,0.033-1.05,0.117-1.55,0.25
	C3.425,5.835,3.941,5.751,4.475,5.718z"></path>
<path fill-rule="evenodd" clip-rule="evenodd" fill="#FFFFFF" d="M2.275,11.069c-0.5-0.267-1-0.267-1.5,0
	C1.275,10.802,1.775,10.802,2.275,11.069z"></path>
<path fill-rule="evenodd" clip-rule="evenodd" fill="#FFFFFF" d="M4.625,10.019c-0.533,0.066-1.05,0.149-1.55,0.25
	C3.575,10.168,4.092,10.085,4.625,10.019z"></path>
<path fill-rule="evenodd" clip-rule="evenodd" fill="#FFFFFF" d="M0.775,22.069c0.566,0.3,1.066,0.167,1.5-0.4v-9.899v9.899
	C1.842,22.236,1.342,22.369,0.775,22.069z"></path>
<path fill-rule="evenodd" clip-rule="evenodd" fill="#FFFFFF" d="M4.475,23.668c-0.533,0.034-1.05,0.101-1.55,0.2
	C3.425,23.769,3.941,23.703,4.475,23.668z"></path>
<path fill-rule="evenodd" clip-rule="evenodd" fill="none" stroke="#383635" stroke-width="0.3" d="M0.775,9.019V6.468
	c0.699-0.199,1.416-0.366,2.149-0.5c-0.1-1.833-0.233-3.649-0.399-5.45c0.533-0.066,1.05-0.183,1.55-0.35
	c0.166,1.833,0.3,3.684,0.399,5.55c1.934-0.266,3.9-0.266,5.9,0c0.066-1.866,0.184-3.716,0.35-5.55
	c0.5,0.167,1.017,0.284,1.551,0.35c-0.167,1.8-0.284,3.617-0.351,5.45c0.733,0.134,1.467,0.301,2.2,0.5v2.551" style="stroke: rgb(0, 0, 0);"></path>
<polyline fill-rule="evenodd" clip-rule="evenodd" fill="none" stroke="#383635" stroke-width="0.3" points="14.125,11.069 
	14.125,21.968 14.125,23.769 " style="stroke: rgb(0, 0, 0);"></polyline>
<path fill-rule="evenodd" clip-rule="evenodd" fill="none" stroke="#383635" stroke-width="0.3" d="M14.125,24.319
	c-0.733-0.2-1.467-0.366-2.2-0.5c0.066,1.8,0.184,3.616,0.351,5.45c-0.5-0.101-1.017-0.2-1.551-0.301
	c-0.133-1.8-0.25-3.583-0.35-5.35c-1.934-0.233-3.9-0.217-5.9,0.05c-0.133,1.767-0.267,3.534-0.399,5.3
	c-0.533,0.101-1.05,0.2-1.55,0.301c0.166-1.801,0.3-3.601,0.399-5.4c-0.733,0.133-1.45,0.283-2.149,0.45v-2.25v-11v-2.05" style="stroke: rgb(0, 0, 0);"></path>
<path fill-rule="evenodd" clip-rule="evenodd" fill="none" stroke="#383635" stroke-width="0.3" d="M11.925,5.968
	c-0.533-0.133-1.05-0.217-1.55-0.25" style="stroke: rgb(0, 0, 0);"></path>
<path fill-rule="evenodd" clip-rule="evenodd" fill="none" stroke="#383635" stroke-width="0.3" d="M12.575,7.519
	c-0.233-0.066-0.483-0.117-0.75-0.15c0,0.233,0,0.467,0,0.7c0.233,0.033,0.483,0.083,0.75,0.149V7.519z" style="stroke: rgb(0, 0, 0);"></path>
<line fill-rule="evenodd" clip-rule="evenodd" fill="none" stroke="#383635" stroke-width="0.3" x1="12.575" y1="9.519" x2="12.575" y2="8.218" style="stroke: rgb(0, 0, 0);"></line>
<path fill-rule="evenodd" clip-rule="evenodd" fill="none" stroke="#383635" stroke-width="0.3" d="M10.225,9.119
	c0.5,0.033,1.017,0.117,1.551,0.25c0.267,0.033,0.533,0.084,0.8,0.15" style="stroke: rgb(0, 0, 0);"></path>
<path fill-rule="evenodd" clip-rule="evenodd" fill="none" stroke="#383635" stroke-width="0.3" d="M11.825,8.069
	c-0.533-0.101-1.05-0.167-1.55-0.2c-1.9-0.233-3.801-0.233-5.7,0c-0.533,0.033-1.05,0.1-1.55,0.2
	c-0.267,0.033-0.517,0.083-0.75,0.149v1.301c0.267-0.066,0.533-0.117,0.8-0.15c0.5-0.133,1.017-0.217,1.55-0.25
	c1.833-0.267,3.7-0.267,5.6,0" style="stroke: rgb(0, 0, 0);"></path>
<path fill-rule="evenodd" clip-rule="evenodd" fill="none" stroke="#383635" stroke-width="0.3" d="M10.275,7.069
	c0.533,0.066,1.05,0.167,1.55,0.3" style="stroke: rgb(0, 0, 0);"></path>
<path fill-rule="evenodd" clip-rule="evenodd" fill="none" stroke="#383635" stroke-width="0.3" d="M4.625,9.119
	c0,0.267,0,0.566,0,0.9c1.866-0.234,3.717-0.234,5.55,0c0-0.334,0.017-0.634,0.05-0.9" style="stroke: rgb(0, 0, 0);"></path>
<path fill-rule="evenodd" clip-rule="evenodd" fill="none" stroke="#383635" stroke-width="0.3" d="M10.275,7.869
	c0-0.267,0-0.533,0-0.8c-1.9-0.267-3.817-0.267-5.75,0c0,0.267,0.017,0.533,0.05,0.8" style="stroke: rgb(0, 0, 0);"></path>
<path fill-rule="evenodd" clip-rule="evenodd" fill="none" stroke="#383635" stroke-width="0.3" d="M2.275,10.418v0.65v0.7
	c0.267-0.101,0.55-0.184,0.85-0.25c0.5-0.134,1.017-0.25,1.55-0.351c1.834-0.3,3.667-0.3,5.5,0c0.5,0.101,1.017,0.217,1.55,0.351
	c0.267,0.066,0.551,0.149,0.851,0.25v-0.7v-0.65c-0.267-0.066-0.55-0.116-0.851-0.149c-0.5-0.134-1.017-0.217-1.55-0.25" style="stroke: rgb(0, 0, 0);"></path>
<path fill-rule="evenodd" clip-rule="evenodd" fill="none" stroke="#383635" stroke-width="0.3" d="M12.575,11.069
	c0.533-0.3,1.05-0.3,1.55,0v-2.05" style="stroke: rgb(0, 0, 0);"></path>
<line fill-rule="evenodd" clip-rule="evenodd" fill="none" stroke="#383635" stroke-width="0.3" x1="12.575" y1="10.418" x2="12.575" y2="9.519" style="stroke: rgb(0, 0, 0);"></line>
<path fill-rule="evenodd" clip-rule="evenodd" fill="none" stroke="#383635" stroke-width="0.3" d="M11.775,9.369
	c-0.034,0.267-0.051,0.566-0.051,0.9" style="stroke: rgb(0, 0, 0);"></path>
<path fill-rule="evenodd" clip-rule="evenodd" fill="none" stroke="#383635" stroke-width="0.3" d="M12.575,11.769v9.85
	c0.434,0.5,0.95,0.617,1.55,0.35" style="stroke: rgb(0, 0, 0);"></path>
<path fill-rule="evenodd" clip-rule="evenodd" fill="none" stroke="#383635" stroke-width="0.3" d="M11.925,23.819
	c-0.533-0.101-1.05-0.167-1.55-0.2" style="stroke: rgb(0, 0, 0);"></path>
<path fill-rule="evenodd" clip-rule="evenodd" fill="none" stroke="#383635" stroke-width="0.3" d="M4.475,5.718
	c-0.533,0.033-1.05,0.117-1.55,0.25" style="stroke: rgb(0, 0, 0);"></path>
<path fill-rule="evenodd" clip-rule="evenodd" fill="none" stroke="#383635" stroke-width="0.3" d="M2.975,7.369
	c0,0.233,0.017,0.467,0.051,0.7" style="stroke: rgb(0, 0, 0);"></path>
<path fill-rule="evenodd" clip-rule="evenodd" fill="none" stroke="#383635" stroke-width="0.3" d="M2.275,8.218V7.519
	c0.233-0.066,0.466-0.117,0.699-0.15c0.5-0.133,1.017-0.233,1.551-0.3" style="stroke: rgb(0, 0, 0);"></path>
<path fill-rule="evenodd" clip-rule="evenodd" fill="none" stroke="#383635" stroke-width="0.3" d="M3.075,10.269
	c-0.267,0.033-0.533,0.083-0.8,0.149" style="stroke: rgb(0, 0, 0);"></path>
<path fill-rule="evenodd" clip-rule="evenodd" fill="none" stroke="#383635" stroke-width="0.3" d="M3.075,10.269
	c0-0.301,0-0.601,0-0.9" style="stroke: rgb(0, 0, 0);"></path>
<line fill-rule="evenodd" clip-rule="evenodd" fill="none" stroke="#383635" stroke-width="0.3" x1="2.275" y1="9.519" x2="2.275" y2="10.418" style="stroke: rgb(0, 0, 0);"></line>
<path fill-rule="evenodd" clip-rule="evenodd" fill="none" stroke="#383635" stroke-width="0.3" d="M2.275,11.069
	c-0.5-0.267-1-0.267-1.5,0" style="stroke: rgb(0, 0, 0);"></path>
<path fill-rule="evenodd" clip-rule="evenodd" fill="none" stroke="#383635" stroke-width="0.3" d="M4.625,10.019
	c-0.533,0.066-1.05,0.149-1.55,0.25" style="stroke: rgb(0, 0, 0);"></path>
<path fill-rule="evenodd" clip-rule="evenodd" fill="none" stroke="#383635" stroke-width="0.3" d="M0.775,22.069
	c0.566,0.3,1.066,0.167,1.5-0.4v-9.899" style="stroke: rgb(0, 0, 0);"></path>
<path fill-rule="evenodd" clip-rule="evenodd" fill="none" stroke="#383635" stroke-width="0.3" d="M4.475,23.668
	c-0.533,0.034-1.05,0.101-1.55,0.2" style="stroke: rgb(0, 0, 0);"></path>
<polyline fill-rule="evenodd" clip-rule="evenodd" fill="none" stroke="#383635" stroke-width="0.3" stroke-linecap="round" stroke-linejoin="round" stroke-miterlimit="3" points="
	14.125,9.019 14.775,9.019 14.775,11.069 14.125,11.069 " style="stroke: rgb(0, 0, 0);"></polyline>
<line fill-rule="evenodd" clip-rule="evenodd" fill="none" stroke="#383635" stroke-width="0.3" stroke-linecap="round" stroke-linejoin="round" stroke-miterlimit="3" x1="14.125" y1="23.769" x2="14.125" y2="24.319" style="stroke: rgb(0, 0, 0);"></line>
<polyline fill-rule="evenodd" clip-rule="evenodd" fill="none" stroke="#383635" stroke-width="0.3" stroke-linecap="round" stroke-linejoin="round" stroke-miterlimit="3" points="
	0.775,11.069 0.125,11.069 0.125,9.019 0.775,9.019 " style="stroke: rgb(0, 0, 0);"></polyline>
</svg>