<svg version="1.1" id="Layer_1" xmlns="http://www.w3.org/2000/svg" xmlns:xlink="http://www.w3.org/1999/xlink" x="0px" y="0px" width="41.35px" height="21.1px" viewBox="0 0 41.35 21.1" enable-background="new 0 0 41.35 21.1" xml:space="preserve" class="ng-scope">
<polygon fill-rule="evenodd" clip-rule="evenodd" fill="#FFFFFF" points="2.774,5.475 4.524,5.475 11.325,5.475 13.925,5.475 
	15.125,5.475 17.024,5.475 18.225,5.475 20.125,5.475 21.325,5.475 23.225,5.475 24.425,5.475 26.325,5.475 27.524,5.475 
	30.024,5.475 36.825,5.475 38.475,5.475 40.475,5.475 40.475,0.975 0.774,0.975 0.774,5.475 2.774,5.475 0.774,5.475 0.774,0.975 
	40.475,0.975 40.475,5.475 38.475,5.475 36.825,5.475 30.024,5.475 27.524,5.475 26.325,5.475 24.425,5.475 23.225,5.475 
	21.325,5.475 20.125,5.475 18.225,5.475 17.024,5.475 15.125,5.475 13.925,5.475 11.325,5.475 4.524,5.475 2.774,5.475 
	2.774,18.825 0.774,18.825 0.774,5.475 0.774,18.825 2.774,18.825 "></polygon>
<polygon fill-rule="evenodd" clip-rule="evenodd" fill="#FFFFFF" points="4.524,5.475 4.524,6.275 6.925,6.275 8.524,6.275 
	11.325,6.275 11.325,5.475 11.325,6.275 8.524,6.275 6.925,6.275 4.524,6.275 "></polygon>
<path fill-rule="evenodd" clip-rule="evenodd" fill="#FFFFFF" d="M6.925,6.275c0,0.2,0.066,0.367,0.2,0.5
	c0.166,0.167,0.366,0.25,0.6,0.25s0.417-0.083,0.55-0.25c0.167-0.133,0.25-0.3,0.25-0.5c0,0.2-0.083,0.367-0.25,0.5
	c-0.133,0.167-0.316,0.25-0.55,0.25s-0.434-0.083-0.6-0.25C6.991,6.642,6.925,6.475,6.925,6.275z"></path>
<polygon fill-rule="evenodd" clip-rule="evenodd" fill="#FFFFFF" points="20.125,5.475 20.125,6.275 21.325,6.275 21.325,5.475 
	21.325,6.275 20.125,6.275 "></polygon>
<polygon fill-rule="evenodd" clip-rule="evenodd" fill="#FFFFFF" points="23.225,5.475 23.225,6.275 24.425,6.275 24.425,5.475 
	24.425,6.275 23.225,6.275 "></polygon>
<polygon fill-rule="evenodd" clip-rule="evenodd" fill="#FFFFFF" points="17.024,5.475 17.024,6.275 18.225,6.275 18.225,5.475 
	18.225,6.275 17.024,6.275 "></polygon>
<polygon fill-rule="evenodd" clip-rule="evenodd" fill="#FFFFFF" points="13.925,5.475 13.925,6.275 15.125,6.275 15.125,5.475 
	15.125,6.275 13.925,6.275 "></polygon>
<polygon fill-rule="evenodd" clip-rule="evenodd" fill="#FFFFFF" points="30.024,5.475 30.024,6.275 32.425,6.275 34.024,6.275 
	36.825,6.275 36.825,5.475 36.825,6.275 34.024,6.275 32.425,6.275 30.024,6.275 "></polygon>
<path fill-rule="evenodd" clip-rule="evenodd" fill="#FFFFFF" d="M32.425,6.275c0,0.2,0.066,0.367,0.2,0.5
	c0.166,0.167,0.366,0.25,0.6,0.25s0.417-0.083,0.55-0.25c0.167-0.133,0.25-0.3,0.25-0.5c0,0.2-0.083,0.367-0.25,0.5
	c-0.133,0.167-0.316,0.25-0.55,0.25s-0.434-0.083-0.6-0.25C32.491,6.642,32.425,6.475,32.425,6.275z"></path>
<polygon fill-rule="evenodd" clip-rule="evenodd" fill="#FFFFFF" points="26.325,5.475 26.325,6.275 27.524,6.275 27.524,5.475 
	27.524,6.275 26.325,6.275 "></polygon>
<polygon fill-rule="evenodd" clip-rule="evenodd" fill="#FFFFFF" points="41.225,0.125 41.225,19.675 29.225,19.675 29.225,20.375 
	23.425,20.375 23.425,20.975 17.925,20.975 17.925,20.375 12.175,20.375 12.175,19.675 0.125,19.675 0.125,0.125 "></polygon>
<polygon fill-rule="evenodd" clip-rule="evenodd" fill="#FFFFFF" points="38.475,5.475 38.475,18.825 40.475,18.825 40.475,5.475 
	40.475,18.825 38.475,18.825 "></polygon>
<path fill-rule="evenodd" clip-rule="evenodd" fill="#FFFFFF" d="M23.425,20.375h-5.5H23.425z"></path>
<path fill-rule="evenodd" clip-rule="evenodd" fill="#FFFFFF" d="M29.225,19.675h-17.05H29.225z"></path>
<polyline fill-rule="evenodd" clip-rule="evenodd" fill="none" stroke="#383635" stroke-width="0.3" stroke-linecap="round" stroke-linejoin="round" stroke-miterlimit="3" points="
	2.774,5.475 4.524,5.475 11.325,5.475 13.925,5.475 15.125,5.475 17.024,5.475 18.225,5.475 20.125,5.475 21.325,5.475 
	23.225,5.475 24.425,5.475 26.325,5.475 27.524,5.475 30.024,5.475 36.825,5.475 38.475,5.475 40.475,5.475 40.475,0.975 
	0.774,0.975 0.774,5.475 2.774,5.475 2.774,18.825 0.774,18.825 0.774,5.475 " style="stroke: rgb(0, 0, 0);"></polyline>
<polyline fill-rule="evenodd" clip-rule="evenodd" fill="none" stroke="#383635" stroke-width="0.3" stroke-linecap="round" stroke-linejoin="round" stroke-miterlimit="3" points="
	4.524,5.475 4.524,6.275 6.925,6.275 8.524,6.275 11.325,6.275 11.325,5.475 " style="stroke: rgb(0, 0, 0);"></polyline>
<path fill-rule="evenodd" clip-rule="evenodd" fill="none" stroke="#383635" stroke-width="0.3" stroke-linecap="round" stroke-linejoin="round" stroke-miterlimit="3" d="
	M6.925,6.275c0,0.2,0.066,0.367,0.2,0.5c0.166,0.167,0.366,0.25,0.6,0.25s0.417-0.083,0.55-0.25c0.167-0.133,0.25-0.3,0.25-0.5" style="stroke: rgb(0, 0, 0);"></path>
<polyline fill-rule="evenodd" clip-rule="evenodd" fill="none" stroke="#383635" stroke-width="0.3" stroke-linecap="round" stroke-linejoin="round" stroke-miterlimit="3" points="
	20.125,5.475 20.125,6.275 21.325,6.275 21.325,5.475 " style="stroke: rgb(0, 0, 0);"></polyline>
<polyline fill-rule="evenodd" clip-rule="evenodd" fill="none" stroke="#383635" stroke-width="0.3" stroke-linecap="round" stroke-linejoin="round" stroke-miterlimit="3" points="
	23.225,5.475 23.225,6.275 24.425,6.275 24.425,5.475 " style="stroke: rgb(0, 0, 0);"></polyline>
<polyline fill-rule="evenodd" clip-rule="evenodd" fill="none" stroke="#383635" stroke-width="0.3" stroke-linecap="round" stroke-linejoin="round" stroke-miterlimit="3" points="
	17.024,5.475 17.024,6.275 18.225,6.275 18.225,5.475 " style="stroke: rgb(0, 0, 0);"></polyline>
<polyline fill-rule="evenodd" clip-rule="evenodd" fill="none" stroke="#383635" stroke-width="0.3" stroke-linecap="round" stroke-linejoin="round" stroke-miterlimit="3" points="
	13.925,5.475 13.925,6.275 15.125,6.275 15.125,5.475 " style="stroke: rgb(0, 0, 0);"></polyline>
<polyline fill-rule="evenodd" clip-rule="evenodd" fill="none" stroke="#383635" stroke-width="0.3" stroke-linecap="round" stroke-linejoin="round" stroke-miterlimit="3" points="
	30.024,5.475 30.024,6.275 32.425,6.275 34.024,6.275 36.825,6.275 36.825,5.475 " style="stroke: rgb(0, 0, 0);"></polyline>
<path fill-rule="evenodd" clip-rule="evenodd" fill="none" stroke="#383635" stroke-width="0.3" stroke-linecap="round" stroke-linejoin="round" stroke-miterlimit="3" d="
	M32.425,6.275c0,0.2,0.066,0.367,0.2,0.5c0.166,0.167,0.366,0.25,0.6,0.25s0.417-0.083,0.55-0.25c0.167-0.133,0.25-0.3,0.25-0.5" style="stroke: rgb(0, 0, 0);"></path>
<polyline fill-rule="evenodd" clip-rule="evenodd" fill="none" stroke="#383635" stroke-width="0.3" stroke-linecap="round" stroke-linejoin="round" stroke-miterlimit="3" points="
	26.325,5.475 26.325,6.275 27.524,6.275 27.524,5.475 " style="stroke: rgb(0, 0, 0);"></polyline>
<polygon fill-rule="evenodd" clip-rule="evenodd" fill="none" stroke="#383635" stroke-width="0.3" stroke-linecap="round" stroke-linejoin="round" stroke-miterlimit="3" points="
	41.225,0.125 41.225,19.675 29.225,19.675 29.225,20.375 23.425,20.375 23.425,20.975 17.925,20.975 17.925,20.375 12.175,20.375 
	12.175,19.675 0.125,19.675 0.125,0.125 " style="stroke: rgb(0, 0, 0);"></polygon>
<polyline fill-rule="evenodd" clip-rule="evenodd" fill="none" stroke="#383635" stroke-width="0.3" stroke-linecap="round" stroke-linejoin="round" stroke-miterlimit="3" points="
	38.475,5.475 38.475,18.825 40.475,18.825 40.475,5.475 " style="stroke: rgb(0, 0, 0);"></polyline>
<line fill-rule="evenodd" clip-rule="evenodd" fill="none" stroke="#383635" stroke-width="0.3" stroke-linecap="round" stroke-linejoin="round" stroke-miterlimit="3" x1="23.425" y1="20.375" x2="17.925" y2="20.375" style="stroke: rgb(0, 0, 0);"></line>
<line fill-rule="evenodd" clip-rule="evenodd" fill="none" stroke="#383635" stroke-width="0.3" stroke-linecap="round" stroke-linejoin="round" stroke-miterlimit="3" x1="29.225" y1="19.675" x2="12.175" y2="19.675" style="stroke: rgb(0, 0, 0);"></line>
</svg>