<svg version="1.1" id="Layer_1" xmlns="http://www.w3.org/2000/svg" xmlns:xlink="http://www.w3.org/1999/xlink" x="0px" y="0px" width="11.4px" height="22.2px" viewBox="0 0 11.4 22.2" enable-background="new 0 0 11.4 22.2" xml:space="preserve" class="ng-scope">
<path fill-rule="evenodd" clip-rule="evenodd" fill="#FFFFFF" d="M8.475,8.375c-0.833-0.8-1.767-1.2-2.8-1.2v3.9h3.9
	C9.575,10.009,9.208,9.108,8.475,8.375c0.733,0.733,1.101,1.634,1.101,2.7h-3.9v-3.9C6.708,7.175,7.642,7.575,8.475,8.375z"></path>
<path fill-rule="evenodd" clip-rule="evenodd" fill="#FFFFFF" d="M0.125,11.075V0.125h11.15v10.95h-1.7c0,1.1-0.367,2.05-1.101,2.85
	c-0.833,0.767-1.767,1.15-2.8,1.15v1.15v-1.15c1.033,0,1.967-0.384,2.8-1.15c0.733-0.8,1.101-1.75,1.101-2.85h1.7v11H0.125V11.075
	h1.6c0-1.066,0.384-1.967,1.15-2.7c0.767-0.8,1.7-1.2,2.8-1.2V6.025v1.149c-1.1,0-2.033,0.4-2.8,1.2
	c-0.767,0.733-1.15,1.634-1.15,2.7H0.125z"></path>
<path fill-rule="evenodd" clip-rule="evenodd" fill="#FFFFFF" d="M2.875,13.925c0.767,0.767,1.7,1.15,2.8,1.15v-4h-3.95
	C1.725,12.175,2.108,13.125,2.875,13.925c-0.767-0.8-1.15-1.75-1.15-2.85h3.95v4C4.575,15.075,3.642,14.691,2.875,13.925z"></path>
<path fill-rule="evenodd" clip-rule="evenodd" fill="none" stroke="#383635" stroke-width="0.3" d="M8.475,8.375
	c-0.833-0.8-1.767-1.2-2.8-1.2v3.9h3.9C9.575,10.009,9.208,9.108,8.475,8.375z" style="stroke: rgb(0, 0, 0);"></path>
<path fill-rule="evenodd" clip-rule="evenodd" fill="none" stroke="#383635" stroke-width="0.3" d="M0.125,11.075v11h11.15v-11
	h-1.7c0,1.1-0.367,2.05-1.101,2.85c-0.833,0.767-1.767,1.15-2.8,1.15v1.15" style="stroke: rgb(0, 0, 0);"></path>
<polyline fill-rule="evenodd" clip-rule="evenodd" fill="none" stroke="#383635" stroke-width="0.3" points="0.125,11.075 
	0.125,0.125 11.275,0.125 11.275,11.075 " style="stroke: rgb(0, 0, 0);"></polyline>
<path fill-rule="evenodd" clip-rule="evenodd" fill="none" stroke="#383635" stroke-width="0.3" d="M0.125,11.075h1.6
	c0-1.066,0.384-1.967,1.15-2.7c0.767-0.8,1.7-1.2,2.8-1.2V6.025" style="stroke: rgb(0, 0, 0);"></path>
<path fill-rule="evenodd" clip-rule="evenodd" fill="none" stroke="#383635" stroke-width="0.3" d="M2.875,13.925
	c0.767,0.767,1.7,1.15,2.8,1.15v-4h-3.95C1.725,12.175,2.108,13.125,2.875,13.925z" style="stroke: rgb(0, 0, 0);"></path>
</svg>