<svg version="1.1" id="Layer_1" xmlns="http://www.w3.org/2000/svg" xmlns:xlink="http://www.w3.org/1999/xlink" x="0px" y="0px" width="12.6px" height="12.7px" viewBox="0 0 12.6 12.7" enable-background="new 0 0 12.6 12.7" xml:space="preserve" class="ng-scope">
<path fill-rule="evenodd" clip-rule="evenodd" fill="#FFFFFF" d="M1.175,6.325h1.149c0-1.1,0.384-2.033,1.15-2.8
	c0.8-0.767,1.75-1.15,2.85-1.15v-1.2v1.2c-1.1,0-2.05,0.384-2.85,1.15c-0.767,0.767-1.15,1.7-1.15,2.8H1.175z"></path>
<path fill-rule="evenodd" clip-rule="evenodd" fill="#FFFFFF" d="M1.975,10.726c-1.233-1.2-1.85-2.65-1.85-4.351
	s0.616-3.166,1.85-4.399c1.167-1.233,2.6-1.851,4.3-1.851s3.167,0.617,4.4,1.851c1.2,1.233,1.8,2.699,1.8,4.399s-0.6,3.15-1.8,4.351
	c-1.233,1.233-2.7,1.85-4.4,1.85S3.142,11.959,1.975,10.726z"></path>
<path fill-rule="evenodd" clip-rule="evenodd" fill="#FFFFFF" d="M6.324,2.375c1.067,0,1.967,0.384,2.7,1.15
	c0.8,0.767,1.2,1.7,1.2,2.8h-3.9h-4c0,1.033,0.384,1.967,1.15,2.8c0.8,0.733,1.75,1.101,2.85,1.101v-3.9V2.375v3.95v3.9
	c-1.1,0-2.05-0.367-2.85-1.101c-0.767-0.833-1.15-1.767-1.15-2.8h4h3.9c0-1.1-0.4-2.033-1.2-2.8
	C8.291,2.759,7.392,2.375,6.324,2.375z"></path>
<path fill-rule="evenodd" clip-rule="evenodd" fill="#FFFFFF" d="M11.375,6.325h-1.15c0,1.033-0.4,1.967-1.2,2.8
	c-0.733,0.733-1.633,1.101-2.7,1.101v1.25v-1.25c1.067,0,1.967-0.367,2.7-1.101c0.8-0.833,1.2-1.767,1.2-2.8H11.375z"></path>
<path fill-rule="evenodd" clip-rule="evenodd" fill="none" stroke="#383635" stroke-width="0.3" d="M1.175,6.325h1.149
	c0-1.1,0.384-2.033,1.15-2.8c0.8-0.767,1.75-1.15,2.85-1.15v-1.2" style="stroke: rgb(0, 0, 0);"></path>
<path fill-rule="evenodd" clip-rule="evenodd" fill="none" stroke="#383635" stroke-width="0.3" d="M1.975,10.726
	c1.167,1.233,2.6,1.85,4.3,1.85s3.167-0.616,4.4-1.85c1.2-1.2,1.8-2.65,1.8-4.351s-0.6-3.166-1.8-4.399
	c-1.233-1.233-2.7-1.851-4.4-1.851s-3.133,0.617-4.3,1.851c-1.233,1.233-1.85,2.699-1.85,4.399S0.741,9.525,1.975,10.726z" style="stroke: rgb(0, 0, 0);"></path>
<path fill-rule="evenodd" clip-rule="evenodd" fill="none" stroke="#383635" stroke-width="0.3" d="M6.324,6.325h-4
	c0,1.033,0.384,1.967,1.15,2.8c0.8,0.733,1.75,1.101,2.85,1.101V6.325v-3.95c1.067,0,1.967,0.384,2.7,1.15
	c0.8,0.767,1.2,1.7,1.2,2.8H6.324z" style="stroke: rgb(0, 0, 0);"></path>
<path fill-rule="evenodd" clip-rule="evenodd" fill="none" stroke="#383635" stroke-width="0.3" d="M11.375,6.325h-1.15
	c0,1.033-0.4,1.967-1.2,2.8c-0.733,0.733-1.633,1.101-2.7,1.101v1.25" style="stroke: rgb(0, 0, 0);"></path>
</svg>