<svg version="1.1" id="Layer_1" xmlns="http://www.w3.org/2000/svg" xmlns:xlink="http://www.w3.org/1999/xlink" x="0px" y="0px" width="20.649px" height="41.899px" viewBox="0 0 20.649 41.899" enable-background="new 0 0 20.649 41.899" xml:space="preserve" class="ng-scope">
<path fill-rule="evenodd" clip-rule="evenodd" fill="#FFFFFF" d="M17.024,0.725h0.95c0.867-0.3,1.717-0.3,2.55,0v40.8
	c-0.833,0.334-1.683,0.334-2.55,0v-1.199H2.725v1.199c-1,0.301-1.866,0.301-2.6,0v-40.8c0.866-0.367,1.733-0.367,2.6,0h0.9v2.6
	h1.149v-0.55c3.733-0.633,7.467-0.633,11.2,0v0.55h1.05V0.725v2.6h-1.05v-0.55c-3.733-0.633-7.467-0.633-11.2,0v0.55H3.625v-2.6
	C7.925-0.075,12.392-0.075,17.024,0.725z"></path>
<path fill-rule="evenodd" clip-rule="evenodd" fill="#FFFFFF" d="M3.625,3.325v2.65l-0.9,0.95v0.8h5.05v-1.2
	c-1.166,0.066-2.166-0.15-3-0.65v-0.6v-1.95v1.95v0.6c0.834,0.5,1.834,0.716,3,0.65v1.2h-5.05v-0.8l0.9-0.95V3.325z"></path>
<path fill-rule="evenodd" clip-rule="evenodd" fill="#FFFFFF" d="M7.774,6.525h5.15c1.4,0,2.417-0.217,3.05-0.65v-0.6
	c-3.733-0.8-7.467-0.8-11.2,0c3.733-0.8,7.467-0.8,11.2,0v0.6c-0.633,0.433-1.649,0.65-3.05,0.65H7.774z"></path>
<polygon fill-rule="evenodd" clip-rule="evenodd" fill="#FFFFFF" points="17.975,40.325 17.975,7.725 12.925,7.725 7.774,7.725 
	12.925,7.725 17.975,7.725 "></polygon>
<path fill-rule="evenodd" clip-rule="evenodd" fill="#FFFFFF" d="M12.925,6.525v1.2V6.525z"></path>
<polygon fill-rule="evenodd" clip-rule="evenodd" fill="#FFFFFF" points="17.975,7.725 17.975,6.925 17.024,5.975 17.024,3.325 
	17.024,5.975 17.975,6.925 "></polygon>
<path fill-rule="evenodd" clip-rule="evenodd" fill="#FFFFFF" d="M17.975,0.725v6.2V0.725z"></path>
<path fill-rule="evenodd" clip-rule="evenodd" fill="#FFFFFF" d="M15.975,3.325v1.95V3.325z"></path>
<path fill-rule="evenodd" clip-rule="evenodd" fill="#FFFFFF" d="M2.725,0.725v6.2V0.725z"></path>
<polygon fill-rule="evenodd" clip-rule="evenodd" fill="#FFFFFF" points="1.575,12.825 2.175,12.825 2.175,19.125 1.575,19.125 
	0.524,19.125 0.524,12.825 1.575,12.825 1.575,19.125 1.575,12.825 0.524,12.825 0.524,19.125 1.575,19.125 2.175,19.125 
	2.175,12.825 "></polygon>
<polygon fill-rule="evenodd" clip-rule="evenodd" fill="#FFFFFF" points="19.075,12.825 20.125,12.825 20.125,19.125 19.075,19.125 
	18.475,19.125 18.475,12.825 19.075,12.825 19.075,19.125 19.075,12.825 18.475,12.825 18.475,19.125 19.075,19.125 20.125,19.125 
	20.125,12.825 "></polygon>
<path fill-rule="evenodd" clip-rule="evenodd" fill="#FFFFFF" d="M2.725,7.725v32.601V7.725z"></path>
<path fill-rule="evenodd" clip-rule="evenodd" fill="none" stroke="#383635" stroke-width="0.3" stroke-linecap="round" stroke-linejoin="round" stroke-miterlimit="3" d="
	M3.625,0.725v2.6h1.149v-0.55c3.733-0.633,7.467-0.633,11.2,0v0.55h1.05v-2.6C12.392-0.075,7.925-0.075,3.625,0.725z" style="stroke: rgb(0, 0, 0);"></path>
<path fill-rule="evenodd" clip-rule="evenodd" fill="none" stroke="#383635" stroke-width="0.3" stroke-linecap="round" stroke-linejoin="round" stroke-miterlimit="3" d="
	M3.625,3.325v2.65l-0.9,0.95v0.8h5.05v-1.2c-1.166,0.066-2.166-0.15-3-0.65v-0.6v-1.95" style="stroke: rgb(0, 0, 0);"></path>
<path fill-rule="evenodd" clip-rule="evenodd" fill="none" stroke="#383635" stroke-width="0.3" stroke-linecap="round" stroke-linejoin="round" stroke-miterlimit="3" d="
	M7.774,6.525h5.15c1.4,0,2.417-0.217,3.05-0.65v-0.6c-3.733-0.8-7.467-0.8-11.2,0" style="stroke: rgb(0, 0, 0);"></path>
<polyline fill-rule="evenodd" clip-rule="evenodd" fill="none" stroke="#383635" stroke-width="0.3" stroke-linecap="round" stroke-linejoin="round" stroke-miterlimit="3" points="
	17.975,40.325 17.975,7.725 12.925,7.725 7.774,7.725 " style="stroke: rgb(0, 0, 0);"></polyline>
<line fill-rule="evenodd" clip-rule="evenodd" fill="none" stroke="#383635" stroke-width="0.3" stroke-linecap="round" stroke-linejoin="round" stroke-miterlimit="3" x1="12.925" y1="6.525" x2="12.925" y2="7.725" style="stroke: rgb(0, 0, 0);"></line>
<path fill-rule="evenodd" clip-rule="evenodd" fill="none" stroke="#383635" stroke-width="0.3" stroke-linecap="round" stroke-linejoin="round" stroke-miterlimit="3" d="
	M17.024,0.725h0.95c0.867-0.3,1.717-0.3,2.55,0v40.8c-0.833,0.334-1.683,0.334-2.55,0v-1.199H2.725v1.199
	c-1,0.301-1.866,0.301-2.6,0v-40.8c0.866-0.367,1.733-0.367,2.6,0h0.9" style="stroke: rgb(0, 0, 0);"></path>
<polyline fill-rule="evenodd" clip-rule="evenodd" fill="none" stroke="#383635" stroke-width="0.3" stroke-linecap="round" stroke-linejoin="round" stroke-miterlimit="3" points="
	17.975,7.725 17.975,6.925 17.024,5.975 17.024,3.325 " style="stroke: rgb(0, 0, 0);"></polyline>
<line fill-rule="evenodd" clip-rule="evenodd" fill="none" stroke="#383635" stroke-width="0.3" stroke-linecap="round" stroke-linejoin="round" stroke-miterlimit="3" x1="17.975" y1="0.725" x2="17.975" y2="6.925" style="stroke: rgb(0, 0, 0);"></line>
<line fill-rule="evenodd" clip-rule="evenodd" fill="none" stroke="#383635" stroke-width="0.3" stroke-linecap="round" stroke-linejoin="round" stroke-miterlimit="3" x1="15.975" y1="3.325" x2="15.975" y2="5.275" style="stroke: rgb(0, 0, 0);"></line>
<line fill-rule="evenodd" clip-rule="evenodd" fill="none" stroke="#383635" stroke-width="0.3" stroke-linecap="round" stroke-linejoin="round" stroke-miterlimit="3" x1="2.725" y1="0.725" x2="2.725" y2="6.925" style="stroke: rgb(0, 0, 0);"></line>
<polyline fill-rule="evenodd" clip-rule="evenodd" fill="none" stroke="#383635" stroke-width="0.3" stroke-linecap="round" stroke-linejoin="round" stroke-miterlimit="3" points="
	1.575,12.825 2.175,12.825 2.175,19.125 1.575,19.125 0.524,19.125 0.524,12.825 1.575,12.825 1.575,19.125 " style="stroke: rgb(0, 0, 0);"></polyline>
<polyline fill-rule="evenodd" clip-rule="evenodd" fill="none" stroke="#383635" stroke-width="0.3" stroke-linecap="round" stroke-linejoin="round" stroke-miterlimit="3" points="
	19.075,12.825 20.125,12.825 20.125,19.125 19.075,19.125 18.475,19.125 18.475,12.825 19.075,12.825 19.075,19.125 " style="stroke: rgb(0, 0, 0);"></polyline>
<line fill-rule="evenodd" clip-rule="evenodd" fill="none" stroke="#383635" stroke-width="0.3" stroke-linecap="round" stroke-linejoin="round" stroke-miterlimit="3" x1="2.725" y1="7.725" x2="2.725" y2="40.325" style="stroke: rgb(0, 0, 0);"></line>
</svg>