<svg version="1.1" id="Layer_1" xmlns="http://www.w3.org/2000/svg" xmlns:xlink="http://www.w3.org/1999/xlink" x="0px" y="0px" width="26.95px" height="47.15px" viewBox="0 0 26.95 47.15" enable-background="new 0 0 26.95 47.15" xml:space="preserve" class="ng-scope">
<path fill-rule="evenodd" clip-rule="evenodd" fill="#FFFFFF" d="M25.075,0.575c-0.034,0.101-0.05,0.267-0.05,0.5
	c0,0.167,0.017,0.316,0.05,0.45v0.15v-0.15c-0.034-0.134-0.05-0.283-0.05-0.45C25.025,0.842,25.042,0.676,25.075,0.575
	c0.033-0.1,0.083-0.166,0.15-0.2c0.267-0.166,0.517-0.25,0.75-0.25c0.267,0,0.483,0.084,0.65,0.25c0.133,0.167,0.2,0.4,0.2,0.7
	c0,0.267-0.067,0.467-0.2,0.601c-0.167,0.233-0.383,0.35-0.65,0.35c-0.233,0-0.483-0.116-0.75-0.35c-0.067,0-0.117,0-0.15,0v1.399
	v4.25l0.5,0.2c0.167,0.134,0.2,0.3,0.1,0.5c-0.1,0.134-0.25,0.283-0.45,0.45c-0.067,0.1-0.117,0.184-0.15,0.25v2.85
	c0.466,0.101,0.75,0.533,0.85,1.3c0.1,0.567,0.1,1.117,0,1.65c0.034,1.1,0.083,2.733,0.15,4.9c0,1.733-0.034,2.966-0.1,3.699
	c-0.033,0.5-0.2,0.817-0.5,0.95c0,12.934,0.033,20.033,0.1,21.3c0,0.9-0.383,1.434-1.15,1.601l-1.1,0.05c-3.034,0-6.117,0-9.25,0
	c-6.3,0-9.75-0.017-10.35-0.05c-0.733-0.066-1.15-0.351-1.25-0.851l-0.25-29.05l-0.4-0.1c-0.434-0.101-0.65-0.25-0.65-0.45
	c0-0.134,0.083-0.566,0.25-1.3c0.067-0.467,0.133-0.867,0.2-1.2c0.033-0.533,0-0.917-0.1-1.15c0.067-0.566,0.167-0.949,0.3-1.149
	c0-0.035,0.017-0.085,0.05-0.15h-0.05v-1.35c0.066,0,0.267,0.033,0.6,0.1c0.167,0.033,0.417,0.101,0.75,0.2
	c0.233,0.066,0.534,0.217,0.9,0.45s0.833,0.434,1.4,0.6c0.4,0.101,0.883,0.184,1.45,0.25c0.3,0.033,0.6,0.117,0.9,0.25
	c0.3,0.134,0.683,0.351,1.15,0.65c0.333,0.1,0.6,0.033,0.8-0.2c0.067-0.267,0.083-0.566,0.05-0.9
	c-0.034-0.066-0.05-0.116-0.05-0.149c0.033-0.134,0.067-0.334,0.1-0.601c0.033-0.133,0.067-0.3,0.1-0.5
	c0.033-0.199,0.083-0.466,0.15-0.8c0.2-0.5,0.333-0.934,0.4-1.3l0.15-0.8c0.1-0.367,0.034-0.667-0.2-0.9
	c-0.067-0.033-0.217-0.05-0.45-0.05c-0.167-0.066-0.4-0.116-0.7-0.15c-0.5-0.066-1.217-0.233-2.15-0.5
	c-1.1-0.333-1.833-0.583-2.2-0.75c-0.133-0.1-0.3-0.183-0.5-0.25h-0.05c-0.167-0.133-0.333-0.233-0.5-0.3l-0.55-0.25
	c-0.3-0.2-0.45-0.116-0.45,0.25c0.034,0.167,0.083,0.351,0.15,0.55c0,0.4-0.05,0.784-0.15,1.15c-0.1,0.566-0.267,1.1-0.5,1.6
	c-0.133,0.301-0.333,0.733-0.6,1.301c0.267-0.567,0.466-1,0.6-1.301c0.233-0.5,0.4-1.033,0.5-1.6c0.1-0.366,0.15-0.75,0.15-1.15
	c-0.067-0.199-0.117-0.383-0.15-0.55c0-0.366,0.15-0.45,0.45-0.25l0.55,0.25c0.167,0.066,0.333,0.167,0.5,0.3h0.05
	c0.2,0.067,0.367,0.15,0.5,0.25c0.367,0.167,1.1,0.417,2.2,0.75c0.934,0.267,1.65,0.434,2.15,0.5c0.3,0.034,0.533,0.084,0.7,0.15
	c0.233,0,0.383,0.017,0.45,0.05c0.233,0.233,0.3,0.533,0.2,0.9l-0.15,0.8c-0.066,0.366-0.2,0.8-0.4,1.3
	c-0.067,0.334-0.117,0.601-0.15,0.8c-0.033,0.2-0.067,0.367-0.1,0.5c-0.033,0.267-0.067,0.467-0.1,0.601
	c0,0.033,0.017,0.083,0.05,0.149c0.033,0.334,0.017,0.634-0.05,0.9c-0.2,0.233-0.467,0.3-0.8,0.2c-0.467-0.3-0.85-0.517-1.15-0.65
	c-0.3-0.133-0.6-0.217-0.9-0.25c-0.566-0.066-1.05-0.149-1.45-0.25c-0.567-0.166-1.033-0.366-1.4-0.6s-0.667-0.384-0.9-0.45
	c-0.333-0.1-0.583-0.167-0.75-0.2c-0.333-0.066-0.533-0.1-0.6-0.1c-0.233-0.101-0.267-0.4-0.1-0.9
	c0.033-0.066,0.066-0.116,0.1-0.149v-5.95v-1.55c-0.034,0-0.083,0-0.15,0c-0.233,0.233-0.466,0.35-0.7,0.35
	c-0.267,0-0.483-0.116-0.65-0.35c-0.133-0.134-0.2-0.334-0.2-0.601c0-0.3,0.067-0.533,0.2-0.7c0.167-0.166,0.383-0.25,0.65-0.25
	c0.233,0,0.467,0.084,0.7,0.25c0.067,0.034,0.117,0.101,0.15,0.2H25.075z"></path>
<path fill-rule="evenodd" clip-rule="evenodd" fill="#FFFFFF" d="M25.075,1.525h-0.6c0.367,0.333,0.566,0.85,0.6,1.55
	c-0.034-0.7-0.233-1.217-0.6-1.55H25.075z"></path>
<path fill-rule="evenodd" clip-rule="evenodd" fill="#FFFFFF" d="M10.025,6.525c0.033-0.1,0.05-0.184,0.05-0.25
	c0.1-0.366,0.2-0.717,0.3-1.05c0.033-0.3,0.117-0.601,0.25-0.9l0.25-0.05c0.633,0.4,1.067,0.684,1.3,0.85
	c0.367,0.167,1.1,0.417,2.2,0.75c0.933,0.267,1.65,0.434,2.15,0.5c0.333,0.067,0.6,0.117,0.8,0.15c0.033-0.1,0.083-0.2,0.15-0.3
	c0.133-0.566,0.283-0.967,0.45-1.2l0.35-0.75c0.167-0.4,0.383-0.55,0.65-0.45c0.1,0.033,0.417,0.233,0.95,0.601
	c0.433,0.366,1.083,0.816,1.95,1.35c0.367,0.2,0.7,0.384,1,0.55c0.066-0.8,0.1-1.45,0.1-1.95v-1.05
	c0.434-0.934,0.35-1.383-0.25-1.35c-0.6,0-1.6,0.017-3,0.05c-1.433,0-3.4,0.017-5.9,0.05c-2.5,0-4.133,0.017-4.9,0.05
	c-0.8,0-1.767-0.05-2.9-0.149l-1.5-0.05c-0.7-0.2-0.95-0.034-0.75,0.5c0.133,0.233,0.283,0.483,0.45,0.75c0.2,0.5,0.3,1.033,0.3,1.6
	c0,0.033,0,0.066,0,0.1c0-0.033,0-0.066,0-0.1c0-0.566-0.1-1.1-0.3-1.6c-0.167-0.267-0.316-0.517-0.45-0.75
	c-0.2-0.534,0.05-0.7,0.75-0.5l1.5,0.05c1.133,0.1,2.1,0.149,2.9,0.149c0.767-0.033,2.4-0.05,4.9-0.05
	c2.5-0.033,4.467-0.05,5.9-0.05c1.4-0.033,2.4-0.05,3-0.05c0.6-0.033,0.684,0.416,0.25,1.35v1.05c0,0.5-0.033,1.15-0.1,1.95
	c-0.3-0.166-0.633-0.35-1-0.55c-0.867-0.533-1.517-0.983-1.95-1.35c-0.533-0.367-0.85-0.567-0.95-0.601
	c-0.267-0.1-0.483,0.05-0.65,0.45l-0.35,0.75c-0.167,0.233-0.316,0.634-0.45,1.2c-0.067,0.1-0.117,0.2-0.15,0.3
	c-0.2-0.033-0.467-0.083-0.8-0.15c-0.5-0.066-1.217-0.233-2.15-0.5c-1.1-0.333-1.833-0.583-2.2-0.75
	c-0.233-0.166-0.667-0.449-1.3-0.85l-0.25,0.05c-0.133,0.3-0.217,0.601-0.25,0.9c-0.1,0.333-0.2,0.684-0.3,1.05
	C10.075,6.342,10.058,6.426,10.025,6.525z"></path>
<path fill-rule="evenodd" clip-rule="evenodd" fill="#FFFFFF" d="M9.975,10.375c0.1,0.067,0.233,0.117,0.4,0.15
	c0.233,0.066,0.533,0.217,0.9,0.45c0.434,0.3,1.017,0.533,1.75,0.7c0.333,0.066,0.7,0.116,1.1,0.149c0.3,0.033,0.6,0.117,0.9,0.25
	c0.3,0.134,0.633,0.283,1,0.45c0.367,0.134,0.617,0.05,0.75-0.25c0.1-0.233,0.167-0.434,0.2-0.6c0.033-0.067,0.05-0.134,0.05-0.2
	c0-0.167,0.033-0.4,0.1-0.7c0.033-0.3,0.1-0.65,0.2-1.05c-0.233-0.101-0.5-0.2-0.8-0.3c-0.333-0.167-0.5-0.434-0.5-0.801
	c0.1-0.233,0.3-0.466,0.6-0.699c0.1-0.2,0.333-0.667,0.7-1.4c-0.367,0.733-0.6,1.2-0.7,1.4c-0.3,0.233-0.5,0.466-0.6,0.699
	c0,0.367,0.167,0.634,0.5,0.801c0.3,0.1,0.567,0.199,0.8,0.3c-0.1,0.399-0.167,0.75-0.2,1.05c-0.067,0.3-0.1,0.533-0.1,0.7
	c0,0.066-0.017,0.133-0.05,0.2c-0.033,0.166-0.1,0.366-0.2,0.6c-0.133,0.3-0.383,0.384-0.75,0.25c-0.367-0.167-0.7-0.316-1-0.45
	c-0.3-0.133-0.6-0.217-0.9-0.25c-0.4-0.033-0.767-0.083-1.1-0.149c-0.733-0.167-1.316-0.4-1.75-0.7
	c-0.367-0.233-0.667-0.384-0.9-0.45C10.208,10.492,10.075,10.442,9.975,10.375z"></path>
<path fill-rule="evenodd" clip-rule="evenodd" fill="#FFFFFF" d="M13.025,11.676c-1-0.034-2.066-0.051-3.2-0.051
	C10.958,11.625,12.025,11.642,13.025,11.676z"></path>
<path fill-rule="evenodd" clip-rule="evenodd" fill="#FFFFFF" d="M22.825,6.325c0.466,0.233,0.816,0.4,1.05,0.5
	c0.267,0.101,0.633,0.25,1.1,0.45l0.1,0.05l-0.1-0.05c-0.467-0.2-0.833-0.35-1.1-0.45C23.642,6.726,23.292,6.559,22.825,6.325z"></path>
<path fill-rule="evenodd" clip-rule="evenodd" fill="#FFFFFF" d="M17.325,9.726c0.133,0.033,0.267,0.083,0.4,0.149
	c0.367,0.134,0.65,0.284,0.85,0.45c0.233,0.2,0.45,0.384,0.65,0.55c0.433,0.367,0.85,0.634,1.25,0.801
	c0.233,0.133,0.467,0.216,0.7,0.25c0.434,0.133,0.767,0.25,1,0.35c0.233,0.233,0.434,0.4,0.6,0.5c0.3,0.134,0.467,0.233,0.5,0.3
	c0.233,0.066,0.434-0.116,0.6-0.55c0.033-0.366,0.083-0.667,0.15-0.9c0.033-0.3,0.083-0.55,0.15-0.75
	c0.133-0.5,0.317-1.017,0.55-1.55c0.1-0.233,0.217-0.434,0.35-0.6c-0.133,0.166-0.25,0.366-0.35,0.6
	c-0.233,0.533-0.417,1.05-0.55,1.55c-0.066,0.2-0.117,0.45-0.15,0.75c-0.066,0.233-0.117,0.534-0.15,0.9
	c-0.167,0.434-0.367,0.616-0.6,0.55c-0.033-0.066-0.2-0.166-0.5-0.3c-0.167-0.1-0.367-0.267-0.6-0.5c-0.233-0.1-0.566-0.217-1-0.35
	c-0.233-0.034-0.466-0.117-0.7-0.25c-0.4-0.167-0.817-0.434-1.25-0.801c-0.2-0.166-0.417-0.35-0.65-0.55
	c-0.2-0.166-0.483-0.316-0.85-0.45C17.592,9.809,17.458,9.759,17.325,9.726z"></path>
<path fill-rule="evenodd" clip-rule="evenodd" fill="#FFFFFF" d="M20.475,11.676c-1,0-2.167,0-3.5,0
	C18.308,11.676,19.475,11.676,20.475,11.676z"></path>
<path fill-rule="evenodd" clip-rule="evenodd" fill="#FFFFFF" d="M24.025,11.625c0.233-0.033,0.417-0.05,0.55-0.05
	c0.167-0.033,0.333-0.033,0.5,0c-0.167-0.033-0.333-0.033-0.5,0C24.442,11.575,24.258,11.592,24.025,11.625z"></path>
<path fill-rule="evenodd" clip-rule="evenodd" fill="#FFFFFF" d="M2.225,17.075c0.4,0.134,1.083,0.267,2.05,0.4
	c1.1,0.1,2.333,0.467,3.7,1.1c1.833,0.733,3.066,1.25,3.7,1.55c1.233,0.4,2.467,0.851,3.7,1.351c1.233,0.566,2.2,0.934,2.9,1.1
	c0.633,0.267,1.2,0.467,1.7,0.601c0.367,0.133,0.967,0.316,1.8,0.55c1.333,0.3,2.233,0.45,2.7,0.45c0.4,0.033,0.733,0,1-0.101
	c-0.267,0.101-0.6,0.134-1,0.101c-0.467,0-1.367-0.15-2.7-0.45c-0.833-0.233-1.433-0.417-1.8-0.55c-0.5-0.134-1.067-0.334-1.7-0.601
	c-0.7-0.166-1.667-0.533-2.9-1.1c-1.233-0.5-2.467-0.95-3.7-1.351c-0.633-0.3-1.867-0.816-3.7-1.55c-1.367-0.633-2.6-1-3.7-1.1
	C3.308,17.342,2.625,17.209,2.225,17.075z"></path>
<path fill-rule="evenodd" clip-rule="evenodd" fill="#FFFFFF" d="M1.825,0.575c0.033,0.101,0.05,0.267,0.05,0.5
	c0,0.167-0.017,0.316-0.05,0.45h0.75h21.9h-21.9h-0.75c0.033-0.134,0.05-0.283,0.05-0.45C1.875,0.842,1.858,0.676,1.825,0.575z"></path>
<path fill-rule="evenodd" clip-rule="evenodd" fill="#FFFFFF" d="M1.825,3.226c0.033-0.867,0.283-1.434,0.75-1.7
	C2.108,1.792,1.858,2.358,1.825,3.226z"></path>
<path fill-rule="evenodd" clip-rule="evenodd" fill="#FFFFFF" d="M1.825,1.676v-0.15V1.676z"></path>
<path fill-rule="evenodd" clip-rule="evenodd" fill="#FFFFFF" d="M5.475,11.575h-3.6H5.475z"></path>
<path fill-rule="evenodd" clip-rule="evenodd" fill="none" stroke="#383635" stroke-width="0.3" d="M25.075,1.676
	c0.033,0,0.083,0,0.15,0c0.267,0.233,0.517,0.35,0.75,0.35c0.267,0,0.483-0.116,0.65-0.35c0.133-0.134,0.2-0.334,0.2-0.601
	c0-0.3-0.067-0.533-0.2-0.7c-0.167-0.166-0.383-0.25-0.65-0.25c-0.233,0-0.483,0.084-0.75,0.25c-0.067,0.034-0.117,0.101-0.15,0.2
	c-0.034,0.101-0.05,0.267-0.05,0.5c0,0.167,0.017,0.316,0.05,0.45V1.676z" style="stroke: rgb(0, 0, 0);"></path>
<path fill-rule="evenodd" clip-rule="evenodd" fill="none" stroke="#383635" stroke-width="0.3" d="M25.075,1.525h-0.6
	c0.367,0.333,0.566,0.85,0.6,1.55V1.676" style="stroke: rgb(0, 0, 0);"></path>
<path fill-rule="evenodd" clip-rule="evenodd" fill="none" stroke="#383635" stroke-width="0.3" d="M1.825,10.226
	c0.066,0,0.267,0.033,0.6,0.1c0.167,0.033,0.417,0.101,0.75,0.2c0.233,0.066,0.534,0.217,0.9,0.45s0.833,0.434,1.4,0.6
	c0.4,0.101,0.883,0.184,1.45,0.25c0.3,0.033,0.6,0.117,0.9,0.25c0.3,0.134,0.683,0.351,1.15,0.65c0.333,0.1,0.6,0.033,0.8-0.2
	c0.067-0.267,0.083-0.566,0.05-0.9c-0.034-0.066-0.05-0.116-0.05-0.149c0.033-0.134,0.067-0.334,0.1-0.601
	c0.033-0.133,0.067-0.3,0.1-0.5c0.033-0.199,0.083-0.466,0.15-0.8c0.2-0.5,0.333-0.934,0.4-1.3l0.15-0.8
	c0.1-0.367,0.034-0.667-0.2-0.9c-0.067-0.033-0.217-0.05-0.45-0.05c-0.167-0.066-0.4-0.116-0.7-0.15
	c-0.5-0.066-1.217-0.233-2.15-0.5c-1.1-0.333-1.833-0.583-2.2-0.75c-0.133-0.1-0.3-0.183-0.5-0.25h-0.05
	c-0.167-0.133-0.333-0.233-0.5-0.3l-0.55-0.25c-0.3-0.2-0.45-0.116-0.45,0.25c0.034,0.167,0.083,0.351,0.15,0.55
	c0,0.4-0.05,0.784-0.15,1.15c-0.1,0.566-0.267,1.1-0.5,1.6c-0.133,0.301-0.333,0.733-0.6,1.301c-0.034,0.033-0.067,0.083-0.1,0.149
	C1.558,9.825,1.592,10.125,1.825,10.226z" style="stroke: rgb(0, 0, 0);"></path>
<path fill-rule="evenodd" clip-rule="evenodd" fill="none" stroke="#383635" stroke-width="0.3" d="M10.025,6.525
	c0.033-0.1,0.05-0.184,0.05-0.25c0.1-0.366,0.2-0.717,0.3-1.05c0.033-0.3,0.117-0.601,0.25-0.9l0.25-0.05
	c0.633,0.4,1.067,0.684,1.3,0.85c0.367,0.167,1.1,0.417,2.2,0.75c0.933,0.267,1.65,0.434,2.15,0.5c0.333,0.067,0.6,0.117,0.8,0.15
	c0.033-0.1,0.083-0.2,0.15-0.3c0.133-0.566,0.283-0.967,0.45-1.2l0.35-0.75c0.167-0.4,0.383-0.55,0.65-0.45
	c0.1,0.033,0.417,0.233,0.95,0.601c0.433,0.366,1.083,0.816,1.95,1.35c0.367,0.2,0.7,0.384,1,0.55c0.066-0.8,0.1-1.45,0.1-1.95
	v-1.05c0.434-0.934,0.35-1.383-0.25-1.35c-0.6,0-1.6,0.017-3,0.05c-1.433,0-3.4,0.017-5.9,0.05c-2.5,0-4.133,0.017-4.9,0.05
	c-0.8,0-1.767-0.05-2.9-0.149l-1.5-0.05c-0.7-0.2-0.95-0.034-0.75,0.5c0.133,0.233,0.283,0.483,0.45,0.75c0.2,0.5,0.3,1.033,0.3,1.6
	c0,0.033,0,0.066,0,0.1" style="stroke: rgb(0, 0, 0);"></path>
<path fill-rule="evenodd" clip-rule="evenodd" fill="none" stroke="#383635" stroke-width="0.3" d="M9.975,10.375
	c0.1,0.067,0.233,0.117,0.4,0.15c0.233,0.066,0.533,0.217,0.9,0.45c0.434,0.3,1.017,0.533,1.75,0.7c0.333,0.066,0.7,0.116,1.1,0.149
	c0.3,0.033,0.6,0.117,0.9,0.25c0.3,0.134,0.633,0.283,1,0.45c0.367,0.134,0.617,0.05,0.75-0.25c0.1-0.233,0.167-0.434,0.2-0.6
	c0.033-0.067,0.05-0.134,0.05-0.2c0-0.167,0.033-0.4,0.1-0.7c0.033-0.3,0.1-0.65,0.2-1.05c-0.233-0.101-0.5-0.2-0.8-0.3
	c-0.333-0.167-0.5-0.434-0.5-0.801c0.1-0.233,0.3-0.466,0.6-0.699c0.1-0.2,0.333-0.667,0.7-1.4" style="stroke: rgb(0, 0, 0);"></path>
<path fill-rule="evenodd" clip-rule="evenodd" fill="none" stroke="#383635" stroke-width="0.3" d="M13.025,11.676
	c-1-0.034-2.066-0.051-3.2-0.051" style="stroke: rgb(0, 0, 0);"></path>
<path fill-rule="evenodd" clip-rule="evenodd" fill="none" stroke="#383635" stroke-width="0.3" d="M25.075,3.075v4.25l0.5,0.2
	c0.167,0.134,0.2,0.3,0.1,0.5c-0.1,0.134-0.25,0.283-0.45,0.45c-0.067,0.1-0.117,0.184-0.15,0.25v2.85
	c0.466,0.101,0.75,0.533,0.85,1.3c0.1,0.567,0.1,1.117,0,1.65c0.034,1.1,0.083,2.733,0.15,4.9c0,1.733-0.034,2.966-0.1,3.699
	c-0.033,0.5-0.2,0.817-0.5,0.95c0,12.934,0.033,20.033,0.1,21.3c0,0.9-0.383,1.434-1.15,1.601l-1.1,0.05c-3.034,0-6.117,0-9.25,0
	c-6.3,0-9.75-0.017-10.35-0.05c-0.733-0.066-1.15-0.351-1.25-0.851l-0.25-29.05l-0.4-0.1c-0.434-0.101-0.65-0.25-0.65-0.45
	c0-0.134,0.083-0.566,0.25-1.3c0.067-0.467,0.133-0.867,0.2-1.2c0.033-0.533,0-0.917-0.1-1.15c0.067-0.566,0.167-0.949,0.3-1.149
	v-0.15v-1.35" style="stroke: rgb(0, 0, 0);"></path>
<path fill-rule="evenodd" clip-rule="evenodd" fill="none" stroke="#383635" stroke-width="0.3" d="M22.825,6.325
	c0.466,0.233,0.816,0.4,1.05,0.5c0.267,0.101,0.633,0.25,1.1,0.45l0.1,0.05" style="stroke: rgb(0, 0, 0);"></path>
<path fill-rule="evenodd" clip-rule="evenodd" fill="none" stroke="#383635" stroke-width="0.3" d="M17.325,9.726
	c0.133,0.033,0.267,0.083,0.4,0.149c0.367,0.134,0.65,0.284,0.85,0.45c0.233,0.2,0.45,0.384,0.65,0.55
	c0.433,0.367,0.85,0.634,1.25,0.801c0.233,0.133,0.467,0.216,0.7,0.25c0.434,0.133,0.767,0.25,1,0.35c0.233,0.233,0.434,0.4,0.6,0.5
	c0.3,0.134,0.467,0.233,0.5,0.3c0.233,0.066,0.434-0.116,0.6-0.55c0.033-0.366,0.083-0.667,0.15-0.9c0.033-0.3,0.083-0.55,0.15-0.75
	c0.133-0.5,0.317-1.017,0.55-1.55c0.1-0.233,0.217-0.434,0.35-0.6" style="stroke: rgb(0, 0, 0);"></path>
<path fill-rule="evenodd" clip-rule="evenodd" fill="none" stroke="#383635" stroke-width="0.3" d="M20.475,11.676
	c-1,0-2.167,0-3.5,0" style="stroke: rgb(0, 0, 0);"></path>
<path fill-rule="evenodd" clip-rule="evenodd" fill="none" stroke="#383635" stroke-width="0.3" d="M24.025,11.625
	c0.233-0.033,0.417-0.05,0.55-0.05c0.167-0.033,0.333-0.033,0.5,0" style="stroke: rgb(0, 0, 0);"></path>
<path fill-rule="evenodd" clip-rule="evenodd" fill="none" stroke="#383635" stroke-width="0.3" d="M2.225,17.075
	c0.4,0.134,1.083,0.267,2.05,0.4c1.1,0.1,2.333,0.467,3.7,1.1c1.833,0.733,3.066,1.25,3.7,1.55c1.233,0.4,2.467,0.851,3.7,1.351
	c1.233,0.566,2.2,0.934,2.9,1.1c0.633,0.267,1.2,0.467,1.7,0.601c0.367,0.133,0.967,0.316,1.8,0.55c1.333,0.3,2.233,0.45,2.7,0.45
	c0.4,0.033,0.733,0,1-0.101" style="stroke: rgb(0, 0, 0);"></path>
<path fill-rule="evenodd" clip-rule="evenodd" fill="none" stroke="#383635" stroke-width="0.3" d="M1.825,0.575
	c0.033,0.101,0.05,0.267,0.05,0.5c0,0.167-0.017,0.316-0.05,0.45h0.75h21.9" style="stroke: rgb(0, 0, 0);"></path>
<path fill-rule="evenodd" clip-rule="evenodd" fill="none" stroke="#383635" stroke-width="0.3" d="M1.825,9.176v-5.95v-1.55
	c-0.034,0-0.083,0-0.15,0c-0.233,0.233-0.466,0.35-0.7,0.35c-0.267,0-0.483-0.116-0.65-0.35c-0.133-0.134-0.2-0.334-0.2-0.601
	c0-0.3,0.067-0.533,0.2-0.7c0.167-0.166,0.383-0.25,0.65-0.25c0.233,0,0.467,0.084,0.7,0.25c0.067,0.034,0.117,0.101,0.15,0.2h23.25
	" style="stroke: rgb(0, 0, 0);"></path>
<path fill-rule="evenodd" clip-rule="evenodd" fill="none" stroke="#383635" stroke-width="0.3" d="M1.825,11.726
	c0-0.035,0.017-0.085,0.05-0.15" style="stroke: rgb(0, 0, 0);"></path>
<path fill-rule="evenodd" clip-rule="evenodd" fill="none" stroke="#383635" stroke-width="0.3" d="M1.825,3.226
	c0.033-0.867,0.283-1.434,0.75-1.7" style="stroke: rgb(0, 0, 0);"></path>
<line fill-rule="evenodd" clip-rule="evenodd" fill="none" stroke="#383635" stroke-width="0.3" x1="1.825" y1="1.676" x2="1.825" y2="1.525" style="stroke: rgb(0, 0, 0);"></line>
<line fill-rule="evenodd" clip-rule="evenodd" fill="none" stroke="#383635" stroke-width="0.3" x1="5.475" y1="11.575" x2="1.875" y2="11.575" style="stroke: rgb(0, 0, 0);"></line>
</svg>