<svg version="1.1" id="Layer_1" xmlns="http://www.w3.org/2000/svg" xmlns:xlink="http://www.w3.org/1999/xlink" x="0px" y="0px" width="43.551px" height="26.25px" viewBox="0 0 43.551 26.25" enable-background="new 0 0 43.551 26.25" xml:space="preserve" class="ng-scope">
<path fill-rule="evenodd" clip-rule="evenodd" fill="#FFFFFF" d="M43.426,0.574v7.5l-0.351,1.2v5.351c0,0.3-0.149,0.449-0.45,0.449
	h-1.85h-37.9H0.926c-0.301,0-0.45-0.149-0.45-0.449V9.274l-0.351-1.2v-7.5c0-0.3,0.15-0.449,0.45-0.449h42.4
	C43.275,0.125,43.426,0.274,43.426,0.574z"></path>
<polygon fill-rule="evenodd" clip-rule="evenodd" fill="#FFFFFF" points="2.875,14.625 2.875,15.074 2.875,14.625 2.926,14.625 
	2.926,9.324 3.625,9.324 4.575,9.324 5.325,9.324 6.125,9.324 7.075,9.324 7.825,9.324 8.976,9.324 9.875,9.324 10.825,9.324 
	11.476,9.324 12.325,9.324 13.275,9.324 13.926,9.324 14.676,9.324 15.625,9.324 16.325,9.324 17.575,9.324 18.426,9.324 
	19.375,9.324 19.976,9.324 20.825,9.324 20.825,9.274 2.875,9.274 "></polygon>
<path fill-rule="evenodd" clip-rule="evenodd" fill="#FFFFFF" d="M2.875,9.274H0.476H2.875z"></path>
<polygon fill-rule="evenodd" clip-rule="evenodd" fill="#FFFFFF" points="2.926,14.625 4.125,14.625 4.125,13.225 3.625,13.225 
	3.625,9.324 3.625,13.225 4.125,13.225 4.125,14.625 "></polygon>
<polygon fill-rule="evenodd" clip-rule="evenodd" fill="#FFFFFF" points="40.775,9.274 25.476,9.274 25.476,9.324 26.176,9.324 
	27.025,9.324 27.976,9.324 28.525,9.324 29.426,9.324 30.375,9.324 31.075,9.324 32.226,9.324 33.075,9.324 34.025,9.324 
	34.676,9.324 35.525,9.324 36.476,9.324 37.176,9.324 37.976,9.324 38.926,9.324 39.575,9.324 40.775,9.324 40.775,14.625 
	40.775,9.324 40.775,9.274 43.075,9.274 "></polygon>
<path fill-rule="evenodd" clip-rule="evenodd" fill="#FFFFFF" d="M40.775,15.074v-0.449V15.074z"></path>
<polygon fill-rule="evenodd" clip-rule="evenodd" fill="#FFFFFF" points="38.926,9.324 38.926,13.225 38.375,13.225 38.375,14.625 
	39.575,14.625 39.575,9.324 39.575,14.625 38.375,14.625 38.375,13.225 38.926,13.225 "></polygon>
<polygon fill-rule="evenodd" clip-rule="evenodd" fill="#FFFFFF" points="37.976,9.324 37.976,13.225 38.375,13.225 37.976,13.225 
	"></polygon>
<polygon fill-rule="evenodd" clip-rule="evenodd" fill="#FFFFFF" points="36.476,9.324 36.476,13.225 35.926,13.225 35.926,14.625 
	37.176,14.625 37.176,9.324 37.176,14.625 35.926,14.625 35.926,13.225 36.476,13.225 "></polygon>
<polygon fill-rule="evenodd" clip-rule="evenodd" fill="#FFFFFF" points="35.525,9.324 35.525,13.225 35.926,13.225 35.525,13.225 
	"></polygon>
<path fill-rule="evenodd" clip-rule="evenodd" fill="#FFFFFF" d="M38.375,14.625h-1.199H38.375z"></path>
<path fill-rule="evenodd" clip-rule="evenodd" fill="#FFFFFF" d="M40.775,14.625h-1.2H40.775z"></path>
<polygon fill-rule="evenodd" clip-rule="evenodd" fill="#FFFFFF" points="0.125,8.074 14.676,8.074 14.476,7.524 14.476,7.125 
	19.476,7.125 19.476,6.074 20.525,6.074 20.525,7.125 22.825,7.125 22.825,6.074 23.825,6.074 23.825,7.125 28.926,7.125 
	28.926,7.524 28.676,8.074 43.426,8.074 28.676,8.074 28.926,7.524 28.926,7.125 23.825,7.125 23.825,6.074 22.825,6.074 
	22.825,7.125 20.525,7.125 20.525,6.074 19.476,6.074 19.476,7.125 14.476,7.125 14.476,7.524 14.676,8.074 "></polygon>
<polygon fill-rule="evenodd" clip-rule="evenodd" fill="#FFFFFF" points="14.676,8.074 14.875,8.625 28.426,8.625 28.676,8.074 
	28.426,8.625 14.875,8.625 "></polygon>
<polygon fill-rule="evenodd" clip-rule="evenodd" fill="#FFFFFF" points="30.375,9.324 30.375,13.225 29.825,13.225 29.825,14.625 
	31.075,14.625 31.075,9.324 31.075,14.625 29.825,14.625 29.825,13.225 30.375,13.225 "></polygon>
<polygon fill-rule="evenodd" clip-rule="evenodd" fill="#FFFFFF" points="29.426,9.324 29.426,13.225 29.825,13.225 29.426,13.225 
	"></polygon>
<polygon fill-rule="evenodd" clip-rule="evenodd" fill="#FFFFFF" points="29.825,14.625 28.525,14.625 27.375,14.625 26.176,14.625 
	24.976,14.625 23.726,14.625 22.375,14.625 21.176,14.625 19.976,14.625 18.775,14.625 17.575,14.625 16.325,14.625 15.075,14.625 
	13.926,14.625 12.676,14.625 11.476,14.625 10.226,14.625 8.976,14.625 7.825,14.625 6.575,14.625 5.325,14.625 4.125,14.625 
	5.325,14.625 6.575,14.625 7.825,14.625 8.976,14.625 10.226,14.625 11.476,14.625 12.676,14.625 13.926,14.625 15.075,14.625 
	16.325,14.625 17.575,14.625 18.775,14.625 19.976,14.625 21.176,14.625 22.375,14.625 23.726,14.625 24.976,14.625 26.176,14.625 
	27.375,14.625 28.525,14.625 "></polygon>
<polygon fill-rule="evenodd" clip-rule="evenodd" fill="#FFFFFF" points="27.025,9.324 27.025,13.225 27.375,13.225 27.976,13.225 
	27.976,9.324 27.976,13.225 27.375,13.225 27.025,13.225 "></polygon>
<path fill-rule="evenodd" clip-rule="evenodd" fill="#FFFFFF" d="M27.375,13.225v1.4V13.225z"></path>
<polygon fill-rule="evenodd" clip-rule="evenodd" fill="#FFFFFF" points="25.476,9.324 25.476,13.175 24.976,13.175 24.976,14.625 
	24.976,13.175 25.476,13.175 "></polygon>
<polygon fill-rule="evenodd" clip-rule="evenodd" fill="#FFFFFF" points="33.075,9.324 33.075,13.225 33.476,13.225 34.025,13.225 
	34.025,9.324 34.025,13.225 33.476,13.225 33.075,13.225 "></polygon>
<polygon fill-rule="evenodd" clip-rule="evenodd" fill="#FFFFFF" points="35.926,14.625 34.676,14.625 33.476,14.625 32.226,14.625 
	31.075,14.625 32.226,14.625 33.476,14.625 34.676,14.625 "></polygon>
<path fill-rule="evenodd" clip-rule="evenodd" fill="#FFFFFF" d="M33.476,13.225v1.4V13.225z"></path>
<path fill-rule="evenodd" clip-rule="evenodd" fill="#FFFFFF" d="M32.226,14.625V9.324V14.625z"></path>
<path fill-rule="evenodd" clip-rule="evenodd" fill="#FFFFFF" d="M28.525,14.625V9.324V14.625z"></path>
<path fill-rule="evenodd" clip-rule="evenodd" fill="#FFFFFF" d="M26.176,14.625V9.324V14.625z"></path>
<path fill-rule="evenodd" clip-rule="evenodd" fill="#FFFFFF" d="M34.676,14.625V9.324V14.625z"></path>
<path fill-rule="evenodd" clip-rule="evenodd" fill="#FFFFFF" d="M34.976,18.675c0-0.7-0.351-1.05-1.05-1.05h-23.5
	c-0.7,0-1.051,0.35-1.051,1.05v5.7c0,0.699,0.351,1.05,1.051,1.05h23.5c0.699,0,1.05-0.351,1.05-1.05V18.675v5.7
	c0,0.699-0.351,1.05-1.05,1.05h-23.5c-0.7,0-1.051-0.351-1.051-1.05v-5.7c0-0.7,0.351-1.05,1.051-1.05h23.5
	C34.625,17.625,34.976,17.975,34.976,18.675z"></path>
<rect x="8.726" y="16.925" fill-rule="evenodd" clip-rule="evenodd" fill="#FFFFFF" width="26.95" height="9.2"></rect>
<path fill-rule="evenodd" clip-rule="evenodd" fill="#FFFFFF" d="M23.825,7.125h-1H23.825z"></path>
<polygon fill-rule="evenodd" clip-rule="evenodd" fill="#FFFFFF" points="24.525,9.274 25.476,9.274 24.525,9.274 21.775,9.274 
	20.825,9.274 21.775,9.274 21.775,9.324 22.375,9.324 23.726,9.324 24.525,9.324 "></polygon>
<path fill-rule="evenodd" clip-rule="evenodd" fill="#FFFFFF" d="M14.476,7.524h14.45H14.476z"></path>
<polygon fill-rule="evenodd" clip-rule="evenodd" fill="#FFFFFF" points="18.775,14.625 18.775,13.225 18.426,13.225 18.426,9.324 
	18.426,13.225 18.775,13.225 "></polygon>
<polygon fill-rule="evenodd" clip-rule="evenodd" fill="#FFFFFF" points="18.775,13.225 19.375,13.225 19.375,9.324 19.375,13.225 
	"></polygon>
<polygon fill-rule="evenodd" clip-rule="evenodd" fill="#FFFFFF" points="15.075,14.625 15.075,13.225 14.676,13.225 14.676,9.324 
	14.676,13.225 15.075,13.225 "></polygon>
<polygon fill-rule="evenodd" clip-rule="evenodd" fill="#FFFFFF" points="15.075,13.225 15.625,13.225 15.625,9.324 15.625,13.225 
	"></polygon>
<polygon fill-rule="evenodd" clip-rule="evenodd" fill="#FFFFFF" points="20.825,9.324 20.825,13.175 21.176,13.175 21.775,13.175 
	21.775,9.324 21.775,13.175 21.176,13.175 20.825,13.175 "></polygon>
<path fill-rule="evenodd" clip-rule="evenodd" fill="#FFFFFF" d="M21.176,14.625v-1.45V14.625z"></path>
<polygon fill-rule="evenodd" clip-rule="evenodd" fill="#FFFFFF" points="24.525,9.324 24.525,13.175 24.976,13.175 24.525,13.175 
	"></polygon>
<path fill-rule="evenodd" clip-rule="evenodd" fill="#FFFFFF" d="M20.525,7.125h-1.05H20.525z"></path>
<path fill-rule="evenodd" clip-rule="evenodd" fill="#FFFFFF" d="M16.325,9.324v5.301V9.324z"></path>
<path fill-rule="evenodd" clip-rule="evenodd" fill="#FFFFFF" d="M19.976,9.324v5.301V9.324z"></path>
<path fill-rule="evenodd" clip-rule="evenodd" fill="#FFFFFF" d="M22.375,14.625V9.324V14.625z"></path>
<path fill-rule="evenodd" clip-rule="evenodd" fill="#FFFFFF" d="M17.575,9.324v5.301V9.324z"></path>
<path fill-rule="evenodd" clip-rule="evenodd" fill="#FFFFFF" d="M23.726,9.324v5.301V9.324z"></path>
<polygon fill-rule="evenodd" clip-rule="evenodd" fill="#FFFFFF" points="6.125,9.324 6.125,13.225 6.575,13.225 7.075,13.225 
	7.075,9.324 7.075,13.225 6.575,13.225 6.125,13.225 "></polygon>
<path fill-rule="evenodd" clip-rule="evenodd" fill="#FFFFFF" d="M6.575,14.625v-1.4V14.625z"></path>
<polygon fill-rule="evenodd" clip-rule="evenodd" fill="#FFFFFF" points="12.325,9.324 12.325,13.225 12.676,13.225 13.275,13.225 
	13.275,9.324 13.275,13.225 12.676,13.225 12.325,13.225 "></polygon>
<path fill-rule="evenodd" clip-rule="evenodd" fill="#FFFFFF" d="M12.676,13.225v1.4V13.225z"></path>
<polygon fill-rule="evenodd" clip-rule="evenodd" fill="#FFFFFF" points="9.875,9.324 9.875,13.225 10.226,13.225 10.825,13.225 
	10.825,9.324 10.825,13.225 10.226,13.225 9.875,13.225 "></polygon>
<path fill-rule="evenodd" clip-rule="evenodd" fill="#FFFFFF" d="M10.226,14.625v-1.4V14.625z"></path>
<polygon fill-rule="evenodd" clip-rule="evenodd" fill="#FFFFFF" points="4.125,13.225 4.575,13.225 4.575,9.324 4.575,13.225 "></polygon>
<path fill-rule="evenodd" clip-rule="evenodd" fill="#FFFFFF" d="M5.325,9.324v5.301V9.324z"></path>
<path fill-rule="evenodd" clip-rule="evenodd" fill="#FFFFFF" d="M11.476,9.324v5.301V9.324z"></path>
<path fill-rule="evenodd" clip-rule="evenodd" fill="#FFFFFF" d="M7.825,9.324v5.301V9.324z"></path>
<path fill-rule="evenodd" clip-rule="evenodd" fill="#FFFFFF" d="M8.976,14.625V9.324V14.625z"></path>
<path fill-rule="evenodd" clip-rule="evenodd" fill="#FFFFFF" d="M13.926,14.625V9.324V14.625z"></path>
<path fill-rule="evenodd" clip-rule="evenodd" fill="#83634B" d="M2.926,14.625H2.875V9.274h17.95v0.05h-0.85h-0.601h-0.949h-0.851
	h-1.25h-0.7h-0.949h-0.75h-0.65h-0.95h-0.85h-0.65h-0.95H8.976h-1.15h-0.75h-0.95h-0.8h-0.75h-0.95H2.926V14.625z M25.476,9.274
	h15.3v0.05h-1.2h-0.649h-0.95h-0.8h-0.7h-0.95h-0.85h-0.65h-0.95h-0.85h-1.15h-0.7h-0.949h-0.9h-0.55h-0.95h-0.85h-0.7V9.274z
	 M21.775,9.274h2.75v0.05h-0.8h-1.351h-0.6V9.274z" style="fill: rgb(0, 0, 0);"></path>
<path fill-rule="evenodd" clip-rule="evenodd" fill="none" stroke="#383635" stroke-width="0.3" stroke-linecap="round" stroke-linejoin="round" stroke-miterlimit="3" d="
	M43.426,0.574v7.5l-0.351,1.2v5.351c0,0.3-0.149,0.449-0.45,0.449h-1.85h-37.9H0.926c-0.301,0-0.45-0.149-0.45-0.449V9.274
	l-0.351-1.2v-7.5c0-0.3,0.15-0.449,0.45-0.449h42.4C43.275,0.125,43.426,0.274,43.426,0.574z" style="stroke: rgb(0, 0, 0);"></path>
<polyline fill-rule="evenodd" clip-rule="evenodd" fill="none" stroke="#383635" stroke-width="0.3" stroke-linecap="round" stroke-linejoin="round" stroke-miterlimit="3" points="
	20.825,9.274 2.875,9.274 2.875,14.625 2.875,15.074 " style="stroke: rgb(0, 0, 0);"></polyline>
<line fill-rule="evenodd" clip-rule="evenodd" fill="none" stroke="#383635" stroke-width="0.3" stroke-linecap="round" stroke-linejoin="round" stroke-miterlimit="3" x1="2.875" y1="9.274" x2="0.476" y2="9.274" style="stroke: rgb(0, 0, 0);"></line>
<line fill-rule="evenodd" clip-rule="evenodd" fill="none" stroke="#383635" stroke-width="0.3" stroke-linecap="round" stroke-linejoin="round" stroke-miterlimit="3" x1="40.775" y1="9.274" x2="40.775" y2="9.324" style="stroke: rgb(0, 0, 0);"></line>
<line fill-rule="evenodd" clip-rule="evenodd" fill="none" stroke="#383635" stroke-width="0.3" stroke-linecap="round" stroke-linejoin="round" stroke-miterlimit="3" x1="40.775" y1="14.625" x2="40.775" y2="15.074" style="stroke: rgb(0, 0, 0);"></line>
<polyline fill-rule="evenodd" clip-rule="evenodd" fill="none" stroke="#383635" stroke-width="0.3" stroke-linecap="round" stroke-linejoin="round" stroke-miterlimit="3" points="
	43.075,9.274 40.775,9.274 25.476,9.274 " style="stroke: rgb(0, 0, 0);"></polyline>
<polyline fill-rule="evenodd" clip-rule="evenodd" fill="none" stroke="#383635" stroke-width="0.3" stroke-linecap="round" stroke-linejoin="round" stroke-miterlimit="3" points="
	0.125,8.074 14.676,8.074 14.476,7.524 14.476,7.125 19.476,7.125 19.476,6.074 20.525,6.074 20.525,7.125 22.825,7.125 
	22.825,6.074 23.825,6.074 23.825,7.125 28.926,7.125 28.926,7.524 28.676,8.074 43.426,8.074 " style="stroke: rgb(0, 0, 0);"></polyline>
<polyline fill-rule="evenodd" clip-rule="evenodd" fill="none" stroke="#383635" stroke-width="0.3" stroke-linecap="round" stroke-linejoin="round" stroke-miterlimit="3" points="
	14.676,8.074 14.875,8.625 28.426,8.625 28.676,8.074 " style="stroke: rgb(0, 0, 0);"></polyline>
<line fill-rule="evenodd" clip-rule="evenodd" fill="none" stroke="#383635" stroke-width="0.3" stroke-linecap="round" stroke-linejoin="round" stroke-miterlimit="3" x1="23.825" y1="7.125" x2="22.825" y2="7.125" style="stroke: rgb(0, 0, 0);"></line>
<line fill-rule="evenodd" clip-rule="evenodd" fill="none" stroke="#383635" stroke-width="0.3" stroke-linecap="round" stroke-linejoin="round" stroke-miterlimit="3" x1="21.775" y1="9.274" x2="20.825" y2="9.274" style="stroke: rgb(0, 0, 0);"></line>
<line fill-rule="evenodd" clip-rule="evenodd" fill="none" stroke="#383635" stroke-width="0.3" stroke-linecap="round" stroke-linejoin="round" stroke-miterlimit="3" x1="24.525" y1="9.274" x2="21.775" y2="9.274" style="stroke: rgb(0, 0, 0);"></line>
<line fill-rule="evenodd" clip-rule="evenodd" fill="none" stroke="#383635" stroke-width="0.3" stroke-linecap="round" stroke-linejoin="round" stroke-miterlimit="3" x1="20.525" y1="7.125" x2="19.476" y2="7.125" style="stroke: rgb(0, 0, 0);"></line>
<line fill-rule="evenodd" clip-rule="evenodd" fill="none" stroke="#383635" stroke-width="0.3" stroke-linecap="round" stroke-linejoin="round" stroke-miterlimit="3" x1="24.525" y1="9.274" x2="25.476" y2="9.274" style="stroke: rgb(0, 0, 0);"></line>
<line fill-rule="evenodd" clip-rule="evenodd" fill="none" stroke="#383635" stroke-width="0.3" stroke-linecap="round" stroke-linejoin="round" stroke-miterlimit="3" x1="14.476" y1="7.524" x2="28.926" y2="7.524" style="stroke: rgb(0, 0, 0);"></line>
<path fill-rule="evenodd" clip-rule="evenodd" fill="none" stroke="#383635" stroke-width="0.3" d="M34.976,18.675
	c0-0.7-0.351-1.05-1.05-1.05h-23.5c-0.7,0-1.051,0.35-1.051,1.05v5.7c0,0.699,0.351,1.05,1.051,1.05h23.5
	c0.699,0,1.05-0.351,1.05-1.05V18.675z" style="stroke: rgb(0, 0, 0);"></path>
<rect x="8.726" y="16.925" fill-rule="evenodd" clip-rule="evenodd" fill="none" stroke="#383635" stroke-width="0.3" width="26.95" height="9.2" style="stroke: rgb(0, 0, 0);"></rect>
<path fill-rule="evenodd" clip-rule="evenodd" fill="none" stroke="#383635" stroke-width="0.1" d="M2.926,14.625V9.324h0.699
	 M4.575,9.324h0.75h0.8v3.9h0.45h0.5v-3.9h0.75h1.15h0.899v3.9h0.351h0.6v-3.9h0.65h0.85h0.95h0.65h0.75 M15.625,9.324h0.7h1.25
	h0.851 M19.375,9.324h0.601h0.85v-0.05 M2.926,14.625h1.199v-1.4h-0.5v-3.9 M40.775,9.324v5.301h-1.2 M38.926,9.324h0.649h1.2
	 M36.476,9.324h0.7h0.8v3.9h0.399 M38.926,9.324v3.9h-0.551v1.4h1.2V9.324 M36.476,9.324v3.9h-0.55v1.4h1.25V9.324 M35.525,9.324
	v3.9h0.4 M38.375,14.625h-1.199 M34.025,9.324h0.65h0.85 M30.375,9.324h0.7h1.15h0.85v3.9h0.4h0.55v-3.9 M25.476,9.274v0.05h0.7
	h0.85v3.9h0.35h0.601v-3.9h0.55h0.9v3.9h0.399 M30.375,9.324v3.9h-0.55v1.4h1.25V9.324 M29.825,14.625h-1.3h-1.15h-1.199h-1.2h-1.25
	h-1.351h-1.199h-1.2h-1.2h-1.2h-1.25h-1.25h-1.149h-1.25h-1.2h-1.25h-1.25h-1.15h-1.25h-1.25h-1.2 M27.375,13.225v1.4 M25.476,9.324
	v3.851h-0.5v1.45 M35.926,14.625h-1.25h-1.2h-1.25h-1.15 M33.476,13.225v1.4 M32.226,14.625V9.324 M28.525,14.625V9.324
	 M26.176,14.625V9.324 M34.676,14.625V9.324 M21.775,9.324v-0.05 M21.775,9.324h0.6h1.351h0.8v-0.05 M18.775,14.625v-1.4h-0.35v-3.9
	 M18.775,13.225h0.6v-3.9 M15.075,14.625v-1.4h-0.399v-3.9 M15.075,13.225h0.55v-3.9 M20.825,9.324v3.851h0.351h0.6V9.324
	 M21.176,14.625v-1.45 M24.525,9.324v3.851h0.45 M16.325,9.324v5.301 M19.976,9.324v5.301 M22.375,14.625V9.324 M17.575,9.324v5.301
	 M23.726,9.324v5.301 M6.575,14.625v-1.4 M12.325,9.324v3.9h0.351h0.6v-3.9 M12.676,13.225v1.4 M10.226,14.625v-1.4 M4.125,13.225
	h0.45v-3.9 M5.325,9.324v5.301 M11.476,9.324v5.301 M7.825,9.324v5.301 M8.976,14.625V9.324 M13.926,14.625V9.324" style="stroke: rgb(0, 0, 0);"></path>
</svg>