<svg version="1.1" id="Layer_1" xmlns="http://www.w3.org/2000/svg" xmlns:xlink="http://www.w3.org/1999/xlink" x="0px" y="0px" width="37.35px" height="36.649px" viewBox="0 0 37.35 36.649" enable-background="new 0 0 37.35 36.649" xml:space="preserve" class="ng-scope">
<path fill-rule="evenodd" clip-rule="evenodd" fill="#FFFFFF" d="M12.475,29.975h0.4V2.325c0-1.1,0.55-1.65,1.649-1.65h8.25
	c1.101,0,1.65,0.55,1.65,1.65v27.65h0.55h-0.55V2.325c0-1.1-0.55-1.65-1.65-1.65h-8.25c-1.1,0-1.649,0.55-1.649,1.65v27.65H12.475z"></path>
<path fill-rule="evenodd" clip-rule="evenodd" fill="#FFFFFF" d="M24.975,29.975h1v-2h2.101v2h3.949v-4
	c0-0.233,0.084-0.417,0.25-0.55c0.134-0.133,0.317-0.2,0.551-0.2c0.199,0,0.383,0.067,0.55,0.2c0.133,0.133,0.2,0.316,0.2,0.55V28
	c0.004-0.188,0.07-0.347,0.199-0.476c0.134-0.1,0.283-0.149,0.45-0.149c0.134,0,0.25,0.033,0.351,0.1
	c0.066,0,0.116,0.017,0.149,0.05c0.101,0.134,0.15,0.301,0.15,0.5v1.95h1.35c0.3,0,0.517,0.083,0.65,0.25
	c0.233,0.134,0.35,0.3,0.35,0.5c0,0.167-0.116,0.3-0.35,0.4c-0.134,0.167-0.351,0.25-0.65,0.25h-1.35v2.35
	c0,0.2-0.05,0.351-0.15,0.45c-0.033,0.033-0.083,0.084-0.149,0.15c-0.101,0.033-0.217,0.05-0.351,0.05
	c-0.167,0-0.316-0.067-0.45-0.2c-0.131-0.099-0.197-0.198-0.199-0.3v1.899c0,0.2-0.067,0.384-0.2,0.551
	c-0.167,0.133-0.351,0.199-0.55,0.199c-0.233,0-0.417-0.066-0.551-0.199c-0.166-0.167-0.25-0.351-0.25-0.551v-4.399h-3.949v2.2
	h-2.101v-2.2h-1v2.2h-12.5v-2.2h-1.25v2.2h-2.05v-2.2h-3.75v4.399c0,0.2-0.083,0.384-0.25,0.551
	c-0.133,0.133-0.316,0.199-0.55,0.199c-0.2,0-0.384-0.066-0.55-0.199c-0.134-0.167-0.2-0.351-0.2-0.551v-1.899
	c-0.002,0.102-0.069,0.201-0.2,0.3c-0.133,0.133-0.283,0.2-0.45,0.2c-0.2,0-0.366-0.067-0.5-0.2c-0.1-0.1-0.149-0.25-0.149-0.45
	v-2.35h-1.4c-0.3,0-0.55-0.083-0.75-0.25c-0.2-0.101-0.3-0.233-0.3-0.4c0-0.2,0.1-0.366,0.3-0.5c0.2-0.167,0.45-0.25,0.75-0.25h1.4
	v-1.95c0-0.199,0.05-0.366,0.149-0.5c0.134-0.1,0.3-0.149,0.5-0.149c0.167,0,0.317,0.05,0.45,0.149
	c0.129,0.129,0.195,0.288,0.2,0.476v-2.025c0-0.233,0.066-0.417,0.2-0.55c0.166-0.133,0.35-0.2,0.55-0.2
	c0.233,0,0.417,0.067,0.55,0.2c0.167,0.133,0.25,0.316,0.25,0.55v4h3.75v-2h2.05v2h1.25V0.125h12.5V29.975z"></path>
<path fill-rule="evenodd" clip-rule="evenodd" fill="#FFFFFF" d="M24.975,31.375h-0.55c0,1.1-0.55,1.649-1.65,1.649h-8.25
	c-1.1,0-1.649-0.55-1.649-1.649h-0.4h0.4c0,1.1,0.55,1.649,1.649,1.649h8.25c1.101,0,1.65-0.55,1.65-1.649H24.975z"></path>
<path fill-rule="evenodd" clip-rule="evenodd" fill="#FFFFFF" d="M9.175,29.975h2.05H9.175z"></path>
<path fill-rule="evenodd" clip-rule="evenodd" fill="#FFFFFF" d="M11.225,31.375h-2.05H11.225z"></path>
<path fill-rule="evenodd" clip-rule="evenodd" fill="#FFFFFF" d="M5.425,29.975v1.4V29.975z"></path>
<path fill-rule="evenodd" clip-rule="evenodd" fill="#FFFFFF" d="M2.575,31.375v-1.4V31.375z"></path>
<path fill-rule="evenodd" clip-rule="evenodd" fill="#FFFFFF" d="M34.875,29.975v1.4V29.975z"></path>
<path fill-rule="evenodd" clip-rule="evenodd" fill="#FFFFFF" d="M32.024,29.975v1.4V29.975z"></path>
<path fill-rule="evenodd" clip-rule="evenodd" fill="#FFFFFF" d="M25.975,29.975h2.101H25.975z"></path>
<path fill-rule="evenodd" clip-rule="evenodd" fill="#FFFFFF" d="M28.075,31.375h-2.101H28.075z"></path>
<path fill-rule="evenodd" clip-rule="evenodd" fill="#FFFFFF" d="M3.875,33.875V28V33.875z"></path>
<path fill-rule="evenodd" clip-rule="evenodd" fill="#FFFFFF" d="M33.575,33.875V28V33.875z"></path>
<path fill-rule="evenodd" clip-rule="evenodd" fill="#FFFFFF" d="M12.875,29.975h11.55H12.875z"></path>
<path fill-rule="evenodd" clip-rule="evenodd" fill="#FFFFFF" d="M24.425,31.375h-11.55H24.425z"></path>
<path fill-rule="evenodd" clip-rule="evenodd" fill="none" stroke="#383635" stroke-width="0.3" stroke-linecap="round" stroke-linejoin="round" stroke-miterlimit="3" d="
	M12.475,29.975h0.4V2.325c0-1.1,0.55-1.65,1.649-1.65h8.25c1.101,0,1.65,0.55,1.65,1.65v27.65h0.55V0.125h-12.5V29.975z" style="stroke: rgb(0, 0, 0);"></path>
<path fill-rule="evenodd" clip-rule="evenodd" fill="none" stroke="#383635" stroke-width="0.3" stroke-linecap="round" stroke-linejoin="round" stroke-miterlimit="3" d="
	M24.975,29.975h1v-2h2.101v2h3.949v-4c0-0.233,0.084-0.417,0.25-0.55c0.134-0.133,0.317-0.2,0.551-0.2c0.199,0,0.383,0.067,0.55,0.2
	c0.133,0.133,0.2,0.316,0.2,0.55V28c0.004-0.188,0.07-0.347,0.199-0.476c0.134-0.1,0.283-0.149,0.45-0.149
	c0.134,0,0.25,0.033,0.351,0.1c0.066,0,0.116,0.017,0.149,0.05c0.101,0.134,0.15,0.301,0.15,0.5v1.95h1.35
	c0.3,0,0.517,0.083,0.65,0.25c0.233,0.134,0.35,0.3,0.35,0.5c0,0.167-0.116,0.3-0.35,0.4c-0.134,0.167-0.351,0.25-0.65,0.25h-1.35
	v2.35c0,0.2-0.05,0.351-0.15,0.45c-0.033,0.033-0.083,0.084-0.149,0.15c-0.101,0.033-0.217,0.05-0.351,0.05
	c-0.167,0-0.316-0.067-0.45-0.2c-0.131-0.099-0.197-0.198-0.199-0.3v1.899c0,0.2-0.067,0.384-0.2,0.551
	c-0.167,0.133-0.351,0.199-0.55,0.199c-0.233,0-0.417-0.066-0.551-0.199c-0.166-0.167-0.25-0.351-0.25-0.551v-4.399h-3.949v2.2
	h-2.101v-2.2h-1v2.2h-12.5v-2.2h-1.25v2.2h-2.05v-2.2h-3.75v4.399c0,0.2-0.083,0.384-0.25,0.551
	c-0.133,0.133-0.316,0.199-0.55,0.199c-0.2,0-0.384-0.066-0.55-0.199c-0.134-0.167-0.2-0.351-0.2-0.551v-1.899
	c-0.002,0.102-0.069,0.201-0.2,0.3c-0.133,0.133-0.283,0.2-0.45,0.2c-0.2,0-0.366-0.067-0.5-0.2c-0.1-0.1-0.149-0.25-0.149-0.45
	v-2.35h-1.4c-0.3,0-0.55-0.083-0.75-0.25c-0.2-0.101-0.3-0.233-0.3-0.4c0-0.2,0.1-0.366,0.3-0.5c0.2-0.167,0.45-0.25,0.75-0.25h1.4
	v-1.95c0-0.199,0.05-0.366,0.149-0.5c0.134-0.1,0.3-0.149,0.5-0.149c0.167,0,0.317,0.05,0.45,0.149
	c0.129,0.129,0.195,0.288,0.2,0.476v-2.025c0-0.233,0.066-0.417,0.2-0.55c0.166-0.133,0.35-0.2,0.55-0.2
	c0.233,0,0.417,0.067,0.55,0.2c0.167,0.133,0.25,0.316,0.25,0.55v4h3.75v-2h2.05v2h1.25" style="stroke: rgb(0, 0, 0);"></path>
<path fill-rule="evenodd" clip-rule="evenodd" fill="none" stroke="#383635" stroke-width="0.3" stroke-linecap="round" stroke-linejoin="round" stroke-miterlimit="3" d="
	M24.975,31.375h-0.55c0,1.1-0.55,1.649-1.65,1.649h-8.25c-1.1,0-1.649-0.55-1.649-1.649h-0.4" style="stroke: rgb(0, 0, 0);"></path>
<line fill-rule="evenodd" clip-rule="evenodd" fill="none" stroke="#383635" stroke-width="0.3" stroke-linecap="round" stroke-linejoin="round" stroke-miterlimit="3" x1="9.175" y1="29.975" x2="11.225" y2="29.975" style="stroke: rgb(0, 0, 0);"></line>
<line fill-rule="evenodd" clip-rule="evenodd" fill="none" stroke="#383635" stroke-width="0.3" stroke-linecap="round" stroke-linejoin="round" stroke-miterlimit="3" x1="11.225" y1="31.375" x2="9.175" y2="31.375" style="stroke: rgb(0, 0, 0);"></line>
<line fill-rule="evenodd" clip-rule="evenodd" fill="none" stroke="#383635" stroke-width="0.3" stroke-linecap="round" stroke-linejoin="round" stroke-miterlimit="3" x1="5.425" y1="29.975" x2="5.425" y2="31.375" style="stroke: rgb(0, 0, 0);"></line>
<line fill-rule="evenodd" clip-rule="evenodd" fill="none" stroke="#383635" stroke-width="0.3" stroke-linecap="round" stroke-linejoin="round" stroke-miterlimit="3" x1="2.575" y1="31.375" x2="2.575" y2="29.975" style="stroke: rgb(0, 0, 0);"></line>
<line fill-rule="evenodd" clip-rule="evenodd" fill="none" stroke="#383635" stroke-width="0.3" stroke-linecap="round" stroke-linejoin="round" stroke-miterlimit="3" x1="34.875" y1="29.975" x2="34.875" y2="31.375" style="stroke: rgb(0, 0, 0);"></line>
<line fill-rule="evenodd" clip-rule="evenodd" fill="none" stroke="#383635" stroke-width="0.3" stroke-linecap="round" stroke-linejoin="round" stroke-miterlimit="3" x1="32.024" y1="29.975" x2="32.024" y2="31.375" style="stroke: rgb(0, 0, 0);"></line>
<line fill-rule="evenodd" clip-rule="evenodd" fill="none" stroke="#383635" stroke-width="0.3" stroke-linecap="round" stroke-linejoin="round" stroke-miterlimit="3" x1="25.975" y1="29.975" x2="28.075" y2="29.975" style="stroke: rgb(0, 0, 0);"></line>
<line fill-rule="evenodd" clip-rule="evenodd" fill="none" stroke="#383635" stroke-width="0.3" stroke-linecap="round" stroke-linejoin="round" stroke-miterlimit="3" x1="28.075" y1="31.375" x2="25.975" y2="31.375" style="stroke: rgb(0, 0, 0);"></line>
<line fill-rule="evenodd" clip-rule="evenodd" fill="none" stroke="#383635" stroke-width="0.3" stroke-linecap="round" stroke-linejoin="round" stroke-miterlimit="3" x1="3.875" y1="33.875" x2="3.875" y2="28" style="stroke: rgb(0, 0, 0);"></line>
<line fill-rule="evenodd" clip-rule="evenodd" fill="none" stroke="#383635" stroke-width="0.3" stroke-linecap="round" stroke-linejoin="round" stroke-miterlimit="3" x1="33.575" y1="33.875" x2="33.575" y2="28" style="stroke: rgb(0, 0, 0);"></line>
<line fill-rule="evenodd" clip-rule="evenodd" fill="none" stroke="#383635" stroke-width="0.3" stroke-linecap="round" stroke-linejoin="round" stroke-miterlimit="3" x1="12.875" y1="29.975" x2="24.425" y2="29.975" style="stroke: rgb(0, 0, 0);"></line>
<line fill-rule="evenodd" clip-rule="evenodd" fill="none" stroke="#383635" stroke-width="0.3" stroke-linecap="round" stroke-linejoin="round" stroke-miterlimit="3" x1="24.425" y1="31.375" x2="12.875" y2="31.375" style="stroke: rgb(0, 0, 0);"></line>
</svg>