<svg version="1.1" id="Layer_1" xmlns="http://www.w3.org/2000/svg" xmlns:xlink="http://www.w3.org/1999/xlink" x="0px" y="0px" width="47.61px" height="46.001px" viewBox="0 0 47.61 46.001" enable-background="new 0 0 47.61 46.001" xml:space="preserve" class="ng-scope">
<path fill-rule="evenodd" clip-rule="evenodd" fill="#FFFFFF" d="M31.585,1.376c0.033,0.7,0.083,1.417,0.15,2.15
	c0,0.167,0.033,0.317,0.1,0.45c0.533,0.733,1.367,1.1,2.5,1.1c1.367,0,2.75,0.033,4.15,0.1c0.3-0.3,0.617-0.583,0.95-0.85
	c0.367,0.233,0.483,0.533,0.35,0.9c0.133-0.367,0.017-0.667-0.35-0.9c-0.333,0.267-0.65,0.55-0.95,0.85
	c-1.4-0.066-2.783-0.1-4.15-0.1c-1.133,0-1.967-0.367-2.5-1.1c-0.067-0.133-0.1-0.283-0.1-0.45
	C31.668,2.792,31.618,2.076,31.585,1.376c0.233-0.667,0.7-1.083,1.4-1.25c1.433,0.1,2.867,0.217,4.3,0.35
	c0.8,0.066,1.617,0.15,2.45,0.25c0.667,0.066,1.35,0.133,2.05,0.2c1.267-0.167,2.45,0.034,3.55,0.6c0.4,0.767,0.517,1.533,0.35,2.3
	c-0.033,0.2-0.066,0.4-0.1,0.6c-0.067,0.233-0.15,0.467-0.25,0.7c0.433-0.167,0.683,1.133,0.75,3.9c0.1,2.233,0.2,5.8,0.3,10.7
	c0,1.2,0.017,2.484,0.05,3.851c-0.066,2.134-0.2,3.233-0.4,3.3c-0.367,0.133-1.167,0.217-2.4,0.25c1.533,0,2.417,0.133,2.65,0.4
	c0.267,0.3,0.383,2.982,0.35,8.05c-0.1,5.134-0.283,7.767-0.55,7.899c-0.4,0.101-1.284,0.167-2.65,0.2
	c-1.5,0.034-2.333-0.1-2.5-0.399c-0.1-0.134-0.15-0.75-0.15-1.851c0,1.101,0.05,1.717,0.15,1.851c0.167,0.3,1,0.434,2.5,0.399
	c1.367-0.033,2.25-0.1,2.65-0.2c0.267-0.133,0.45-2.766,0.55-7.899c0.033-5.067-0.083-7.75-0.35-8.05
	c-0.233-0.268-1.117-0.4-2.65-0.4c1.233-0.033,2.033-0.117,2.4-0.25c0.2-0.066,0.333-1.166,0.4-3.3
	c-0.033-1.366-0.05-2.65-0.05-3.851c-0.1-4.899-0.2-8.467-0.3-10.7c-0.067-2.767-0.317-4.066-0.75-3.9
	c0.1-0.233,0.183-0.467,0.25-0.7c0.033-0.2,0.066-0.4,0.1-0.6c0.167-0.767,0.05-1.534-0.35-2.3c0.233,0.033,0.483,0.083,0.75,0.15
	c0.167,0,0.333,0.067,0.5,0.2c0.466,0.167,0.767,0.45,0.9,0.85l-0.3,42.8l-11.1,0.35H2.635c-0.167-0.066-0.3-0.15-0.4-0.25
	c-0.633-0.434-0.917-1.05-0.85-1.85c0.733,0.399,1.533,0.5,2.4,0.3c0.2,0,0.417,0.017,0.65,0.05c0.233-0.133,0.467-0.25,0.7-0.35
	c-0.167-0.367-0.267-1.217-0.3-2.551c0-1.5,0.15-2.316,0.45-2.449c-0.3,0.133-0.45,0.949-0.45,2.449
	c0.033,1.334,0.133,2.184,0.3,2.551c-0.233,0.1-0.467,0.217-0.7,0.35c-0.233-0.033-0.45-0.05-0.65-0.05
	c-0.867,0.2-1.667,0.1-2.4-0.3c-0.267-0.134-0.417-0.4-0.45-0.801c-0.033-0.899-0.1-1.766-0.2-2.6
	c-0.133-1.367-0.283-2.816-0.45-4.35c-0.133-1.4-0.183-2.768-0.15-4.101c0.033-0.7,0.4-1.167,1.1-1.399
	c0.967-0.033,1.883,0.033,2.75,0.199c0.167,0.101,0.333,0.217,0.5,0.351c0.167,0.7,0.283,1.399,0.35,2.1
	c0.133,1.333,0.233,2.667,0.3,4c1.067-1.033,1.383-2.183,0.95-3.45c-0.034-0.1-0.034-0.184,0-0.25l3.95,0.65l3.2-2.55
	c0.9-0.067,1.617,0.25,2.15,0.95c0.467,0.566,1.017,1.083,1.65,1.55c0.8,0.5,1.5,1.134,2.1,1.899c-1.233,0.367-1.933,1.25-2.1,2.65
	l10.2,0.55l0.1,1.05l0.4-1.449V27.426v11.351l-0.4,1.449l-0.1-1.05l-10.2-0.55c0.167-1.4,0.867-2.283,2.1-2.65
	c-0.6-0.766-1.3-1.399-2.1-1.899c-0.633-0.467-1.183-0.983-1.65-1.55c-0.533-0.7-1.25-1.018-2.15-0.95l-3.2,2.55l-3.95-0.65
	c-0.034,0.066-0.034,0.15,0,0.25c0.433,1.268,0.117,2.417-0.95,3.45c-0.067-1.333-0.167-2.667-0.3-4
	c-0.067-0.7-0.184-1.399-0.35-2.1c-0.167-0.134-0.333-0.25-0.5-0.351c-0.867-0.166-1.783-0.232-2.75-0.199l0.15-2.65
	c0.133-0.7,0.467-1.066,1-1.1c0.2,0,0.6-0.018,1.2-0.051c6.3,0.066,10.533,0.117,12.7,0.15c1.4,0,2.667,0,3.8,0
	c1.233,0,2.3,0.017,3.2,0.05c2.4,0.034,3.617,0.05,3.65,0.05c0.333,0.033,0.567,0.101,0.7,0.2l0.1,0.25
	c0.066-0.2,0.267-0.35,0.6-0.45c-0.3,0-0.483-0.266-0.55-0.8c-0.033-0.267-0.05-0.517-0.05-0.75c0-0.634,0-1.25,0-1.85
	c0.033-1.2,0.066-2.483,0.1-3.851c0-1.199,0-2.467,0-3.8c-0.067-2.134-0.133-6.233-0.2-12.3c0.033-0.567,0.05-0.933,0.05-1.1
	c0.034-0.533,0.417-0.867,1.15-1L31.585,1.376z"></path>
<path fill-rule="evenodd" clip-rule="evenodd" fill="#FFFFFF" d="M39.785,5.226l0.2,0.95c0.433,1.034,0.85,2.034,1.25,3
	c0.2,0.567,0.35,1.15,0.45,1.75c0.167,1.034,0.483,2.017,0.95,2.95c0.2,0.367,0.25,0.7,0.15,1c-0.033,0.033-0.05,0.084-0.05,0.15
	l-2.65-0.25l-0.4,0.05c-0.533-0.733-1.05-1.351-1.55-1.851c-0.667-0.666-1.2-1.316-1.6-1.949c-0.267-0.434-0.467-0.467-0.6-0.101
	c-0.033,0.101-0.066,0.2-0.1,0.3l-1.2-5.149c0.067-0.034,0.15-0.05,0.25-0.05c1.3,0.333,2.5,0.05,3.6-0.85
	c-1.1,0.9-2.3,1.184-3.6,0.85c-0.1,0-0.183,0.017-0.25,0.05l1.2,5.149c0.033-0.1,0.066-0.199,0.1-0.3
	c0.133-0.366,0.333-0.333,0.6,0.101c0.4,0.633,0.934,1.283,1.6,1.949c0.5,0.5,1.017,1.117,1.55,1.851l0.4-0.05l2.65,0.25
	c0-0.066,0.017-0.117,0.05-0.15c0.1-0.3,0.05-0.633-0.15-1c-0.467-0.934-0.783-1.916-0.95-2.95c-0.1-0.6-0.25-1.183-0.45-1.75
	c-0.4-0.966-0.817-1.966-1.25-3c0.033-0.5,0.083-0.783,0.15-0.85l5.2-0.2l-5.2,0.2L39.785,5.226z"></path>
<path fill-rule="evenodd" clip-rule="evenodd" fill="#FFFFFF" d="M5.285,38.776c0.1-0.066,0.4-0.117,0.9-0.15l-0.95-0.2
	c-0.467,0.067-0.684-0.033-0.65-0.3c0.066-0.334,0.25-0.65,0.55-0.95c-0.3,0.3-0.483,0.616-0.55,0.95
	c-0.034,0.267,0.183,0.367,0.65,0.3L5.285,38.776z"></path>
<polygon fill-rule="evenodd" clip-rule="evenodd" fill="#FFFFFF" points="10.035,34.126 15.235,37.876 16.235,38.626 16.935,39.076 
	17.035,38.626 16.935,39.076 16.235,38.626 15.235,37.876 "></polygon>
<path fill-rule="evenodd" clip-rule="evenodd" fill="#FFFFFF" d="M15.235,37.876l-0.1,0.85c0.133-0.033,0.5-0.066,1.1-0.1
	c-0.6,0.033-0.967,0.066-1.1,0.1L15.235,37.876z"></path>
<path fill-rule="evenodd" clip-rule="evenodd" fill="#FFFFFF" d="M6.185,38.626c1.534,0.733,3.167,1.283,4.9,1.65
	c0.8,0.1,1.55,0.333,2.25,0.699c0.7,0.367,1.383,0.467,2.05,0.301l-0.25-2.551l0.25,2.551c-0.667,0.166-1.35,0.066-2.05-0.301
	c-0.7-0.366-1.45-0.6-2.25-0.699C9.352,39.909,7.718,39.359,6.185,38.626z"></path>
<path fill-rule="evenodd" clip-rule="evenodd" fill="#FFFFFF" d="M26.835,44.076c-0.133,0.134-0.684,0.216-1.65,0.25
	c-0.667,0-1.3,0-1.9,0c-1.133,0-2.2,0.017-3.2,0.05c-4.2,0-7.083-0.033-8.65-0.1c-4.1-0.033-6.2-0.2-6.3-0.5
	c0.1,0.3,2.2,0.467,6.3,0.5c1.567,0.066,4.45,0.1,8.65,0.1c1-0.033,2.066-0.05,3.2-0.05c0.6,0,1.233,0,1.9,0
	C26.151,44.292,26.702,44.21,26.835,44.076z"></path>
<path fill-rule="evenodd" clip-rule="evenodd" fill="#FFFFFF" d="M40.785,41.426l-0.1-2.2h-0.1l0.05,2.2
	c0,1.534-0.15,2.417-0.45,2.65c-0.3,0.267-2.433,0.333-6.4,0.2c-4.033-0.033-6.083-0.184-6.15-0.45c-0.167-0.3-0.267-0.866-0.3-1.7
	l-0.45,1.95l0.45-1.95c0.033,0.834,0.133,1.4,0.3,1.7c0.067,0.267,2.117,0.417,6.15,0.45c3.967,0.133,6.1,0.066,6.4-0.2
	c0.3-0.233,0.45-1.116,0.45-2.65H40.785z"></path>
<polygon fill-rule="evenodd" clip-rule="evenodd" fill="#FFFFFF" points="26.885,44.076 26.835,44.076 26.835,44.126 "></polygon>
<path fill-rule="evenodd" clip-rule="evenodd" fill="#FFFFFF" d="M28.335,26.976h12.85c-0.1-0.066-0.183-0.149-0.25-0.25
	c-0.367-0.866-0.55-1.766-0.55-2.699c0-1-0.017-2-0.05-3c-0.034-1.134-0.1-2.25-0.2-3.351v-0.05c-0.067,0-0.117,0.017-0.15,0.05
	c-0.867,0.4-1.45,0.983-1.75,1.75c-0.067-0.033-0.1-0.066-0.1-0.1c-0.2-0.134-0.367-0.284-0.5-0.45
	c-1.567-1.467-2.917-3.066-4.05-4.8l2.25-2.851l-2.25,2.851c1.133,1.733,2.483,3.333,4.05,4.8c0.133,0.166,0.3,0.316,0.5,0.45
	c0,0.033,0.033,0.066,0.1,0.1c0.3-0.767,0.883-1.35,1.75-1.75c0.033-0.033,0.083-0.05,0.15-0.05v0.05
	c0.1,1.101,0.167,2.217,0.2,3.351c0.033,1,0.05,2,0.05,3c0,0.934,0.183,1.833,0.55,2.699c0.067,0.101,0.15,0.184,0.25,0.25H28.335z"></path>
<path fill-rule="evenodd" clip-rule="evenodd" fill="#FFFFFF" d="M39.685,14.826c0.1,0.167,0.217,0.384,0.35,0.649
	c0-0.366,0.017-0.6,0.05-0.699c-0.034,0.1-0.05,0.333-0.05,0.699C39.901,15.21,39.785,14.993,39.685,14.826z"></path>
<path fill-rule="evenodd" clip-rule="evenodd" fill="#FFFFFF" d="M27.735,38.776c0.267-0.167,1.8-0.25,4.6-0.25l-1.65-2.351
	l2.1-1.35c-0.1-0.333-0.2-0.667-0.3-1c-0.233-0.601-0.467-1.217-0.7-1.851c-0.133-0.3-0.066-0.583,0.2-0.85
	c1.433-1.066,3.183-1.483,5.25-1.25l1,2.65l2.65-0.7c0.067-2.5,0.2-4.05,0.4-4.65c0.133,0,0.25,0,0.35,0
	c0.2-0.033,0.35-0.05,0.45-0.05l-0.9-0.15l0.9,0.15c-0.1,0-0.25,0.017-0.45,0.05c-0.1,0-0.217,0-0.35,0
	c-0.2,0.601-0.333,2.15-0.4,4.65l-2.65,0.7l-1-2.65c-2.067-0.233-3.817,0.184-5.25,1.25c-0.267,0.267-0.333,0.55-0.2,0.85
	c0.233,0.634,0.467,1.25,0.7,1.851c0.1,0.333,0.2,0.667,0.3,1l-2.1,1.35l1.65,2.351C29.535,38.526,28.001,38.609,27.735,38.776z"></path>
<path fill-rule="evenodd" clip-rule="evenodd" fill="#FFFFFF" d="M38.235,32.526l1.4,1.899c-1.733-0.033-3.467,0.4-5.2,1.3
	l-1.1,0.601l-0.55-1.5l0.55,1.5l1.1-0.601c1.733-0.899,3.467-1.333,5.2-1.3L38.235,32.526z"></path>
<path fill-rule="evenodd" clip-rule="evenodd" fill="#FFFFFF" d="M32.335,38.526c0.233,0.699,0.267,1.399,0.1,2.1
	c-0.133,0.467-0.033,0.783,0.3,0.95l1.45-0.9c0.534-0.167,1.083-0.316,1.65-0.45c1.3-0.166,2.5-0.583,3.6-1.25l1.25-0.649
	c0.833-0.467,1.717-0.8,2.65-1c0.633-0.101,1.066-0.384,1.3-0.851c-0.467-0.366-0.95-0.833-1.45-1.399
	c-0.867-1.034-1.633-2.116-2.3-3.25c0.667,1.134,1.433,2.216,2.3,3.25c0.5,0.566,0.983,1.033,1.45,1.399
	c-0.233,0.467-0.667,0.75-1.3,0.851c-0.934,0.2-1.817,0.533-2.65,1l-1.25,0.649c-1.1,0.667-2.3,1.084-3.6,1.25
	c-0.567,0.134-1.117,0.283-1.65,0.45l-1.45,0.9c-0.333-0.167-0.434-0.483-0.3-0.95C32.602,39.926,32.568,39.226,32.335,38.526z"></path>
<path fill-rule="evenodd" clip-rule="evenodd" fill="#FFFFFF" d="M42.085,27.126h1.55H42.085z"></path>
<path fill-rule="evenodd" clip-rule="evenodd" fill="#FFFFFF" d="M40.685,39.226v-0.899V39.226z"></path>
<path fill-rule="evenodd" clip-rule="evenodd" fill="#FFFFFF" d="M39.435,38.976l1.15,0.25L39.435,38.976z"></path>
<polygon fill-rule="evenodd" clip-rule="evenodd" fill="#FFFFFF" points="40.135,17.626 41.485,17.326 40.035,15.476 41.485,17.326 
	"></polygon>
<path fill-rule="evenodd" clip-rule="evenodd" fill="#FFFFFF" d="M27.335,40.226v1.9V40.226z"></path>
<path fill-rule="evenodd" clip-rule="evenodd" fill="none" stroke="#383635" stroke-width="0.3" d="M27.735,27.426l-0.1-0.25
	c-0.133-0.1-0.367-0.167-0.7-0.2c-0.033,0-1.25-0.016-3.65-0.05c-0.9-0.033-1.967-0.05-3.2-0.05c-1.133,0-2.4,0-3.8,0
	c-2.167-0.033-6.4-0.084-12.7-0.15c-0.6,0.033-1,0.051-1.2,0.051c-0.533,0.033-0.867,0.399-1,1.1l-0.15,2.65
	c0.967-0.033,1.883,0.033,2.75,0.199c0.167,0.101,0.333,0.217,0.5,0.351c0.167,0.7,0.283,1.399,0.35,2.1
	c0.133,1.333,0.233,2.667,0.3,4c1.067-1.033,1.383-2.183,0.95-3.45c-0.034-0.1-0.034-0.184,0-0.25l3.95,0.65l3.2-2.55
	c0.9-0.067,1.617,0.25,2.15,0.95c0.467,0.566,1.017,1.083,1.65,1.55c0.8,0.5,1.5,1.134,2.1,1.899c-1.233,0.367-1.933,1.25-2.1,2.65
	l10.2,0.55l0.1,1.05l0.4-1.449V27.426z" style="stroke: rgb(0, 0, 0);"></path>
<path fill-rule="evenodd" clip-rule="evenodd" fill="none" stroke="#383635" stroke-width="0.3" d="M1.235,30.526
	c-0.7,0.232-1.067,0.699-1.1,1.399c-0.033,1.333,0.017,2.7,0.15,4.101c0.167,1.533,0.317,2.982,0.45,4.35
	c0.1,0.834,0.167,1.7,0.2,2.6c0.034,0.4,0.184,0.667,0.45,0.801c0.733,0.399,1.533,0.5,2.4,0.3c0.2,0,0.417,0.017,0.65,0.05
	c0.233-0.133,0.467-0.25,0.7-0.35c-0.167-0.367-0.267-1.217-0.3-2.551c0-1.5,0.15-2.316,0.45-2.449l-0.05-0.351
	c-0.467,0.067-0.684-0.033-0.65-0.3c0.066-0.334,0.25-0.65,0.55-0.95" style="stroke: rgb(0, 0, 0);"></path>
<path fill-rule="evenodd" clip-rule="evenodd" fill="none" stroke="#383635" stroke-width="0.3" d="M5.285,38.776
	c0.1-0.066,0.4-0.117,0.9-0.15l-0.95-0.2" style="stroke: rgb(0, 0, 0);"></path>
<polyline fill-rule="evenodd" clip-rule="evenodd" fill="none" stroke="#383635" stroke-width="0.3" points="10.035,34.126 
	15.235,37.876 16.235,38.626 16.935,39.076 17.035,38.626 " style="stroke: rgb(0, 0, 0);"></polyline>
<path fill-rule="evenodd" clip-rule="evenodd" fill="none" stroke="#383635" stroke-width="0.3" d="M15.235,37.876l-0.1,0.85
	c0.133-0.033,0.5-0.066,1.1-0.1" style="stroke: rgb(0, 0, 0);"></path>
<path fill-rule="evenodd" clip-rule="evenodd" fill="none" stroke="#383635" stroke-width="0.3" d="M6.185,38.626
	c1.534,0.733,3.167,1.283,4.9,1.65c0.8,0.1,1.55,0.333,2.25,0.699c0.7,0.367,1.383,0.467,2.05,0.301l-0.25-2.551" style="stroke: rgb(0, 0, 0);"></path>
<path fill-rule="evenodd" clip-rule="evenodd" fill="none" stroke="#383635" stroke-width="0.3" d="M26.835,44.076
	c-0.133,0.134-0.684,0.216-1.65,0.25c-0.667,0-1.3,0-1.9,0c-1.133,0-2.2,0.017-3.2,0.05c-4.2,0-7.083-0.033-8.65-0.1
	c-4.1-0.033-6.2-0.2-6.3-0.5" style="stroke: rgb(0, 0, 0);"></path>
<path fill-rule="evenodd" clip-rule="evenodd" fill="none" stroke="#383635" stroke-width="0.3" d="M1.385,43.776
	c-0.067,0.8,0.217,1.416,0.85,1.85c0.1,0.1,0.233,0.184,0.4,0.25h33.45l11.1-0.35l0.3-42.8c-0.133-0.4-0.434-0.684-0.9-0.85
	c-0.167-0.133-0.333-0.2-0.5-0.2c-0.267-0.066-0.517-0.117-0.75-0.15c0.4,0.767,0.517,1.533,0.35,2.3c-0.033,0.2-0.066,0.4-0.1,0.6
	c-0.067,0.233-0.15,0.467-0.25,0.7c0.433-0.167,0.683,1.133,0.75,3.9c0.1,2.233,0.2,5.8,0.3,10.7c0,1.2,0.017,2.484,0.05,3.851
	c-0.066,2.134-0.2,3.233-0.4,3.3c-0.367,0.133-1.167,0.217-2.4,0.25c1.533,0,2.417,0.133,2.65,0.4c0.267,0.3,0.383,2.982,0.35,8.05
	c-0.1,5.134-0.283,7.767-0.55,7.899c-0.4,0.101-1.284,0.167-2.65,0.2c-1.5,0.034-2.333-0.1-2.5-0.399
	c-0.1-0.134-0.15-0.75-0.15-1.851" style="stroke: rgb(0, 0, 0);"></path>
<path fill-rule="evenodd" clip-rule="evenodd" fill="none" stroke="#383635" stroke-width="0.3" d="M40.635,41.426
	c0,1.534-0.15,2.417-0.45,2.65c-0.3,0.267-2.433,0.333-6.4,0.2c-4.033-0.033-6.083-0.184-6.15-0.45c-0.167-0.3-0.267-0.866-0.3-1.7
	l-0.45,1.95h-0.05" style="stroke: rgb(0, 0, 0);"></path>
<path fill-rule="evenodd" clip-rule="evenodd" fill="none" stroke="#383635" stroke-width="0.3" d="M45.335,1.526
	c-1.1-0.566-2.284-0.767-3.55-0.6c-0.7-0.066-1.383-0.133-2.05-0.2c-0.833-0.1-1.65-0.184-2.45-0.25
	c-1.433-0.133-2.867-0.25-4.3-0.35c-0.7,0.167-1.167,0.583-1.4,1.25c0.033,0.7,0.083,1.417,0.15,2.15c0,0.167,0.033,0.317,0.1,0.45
	c0.533,0.733,1.367,1.1,2.5,1.1c1.367,0,2.75,0.033,4.15,0.1c0.3-0.3,0.617-0.583,0.95-0.85c0.367,0.233,0.483,0.533,0.35,0.9
	l0.35,0.1l5.2-0.2" style="stroke: rgb(0, 0, 0);"></path>
<path fill-rule="evenodd" clip-rule="evenodd" fill="none" stroke="#383635" stroke-width="0.3" d="M38.485,5.176
	c-1.1,0.9-2.3,1.184-3.6,0.85c-0.1,0-0.183,0.017-0.25,0.05l1.2,5.149c0.033-0.1,0.066-0.199,0.1-0.3
	c0.133-0.366,0.333-0.333,0.6,0.101c0.4,0.633,0.934,1.283,1.6,1.949c0.5,0.5,1.017,1.117,1.55,1.851l0.4-0.05l2.65,0.25
	c0-0.066,0.017-0.117,0.05-0.15c0.1-0.3,0.05-0.633-0.15-1c-0.467-0.934-0.783-1.916-0.95-2.95c-0.1-0.6-0.25-1.183-0.45-1.75
	c-0.4-0.966-0.817-1.966-1.25-3l-0.2-0.95" style="stroke: rgb(0, 0, 0);"></path>
<path fill-rule="evenodd" clip-rule="evenodd" fill="none" stroke="#383635" stroke-width="0.3" d="M31.585,1.376l-2.75,0.15
	c-0.733,0.133-1.117,0.467-1.15,1c0,0.167-0.017,0.533-0.05,1.1c0.067,6.067,0.133,10.166,0.2,12.3c0,1.333,0,2.601,0,3.8
	c-0.034,1.367-0.067,2.65-0.1,3.851c0,0.6,0,1.216,0,1.85c0,0.233,0.017,0.483,0.05,0.75c0.067,0.534,0.25,0.8,0.55,0.8h12.85
	c-0.1-0.066-0.183-0.149-0.25-0.25c-0.367-0.866-0.55-1.766-0.55-2.699c0-1-0.017-2-0.05-3c-0.034-1.134-0.1-2.25-0.2-3.351v-0.05
	c-0.067,0-0.117,0.017-0.15,0.05c-0.867,0.4-1.45,0.983-1.75,1.75c-0.067-0.033-0.1-0.066-0.1-0.1c-0.2-0.134-0.367-0.284-0.5-0.45
	c-1.567-1.467-2.917-3.066-4.05-4.8l2.25-2.851" style="stroke: rgb(0, 0, 0);"></path>
<path fill-rule="evenodd" clip-rule="evenodd" fill="none" stroke="#383635" stroke-width="0.3" d="M39.985,6.176
	c0.033-0.5,0.083-0.783,0.15-0.85" style="stroke: rgb(0, 0, 0);"></path>
<path fill-rule="evenodd" clip-rule="evenodd" fill="none" stroke="#383635" stroke-width="0.3" d="M39.685,14.826
	c0.1,0.167,0.217,0.384,0.35,0.649c0-0.366,0.017-0.6,0.05-0.699" style="stroke: rgb(0, 0, 0);"></path>
<path fill-rule="evenodd" clip-rule="evenodd" fill="none" stroke="#383635" stroke-width="0.3" d="M28.335,26.976
	c-0.333,0.101-0.534,0.25-0.6,0.45" style="stroke: rgb(0, 0, 0);"></path>
<path fill-rule="evenodd" clip-rule="evenodd" fill="none" stroke="#383635" stroke-width="0.3" d="M27.735,38.776
	c0.267-0.167,1.8-0.25,4.6-0.25l-1.65-2.351l2.1-1.35c-0.1-0.333-0.2-0.667-0.3-1c-0.233-0.601-0.467-1.217-0.7-1.851
	c-0.133-0.3-0.066-0.583,0.2-0.85c1.433-1.066,3.183-1.483,5.25-1.25l1,2.65l2.65-0.7c0.067-2.5,0.2-4.05,0.4-4.65
	c0.133,0,0.25,0,0.35,0c0.2-0.033,0.35-0.05,0.45-0.05l-0.9-0.15" style="stroke: rgb(0, 0, 0);"></path>
<path fill-rule="evenodd" clip-rule="evenodd" fill="none" stroke="#383635" stroke-width="0.3" d="M38.235,32.526l1.4,1.899
	c-1.733-0.033-3.467,0.4-5.2,1.3l-1.1,0.601l-0.55-1.5" style="stroke: rgb(0, 0, 0);"></path>
<path fill-rule="evenodd" clip-rule="evenodd" fill="none" stroke="#383635" stroke-width="0.3" d="M32.335,38.526
	c0.233,0.699,0.267,1.399,0.1,2.1c-0.133,0.467-0.033,0.783,0.3,0.95l1.45-0.9c0.534-0.167,1.083-0.316,1.65-0.45
	c1.3-0.166,2.5-0.583,3.6-1.25l1.25-0.649c0.833-0.467,1.717-0.8,2.65-1c0.633-0.101,1.066-0.384,1.3-0.851
	c-0.467-0.366-0.95-0.833-1.45-1.399c-0.867-1.034-1.633-2.116-2.3-3.25" style="stroke: rgb(0, 0, 0);"></path>
<line fill-rule="evenodd" clip-rule="evenodd" fill="none" stroke="#383635" stroke-width="0.3" x1="42.085" y1="27.126" x2="43.635" y2="27.126" style="stroke: rgb(0, 0, 0);"></line>
<line fill-rule="evenodd" clip-rule="evenodd" fill="none" stroke="#383635" stroke-width="0.3" x1="40.685" y1="39.226" x2="40.685" y2="38.326" style="stroke: rgb(0, 0, 0);"></line>
<line fill-rule="evenodd" clip-rule="evenodd" fill="none" stroke="#383635" stroke-width="0.3" x1="39.435" y1="38.976" x2="40.585" y2="39.226" style="stroke: rgb(0, 0, 0);"></line>
<polyline fill-rule="evenodd" clip-rule="evenodd" fill="none" stroke="#383635" stroke-width="0.3" points="40.135,17.626 
	41.485,17.326 40.035,15.476 " style="stroke: rgb(0, 0, 0);"></polyline>
<line fill-rule="evenodd" clip-rule="evenodd" fill="none" stroke="#383635" stroke-width="0.3" x1="40.635" y1="41.426" x2="40.585" y2="39.226" style="stroke: rgb(0, 0, 0);"></line>
<line fill-rule="evenodd" clip-rule="evenodd" fill="none" stroke="#383635" stroke-width="0.3" x1="27.335" y1="40.226" x2="27.335" y2="42.126" style="stroke: rgb(0, 0, 0);"></line>
<line fill-rule="evenodd" clip-rule="evenodd" fill="none" stroke="#383635" stroke-width="0.3" x1="40.685" y1="39.226" x2="40.785" y2="41.426" style="stroke: rgb(0, 0, 0);"></line>
</svg>