<svg version="1.1" id="Layer_1" xmlns="http://www.w3.org/2000/svg" xmlns:xlink="http://www.w3.org/1999/xlink" x="0px" y="0px" width="34.605px" height="21.05px" viewBox="0 0 34.605 21.05" enable-background="new 0 0 34.605 21.05" xml:space="preserve" class="ng-scope">
<path fill-rule="evenodd" clip-rule="evenodd" fill="#FFFFFF" d="M2.252,5.575l-0.05,0.05h0.05c0.167,0.267,0.45,1.3,0.85,3.101
	c0.367,1.866,0.05,4.05-0.95,6.55v0.05l0.05,0.05c0.267,0.567,0.783,0.717,1.55,0.45c0.333-0.033,0.65-0.066,0.95-0.1
	c-1.467-3.467-1.467-6.884,0-10.25c-0.3-0.033-0.617-0.066-0.95-0.101C3.186,5.042,2.686,5.108,2.252,5.575
	c0.434-0.467,0.934-0.533,1.5-0.2c0.333,0.034,0.65,0.067,0.95,0.101c-1.467,3.366-1.467,6.783,0,10.25
	c-0.3,0.033-0.617,0.066-0.95,0.1c-0.767,0.267-1.283,0.117-1.55-0.45l-0.05-0.05v-0.05c1-2.5,1.317-4.684,0.95-6.55
	c-0.4-1.801-0.683-2.834-0.85-3.101h-0.05L2.252,5.575z"></path>
<path fill-rule="evenodd" clip-rule="evenodd" fill="#FFFFFF" d="M25.502,16.925c-0.267,0.334-0.55,0.65-0.85,0.95
	c-2.033,2.034-4.483,3.05-7.35,3.05s-5.3-1.016-7.3-3.05c-0.3-0.3-0.583-0.616-0.85-0.95c-0.367-0.434-0.667-0.883-0.9-1.35
	c0.233,0.467,0.533,0.916,0.9,1.35l-7.25-0.25c-0.333-0.033-0.566-0.166-0.7-0.399c-1.367-3.9-1.434-7.583-0.2-11.05
	c0-0.066,0.033-0.15,0.1-0.25c0.167-0.334,0.383-0.533,0.65-0.601l7.4-0.25c-0.4,0.5-0.733,1.017-1,1.55
	c0.267-0.533,0.6-1.05,1-1.55c0.267-0.333,0.55-0.649,0.85-0.95c2-2.033,4.434-3.05,7.3-3.05s5.316,1.017,7.35,3.05
	c0.3,0.301,0.583,0.617,0.85,0.95l7.35,0.25c0.267,0.067,0.483,0.267,0.65,0.601c0.067,0.1,0.1,0.184,0.1,0.25
	c1.233,3.467,1.167,7.149-0.2,11.05c-0.133,0.233-0.367,0.366-0.7,0.399L25.502,16.925c0.333-0.434,0.633-0.883,0.9-1.35
	C26.136,16.042,25.836,16.491,25.502,16.925z"></path>
<path fill-rule="evenodd" clip-rule="evenodd" fill="#FFFFFF" d="M8.252,15.575c-0.867-1.5-1.3-3.184-1.3-5.05
	c0-1.767,0.4-3.384,1.2-4.851c-1.133-0.033-2.283-0.1-3.45-0.199c1.167,0.1,2.316,0.166,3.45,0.199c-0.8,1.467-1.2,3.084-1.2,4.851
	C6.953,12.392,7.386,14.075,8.252,15.575c-1.2,0.033-2.383,0.084-3.55,0.15C5.869,15.659,7.053,15.608,8.252,15.575z"></path>
<path fill-rule="evenodd" clip-rule="evenodd" fill="#FFFFFF" d="M2.152,15.275c-1-3.333-0.983-6.55,0.05-9.65
	C1.169,8.726,1.152,11.942,2.152,15.275z"></path>
<path fill-rule="evenodd" clip-rule="evenodd" fill="#FFFFFF" d="M25.502,4.125c0.367,0.5,0.7,1.017,1,1.55
	C26.203,5.142,25.869,4.625,25.502,4.125z"></path>
<path fill-rule="evenodd" clip-rule="evenodd" fill="#FFFFFF" d="M26.502,5.675c1.1-0.033,2.233-0.1,3.4-0.199
	c0.3-0.033,0.617-0.066,0.95-0.101c0.567-0.333,1.067-0.267,1.5,0.2l0.05,0.05c1.034,3.101,1.05,6.317,0.05,9.65v0.1
	c-0.3,0.567-0.833,0.717-1.6,0.45c-0.333-0.033-0.65-0.066-0.95-0.1c-1.167-0.066-2.333-0.117-3.5-0.15
	c1.167,0.033,2.333,0.084,3.5,0.15c0.3,0.033,0.617,0.066,0.95,0.1c0.767,0.267,1.3,0.117,1.6-0.45v-0.1
	c1-3.333,0.983-6.55-0.05-9.65l-0.05-0.05c-0.433-0.467-0.933-0.533-1.5-0.2c-0.333,0.034-0.65,0.067-0.95,0.101
	C28.736,5.575,27.603,5.642,26.502,5.675c0.767,1.467,1.15,3.084,1.15,4.851c0,1.866-0.417,3.55-1.25,5.05
	c0.833-1.5,1.25-3.184,1.25-5.05C27.652,8.759,27.269,7.142,26.502,5.675z"></path>
<path fill-rule="evenodd" clip-rule="evenodd" fill="#FFFFFF" d="M32.453,15.275c-1-2.5-1.317-4.684-0.95-6.55
	c0.4-1.801,0.684-2.834,0.85-3.101h0.05h-0.05c-0.167,0.267-0.45,1.3-0.85,3.101C31.136,10.592,31.453,12.775,32.453,15.275z"></path>
<path fill-rule="evenodd" clip-rule="evenodd" fill="#FFFFFF" d="M29.902,15.726c1.467-3.467,1.467-6.884,0-10.25
	C31.369,8.842,31.369,12.259,29.902,15.726z"></path>
<path fill-rule="evenodd" clip-rule="evenodd" fill="none" stroke="#383635" stroke-width="0.3" stroke-linecap="round" stroke-linejoin="round" stroke-miterlimit="3" d="
	M2.252,5.575l-0.05,0.05h0.05c0.167,0.267,0.45,1.3,0.85,3.101c0.367,1.866,0.05,4.05-0.95,6.55v0.05l0.05,0.05
	c0.267,0.567,0.783,0.717,1.55,0.45c0.333-0.033,0.65-0.066,0.95-0.1c-1.467-3.467-1.467-6.884,0-10.25
	c-0.3-0.033-0.617-0.066-0.95-0.101C3.186,5.042,2.686,5.108,2.252,5.575z" style="stroke: rgb(0, 0, 0);"></path>
<path fill-rule="evenodd" clip-rule="evenodd" fill="none" stroke="#383635" stroke-width="0.3" stroke-linecap="round" stroke-linejoin="round" stroke-miterlimit="3" d="
	M9.152,4.125l-7.4,0.25c-0.267,0.067-0.483,0.267-0.65,0.601c-0.067,0.1-0.1,0.184-0.1,0.25c-1.233,3.467-1.167,7.149,0.2,11.05
	c0.133,0.233,0.367,0.366,0.7,0.399l7.25,0.25" style="stroke: rgb(0, 0, 0);"></path>
<path fill-rule="evenodd" clip-rule="evenodd" fill="none" stroke="#383635" stroke-width="0.3" stroke-linecap="round" stroke-linejoin="round" stroke-miterlimit="3" d="
	M8.252,15.575c-1.2,0.033-2.383,0.084-3.55,0.15" style="stroke: rgb(0, 0, 0);"></path>
<path fill-rule="evenodd" clip-rule="evenodd" fill="none" stroke="#383635" stroke-width="0.3" stroke-linecap="round" stroke-linejoin="round" stroke-miterlimit="3" d="
	M4.703,5.476c1.167,0.1,2.316,0.166,3.45,0.199" style="stroke: rgb(0, 0, 0);"></path>
<path fill-rule="evenodd" clip-rule="evenodd" fill="none" stroke="#383635" stroke-width="0.3" stroke-linecap="round" stroke-linejoin="round" stroke-miterlimit="3" d="
	M2.152,15.275c-1-3.333-0.983-6.55,0.05-9.65" style="stroke: rgb(0, 0, 0);"></path>
<path fill-rule="evenodd" clip-rule="evenodd" fill="none" stroke="#383635" stroke-width="0.3" stroke-linecap="round" stroke-linejoin="round" stroke-miterlimit="3" d="
	M25.502,4.125l7.35,0.25c0.267,0.067,0.483,0.267,0.65,0.601c0.067,0.1,0.1,0.184,0.1,0.25c1.233,3.467,1.167,7.149-0.2,11.05
	c-0.133,0.233-0.367,0.366-0.7,0.399l-7.2,0.25" style="stroke: rgb(0, 0, 0);"></path>
<path fill-rule="evenodd" clip-rule="evenodd" fill="none" stroke="#383635" stroke-width="0.3" stroke-linecap="round" stroke-linejoin="round" stroke-miterlimit="3" d="
	M26.502,5.675c1.1-0.033,2.233-0.1,3.4-0.199c0.3-0.033,0.617-0.066,0.95-0.101c0.567-0.333,1.067-0.267,1.5,0.2l0.05,0.05
	c1.034,3.101,1.05,6.317,0.05,9.65v0.1c-0.3,0.567-0.833,0.717-1.6,0.45c-0.333-0.033-0.65-0.066-0.95-0.1
	c-1.167-0.066-2.333-0.117-3.5-0.15" style="stroke: rgb(0, 0, 0);"></path>
<path fill-rule="evenodd" clip-rule="evenodd" fill="none" stroke="#383635" stroke-width="0.3" stroke-linecap="round" stroke-linejoin="round" stroke-miterlimit="3" d="
	M32.453,15.275c-1-2.5-1.317-4.684-0.95-6.55c0.4-1.801,0.684-2.834,0.85-3.101h0.05" style="stroke: rgb(0, 0, 0);"></path>
<path fill-rule="evenodd" clip-rule="evenodd" fill="none" stroke="#383635" stroke-width="0.3" stroke-linecap="round" stroke-linejoin="round" stroke-miterlimit="3" d="
	M29.902,15.726c1.467-3.467,1.467-6.884,0-10.25" style="stroke: rgb(0, 0, 0);"></path>
<path fill-rule="evenodd" clip-rule="evenodd" fill="none" stroke="#383635" stroke-width="0.3" d="M9.152,16.925
	c-0.367-0.434-0.667-0.883-0.9-1.35c-0.867-1.5-1.3-3.184-1.3-5.05c0-1.767,0.4-3.384,1.2-4.851c0.267-0.533,0.6-1.05,1-1.55
	c0.267-0.333,0.55-0.649,0.85-0.95c2-2.033,4.434-3.05,7.3-3.05s5.316,1.017,7.35,3.05c0.3,0.301,0.583,0.617,0.85,0.95
	c0.367,0.5,0.7,1.017,1,1.55c0.767,1.467,1.15,3.084,1.15,4.851c0,1.866-0.417,3.55-1.25,5.05c-0.267,0.467-0.566,0.916-0.9,1.35
	c-0.267,0.334-0.55,0.65-0.85,0.95c-2.033,2.034-4.483,3.05-7.35,3.05s-5.3-1.016-7.3-3.05C9.703,17.575,9.419,17.259,9.152,16.925z
	" style="stroke: rgb(0, 0, 0);"></path>
</svg>