<svg version="1.1" id="Layer_1" xmlns="http://www.w3.org/2000/svg" xmlns:xlink="http://www.w3.org/1999/xlink" x="0px" y="0px" width="39.205px" height="39.206px" viewBox="0 0 39.205 39.206" enable-background="new 0 0 39.205 39.206" xml:space="preserve" class="ng-scope">
<path fill-rule="evenodd" clip-rule="evenodd" fill="#FFFFFF" d="M37.053,14.802h-0.05c-0.267-0.6-0.783-0.766-1.55-0.5
	c-0.333,0.033-0.65,0.066-0.95,0.101c1.467,3.466,1.467,6.884,0,10.25c0.3,0.033,0.617,0.066,0.95,0.1
	c0.567,0.333,1.067,0.267,1.5-0.2l0.05-0.05h-0.05c-0.167-0.267-0.45-1.3-0.85-3.1c-0.367-1.866-0.05-4.05,0.95-6.55V14.802v0.051
	c-1,2.5-1.317,4.684-0.95,6.55c0.4,1.8,0.684,2.833,0.85,3.1h0.05l-0.05,0.05c-0.433,0.467-0.933,0.533-1.5,0.2
	c-0.333-0.033-0.65-0.066-0.95-0.1c1.467-3.366,1.467-6.784,0-10.25c0.3-0.034,0.617-0.067,0.95-0.101
	c0.767-0.266,1.283-0.1,1.55,0.5H37.053z"></path>
<path fill-rule="evenodd" clip-rule="evenodd" fill="#FFFFFF" d="M26.002,8.953h-1.55h-9.85h-1.35h1.35h9.85H26.002h4.35v4.3
	l6.95,0.2c0.333,0.033,0.566,0.166,0.7,0.4c1.367,3.899,1.434,7.583,0.2,11.05c0,0.066-0.033,0.149-0.1,0.25
	c-0.167,0.333-0.383,0.533-0.65,0.6l-7.1,0.25v4.3h-4.35l-0.25,7.15c-0.066,0.267-0.267,0.483-0.6,0.65
	c-0.1,0.066-0.184,0.1-0.25,0.1c-3.467,1.233-7.15,1.166-11.05-0.2c-0.233-0.134-0.367-0.366-0.4-0.7l-0.2-7h-4.25v-4.3l-7.1-0.25
	c-0.333-0.033-0.567-0.167-0.7-0.399c-1.367-3.9-1.433-7.584-0.2-11.051c0-0.066,0.034-0.149,0.1-0.25
	c0.167-0.333,0.383-0.533,0.65-0.6l7.25-0.25v-4.25h4.25l0.2-7.05c0.033-0.333,0.167-0.567,0.4-0.7c3.9-1.367,7.583-1.433,11.05-0.2
	c0.066,0,0.15,0.034,0.25,0.1c0.333,0.167,0.533,0.383,0.6,0.65L26.002,8.953z"></path>
<path fill-rule="evenodd" clip-rule="evenodd" fill="#FFFFFF" d="M37.002,24.502c1.034-3.1,1.05-6.316,0.05-9.649
	C38.053,18.186,38.036,21.403,37.002,24.502z"></path>
<path fill-rule="evenodd" clip-rule="evenodd" fill="#FFFFFF" d="M14.803,2.153v0.05c-0.6,0.267-0.767,0.783-0.5,1.55
	c0.033,0.333,0.066,0.65,0.1,0.95c3.466-1.467,6.883-1.467,10.25,0c0.033-0.3,0.066-0.617,0.1-0.95c0.333-0.566,0.267-1.066-0.2-1.5
	l-0.05-0.05v0.05c-0.267,0.167-1.3,0.45-3.1,0.85c-1.867,0.367-4.05,0.05-6.55-0.95H14.803h0.05c2.5,1,4.684,1.316,6.55,0.95
	c1.8-0.4,2.833-0.683,3.1-0.85v-0.05l0.05,0.05c0.467,0.434,0.533,0.934,0.2,1.5c-0.033,0.333-0.066,0.65-0.1,0.95
	c-3.367-1.467-6.784-1.467-10.25,0c-0.034-0.3-0.067-0.617-0.1-0.95c-0.267-0.767-0.1-1.283,0.5-1.55V2.153z"></path>
<path fill-rule="evenodd" clip-rule="evenodd" fill="#FFFFFF" d="M14.403,4.703c0.1,1.4,0.167,2.816,0.2,4.25
	C14.569,7.519,14.502,6.103,14.403,4.703z"></path>
<path fill-rule="evenodd" clip-rule="evenodd" fill="#FFFFFF" d="M24.453,8.953c0-1.367,0.067-2.783,0.2-4.25
	C24.52,6.169,24.453,7.585,24.453,8.953z"></path>
<path fill-rule="evenodd" clip-rule="evenodd" fill="#FFFFFF" d="M24.502,2.203c-3.1-1.033-6.316-1.05-9.65-0.05
	C18.186,1.153,21.403,1.169,24.502,2.203z"></path>
<polygon fill-rule="evenodd" clip-rule="evenodd" fill="#FFFFFF" points="9.002,13.203 9.002,14.752 9.002,24.653 9.002,26.002 
	9.002,24.653 9.002,14.752 "></polygon>
<path fill-rule="evenodd" clip-rule="evenodd" fill="#FFFFFF" d="M3.103,17.802c0.367,1.867,0.05,4.051-0.95,6.551v0.05h0.05
	c0.267,0.6,0.783,0.767,1.55,0.5c0.333-0.034,0.65-0.067,0.95-0.101c-1.467-3.467-1.467-6.883,0-10.25
	c-0.3-0.033-0.617-0.066-0.95-0.1c-0.566-0.334-1.066-0.267-1.5,0.2l-0.05,0.05h0.05C2.419,14.969,2.703,16.002,3.103,17.802
	c-0.4-1.8-0.683-2.833-0.85-3.1h-0.05l0.05-0.05c0.434-0.467,0.934-0.534,1.5-0.2c0.333,0.033,0.65,0.066,0.95,0.1
	c-1.467,3.367-1.467,6.783,0,10.25c-0.3,0.033-0.617,0.066-0.95,0.101c-0.767,0.267-1.283,0.1-1.55-0.5h-0.05v-0.05
	C3.153,21.853,3.469,19.669,3.103,17.802z"></path>
<path fill-rule="evenodd" clip-rule="evenodd" fill="#FFFFFF" d="M9.002,14.752c-1.4,0-2.833-0.066-4.3-0.2
	C6.169,14.686,7.603,14.752,9.002,14.752z"></path>
<path fill-rule="evenodd" clip-rule="evenodd" fill="#FFFFFF" d="M4.703,24.802c1.433-0.1,2.867-0.149,4.3-0.149
	C7.569,24.653,6.136,24.703,4.703,24.802z"></path>
<path fill-rule="evenodd" clip-rule="evenodd" fill="#FFFFFF" d="M2.153,24.353c-1-3.334-0.983-6.551,0.05-9.65
	C1.169,17.802,1.153,21.019,2.153,24.353z"></path>
<polygon fill-rule="evenodd" clip-rule="evenodd" fill="#FFFFFF" points="30.353,26.002 30.353,24.453 30.353,14.552 30.353,13.252 
	30.353,14.552 30.353,24.453 "></polygon>
<path fill-rule="evenodd" clip-rule="evenodd" fill="#FFFFFF" d="M14.303,35.453c-0.267,0.767-0.1,1.283,0.5,1.55v0.05h0.05
	c2.5-1,4.684-1.316,6.55-0.949c1.8,0.399,2.833,0.684,3.1,0.85v0.05l0.05-0.05c0.467-0.434,0.533-0.934,0.2-1.5
	c-0.033-0.334-0.066-0.65-0.1-0.95c-3.367,1.467-6.784,1.467-10.25,0C14.369,34.802,14.336,35.119,14.303,35.453
	c0.033-0.334,0.066-0.65,0.1-0.95c3.466,1.467,6.883,1.467,10.25,0c0.033,0.3,0.066,0.616,0.1,0.95c0.333,0.566,0.267,1.066-0.2,1.5
	l-0.05,0.05v-0.05c-0.267-0.166-1.3-0.45-3.1-0.85c-1.867-0.367-4.05-0.051-6.55,0.949h-0.05v-0.05
	C14.203,36.736,14.036,36.219,14.303,35.453z"></path>
<path fill-rule="evenodd" clip-rule="evenodd" fill="#FFFFFF" d="M14.553,30.302c0,1.4-0.05,2.801-0.15,4.2
	C14.502,33.103,14.553,31.703,14.553,30.302z"></path>
<polygon fill-rule="evenodd" clip-rule="evenodd" fill="#FFFFFF" points="13.252,30.302 14.553,30.302 24.453,30.302 26.002,30.302 
	24.453,30.302 14.553,30.302 "></polygon>
<path fill-rule="evenodd" clip-rule="evenodd" fill="#FFFFFF" d="M24.653,34.502c-0.133-1.433-0.2-2.833-0.2-4.2
	C24.453,31.669,24.52,33.07,24.653,34.502z"></path>
<path fill-rule="evenodd" clip-rule="evenodd" fill="#FFFFFF" d="M34.502,14.403c-1.367,0.1-2.75,0.149-4.15,0.149
	C31.752,14.552,33.136,14.502,34.502,14.403z"></path>
<path fill-rule="evenodd" clip-rule="evenodd" fill="#FFFFFF" d="M30.353,24.453c1.333,0,2.717,0.066,4.15,0.2
	C33.069,24.519,31.686,24.453,30.353,24.453z"></path>
<path fill-rule="evenodd" clip-rule="evenodd" fill="#FFFFFF" d="M14.853,37.052c3.333,1,6.55,0.984,9.65-0.05
	C21.403,38.037,18.186,38.052,14.853,37.052z"></path>
<path fill-rule="evenodd" clip-rule="evenodd" fill="none" stroke="#383635" stroke-width="0.3" stroke-linecap="round" stroke-linejoin="round" stroke-miterlimit="3" d="
	M37.053,14.802h-0.05c-0.267-0.6-0.783-0.766-1.55-0.5c-0.333,0.033-0.65,0.066-0.95,0.101c1.467,3.466,1.467,6.884,0,10.25
	c0.3,0.033,0.617,0.066,0.95,0.1c0.567,0.333,1.067,0.267,1.5-0.2l0.05-0.05h-0.05c-0.167-0.267-0.45-1.3-0.85-3.1
	c-0.367-1.866-0.05-4.05,0.95-6.55V14.802z" style="stroke: rgb(0, 0, 0);"></path>
<path fill-rule="evenodd" clip-rule="evenodd" fill="none" stroke="#383635" stroke-width="0.3" stroke-linecap="round" stroke-linejoin="round" stroke-miterlimit="3" d="
	M30.353,13.252l6.95,0.2c0.333,0.033,0.566,0.166,0.7,0.4c1.367,3.899,1.434,7.583,0.2,11.05c0,0.066-0.033,0.149-0.1,0.25
	c-0.167,0.333-0.383,0.533-0.65,0.6l-7.1,0.25" style="stroke: rgb(0, 0, 0);"></path>
<path fill-rule="evenodd" clip-rule="evenodd" fill="none" stroke="#383635" stroke-width="0.3" stroke-linecap="round" stroke-linejoin="round" stroke-miterlimit="3" d="
	M26.002,30.302l-0.25,7.15c-0.066,0.267-0.267,0.483-0.6,0.65c-0.1,0.066-0.184,0.1-0.25,0.1c-3.467,1.233-7.15,1.166-11.05-0.2
	c-0.233-0.134-0.367-0.366-0.4-0.7l-0.2-7" style="stroke: rgb(0, 0, 0);"></path>
<path fill-rule="evenodd" clip-rule="evenodd" fill="none" stroke="#383635" stroke-width="0.3" stroke-linecap="round" stroke-linejoin="round" stroke-miterlimit="3" d="
	M9.002,26.002l-7.1-0.25c-0.333-0.033-0.567-0.167-0.7-0.399c-1.367-3.9-1.433-7.584-0.2-11.051c0-0.066,0.034-0.149,0.1-0.25
	c0.167-0.333,0.383-0.533,0.65-0.6l7.25-0.25" style="stroke: rgb(0, 0, 0);"></path>
<path fill-rule="evenodd" clip-rule="evenodd" fill="none" stroke="#383635" stroke-width="0.3" stroke-linecap="round" stroke-linejoin="round" stroke-miterlimit="3" d="
	M13.252,8.953l0.2-7.05c0.033-0.333,0.167-0.567,0.4-0.7c3.9-1.367,7.583-1.433,11.05-0.2c0.066,0,0.15,0.034,0.25,0.1
	c0.333,0.167,0.533,0.383,0.6,0.65l0.25,7.2" style="stroke: rgb(0, 0, 0);"></path>
<path fill-rule="evenodd" clip-rule="evenodd" fill="none" stroke="#383635" stroke-width="0.3" stroke-linecap="round" stroke-linejoin="round" stroke-miterlimit="3" d="
	M37.002,24.502c1.034-3.1,1.05-6.316,0.05-9.649" style="stroke: rgb(0, 0, 0);"></path>
<path fill-rule="evenodd" clip-rule="evenodd" fill="none" stroke="#383635" stroke-width="0.3" stroke-linecap="round" stroke-linejoin="round" stroke-miterlimit="3" d="
	M14.803,2.153v0.05c-0.6,0.267-0.767,0.783-0.5,1.55c0.033,0.333,0.066,0.65,0.1,0.95c3.466-1.467,6.883-1.467,10.25,0
	c0.033-0.3,0.066-0.617,0.1-0.95c0.333-0.566,0.267-1.066-0.2-1.5l-0.05-0.05v0.05c-0.267,0.167-1.3,0.45-3.1,0.85
	c-1.867,0.367-4.05,0.05-6.55-0.95H14.803z" style="stroke: rgb(0, 0, 0);"></path>
<path fill-rule="evenodd" clip-rule="evenodd" fill="none" stroke="#383635" stroke-width="0.3" stroke-linecap="round" stroke-linejoin="round" stroke-miterlimit="3" d="
	M14.403,4.703c0.1,1.4,0.167,2.816,0.2,4.25" style="stroke: rgb(0, 0, 0);"></path>
<path fill-rule="evenodd" clip-rule="evenodd" fill="none" stroke="#383635" stroke-width="0.3" stroke-linecap="round" stroke-linejoin="round" stroke-miterlimit="3" d="
	M24.453,8.953c0-1.367,0.067-2.783,0.2-4.25" style="stroke: rgb(0, 0, 0);"></path>
<path fill-rule="evenodd" clip-rule="evenodd" fill="none" stroke="#383635" stroke-width="0.3" stroke-linecap="round" stroke-linejoin="round" stroke-miterlimit="3" d="
	M24.502,2.203c-3.1-1.033-6.316-1.05-9.65-0.05" style="stroke: rgb(0, 0, 0);"></path>
<path fill-rule="evenodd" clip-rule="evenodd" fill="none" stroke="#383635" stroke-width="0.3" stroke-linecap="round" stroke-linejoin="round" stroke-miterlimit="3" d="
	M3.103,17.802c0.367,1.867,0.05,4.051-0.95,6.551v0.05h0.05c0.267,0.6,0.783,0.767,1.55,0.5c0.333-0.034,0.65-0.067,0.95-0.101
	c-1.467-3.467-1.467-6.883,0-10.25c-0.3-0.033-0.617-0.066-0.95-0.1c-0.566-0.334-1.066-0.267-1.5,0.2l-0.05,0.05h0.05
	C2.419,14.969,2.703,16.002,3.103,17.802z" style="stroke: rgb(0, 0, 0);"></path>
<path fill-rule="evenodd" clip-rule="evenodd" fill="none" stroke="#383635" stroke-width="0.3" stroke-linecap="round" stroke-linejoin="round" stroke-miterlimit="3" d="
	M9.002,14.752c-1.4,0-2.833-0.066-4.3-0.2" style="stroke: rgb(0, 0, 0);"></path>
<path fill-rule="evenodd" clip-rule="evenodd" fill="none" stroke="#383635" stroke-width="0.3" stroke-linecap="round" stroke-linejoin="round" stroke-miterlimit="3" d="
	M4.703,24.802c1.433-0.1,2.867-0.149,4.3-0.149" style="stroke: rgb(0, 0, 0);"></path>
<path fill-rule="evenodd" clip-rule="evenodd" fill="none" stroke="#383635" stroke-width="0.3" stroke-linecap="round" stroke-linejoin="round" stroke-miterlimit="3" d="
	M2.153,24.353c-1-3.334-0.983-6.551,0.05-9.65" style="stroke: rgb(0, 0, 0);"></path>
<path fill-rule="evenodd" clip-rule="evenodd" fill="none" stroke="#383635" stroke-width="0.3" stroke-linecap="round" stroke-linejoin="round" stroke-miterlimit="3" d="
	M14.303,35.453c-0.267,0.767-0.1,1.283,0.5,1.55v0.05h0.05c2.5-1,4.684-1.316,6.55-0.949c1.8,0.399,2.833,0.684,3.1,0.85v0.05
	l0.05-0.05c0.467-0.434,0.533-0.934,0.2-1.5c-0.033-0.334-0.066-0.65-0.1-0.95c-3.367,1.467-6.784,1.467-10.25,0
	C14.369,34.802,14.336,35.119,14.303,35.453z" style="stroke: rgb(0, 0, 0);"></path>
<path fill-rule="evenodd" clip-rule="evenodd" fill="none" stroke="#383635" stroke-width="0.3" stroke-linecap="round" stroke-linejoin="round" stroke-miterlimit="3" d="
	M14.553,30.302c0,1.4-0.05,2.801-0.15,4.2" style="stroke: rgb(0, 0, 0);"></path>
<path fill-rule="evenodd" clip-rule="evenodd" fill="none" stroke="#383635" stroke-width="0.3" stroke-linecap="round" stroke-linejoin="round" stroke-miterlimit="3" d="
	M24.653,34.502c-0.133-1.433-0.2-2.833-0.2-4.2" style="stroke: rgb(0, 0, 0);"></path>
<path fill-rule="evenodd" clip-rule="evenodd" fill="none" stroke="#383635" stroke-width="0.3" stroke-linecap="round" stroke-linejoin="round" stroke-miterlimit="3" d="
	M34.502,14.403c-1.367,0.1-2.75,0.149-4.15,0.149" style="stroke: rgb(0, 0, 0);"></path>
<path fill-rule="evenodd" clip-rule="evenodd" fill="none" stroke="#383635" stroke-width="0.3" stroke-linecap="round" stroke-linejoin="round" stroke-miterlimit="3" d="
	M30.353,24.453c1.333,0,2.717,0.066,4.15,0.2" style="stroke: rgb(0, 0, 0);"></path>
<path fill-rule="evenodd" clip-rule="evenodd" fill="none" stroke="#383635" stroke-width="0.3" stroke-linecap="round" stroke-linejoin="round" stroke-miterlimit="3" d="
	M14.853,37.052c3.333,1,6.55,0.984,9.65-0.05" style="stroke: rgb(0, 0, 0);"></path>
<polyline fill-rule="evenodd" clip-rule="evenodd" fill="none" stroke="#383635" stroke-width="0.3" points="30.353,26.002 
	30.353,30.302 26.002,30.302 " style="stroke: rgb(0, 0, 0);"></polyline>
<polyline fill-rule="evenodd" clip-rule="evenodd" fill="none" stroke="#383635" stroke-width="0.3" points="13.252,30.302 
	9.002,30.302 9.002,26.002 " style="stroke: rgb(0, 0, 0);"></polyline>
<polyline fill-rule="evenodd" clip-rule="evenodd" fill="none" stroke="#383635" stroke-width="0.3" points="9.002,13.203 
	9.002,8.953 13.252,8.953 " style="stroke: rgb(0, 0, 0);"></polyline>
<polyline fill-rule="evenodd" clip-rule="evenodd" fill="none" stroke="#383635" stroke-width="0.3" points="26.002,8.953 
	30.353,8.953 30.353,13.252 " style="stroke: rgb(0, 0, 0);"></polyline>
<polyline fill-rule="evenodd" clip-rule="evenodd" fill="none" stroke="#383635" stroke-width="0.3" points="26.002,8.953 
	24.453,8.953 14.603,8.953 13.252,8.953 " style="stroke: rgb(0, 0, 0);"></polyline>
<polyline fill-rule="evenodd" clip-rule="evenodd" fill="none" stroke="#383635" stroke-width="0.3" points="9.002,13.203 
	9.002,14.752 9.002,24.653 9.002,26.002 " style="stroke: rgb(0, 0, 0);"></polyline>
<polyline fill-rule="evenodd" clip-rule="evenodd" fill="none" stroke="#383635" stroke-width="0.3" points="30.353,26.002 
	30.353,24.453 30.353,14.552 30.353,13.252 " style="stroke: rgb(0, 0, 0);"></polyline>
<polyline fill-rule="evenodd" clip-rule="evenodd" fill="none" stroke="#383635" stroke-width="0.3" points="13.252,30.302 
	14.553,30.302 24.453,30.302 26.002,30.302 " style="stroke: rgb(0, 0, 0);"></polyline>
</svg>