<svg version="1.1" id="Layer_1" xmlns="http://www.w3.org/2000/svg" xmlns:xlink="http://www.w3.org/1999/xlink" x="0px" y="0px" width="56.005px" height="39.806px" viewBox="0 0 56.005 39.806" enable-background="new 0 0 56.005 39.806" xml:space="preserve" class="ng-scope">
<path fill-rule="evenodd" clip-rule="evenodd" fill="#FFFFFF" d="M8.353,15.003v9.899v1.301v-1.301V15.003v-1.5v-5.45h5.5l0.2-6.15
	c0.034-0.333,0.167-0.567,0.4-0.7c3.9-1.367,7.583-1.433,11.05-0.2c0.067,0,0.15,0.033,0.25,0.1c0.333,0.167,0.533,0.383,0.6,0.65
	l0.25,6.3h2.65l0.2-6.15c0.033-0.333,0.167-0.567,0.4-0.7c3.9-1.367,7.583-1.433,11.05-0.2c0.067,0,0.15,0.033,0.25,0.1
	c0.333,0.167,0.534,0.383,0.6,0.65l0.25,6.3h5.6v5.45l6.5,0.2c0.334,0.033,0.566,0.166,0.7,0.399c1.366,3.9,1.434,7.583,0.2,11.05
	c0,0.066-0.033,0.15-0.1,0.25c-0.167,0.334-0.384,0.533-0.65,0.601l-6.65,0.25v5.55h-5.6l-0.25,6.25
	c-0.066,0.267-0.267,0.483-0.6,0.65c-0.1,0.066-0.183,0.1-0.25,0.1c-3.466,1.233-7.15,1.166-11.05-0.2
	c-0.233-0.134-0.367-0.366-0.4-0.7l-0.2-6.1h-2.65l-0.25,6.25c-0.067,0.267-0.267,0.483-0.6,0.65c-0.1,0.066-0.183,0.1-0.25,0.1
	c-3.467,1.233-7.15,1.166-11.05-0.2c-0.233-0.134-0.367-0.366-0.4-0.7l-0.2-6.1h-5.5v-5.6l-6.45-0.2
	c-0.333-0.034-0.566-0.167-0.7-0.4c-1.367-3.899-1.434-7.583-0.2-11.05c0-0.066,0.033-0.15,0.1-0.25
	c0.167-0.334,0.383-0.533,0.65-0.6l6.6-0.2V15.003c-1.2,0-2.417-0.067-3.65-0.2c-0.3-0.033-0.617-0.066-0.95-0.1
	c-0.567-0.334-1.067-0.268-1.5,0.199l-0.05,0.051l0.05-0.051c0.433-0.467,0.933-0.533,1.5-0.199c0.333,0.033,0.65,0.066,0.95,0.1
	C5.936,14.936,7.152,15.003,8.353,15.003z"></path>
<path fill-rule="evenodd" clip-rule="evenodd" fill="#FFFFFF" d="M2.252,14.953c0.167,0.266,0.45,1.3,0.85,3.1
	c0.367,1.867,0.05,4.05-0.95,6.55c-1-3.333-0.983-6.55,0.05-9.649H2.252h-0.05c-1.034,3.1-1.05,6.316-0.05,9.649
	c1-2.5,1.317-4.683,0.95-6.55C2.703,16.253,2.419,15.219,2.252,14.953z"></path>
<path fill-rule="evenodd" clip-rule="evenodd" fill="#FFFFFF" d="M15.402,2.203c-0.6,0.267-0.767,0.783-0.5,1.55
	c0.033,0.333,0.067,0.65,0.1,0.95c3.467-1.467,6.883-1.467,10.25,0c0.033-0.3,0.067-0.617,0.1-0.95c0.333-0.567,0.267-1.067-0.2-1.5
	l-0.05-0.05v0.05c-0.267,0.167-1.3,0.45-3.1,0.85c-1.867,0.367-4.05,0.05-6.55-0.95h-0.05V2.203v-0.05h0.05
	c2.5,1,4.683,1.316,6.55,0.95c1.8-0.4,2.833-0.683,3.1-0.85v-0.05l0.05,0.05c0.467,0.433,0.533,0.933,0.2,1.5
	c-0.033,0.333-0.067,0.65-0.1,0.95c-3.367-1.467-6.783-1.467-10.25,0c-0.033-0.3-0.067-0.617-0.1-0.95
	C14.636,2.986,14.802,2.469,15.402,2.203z"></path>
<path fill-rule="evenodd" clip-rule="evenodd" fill="#FFFFFF" d="M25.103,2.203c-3.1-1.033-6.317-1.05-9.65-0.05
	C18.786,1.153,22.002,1.169,25.103,2.203z"></path>
<path fill-rule="evenodd" clip-rule="evenodd" fill="#FFFFFF" d="M30.802,2.203c-0.6,0.267-0.767,0.783-0.5,1.55
	c0.034,0.333,0.067,0.65,0.1,0.95c3.467-1.467,6.883-1.467,10.25,0c0.034-0.3,0.067-0.617,0.1-0.95c0.333-0.567,0.267-1.067-0.2-1.5
	l-0.05-0.05v0.05c-0.267,0.167-1.3,0.45-3.1,0.85c-1.867,0.367-4.05,0.05-6.55-0.95h-0.05V2.203v-0.05h0.05
	c2.5,1,4.683,1.316,6.55,0.95c1.8-0.4,2.833-0.683,3.1-0.85v-0.05l0.05,0.05c0.467,0.433,0.534,0.933,0.2,1.5
	c-0.033,0.333-0.066,0.65-0.1,0.95c-3.367-1.467-6.783-1.467-10.25,0c-0.033-0.3-0.066-0.617-0.1-0.95
	C30.036,2.986,30.203,2.469,30.802,2.203z"></path>
<path fill-rule="evenodd" clip-rule="evenodd" fill="#FFFFFF" d="M40.502,2.203c-3.1-1.033-6.317-1.05-9.65-0.05
	C34.186,1.153,37.402,1.169,40.502,2.203z"></path>
<path fill-rule="evenodd" clip-rule="evenodd" fill="#FFFFFF" d="M51.302,14.652c1.467,3.467,1.467,6.884,0,10.25
	c0.3,0.033,0.617,0.066,0.95,0.101c0.566,0.333,1.066,0.267,1.5-0.2l0.05-0.05h-0.05c-0.167-0.267-0.45-1.3-0.85-3.101
	c-0.367-1.866-0.05-4.05,0.95-6.55v-0.05h-0.05c-0.267-0.6-0.783-0.767-1.55-0.5C51.919,14.586,51.603,14.619,51.302,14.652
	c0.3-0.033,0.617-0.066,0.95-0.1c0.767-0.267,1.283-0.1,1.55,0.5h0.05v0.05c-1,2.5-1.317,4.684-0.95,6.55
	c0.4,1.801,0.684,2.834,0.85,3.101h0.05l-0.05,0.05c-0.434,0.467-0.934,0.533-1.5,0.2c-0.333-0.034-0.65-0.067-0.95-0.101
	C52.769,21.536,52.769,18.119,51.302,14.652z"></path>
<path fill-rule="evenodd" clip-rule="evenodd" fill="#FFFFFF" d="M53.853,15.103c1,3.333,0.984,6.55-0.05,9.65
	C54.836,21.652,54.852,18.436,53.853,15.103z"></path>
<polygon fill-rule="evenodd" clip-rule="evenodd" fill="#FFFFFF" points="42.002,8.053 40.453,8.053 30.552,8.053 29.252,8.053 
	30.552,8.053 40.453,8.053 "></polygon>
<path fill-rule="evenodd" clip-rule="evenodd" fill="#FFFFFF" d="M40.453,8.053c0.033-1.1,0.1-2.217,0.2-3.35
	C40.552,5.836,40.486,6.953,40.453,8.053z"></path>
<path fill-rule="evenodd" clip-rule="evenodd" fill="#FFFFFF" d="M30.402,4.703c0.067,1.133,0.117,2.25,0.15,3.35
	C30.519,6.953,30.469,5.836,30.402,4.703z"></path>
<polygon fill-rule="evenodd" clip-rule="evenodd" fill="#FFFFFF" points="47.603,26.253 47.603,24.703 47.603,14.803 47.603,13.503 
	47.603,14.803 47.603,24.703 "></polygon>
<polygon fill-rule="evenodd" clip-rule="evenodd" fill="#FFFFFF" points="26.603,8.053 25.052,8.053 15.152,8.053 13.853,8.053 
	15.152,8.053 25.052,8.053 "></polygon>
<path fill-rule="evenodd" clip-rule="evenodd" fill="#FFFFFF" d="M25.052,8.053c0.034-1.1,0.1-2.217,0.2-3.35
	C25.152,5.836,25.086,6.953,25.052,8.053z"></path>
<path fill-rule="evenodd" clip-rule="evenodd" fill="#FFFFFF" d="M15.002,4.703c0.067,1.133,0.117,2.25,0.15,3.35
	C15.119,6.953,15.069,5.836,15.002,4.703z"></path>
<path fill-rule="evenodd" clip-rule="evenodd" fill="#FFFFFF" d="M25.103,37.553v0.05l0.05-0.05c0.467-0.434,0.533-0.934,0.2-1.5
	c-0.033-0.334-0.067-0.65-0.1-0.95c-3.367,1.467-6.783,1.467-10.25,0c-0.033,0.3-0.067,0.616-0.1,0.95
	c-0.267,0.767-0.1,1.283,0.5,1.55v0.05h0.05c2.5-1,4.683-1.316,6.55-0.949C23.802,37.103,24.836,37.387,25.103,37.553
	c-0.267-0.166-1.3-0.45-3.1-0.85c-1.867-0.367-4.05-0.051-6.55,0.949h-0.05v-0.05c-0.6-0.267-0.767-0.783-0.5-1.55
	c0.033-0.334,0.067-0.65,0.1-0.95c3.467,1.467,6.883,1.467,10.25,0c0.033,0.3,0.067,0.616,0.1,0.95c0.333,0.566,0.267,1.066-0.2,1.5
	l-0.05,0.05V37.553z"></path>
<path fill-rule="evenodd" clip-rule="evenodd" fill="#FFFFFF" d="M26.603,31.803h-1.55H26.603z"></path>
<path fill-rule="evenodd" clip-rule="evenodd" fill="#FFFFFF" d="M25.052,31.803h-9.9c-0.033,1.1-0.083,2.2-0.15,3.3
	c0.067-1.1,0.117-2.2,0.15-3.3h-1.3h1.3H25.052c0.034,1.066,0.1,2.166,0.2,3.3C25.152,33.969,25.086,32.869,25.052,31.803z"></path>
<path fill-rule="evenodd" clip-rule="evenodd" fill="#FFFFFF" d="M25.103,37.603c-3.1,1.034-6.317,1.05-9.65,0.05
	C18.786,38.652,22.002,38.637,25.103,37.603z"></path>
<path fill-rule="evenodd" clip-rule="evenodd" fill="#FFFFFF" d="M42.002,31.803h-1.55H42.002z"></path>
<path fill-rule="evenodd" clip-rule="evenodd" fill="#FFFFFF" d="M40.453,31.803h-9.9h-1.3h1.3H40.453
	c0.033,1.066,0.1,2.166,0.2,3.3c0.034,0.3,0.067,0.616,0.1,0.95c0.333,0.566,0.267,1.066-0.2,1.5l-0.05,0.05
	c-3.1,1.034-6.317,1.05-9.65,0.05h-0.05v-0.05c-0.6-0.267-0.767-0.783-0.5-1.55c0.034-0.334,0.067-0.65,0.1-0.95
	c0.067-1.1,0.117-2.2,0.15-3.3c-0.033,1.1-0.083,2.2-0.15,3.3c-0.033,0.3-0.066,0.616-0.1,0.95c-0.267,0.767-0.1,1.283,0.5,1.55
	v0.05h0.05c3.333,1,6.55,0.984,9.65-0.05l0.05-0.05c0.467-0.434,0.534-0.934,0.2-1.5c-0.033-0.334-0.066-0.65-0.1-0.95
	C40.552,33.969,40.486,32.869,40.453,31.803z"></path>
<path fill-rule="evenodd" clip-rule="evenodd" fill="#FFFFFF" d="M30.853,37.652c2.5-1,4.683-1.316,6.55-0.949
	c1.8,0.399,2.833,0.684,3.1,0.85v0.05v-0.05c-0.267-0.166-1.3-0.45-3.1-0.85C35.536,36.336,33.353,36.652,30.853,37.652z"></path>
<path fill-rule="evenodd" clip-rule="evenodd" fill="#FFFFFF" d="M40.652,35.103c-3.367,1.467-6.783,1.467-10.25,0
	C33.869,36.569,37.286,36.569,40.652,35.103z"></path>
<path fill-rule="evenodd" clip-rule="evenodd" fill="#FFFFFF" d="M51.302,24.902c-1.267-0.133-2.5-0.199-3.7-0.199
	C48.802,24.703,50.036,24.77,51.302,24.902z"></path>
<path fill-rule="evenodd" clip-rule="evenodd" fill="#FFFFFF" d="M47.603,14.803c1.233,0,2.466-0.05,3.7-0.15
	C50.069,14.753,48.836,14.803,47.603,14.803z"></path>
<path fill-rule="evenodd" clip-rule="evenodd" fill="#FFFFFF" d="M8.353,24.902c-1.2,0.033-2.417,0.084-3.65,0.15
	c-0.3,0.033-0.617,0.066-0.95,0.1c-0.767,0.268-1.283,0.101-1.55-0.5h-0.05v-0.05v0.05h0.05c0.267,0.601,0.783,0.768,1.55,0.5
	c0.333-0.033,0.65-0.066,0.95-0.1C5.936,24.986,7.152,24.936,8.353,24.902z"></path>
<path fill-rule="evenodd" clip-rule="evenodd" fill="#FFFFFF" d="M4.703,25.053c-1.467-3.467-1.467-6.883,0-10.25
	C3.236,18.17,3.236,21.586,4.703,25.053z"></path>
<path fill-rule="evenodd" clip-rule="evenodd" fill="none" stroke="#383635" stroke-width="0.3" stroke-linecap="round" stroke-linejoin="round" stroke-miterlimit="3" d="
	M13.853,8.053l0.2-6.15c0.034-0.333,0.167-0.567,0.4-0.7c3.9-1.367,7.583-1.433,11.05-0.2c0.067,0,0.15,0.033,0.25,0.1
	c0.333,0.167,0.533,0.383,0.6,0.65l0.25,6.3" style="stroke: rgb(0, 0, 0);"></path>
<path fill-rule="evenodd" clip-rule="evenodd" fill="none" stroke="#383635" stroke-width="0.3" stroke-linecap="round" stroke-linejoin="round" stroke-miterlimit="3" d="
	M29.252,8.053l0.2-6.15c0.033-0.333,0.167-0.567,0.4-0.7c3.9-1.367,7.583-1.433,11.05-0.2c0.067,0,0.15,0.033,0.25,0.1
	c0.333,0.167,0.534,0.383,0.6,0.65l0.25,6.3" style="stroke: rgb(0, 0, 0);"></path>
<path fill-rule="evenodd" clip-rule="evenodd" fill="none" stroke="#383635" stroke-width="0.3" stroke-linecap="round" stroke-linejoin="round" stroke-miterlimit="3" d="
	M47.603,13.503l6.5,0.2c0.334,0.033,0.566,0.166,0.7,0.399c1.366,3.9,1.434,7.583,0.2,11.05c0,0.066-0.033,0.15-0.1,0.25
	c-0.167,0.334-0.384,0.533-0.65,0.601l-6.65,0.25" style="stroke: rgb(0, 0, 0);"></path>
<path fill-rule="evenodd" clip-rule="evenodd" fill="none" stroke="#383635" stroke-width="0.3" stroke-linecap="round" stroke-linejoin="round" stroke-miterlimit="3" d="
	M42.002,31.803l-0.25,6.25c-0.066,0.267-0.267,0.483-0.6,0.65c-0.1,0.066-0.183,0.1-0.25,0.1c-3.466,1.233-7.15,1.166-11.05-0.2
	c-0.233-0.134-0.367-0.366-0.4-0.7l-0.2-6.1" style="stroke: rgb(0, 0, 0);"></path>
<path fill-rule="evenodd" clip-rule="evenodd" fill="none" stroke="#383635" stroke-width="0.3" stroke-linecap="round" stroke-linejoin="round" stroke-miterlimit="3" d="
	M26.603,31.803l-0.25,6.25c-0.067,0.267-0.267,0.483-0.6,0.65c-0.1,0.066-0.183,0.1-0.25,0.1c-3.467,1.233-7.15,1.166-11.05-0.2
	c-0.233-0.134-0.367-0.366-0.4-0.7l-0.2-6.1" style="stroke: rgb(0, 0, 0);"></path>
<path fill-rule="evenodd" clip-rule="evenodd" fill="none" stroke="#383635" stroke-width="0.3" stroke-linecap="round" stroke-linejoin="round" stroke-miterlimit="3" d="
	M8.353,26.203l-6.45-0.2c-0.333-0.034-0.566-0.167-0.7-0.4c-1.367-3.899-1.434-7.583-0.2-11.05c0-0.066,0.033-0.15,0.1-0.25
	c0.167-0.334,0.383-0.533,0.65-0.6l6.6-0.2" style="stroke: rgb(0, 0, 0);"></path>
<path fill-rule="evenodd" clip-rule="evenodd" fill="none" stroke="#383635" stroke-width="0.3" stroke-linecap="round" stroke-linejoin="round" stroke-miterlimit="3" d="
	M15.402,2.203c-0.6,0.267-0.767,0.783-0.5,1.55c0.033,0.333,0.067,0.65,0.1,0.95c3.467-1.467,6.883-1.467,10.25,0
	c0.033-0.3,0.067-0.617,0.1-0.95c0.333-0.567,0.267-1.067-0.2-1.5l-0.05-0.05v0.05c-0.267,0.167-1.3,0.45-3.1,0.85
	c-1.867,0.367-4.05,0.05-6.55-0.95h-0.05V2.203z" style="stroke: rgb(0, 0, 0);"></path>
<path fill-rule="evenodd" clip-rule="evenodd" fill="none" stroke="#383635" stroke-width="0.3" stroke-linecap="round" stroke-linejoin="round" stroke-miterlimit="3" d="
	M25.103,2.203c-3.1-1.033-6.317-1.05-9.65-0.05" style="stroke: rgb(0, 0, 0);"></path>
<path fill-rule="evenodd" clip-rule="evenodd" fill="none" stroke="#383635" stroke-width="0.3" stroke-linecap="round" stroke-linejoin="round" stroke-miterlimit="3" d="
	M30.802,2.203c-0.6,0.267-0.767,0.783-0.5,1.55c0.034,0.333,0.067,0.65,0.1,0.95c3.467-1.467,6.883-1.467,10.25,0
	c0.034-0.3,0.067-0.617,0.1-0.95c0.333-0.567,0.267-1.067-0.2-1.5l-0.05-0.05v0.05c-0.267,0.167-1.3,0.45-3.1,0.85
	c-1.867,0.367-4.05,0.05-6.55-0.95h-0.05V2.203z" style="stroke: rgb(0, 0, 0);"></path>
<path fill-rule="evenodd" clip-rule="evenodd" fill="none" stroke="#383635" stroke-width="0.3" stroke-linecap="round" stroke-linejoin="round" stroke-miterlimit="3" d="
	M40.502,2.203c-3.1-1.033-6.317-1.05-9.65-0.05" style="stroke: rgb(0, 0, 0);"></path>
<path fill-rule="evenodd" clip-rule="evenodd" fill="none" stroke="#383635" stroke-width="0.3" stroke-linecap="round" stroke-linejoin="round" stroke-miterlimit="3" d="
	M51.302,14.652c1.467,3.467,1.467,6.884,0,10.25c0.3,0.033,0.617,0.066,0.95,0.101c0.566,0.333,1.066,0.267,1.5-0.2l0.05-0.05h-0.05
	c-0.167-0.267-0.45-1.3-0.85-3.101c-0.367-1.866-0.05-4.05,0.95-6.55v-0.05h-0.05c-0.267-0.6-0.783-0.767-1.55-0.5
	C51.919,14.586,51.603,14.619,51.302,14.652z" style="stroke: rgb(0, 0, 0);"></path>
<path fill-rule="evenodd" clip-rule="evenodd" fill="none" stroke="#383635" stroke-width="0.3" stroke-linecap="round" stroke-linejoin="round" stroke-miterlimit="3" d="
	M53.853,15.103c1,3.333,0.984,6.55-0.05,9.65" style="stroke: rgb(0, 0, 0);"></path>
<path fill-rule="evenodd" clip-rule="evenodd" fill="none" stroke="#383635" stroke-width="0.3" stroke-linecap="round" stroke-linejoin="round" stroke-miterlimit="3" d="
	M40.453,8.053c0.033-1.1,0.1-2.217,0.2-3.35" style="stroke: rgb(0, 0, 0);"></path>
<path fill-rule="evenodd" clip-rule="evenodd" fill="none" stroke="#383635" stroke-width="0.3" stroke-linecap="round" stroke-linejoin="round" stroke-miterlimit="3" d="
	M30.402,4.703c0.067,1.133,0.117,2.25,0.15,3.35" style="stroke: rgb(0, 0, 0);"></path>
<path fill-rule="evenodd" clip-rule="evenodd" fill="none" stroke="#383635" stroke-width="0.3" stroke-linecap="round" stroke-linejoin="round" stroke-miterlimit="3" d="
	M25.052,8.053c0.034-1.1,0.1-2.217,0.2-3.35" style="stroke: rgb(0, 0, 0);"></path>
<path fill-rule="evenodd" clip-rule="evenodd" fill="none" stroke="#383635" stroke-width="0.3" stroke-linecap="round" stroke-linejoin="round" stroke-miterlimit="3" d="
	M15.002,4.703c0.067,1.133,0.117,2.25,0.15,3.35" style="stroke: rgb(0, 0, 0);"></path>
<path fill-rule="evenodd" clip-rule="evenodd" fill="none" stroke="#383635" stroke-width="0.3" stroke-linecap="round" stroke-linejoin="round" stroke-miterlimit="3" d="
	M25.103,37.553v0.05l0.05-0.05c0.467-0.434,0.533-0.934,0.2-1.5c-0.033-0.334-0.067-0.65-0.1-0.95c-3.367,1.467-6.783,1.467-10.25,0
	c-0.033,0.3-0.067,0.616-0.1,0.95c-0.267,0.767-0.1,1.283,0.5,1.55v0.05h0.05c2.5-1,4.683-1.316,6.55-0.949
	C23.802,37.103,24.836,37.387,25.103,37.553z" style="stroke: rgb(0, 0, 0);"></path>
<path fill-rule="evenodd" clip-rule="evenodd" fill="none" stroke="#383635" stroke-width="0.3" stroke-linecap="round" stroke-linejoin="round" stroke-miterlimit="3" d="
	M25.052,31.803c0.034,1.066,0.1,2.166,0.2,3.3" style="stroke: rgb(0, 0, 0);"></path>
<path fill-rule="evenodd" clip-rule="evenodd" fill="none" stroke="#383635" stroke-width="0.3" stroke-linecap="round" stroke-linejoin="round" stroke-miterlimit="3" d="
	M15.002,35.103c0.067-1.1,0.117-2.2,0.15-3.3" style="stroke: rgb(0, 0, 0);"></path>
<path fill-rule="evenodd" clip-rule="evenodd" fill="none" stroke="#383635" stroke-width="0.3" stroke-linecap="round" stroke-linejoin="round" stroke-miterlimit="3" d="
	M25.103,37.603c-3.1,1.034-6.317,1.05-9.65,0.05" style="stroke: rgb(0, 0, 0);"></path>
<path fill-rule="evenodd" clip-rule="evenodd" fill="none" stroke="#383635" stroke-width="0.3" stroke-linecap="round" stroke-linejoin="round" stroke-miterlimit="3" d="
	M40.453,31.803c0.033,1.066,0.1,2.166,0.2,3.3c0.034,0.3,0.067,0.616,0.1,0.95c0.333,0.566,0.267,1.066-0.2,1.5l-0.05,0.05
	c-3.1,1.034-6.317,1.05-9.65,0.05h-0.05v-0.05c-0.6-0.267-0.767-0.783-0.5-1.55c0.034-0.334,0.067-0.65,0.1-0.95
	c0.067-1.1,0.117-2.2,0.15-3.3" style="stroke: rgb(0, 0, 0);"></path>
<path fill-rule="evenodd" clip-rule="evenodd" fill="none" stroke="#383635" stroke-width="0.3" stroke-linecap="round" stroke-linejoin="round" stroke-miterlimit="3" d="
	M30.853,37.652c2.5-1,4.683-1.316,6.55-0.949c1.8,0.399,2.833,0.684,3.1,0.85v0.05" style="stroke: rgb(0, 0, 0);"></path>
<path fill-rule="evenodd" clip-rule="evenodd" fill="none" stroke="#383635" stroke-width="0.3" stroke-linecap="round" stroke-linejoin="round" stroke-miterlimit="3" d="
	M40.652,35.103c-3.367,1.467-6.783,1.467-10.25,0" style="stroke: rgb(0, 0, 0);"></path>
<path fill-rule="evenodd" clip-rule="evenodd" fill="none" stroke="#383635" stroke-width="0.3" stroke-linecap="round" stroke-linejoin="round" stroke-miterlimit="3" d="
	M51.302,24.902c-1.267-0.133-2.5-0.199-3.7-0.199" style="stroke: rgb(0, 0, 0);"></path>
<path fill-rule="evenodd" clip-rule="evenodd" fill="none" stroke="#383635" stroke-width="0.3" stroke-linecap="round" stroke-linejoin="round" stroke-miterlimit="3" d="
	M47.603,14.803c1.233,0,2.466-0.05,3.7-0.15" style="stroke: rgb(0, 0, 0);"></path>
<path fill-rule="evenodd" clip-rule="evenodd" fill="none" stroke="#383635" stroke-width="0.3" stroke-linecap="round" stroke-linejoin="round" stroke-miterlimit="3" d="
	M2.252,14.953h-0.05c-1.034,3.1-1.05,6.316-0.05,9.649c1-2.5,1.317-4.683,0.95-6.55C2.703,16.253,2.419,15.219,2.252,14.953z" style="stroke: rgb(0, 0, 0);"></path>
<path fill-rule="evenodd" clip-rule="evenodd" fill="none" stroke="#383635" stroke-width="0.3" stroke-linecap="round" stroke-linejoin="round" stroke-miterlimit="3" d="
	M2.203,14.953l0.05-0.051c0.433-0.467,0.933-0.533,1.5-0.199c0.333,0.033,0.65,0.066,0.95,0.1c1.233,0.133,2.45,0.2,3.65,0.2" style="stroke: rgb(0, 0, 0);"></path>
<path fill-rule="evenodd" clip-rule="evenodd" fill="none" stroke="#383635" stroke-width="0.3" stroke-linecap="round" stroke-linejoin="round" stroke-miterlimit="3" d="
	M8.353,24.902c-1.2,0.033-2.417,0.084-3.65,0.15c-0.3,0.033-0.617,0.066-0.95,0.1c-0.767,0.268-1.283,0.101-1.55-0.5h-0.05v-0.05" style="stroke: rgb(0, 0, 0);"></path>
<path fill-rule="evenodd" clip-rule="evenodd" fill="none" stroke="#383635" stroke-width="0.3" stroke-linecap="round" stroke-linejoin="round" stroke-miterlimit="3" d="
	M4.703,25.053c-1.467-3.467-1.467-6.883,0-10.25" style="stroke: rgb(0, 0, 0);"></path>
<line fill-rule="evenodd" clip-rule="evenodd" fill="none" stroke="#383635" stroke-width="0.3" x1="26.603" y1="8.053" x2="29.252" y2="8.053" style="stroke: rgb(0, 0, 0);"></line>
<polyline fill-rule="evenodd" clip-rule="evenodd" fill="none" stroke="#383635" stroke-width="0.3" points="42.002,8.053 
	47.603,8.053 47.603,13.503 " style="stroke: rgb(0, 0, 0);"></polyline>
<polyline fill-rule="evenodd" clip-rule="evenodd" fill="none" stroke="#383635" stroke-width="0.3" points="47.603,26.253 
	47.603,31.803 42.002,31.803 40.453,31.803 30.552,31.803 29.252,31.803 26.603,31.803 25.052,31.803 15.152,31.803 13.853,31.803 
	8.353,31.803 8.353,26.203 " style="stroke: rgb(0, 0, 0);"></polyline>
<polyline fill-rule="evenodd" clip-rule="evenodd" fill="none" stroke="#383635" stroke-width="0.3" points="8.353,13.503 
	8.353,8.053 13.853,8.053 " style="stroke: rgb(0, 0, 0);"></polyline>
<polyline fill-rule="evenodd" clip-rule="evenodd" fill="none" stroke="#383635" stroke-width="0.3" points="42.002,8.053 
	40.453,8.053 30.552,8.053 29.252,8.053 " style="stroke: rgb(0, 0, 0);"></polyline>
<polyline fill-rule="evenodd" clip-rule="evenodd" fill="none" stroke="#383635" stroke-width="0.3" points="47.603,26.253 
	47.603,24.703 47.603,14.803 47.603,13.503 " style="stroke: rgb(0, 0, 0);"></polyline>
<polyline fill-rule="evenodd" clip-rule="evenodd" fill="none" stroke="#383635" stroke-width="0.3" points="26.603,8.053 
	25.052,8.053 15.152,8.053 13.853,8.053 " style="stroke: rgb(0, 0, 0);"></polyline>
<line fill-rule="evenodd" clip-rule="evenodd" fill="none" stroke="#383635" stroke-width="0.3" x1="8.353" y1="15.003" x2="8.353" y2="13.503" style="stroke: rgb(0, 0, 0);"></line>
<polyline fill-rule="evenodd" clip-rule="evenodd" fill="none" stroke="#383635" stroke-width="0.3" points="8.353,15.003 
	8.353,24.902 8.353,26.203 " style="stroke: rgb(0, 0, 0);"></polyline>
</svg>