<svg version="1.1" id="Layer_1" xmlns="http://www.w3.org/2000/svg" xmlns:xlink="http://www.w3.org/1999/xlink" x="0px" y="0px" width="45.94px" height="61.81px" viewBox="0 0 45.94 61.81" enable-background="new 0 0 45.94 61.81" xml:space="preserve" class="ng-scope">
<path fill="#FFFFFF" d="M43.46,2.43c0.13,0.67,0.25,1.35,0.35,2.05c0.07,0.6-0.08,1.13-0.45,1.6l-5.8,0.15l5.8-0.15
	c0.37-0.47,0.52-1,0.45-1.6C43.71,3.78,43.6,3.09,43.46,2.43c-0.03-0.23-0.07-0.45-0.1-0.65C43.4,1.98,43.43,2.19,43.46,2.43z"></path>
<path fill="#FFFFFF" d="M37.41,7.28l3.15,10.5l-3.05-0.1l-3.15,0.35c-0.2-0.53-0.4-1.05-0.6-1.55c-1.03-2.23-1.75-4.52-2.15-6.85
	c-0.1-0.8-0.18-1.6-0.25-2.4c0.57,0.03,1.12,0.08,1.65,0.15c1.07,0.07,1.97-0.35,2.7-1.25c-0.73,0.9-1.63,1.32-2.7,1.25
	c-0.53-0.07-1.08-0.12-1.65-0.15c0.07,0.8,0.15,1.6,0.25,2.4c0.4,2.33,1.12,4.62,2.15,6.85c0.2,0.5,0.4,1.02,0.6,1.55l3.15-0.35
	l3.05,0.1L37.41,7.28c0.03-0.6,0.08-0.95,0.15-1.05h-0.3v-0.5l-0.45-0.65l-1.1,1.05c-2.33-0.27-4.68-0.53-7.05-0.8
	c-0.1-0.23-0.2-0.45-0.3-0.65c-0.47-0.97-0.57-1.98-0.3-3.05c-0.27,1.07-0.17,2.08,0.3,3.05c0.1,0.2,0.2,0.42,0.3,0.65
	c2.37,0.27,4.72,0.53,7.05,0.8l1.1-1.05l0.45,0.65v0.5L37.41,7.28z"></path>
<path fill="#FFFFFF" d="M28.86,0.33l0.75-0.2c2,0.13,4.07,0.3,6.2,0.5c1.93,0.17,3.47,0.3,4.6,0.4c1.3,0.13,2.05,0.22,2.25,0.25
	c0.27,0.03,0.5,0.2,0.7,0.5c0.9,0.03,1.63,0.35,2.2,0.95c0.1,0.13,0.17,0.3,0.2,0.5l0.05,45.2c-0.17,3.9-0.17,7.73,0,11.5
	c0,0.23-0.07,0.47-0.2,0.7c-0.1,0.17-0.22,0.35-0.35,0.55l-5.35,0.35L5.26,61.68c-1.17,0.1-2.02-0.4-2.55-1.5
	c-0.1-0.23-0.17-0.48-0.2-0.75l-1.2-0.6c-0.3-0.5-0.45-1.03-0.45-1.6c0-2.07-0.13-4.13-0.4-6.2c-0.3-2.4-0.4-4.83-0.3-7.3
	c0.47-0.7,1.03-0.98,1.7-0.85c0.9,0.03,1.78,0.13,2.65,0.3v-1.4c0.43-1.93,1.55-2.93,3.35-3h2.65c2-0.03,4.6-0.05,7.8-0.05
	c1.2,0,2.47,0,3.8,0c0.33,0,0.63,0.03,0.9,0.1c0.6,0.07,0.92,0.25,0.95,0.55c0.1-0.37,0.25-0.57,0.45-0.6l0.1-0.05
	c-0.6-0.27-0.87-0.75-0.8-1.45c0.07-0.47,0.1-0.93,0.1-1.4c-0.03-1.1-0.05-2.25-0.05-3.45c0.03-1.33,0.02-2.67-0.05-4
	c-0.03-1.03-0.05-2.05-0.05-3.05c0.03-1.27,0.17-2.52,0.4-3.75c0.07-0.27,0.22-0.52,0.45-0.75c-0.67-0.2-0.97-0.42-0.9-0.65
	c0-1.5,0-2.9,0-4.2c0-2.67,0-4.92,0-6.75c0.03-3.73,0.07-5.85,0.1-6.35c0.03-0.57,0.45-0.97,1.25-1.2l3.1-0.1
	C28.16,0.99,28.43,0.56,28.86,0.33z"></path>
<path fill="#FFFFFF" d="M5.91,43.43c0.6,0.9,0.93,1.9,1,3c0.07,0.83,0.13,1.68,0.2,2.55l-1.7,2.85l1.8,0.45l0.05,2.1v4.7l-4.75,0.35
	l4.75-0.35v-4.7l-0.05-2.1l-1.8-0.45l1.7-2.85c-0.07-0.87-0.13-1.72-0.2-2.55C6.85,45.33,6.51,44.33,5.91,43.43l-1.4-0.25
	L5.91,43.43z"></path>
<path fill="#FFFFFF" d="M8.16,46.43c0.6-0.07,1.17,0,1.7,0.2c2.97,0.33,5.83,1.05,8.6,2.15c0.13,0.07,0.25,0.18,0.35,0.35
	c-0.13,0.2-0.27,0.4-0.4,0.6c-0.77,1.23-0.97,2.55-0.6,3.95l0.35,1.05c-0.33,0-0.65-0.05-0.95-0.15c-0.33-0.1-0.67-0.23-1-0.4
	l-3.9-0.35l-5.1-1.55l5.1,1.55l3.9,0.35c0.33,0.17,0.67,0.3,1,0.4c0.3,0.1,0.62,0.15,0.95,0.15l-0.35-1.05
	c-0.37-1.4-0.17-2.72,0.6-3.95c0.13-0.2,0.27-0.4,0.4-0.6c-0.1-0.17-0.22-0.28-0.35-0.35c-2.77-1.1-5.63-1.82-8.6-2.15
	C9.33,46.43,8.76,46.36,8.16,46.43l-1.05,2.55L8.16,46.43z"></path>
<path fill="#FFFFFF" d="M43.91,10.18c0.03,0.9,0.07,1.97,0.1,3.2c0.03,0.97,0.03,1.85,0,2.65c0.03,3-0.08,4.65-0.35,4.95
	c-0.3,0.37-1.3,0.55-3,0.55c-0.07,0-0.13,0-0.2,0c-0.83,0-1.63-0.03-2.4-0.1c-0.17-0.67-0.35-1.92-0.55-3.75
	c0.2,1.83,0.38,3.08,0.55,3.75c0.77,0.07,1.57,0.1,2.4,0.1c0.07,0,0.13,0,0.2,0c1.7,0,2.7-0.18,3-0.55c0.27-0.3,0.38-1.95,0.35-4.95
	c0.03-0.8,0.03-1.68,0-2.65C43.98,12.14,43.95,11.08,43.91,10.18c-0.1-2.67-0.28-4.03-0.55-4.1C43.63,6.14,43.81,7.51,43.91,10.18z"></path>
<path fill="#FFFFFF" d="M40.01,53.68c0.2,0.1,0.42,0.15,0.65,0.15v-0.15c0.7-0.03,1.38-0.07,2.05-0.1c0.43,0.07,0.77-0.12,1-0.55
	c0.27-1.87,0.37-3.73,0.3-5.6c-0.03-1.1-0.03-2.2,0-3.3c0.07-1.87-0.13-3.7-0.6-5.5c-0.43-0.13-0.88-0.28-1.35-0.45
	c0.93-0.07,1.5-0.22,1.7-0.45c0.3-0.37,0.43-2.67,0.4-6.9c0-0.37,0-0.75,0-1.15c-0.17-5.03-0.42-7.6-0.75-7.7
	c-0.33-0.17-1.25-0.28-2.75-0.35h-0.05c-0.03-0.03-0.08-0.05-0.15-0.05c-1.67,0-2.62,0.18-2.85,0.55c-0.2,0.4-0.25,2.9-0.15,7.5
	c0,0.4,0,0.8,0,1.2c0.13,3.9,0.35,6.35,0.65,7.35c0.47,0.03,0.9,0.05,1.3,0.05c-0.63,0.1-1.25,0.27-1.85,0.5H24.51h13.05
	c0.6-0.23,1.22-0.4,1.85-0.5c-0.4,0-0.83-0.02-1.3-0.05c-0.3-1-0.52-3.45-0.65-7.35c0-0.4,0-0.8,0-1.2c-0.1-4.6-0.05-7.1,0.15-7.5
	c0.23-0.37,1.18-0.55,2.85-0.55c0.07,0,0.12,0.02,0.15,0.05h0.05c1.5,0.07,2.42,0.18,2.75,0.35c0.33,0.1,0.58,2.67,0.75,7.7
	c0,0.4,0,0.78,0,1.15c0.03,4.23-0.1,6.53-0.4,6.9c-0.2,0.23-0.77,0.38-1.7,0.45c0.47,0.17,0.92,0.32,1.35,0.45
	c0.47,1.8,0.67,3.63,0.6,5.5c-0.03,1.1-0.03,2.2,0,3.3c0.07,1.87-0.03,3.74-0.3,5.6c-0.23,0.43-0.57,0.62-1,0.55
	c-0.67,0.03-1.35,0.07-2.05,0.1C40.4,53.68,40.18,53.68,40.01,53.68z"></path>
<path fill="#FFFFFF" d="M37.41,43.88l-2.1-1.65c-0.37,0.57-0.72,1.17-1.05,1.8c-0.37,0.63-0.7,1.32-1,2.05
	c-0.43,1.03-0.83,2.1-1.2,3.2c-0.4,1.1-0.77,2.23-1.1,3.4l1.9,1.15c-1.77,0.1-3.62,0.13-5.55,0.1c-1.27,0-2.32,0.25-3.15,0.75
	l-0.05,0.55l-0.2-1l0.05-14.85l-0.05,14.85l0.2,1l0.05-0.55c0.83-0.5,1.88-0.75,3.15-0.75c1.93,0.03,3.78,0,5.55-0.1l-1.9-1.15
	c0.33-1.17,0.7-2.3,1.1-3.4c0.37-1.1,0.77-2.17,1.2-3.2c0.3-0.73,0.63-1.42,1-2.05c0.33-0.63,0.68-1.23,1.05-1.8L37.41,43.88
	c-0.07-3.1-0.02-4.82,0.15-5.15C37.4,39.06,37.35,40.78,37.41,43.88z"></path>
<path fill="#FFFFFF" d="M42.06,38.18l-2.65,0.05L42.06,38.18z"></path>
<path fill="#FFFFFF" d="M42.86,54.03c0.3,0.13,0.42,1.08,0.35,2.85c-0.03,1.63-0.1,2.67-0.2,3.1c-0.17,0.33-3.22,0.53-9.15,0.6
	c-2.83,0.03-5.02,0.02-6.55-0.05c-1.63-0.07-2.53-0.18-2.7-0.35c-0.3-0.23-0.47-0.93-0.5-2.1v-2.85v2.85c0.03,1.17,0.2,1.87,0.5,2.1
	c0.17,0.17,1.07,0.28,2.7,0.35c1.53,0.07,3.72,0.08,6.55,0.05c5.93-0.07,8.98-0.27,9.15-0.6c0.1-0.43,0.17-1.47,0.2-3.1
	C43.28,55.11,43.16,54.16,42.86,54.03c-0.2-0.1-0.93-0.17-2.2-0.2C41.93,53.86,42.66,53.93,42.86,54.03z"></path>
<path fill="#FFFFFF" d="M38.11,53.63l-0.4-1.7l3.1-7.45l-3.4-0.6l3.4,0.6l-3.1,7.45L38.11,53.63v0.05h-1.2l0.8-1.75l-0.8,1.75h1.2
	c0.13,0,0.23,0,0.3,0h1.6h-1.6C38.34,53.68,38.24,53.66,38.11,53.63z"></path>
<path fill="#FFFFFF" d="M22.11,53.78c0.7-0.17,1.3-0.02,1.8,0.45C23.41,53.76,22.81,53.61,22.11,53.78c-1.4,0.03-2.83,0-4.3-0.1
	C19.28,53.78,20.71,53.81,22.11,53.78z"></path>
<path fill="#FFFFFF" d="M24.51,20.88l13.55,0.55L24.51,20.88z"></path>
<path fill="#FFFFFF" d="M23.81,59.93c-0.1,0.23-1.93,0.4-5.5,0.5c-0.73,0.03-1.55,0.05-2.45,0.05c-5.23,0.07-7.98-0.07-8.25-0.4
	c-0.17-0.1-0.28-0.43-0.35-1c0.07,0.57,0.18,0.9,0.35,1c0.27,0.33,3.02,0.47,8.25,0.4c0.9,0,1.72-0.02,2.45-0.05
	C21.88,60.33,23.71,60.16,23.81,59.93c0.2-0.27,0.3-0.88,0.3-1.85C24.11,59.04,24.01,59.66,23.81,59.93z"></path>
<polygon fill="#FFFFFF" points="35.11,56.13 35.81,56.28 36.91,53.68 35.81,56.28 35.11,56.13 32.86,53.83 "></polygon>
<path fill="#FFFFFF" d="M7.26,54.38c0.6-0.23,2.28-0.42,5.05-0.55C9.55,53.96,7.86,54.14,7.26,54.38z"></path>
<path fill="none" stroke="#383635" stroke-width="0.3" d="M42.66,1.28c-0.2-0.03-0.95-0.12-2.25-0.25c-1.13-0.1-2.67-0.23-4.6-0.4
	c-2.13-0.2-4.2-0.37-6.2-0.5l-0.75,0.2c-0.43,0.23-0.7,0.67-0.8,1.3c-0.27,1.07-0.17,2.08,0.3,3.05c0.1,0.2,0.2,0.42,0.3,0.65
	c2.37,0.27,4.72,0.53,7.05,0.8l1.1-1.05l0.45,0.65v0.5h0.3l5.8-0.15c0.37-0.47,0.52-1,0.45-1.6c-0.1-0.7-0.22-1.38-0.35-2.05
	c-0.03-0.23-0.07-0.45-0.1-0.65C43.16,1.48,42.93,1.31,42.66,1.28z" style="stroke: rgb(0, 0, 0);"></path>
<path fill="none" stroke="#383635" stroke-width="0.3" d="M43.36,1.77c0.9,0.03,1.63,0.35,2.2,0.95c0.1,0.13,0.17,0.3,0.2,0.5
	l0.05,45.2c-0.17,3.9-0.17,7.73,0,11.5c0,0.23-0.07,0.47-0.2,0.7c-0.1,0.17-0.22,0.35-0.35,0.55l-5.35,0.35L5.26,61.68
	c-1.17,0.1-2.02-0.4-2.55-1.5c-0.1-0.23-0.17-0.48-0.2-0.75l-1.2-0.6c-0.3-0.5-0.45-1.03-0.45-1.6c0-2.07-0.13-4.13-0.4-6.2
	c-0.3-2.4-0.4-4.83-0.3-7.3c0.47-0.7,1.03-0.98,1.7-0.85c0.9,0.03,1.78,0.13,2.65,0.3v-1.4c0.43-1.93,1.55-2.93,3.35-3h2.65
	c2-0.03,4.6-0.05,7.8-0.05c1.2,0,2.47,0,3.8,0c0.33,0,0.63,0.03,0.9,0.1c0.6,0.07,0.92,0.25,0.95,0.55c0.1-0.37,0.25-0.57,0.45-0.6
	l0.1-0.05c-0.6-0.27-0.87-0.75-0.8-1.45c0.07-0.47,0.1-0.93,0.1-1.4c-0.03-1.1-0.05-2.25-0.05-3.45c0.03-1.33,0.02-2.67-0.05-4
	c-0.03-1.03-0.05-2.05-0.05-3.05c0.03-1.27,0.17-2.52,0.4-3.75c0.07-0.27,0.22-0.52,0.45-0.75c-0.67-0.2-0.97-0.42-0.9-0.65
	c0-1.5,0-2.9,0-4.2c0-2.67,0-4.92,0-6.75c0.03-3.73,0.07-5.85,0.1-6.35c0.03-0.57,0.45-0.97,1.25-1.2l3.1-0.1" style="stroke: rgb(0, 0, 0);"></path>
<path fill="none" stroke="#383635" stroke-width="0.3" d="M2.51,59.43l4.75-0.35v-4.7l-0.05-2.1l-1.8-0.45l1.7-2.85
	c-0.07-0.87-0.13-1.72-0.2-2.55c-0.07-1.1-0.4-2.1-1-3l-1.4-0.25" style="stroke: rgb(0, 0, 0);"></path>
<path fill="none" stroke="#383635" stroke-width="0.3" d="M7.21,52.28l5.1,1.55l3.9,0.35c0.33,0.17,0.67,0.3,1,0.4
	c0.3,0.1,0.62,0.15,0.95,0.15l-0.35-1.05c-0.37-1.4-0.17-2.72,0.6-3.95c0.13-0.2,0.27-0.4,0.4-0.6c-0.1-0.17-0.22-0.28-0.35-0.35
	c-2.77-1.1-5.63-1.82-8.6-2.15c-0.53-0.2-1.1-0.27-1.7-0.2l-1.05,2.55" style="stroke: rgb(0, 0, 0);"></path>
<path fill="none" stroke="#383635" stroke-width="0.3" d="M35.71,6.13c-0.73,0.9-1.63,1.32-2.7,1.25
	c-0.53-0.07-1.08-0.12-1.65-0.15c0.07,0.8,0.15,1.6,0.25,2.4c0.4,2.33,1.12,4.62,2.15,6.85c0.2,0.5,0.4,1.02,0.6,1.55l3.15-0.35
	l3.05,0.1l-3.15-10.5" style="stroke: rgb(0, 0, 0);"></path>
<path fill="none" stroke="#383635" stroke-width="0.3" d="M37.51,17.68c0.2,1.83,0.38,3.08,0.55,3.75c0.77,0.07,1.57,0.1,2.4,0.1
	c0.07,0,0.13,0,0.2,0c1.7,0,2.7-0.18,3-0.55c0.27-0.3,0.38-1.95,0.35-4.95c0.03-0.8,0.03-1.68,0-2.65c-0.03-1.23-0.07-2.3-0.1-3.2
	c-0.1-2.67-0.28-4.03-0.55-4.1" style="stroke: rgb(0, 0, 0);"></path>
<path fill="none" stroke="#383635" stroke-width="0.3" d="M24.51,38.73h13.05c0.6-0.23,1.22-0.4,1.85-0.5
	c-0.4,0-0.83-0.02-1.3-0.05c-0.3-1-0.52-3.45-0.65-7.35c0-0.4,0-0.8,0-1.2c-0.1-4.6-0.05-7.1,0.15-7.5
	c0.23-0.37,1.18-0.55,2.85-0.55c0.07,0,0.12,0.02,0.15,0.05h0.05c1.5,0.07,2.42,0.18,2.75,0.35c0.33,0.1,0.58,2.67,0.75,7.7
	c0,0.4,0,0.78,0,1.15c0.03,4.23-0.1,6.53-0.4,6.9c-0.2,0.23-0.77,0.38-1.7,0.45c0.47,0.17,0.92,0.32,1.35,0.45
	c0.47,1.8,0.67,3.63,0.6,5.5c-0.03,1.1-0.03,2.2,0,3.3c0.07,1.87-0.03,3.74-0.3,5.6c-0.23,0.43-0.57,0.62-1,0.55
	c-0.67,0.03-1.35,0.07-2.05,0.1" style="stroke: rgb(0, 0, 0);"></path>
<path fill="none" stroke="#383635" stroke-width="0.3" d="M23.96,39.38l-0.05,14.85l0.2,1l0.05-0.55c0.83-0.5,1.88-0.75,3.15-0.75
	c1.93,0.03,3.78,0,5.55-0.1l-1.9-1.15c0.33-1.17,0.7-2.3,1.1-3.4c0.37-1.1,0.77-2.17,1.2-3.2c0.3-0.73,0.63-1.42,1-2.05
	c0.33-0.63,0.68-1.23,1.05-1.8l2.1,1.65c-0.07-3.1-0.02-4.82,0.15-5.15" style="stroke: rgb(0, 0, 0);"></path>
<line fill="none" stroke="#383635" stroke-width="0.3" x1="42.06" y1="38.18" x2="39.41" y2="38.23" style="stroke: rgb(0, 0, 0);"></line>
<path fill="none" stroke="#383635" stroke-width="0.3" d="M24.11,55.23v2.85c0.03,1.17,0.2,1.87,0.5,2.1
	c0.17,0.17,1.07,0.28,2.7,0.35c1.53,0.07,3.72,0.08,6.55,0.05c5.93-0.07,8.98-0.27,9.15-0.6c0.1-0.43,0.17-1.47,0.2-3.1
	c0.07-1.77-0.05-2.72-0.35-2.85c-0.2-0.1-0.93-0.17-2.2-0.2" style="stroke: rgb(0, 0, 0);"></path>
<path fill="none" stroke="#383635" stroke-width="0.3" d="M40.66,53.68c-0.27,0-0.48,0-0.65,0c0.2,0.1,0.42,0.15,0.65,0.15" style="stroke: rgb(0, 0, 0);"></path>
<path fill="none" stroke="#383635" stroke-width="0.3" d="M37.41,43.88l3.4,0.6l-3.1,7.45l0.4,1.7c0.13,0.03,0.23,0.05,0.3,0.05" style="stroke: rgb(0, 0, 0);"></path>
<polyline fill="none" stroke="#383635" stroke-width="0.3" points="37.71,51.93 36.91,53.68 38.11,53.68 " style="stroke: rgb(0, 0, 0);"></polyline>
<polyline fill="none" stroke="#383635" stroke-width="0.3" points="36.91,53.68 35.81,56.28 35.11,56.13 32.86,53.83 " style="stroke: rgb(0, 0, 0);"></polyline>
<path fill="none" stroke="#383635" stroke-width="0.3" d="M40.01,53.68h-1.6c-0.07,0-0.17,0-0.3,0" style="stroke: rgb(0, 0, 0);"></path>
<path fill="none" stroke="#383635" stroke-width="0.3" d="M23.91,54.23c-0.5-0.47-1.1-0.62-1.8-0.45c-1.4,0.03-2.83,0-4.3-0.1" style="stroke: rgb(0, 0, 0);"></path>
<line fill="none" stroke="#383635" stroke-width="0.3" x1="24.51" y1="20.88" x2="38.06" y2="21.43" style="stroke: rgb(0, 0, 0);"></line>
<path fill="none" stroke="#383635" stroke-width="0.3" d="M7.26,59.08c0.07,0.57,0.18,0.9,0.35,1c0.27,0.33,3.02,0.47,8.25,0.4
	c0.9,0,1.72-0.02,2.45-0.05c3.57-0.1,5.4-0.27,5.5-0.5c0.2-0.27,0.3-0.88,0.3-1.85" style="stroke: rgb(0, 0, 0);"></path>
<path fill="none" stroke="#383635" stroke-width="0.3" d="M7.26,54.38c0.6-0.23,2.28-0.42,5.05-0.55" style="stroke: rgb(0, 0, 0);"></path>
<path fill="none" stroke="#383635" stroke-width="0.3" d="M37.56,6.23c-0.07,0.1-0.12,0.45-0.15,1.05" style="stroke: rgb(0, 0, 0);"></path>
<line fill="none" stroke="#383635" stroke-width="0.3" x1="37.41" y1="7.28" x2="37.26" y2="6.23" style="stroke: rgb(0, 0, 0);"></line>
</svg>