<svg version="1.1" id="Layer_1" xmlns="http://www.w3.org/2000/svg" xmlns:xlink="http://www.w3.org/1999/xlink" x="0px" y="0px" width="45.938px" height="61.813px" viewBox="0 0 45.938 61.813" enable-background="new 0 0 45.938 61.813" xml:space="preserve" class="ng-scope">
<path fill-rule="evenodd" clip-rule="evenodd" fill="#FFFFFF" d="M2.575,1.776c-0.033,0.2-0.067,0.417-0.1,0.65
	c-0.133,0.667-0.25,1.35-0.35,2.05c-0.066,0.6,0.083,1.133,0.45,1.6l5.8,0.15l-5.8-0.15c-0.367-0.467-0.517-1-0.45-1.6
	c0.1-0.7,0.217-1.383,0.35-2.05C2.508,2.193,2.542,1.976,2.575,1.776z"></path>
<path fill-rule="evenodd" clip-rule="evenodd" fill="#FFFFFF" d="M8.675,6.226v-0.5l0.45-0.65l1.1,1.05
	c2.333-0.267,4.684-0.533,7.05-0.8c0.1-0.233,0.2-0.45,0.3-0.65c0.467-0.967,0.567-1.983,0.3-3.05c0.267,1.067,0.167,2.083-0.3,3.05
	c-0.1,0.2-0.2,0.417-0.3,0.65c-2.367,0.267-4.717,0.533-7.05,0.8l-1.1-1.05l-0.45,0.65V6.226h-0.3c0.067,0.1,0.117,0.45,0.15,1.05
	l-3.15,10.5l3.05-0.1l3.15,0.35c0.2-0.534,0.4-1.05,0.6-1.55c1.033-2.233,1.75-4.517,2.15-6.85c0.1-0.8,0.183-1.6,0.25-2.4
	c-0.567,0.033-1.117,0.083-1.65,0.15c-1.067,0.067-1.967-0.35-2.7-1.25c0.733,0.9,1.633,1.317,2.7,1.25
	c0.533-0.066,1.083-0.117,1.65-0.15c-0.067,0.8-0.15,1.6-0.25,2.4c-0.4,2.333-1.117,4.617-2.15,6.85c-0.2,0.5-0.4,1.017-0.6,1.55
	l-3.15-0.35l-3.05,0.1l3.15-10.5L8.675,6.226z"></path>
<path fill-rule="evenodd" clip-rule="evenodd" fill="#FFFFFF" d="M17.875,1.626l3.1,0.1c0.8,0.233,1.217,0.633,1.25,1.2
	c0.033,0.5,0.067,2.617,0.1,6.35c0,1.833,0,4.083,0,6.75c0,1.3,0,2.7,0,4.2c0.067,0.232-0.233,0.449-0.9,0.649
	c0.233,0.233,0.383,0.483,0.45,0.75c0.233,1.233,0.367,2.483,0.4,3.75c0,1-0.017,2.017-0.05,3.05c-0.066,1.334-0.083,2.667-0.05,4
	c0,1.2-0.017,2.351-0.05,3.45c0,0.467,0.034,0.934,0.1,1.4c0.067,0.7-0.2,1.183-0.8,1.45l0.1,0.05c0.2,0.033,0.35,0.233,0.45,0.6
	c0.033-0.3,0.35-0.483,0.95-0.55c0.267-0.066,0.566-0.1,0.9-0.1c1.333,0,2.6,0,3.8,0c3.2,0,5.8,0.016,7.8,0.05h2.65
	c1.8,0.066,2.917,1.066,3.35,3v1.399c0.867-0.166,1.75-0.266,2.65-0.3c0.667-0.134,1.233,0.15,1.7,0.851c0.1,2.467,0,4.899-0.3,7.3
	c-0.267,2.066-0.4,4.134-0.4,6.2c0,0.566-0.15,1.1-0.45,1.6l-1.2,0.6c-0.033,0.268-0.1,0.518-0.2,0.75
	c-0.533,1.101-1.383,1.601-2.55,1.5l-34.65-0.149l-5.35-0.351c-0.133-0.199-0.25-0.383-0.35-0.55c-0.133-0.233-0.2-0.466-0.2-0.7
	c0.167-3.766,0.167-7.6,0-11.5l0.05-45.2c0.033-0.2,0.1-0.367,0.2-0.5c0.567-0.6,1.3-0.917,2.2-0.95c0.2-0.3,0.433-0.467,0.7-0.5
	c0.2-0.034,0.95-0.117,2.25-0.25c1.133-0.1,2.667-0.233,4.6-0.4c2.133-0.2,4.2-0.367,6.2-0.5l0.75,0.2
	C17.508,0.56,17.775,0.993,17.875,1.626z"></path>
<path fill-rule="evenodd" clip-rule="evenodd" fill="#FFFFFF" d="M41.425,43.176l-1.4,0.25c-0.6,0.9-0.934,1.9-1,3
	c-0.067,0.834-0.133,1.684-0.2,2.551l1.7,2.85l-1.8,0.45l-0.05,2.1v4.7l4.75,0.35l-4.75-0.35v-4.7l0.05-2.1l1.8-0.45l-1.7-2.85
	c0.067-0.867,0.133-1.717,0.2-2.551c0.066-1.1,0.4-2.1,1-3L41.425,43.176z"></path>
<path fill-rule="evenodd" clip-rule="evenodd" fill="#FFFFFF" d="M38.825,48.977l-1.05-2.551c-0.6-0.066-1.167,0-1.7,0.2
	c-2.967,0.333-5.833,1.05-8.6,2.15c-0.133,0.066-0.25,0.183-0.35,0.35c0.133,0.2,0.267,0.4,0.4,0.601
	c0.767,1.232,0.966,2.55,0.6,3.949l-0.35,1.051c0.333,0,0.65-0.051,0.95-0.15c0.333-0.1,0.667-0.233,1-0.4l3.9-0.35l5.1-1.55
	l-5.1,1.55l-3.9,0.35c-0.333,0.167-0.667,0.301-1,0.4c-0.3,0.1-0.617,0.15-0.95,0.15l0.35-1.051c0.367-1.399,0.167-2.717-0.6-3.949
	c-0.133-0.2-0.267-0.4-0.4-0.601c0.1-0.167,0.217-0.283,0.35-0.35c2.767-1.101,5.633-1.817,8.6-2.15c0.533-0.2,1.1-0.267,1.7-0.2
	L38.825,48.977z"></path>
<path fill-rule="evenodd" clip-rule="evenodd" fill="#FFFFFF" d="M2.575,6.076c-0.267,0.067-0.45,1.433-0.55,4.1
	c-0.034,0.9-0.067,1.967-0.1,3.2c-0.033,0.967-0.033,1.85,0,2.65c-0.033,3,0.083,4.649,0.35,4.95c0.3,0.366,1.3,0.55,3,0.55
	c0.066,0,0.133,0,0.2,0c0.833,0,1.633-0.034,2.4-0.101c0.167-0.666,0.35-1.916,0.55-3.75c-0.2,1.833-0.383,3.083-0.55,3.75
	c-0.767,0.066-1.566,0.101-2.4,0.101c-0.066,0-0.133,0-0.2,0c-1.7,0-2.7-0.184-3-0.55c-0.267-0.301-0.383-1.95-0.35-4.95
	c-0.033-0.8-0.033-1.684,0-2.65c0.033-1.233,0.066-2.3,0.1-3.2C2.125,7.509,2.309,6.143,2.575,6.076z"></path>
<path fill-rule="evenodd" clip-rule="evenodd" fill="#FFFFFF" d="M5.275,53.676c-0.7-0.033-1.383-0.066-2.05-0.1
	c-0.433,0.066-0.767-0.117-1-0.55c-0.267-1.866-0.367-3.733-0.3-5.601c0.033-1.1,0.033-2.199,0-3.3c-0.067-1.866,0.133-3.7,0.6-5.5
	c0.433-0.134,0.883-0.283,1.35-0.45c-0.933-0.066-1.5-0.217-1.7-0.449c-0.3-0.367-0.434-2.667-0.4-6.9c0-0.367,0-0.75,0-1.15
	c0.167-5.033,0.417-7.6,0.75-7.699c0.333-0.167,1.25-0.283,2.75-0.351h0.05c0.033-0.033,0.083-0.05,0.15-0.05
	c1.667,0,2.617,0.184,2.85,0.55c0.2,0.4,0.25,2.9,0.15,7.5c0,0.4,0,0.8,0,1.2c-0.133,3.9-0.35,6.35-0.65,7.35
	c-0.467,0.033-0.9,0.051-1.3,0.051c0.633,0.1,1.25,0.266,1.85,0.5h13.05H8.375c-0.6-0.234-1.216-0.4-1.85-0.5
	c0.4,0,0.833-0.018,1.3-0.051c0.3-1,0.517-3.449,0.65-7.35c0-0.4,0-0.8,0-1.2c0.1-4.6,0.05-7.1-0.15-7.5
	c-0.233-0.366-1.183-0.55-2.85-0.55c-0.066,0-0.117,0.017-0.15,0.05h-0.05c-1.5,0.067-2.417,0.184-2.75,0.351
	c-0.333,0.1-0.583,2.666-0.75,7.699c0,0.4,0,0.783,0,1.15c-0.034,4.233,0.1,6.533,0.4,6.9c0.2,0.232,0.767,0.383,1.7,0.449
	c-0.466,0.167-0.917,0.316-1.35,0.45c-0.467,1.8-0.667,3.634-0.6,5.5c0.033,1.101,0.033,2.2,0,3.3
	c-0.067,1.867,0.033,3.734,0.3,5.601c0.233,0.433,0.567,0.616,1,0.55C3.892,53.609,4.575,53.643,5.275,53.676v0.15
	c0.233,0,0.45-0.05,0.65-0.15C5.758,53.676,5.542,53.676,5.275,53.676z"></path>
<path fill-rule="evenodd" clip-rule="evenodd" fill="#FFFFFF" d="M8.375,38.727c0.167,0.333,0.217,2.05,0.15,5.149l2.1-1.649
	c0.367,0.566,0.717,1.166,1.05,1.8c0.367,0.634,0.7,1.316,1,2.05c0.433,1.033,0.833,2.1,1.2,3.2c0.4,1.1,0.767,2.233,1.1,3.399
	l-1.9,1.15c1.767,0.1,3.617,0.133,5.55,0.1c1.267,0,2.317,0.25,3.15,0.75l0.05,0.551l0.2-1l-0.05-14.851l0.05,14.851l-0.2,1
	l-0.05-0.551c-0.833-0.5-1.883-0.75-3.15-0.75c-1.933,0.033-3.783,0-5.55-0.1l1.9-1.15c-0.333-1.166-0.7-2.3-1.1-3.399
	c-0.367-1.101-0.767-2.167-1.2-3.2c-0.3-0.733-0.633-1.416-1-2.05c-0.333-0.634-0.684-1.233-1.05-1.8l-2.1,1.649
	C8.592,40.776,8.542,39.06,8.375,38.727z"></path>
<path fill-rule="evenodd" clip-rule="evenodd" fill="#FFFFFF" d="M6.525,38.227l-2.65-0.051L6.525,38.227z"></path>
<path fill-rule="evenodd" clip-rule="evenodd" fill="#FFFFFF" d="M5.275,53.826c-1.267,0.033-2,0.1-2.2,0.2
	c-0.3,0.134-0.417,1.083-0.35,2.85c0.033,1.634,0.1,2.667,0.2,3.101c0.167,0.333,3.217,0.533,9.15,0.6
	c2.833,0.033,5.017,0.017,6.55-0.05c1.633-0.067,2.534-0.184,2.7-0.351c0.3-0.232,0.467-0.934,0.5-2.1v-2.85v2.85
	c-0.033,1.166-0.2,1.867-0.5,2.1c-0.167,0.167-1.067,0.283-2.7,0.351c-1.533,0.066-3.716,0.083-6.55,0.05
	c-5.933-0.066-8.983-0.267-9.15-0.6c-0.1-0.434-0.167-1.467-0.2-3.101c-0.066-1.767,0.05-2.716,0.35-2.85
	C3.275,53.926,4.008,53.859,5.275,53.826z"></path>
<path fill-rule="evenodd" clip-rule="evenodd" fill="#FFFFFF" d="M7.525,53.676h-1.6H7.525c0.072,0,0.172,0,0.3,0h1.2l-0.8-1.75
	l0.8,1.75h-1.2v-0.05l0.4-1.7l-3.1-7.449l3.4-0.601l-3.4,0.601l3.1,7.449l-0.4,1.7C7.698,53.658,7.598,53.675,7.525,53.676z"></path>
<path fill-rule="evenodd" clip-rule="evenodd" fill="#FFFFFF" d="M28.125,53.676c-1.466,0.101-2.9,0.134-4.3,0.101
	c-0.7-0.167-1.3-0.017-1.8,0.45c0.5-0.467,1.1-0.617,1.8-0.45C25.225,53.81,26.659,53.776,28.125,53.676z"></path>
<path fill-rule="evenodd" clip-rule="evenodd" fill="#FFFFFF" d="M7.875,21.426l13.55-0.55L7.875,21.426z"></path>
<path fill-rule="evenodd" clip-rule="evenodd" fill="#FFFFFF" d="M21.825,58.076c0,0.967,0.1,1.584,0.3,1.85
	c0.1,0.234,1.934,0.4,5.5,0.5c0.733,0.033,1.55,0.051,2.45,0.051c5.233,0.066,7.983-0.066,8.25-0.4c0.167-0.1,0.283-0.434,0.35-1
	c-0.067,0.566-0.184,0.9-0.35,1c-0.267,0.334-3.017,0.467-8.25,0.4c-0.9,0-1.717-0.018-2.45-0.051c-3.566-0.1-5.4-0.266-5.5-0.5
	C21.925,59.66,21.825,59.043,21.825,58.076z"></path>
<polygon fill-rule="evenodd" clip-rule="evenodd" fill="#FFFFFF" points="13.075,53.826 10.825,56.126 10.125,56.276 9.025,53.676 
	10.125,56.276 10.825,56.126 "></polygon>
<path fill-rule="evenodd" clip-rule="evenodd" fill="#FFFFFF" d="M33.625,53.826c2.767,0.133,4.45,0.316,5.05,0.55
	C38.075,54.143,36.392,53.959,33.625,53.826z"></path>
<path fill-rule="evenodd" clip-rule="evenodd" fill="none" stroke="#383635" stroke-width="0.3" d="M2.575,1.776
	c-0.033,0.2-0.067,0.417-0.1,0.65c-0.133,0.667-0.25,1.35-0.35,2.05c-0.066,0.6,0.083,1.133,0.45,1.6l5.8,0.15h0.3v-0.5l0.45-0.65
	l1.1,1.05c2.333-0.267,4.684-0.533,7.05-0.8c0.1-0.233,0.2-0.45,0.3-0.65c0.467-0.967,0.567-1.983,0.3-3.05
	c-0.1-0.633-0.367-1.066-0.8-1.3l-0.75-0.2c-2,0.133-4.067,0.3-6.2,0.5c-1.933,0.167-3.466,0.3-4.6,0.4
	c-1.3,0.133-2.05,0.216-2.25,0.25C3.008,1.31,2.775,1.476,2.575,1.776z" style="stroke: rgb(0, 0, 0);"></path>
<path fill-rule="evenodd" clip-rule="evenodd" fill="none" stroke="#383635" stroke-width="0.3" d="M17.875,1.626l3.1,0.1
	c0.8,0.233,1.217,0.633,1.25,1.2c0.033,0.5,0.067,2.617,0.1,6.35c0,1.833,0,4.083,0,6.75c0,1.3,0,2.7,0,4.2
	c0.067,0.232-0.233,0.449-0.9,0.649c0.233,0.233,0.383,0.483,0.45,0.75c0.233,1.233,0.367,2.483,0.4,3.75c0,1-0.017,2.017-0.05,3.05
	c-0.066,1.334-0.083,2.667-0.05,4c0,1.2-0.017,2.351-0.05,3.45c0,0.467,0.034,0.934,0.1,1.4c0.067,0.7-0.2,1.183-0.8,1.45l0.1,0.05
	c0.2,0.033,0.35,0.233,0.45,0.6c0.033-0.3,0.35-0.483,0.95-0.55c0.267-0.066,0.566-0.1,0.9-0.1c1.333,0,2.6,0,3.8,0
	c3.2,0,5.8,0.016,7.8,0.05h2.65c1.8,0.066,2.917,1.066,3.35,3v1.399c0.867-0.166,1.75-0.266,2.65-0.3
	c0.667-0.134,1.233,0.15,1.7,0.851c0.1,2.467,0,4.899-0.3,7.3c-0.267,2.066-0.4,4.134-0.4,6.2c0,0.566-0.15,1.1-0.45,1.6l-1.2,0.6
	c-0.033,0.268-0.1,0.518-0.2,0.75c-0.533,1.101-1.383,1.601-2.55,1.5l-34.65-0.149l-5.35-0.351c-0.133-0.199-0.25-0.383-0.35-0.55
	c-0.133-0.233-0.2-0.466-0.2-0.7c0.167-3.766,0.167-7.6,0-11.5l0.05-45.2c0.033-0.2,0.1-0.367,0.2-0.5c0.567-0.6,1.3-0.917,2.2-0.95
	" style="stroke: rgb(0, 0, 0);"></path>
<path fill-rule="evenodd" clip-rule="evenodd" fill="none" stroke="#383635" stroke-width="0.3" d="M41.425,43.176l-1.4,0.25
	c-0.6,0.9-0.934,1.9-1,3c-0.067,0.834-0.133,1.684-0.2,2.551l1.7,2.85l-1.8,0.45l-0.05,2.1v4.7l4.75,0.35" style="stroke: rgb(0, 0, 0);"></path>
<path fill-rule="evenodd" clip-rule="evenodd" fill="none" stroke="#383635" stroke-width="0.3" d="M38.825,48.977l-1.05-2.551
	c-0.6-0.066-1.167,0-1.7,0.2c-2.967,0.333-5.833,1.05-8.6,2.15c-0.133,0.066-0.25,0.183-0.35,0.35c0.133,0.2,0.267,0.4,0.4,0.601
	c0.767,1.232,0.966,2.55,0.6,3.949l-0.35,1.051c0.333,0,0.65-0.051,0.95-0.15c0.333-0.1,0.667-0.233,1-0.4l3.9-0.35l5.1-1.55" style="stroke: rgb(0, 0, 0);"></path>
<path fill-rule="evenodd" clip-rule="evenodd" fill="none" stroke="#383635" stroke-width="0.3" d="M8.525,7.276l-3.15,10.5
	l3.05-0.1l3.15,0.35c0.2-0.534,0.4-1.05,0.6-1.55c1.033-2.233,1.75-4.517,2.15-6.85c0.1-0.8,0.183-1.6,0.25-2.4
	c-0.567,0.033-1.117,0.083-1.65,0.15c-1.067,0.067-1.967-0.35-2.7-1.25" style="stroke: rgb(0, 0, 0);"></path>
<path fill-rule="evenodd" clip-rule="evenodd" fill="none" stroke="#383635" stroke-width="0.3" d="M2.575,6.076
	c-0.267,0.067-0.45,1.433-0.55,4.1c-0.034,0.9-0.067,1.967-0.1,3.2c-0.033,0.967-0.033,1.85,0,2.65c-0.033,3,0.083,4.649,0.35,4.95
	c0.3,0.366,1.3,0.55,3,0.55c0.066,0,0.133,0,0.2,0c0.833,0,1.633-0.034,2.4-0.101c0.167-0.666,0.35-1.916,0.55-3.75" style="stroke: rgb(0, 0, 0);"></path>
<path fill-rule="evenodd" clip-rule="evenodd" fill="none" stroke="#383635" stroke-width="0.3" d="M5.275,53.676
	c-0.7-0.033-1.383-0.066-2.05-0.1c-0.433,0.066-0.767-0.117-1-0.55c-0.267-1.866-0.367-3.733-0.3-5.601c0.033-1.1,0.033-2.199,0-3.3
	c-0.067-1.866,0.133-3.7,0.6-5.5c0.433-0.134,0.883-0.283,1.35-0.45c-0.933-0.066-1.5-0.217-1.7-0.449
	c-0.3-0.367-0.434-2.667-0.4-6.9c0-0.367,0-0.75,0-1.15c0.167-5.033,0.417-7.6,0.75-7.699c0.333-0.167,1.25-0.283,2.75-0.351h0.05
	c0.033-0.033,0.083-0.05,0.15-0.05c1.667,0,2.617,0.184,2.85,0.55c0.2,0.4,0.25,2.9,0.15,7.5c0,0.4,0,0.8,0,1.2
	c-0.133,3.9-0.35,6.35-0.65,7.35c-0.467,0.033-0.9,0.051-1.3,0.051c0.633,0.1,1.25,0.266,1.85,0.5h13.05" style="stroke: rgb(0, 0, 0);"></path>
<path fill-rule="evenodd" clip-rule="evenodd" fill="none" stroke="#383635" stroke-width="0.3" d="M8.375,38.727
	c0.167,0.333,0.217,2.05,0.15,5.149l2.1-1.649c0.367,0.566,0.717,1.166,1.05,1.8c0.367,0.634,0.7,1.316,1,2.05
	c0.433,1.033,0.833,2.1,1.2,3.2c0.4,1.1,0.767,2.233,1.1,3.399l-1.9,1.15c1.767,0.1,3.617,0.133,5.55,0.1
	c1.267,0,2.317,0.25,3.15,0.75l0.05,0.551l0.2-1l-0.05-14.851" style="stroke: rgb(0, 0, 0);"></path>
<line fill-rule="evenodd" clip-rule="evenodd" fill="none" stroke="#383635" stroke-width="0.3" x1="6.525" y1="38.227" x2="3.875" y2="38.176" style="stroke: rgb(0, 0, 0);"></line>
<path fill-rule="evenodd" clip-rule="evenodd" fill="none" stroke="#383635" stroke-width="0.3" d="M5.275,53.826
	c-1.267,0.033-2,0.1-2.2,0.2c-0.3,0.134-0.417,1.083-0.35,2.85c0.033,1.634,0.1,2.667,0.2,3.101c0.167,0.333,3.217,0.533,9.15,0.6
	c2.833,0.033,5.017,0.017,6.55-0.05c1.633-0.067,2.534-0.184,2.7-0.351c0.3-0.232,0.467-0.934,0.5-2.1v-2.85" style="stroke: rgb(0, 0, 0);"></path>
<path fill-rule="evenodd" clip-rule="evenodd" fill="none" stroke="#383635" stroke-width="0.3" d="M5.275,53.826
	c0.233,0,0.45-0.05,0.65-0.15c-0.167,0-0.383,0-0.65,0" style="stroke: rgb(0, 0, 0);"></path>
<path fill-rule="evenodd" clip-rule="evenodd" fill="none" stroke="#383635" stroke-width="0.3" d="M7.525,53.676
	c0.073-0.001,0.173-0.018,0.3-0.05l0.4-1.7l-3.1-7.449l3.4-0.601" style="stroke: rgb(0, 0, 0);"></path>
<polyline fill-rule="evenodd" clip-rule="evenodd" fill="none" stroke="#383635" stroke-width="0.3" points="7.825,53.676 
	9.025,53.676 8.225,51.926 " style="stroke: rgb(0, 0, 0);"></polyline>
<polyline fill-rule="evenodd" clip-rule="evenodd" fill="none" stroke="#383635" stroke-width="0.3" points="13.075,53.826 
	10.825,56.126 10.125,56.276 9.025,53.676 " style="stroke: rgb(0, 0, 0);"></polyline>
<path fill-rule="evenodd" clip-rule="evenodd" fill="none" stroke="#383635" stroke-width="0.3" d="M7.825,53.676
	c-0.127,0-0.228,0-0.3,0h-1.6" style="stroke: rgb(0, 0, 0);"></path>
<path fill-rule="evenodd" clip-rule="evenodd" fill="none" stroke="#383635" stroke-width="0.3" d="M28.125,53.676
	c-1.466,0.101-2.9,0.134-4.3,0.101c-0.7-0.167-1.3-0.017-1.8,0.45" style="stroke: rgb(0, 0, 0);"></path>
<line fill-rule="evenodd" clip-rule="evenodd" fill="none" stroke="#383635" stroke-width="0.3" x1="7.875" y1="21.426" x2="21.425" y2="20.876" style="stroke: rgb(0, 0, 0);"></line>
<path fill-rule="evenodd" clip-rule="evenodd" fill="none" stroke="#383635" stroke-width="0.3" d="M21.825,58.076
	c0,0.967,0.1,1.584,0.3,1.85c0.1,0.234,1.934,0.4,5.5,0.5c0.733,0.033,1.55,0.051,2.45,0.051c5.233,0.066,7.983-0.066,8.25-0.4
	c0.167-0.1,0.283-0.434,0.35-1" style="stroke: rgb(0, 0, 0);"></path>
<path fill-rule="evenodd" clip-rule="evenodd" fill="none" stroke="#383635" stroke-width="0.3" d="M33.625,53.826
	c2.767,0.133,4.45,0.316,5.05,0.55" style="stroke: rgb(0, 0, 0);"></path>
<path fill-rule="evenodd" clip-rule="evenodd" fill="none" stroke="#383635" stroke-width="0.3" d="M8.525,7.276
	c-0.034-0.6-0.083-0.95-0.15-1.05" style="stroke: rgb(0, 0, 0);"></path>
<line fill-rule="evenodd" clip-rule="evenodd" fill="none" stroke="#383635" stroke-width="0.3" x1="8.675" y1="6.226" x2="8.525" y2="7.276" style="stroke: rgb(0, 0, 0);"></line>
</svg>