<svg version="1.1" id="Layer_1" xmlns="http://www.w3.org/2000/svg" xmlns:xlink="http://www.w3.org/1999/xlink" x="0px" y="0px" width="38.605px" height="38.605px" viewBox="0 0 38.605 38.605" enable-background="new 0 0 38.605 38.605" xml:space="preserve" class="ng-scope">
<path fill-rule="evenodd" clip-rule="evenodd" fill="#FFFFFF" d="M30.503,14.253c1.133-0.033,2.267-0.084,3.4-0.15
	c0.3-0.033,0.617-0.066,0.95-0.1c0.767-0.268,1.283-0.101,1.55,0.5h0.05v0.05c1,3.333,0.983,6.55-0.05,9.649l-0.05,0.051
	c-0.434,0.467-0.934,0.533-1.5,0.199c-0.333-0.033-0.65-0.066-0.95-0.1c-1.133-0.1-2.233-0.166-3.3-0.2
	c1.066,0.034,2.167,0.101,3.3,0.2c0.3,0.033,0.617,0.066,0.95,0.1c0.566,0.334,1.066,0.268,1.5-0.199l0.05-0.051
	c1.033-3.1,1.05-6.316,0.05-9.649v-0.05h-0.05c-0.267-0.601-0.783-0.768-1.55-0.5c-0.333,0.033-0.65,0.066-0.95,0.1
	C32.77,14.169,31.636,14.22,30.503,14.253z"></path>
<path fill-rule="evenodd" clip-rule="evenodd" fill="#FFFFFF" d="M25.703,29.803l-0.25,7.05c-0.066,0.267-0.267,0.483-0.6,0.65
	c-0.1,0.066-0.184,0.1-0.25,0.1c-3.467,1.233-7.15,1.166-11.05-0.2c-0.233-0.134-0.367-0.366-0.4-0.7l-0.2-7
	c0.4,0.268,0.833,0.5,1.3,0.7c1.566,0.733,3.283,1.101,5.15,1.101c1.7,0,3.283-0.301,4.75-0.9
	C24.686,30.369,25.203,30.103,25.703,29.803c-0.5,0.3-1.017,0.566-1.55,0.8c-1.467,0.6-3.05,0.9-4.75,0.9
	c-1.867,0-3.583-0.367-5.15-1.101c-0.467-0.2-0.9-0.433-1.3-0.7c-0.767-0.5-1.483-1.083-2.15-1.75c-0.7-0.699-1.3-1.449-1.8-2.25
	c-0.267-0.434-0.5-0.883-0.7-1.35c-0.7-1.533-1.05-3.2-1.05-5c0-1.767,0.333-3.4,1-4.9c0.233-0.533,0.5-1.05,0.8-1.55
	c-0.3,0.5-0.566,1.017-0.8,1.55c-0.667,1.5-1,3.134-1,4.9c0,1.8,0.35,3.467,1.05,5c0.2,0.467,0.434,0.916,0.7,1.35l-7.1-0.25
	c-0.333-0.033-0.567-0.166-0.7-0.399c-1.367-3.9-1.433-7.583-0.2-11.05c0-0.066,0.033-0.15,0.1-0.25
	c0.167-0.334,0.383-0.533,0.65-0.601l7.3-0.25c0.5-0.767,1.083-1.483,1.75-2.149c0.667-0.667,1.383-1.234,2.15-1.7
	c0.4-0.3,0.833-0.55,1.3-0.75c-0.467,0.2-0.9,0.45-1.3,0.75l0.2-7.15c0.033-0.333,0.167-0.566,0.4-0.7
	c3.9-1.367,7.583-1.434,11.05-0.2c0.066,0,0.15,0.033,0.25,0.1c0.333,0.167,0.533,0.383,0.6,0.65l0.25,7.2
	c0.8,0.467,1.567,1.066,2.3,1.801c0.7,0.699,1.283,1.434,1.75,2.199c0.267,0.4,0.517,0.834,0.75,1.301
	c0.7,1.533,1.05,3.232,1.05,5.1c0,1.733-0.316,3.334-0.95,4.8c-0.233,0.534-0.5,1.05-0.8,1.55c0.3-0.5,0.567-1.016,0.8-1.55
	c0.633-1.466,0.95-3.066,0.95-4.8c0-1.867-0.35-3.566-1.05-5.1c-0.233-0.467-0.483-0.9-0.75-1.301l6.95,0.2
	c0.333,0.034,0.567,0.167,0.7,0.4c1.367,3.899,1.433,7.583,0.2,11.05c0,0.066-0.034,0.15-0.1,0.25
	c-0.167,0.334-0.383,0.533-0.65,0.6l-7.05,0.25c-0.5,0.801-1.1,1.551-1.8,2.25C27.27,28.687,26.503,29.303,25.703,29.803z"></path>
<path fill-rule="evenodd" clip-rule="evenodd" fill="#FFFFFF" d="M36.453,14.553c-1,2.5-1.316,4.683-0.95,6.55
	c0.4,1.8,0.683,2.834,0.85,3.1h0.05h-0.05c-0.167-0.266-0.45-1.3-0.85-3.1C35.136,19.235,35.453,17.053,36.453,14.553z"></path>
<path fill-rule="evenodd" clip-rule="evenodd" fill="#FFFFFF" d="M33.903,24.353c1.467-3.367,1.467-6.783,0-10.25
	C35.37,17.569,35.37,20.985,33.903,24.353z"></path>
<path fill-rule="evenodd" clip-rule="evenodd" fill="#FFFFFF" d="M14.253,8.303c1.566-0.733,3.283-1.101,5.15-1.101
	c1.7,0,3.283,0.316,4.75,0.95c0.533,0.2,1.05,0.467,1.55,0.8c-0.5-0.333-1.017-0.6-1.55-0.8c-1.467-0.634-3.05-0.95-4.75-0.95
	C17.536,7.202,15.819,7.569,14.253,8.303c-0.033-1.2-0.083-2.4-0.15-3.6c-0.034-0.3-0.067-0.617-0.1-0.95
	c-0.267-0.767-0.1-1.283,0.5-1.55v-0.05h0.05c3.333-1,6.55-0.983,9.65,0.05l0.05,0.05c0.467,0.434,0.533,0.934,0.2,1.5
	c-0.033,0.333-0.066,0.65-0.1,0.95c-0.1,1.167-0.167,2.316-0.2,3.45c0.033-1.133,0.1-2.283,0.2-3.45c0.033-0.3,0.066-0.617,0.1-0.95
	c0.333-0.566,0.267-1.066-0.2-1.5l-0.05-0.05c-3.1-1.033-6.316-1.05-9.65-0.05h-0.05v0.05c-0.6,0.267-0.767,0.783-0.5,1.55
	c0.033,0.333,0.066,0.65,0.1,0.95C14.169,5.902,14.22,7.103,14.253,8.303z"></path>
<path fill-rule="evenodd" clip-rule="evenodd" fill="#FFFFFF" d="M14.553,2.152c2.5,1,4.684,1.317,6.55,0.95
	c1.8-0.4,2.833-0.683,3.1-0.85v-0.05v0.05c-0.267,0.167-1.3,0.45-3.1,0.85C19.236,3.469,17.053,3.152,14.553,2.152z"></path>
<path fill-rule="evenodd" clip-rule="evenodd" fill="#FFFFFF" d="M14.103,4.703c3.466-1.467,6.883-1.467,10.25,0
	C20.986,3.236,17.569,3.236,14.103,4.703z"></path>
<path fill-rule="evenodd" clip-rule="evenodd" fill="#FFFFFF" d="M2.253,14.353l-0.05,0.05h0.05c0.167,0.267,0.45,1.3,0.85,3.101
	c0.367,1.866,0.05,4.05-0.95,6.55v0.05h0.05c0.267,0.6,0.784,0.767,1.55,0.5c0.333-0.033,0.65-0.066,0.95-0.1
	c-1.466-3.467-1.466-6.884,0-10.25c-0.3-0.033-0.617-0.066-0.95-0.101C3.186,13.819,2.686,13.886,2.253,14.353
	c0.433-0.467,0.933-0.533,1.5-0.2c0.333,0.034,0.65,0.067,0.95,0.101c-1.466,3.366-1.466,6.783,0,10.25
	c-0.3,0.033-0.617,0.066-0.95,0.1c-0.767,0.267-1.283,0.1-1.55-0.5h-0.05v-0.05c1-2.5,1.317-4.684,0.95-6.55
	c-0.4-1.801-0.684-2.834-0.85-3.101h-0.05L2.253,14.353z"></path>
<path fill-rule="evenodd" clip-rule="evenodd" fill="#FFFFFF" d="M8.253,14.452c-1.167-0.033-2.35-0.1-3.55-0.199
	C5.903,14.353,7.086,14.419,8.253,14.452z"></path>
<path fill-rule="evenodd" clip-rule="evenodd" fill="#FFFFFF" d="M4.703,24.503c1.2-0.066,2.4-0.117,3.6-0.15
	C7.103,24.386,5.903,24.437,4.703,24.503z"></path>
<path fill-rule="evenodd" clip-rule="evenodd" fill="#FFFFFF" d="M24.153,30.603c0.033,1.066,0.1,2.166,0.2,3.3
	c0.033,0.3,0.066,0.616,0.1,0.95c0.333,0.566,0.267,1.066-0.2,1.5l-0.05,0.05c-3.1,1.034-6.316,1.05-9.65,0.05h-0.05v-0.05
	c-0.6-0.267-0.767-0.783-0.5-1.55c0.033-0.334,0.066-0.65,0.1-0.95c0.066-1.167,0.117-2.333,0.15-3.5
	c-0.033,1.167-0.083,2.333-0.15,3.5c-0.034,0.3-0.067,0.616-0.1,0.95c-0.267,0.767-0.1,1.283,0.5,1.55v0.05h0.05
	c3.333,1,6.55,0.984,9.65-0.05l0.05-0.05c0.467-0.434,0.533-0.934,0.2-1.5c-0.033-0.334-0.066-0.65-0.1-0.95
	C24.253,32.769,24.186,31.669,24.153,30.603z"></path>
<path fill-rule="evenodd" clip-rule="evenodd" fill="#FFFFFF" d="M2.153,24.053c-1-3.333-0.983-6.55,0.05-9.65
	C1.169,17.503,1.153,20.72,2.153,24.053z"></path>
<path fill-rule="evenodd" clip-rule="evenodd" fill="#FFFFFF" d="M14.103,33.902c3.466,1.467,6.883,1.467,10.25,0
	C20.986,35.369,17.569,35.369,14.103,33.902z"></path>
<path fill-rule="evenodd" clip-rule="evenodd" fill="#FFFFFF" d="M24.203,36.402v-0.05c-0.267-0.166-1.3-0.45-3.1-0.85
	c-1.867-0.367-4.05-0.051-6.55,0.949c2.5-1,4.684-1.316,6.55-0.949c1.8,0.399,2.833,0.684,3.1,0.85V36.402z"></path>
<path fill-rule="evenodd" clip-rule="evenodd" fill="none" stroke="#383635" stroke-width="0.3" stroke-linecap="round" stroke-linejoin="round" stroke-miterlimit="3" d="
	M30.503,14.253c1.133-0.033,2.267-0.084,3.4-0.15c0.3-0.033,0.617-0.066,0.95-0.1c0.767-0.268,1.283-0.101,1.55,0.5h0.05v0.05
	c1,3.333,0.983,6.55-0.05,9.649l-0.05,0.051c-0.434,0.467-0.934,0.533-1.5,0.199c-0.333-0.033-0.65-0.066-0.95-0.1
	c-1.133-0.1-2.233-0.166-3.3-0.2" style="stroke: rgb(0, 0, 0);"></path>
<path fill-rule="evenodd" clip-rule="evenodd" fill="none" stroke="#383635" stroke-width="0.3" stroke-linecap="round" stroke-linejoin="round" stroke-miterlimit="3" d="
	M29.803,25.702l7.05-0.25c0.267-0.066,0.483-0.266,0.65-0.6c0.066-0.1,0.1-0.184,0.1-0.25c1.233-3.467,1.167-7.15-0.2-11.05
	c-0.133-0.233-0.367-0.366-0.7-0.4l-6.95-0.2" style="stroke: rgb(0, 0, 0);"></path>
<path fill-rule="evenodd" clip-rule="evenodd" fill="none" stroke="#383635" stroke-width="0.3" stroke-linecap="round" stroke-linejoin="round" stroke-miterlimit="3" d="
	M36.453,14.553c-1,2.5-1.316,4.683-0.95,6.55c0.4,1.8,0.683,2.834,0.85,3.1h0.05" style="stroke: rgb(0, 0, 0);"></path>
<path fill-rule="evenodd" clip-rule="evenodd" fill="none" stroke="#383635" stroke-width="0.3" stroke-linecap="round" stroke-linejoin="round" stroke-miterlimit="3" d="
	M33.903,24.353c1.467-3.367,1.467-6.783,0-10.25" style="stroke: rgb(0, 0, 0);"></path>
<path fill-rule="evenodd" clip-rule="evenodd" fill="none" stroke="#383635" stroke-width="0.3" stroke-linecap="round" stroke-linejoin="round" stroke-miterlimit="3" d="
	M25.703,8.952l-0.25-7.2c-0.066-0.267-0.267-0.483-0.6-0.65c-0.1-0.067-0.184-0.1-0.25-0.1c-3.467-1.233-7.15-1.167-11.05,0.2
	c-0.233,0.133-0.367,0.367-0.4,0.7l-0.2,7.15" style="stroke: rgb(0, 0, 0);"></path>
<path fill-rule="evenodd" clip-rule="evenodd" fill="none" stroke="#383635" stroke-width="0.3" stroke-linecap="round" stroke-linejoin="round" stroke-miterlimit="3" d="
	M14.253,8.303c-0.033-1.2-0.083-2.4-0.15-3.6c-0.034-0.3-0.067-0.617-0.1-0.95c-0.267-0.767-0.1-1.283,0.5-1.55v-0.05h0.05
	c3.333-1,6.55-0.983,9.65,0.05l0.05,0.05c0.467,0.434,0.533,0.934,0.2,1.5c-0.033,0.333-0.066,0.65-0.1,0.95
	c-0.1,1.167-0.167,2.316-0.2,3.45" style="stroke: rgb(0, 0, 0);"></path>
<path fill-rule="evenodd" clip-rule="evenodd" fill="none" stroke="#383635" stroke-width="0.3" stroke-linecap="round" stroke-linejoin="round" stroke-miterlimit="3" d="
	M14.553,2.152c2.5,1,4.684,1.317,6.55,0.95c1.8-0.4,2.833-0.683,3.1-0.85v-0.05" style="stroke: rgb(0, 0, 0);"></path>
<path fill-rule="evenodd" clip-rule="evenodd" fill="none" stroke="#383635" stroke-width="0.3" stroke-linecap="round" stroke-linejoin="round" stroke-miterlimit="3" d="
	M14.103,4.703c3.466-1.467,6.883-1.467,10.25,0" style="stroke: rgb(0, 0, 0);"></path>
<path fill-rule="evenodd" clip-rule="evenodd" fill="none" stroke="#383635" stroke-width="0.3" stroke-linecap="round" stroke-linejoin="round" stroke-miterlimit="3" d="
	M9.003,25.702l-7.1-0.25c-0.333-0.033-0.567-0.166-0.7-0.399c-1.367-3.9-1.433-7.583-0.2-11.05c0-0.066,0.033-0.15,0.1-0.25
	c0.167-0.334,0.383-0.533,0.65-0.601l7.3-0.25" style="stroke: rgb(0, 0, 0);"></path>
<path fill-rule="evenodd" clip-rule="evenodd" fill="none" stroke="#383635" stroke-width="0.3" stroke-linecap="round" stroke-linejoin="round" stroke-miterlimit="3" d="
	M2.253,14.353l-0.05,0.05h0.05c0.167,0.267,0.45,1.3,0.85,3.101c0.367,1.866,0.05,4.05-0.95,6.55v0.05h0.05
	c0.267,0.6,0.784,0.767,1.55,0.5c0.333-0.033,0.65-0.066,0.95-0.1c-1.466-3.467-1.466-6.884,0-10.25
	c-0.3-0.033-0.617-0.066-0.95-0.101C3.186,13.819,2.686,13.886,2.253,14.353z" style="stroke: rgb(0, 0, 0);"></path>
<path fill-rule="evenodd" clip-rule="evenodd" fill="none" stroke="#383635" stroke-width="0.3" stroke-linecap="round" stroke-linejoin="round" stroke-miterlimit="3" d="
	M8.253,14.452c-1.167-0.033-2.35-0.1-3.55-0.199" style="stroke: rgb(0, 0, 0);"></path>
<path fill-rule="evenodd" clip-rule="evenodd" fill="none" stroke="#383635" stroke-width="0.3" stroke-linecap="round" stroke-linejoin="round" stroke-miterlimit="3" d="
	M4.703,24.503c1.2-0.066,2.4-0.117,3.6-0.15" style="stroke: rgb(0, 0, 0);"></path>
<path fill-rule="evenodd" clip-rule="evenodd" fill="none" stroke="#383635" stroke-width="0.3" stroke-linecap="round" stroke-linejoin="round" stroke-miterlimit="3" d="
	M24.153,30.603c0.033,1.066,0.1,2.166,0.2,3.3c0.033,0.3,0.066,0.616,0.1,0.95c0.333,0.566,0.267,1.066-0.2,1.5l-0.05,0.05
	c-3.1,1.034-6.316,1.05-9.65,0.05h-0.05v-0.05c-0.6-0.267-0.767-0.783-0.5-1.55c0.033-0.334,0.066-0.65,0.1-0.95
	c0.066-1.167,0.117-2.333,0.15-3.5" style="stroke: rgb(0, 0, 0);"></path>
<path fill-rule="evenodd" clip-rule="evenodd" fill="none" stroke="#383635" stroke-width="0.3" stroke-linecap="round" stroke-linejoin="round" stroke-miterlimit="3" d="
	M25.703,29.803l-0.25,7.05c-0.066,0.267-0.267,0.483-0.6,0.65c-0.1,0.066-0.184,0.1-0.25,0.1c-3.467,1.233-7.15,1.166-11.05-0.2
	c-0.233-0.134-0.367-0.366-0.4-0.7l-0.2-7" style="stroke: rgb(0, 0, 0);"></path>
<path fill-rule="evenodd" clip-rule="evenodd" fill="none" stroke="#383635" stroke-width="0.3" stroke-linecap="round" stroke-linejoin="round" stroke-miterlimit="3" d="
	M14.553,36.452c2.5-1,4.684-1.316,6.55-0.949c1.8,0.399,2.833,0.684,3.1,0.85v0.05" style="stroke: rgb(0, 0, 0);"></path>
<path fill-rule="evenodd" clip-rule="evenodd" fill="none" stroke="#383635" stroke-width="0.3" stroke-linecap="round" stroke-linejoin="round" stroke-miterlimit="3" d="
	M24.353,33.902c-3.367,1.467-6.784,1.467-10.25,0" style="stroke: rgb(0, 0, 0);"></path>
<path fill-rule="evenodd" clip-rule="evenodd" fill="none" stroke="#383635" stroke-width="0.3" stroke-linecap="round" stroke-linejoin="round" stroke-miterlimit="3" d="
	M2.203,14.402c-1.033,3.101-1.05,6.317-0.05,9.65" style="stroke: rgb(0, 0, 0);"></path>
<path fill-rule="evenodd" clip-rule="evenodd" fill="none" stroke="#383635" stroke-width="0.3" d="M30.603,24.152
	c-0.233,0.534-0.5,1.05-0.8,1.55" style="stroke: rgb(0, 0, 0);"></path>
<path fill-rule="evenodd" clip-rule="evenodd" fill="none" stroke="#383635" stroke-width="0.3" d="M29.753,12.952
	c0.267,0.4,0.517,0.834,0.75,1.301c0.7,1.533,1.05,3.232,1.05,5.1c0,1.733-0.316,3.334-0.95,4.8" style="stroke: rgb(0, 0, 0);"></path>
<path fill-rule="evenodd" clip-rule="evenodd" fill="none" stroke="#383635" stroke-width="0.3" d="M12.953,9.053
	c0.4-0.3,0.833-0.55,1.3-0.75c1.566-0.733,3.283-1.101,5.15-1.101c1.7,0,3.283,0.316,4.75,0.95c0.533,0.2,1.05,0.467,1.55,0.8
	c0.8,0.467,1.567,1.066,2.3,1.801c0.7,0.699,1.283,1.434,1.75,2.199" style="stroke: rgb(0, 0, 0);"></path>
<path fill-rule="evenodd" clip-rule="evenodd" fill="none" stroke="#383635" stroke-width="0.3" d="M9.053,12.902
	c0.5-0.767,1.083-1.483,1.75-2.149c0.667-0.667,1.383-1.234,2.15-1.7" style="stroke: rgb(0, 0, 0);"></path>
<path fill-rule="evenodd" clip-rule="evenodd" fill="none" stroke="#383635" stroke-width="0.3" d="M9.053,12.902
	c-0.3,0.5-0.566,1.017-0.8,1.55c-0.667,1.5-1,3.134-1,4.9c0,1.8,0.35,3.467,1.05,5c0.2,0.467,0.434,0.916,0.7,1.35
	c0.5,0.801,1.1,1.551,1.8,2.25c0.667,0.667,1.383,1.25,2.15,1.75c0.4,0.268,0.833,0.5,1.3,0.7c1.566,0.733,3.283,1.101,5.15,1.101
	c1.7,0,3.283-0.301,4.75-0.9c0.533-0.233,1.05-0.5,1.55-0.8c0.8-0.5,1.567-1.116,2.3-1.851c0.7-0.699,1.3-1.449,1.8-2.25" style="stroke: rgb(0, 0, 0);"></path>
</svg>