<svg version="1.1" id="Layer_1" xmlns="http://www.w3.org/2000/svg" xmlns:xlink="http://www.w3.org/1999/xlink" x="0px" y="0px" width="42.729px" height="41.085px" viewBox="0 0 42.729 41.085" enable-background="new 0 0 42.729 41.085" xml:space="preserve" class="ng-scope">
<path fill-rule="evenodd" clip-rule="evenodd" fill="#FFFFFF" d="M6.865,34.552c2.267,2.634,4.983,4.351,8.15,5.15
	C11.848,38.903,9.131,37.186,6.865,34.552z"></path>
<path fill-rule="evenodd" clip-rule="evenodd" fill="#FFFFFF" d="M16.464,2.203c-0.6,0.267-0.767,0.783-0.5,1.55
	c0.034,0.333,0.067,0.65,0.1,0.95c3.467-1.467,6.883-1.467,10.25,0c0.033-0.3,0.067-0.617,0.1-0.95c0.333-0.566,0.267-1.066-0.2-1.5
	l-0.05-0.05v0.05c-0.267,0.167-1.3,0.45-3.1,0.85c-1.867,0.367-4.05,0.05-6.55-0.95h-0.05V2.203v-0.05h0.05
	c2.5,1,4.683,1.316,6.55,0.95c1.8-0.4,2.833-0.683,3.1-0.85v-0.05l0.05,0.05c0.467,0.434,0.534,0.934,0.2,1.5
	c-0.033,0.333-0.067,0.65-0.1,0.95c-3.367-1.467-6.783-1.467-10.25,0c-0.033-0.3-0.066-0.617-0.1-0.95
	C15.698,2.986,15.865,2.469,16.464,2.203z"></path>
<path fill-rule="evenodd" clip-rule="evenodd" fill="#FFFFFF" d="M35.265,24.203c-0.267,1.233-0.7,2.4-1.3,3.5
	c-0.233,0.4-0.483,0.8-0.75,1.2c-0.5,0.733-1.083,1.433-1.75,2.1c-1.867,1.833-3.966,3.05-6.3,3.65
	c-0.567,0.134-1.117,0.25-1.65,0.35c0.533-0.1,1.083-0.216,1.65-0.35c2.333-0.601,4.433-1.817,6.3-3.65
	c0.667-0.667,1.25-1.366,1.75-2.1c0.267-0.4,0.517-0.8,0.75-1.2l3.85,6.25c0.133,0.3,0.133,0.584,0,0.85
	c-2.566,3.234-5.633,5.268-9.2,6.101c-0.067,0.033-0.15,0.05-0.25,0.05c-0.367,0.033-0.65-0.033-0.85-0.2l-4-5.75
	c-0.667,0.067-1.35,0.101-2.05,0.101c-0.566,0-1.117-0.033-1.65-0.101l-4,5.75c-0.2,0.167-0.483,0.233-0.85,0.2
	c-0.1,0-0.183-0.017-0.25-0.05c-3.566-0.833-6.633-2.866-9.2-6.101c-0.133-0.266-0.133-0.55,0-0.85l3.65-5.95
	c-0.667-1.167-1.15-2.399-1.45-3.7c-0.133-0.566-0.216-1.133-0.25-1.699c-1.2-0.334-2.433-0.617-3.7-0.851
	c-0.3-0.066-0.6-0.116-0.9-0.149c-0.667,0.166-1.133-0.051-1.4-0.65h0.05c-0.2-3.267,0.633-6.367,2.5-9.3v-0.05l0.05-0.051
	c0.434-0.467,0.983-0.467,1.65,0c0.3,0.101,0.6,0.217,0.9,0.351c1.1,0.399,2.2,0.767,3.3,1.1c-1.1-0.333-2.2-0.7-3.3-1.1
	c-0.3-0.134-0.6-0.25-0.9-0.351c-0.667-0.467-1.216-0.467-1.65,0l-0.05,0.051v0.05c-1.867,2.933-2.7,6.033-2.5,9.3h-0.05
	c0.267,0.6,0.733,0.816,1.4,0.65c0.3,0.033,0.6,0.083,0.9,0.149c1.267,0.233,2.5,0.517,3.7,0.851
	c0.034,0.566,0.117,1.133,0.25,1.699l-7.1-2.25c-0.2-0.133-0.333-0.399-0.4-0.8c-0.066-0.1-0.083-0.183-0.05-0.25
	c-0.267-3.7,0.817-7.216,3.25-10.55c0.2-0.2,0.45-0.267,0.75-0.2l6.65,1.65c0.233-0.267,0.467-0.517,0.7-0.75
	c1.033-1.067,2.167-1.917,3.4-2.55c0.433-0.234,0.867-0.434,1.3-0.601c-0.433,0.167-0.867,0.366-1.3,0.601l0.2-6.7
	c0.033-0.333,0.167-0.567,0.4-0.7c3.9-1.367,7.583-1.433,11.05-0.2c0.067,0,0.15,0.034,0.25,0.1c0.333,0.167,0.533,0.383,0.6,0.65
	l0.25,6.65c1.367,0.667,2.633,1.583,3.8,2.75c0.233,0.233,0.45,0.466,0.65,0.7l6.45-1.601c0.3-0.066,0.55,0,0.75,0.2
	c2.434,3.334,3.517,6.85,3.25,10.55c0.033,0.067,0.017,0.15-0.05,0.25c-0.067,0.4-0.2,0.667-0.4,0.8L35.265,24.203
	c0.1-0.533,0.183-1.084,0.25-1.65c1.1-0.3,2.25-0.566,3.45-0.8c0.3-0.066,0.6-0.116,0.9-0.149c0.667,0.166,1.133-0.051,1.4-0.65
	c0.167-3.267-0.684-6.367-2.55-9.3v-0.05l-0.05-0.051c-0.433-0.467-0.983-0.467-1.65,0c-0.3,0.101-0.6,0.217-0.9,0.351
	c-1.034,0.366-2.067,0.716-3.1,1.05c-0.267-0.367-0.567-0.733-0.9-1.1c0.333,0.366,0.633,0.732,0.9,1.1
	c1.033-0.334,2.066-0.684,3.1-1.05c0.3-0.134,0.6-0.25,0.9-0.351c0.667-0.467,1.217-0.467,1.65,0l0.05,0.051v0.05
	c1.867,2.933,2.717,6.033,2.55,9.3c-0.267,0.6-0.733,0.816-1.4,0.65c-0.3,0.033-0.6,0.083-0.9,0.149c-1.2,0.233-2.35,0.5-3.45,0.8
	C35.448,23.119,35.365,23.669,35.265,24.203z"></path>
<path fill-rule="evenodd" clip-rule="evenodd" fill="#FFFFFF" d="M27.665,8.403c-0.5-0.267-1.017-0.483-1.55-0.65
	c0.033-1,0.1-2.017,0.2-3.05c-0.1,1.033-0.167,2.05-0.2,3.05C26.648,7.919,27.165,8.136,27.665,8.403z"></path>
<path fill-rule="evenodd" clip-rule="evenodd" fill="#FFFFFF" d="M26.165,2.203c-3.1-1.033-6.317-1.05-9.65-0.05
	C19.848,1.153,23.064,1.169,26.165,2.203z"></path>
<path fill-rule="evenodd" clip-rule="evenodd" fill="#FFFFFF" d="M16.064,4.703c0.067,1.1,0.117,2.2,0.15,3.3
	C16.181,6.903,16.131,5.803,16.064,4.703z"></path>
<path fill-rule="evenodd" clip-rule="evenodd" fill="#FFFFFF" d="M26.115,7.752c-1.434-0.5-2.983-0.75-4.65-0.75
	c-1.9,0-3.65,0.333-5.25,1c1.6-0.667,3.35-1,5.25-1C23.131,7.002,24.681,7.252,26.115,7.752z"></path>
<path fill-rule="evenodd" clip-rule="evenodd" fill="#FFFFFF" d="M7.464,22.603c-0.066-0.5-0.1-1.018-0.1-1.551
	c0-3.033,0.85-5.717,2.55-8.05c0.267-0.366,0.567-0.733,0.9-1.1c-0.333,0.366-0.633,0.733-0.9,1.1c-1.7,2.333-2.55,5.017-2.55,8.05
	C7.365,21.585,7.398,22.103,7.464,22.603z"></path>
<path fill-rule="evenodd" clip-rule="evenodd" fill="#FFFFFF" d="M4.015,11.653c0.3,2.667,0,4.85-0.9,6.55
	c-0.833,1.566-1.367,2.483-1.6,2.75c0.233-0.267,0.767-1.184,1.6-2.75C4.015,16.502,4.314,14.32,4.015,11.653z"></path>
<path fill-rule="evenodd" clip-rule="evenodd" fill="#FFFFFF" d="M3.765,21.752c-0.467-3.634,0.483-6.917,2.85-9.85
	C4.248,14.835,3.298,18.119,3.765,21.752z"></path>
<path fill-rule="evenodd" clip-rule="evenodd" fill="#FFFFFF" d="M19.814,35.002c-0.566-0.066-1.117-0.149-1.65-0.25
	c-2.5-0.566-4.717-1.816-6.65-3.75c-0.6-0.6-1.117-1.2-1.55-1.8c-0.7,1-1.4,1.983-2.1,2.95c2.133,3.1,5.017,4.933,8.65,5.5
	c0.5-1,1.05-1.967,1.65-2.9c-0.6,0.934-1.15,1.9-1.65,2.9c-3.633-0.567-6.517-2.4-8.65-5.5c0.7-0.967,1.4-1.95,2.1-2.95
	c0.434,0.6,0.95,1.2,1.55,1.8c1.933,1.934,4.15,3.184,6.65,3.75C18.698,34.853,19.248,34.936,19.814,35.002z"></path>
<path fill-rule="evenodd" clip-rule="evenodd" fill="#FFFFFF" d="M7.865,32.153c-0.167,0.233-0.367,0.483-0.6,0.75
	c-0.633,0.466-0.8,0.983-0.5,1.55l0.1,0.1c2.633,0.5,4.633,1.4,6,2.7c1.3,1.3,2.017,2.101,2.15,2.4v0.05l0.05-0.05
	c0.633-0.101,0.95-0.483,0.95-1.15c0.2-0.267,0.367-0.55,0.5-0.85c-0.133,0.3-0.3,0.583-0.5,0.85c0,0.667-0.317,1.05-0.95,1.15
	l-0.05,0.05v-0.05c-0.133-0.3-0.85-1.101-2.15-2.4c-1.367-1.3-3.367-2.2-6-2.7l-0.1-0.1c-0.3-0.566-0.133-1.084,0.5-1.55
	C7.498,32.636,7.698,32.386,7.865,32.153z"></path>
<path fill-rule="evenodd" clip-rule="evenodd" fill="#FFFFFF" d="M28.314,39.703v-0.05c0.133-0.3,0.85-1.101,2.15-2.4
	c1.367-1.3,3.367-2.2,6-2.7l0.1-0.1c0.3-0.566,0.133-1.084-0.5-1.55c-0.233-0.267-0.433-0.517-0.6-0.75
	c-2.133,3.1-5.017,4.933-8.65,5.5c0.133,0.3,0.3,0.583,0.5,0.85c0,0.667,0.317,1.05,0.95,1.15L28.314,39.703h0.05
	c3.133-0.8,5.833-2.517,8.1-5.15c-2.267,2.634-4.966,4.351-8.1,5.15H28.314l-0.05-0.05c-0.633-0.101-0.95-0.483-0.95-1.15
	c-0.2-0.267-0.367-0.55-0.5-0.85c3.633-0.567,6.517-2.4,8.65-5.5c0.167,0.233,0.367,0.483,0.6,0.75c0.633,0.466,0.8,0.983,0.5,1.55
	l-0.1,0.1c-2.633,0.5-4.633,1.4-6,2.7c-1.3,1.3-2.017,2.101-2.15,2.4V39.703z"></path>
<path fill-rule="evenodd" clip-rule="evenodd" fill="#FFFFFF" d="M25.165,34.653c0.567,0.966,1.117,1.966,1.65,3
	C26.281,36.619,25.731,35.619,25.165,34.653z"></path>
<path fill-rule="evenodd" clip-rule="evenodd" fill="#FFFFFF" d="M9.964,29.203c-0.3-0.4-0.566-0.8-0.8-1.2
	C9.398,28.403,9.665,28.802,9.964,29.203z"></path>
<path fill-rule="evenodd" clip-rule="evenodd" fill="#FFFFFF" d="M38.714,11.653c-0.3,2.667,0,4.85,0.9,6.55
	c0.833,1.566,1.383,2.483,1.65,2.75c-0.267-0.267-0.817-1.184-1.65-2.75C38.714,16.502,38.415,14.32,38.714,11.653z"></path>
<path fill-rule="evenodd" clip-rule="evenodd" fill="#FFFFFF" d="M35.515,22.552c0.033-0.5,0.05-1,0.05-1.5
	c0-3.066-0.85-5.766-2.55-8.1c1.7,2.334,2.55,5.033,2.55,8.1C35.564,21.552,35.548,22.052,35.515,22.552z"></path>
<path fill-rule="evenodd" clip-rule="evenodd" fill="#FFFFFF" d="M36.115,11.903c2.367,2.933,3.316,6.216,2.85,9.85
	C39.431,18.119,38.481,14.835,36.115,11.903z"></path>
<path fill-rule="evenodd" clip-rule="evenodd" fill="#FFFFFF" d="M35.464,32.153c-0.767-1.067-1.517-2.15-2.25-3.25
	C33.948,30.002,34.698,31.085,35.464,32.153z"></path>
<path fill-rule="evenodd" clip-rule="evenodd" fill="none" stroke="#383635" stroke-width="0.3" stroke-linecap="round" stroke-linejoin="round" stroke-miterlimit="3" d="
	M16.464,2.203c-0.6,0.267-0.767,0.783-0.5,1.55c0.034,0.333,0.067,0.65,0.1,0.95c3.467-1.467,6.883-1.467,10.25,0
	c0.033-0.3,0.067-0.617,0.1-0.95c0.333-0.566,0.267-1.066-0.2-1.5l-0.05-0.05v0.05c-0.267,0.167-1.3,0.45-3.1,0.85
	c-1.867,0.367-4.05,0.05-6.55-0.95h-0.05V2.203z" style="stroke: rgb(0, 0, 0);"></path>
<path fill-rule="evenodd" clip-rule="evenodd" fill="none" stroke="#383635" stroke-width="0.3" stroke-linecap="round" stroke-linejoin="round" stroke-miterlimit="3" d="
	M27.665,8.403l-0.25-6.65c-0.067-0.267-0.267-0.483-0.6-0.65c-0.1-0.066-0.183-0.1-0.25-0.1c-3.467-1.233-7.15-1.167-11.05,0.2
	c-0.233,0.133-0.367,0.367-0.4,0.7l-0.2,6.7" style="stroke: rgb(0, 0, 0);"></path>
<path fill-rule="evenodd" clip-rule="evenodd" fill="none" stroke="#383635" stroke-width="0.3" stroke-linecap="round" stroke-linejoin="round" stroke-miterlimit="3" d="
	M16.214,8.002c-0.033-1.1-0.083-2.2-0.15-3.3" style="stroke: rgb(0, 0, 0);"></path>
<path fill-rule="evenodd" clip-rule="evenodd" fill="none" stroke="#383635" stroke-width="0.3" stroke-linecap="round" stroke-linejoin="round" stroke-miterlimit="3" d="
	M16.515,2.153c3.333-1,6.55-0.983,9.65,0.05" style="stroke: rgb(0, 0, 0);"></path>
<path fill-rule="evenodd" clip-rule="evenodd" fill="none" stroke="#383635" stroke-width="0.3" stroke-linecap="round" stroke-linejoin="round" stroke-miterlimit="3" d="
	M26.314,4.703c-0.1,1.033-0.167,2.05-0.2,3.05" style="stroke: rgb(0, 0, 0);"></path>
<path fill-rule="evenodd" clip-rule="evenodd" fill="none" stroke="#383635" stroke-width="0.3" stroke-linecap="round" stroke-linejoin="round" stroke-miterlimit="3" d="
	M33.015,12.953c1.033-0.334,2.066-0.684,3.1-1.05c0.3-0.134,0.6-0.25,0.9-0.351c0.667-0.467,1.217-0.467,1.65,0l0.05,0.051v0.05
	c1.867,2.933,2.717,6.033,2.55,9.3c-0.267,0.6-0.733,0.816-1.4,0.65c-0.3,0.033-0.6,0.083-0.9,0.149c-1.2,0.233-2.35,0.5-3.45,0.8" style="stroke: rgb(0, 0, 0);"></path>
<path fill-rule="evenodd" clip-rule="evenodd" fill="none" stroke="#383635" stroke-width="0.3" stroke-linecap="round" stroke-linejoin="round" stroke-miterlimit="3" d="
	M35.265,24.203l6.85-2.15c0.2-0.133,0.333-0.399,0.4-0.8c0.066-0.1,0.083-0.183,0.05-0.25c0.267-3.7-0.816-7.216-3.25-10.55
	c-0.2-0.2-0.45-0.267-0.75-0.2l-6.45,1.601" style="stroke: rgb(0, 0, 0);"></path>
<path fill-rule="evenodd" clip-rule="evenodd" fill="none" stroke="#383635" stroke-width="0.3" stroke-linecap="round" stroke-linejoin="round" stroke-miterlimit="3" d="
	M7.714,24.302l-7.1-2.25c-0.2-0.133-0.333-0.399-0.4-0.8c-0.066-0.1-0.083-0.183-0.05-0.25c-0.267-3.7,0.817-7.216,3.25-10.55
	c0.2-0.2,0.45-0.267,0.75-0.2l6.65,1.65" style="stroke: rgb(0, 0, 0);"></path>
<path fill-rule="evenodd" clip-rule="evenodd" fill="none" stroke="#383635" stroke-width="0.3" stroke-linecap="round" stroke-linejoin="round" stroke-miterlimit="3" d="
	M7.464,22.603c-1.2-0.334-2.433-0.617-3.7-0.851c-0.3-0.066-0.6-0.116-0.9-0.149c-0.667,0.166-1.133-0.051-1.4-0.65h0.05
	c-0.2-3.267,0.633-6.367,2.5-9.3v-0.05l0.05-0.051c0.434-0.467,0.983-0.467,1.65,0c0.3,0.101,0.6,0.217,0.9,0.351
	c1.1,0.399,2.2,0.767,3.3,1.1" style="stroke: rgb(0, 0, 0);"></path>
<path fill-rule="evenodd" clip-rule="evenodd" fill="none" stroke="#383635" stroke-width="0.3" stroke-linecap="round" stroke-linejoin="round" stroke-miterlimit="3" d="
	M4.015,11.653c0.3,2.667,0,4.85-0.9,6.55c-0.833,1.566-1.367,2.483-1.6,2.75" style="stroke: rgb(0, 0, 0);"></path>
<path fill-rule="evenodd" clip-rule="evenodd" fill="none" stroke="#383635" stroke-width="0.3" stroke-linecap="round" stroke-linejoin="round" stroke-miterlimit="3" d="
	M3.765,21.752c-0.467-3.634,0.483-6.917,2.85-9.85" style="stroke: rgb(0, 0, 0);"></path>
<path fill-rule="evenodd" clip-rule="evenodd" fill="none" stroke="#383635" stroke-width="0.3" stroke-linecap="round" stroke-linejoin="round" stroke-miterlimit="3" d="
	M19.814,35.002l-4,5.75c-0.2,0.167-0.483,0.233-0.85,0.2c-0.1,0-0.183-0.017-0.25-0.05c-3.566-0.833-6.633-2.866-9.2-6.101
	c-0.133-0.266-0.133-0.55,0-0.85l3.65-5.95" style="stroke: rgb(0, 0, 0);"></path>
<path fill-rule="evenodd" clip-rule="evenodd" fill="none" stroke="#383635" stroke-width="0.3" stroke-linecap="round" stroke-linejoin="round" stroke-miterlimit="3" d="
	M9.964,29.203c-0.7,1-1.4,1.983-2.1,2.95c2.133,3.1,5.017,4.933,8.65,5.5c0.5-1,1.05-1.967,1.65-2.9" style="stroke: rgb(0, 0, 0);"></path>
<path fill-rule="evenodd" clip-rule="evenodd" fill="none" stroke="#383635" stroke-width="0.3" stroke-linecap="round" stroke-linejoin="round" stroke-miterlimit="3" d="
	M7.865,32.153c-0.167,0.233-0.367,0.483-0.6,0.75c-0.633,0.466-0.8,0.983-0.5,1.55l0.1,0.1c2.633,0.5,4.633,1.4,6,2.7
	c1.3,1.3,2.017,2.101,2.15,2.4v0.05l0.05-0.05c0.633-0.101,0.95-0.483,0.95-1.15c0.2-0.267,0.367-0.55,0.5-0.85" style="stroke: rgb(0, 0, 0);"></path>
<path fill-rule="evenodd" clip-rule="evenodd" fill="none" stroke="#383635" stroke-width="0.3" stroke-linecap="round" stroke-linejoin="round" stroke-miterlimit="3" d="
	M28.314,39.703v-0.05c0.133-0.3,0.85-1.101,2.15-2.4c1.367-1.3,3.367-2.2,6-2.7l0.1-0.1c0.3-0.566,0.133-1.084-0.5-1.55
	c-0.233-0.267-0.433-0.517-0.6-0.75c-2.133,3.1-5.017,4.933-8.65,5.5c0.133,0.3,0.3,0.583,0.5,0.85c0,0.667,0.317,1.05,0.95,1.15
	L28.314,39.703h0.05c3.133-0.8,5.833-2.517,8.1-5.15" style="stroke: rgb(0, 0, 0);"></path>
<path fill-rule="evenodd" clip-rule="evenodd" fill="none" stroke="#383635" stroke-width="0.3" stroke-linecap="round" stroke-linejoin="round" stroke-miterlimit="3" d="
	M33.964,27.703l3.85,6.25c0.133,0.3,0.133,0.584,0,0.85c-2.566,3.234-5.633,5.268-9.2,6.101c-0.067,0.033-0.15,0.05-0.25,0.05
	c-0.367,0.033-0.65-0.033-0.85-0.2l-4-5.75" style="stroke: rgb(0, 0, 0);"></path>
<path fill-rule="evenodd" clip-rule="evenodd" fill="none" stroke="#383635" stroke-width="0.3" stroke-linecap="round" stroke-linejoin="round" stroke-miterlimit="3" d="
	M25.165,34.653c0.567,0.966,1.117,1.966,1.65,3" style="stroke: rgb(0, 0, 0);"></path>
<path fill-rule="evenodd" clip-rule="evenodd" fill="none" stroke="#383635" stroke-width="0.3" stroke-linecap="round" stroke-linejoin="round" stroke-miterlimit="3" d="
	M15.015,39.703c-3.167-0.8-5.883-2.517-8.15-5.15" style="stroke: rgb(0, 0, 0);"></path>
<path fill-rule="evenodd" clip-rule="evenodd" fill="none" stroke="#383635" stroke-width="0.3" stroke-linecap="round" stroke-linejoin="round" stroke-miterlimit="3" d="
	M38.714,11.653c-0.3,2.667,0,4.85,0.9,6.55c0.833,1.566,1.383,2.483,1.65,2.75" style="stroke: rgb(0, 0, 0);"></path>
<path fill-rule="evenodd" clip-rule="evenodd" fill="none" stroke="#383635" stroke-width="0.3" stroke-linecap="round" stroke-linejoin="round" stroke-miterlimit="3" d="
	M36.115,11.903c2.367,2.933,3.316,6.216,2.85,9.85" style="stroke: rgb(0, 0, 0);"></path>
<path fill-rule="evenodd" clip-rule="evenodd" fill="none" stroke="#383635" stroke-width="0.3" stroke-linecap="round" stroke-linejoin="round" stroke-miterlimit="3" d="
	M35.464,32.153c-0.767-1.067-1.517-2.15-2.25-3.25" style="stroke: rgb(0, 0, 0);"></path>
<path fill-rule="evenodd" clip-rule="evenodd" fill="none" stroke="#383635" stroke-width="0.3" d="M14.915,8.603
	c0.433-0.234,0.867-0.434,1.3-0.601" style="stroke: rgb(0, 0, 0);"></path>
<path fill-rule="evenodd" clip-rule="evenodd" fill="none" stroke="#383635" stroke-width="0.3" d="M26.115,7.752
	c0.533,0.167,1.05,0.384,1.55,0.65c1.367,0.667,2.633,1.583,3.8,2.75c0.233,0.233,0.45,0.466,0.65,0.7
	c0.333,0.366,0.633,0.732,0.9,1.1" style="stroke: rgb(0, 0, 0);"></path>
<path fill-rule="evenodd" clip-rule="evenodd" fill="none" stroke="#383635" stroke-width="0.3" d="M35.515,22.552
	c-0.067,0.566-0.15,1.117-0.25,1.65" style="stroke: rgb(0, 0, 0);"></path>
<path fill-rule="evenodd" clip-rule="evenodd" fill="none" stroke="#383635" stroke-width="0.3" d="M26.115,7.752
	c-1.434-0.5-2.983-0.75-4.65-0.75c-1.9,0-3.65,0.333-5.25,1" style="stroke: rgb(0, 0, 0);"></path>
<path fill-rule="evenodd" clip-rule="evenodd" fill="none" stroke="#383635" stroke-width="0.3" d="M10.814,11.903
	c0.233-0.267,0.467-0.517,0.7-0.75c1.033-1.067,2.167-1.917,3.4-2.55" style="stroke: rgb(0, 0, 0);"></path>
<path fill-rule="evenodd" clip-rule="evenodd" fill="none" stroke="#383635" stroke-width="0.3" d="M9.915,13.002
	c0.267-0.366,0.567-0.733,0.9-1.1" style="stroke: rgb(0, 0, 0);"></path>
<path fill-rule="evenodd" clip-rule="evenodd" fill="none" stroke="#383635" stroke-width="0.3" d="M7.714,24.302
	c-0.133-0.566-0.216-1.133-0.25-1.699c-0.066-0.5-0.1-1.018-0.1-1.551c0-3.033,0.85-5.717,2.55-8.05" style="stroke: rgb(0, 0, 0);"></path>
<path fill-rule="evenodd" clip-rule="evenodd" fill="none" stroke="#383635" stroke-width="0.3" d="M9.165,28.002
	c-0.667-1.167-1.15-2.399-1.45-3.7" style="stroke: rgb(0, 0, 0);"></path>
<path fill-rule="evenodd" clip-rule="evenodd" fill="none" stroke="#383635" stroke-width="0.3" d="M18.165,34.752
	c-2.5-0.566-4.717-1.816-6.65-3.75c-0.6-0.6-1.117-1.2-1.55-1.8c-0.3-0.4-0.566-0.8-0.8-1.2" style="stroke: rgb(0, 0, 0);"></path>
<path fill-rule="evenodd" clip-rule="evenodd" fill="none" stroke="#383635" stroke-width="0.3" d="M23.515,35.002
	c-0.667,0.067-1.35,0.101-2.05,0.101c-0.566,0-1.117-0.033-1.65-0.101c-0.566-0.066-1.117-0.149-1.65-0.25" style="stroke: rgb(0, 0, 0);"></path>
<path fill-rule="evenodd" clip-rule="evenodd" fill="none" stroke="#383635" stroke-width="0.3" d="M23.515,35.002
	c0.533-0.1,1.083-0.216,1.65-0.35c2.333-0.601,4.433-1.817,6.3-3.65c0.667-0.667,1.25-1.366,1.75-2.1c0.267-0.4,0.517-0.8,0.75-1.2
	c0.6-1.1,1.034-2.267,1.3-3.5" style="stroke: rgb(0, 0, 0);"></path>
<path fill-rule="evenodd" clip-rule="evenodd" fill="none" stroke="#383635" stroke-width="0.3" d="M35.515,22.552
	c0.033-0.5,0.05-1,0.05-1.5c0-3.066-0.85-5.766-2.55-8.1" style="stroke: rgb(0, 0, 0);"></path>
</svg>