<svg version="1.1" id="Layer_1" xmlns="http://www.w3.org/2000/svg" xmlns:xlink="http://www.w3.org/1999/xlink" x="0px" y="0px" width="43.866px" height="42.147px" viewBox="0 0 43.866 42.147" enable-background="new 0 0 43.866 42.147" xml:space="preserve" class="ng-scope">
<path fill-rule="evenodd" clip-rule="evenodd" fill="#FFFFFF" d="M27.383,2.147l1.4-2c0.933,0.3,1.85,0.667,2.75,1.1
	c2.633,1.5,4.933,3.183,6.899,5.05c0.334,0.367,0.65,0.733,0.95,1.1l-1.4,2l0.5,0.35l-1.1,1.65l-0.5-0.35l-2.35,3.5
	c0.5,0.934,0.883,1.934,1.149,3l3.851,1.399l0.199-0.6l0.051,0.05v-0.05l1.85,0.649v0.051l-0.2,0.6l2.25,0.8v0.05h0.05
	c-0.033,0.467-0.083,0.95-0.149,1.45l-0.25,1.55c-0.7,3.268-2.033,6.283-4,9.051l-2.3-0.851l-0.2,0.55h-0.05l-1.851-0.649l0.05-0.05
	h-0.05l0.2-0.5l-2.35-0.851c-0.267,0.267-0.534,0.534-0.801,0.8c-0.616,0.617-1.266,1.167-1.949,1.65
	c-0.606,0.437-1.24,0.82-1.9,1.15v2.85h0.6v0.05h0.051v1.95h-0.65v2.45c-4.333,1.233-8.616,1.233-12.85,0v-2.45h-0.601v-1.95v-0.05
	h0.601v-3.15c-0.606-0.328-1.189-0.712-1.75-1.149c-0.52-0.403-1.02-0.854-1.5-1.351c-0.301-0.266-0.567-0.55-0.801-0.85l-2.5,0.9
	l0.2,0.5v0.05l-1.85,0.649h-0.05l-0.2-0.55l-2.3,0.851c-2-2.768-3.317-5.801-3.95-9.101l-0.25-1.25
	c-0.101-0.566-0.167-1.134-0.2-1.7h0.05v-0.05l2.25-0.8l-0.2-0.6h0.051l-0.051-0.051l1.851-0.649v0.05l0.05-0.05l0.2,0.6l4-1.399
	c0.3-1.2,0.767-2.334,1.399-3.4l-2.149-3.1l-0.5,0.35l-1.101-1.65l0.5-0.35l-1.399-2c0.3-0.367,0.633-0.733,1-1.1
	c2-2,4.3-3.683,6.899-5.05c0.867-0.434,1.767-0.8,2.7-1.1l1.4,2l0.5-0.35l1.1,1.65v0.05l-0.45,0.35l2.25,3.3
	c0.467-0.067,0.967-0.1,1.5-0.1c0.493,0,0.977,0.025,1.45,0.075c0.202,0.02,0.402,0.045,0.601,0.075l2.25-3.35l-0.5-0.35h0.05
	l-0.05-0.05l1.1-1.65L27.383,2.147v0.05l-1.05,1.6c0.267,0.033,0.5,0.133,0.7,0.3c0.166,0.1,0.316,0.267,0.449,0.5l0.351-0.5
	l0.45-0.7l0.75-1.05l0.35-0.55c0.033,0,0.066,0.017,0.1,0.05l-0.35,0.55c3.033,1.233,5.717,3.083,8.05,5.55l-0.75,1.05l-0.45,0.7
	l-0.75,1.05l-1.6,2.351c0.333,0.466,0.634,0.95,0.9,1.45c-0.267-0.5-0.567-0.984-0.9-1.45l1.6-2.351l0.75-1.05l0.45-0.7l0.75-1.05
	l0.351-0.55c-2.267-2.533-4.95-4.383-8.051-5.55c-0.033-0.034-0.066-0.05-0.1-0.05l-0.35,0.55l-0.75,1.05l-0.45,0.7l-0.351,0.5
	c-0.133-0.233-0.283-0.4-0.449-0.5c-0.2-0.167-0.434-0.267-0.7-0.3l1.05-1.6V2.147z"></path>
<path fill-rule="evenodd" clip-rule="evenodd" fill="#FFFFFF" d="M29.133,2.397c-0.033-0.033-0.066-0.05-0.1-0.05
	C29.066,2.348,29.1,2.364,29.133,2.397z"></path>
<path fill-rule="evenodd" clip-rule="evenodd" fill="#FFFFFF" d="M28.558,4.397l0.525,0.25l6.85,5l0.5-0.65
	c-2.267-2.5-4.95-4.35-8.05-5.55l-0.5,0.65v0.05C28.107,4.223,28.333,4.306,28.558,4.397c-0.225-0.092-0.45-0.175-0.675-0.25v-0.05
	C28.108,4.198,28.333,4.297,28.558,4.397z"></path>
<path fill-rule="evenodd" clip-rule="evenodd" fill="#FFFFFF" d="M27.883,4.147l-0.05-0.05L27.883,4.147z"></path>
<path fill-rule="evenodd" clip-rule="evenodd" fill="#FFFFFF" d="M28.283,3.397c0.033,0,0.066,0.017,0.1,0.05
	C28.35,3.414,28.316,3.397,28.283,3.397z"></path>
<path fill-rule="evenodd" clip-rule="evenodd" fill="#FFFFFF" d="M35.232,10.747c-0.3-0.366-0.583-0.699-0.85-1l-0.3-0.35
	c-1.367-1.467-2.967-2.6-4.8-3.4l-0.5-0.2c-0.534-0.233-1.067-0.433-1.601-0.6c-0.033-0.033-0.066-0.05-0.1-0.05l-1.55,2.3
	c0.411,0.103,0.812,0.228,1.199,0.375c1.17,0.407,2.278,0.974,3.325,1.7c0.665,0.477,1.307,1.018,1.925,1.625
	c0.505,0.505,0.955,1.021,1.351,1.55c0.105,0.132,0.205,0.265,0.3,0.4c-0.095-0.136-0.194-0.269-0.3-0.4
	c-0.396-0.528-0.846-1.045-1.351-1.55c-0.618-0.607-1.26-1.148-1.925-1.625c-1.047-0.727-2.155-1.293-3.325-1.7
	c-0.388-0.147-0.788-0.272-1.199-0.375l1.55-2.3c0.033,0,0.066,0.017,0.1,0.05c0.533,0.167,1.066,0.367,1.601,0.6l0.5,0.2
	c1.833,0.8,3.433,1.933,4.8,3.4l0.3,0.35C34.649,10.048,34.933,10.381,35.232,10.747z"></path>
<path fill-rule="evenodd" clip-rule="evenodd" fill="#FFFFFF" d="M27.083,5.147l0.399-0.55L27.083,5.147z"></path>
<polygon fill-rule="evenodd" clip-rule="evenodd" fill="#FFFFFF" points="26.333,3.797 26.283,3.797 26.283,3.848 26.283,3.797 "></polygon>
<path fill-rule="evenodd" clip-rule="evenodd" fill="#FFFFFF" d="M26.283,3.797l-0.45-0.3L26.283,3.797z"></path>
<path fill-rule="evenodd" clip-rule="evenodd" fill="#FFFFFF" d="M24.033,7.197c0.5,0.034,1,0.117,1.5,0.25
	C25.033,7.314,24.533,7.231,24.033,7.197z"></path>
<path fill-rule="evenodd" clip-rule="evenodd" fill="#FFFFFF" d="M35.933,9.647c0.033,0,0.05,0.017,0.05,0.05
	C35.982,9.664,35.966,9.647,35.933,9.647z"></path>
<path fill-rule="evenodd" clip-rule="evenodd" fill="#FFFFFF" d="M35.683,17.548c0.134,0.533,0.233,1.1,0.3,1.699l2.4,0.851
	l0.65,0.25c0.466-0.4,0.633-0.866,0.5-1.4c0.133,0.534-0.034,1-0.5,1.4l-0.65-0.25l-2.4-0.851
	C35.916,18.647,35.816,18.081,35.683,17.548z"></path>
<path fill-rule="evenodd" clip-rule="evenodd" fill="#FFFFFF" d="M35.982,19.247c0.067,0.601,0.101,1.217,0.101,1.851
	c0,2.933-0.783,5.55-2.351,7.85l1.25,0.45c1.067-1.367,1.884-2.8,2.45-4.3l0.95-4.9c0-0.033,0-0.066,0-0.1c0,0.033,0,0.066,0,0.1
	l-0.95,4.9c-0.566,1.5-1.383,2.933-2.45,4.3l-1.25-0.45c1.567-2.3,2.351-4.917,2.351-7.85C36.083,20.464,36.05,19.848,35.982,19.247
	z"></path>
<path fill-rule="evenodd" clip-rule="evenodd" fill="#FFFFFF" d="M42.232,21.598c0-0.034,0-0.067,0-0.101l-0.649-0.25
	c0,0.033,0,0.066,0,0.101c0-0.034,0-0.067,0-0.101l0.649,0.25C42.232,21.53,42.232,21.563,42.232,21.598l-0.649-0.25
	c-0.167,1.267-0.434,2.5-0.8,3.7l-1.4,3.5l-0.425,0.75c-0.245,0.415-0.504,0.832-0.775,1.25h0.05h-0.05
	c0.271-0.418,0.53-0.835,0.775-1.25c-0.233,0.416-0.476,0.833-0.726,1.25l0.601,0.25c0.733-1.066,1.35-2.15,1.85-3.25L42.232,21.598
	z"></path>
<polygon fill-rule="evenodd" clip-rule="evenodd" fill="#FFFFFF" points="41.383,19.598 41.633,19.048 41.383,19.598 41.433,19.647 
	"></polygon>
<path fill-rule="evenodd" clip-rule="evenodd" fill="#FFFFFF" d="M39.533,18.947l1.85,0.65L39.533,18.947z"></path>
<path fill-rule="evenodd" clip-rule="evenodd" fill="#FFFFFF" d="M36.232,29.848l0.801,0.3h-0.051h0.051
	c1.866-2.834,2.983-5.9,3.35-9.2c0-0.033,0-0.066,0-0.1c0,0.033,0,0.066,0,0.1l-0.8-0.3c0-0.033,0-0.066,0-0.1l-0.55-0.2l0.55,0.2
	c0,0.033,0,0.066,0,0.1l-2.101,7C37.116,28.414,36.699,29.147,36.232,29.848z"></path>
<path fill-rule="evenodd" clip-rule="evenodd" fill="#FFFFFF" d="M37.482,27.647c-0.399,0.733-0.833,1.467-1.3,2.2h0.05h-0.05
	C36.649,29.114,37.083,28.381,37.482,27.647z"></path>
<polygon fill-rule="evenodd" clip-rule="evenodd" fill="#FFFFFF" points="39.583,20.548 40.383,20.848 41.583,21.247 40.383,20.848 
	"></polygon>
<path fill-rule="evenodd" clip-rule="evenodd" fill="#FFFFFF" d="M39.783,18.397l-0.25,0.55L39.783,18.397z"></path>
<path fill-rule="evenodd" clip-rule="evenodd" fill="#FFFFFF" d="M36.883,11.048l1.1-1.65L36.883,11.048z"></path>
<path fill-rule="evenodd" clip-rule="evenodd" fill="#FFFFFF" d="M1.633,21.598c0-0.034,0-0.067,0-0.101l0.65-0.25l1.199-0.399
	l0.801-0.3l0.55-0.2c-0.467-0.4-0.634-0.866-0.5-1.4l-1.851,0.65l-0.05,0.05l0.05-0.05l1.851-0.65c-0.134,0.534,0.033,1,0.5,1.4
	l-0.55,0.2l-0.801,0.3l-1.199,0.399l-0.65,0.25C1.633,21.53,1.633,21.563,1.633,21.598z"></path>
<path fill-rule="evenodd" clip-rule="evenodd" fill="#FFFFFF" d="M6.883,30.147l-1.2,0.4L6.883,30.147l0.8-0.3h-0.05h0.05
	L6.883,30.147l0.75-0.3c-0.467-0.7-0.884-1.434-1.25-2.2c0.4,0.733,0.833,1.467,1.3,2.2c-0.467-0.733-0.899-1.467-1.3-2.2l-2.1-7
	c0-0.033,0-0.066,0-0.1c0,0.033,0,0.066,0,0.1l-0.801,0.3C3.85,24.247,4.982,27.313,6.883,30.147z"></path>
<path fill-rule="evenodd" clip-rule="evenodd" fill="#FFFFFF" d="M11.232,30.147c-0.366-0.4-0.683-0.816-0.949-1.25
	C10.55,29.331,10.866,29.747,11.232,30.147z"></path>
<path fill-rule="evenodd" clip-rule="evenodd" fill="#FFFFFF" d="M8.683,31.048h0.05H8.683z"></path>
<path fill-rule="evenodd" clip-rule="evenodd" fill="#FFFFFF" d="M8.232,29.647l0.65-0.25L8.232,29.647z"></path>
<path fill-rule="evenodd" clip-rule="evenodd" fill="#FFFFFF" d="M6.833,31.697l1.85-0.649c-0.399-0.4-0.55-0.867-0.45-1.4
	l-0.55,0.2l0.55-0.2c-0.1,0.533,0.051,1,0.45,1.4L6.833,31.697l0.25,0.55L6.833,31.697z"></path>
<path fill-rule="evenodd" clip-rule="evenodd" fill="#FFFFFF" d="M5.033,30.798l0.649-0.25h-0.05c-1.8-2.834-2.917-5.9-3.35-9.2
	h0.05c-0.033-0.034-0.05-0.067-0.05-0.101c0,0.033,0.017,0.066,0.05,0.101h-0.05l-0.65,0.25l1.55,5.95
	C3.683,28.647,4.3,29.731,5.033,30.798l0.6-0.25h0.05L5.033,30.798z"></path>
<path fill-rule="evenodd" clip-rule="evenodd" fill="#FFFFFF" d="M3.482,20.848c0,0.033,0,0.066,0,0.1
	C3.482,20.914,3.482,20.881,3.482,20.848z"></path>
<path fill-rule="evenodd" clip-rule="evenodd" fill="#FFFFFF" d="M2.283,19.048l0.199,0.55L2.283,19.048z"></path>
<polygon fill-rule="evenodd" clip-rule="evenodd" fill="#FFFFFF" points="17.083,2.147 17.133,2.197 18.183,3.797 17.133,2.197 "></polygon>
<path fill-rule="evenodd" clip-rule="evenodd" fill="#FFFFFF" d="M18.183,3.797l0.5-0.3L18.183,3.797z"></path>
<path fill-rule="evenodd" clip-rule="evenodd" fill="#FFFFFF" d="M6.982,7.397l0.351,0.55c2.3-2.466,4.983-4.316,8.05-5.55
	c0-0.033,0.017-0.05,0.05-0.05l-0.35-0.55c-0.033,0-0.05,0.017-0.05,0.05c0-0.034,0.017-0.05,0.05-0.05l0.35,0.55
	c-0.033,0-0.05,0.017-0.05,0.05l-0.35-0.55C11.899,3.014,9.216,4.864,6.982,7.397h-0.05l0.351,0.55l0.75,1.05l0.449,0.7l-0.449-0.7
	l-0.75-1.05l-0.351-0.55H6.982z"></path>
<path fill-rule="evenodd" clip-rule="evenodd" fill="#FFFFFF" d="M18.232,3.848l-0.05-0.05c-0.3,0.033-0.533,0.133-0.7,0.3
	c-0.199,0.1-0.366,0.267-0.5,0.5l0.4,0.55l1.5,2.25c0.396-0.105,0.813-0.181,1.25-0.225c0.115-0.01,0.231-0.018,0.35-0.025
	c-0.118,0.007-0.234,0.015-0.35,0.025c-0.438,0.044-0.854,0.12-1.25,0.225l-1.5-2.25l-0.4-0.55c0.134-0.233,0.301-0.4,0.5-0.5
	c0.167-0.167,0.4-0.267,0.7-0.3L18.232,3.848z"></path>
<path fill-rule="evenodd" clip-rule="evenodd" fill="#FFFFFF" d="M15.933,4.397c0.209-0.092,0.425-0.175,0.65-0.25v-0.05v0.05
	C16.357,4.223,16.142,4.306,15.933,4.397z"></path>
<path fill-rule="evenodd" clip-rule="evenodd" fill="#FFFFFF" d="M18.883,7.397c-0.707,0.145-1.391,0.345-2.05,0.6
	c-1.177,0.445-2.277,1.062-3.3,1.85c-0.521,0.388-1.021,0.821-1.5,1.3c-0.534,0.533-1,1.084-1.4,1.65l-1.35-2l-0.051-0.051
	l0.051,0.051l1.35,2c0.4-0.566,0.866-1.117,1.4-1.65c0.479-0.479,0.979-0.912,1.5-1.3c1.022-0.788,2.123-1.405,3.3-1.85
	C17.492,7.743,18.176,7.542,18.883,7.397z"></path>
<path fill-rule="evenodd" clip-rule="evenodd" fill="#FFFFFF" d="M16.183,3.397l0.45,0.7L16.183,3.397z"></path>
<path fill-rule="evenodd" clip-rule="evenodd" fill="#FFFFFF" d="M16.583,4.098l-0.45-0.65c0-0.033,0.017-0.05,0.05-0.05l-0.75-1.05
	l0.75,1.05c-0.033,0-0.05,0.017-0.05,0.05c-3.134,1.2-5.816,3.05-8.05,5.55l0.45,0.65l6.899-5l0.5-0.25
	C16.141,4.298,16.357,4.198,16.583,4.098z"></path>
<polygon fill-rule="evenodd" clip-rule="evenodd" fill="#FFFFFF" points="16.982,4.598 16.633,4.098 16.583,4.147 16.633,4.098 "></polygon>
<path fill-rule="evenodd" clip-rule="evenodd" fill="#FFFFFF" d="M8.533,9.647c-0.034,0-0.051,0.017-0.051,0.05l0.351,0.5
	l0.399,0.55h0.051c0.267-0.366,0.55-0.717,0.85-1.05l0.3-0.3c1.334-1.467,2.917-2.6,4.75-3.4l0.5-0.2
	c0.533-0.233,1.084-0.433,1.65-0.6c0-0.033,0.017-0.05,0.05-0.05c-0.033,0-0.05,0.017-0.05,0.05c-0.566,0.167-1.117,0.367-1.65,0.6
	l-0.5,0.2c-1.833,0.8-3.416,1.933-4.75,3.4l-0.3,0.3c-0.3,0.333-0.583,0.684-0.85,1.05H9.232l-0.399-0.55l-0.351-0.5
	C8.482,9.664,8.499,9.647,8.533,9.647z"></path>
<path fill-rule="evenodd" clip-rule="evenodd" fill="#FFFFFF" d="M7.333,7.947h-0.05H7.333z"></path>
<path fill-rule="evenodd" clip-rule="evenodd" fill="#FFFFFF" d="M8.083,8.997h-0.05H8.083z"></path>
<path fill-rule="evenodd" clip-rule="evenodd" fill="#FFFFFF" d="M9.732,14.147c0.155-0.271,0.322-0.539,0.5-0.8
	c0.128-0.187,0.261-0.369,0.4-0.55c-0.14,0.181-0.272,0.363-0.4,0.55C10.055,13.608,9.888,13.876,9.732,14.147z"></path>
<path fill-rule="evenodd" clip-rule="evenodd" fill="#FFFFFF" d="M5.482,20.197l0.95,4.9c0.566,1.5,1.384,2.933,2.45,4.3l1.4-0.5
	c-0.018-0.023-0.034-0.049-0.051-0.075c-1.566-2.247-2.35-4.822-2.35-7.725c0-0.667,0.05-1.3,0.15-1.9l-2.551,0.9
	C5.482,20.131,5.482,20.164,5.482,20.197c0-0.033,0-0.066,0-0.1l2.551-0.9c-0.101,0.601-0.15,1.233-0.15,1.9
	c0,2.902,0.783,5.478,2.35,7.725c0.017,0.026,0.033,0.052,0.051,0.075l-1.4,0.5c-1.066-1.367-1.884-2.8-2.45-4.3L5.482,20.197z"></path>
<path fill-rule="evenodd" clip-rule="evenodd" fill="#FFFFFF" d="M4.833,20.348l0.649-0.25L4.833,20.348z"></path>
<path fill-rule="evenodd" clip-rule="evenodd" fill="#FFFFFF" d="M4.333,18.947l-0.25-0.55L4.333,18.947z"></path>
<path fill-rule="evenodd" clip-rule="evenodd" fill="#FFFFFF" d="M8.033,19.197c0.066-0.566,0.166-1.116,0.3-1.649
	C8.199,18.081,8.1,18.631,8.033,19.197z"></path>
<path fill-rule="evenodd" clip-rule="evenodd" fill="#FFFFFF" d="M6.482,9.397l1.101,1.65c0.267-0.5,0.684-0.783,1.25-0.851
	c-0.566,0.067-0.983,0.351-1.25,0.851L6.482,9.397z"></path>
<path fill-rule="evenodd" clip-rule="evenodd" fill="#FFFFFF" d="M16.732,34.197v1.8c0.034,0,0.051,0.018,0.051,0.051
	c3.267,1.033,6.533,1.033,9.8,0l0.05-0.051v-1.6c-1.009,0.352-2.075,0.577-3.2,0.675c-0.473,0.05-0.956,0.075-1.45,0.075
	c-0.633,0-1.249-0.033-1.85-0.1c-1.162-0.138-2.263-0.404-3.3-0.801C16.799,34.228,16.766,34.21,16.732,34.197
	c-0.5-0.2-0.983-0.433-1.449-0.7C15.749,33.765,16.232,33.997,16.732,34.197c0.033,0.013,0.066,0.03,0.101,0.05
	c1.037,0.396,2.138,0.663,3.3,0.801c0.601,0.066,1.217,0.1,1.85,0.1c0.494,0,0.978-0.025,1.45-0.075
	c1.125-0.098,2.191-0.323,3.2-0.675v1.6l-0.05,0.051c-3.267,1.033-6.533,1.033-9.8,0c0-0.033-0.017-0.051-0.051-0.051V34.197z"></path>
<path fill-rule="evenodd" clip-rule="evenodd" fill="#FFFFFF" d="M8.933,31.548l-0.25-0.5L8.933,31.548z"></path>
<polygon fill-rule="evenodd" clip-rule="evenodd" fill="#FFFFFF" points="16.732,35.997 16.732,36.697 16.732,37.298 16.783,37.298 
	16.732,37.298 16.732,36.697 "></polygon>
<path fill-rule="evenodd" clip-rule="evenodd" fill="#FFFFFF" d="M16.783,37.298v0.85c3.267,0.8,6.533,0.8,9.8,0v-0.85h0.05v-0.601
	v-0.7v0.7v0.601h-0.05C23.383,38.063,20.116,38.063,16.783,37.298z"></path>
<polygon fill-rule="evenodd" clip-rule="evenodd" fill="#FFFFFF" points="15.283,36.697 15.283,38.647 15.283,36.697 14.683,36.697 
	"></polygon>
<path fill-rule="evenodd" clip-rule="evenodd" fill="#FFFFFF" d="M15.283,36.647v0.05c0.5,0.233,0.983,0.233,1.449,0
	c-0.466,0.233-0.949,0.233-1.449,0V36.647z"></path>
<path fill-rule="evenodd" clip-rule="evenodd" fill="#FFFFFF" d="M17.383,40.247l4.3,0.5l4.3-0.5l0.25-0.05
	c0.101-0.033,0.217-0.066,0.351-0.1v-0.7c-3.267,0.7-6.533,0.7-9.8,0v0.7c0.133,0.033,0.267,0.066,0.399,0.1L17.383,40.247z"></path>
<path fill-rule="evenodd" clip-rule="evenodd" fill="#FFFFFF" d="M17.183,40.197c-0.166-0.033-0.316-0.066-0.45-0.1v-0.7v-1.25
	v-0.85v0.85v1.25v0.7C16.866,40.131,17.017,40.164,17.183,40.197z"></path>
<path fill-rule="evenodd" clip-rule="evenodd" fill="#FFFFFF" d="M16.732,39.397h0.051H16.732z"></path>
<path fill-rule="evenodd" clip-rule="evenodd" fill="#FFFFFF" d="M16.783,38.147h-0.051H16.783z"></path>
<path fill-rule="evenodd" clip-rule="evenodd" fill="#FFFFFF" d="M38.833,30.798l-0.65-0.25l-1.2-0.4l-0.8-0.3l-0.55-0.2
	c0.1,0.533-0.033,1-0.4,1.4h-0.05l0.05,0.05l1.801,0.6l-1.801-0.6l-0.05-0.05h0.05c0.367-0.4,0.5-0.867,0.4-1.4l0.55,0.2l0.8,0.3
	l1.2,0.4L38.833,30.798z"></path>
<path fill-rule="evenodd" clip-rule="evenodd" fill="#FFFFFF" d="M35.133,31.048h0.05H35.133z"></path>
<path fill-rule="evenodd" clip-rule="evenodd" fill="#FFFFFF" d="M34.982,29.397l0.65,0.25L34.982,29.397z"></path>
<path fill-rule="evenodd" clip-rule="evenodd" fill="#FFFFFF" d="M37.033,31.697l-0.25,0.55L37.033,31.697z"></path>
<path fill-rule="evenodd" clip-rule="evenodd" fill="#FFFFFF" d="M34.982,31.548l0.2-0.5L34.982,31.548z"></path>
<path fill-rule="evenodd" clip-rule="evenodd" fill="#FFFFFF" d="M33.732,28.947c-0.125,0.167-0.25,0.334-0.375,0.5
	c-0.189,0.248-0.381,0.498-0.574,0.75c0.193-0.252,0.385-0.502,0.574-0.75C33.482,29.281,33.607,29.114,33.732,28.947z"></path>
<path fill-rule="evenodd" clip-rule="evenodd" fill="#FFFFFF" d="M28.133,33.798c-0.467,0.217-0.934,0.409-1.4,0.574
	c-0.033,0.006-0.066,0.014-0.1,0.025c0.033-0.012,0.066-0.02,0.1-0.025C27.199,34.207,27.666,34.015,28.133,33.798z"></path>
<path fill-rule="evenodd" clip-rule="evenodd" fill="#FFFFFF" d="M28.133,36.697h0.6H28.133z"></path>
<path fill-rule="evenodd" clip-rule="evenodd" fill="#FFFFFF" d="M28.133,38.647v-1.95c-0.467,0.267-0.967,0.267-1.5,0
	c0.533,0.267,1.033,0.267,1.5,0V38.647z"></path>
<path fill-rule="evenodd" clip-rule="evenodd" fill="#FFFFFF" d="M26.633,37.298v0.85v1.25v0.7c-0.134,0.033-0.267,0.066-0.4,0.1
	c0.134-0.033,0.267-0.066,0.4-0.1v-0.7v-1.25V37.298z"></path>
<path fill-rule="evenodd" clip-rule="evenodd" fill="#FFFFFF" d="M26.633,38.147h-0.05H26.633z"></path>
<path fill-rule="evenodd" clip-rule="evenodd" fill="#FFFFFF" d="M26.583,39.397h0.05H26.583z"></path>
<path fill-rule="evenodd" clip-rule="evenodd" fill="#FFFFFF" d="M33.333,12.697l0.024,16.75L33.333,12.697z"></path>
<path fill-rule="evenodd" clip-rule="evenodd" fill="#FFFFFF" d="M13.533,9.848v22.5V9.848z"></path>
<path fill-rule="evenodd" clip-rule="evenodd" fill="#FFFFFF" d="M23.433,7.123v27.95V7.123z"></path>
<path fill-rule="evenodd" clip-rule="evenodd" fill="#FFFFFF" d="M30.058,9.522l-0.024,23.125L30.058,9.522z"></path>
<path fill-rule="evenodd" clip-rule="evenodd" fill="#FFFFFF" d="M26.732,7.822v26.55V7.822z"></path>
<path fill-rule="evenodd" clip-rule="evenodd" fill="#FFFFFF" d="M10.232,28.822V13.348V28.822z"></path>
<path fill-rule="evenodd" clip-rule="evenodd" fill="#FFFFFF" d="M20.133,7.172v27.875V7.172z"></path>
<path fill-rule="evenodd" clip-rule="evenodd" fill="#FFFFFF" d="M16.833,7.998v26.25V7.998z"></path>
<path fill-rule="evenodd" clip-rule="evenodd" fill="#FFFFFF" d="M43.683,20.497c-0.033,0.467-0.066,0.95-0.1,1.45
	C43.616,21.447,43.649,20.964,43.683,20.497z"></path>
<path fill-rule="evenodd" clip-rule="evenodd" fill="#FFFFFF" d="M0.183,20.497c0.033,0.566,0.084,1.134,0.15,1.7
	C0.267,21.631,0.216,21.063,0.183,20.497z"></path>
<path fill-rule="evenodd" clip-rule="evenodd" fill="#FFFFFF" d="M2.333,21.348c0.399,3.333,1.517,6.399,3.35,9.2
	C3.85,27.747,2.732,24.681,2.333,21.348z"></path>
<path fill-rule="evenodd" clip-rule="evenodd" fill="none" stroke="#383635" stroke-width="0.3" d="M27.383,2.147l1.4-2
	c0.933,0.3,1.85,0.667,2.75,1.1c2.633,1.5,4.933,3.183,6.899,5.05c0.334,0.367,0.65,0.733,0.95,1.1l-1.4,2" style="stroke: rgb(0, 0, 0);"></path>
<path fill-rule="evenodd" clip-rule="evenodd" fill="none" stroke="#383635" stroke-width="0.3" d="M36.883,11.048l-2.35,3.5
	c0.5,0.934,0.883,1.934,1.149,3l3.851,1.399l1.85,0.65l0.05,0.05l2.25,0.8v0.05h0.05c-0.033,0.467-0.083,0.95-0.149,1.45l-0.25,1.55
	c-0.7,3.268-2.033,6.283-4,9.051l-2.3-0.851" style="stroke: rgb(0, 0, 0);"></path>
<path fill-rule="evenodd" clip-rule="evenodd" fill="none" stroke="#383635" stroke-width="0.3" d="M35.133,31.048l-2.35-0.851
	c-0.267,0.267-0.534,0.534-0.801,0.8c-0.616,0.617-1.266,1.167-1.949,1.65c-0.606,0.437-1.24,0.82-1.9,1.15v2.85" style="stroke: rgb(0, 0, 0);"></path>
<path fill-rule="evenodd" clip-rule="evenodd" fill="none" stroke="#383635" stroke-width="0.3" d="M28.133,38.647v2.45
	c-4.333,1.233-8.616,1.233-12.85,0v-2.45" style="stroke: rgb(0, 0, 0);"></path>
<path fill-rule="evenodd" clip-rule="evenodd" fill="none" stroke="#383635" stroke-width="0.3" d="M15.283,36.647v-3.15
	c-0.606-0.328-1.189-0.712-1.75-1.149c-0.52-0.403-1.02-0.854-1.5-1.351c-0.301-0.266-0.567-0.55-0.801-0.85l-2.5,0.9" style="stroke: rgb(0, 0, 0);"></path>
<path fill-rule="evenodd" clip-rule="evenodd" fill="none" stroke="#383635" stroke-width="0.3" d="M6.833,31.697l-2.3,0.851
	c-2-2.768-3.317-5.801-3.95-9.101l-0.25-1.25c-0.101-0.566-0.167-1.134-0.2-1.7h0.05v-0.05l2.25-0.8" style="stroke: rgb(0, 0, 0);"></path>
<path fill-rule="evenodd" clip-rule="evenodd" fill="none" stroke="#383635" stroke-width="0.3" d="M4.333,18.947l4-1.399
	c0.3-1.2,0.767-2.334,1.399-3.4l-2.149-3.1" style="stroke: rgb(0, 0, 0);"></path>
<path fill-rule="evenodd" clip-rule="evenodd" fill="none" stroke="#383635" stroke-width="0.3" d="M6.482,9.397l-1.399-2
	c0.3-0.367,0.633-0.733,1-1.1c2-2,4.3-3.683,6.899-5.05c0.867-0.434,1.767-0.8,2.7-1.1l1.4,2l0.05,0.05l1.05,1.6" style="stroke: rgb(0, 0, 0);"></path>
<path fill-rule="evenodd" clip-rule="evenodd" fill="none" stroke="#383635" stroke-width="0.3" d="M18.232,3.848l2.25,3.3
	c0.467-0.067,0.967-0.1,1.5-0.1c0.493,0,0.977,0.025,1.45,0.075c0.202,0.02,0.402,0.045,0.601,0.075l2.25-3.35" style="stroke: rgb(0, 0, 0);"></path>
<path fill-rule="evenodd" clip-rule="evenodd" fill="none" stroke="#383635" stroke-width="0.3" d="M29.482,1.848
	c3.101,1.167,5.784,3.017,8.051,5.55l-0.351,0.55l-0.75,1.05l-0.45,0.7l-0.75,1.05l-1.6,2.351c0.333,0.466,0.634,0.95,0.9,1.45" style="stroke: rgb(0, 0, 0);"></path>
<path fill-rule="evenodd" clip-rule="evenodd" fill="none" stroke="#383635" stroke-width="0.3" d="M27.383,2.147v0.05l-1.05,1.6
	c0.267,0.033,0.5,0.133,0.7,0.3c0.166,0.1,0.316,0.267,0.449,0.5l0.351-0.5l0.45-0.7l0.75-1.05l0.35-0.55
	c0.033,0,0.066,0.017,0.1,0.05l-0.35,0.55c3.033,1.233,5.717,3.083,8.05,5.55" style="stroke: rgb(0, 0, 0);"></path>
<path fill-rule="evenodd" clip-rule="evenodd" fill="none" stroke="#383635" stroke-width="0.3" d="M29.133,2.397
	c-0.033-0.033-0.066-0.05-0.1-0.05" style="stroke: rgb(0, 0, 0);"></path>
<path fill-rule="evenodd" clip-rule="evenodd" fill="none" stroke="#383635" stroke-width="0.3" d="M27.883,4.098v0.05
	c0.225,0.075,0.45,0.158,0.675,0.25C28.333,4.297,28.108,4.198,27.883,4.098z" style="stroke: rgb(0, 0, 0);"></path>
<path fill-rule="evenodd" clip-rule="evenodd" fill="none" stroke="#383635" stroke-width="0.3" d="M28.558,4.397l0.525,0.25
	l6.85,5l0.5-0.65c-2.267-2.5-4.95-4.35-8.05-5.55l-0.5,0.65" style="stroke: rgb(0, 0, 0);"></path>
<line fill-rule="evenodd" clip-rule="evenodd" fill="none" stroke="#383635" stroke-width="0.3" x1="27.883" y1="4.147" x2="27.833" y2="4.098" style="stroke: rgb(0, 0, 0);"></line>
<path fill-rule="evenodd" clip-rule="evenodd" fill="none" stroke="#383635" stroke-width="0.3" d="M28.283,3.397
	c0.033,0,0.066,0.017,0.1,0.05" style="stroke: rgb(0, 0, 0);"></path>
<path fill-rule="evenodd" clip-rule="evenodd" fill="none" stroke="#383635" stroke-width="0.3" d="M35.232,10.747
	c-0.3-0.366-0.583-0.699-0.85-1l-0.3-0.35c-1.367-1.467-2.967-2.6-4.8-3.4l-0.5-0.2c-0.534-0.233-1.067-0.433-1.601-0.6
	c-0.033-0.033-0.066-0.05-0.1-0.05l-1.55,2.3c0.411,0.103,0.812,0.228,1.199,0.375c1.17,0.407,2.278,0.974,3.325,1.7
	c0.665,0.477,1.307,1.018,1.925,1.625c0.505,0.505,0.955,1.021,1.351,1.55c0.105,0.132,0.205,0.265,0.3,0.4" style="stroke: rgb(0, 0, 0);"></path>
<line fill-rule="evenodd" clip-rule="evenodd" fill="none" stroke="#383635" stroke-width="0.3" x1="27.083" y1="5.147" x2="27.482" y2="4.598" style="stroke: rgb(0, 0, 0);"></line>
<polyline fill-rule="evenodd" clip-rule="evenodd" fill="none" stroke="#383635" stroke-width="0.3" points="26.333,3.797 
	26.283,3.797 26.283,3.848 " style="stroke: rgb(0, 0, 0);"></polyline>
<path fill-rule="evenodd" clip-rule="evenodd" fill="none" stroke="#383635" stroke-width="0.3" d="M24.033,7.197
	c0.5,0.034,1,0.117,1.5,0.25" style="stroke: rgb(0, 0, 0);"></path>
<path fill-rule="evenodd" clip-rule="evenodd" fill="none" stroke="#383635" stroke-width="0.3" d="M35.933,9.647
	c0.033,0,0.05,0.017,0.05,0.05" style="stroke: rgb(0, 0, 0);"></path>
<path fill-rule="evenodd" clip-rule="evenodd" fill="none" stroke="#383635" stroke-width="0.3" d="M35.683,17.548
	c0.134,0.533,0.233,1.1,0.3,1.699l2.4,0.851l0.65,0.25c0.466-0.4,0.633-0.866,0.5-1.4" style="stroke: rgb(0, 0, 0);"></path>
<path fill-rule="evenodd" clip-rule="evenodd" fill="none" stroke="#383635" stroke-width="0.3" d="M35.982,19.247
	c0.067,0.601,0.101,1.217,0.101,1.851c0,2.933-0.783,5.55-2.351,7.85l1.25,0.45c1.067-1.367,1.884-2.8,2.45-4.3l0.95-4.9
	c0-0.033,0-0.066,0-0.1" style="stroke: rgb(0, 0, 0);"></path>
<path fill-rule="evenodd" clip-rule="evenodd" fill="none" stroke="#383635" stroke-width="0.3" d="M42.232,21.598
	c0-0.034,0-0.067,0-0.101l-0.649-0.25c0,0.033,0,0.066,0,0.101L42.232,21.598l-1.55,5.95c-0.5,1.1-1.116,2.184-1.85,3.25l-0.65-0.25
	l-1.2-0.4l-0.8-0.3l-0.55-0.2c0.1,0.533-0.033,1-0.4,1.4h-0.05l0.05,0.05l1.801,0.6" style="stroke: rgb(0, 0, 0);"></path>
<path fill-rule="evenodd" clip-rule="evenodd" fill="none" stroke="#383635" stroke-width="0.3" d="M39.583,20.647
	c0-0.033,0-0.066,0-0.1l-0.55-0.2" style="stroke: rgb(0, 0, 0);"></path>
<polyline fill-rule="evenodd" clip-rule="evenodd" fill="none" stroke="#383635" stroke-width="0.3" points="39.583,20.548 
	40.383,20.848 41.583,21.247 " style="stroke: rgb(0, 0, 0);"></polyline>
<path fill-rule="evenodd" clip-rule="evenodd" fill="none" stroke="#383635" stroke-width="0.3" d="M39.583,20.647l0.8,0.3
	c0-0.033,0-0.066,0-0.1" style="stroke: rgb(0, 0, 0);"></path>
<line fill-rule="evenodd" clip-rule="evenodd" fill="none" stroke="#383635" stroke-width="0.3" x1="36.883" y1="11.048" x2="37.982" y2="9.397" style="stroke: rgb(0, 0, 0);"></line>
<path fill-rule="evenodd" clip-rule="evenodd" fill="none" stroke="#383635" stroke-width="0.3" d="M1.633,21.598
	c0-0.034,0-0.067,0-0.101l0.65-0.25l1.199-0.399l0.801-0.3l0.55-0.2c-0.467-0.4-0.634-0.866-0.5-1.4l-1.851,0.65l-0.05,0.05" style="stroke: rgb(0, 0, 0);"></path>
<path fill-rule="evenodd" clip-rule="evenodd" fill="none" stroke="#383635" stroke-width="0.3" d="M1.633,21.598l0.65-0.25h0.05
	c-0.033-0.034-0.05-0.067-0.05-0.101" style="stroke: rgb(0, 0, 0);"></path>
<path fill-rule="evenodd" clip-rule="evenodd" fill="none" stroke="#383635" stroke-width="0.3" d="M3.482,20.848
	c0,0.033,0,0.066,0,0.1l0.801-0.3c0-0.033,0-0.066,0-0.1" style="stroke: rgb(0, 0, 0);"></path>
<path fill-rule="evenodd" clip-rule="evenodd" fill="none" stroke="#383635" stroke-width="0.3" d="M15.033,1.848l0.35,0.55
	c0-0.033,0.017-0.05,0.05-0.05l-0.35-0.55C15.05,1.797,15.033,1.814,15.033,1.848z" style="stroke: rgb(0, 0, 0);"></path>
<path fill-rule="evenodd" clip-rule="evenodd" fill="none" stroke="#383635" stroke-width="0.3" d="M18.232,3.848l-0.05-0.05
	c-0.3,0.033-0.533,0.133-0.7,0.3c-0.199,0.1-0.366,0.267-0.5,0.5l0.4,0.55l1.5,2.25c0.396-0.105,0.813-0.181,1.25-0.225
	c0.115-0.01,0.231-0.018,0.35-0.025" style="stroke: rgb(0, 0, 0);"></path>
<path fill-rule="evenodd" clip-rule="evenodd" fill="none" stroke="#383635" stroke-width="0.3" d="M15.933,4.397
	c0.209-0.092,0.425-0.175,0.65-0.25v-0.05C16.357,4.198,16.141,4.298,15.933,4.397l-0.5,0.25l-6.899,5
	c-0.034,0-0.051,0.017-0.051,0.05l0.351,0.5l0.399,0.55h0.051c0.267-0.366,0.55-0.717,0.85-1.05l0.3-0.3
	c1.334-1.467,2.917-2.6,4.75-3.4l0.5-0.2c0.533-0.233,1.084-0.433,1.65-0.6c0-0.033,0.017-0.05,0.05-0.05" style="stroke: rgb(0, 0, 0);"></path>
<polyline fill-rule="evenodd" clip-rule="evenodd" fill="none" stroke="#383635" stroke-width="0.3" points="16.982,4.598 
	16.633,4.098 16.583,4.147 " style="stroke: rgb(0, 0, 0);"></polyline>
<path fill-rule="evenodd" clip-rule="evenodd" fill="none" stroke="#383635" stroke-width="0.3" d="M16.133,3.447
	c0-0.033,0.017-0.05,0.05-0.05l-0.75-1.05" style="stroke: rgb(0, 0, 0);"></path>
<line fill-rule="evenodd" clip-rule="evenodd" fill="none" stroke="#383635" stroke-width="0.3" x1="16.133" y1="3.447" x2="16.583" y2="4.098" style="stroke: rgb(0, 0, 0);"></line>
<line fill-rule="evenodd" clip-rule="evenodd" fill="none" stroke="#383635" stroke-width="0.3" x1="16.633" y1="4.098" x2="16.183" y2="3.397" style="stroke: rgb(0, 0, 0);"></line>
<path fill-rule="evenodd" clip-rule="evenodd" fill="none" stroke="#383635" stroke-width="0.3" d="M9.232,10.747l0.051,0.051
	l1.35,2c0.4-0.566,0.866-1.117,1.4-1.65c0.479-0.479,0.979-0.912,1.5-1.3c1.022-0.788,2.123-1.405,3.3-1.85
	c0.659-0.255,1.343-0.455,2.05-0.6" style="stroke: rgb(0, 0, 0);"></path>
<path fill-rule="evenodd" clip-rule="evenodd" fill="none" stroke="#383635" stroke-width="0.3" d="M8.482,9.697l-0.449-0.7
	l-0.75-1.05l-0.351-0.55h0.05c2.233-2.533,4.917-4.383,8.051-5.55" style="stroke: rgb(0, 0, 0);"></path>
<line fill-rule="evenodd" clip-rule="evenodd" fill="none" stroke="#383635" stroke-width="0.3" x1="7.333" y1="7.947" x2="7.283" y2="7.947" style="stroke: rgb(0, 0, 0);"></line>
<path fill-rule="evenodd" clip-rule="evenodd" fill="none" stroke="#383635" stroke-width="0.3" d="M6.982,7.397l0.351,0.55
	c2.3-2.466,4.983-4.316,8.05-5.55" style="stroke: rgb(0, 0, 0);"></path>
<line fill-rule="evenodd" clip-rule="evenodd" fill="none" stroke="#383635" stroke-width="0.3" x1="8.083" y1="8.997" x2="8.033" y2="8.997" style="stroke: rgb(0, 0, 0);"></line>
<path fill-rule="evenodd" clip-rule="evenodd" fill="none" stroke="#383635" stroke-width="0.3" d="M9.732,14.147
	c0.155-0.271,0.322-0.539,0.5-0.8c0.128-0.187,0.261-0.369,0.4-0.55" style="stroke: rgb(0, 0, 0);"></path>
<path fill-rule="evenodd" clip-rule="evenodd" fill="none" stroke="#383635" stroke-width="0.3" d="M5.482,20.197l0.95,4.9
	c0.566,1.5,1.384,2.933,2.45,4.3l1.4-0.5c-0.018-0.023-0.034-0.049-0.051-0.075c-1.566-2.247-2.35-4.822-2.35-7.725
	c0-0.667,0.05-1.3,0.15-1.9l-2.551,0.9C5.482,20.131,5.482,20.164,5.482,20.197z" style="stroke: rgb(0, 0, 0);"></path>
<line fill-rule="evenodd" clip-rule="evenodd" fill="none" stroke="#383635" stroke-width="0.3" x1="4.833" y1="20.348" x2="5.482" y2="20.098" style="stroke: rgb(0, 0, 0);"></line>
<path fill-rule="evenodd" clip-rule="evenodd" fill="none" stroke="#383635" stroke-width="0.3" d="M8.033,19.197
	c0.066-0.566,0.166-1.116,0.3-1.649" style="stroke: rgb(0, 0, 0);"></path>
<path fill-rule="evenodd" clip-rule="evenodd" fill="none" stroke="#383635" stroke-width="0.3" d="M6.482,9.397l1.101,1.65
	c0.267-0.5,0.684-0.783,1.25-0.851" style="stroke: rgb(0, 0, 0);"></path>
<path fill-rule="evenodd" clip-rule="evenodd" fill="none" stroke="#383635" stroke-width="0.3" d="M8.533,9.647l-0.45-0.65
	c2.233-2.5,4.916-4.35,8.05-5.55" style="stroke: rgb(0, 0, 0);"></path>
<path fill-rule="evenodd" clip-rule="evenodd" fill="none" stroke="#383635" stroke-width="0.3" d="M16.732,34.197v1.8
	c0.034,0,0.051,0.018,0.051,0.051c3.267,1.033,6.533,1.033,9.8,0l0.05-0.051v-1.6c-1.009,0.352-2.075,0.577-3.2,0.675
	c-0.473,0.05-0.956,0.075-1.45,0.075c-0.633,0-1.249-0.033-1.85-0.1c-1.162-0.138-2.263-0.404-3.3-0.801
	C16.799,34.228,16.766,34.21,16.732,34.197c-0.5-0.2-0.983-0.433-1.449-0.7" style="stroke: rgb(0, 0, 0);"></path>
<polygon fill-rule="evenodd" clip-rule="evenodd" fill="none" stroke="#383635" stroke-width="0.3" points="7.633,29.848 
	6.883,30.147 7.683,29.848 " style="stroke: rgb(0, 0, 0);"></polygon>
<path fill-rule="evenodd" clip-rule="evenodd" fill="none" stroke="#383635" stroke-width="0.3" d="M6.833,31.697l1.85-0.649
	c-0.399-0.4-0.55-0.867-0.45-1.4l-0.55,0.2c-0.467-0.733-0.899-1.467-1.3-2.2c0.366,0.767,0.783,1.5,1.25,2.2" style="stroke: rgb(0, 0, 0);"></path>
<path fill-rule="evenodd" clip-rule="evenodd" fill="none" stroke="#383635" stroke-width="0.3" d="M5.033,30.798l0.649-0.25h-0.05
	L5.033,30.798c-0.733-1.066-1.351-2.15-1.851-3.25l-1.55-5.95" style="stroke: rgb(0, 0, 0);"></path>
<line fill-rule="evenodd" clip-rule="evenodd" fill="none" stroke="#383635" stroke-width="0.3" x1="6.883" y1="30.147" x2="5.683" y2="30.548" style="stroke: rgb(0, 0, 0);"></line>
<path fill-rule="evenodd" clip-rule="evenodd" fill="none" stroke="#383635" stroke-width="0.3" d="M11.232,30.147
	c-0.366-0.4-0.683-0.816-0.949-1.25" style="stroke: rgb(0, 0, 0);"></path>
<line fill-rule="evenodd" clip-rule="evenodd" fill="none" stroke="#383635" stroke-width="0.3" x1="8.683" y1="31.048" x2="8.732" y2="31.048" style="stroke: rgb(0, 0, 0);"></line>
<line fill-rule="evenodd" clip-rule="evenodd" fill="none" stroke="#383635" stroke-width="0.3" x1="8.232" y1="29.647" x2="8.883" y2="29.397" style="stroke: rgb(0, 0, 0);"></line>
<path fill-rule="evenodd" clip-rule="evenodd" fill="none" stroke="#383635" stroke-width="0.3" d="M16.732,35.997v0.7v0.601h0.051
	c3.333,0.766,6.6,0.766,9.8,0h0.05v-0.601v-0.7" style="stroke: rgb(0, 0, 0);"></path>
<path fill-rule="evenodd" clip-rule="evenodd" fill="none" stroke="#383635" stroke-width="0.3" d="M15.283,36.647v0.05
	c0.5,0.233,0.983,0.233,1.449,0" style="stroke: rgb(0, 0, 0);"></path>
<path fill-rule="evenodd" clip-rule="evenodd" fill="none" stroke="#383635" stroke-width="0.3" d="M17.383,40.247l4.3,0.5l4.3-0.5
	l0.25-0.05c0.101-0.033,0.217-0.066,0.351-0.1v-0.7c-3.267,0.7-6.533,0.7-9.8,0v0.7c0.133,0.033,0.267,0.066,0.399,0.1
	L17.383,40.247z" style="stroke: rgb(0, 0, 0);"></path>
<path fill-rule="evenodd" clip-rule="evenodd" fill="none" stroke="#383635" stroke-width="0.3" d="M17.183,40.197
	c-0.166-0.033-0.316-0.066-0.45-0.1v-0.7v-1.25v-0.85" style="stroke: rgb(0, 0, 0);"></path>
<line fill-rule="evenodd" clip-rule="evenodd" fill="none" stroke="#383635" stroke-width="0.3" x1="16.732" y1="39.397" x2="16.783" y2="39.397" style="stroke: rgb(0, 0, 0);"></line>
<line fill-rule="evenodd" clip-rule="evenodd" fill="none" stroke="#383635" stroke-width="0.3" x1="16.783" y1="38.147" x2="16.732" y2="38.147" style="stroke: rgb(0, 0, 0);"></line>
<path fill-rule="evenodd" clip-rule="evenodd" fill="none" stroke="#383635" stroke-width="0.3" d="M16.783,37.298v0.85
	c3.267,0.8,6.533,0.8,9.8,0v-0.85" style="stroke: rgb(0, 0, 0);"></path>
<line fill-rule="evenodd" clip-rule="evenodd" fill="none" stroke="#383635" stroke-width="0.3" x1="15.283" y1="36.697" x2="15.283" y2="38.647" style="stroke: rgb(0, 0, 0);"></line>
<path fill-rule="evenodd" clip-rule="evenodd" fill="none" stroke="#383635" stroke-width="0.3" d="M38.958,29.298
	c-0.245,0.415-0.504,0.832-0.775,1.25h0.05C38.482,30.131,38.725,29.714,38.958,29.298l0.425-0.75l1.4-3.5
	c0.366-1.2,0.633-2.434,0.8-3.7" style="stroke: rgb(0, 0, 0);"></path>
<line fill-rule="evenodd" clip-rule="evenodd" fill="none" stroke="#383635" stroke-width="0.3" x1="38.833" y1="30.798" x2="38.232" y2="30.548" style="stroke: rgb(0, 0, 0);"></line>
<line fill-rule="evenodd" clip-rule="evenodd" fill="none" stroke="#383635" stroke-width="0.3" x1="37.033" y1="30.147" x2="36.982" y2="30.147" style="stroke: rgb(0, 0, 0);"></line>
<path fill-rule="evenodd" clip-rule="evenodd" fill="none" stroke="#383635" stroke-width="0.3" d="M37.482,27.647
	c-0.399,0.733-0.833,1.467-1.3,2.2h0.05C36.699,29.147,37.116,28.414,37.482,27.647l2.101-7" style="stroke: rgb(0, 0, 0);"></path>
<line fill-rule="evenodd" clip-rule="evenodd" fill="none" stroke="#383635" stroke-width="0.3" x1="35.133" y1="31.048" x2="35.183" y2="31.048" style="stroke: rgb(0, 0, 0);"></line>
<line fill-rule="evenodd" clip-rule="evenodd" fill="none" stroke="#383635" stroke-width="0.3" x1="34.982" y1="29.397" x2="35.633" y2="29.647" style="stroke: rgb(0, 0, 0);"></line>
<line fill-rule="evenodd" clip-rule="evenodd" fill="none" stroke="#383635" stroke-width="0.3" x1="37.033" y1="30.147" x2="36.232" y2="29.848" style="stroke: rgb(0, 0, 0);"></line>
<path fill-rule="evenodd" clip-rule="evenodd" fill="none" stroke="#383635" stroke-width="0.3" d="M33.732,28.947
	c-0.125,0.167-0.25,0.334-0.375,0.5c-0.189,0.248-0.381,0.498-0.574,0.75" style="stroke: rgb(0, 0, 0);"></path>
<path fill-rule="evenodd" clip-rule="evenodd" fill="none" stroke="#383635" stroke-width="0.3" d="M28.133,33.798
	c-0.467,0.217-0.934,0.409-1.4,0.574c-0.033,0.006-0.066,0.014-0.1,0.025" style="stroke: rgb(0, 0, 0);"></path>
<path fill-rule="evenodd" clip-rule="evenodd" fill="none" stroke="#383635" stroke-width="0.3" d="M28.133,38.647v-1.95
	c-0.467,0.267-0.967,0.267-1.5,0" style="stroke: rgb(0, 0, 0);"></path>
<path fill-rule="evenodd" clip-rule="evenodd" fill="none" stroke="#383635" stroke-width="0.3" d="M26.633,37.298v0.85v1.25v0.7
	c-0.134,0.033-0.267,0.066-0.4,0.1" style="stroke: rgb(0, 0, 0);"></path>
<line fill-rule="evenodd" clip-rule="evenodd" fill="none" stroke="#383635" stroke-width="0.3" x1="26.633" y1="38.147" x2="26.583" y2="38.147" style="stroke: rgb(0, 0, 0);"></line>
<line fill-rule="evenodd" clip-rule="evenodd" fill="none" stroke="#383635" stroke-width="0.3" x1="26.583" y1="39.397" x2="26.633" y2="39.397" style="stroke: rgb(0, 0, 0);"></line>
<path fill-rule="evenodd" clip-rule="evenodd" fill="none" stroke="#383635" stroke-width="0.3" d="M43.683,20.497
	c-0.033,0.467-0.066,0.95-0.1,1.45" style="stroke: rgb(0, 0, 0);"></path>
<path fill-rule="evenodd" clip-rule="evenodd" fill="none" stroke="#383635" stroke-width="0.3" d="M40.383,20.947
	c-0.366,3.3-1.483,6.366-3.35,9.2" style="stroke: rgb(0, 0, 0);"></path>
<path fill-rule="evenodd" clip-rule="evenodd" fill="none" stroke="#383635" stroke-width="0.3" d="M0.183,20.497
	c0.033,0.566,0.084,1.134,0.15,1.7" style="stroke: rgb(0, 0, 0);"></path>
<line fill-rule="evenodd" clip-rule="evenodd" fill="none" stroke="#383635" stroke-width="0.3" x1="4.283" y1="20.647" x2="6.383" y2="27.647" style="stroke: rgb(0, 0, 0);"></line>
<path fill-rule="evenodd" clip-rule="evenodd" fill="none" stroke="#383635" stroke-width="0.3" d="M6.883,30.147
	c-1.9-2.834-3.033-5.9-3.4-9.2" style="stroke: rgb(0, 0, 0);"></path>
<path fill-rule="evenodd" clip-rule="evenodd" fill="none" stroke="#383635" stroke-width="0.3" d="M5.633,30.548
	c-1.8-2.834-2.917-5.9-3.35-9.2" style="stroke: rgb(0, 0, 0);"></path>
<path fill-rule="evenodd" clip-rule="evenodd" fill="none" stroke="#383635" stroke-width="0.3" d="M2.333,21.348
	c0.399,3.333,1.517,6.399,3.35,9.2" style="stroke: rgb(0, 0, 0);"></path>
<polyline fill-rule="evenodd" clip-rule="evenodd" fill="none" stroke="#383635" stroke-width="0.3" stroke-linecap="round" stroke-linejoin="round" stroke-miterlimit="3" points="
	37.982,9.397 38.482,9.747 37.383,11.397 36.883,11.048 " style="stroke: rgb(0, 0, 0);"></polyline>
<polyline fill-rule="evenodd" clip-rule="evenodd" fill="none" stroke="#383635" stroke-width="0.3" stroke-linecap="round" stroke-linejoin="round" stroke-miterlimit="3" points="
	39.533,18.947 39.732,18.348 39.783,18.397 39.783,18.348 41.633,18.997 41.633,19.048 41.433,19.647 " style="stroke: rgb(0, 0, 0);"></polyline>
<polyline fill-rule="evenodd" clip-rule="evenodd" fill="none" stroke="#383635" stroke-width="0.3" stroke-linecap="round" stroke-linejoin="round" stroke-miterlimit="3" points="
	37.033,31.697 36.833,32.247 36.783,32.247 34.933,31.598 34.982,31.548 34.933,31.548 35.133,31.048 " style="stroke: rgb(0, 0, 0);"></polyline>
<polyline fill-rule="evenodd" clip-rule="evenodd" fill="none" stroke="#383635" stroke-width="0.3" stroke-linecap="round" stroke-linejoin="round" stroke-miterlimit="3" points="
	28.133,36.647 28.732,36.647 28.732,36.697 28.783,36.697 28.783,38.647 28.133,38.647 " style="stroke: rgb(0, 0, 0);"></polyline>
<polyline fill-rule="evenodd" clip-rule="evenodd" fill="none" stroke="#383635" stroke-width="0.3" stroke-linecap="round" stroke-linejoin="round" stroke-miterlimit="3" points="
	15.283,38.647 14.683,38.647 14.683,36.697 14.683,36.647 15.283,36.647 " style="stroke: rgb(0, 0, 0);"></polyline>
<polyline fill-rule="evenodd" clip-rule="evenodd" fill="none" stroke="#383635" stroke-width="0.3" stroke-linecap="round" stroke-linejoin="round" stroke-miterlimit="3" points="
	8.732,31.048 8.933,31.548 8.933,31.598 7.083,32.247 7.033,32.247 6.833,31.697 7.083,32.247 " style="stroke: rgb(0, 0, 0);"></polyline>
<polyline fill-rule="evenodd" clip-rule="evenodd" fill="none" stroke="#383635" stroke-width="0.3" stroke-linecap="round" stroke-linejoin="round" stroke-miterlimit="3" points="
	2.433,19.647 2.232,19.048 2.283,19.048 2.232,18.997 4.083,18.348 4.083,18.397 4.133,18.348 4.333,18.947 4.083,18.397 " style="stroke: rgb(0, 0, 0);"></polyline>
<polyline fill-rule="evenodd" clip-rule="evenodd" fill="none" stroke="#383635" stroke-width="0.3" stroke-linecap="round" stroke-linejoin="round" stroke-miterlimit="3" points="
	7.583,11.048 7.083,11.397 5.982,9.747 6.482,9.397 " style="stroke: rgb(0, 0, 0);"></polyline>
<polyline fill-rule="evenodd" clip-rule="evenodd" fill="none" stroke="#383635" stroke-width="0.3" stroke-linecap="round" stroke-linejoin="round" stroke-miterlimit="3" points="
	17.083,2.147 17.583,1.797 18.683,3.447 18.683,3.498 18.232,3.848 " style="stroke: rgb(0, 0, 0);"></polyline>
<polyline fill-rule="evenodd" clip-rule="evenodd" fill="none" stroke="#383635" stroke-width="0.3" stroke-linecap="round" stroke-linejoin="round" stroke-miterlimit="3" points="
	26.283,3.848 25.783,3.498 25.833,3.498 25.783,3.447 26.883,1.797 27.383,2.147 " style="stroke: rgb(0, 0, 0);"></polyline>
<line fill-rule="evenodd" clip-rule="evenodd" fill="none" stroke="#383635" stroke-width="0.3" stroke-linecap="round" stroke-linejoin="round" stroke-miterlimit="3" x1="26.283" y1="3.797" x2="25.833" y2="3.498" style="stroke: rgb(0, 0, 0);"></line>
<line fill-rule="evenodd" clip-rule="evenodd" fill="none" stroke="#383635" stroke-width="0.3" stroke-linecap="round" stroke-linejoin="round" stroke-miterlimit="3" x1="41.383" y1="19.598" x2="41.633" y2="19.048" style="stroke: rgb(0, 0, 0);"></line>
<line fill-rule="evenodd" clip-rule="evenodd" fill="none" stroke="#383635" stroke-width="0.3" stroke-linecap="round" stroke-linejoin="round" stroke-miterlimit="3" x1="39.783" y1="18.397" x2="39.533" y2="18.947" style="stroke: rgb(0, 0, 0);"></line>
<line fill-rule="evenodd" clip-rule="evenodd" fill="none" stroke="#383635" stroke-width="0.3" stroke-linecap="round" stroke-linejoin="round" stroke-miterlimit="3" x1="2.283" y1="19.048" x2="2.482" y2="19.598" style="stroke: rgb(0, 0, 0);"></line>
<line fill-rule="evenodd" clip-rule="evenodd" fill="none" stroke="#383635" stroke-width="0.3" stroke-linecap="round" stroke-linejoin="round" stroke-miterlimit="3" x1="18.183" y1="3.797" x2="18.683" y2="3.498" style="stroke: rgb(0, 0, 0);"></line>
<line fill-rule="evenodd" clip-rule="evenodd" fill="none" stroke="#383635" stroke-width="0.3" stroke-linecap="round" stroke-linejoin="round" stroke-miterlimit="3" x1="8.933" y1="31.548" x2="8.683" y2="31.048" style="stroke: rgb(0, 0, 0);"></line>
<line fill-rule="evenodd" clip-rule="evenodd" fill="none" stroke="#383635" stroke-width="0.3" stroke-linecap="round" stroke-linejoin="round" stroke-miterlimit="3" x1="15.283" y1="36.697" x2="14.683" y2="36.697" style="stroke: rgb(0, 0, 0);"></line>
<line fill-rule="evenodd" clip-rule="evenodd" fill="none" stroke="#383635" stroke-width="0.3" stroke-linecap="round" stroke-linejoin="round" stroke-miterlimit="3" x1="37.033" y1="31.697" x2="36.783" y2="32.247" style="stroke: rgb(0, 0, 0);"></line>
<line fill-rule="evenodd" clip-rule="evenodd" fill="none" stroke="#383635" stroke-width="0.3" stroke-linecap="round" stroke-linejoin="round" stroke-miterlimit="3" x1="34.982" y1="31.548" x2="35.183" y2="31.048" style="stroke: rgb(0, 0, 0);"></line>
<line fill-rule="evenodd" clip-rule="evenodd" fill="none" stroke="#383635" stroke-width="0.3" stroke-linecap="round" stroke-linejoin="round" stroke-miterlimit="3" x1="28.133" y1="36.697" x2="28.732" y2="36.697" style="stroke: rgb(0, 0, 0);"></line>
<line fill-rule="evenodd" clip-rule="evenodd" fill="none" stroke="#383635" stroke-width="0.3" stroke-linecap="round" stroke-linejoin="round" stroke-miterlimit="3" x1="33.333" y1="12.697" x2="33.357" y2="29.447" style="stroke: rgb(0, 0, 0);"></line>
<line fill-rule="evenodd" clip-rule="evenodd" fill="none" stroke="#383635" stroke-width="0.3" stroke-linecap="round" stroke-linejoin="round" stroke-miterlimit="3" x1="13.533" y1="9.848" x2="13.533" y2="32.348" style="stroke: rgb(0, 0, 0);"></line>
<line fill-rule="evenodd" clip-rule="evenodd" fill="none" stroke="#383635" stroke-width="0.3" stroke-linecap="round" stroke-linejoin="round" stroke-miterlimit="3" x1="23.433" y1="7.123" x2="23.433" y2="35.072" style="stroke: rgb(0, 0, 0);"></line>
<line fill-rule="evenodd" clip-rule="evenodd" fill="none" stroke="#383635" stroke-width="0.3" stroke-linecap="round" stroke-linejoin="round" stroke-miterlimit="3" x1="30.058" y1="9.522" x2="30.033" y2="32.647" style="stroke: rgb(0, 0, 0);"></line>
<line fill-rule="evenodd" clip-rule="evenodd" fill="none" stroke="#383635" stroke-width="0.3" stroke-linecap="round" stroke-linejoin="round" stroke-miterlimit="3" x1="26.732" y1="7.822" x2="26.732" y2="34.372" style="stroke: rgb(0, 0, 0);"></line>
<line fill-rule="evenodd" clip-rule="evenodd" fill="none" stroke="#383635" stroke-width="0.3" stroke-linecap="round" stroke-linejoin="round" stroke-miterlimit="3" x1="10.232" y1="28.822" x2="10.232" y2="13.348" style="stroke: rgb(0, 0, 0);"></line>
<line fill-rule="evenodd" clip-rule="evenodd" fill="none" stroke="#383635" stroke-width="0.3" stroke-linecap="round" stroke-linejoin="round" stroke-miterlimit="3" x1="20.133" y1="7.172" x2="20.133" y2="35.048" style="stroke: rgb(0, 0, 0);"></line>
<line fill-rule="evenodd" clip-rule="evenodd" fill="none" stroke="#383635" stroke-width="0.3" stroke-linecap="round" stroke-linejoin="round" stroke-miterlimit="3" x1="16.833" y1="7.998" x2="16.833" y2="34.247" style="stroke: rgb(0, 0, 0);"></line>
</svg>