<svg version="1.1" id="Layer_1" xmlns="http://www.w3.org/2000/svg" xmlns:xlink="http://www.w3.org/1999/xlink" x="0px" y="0px" width="47.105px" height="35.505px" viewBox="0 0 47.105 35.505" enable-background="new 0 0 47.105 35.505" xml:space="preserve" class="ng-scope">
<path fill-rule="evenodd" clip-rule="evenodd" fill="#FFFFFF" d="M8.053,24.002l-6.15-0.2c-0.333-0.033-0.566-0.166-0.7-0.399
	c-1.367-3.9-1.434-7.583-0.2-11.05c0-0.066,0.033-0.15,0.1-0.25c0.167-0.334,0.383-0.533,0.65-0.601l6.3-0.2v1.5v9.9V24.002v-1.3
	v-9.9v-1.5v-3.1h9h1.3h-1.3l0.2-6.3c0.033-0.333,0.167-0.567,0.4-0.7c3.9-1.367,7.583-1.433,11.05-0.2c0.066,0,0.15,0.034,0.25,0.1
	c0.333,0.167,0.533,0.383,0.6,0.65l0.25,6.45h-1.55c0.033-1.133,0.1-2.3,0.2-3.5c0.033-0.3,0.066-0.617,0.1-0.95
	c0.333-0.566,0.267-1.066-0.2-1.5l-0.05-0.05c-3.1-1.033-6.317-1.05-9.65-0.05h-0.05v0.05c-0.6,0.267-0.767,0.783-0.5,1.55
	c0.033,0.333,0.067,0.65,0.1,0.95c0.066,1.166,0.117,2.334,0.15,3.5c-0.033-1.166-0.083-2.334-0.15-3.5
	c-0.033-0.3-0.067-0.617-0.1-0.95c-0.267-0.767-0.1-1.283,0.5-1.55v-0.05h0.05c3.333-1,6.55-0.983,9.65,0.05l0.05,0.05
	c0.467,0.434,0.533,0.934,0.2,1.5c-0.034,0.333-0.067,0.65-0.1,0.95c-0.1,1.2-0.167,2.367-0.2,3.5h1.55h9.25v3.1l6.15,0.2
	c0.333,0.034,0.566,0.167,0.7,0.4c1.367,3.899,1.434,7.583,0.2,11.05c0,0.066-0.033,0.15-0.1,0.25
	c-0.167,0.334-0.383,0.533-0.65,0.6l-6.3,0.25v-1.55c1.1,0.034,2.216,0.101,3.35,0.2c0.3,0.033,0.617,0.066,0.95,0.1
	c0.566,0.334,1.066,0.268,1.5-0.199l0.05-0.051c1.034-3.1,1.05-6.316,0.05-9.649v-0.05c-0.3-0.601-0.833-0.768-1.6-0.5
	c-0.333,0.033-0.65,0.066-0.95,0.1c-1.1,0.066-2.216,0.117-3.35,0.15v-1.301v1.301c1.133-0.033,2.25-0.084,3.35-0.15
	c0.3-0.033,0.617-0.066,0.95-0.1c0.767-0.268,1.3-0.101,1.6,0.5v0.05c1,3.333,0.983,6.55-0.05,9.649l-0.05,0.051
	c-0.434,0.467-0.934,0.533-1.5,0.199c-0.333-0.033-0.65-0.066-0.95-0.1c-1.133-0.1-2.25-0.166-3.35-0.2v1.55v3.4h-9.1h-1.3h-9.9
	h-1.5h-9.2V24.002z"></path>
<path fill-rule="evenodd" clip-rule="evenodd" fill="#FFFFFF" d="M18.652,2.153c2.5,1,4.684,1.316,6.55,0.95
	c1.8-0.4,2.833-0.683,3.1-0.85v-0.05v0.05c-0.267,0.167-1.3,0.45-3.1,0.85C23.336,3.469,21.152,3.153,18.652,2.153z"></path>
<path fill-rule="evenodd" clip-rule="evenodd" fill="#FFFFFF" d="M29.953,27.453l-0.2,6.15c-0.033,0.333-0.167,0.566-0.4,0.699
	c-3.9,1.367-7.583,1.434-11.05,0.2c-0.067,0-0.15-0.033-0.25-0.1c-0.333-0.167-0.534-0.384-0.6-0.65l-0.2-6.3h1.5h9.9H29.953z"></path>
<path fill-rule="evenodd" clip-rule="evenodd" fill="#FFFFFF" d="M28.652,27.453c0.034,1.133,0.083,2.25,0.15,3.35
	c0.033,0.301,0.066,0.617,0.1,0.95c0.267,0.767,0.117,1.3-0.45,1.601h-0.1c-3.333,1-6.55,0.982-9.65-0.051l-0.05-0.05
	c-0.466-0.433-0.533-0.933-0.2-1.5c0.033-0.333,0.066-0.649,0.1-0.95c0.1-1.133,0.167-2.25,0.2-3.35c-0.033,1.1-0.1,2.217-0.2,3.35
	c-0.034,0.301-0.067,0.617-0.1,0.95c-0.333,0.567-0.267,1.067,0.2,1.5l0.05,0.05c3.1,1.033,6.316,1.051,9.65,0.051h0.1
	c0.566-0.301,0.717-0.834,0.45-1.601c-0.033-0.333-0.066-0.649-0.1-0.95C28.736,29.703,28.686,28.585,28.652,27.453z"></path>
<path fill-rule="evenodd" clip-rule="evenodd" fill="#FFFFFF" d="M28.353,33.353c-2.5-1-4.683-1.316-6.55-0.95
	c-1.8,0.399-2.833,0.683-3.1,0.85v0.05v-0.05c0.267-0.167,1.3-0.45,3.1-0.85C23.669,32.037,25.853,32.353,28.353,33.353z"></path>
<path fill-rule="evenodd" clip-rule="evenodd" fill="#FFFFFF" d="M44.902,22.552h-0.05c-0.167-0.266-0.45-1.3-0.85-3.1
	c-0.367-1.867-0.05-4.05,0.95-6.55c-1,2.5-1.317,4.683-0.95,6.55c0.4,1.8,0.684,2.834,0.85,3.1H44.902z"></path>
<path fill-rule="evenodd" clip-rule="evenodd" fill="#FFFFFF" d="M42.402,12.453c1.467,3.467,1.467,6.883,0,10.25
	C43.869,19.335,43.869,15.919,42.402,12.453z"></path>
<path fill-rule="evenodd" clip-rule="evenodd" fill="#FFFFFF" d="M39.053,22.502v-9.899V22.502z"></path>
<path fill-rule="evenodd" clip-rule="evenodd" fill="#FFFFFF" d="M18.203,4.703c3.467-1.467,6.883-1.467,10.25,0
	C25.086,3.236,21.669,3.236,18.203,4.703z"></path>
<path fill-rule="evenodd" clip-rule="evenodd" fill="#FFFFFF" d="M28.252,8.203h-9.9H28.252z"></path>
<path fill-rule="evenodd" clip-rule="evenodd" fill="#FFFFFF" d="M28.803,30.802c-3.467,1.467-6.883,1.467-10.25,0
	C21.919,32.269,25.336,32.269,28.803,30.802z"></path>
<path fill-rule="evenodd" clip-rule="evenodd" fill="#FFFFFF" d="M2.203,12.752h0.05c0.167,0.267,0.45,1.3,0.85,3.101
	c0.367,1.866,0.05,4.05-0.95,6.55v0.05l0.05,0.05c0.267,0.567,0.783,0.717,1.55,0.45c0.333-0.033,0.65-0.066,0.95-0.1
	c-1.467-3.467-1.467-6.884,0-10.25c-0.3-0.033-0.617-0.066-0.95-0.101c-0.566-0.333-1.066-0.267-1.5,0.2L2.203,12.752
	c-1.033,3.101-1.05,6.317-0.05,9.65C1.152,19.07,1.169,15.853,2.203,12.752l0.05-0.05c0.434-0.467,0.934-0.533,1.5-0.2
	c0.333,0.034,0.65,0.067,0.95,0.101c-1.467,3.366-1.467,6.783,0,10.25c-0.3,0.033-0.617,0.066-0.95,0.1
	c-0.767,0.267-1.283,0.117-1.55-0.45l-0.05-0.05v-0.05c1-2.5,1.317-4.684,0.95-6.55c-0.4-1.801-0.683-2.834-0.85-3.101H2.203z"></path>
<path fill-rule="evenodd" clip-rule="evenodd" fill="#FFFFFF" d="M4.703,12.603c1.133,0.1,2.25,0.166,3.35,0.199
	C6.953,12.769,5.836,12.703,4.703,12.603z"></path>
<path fill-rule="evenodd" clip-rule="evenodd" fill="#FFFFFF" d="M4.703,22.853c1.133-0.066,2.25-0.117,3.35-0.15
	C6.953,22.736,5.836,22.787,4.703,22.853z"></path>
<path fill-rule="evenodd" clip-rule="evenodd" fill="none" stroke="#383635" stroke-width="0.3" stroke-linecap="round" stroke-linejoin="round" stroke-miterlimit="3" d="
	M29.803,8.203l-0.25-6.45c-0.067-0.267-0.267-0.483-0.6-0.65c-0.1-0.066-0.184-0.1-0.25-0.1c-3.467-1.233-7.15-1.167-11.05,0.2
	c-0.233,0.133-0.367,0.367-0.4,0.7l-0.2,6.3" style="stroke: rgb(0, 0, 0);"></path>
<path fill-rule="evenodd" clip-rule="evenodd" fill="none" stroke="#383635" stroke-width="0.3" stroke-linecap="round" stroke-linejoin="round" stroke-miterlimit="3" d="
	M18.353,8.203c-0.033-1.166-0.083-2.334-0.15-3.5c-0.033-0.3-0.067-0.617-0.1-0.95c-0.267-0.767-0.1-1.283,0.5-1.55v-0.05h0.05
	c3.333-1,6.55-0.983,9.65,0.05l0.05,0.05c0.467,0.434,0.533,0.934,0.2,1.5c-0.034,0.333-0.067,0.65-0.1,0.95
	c-0.1,1.2-0.167,2.367-0.2,3.5" style="stroke: rgb(0, 0, 0);"></path>
<path fill-rule="evenodd" clip-rule="evenodd" fill="none" stroke="#383635" stroke-width="0.3" stroke-linecap="round" stroke-linejoin="round" stroke-miterlimit="3" d="
	M18.652,2.153c2.5,1,4.684,1.316,6.55,0.95c1.8-0.4,2.833-0.683,3.1-0.85v-0.05" style="stroke: rgb(0, 0, 0);"></path>
<path fill-rule="evenodd" clip-rule="evenodd" fill="none" stroke="#383635" stroke-width="0.3" stroke-linecap="round" stroke-linejoin="round" stroke-miterlimit="3" d="
	M39.053,24.052l6.3-0.25c0.267-0.066,0.483-0.266,0.65-0.6c0.067-0.1,0.1-0.184,0.1-0.25c1.233-3.467,1.167-7.15-0.2-11.05
	c-0.133-0.233-0.366-0.366-0.7-0.4l-6.15-0.2" style="stroke: rgb(0, 0, 0);"></path>
<path fill-rule="evenodd" clip-rule="evenodd" fill="none" stroke="#383635" stroke-width="0.3" stroke-linecap="round" stroke-linejoin="round" stroke-miterlimit="3" d="
	M39.053,12.603c1.133-0.033,2.25-0.084,3.35-0.15c0.3-0.033,0.617-0.066,0.95-0.1c0.767-0.268,1.3-0.101,1.6,0.5v0.05
	c1,3.333,0.983,6.55-0.05,9.649l-0.05,0.051c-0.434,0.467-0.934,0.533-1.5,0.199c-0.333-0.033-0.65-0.066-0.95-0.1
	c-1.133-0.1-2.25-0.166-3.35-0.2" style="stroke: rgb(0, 0, 0);"></path>
<path fill-rule="evenodd" clip-rule="evenodd" fill="none" stroke="#383635" stroke-width="0.3" stroke-linecap="round" stroke-linejoin="round" stroke-miterlimit="3" d="
	M28.652,27.453c0.034,1.133,0.083,2.25,0.15,3.35c0.033,0.301,0.066,0.617,0.1,0.95c0.267,0.767,0.117,1.3-0.45,1.601h-0.1
	c-3.333,1-6.55,0.982-9.65-0.051l-0.05-0.05c-0.466-0.433-0.533-0.933-0.2-1.5c0.033-0.333,0.066-0.649,0.1-0.95
	c0.1-1.133,0.167-2.25,0.2-3.35" style="stroke: rgb(0, 0, 0);"></path>
<path fill-rule="evenodd" clip-rule="evenodd" fill="none" stroke="#383635" stroke-width="0.3" stroke-linecap="round" stroke-linejoin="round" stroke-miterlimit="3" d="
	M28.353,33.353c-2.5-1-4.683-1.316-6.55-0.95c-1.8,0.399-2.833,0.683-3.1,0.85v0.05" style="stroke: rgb(0, 0, 0);"></path>
<path fill-rule="evenodd" clip-rule="evenodd" fill="none" stroke="#383635" stroke-width="0.3" stroke-linecap="round" stroke-linejoin="round" stroke-miterlimit="3" d="
	M17.252,27.453l0.2,6.3c0.066,0.267,0.267,0.483,0.6,0.65c0.1,0.066,0.183,0.1,0.25,0.1c3.466,1.233,7.15,1.167,11.05-0.2
	c0.233-0.133,0.367-0.366,0.4-0.699l0.2-6.15" style="stroke: rgb(0, 0, 0);"></path>
<path fill-rule="evenodd" clip-rule="evenodd" fill="none" stroke="#383635" stroke-width="0.3" stroke-linecap="round" stroke-linejoin="round" stroke-miterlimit="3" d="
	M44.902,22.552h-0.05c-0.167-0.266-0.45-1.3-0.85-3.1c-0.367-1.867-0.05-4.05,0.95-6.55" style="stroke: rgb(0, 0, 0);"></path>
<path fill-rule="evenodd" clip-rule="evenodd" fill="none" stroke="#383635" stroke-width="0.3" stroke-linecap="round" stroke-linejoin="round" stroke-miterlimit="3" d="
	M42.402,12.453c1.467,3.467,1.467,6.883,0,10.25" style="stroke: rgb(0, 0, 0);"></path>
<path fill-rule="evenodd" clip-rule="evenodd" fill="none" stroke="#383635" stroke-width="0.3" stroke-linecap="round" stroke-linejoin="round" stroke-miterlimit="3" d="
	M18.203,4.703c3.467-1.467,6.883-1.467,10.25,0" style="stroke: rgb(0, 0, 0);"></path>
<path fill-rule="evenodd" clip-rule="evenodd" fill="none" stroke="#383635" stroke-width="0.3" stroke-linecap="round" stroke-linejoin="round" stroke-miterlimit="3" d="
	M28.803,30.802c-3.467,1.467-6.883,1.467-10.25,0" style="stroke: rgb(0, 0, 0);"></path>
<path fill-rule="evenodd" clip-rule="evenodd" fill="none" stroke="#383635" stroke-width="0.3" stroke-linecap="round" stroke-linejoin="round" stroke-miterlimit="3" d="
	M8.053,11.302l-6.3,0.2c-0.267,0.067-0.483,0.267-0.65,0.601c-0.067,0.1-0.1,0.184-0.1,0.25c-1.233,3.467-1.167,7.149,0.2,11.05
	c0.133,0.233,0.367,0.366,0.7,0.399l6.15,0.2" style="stroke: rgb(0, 0, 0);"></path>
<path fill-rule="evenodd" clip-rule="evenodd" fill="none" stroke="#383635" stroke-width="0.3" stroke-linecap="round" stroke-linejoin="round" stroke-miterlimit="3" d="
	M2.203,12.752h0.05c0.167,0.267,0.45,1.3,0.85,3.101c0.367,1.866,0.05,4.05-0.95,6.55v0.05l0.05,0.05
	c0.267,0.567,0.783,0.717,1.55,0.45c0.333-0.033,0.65-0.066,0.95-0.1c-1.467-3.467-1.467-6.884,0-10.25
	c-0.3-0.033-0.617-0.066-0.95-0.101c-0.566-0.333-1.066-0.267-1.5,0.2L2.203,12.752z" style="stroke: rgb(0, 0, 0);"></path>
<path fill-rule="evenodd" clip-rule="evenodd" fill="none" stroke="#383635" stroke-width="0.3" stroke-linecap="round" stroke-linejoin="round" stroke-miterlimit="3" d="
	M2.152,22.403c-1-3.333-0.983-6.55,0.05-9.65" style="stroke: rgb(0, 0, 0);"></path>
<path fill-rule="evenodd" clip-rule="evenodd" fill="none" stroke="#383635" stroke-width="0.3" stroke-linecap="round" stroke-linejoin="round" stroke-miterlimit="3" d="
	M4.703,12.603c1.133,0.1,2.25,0.166,3.35,0.199" style="stroke: rgb(0, 0, 0);"></path>
<path fill-rule="evenodd" clip-rule="evenodd" fill="none" stroke="#383635" stroke-width="0.3" stroke-linecap="round" stroke-linejoin="round" stroke-miterlimit="3" d="
	M4.703,22.853c1.133-0.066,2.25-0.117,3.35-0.15" style="stroke: rgb(0, 0, 0);"></path>
<line fill-rule="evenodd" clip-rule="evenodd" fill="none" stroke="#383635" stroke-width="0.3" x1="17.053" y1="8.203" x2="18.353" y2="8.203" style="stroke: rgb(0, 0, 0);"></line>
<line fill-rule="evenodd" clip-rule="evenodd" fill="none" stroke="#383635" stroke-width="0.3" x1="28.252" y1="8.203" x2="29.803" y2="8.203" style="stroke: rgb(0, 0, 0);"></line>
<polyline fill-rule="evenodd" clip-rule="evenodd" fill="none" stroke="#383635" stroke-width="0.3" points="39.053,11.302 
	39.053,8.203 29.803,8.203 " style="stroke: rgb(0, 0, 0);"></polyline>
<line fill-rule="evenodd" clip-rule="evenodd" fill="none" stroke="#383635" stroke-width="0.3" x1="39.053" y1="11.302" x2="39.053" y2="12.603" style="stroke: rgb(0, 0, 0);"></line>
<line fill-rule="evenodd" clip-rule="evenodd" fill="none" stroke="#383635" stroke-width="0.3" x1="39.053" y1="22.502" x2="39.053" y2="24.052" style="stroke: rgb(0, 0, 0);"></line>
<polyline fill-rule="evenodd" clip-rule="evenodd" fill="none" stroke="#383635" stroke-width="0.3" points="17.053,8.203 
	8.053,8.203 8.053,11.302 8.053,12.802 8.053,22.703 8.053,24.002 8.053,27.453 17.252,27.453 18.752,27.453 28.652,27.453 
	29.953,27.453 39.053,27.453 39.053,24.052 " style="stroke: rgb(0, 0, 0);"></polyline>
<line fill-rule="evenodd" clip-rule="evenodd" fill="none" stroke="#383635" stroke-width="0.3" x1="39.053" y1="22.502" x2="39.053" y2="12.603" style="stroke: rgb(0, 0, 0);"></line>
<line fill-rule="evenodd" clip-rule="evenodd" fill="none" stroke="#383635" stroke-width="0.3" x1="28.252" y1="8.203" x2="18.353" y2="8.203" style="stroke: rgb(0, 0, 0);"></line>
</svg>