<svg version="1.1" id="Layer_1" xmlns="http://www.w3.org/2000/svg" xmlns:xlink="http://www.w3.org/1999/xlink" x="0px" y="0px" width="77.9px" height="65.15px" viewBox="0 0 77.9 65.15" enable-background="new 0 0 77.9 65.15" xml:space="preserve" class="ng-scope">
<path fill-rule="evenodd" clip-rule="evenodd" fill="#FFFFFF" d="M57.525,7.975h0.1c0.467,0.1,1.417,0.233,2.851,0.4l-0.351-2.7
	c0.101-0.4,0.417-0.467,0.95-0.2c0.733,0.367,1.5,0.633,2.3,0.8c0.268,0.034,0.533,0.117,0.801,0.25c0.967,0.2,1.899,0.367,2.8,0.5
	c0.833,0.167,1.634,0.483,2.399,0.95c0.434,0.2,0.884,0.4,1.351,0.6c-0.467-0.2-0.917-0.4-1.351-0.6
	c-0.766-0.467-1.566-0.783-2.399-0.95c-0.9-0.133-1.833-0.3-2.8-0.5c-0.268-0.133-0.533-0.216-0.801-0.25
	c-0.8-0.167-1.566-0.433-2.3-0.8c-0.533-0.267-0.85-0.2-0.95,0.2l0.351,2.7c-1.434-0.167-2.384-0.3-2.851-0.4l-0.1-0.25
	c-0.033-0.767-0.066-1.517-0.1-2.25c0-0.167,0-0.317,0-0.45c-0.033-1.167,0.25-2.083,0.85-2.75c0.334-0.033,0.666-0.05,1-0.05
	c0.967-0.133,1.967-0.183,3-0.15c3.3-0.2,6.566-0.017,9.8,0.55c0.167,0.4,0.25,1.4,0.25,3c0.034,1.633-0.1,2.55-0.399,2.75l-1.2,0.2
	l1.2,0.15v-0.35c0.3-0.2,0.434-1.117,0.399-2.75c0-1.6-0.083-2.6-0.25-3c-3.233-0.566-6.5-0.75-9.8-0.55
	c-1.033-0.033-2.033,0.017-3,0.15c-0.334,0-0.666,0.017-1,0.05c-0.6,0.667-0.883,1.583-0.85,2.75c0,0.133,0,0.284,0,0.45
	c0.033,0.733,0.066,1.483,0.1,2.25V7.975l-0.1,12.35L57.525,7.975z"></path>
<path fill-rule="evenodd" clip-rule="evenodd" fill="#FFFFFF" d="M76.325,2.625l0.351,0.3c0.467,2.4,0.766,4.816,0.899,7.25
	c0.134,2.066,0.2,4.15,0.2,6.25c0,0.9-0.416,1.383-1.25,1.45l-0.1,3.2c-0.234,0.733-0.634,1.133-1.2,1.2
	c-0.366,0.034-1.517,0.05-3.45,0.05c-1.1,0-2.434,0.017-4,0.05c-2.4,0-5.383-0.017-8.95-0.05c-0.2,0-0.399-0.083-0.6-0.25
	c-0.366-0.333-0.634-0.917-0.8-1.75c-0.167,1.233-0.434,1.85-0.801,1.85c-0.934,0.066-6,0.1-15.199,0.1
	c-0.134,0.034-0.268,0-0.4-0.1c-0.166-0.067-0.283-0.2-0.35-0.4c-0.634,0.5-1.4,0.667-2.3,0.5c-2.6,0-5.233-0.017-7.9-0.05
	c-1.633,0-3.284-0.033-4.95-0.1c-0.8,0.167-1.45-0.017-1.95-0.55c-0.033,0.233-0.283,0.4-0.75,0.5h-0.25l0.45,0.25
	c0.1,0.267,0.167,0.533,0.2,0.8c0.066,1.067,0.1,2.15,0.1,3.25c0,2.7,0,5.434,0,8.2c0,0.834,0.034,1.667,0.1,2.5
	c0.1,1.367,0,2.75-0.3,4.15c-0.1,0.467-0.367,0.617-0.8,0.45l0.55,0.5c0.033,0.2,0.05,0.417,0.05,0.649c0.067,0.9,0.1,1.801,0.1,2.7
	c0,4.5-0.033,8.967-0.1,13.4c0,0.7-0.133,1.316-0.4,1.85l-3.95,0.05c0.034,0.2,0.083,0.4,0.15,0.601
	c0.333,1.1,0.267,2.149-0.2,3.149c-0.1,0.101-0.2,0.184-0.3,0.25c-0.2,0.134-0.4,0.2-0.6,0.2c-3.633-0.033-7.317-0.216-11.05-0.55
	c-1.233,0.033-2.433-0.133-3.6-0.5l-0.6-1.3c-1.133,0-1.867-0.534-2.2-1.601c-0.033-0.366-0.05-0.75-0.05-1.149l0.95-53.85
	c0.067-0.633,0.1-1.617,0.1-2.95c0-1.267,0.033-1.933,0.1-2c0.033-0.3,0.3-0.55,0.8-0.75c0.233-0.133,0.467-0.217,0.7-0.25l5.4,0.05
	c2.733,0,4.767-0.017,6.1-0.05l60.65,0.05c0.199,0,0.383,0.066,0.55,0.2c0.466,0.333,0.75,1.033,0.85,2.1
	C76.325,2.542,76.325,2.592,76.325,2.625l-3.649-0.35l-0.601,0.35l0.601-0.35L76.325,2.625z"></path>
<path fill-rule="evenodd" clip-rule="evenodd" fill="#FFFFFF" d="M76.525,17.875c-1.133,0.267-2.267,0.133-3.4-0.4
	c-0.133-0.033-0.232-0.083-0.3-0.15c-0.233-0.5-0.384-1.017-0.45-1.55c-0.166-1.833-0.3-3.667-0.399-5.5
	c-0.667,0.733-1.05,1.684-1.15,2.85c-0.033,0.3-0.033,0.6,0,0.9c0.034,0.167,0.067,0.35,0.101,0.55
	c-2.533-0.1-5.066-0.65-7.601-1.65c-0.533-0.267-1.1-0.434-1.7-0.5c-1.066-0.167-1.533-0.75-1.399-1.75
	c0.033-0.434,0.083-0.85,0.149-1.25c0.033-0.367,0.066-0.717,0.101-1.05c-0.034,0.333-0.067,0.684-0.101,1.05
	c-0.066,0.4-0.116,0.816-0.149,1.25c-0.134,1,0.333,1.583,1.399,1.75c0.601,0.066,1.167,0.233,1.7,0.5
	c2.534,1,5.067,1.55,7.601,1.65c-0.033-0.2-0.066-0.383-0.101-0.55c-0.033-0.3-0.033-0.6,0-0.9c0.101-1.167,0.483-2.117,1.15-2.85
	c0.1,1.833,0.233,3.667,0.399,5.5c0.066,0.534,0.217,1.05,0.45,1.55c0.067,0.066,0.167,0.117,0.3,0.15
	C74.258,18.008,75.392,18.142,76.525,17.875z"></path>
<path fill-rule="evenodd" clip-rule="evenodd" fill="#FFFFFF" d="M71.975,10.275c0.1-0.133,0.2-0.267,0.3-0.4
	c0.166-0.3,0.334-0.6,0.5-0.9l-0.85-0.25l0.85,0.25c-0.166,0.3-0.334,0.6-0.5,0.9C72.175,10.008,72.075,10.142,71.975,10.275z"></path>
<path fill-rule="evenodd" clip-rule="evenodd" fill="#FFFFFF" d="M42.775,1.925c4.633-0.067,9.217,0.066,13.75,0.4
	c0.133,0.033,0.267,0.066,0.4,0.1l0.35,3.05l-0.2,2.7c-1.433,0.433-2.95,0.566-4.55,0.4c-2.066-0.067-4.15-0.083-6.25-0.05
	c-1.834,0-3.633-0.233-5.4-0.7l0.25-5.25C41.492,2.142,42.042,1.925,42.775,1.925c-0.733,0-1.283,0.216-1.65,0.65l-0.25,5.25
	c1.768,0.467,3.566,0.7,5.4,0.7c2.1-0.033,4.184-0.017,6.25,0.05c1.6,0.167,3.117,0.033,4.55-0.4l0.2-2.7l-0.35-3.05
	c-0.134-0.034-0.268-0.067-0.4-0.1C51.992,1.992,47.408,1.858,42.775,1.925z"></path>
<path fill-rule="evenodd" clip-rule="evenodd" fill="#FFFFFF" d="M24.125,5.525l0.05,2.3c1.833,0.467,3.75,0.7,5.75,0.7
	c2,0.034,4.033,0.05,6.1,0.05c1.233,0,2.45-0.033,3.65-0.1c0.5,0.033,0.766-0.183,0.8-0.65c0.2-0.934,0.283-1.867,0.25-2.8
	c-0.034-0.7-0.116-1.4-0.25-2.1c-0.034-0.133-0.067-0.267-0.101-0.4c-0.633-0.233-1.3-0.35-2-0.35c-2.633-0.067-5.267-0.167-7.9-0.3
	c-1.967-0.167-3.917-0.05-5.85,0.35l-0.5,3.05l0.5-3.05c1.933-0.4,3.883-0.517,5.85-0.35c2.633,0.133,5.267,0.233,7.9,0.3
	c0.7,0,1.367,0.117,2,0.35c0.033,0.133,0.066,0.267,0.101,0.4c0.134,0.7,0.216,1.4,0.25,2.1c0.033,0.934-0.05,1.867-0.25,2.8
	c-0.034,0.467-0.3,0.683-0.8,0.65c-1.2,0.067-2.417,0.1-3.65,0.1c-2.067,0-4.1-0.017-6.1-0.05c-2,0-3.917-0.233-5.75-0.7
	L24.125,5.525z"></path>
<path fill-rule="evenodd" clip-rule="evenodd" fill="#FFFFFF" d="M24.125,5.275h-0.05l-0.3-2.65l-14.05-0.4
	c-0.633,0.367-0.917,1.017-0.85,1.95c0.033,0.4,0.05,0.8,0.05,1.2c0.033,0.934,0.033,1.8,0,2.6l1.7,0.3c1.533-1.033,3.2-1.767,5-2.2
	c0.533,0,1.033-0.117,1.5-0.35c0.3-0.167,0.533-0.283,0.7-0.35c0.267-0.033,0.55-0.066,0.85-0.1c-0.267,0.767-0.316,1.5-0.15,2.2
	c0.067,0.367,0.15,0.75,0.25,1.15l4.85-0.25l0.45-2.85l-0.45,2.85l-4.85,0.25c-0.1-0.4-0.183-0.783-0.25-1.15
	c-0.167-0.7-0.117-1.433,0.15-2.2c-0.3,0.034-0.583,0.067-0.85,0.1c-0.167,0.067-0.4,0.184-0.7,0.35
	c-0.467,0.233-0.967,0.35-1.5,0.35c-1.8,0.433-3.467,1.167-5,2.2l-1.7-0.3c0.033-0.8,0.033-1.667,0-2.6c0-0.4-0.017-0.8-0.05-1.2
	c-0.067-0.934,0.217-1.583,0.85-1.95l14.05,0.4l0.3,2.65c0,0.067,0,0.15,0,0.25h0.05C24.125,5.492,24.125,5.408,24.125,5.275z"></path>
<path fill-rule="evenodd" clip-rule="evenodd" fill="#FFFFFF" d="M40.475,7.825l0.2,13.95L40.475,7.825z"></path>
<path fill-rule="evenodd" clip-rule="evenodd" fill="#FFFFFF" d="M18.775,8.625l1.7,2.05c-1.167,0.867-2.467,1.55-3.9,2.05
	c-1.066,0.433-2.117,0.867-3.15,1.3c-0.566,0.2-1.117,0.4-1.65,0.6c-0.433,0.2-0.867,0.35-1.3,0.45l-1.65-2
	c-0.066,4.967-0.283,7.867-0.65,8.7c-0.333,0.034-0.667,0.05-1,0.05l1.05,0.25h14.35H8.225l-1.05-0.25c0.333,0,0.667-0.017,1-0.05
	c0.367-0.833,0.583-3.733,0.65-8.7l1.65,2c0.433-0.1,0.867-0.25,1.3-0.45c0.533-0.2,1.083-0.4,1.65-0.6
	c1.033-0.433,2.083-0.867,3.15-1.3c1.434-0.5,2.733-1.183,3.9-2.05L18.775,8.625z"></path>
<path fill-rule="evenodd" clip-rule="evenodd" fill="#FFFFFF" d="M2.375,62.675c0-0.9-0.033-1.784-0.1-2.65
	c-0.033-0.7,0.133-1.366,0.5-2c-0.6-0.1-0.983-0.216-1.15-0.35c-0.067-0.067-0.117-0.25-0.15-0.55c-0.2-1.101-0.267-3.717-0.2-7.851
	c0.067-5.333,0.267-8.033,0.6-8.1c0.367-0.134,1.267-0.233,2.7-0.3l-2.5-0.5c-0.267-1.134-0.4-2.25-0.4-3.351
	c0.033-1.899,0.05-3.85,0.05-5.85c-0.034-3.067,0.15-6.1,0.55-9.1l2.1-0.25l-1.95-0.45c-0.233-1.267-0.333-2.533-0.3-3.8
	c0.033-3.667,0.083-7.317,0.15-10.95c0-1.1,0.15-2.283,0.45-3.55c0.966-0.133,1.966-0.217,3-0.25c1.066-0.167,2.066-0.05,3,0.35
	l0.15,5.95l1.75-0.85l-1.75,0.85l-0.15-5.95c-0.934-0.4-1.934-0.517-3-0.35c-1.034,0.033-2.034,0.117-3,0.25
	c-0.3,1.267-0.45,2.45-0.45,3.55c-0.067,3.633-0.117,7.283-0.15,10.95c-0.033,1.267,0.066,2.533,0.3,3.8l1.95,0.45l-2.1,0.25
	c-0.4,3-0.583,6.033-0.55,9.1c0,2-0.017,3.95-0.05,5.85c0,1.101,0.133,2.217,0.4,3.351l2.5,0.5c-1.433,0.066-2.333,0.166-2.7,0.3
	c-0.333,0.066-0.533,2.767-0.6,8.1c-0.067,4.134,0,6.75,0.2,7.851c0.033,0.3,0.083,0.482,0.15,0.55c0.167,0.134,0.55,0.25,1.15,0.35
	c-0.367,0.634-0.533,1.3-0.5,2C2.342,60.891,2.375,61.775,2.375,62.675z"></path>
<polygon fill-rule="evenodd" clip-rule="evenodd" fill="#FFFFFF" points="8.825,13.075 6.275,10.175 8.875,9.125 6.275,10.175 "></polygon>
<path fill-rule="evenodd" clip-rule="evenodd" fill="#FFFFFF" d="M8.225,22.075c0.066,0.367,0.117,0.717,0.15,1.05
	c0.167,1.1,0.233,2.184,0.2,3.25c-0.066,3.5-0.133,7.017-0.2,10.55c-0.033,1.333-0.233,2.634-0.6,3.899l-1.65,0.051
	c0.967,0.066,1.517,0.199,1.65,0.399c0.067,0,0.117,0.116,0.15,0.351l14.4,0.05l-14.4-0.05c-0.033-0.234-0.083-0.351-0.15-0.351
	c-0.133-0.2-0.683-0.333-1.65-0.399l1.65-0.051c0.367-1.266,0.567-2.566,0.6-3.899c0.066-3.534,0.133-7.05,0.2-10.55
	c0.034-1.066-0.033-2.15-0.2-3.25C8.342,22.792,8.292,22.442,8.225,22.075z"></path>
<path fill-rule="evenodd" clip-rule="evenodd" fill="#FFFFFF" d="M4.375,21.825h2.8H4.375z"></path>
<path fill-rule="evenodd" clip-rule="evenodd" fill="#FFFFFF" d="M23.625,8.375l-0.05,13.2L23.625,8.375z"></path>
<path fill-rule="evenodd" clip-rule="evenodd" fill="#FFFFFF" d="M7.925,41.625l0.1,5.949c1.8,0.434,3.333,0.051,4.6-1.149
	c0.066-0.034,0.133-0.05,0.2-0.05c0.567,0.5,0.883,1.1,0.95,1.8c0.067,0.433,0.167,0.85,0.3,1.25c0.434,1.333,0.767,2.75,1,4.25
	c0.1,0.767,0.233,1.533,0.4,2.3c0.066,0.3,0.1,0.6,0.1,0.9l-2.8,1.3c1.8-0.134,3.5,0.1,5.1,0.7c0.1,0.066,0.2,0.149,0.3,0.25
	l0.4,1.699l-0.4-1.699c-0.1-0.101-0.2-0.184-0.3-0.25c-1.6-0.601-3.3-0.834-5.1-0.7l2.8-1.3c0-0.301-0.033-0.601-0.1-0.9
	c-0.167-0.767-0.3-1.533-0.4-2.3c-0.233-1.5-0.566-2.917-1-4.25c-0.133-0.4-0.233-0.817-0.3-1.25c-0.067-0.7-0.383-1.3-0.95-1.8
	c-0.066,0-0.133,0.016-0.2,0.05c-1.267,1.2-2.8,1.583-4.6,1.149L7.925,41.625z"></path>
<path fill-rule="evenodd" clip-rule="evenodd" fill="#FFFFFF" d="M8.025,47.575c-0.033-0.066-0.067-0.1-0.1-0.1
	c-0.3-0.133-0.583-0.15-0.85-0.05c-0.066-0.034-0.117,0.017-0.15,0.149c0.434,0.9,0.667,1.75,0.7,2.551
	c0.033,0.967,0.133,1.883,0.3,2.75l1.5,5.149l0.5,1.8l2.85-1.649l-2.85,1.649l-0.5-1.8l-1.5-5.149
	c-0.167-0.867-0.267-1.783-0.3-2.75c-0.033-0.801-0.267-1.65-0.7-2.551c0.033-0.133,0.083-0.184,0.15-0.149
	c0.267-0.101,0.55-0.083,0.85,0.05C7.958,47.475,7.992,47.508,8.025,47.575z"></path>
<path fill-rule="evenodd" clip-rule="evenodd" fill="#FFFFFF" d="M6.125,40.875h-1.55H6.125z"></path>
<polygon fill-rule="evenodd" clip-rule="evenodd" fill="#FFFFFF" points="7.925,52.875 7.375,58.025 9.425,58.025 7.375,58.025 "></polygon>
<path fill-rule="evenodd" clip-rule="evenodd" fill="#FFFFFF" d="M7.375,58.025h-4.6H7.375z"></path>
<path fill-rule="evenodd" clip-rule="evenodd" fill="none" stroke="#383635" stroke-width="0.3" d="M57.625,7.975
	c0.467,0.1,1.417,0.233,2.851,0.4l-0.351-2.7c0.101-0.4,0.417-0.467,0.95-0.2c0.733,0.367,1.5,0.633,2.3,0.8
	c0.268,0.034,0.533,0.117,0.801,0.25c0.967,0.2,1.899,0.367,2.8,0.5c0.833,0.167,1.634,0.483,2.399,0.95
	c0.434,0.2,0.884,0.4,1.351,0.6l1.2-0.2c0.3-0.2,0.434-1.117,0.399-2.75c0-1.6-0.083-2.6-0.25-3c-3.233-0.566-6.5-0.75-9.8-0.55
	c-1.033-0.033-2.033,0.017-3,0.15c-0.334,0-0.666,0.017-1,0.05c-0.6,0.667-0.883,1.583-0.85,2.75c0,0.133,0,0.284,0,0.45
	c0.033,0.733,0.066,1.483,0.1,2.25L57.625,7.975z" style="stroke: rgb(0, 0, 0);"></path>
<path fill-rule="evenodd" clip-rule="evenodd" fill="none" stroke="#383635" stroke-width="0.3" d="M76.525,17.875
	c-1.133,0.267-2.267,0.133-3.4-0.4c-0.133-0.033-0.232-0.083-0.3-0.15c-0.233-0.5-0.384-1.017-0.45-1.55
	c-0.166-1.833-0.3-3.667-0.399-5.5c-0.667,0.733-1.05,1.684-1.15,2.85c-0.033,0.3-0.033,0.6,0,0.9
	c0.034,0.167,0.067,0.35,0.101,0.55c-2.533-0.1-5.066-0.65-7.601-1.65c-0.533-0.267-1.1-0.434-1.7-0.5
	c-1.066-0.167-1.533-0.75-1.399-1.75c0.033-0.434,0.083-0.85,0.149-1.25c0.033-0.367,0.066-0.717,0.101-1.05" style="stroke: rgb(0, 0, 0);"></path>
<line fill-rule="evenodd" clip-rule="evenodd" fill="none" stroke="#383635" stroke-width="0.3" x1="57.525" y1="7.725" x2="57.525" y2="7.975" style="stroke: rgb(0, 0, 0);"></line>
<path fill-rule="evenodd" clip-rule="evenodd" fill="none" stroke="#383635" stroke-width="0.3" d="M76.325,2.625l0.351,0.3
	c0.467,2.4,0.766,4.816,0.899,7.25c0.134,2.066,0.2,4.15,0.2,6.25c0,0.9-0.416,1.383-1.25,1.45l-0.1,3.2
	c-0.234,0.733-0.634,1.133-1.2,1.2c-0.366,0.034-1.517,0.05-3.45,0.05c-1.1,0-2.434,0.017-4,0.05c-2.4,0-5.383-0.017-8.95-0.05
	c-0.2,0-0.399-0.083-0.6-0.25c-0.366-0.333-0.634-0.917-0.8-1.75c-0.167,1.233-0.434,1.85-0.801,1.85c-0.934,0.066-6,0.1-15.199,0.1
	c-0.134,0.034-0.268,0-0.4-0.1c-0.166-0.067-0.283-0.2-0.35-0.4c-0.634,0.5-1.4,0.667-2.3,0.5c-2.6,0-5.233-0.017-7.9-0.05
	c-1.633,0-3.284-0.033-4.95-0.1c-0.8,0.167-1.45-0.017-1.95-0.55c-0.033,0.233-0.283,0.4-0.75,0.5h-0.25l0.45,0.25
	c0.1,0.267,0.167,0.533,0.2,0.8c0.066,1.067,0.1,2.15,0.1,3.25c0,2.7,0,5.434,0,8.2c0,0.834,0.034,1.667,0.1,2.5
	c0.1,1.367,0,2.75-0.3,4.15c-0.1,0.467-0.367,0.617-0.8,0.45l0.55,0.5c0.033,0.2,0.05,0.417,0.05,0.649c0.067,0.9,0.1,1.801,0.1,2.7
	c0,4.5-0.033,8.967-0.1,13.4c0,0.7-0.133,1.316-0.4,1.85l-3.95,0.05c0.034,0.2,0.083,0.4,0.15,0.601
	c0.333,1.1,0.267,2.149-0.2,3.149c-0.1,0.101-0.2,0.184-0.3,0.25c-0.2,0.134-0.4,0.2-0.6,0.2c-3.633-0.033-7.317-0.216-11.05-0.55
	c-1.233,0.033-2.433-0.133-3.6-0.5l-0.6-1.3c-1.133,0-1.867-0.534-2.2-1.601c-0.033-0.366-0.05-0.75-0.05-1.149l0.95-53.85
	c0.067-0.633,0.1-1.617,0.1-2.95c0-1.267,0.033-1.933,0.1-2c0.033-0.3,0.3-0.55,0.8-0.75c0.233-0.133,0.467-0.217,0.7-0.25l5.4,0.05
	c2.733,0,4.767-0.017,6.1-0.05l60.65,0.05c0.199,0,0.383,0.066,0.55,0.2c0.466,0.333,0.75,1.033,0.85,2.1
	C76.325,2.542,76.325,2.592,76.325,2.625z" style="stroke: rgb(0, 0, 0);"></path>
<polyline fill-rule="evenodd" clip-rule="evenodd" fill="none" stroke="#383635" stroke-width="0.3" points="72.075,2.625 
	72.675,2.275 76.325,2.625 " style="stroke: rgb(0, 0, 0);"></polyline>
<polyline fill-rule="evenodd" clip-rule="evenodd" fill="none" stroke="#383635" stroke-width="0.3" points="70.725,8.575 
	71.925,8.725 71.925,8.375 " style="stroke: rgb(0, 0, 0);"></polyline>
<path fill-rule="evenodd" clip-rule="evenodd" fill="none" stroke="#383635" stroke-width="0.3" d="M71.975,10.275
	c0.1-0.133,0.2-0.267,0.3-0.4c0.166-0.3,0.334-0.6,0.5-0.9l-0.85-0.25" style="stroke: rgb(0, 0, 0);"></path>
<path fill-rule="evenodd" clip-rule="evenodd" fill="none" stroke="#383635" stroke-width="0.3" d="M42.775,1.925
	c4.633-0.067,9.217,0.066,13.75,0.4c0.133,0.033,0.267,0.066,0.4,0.1l0.35,3.05l-0.2,2.7c-1.433,0.433-2.95,0.566-4.55,0.4
	c-2.066-0.067-4.15-0.083-6.25-0.05c-1.834,0-3.633-0.233-5.4-0.7l0.25-5.25C41.492,2.142,42.042,1.925,42.775,1.925z" style="stroke: rgb(0, 0, 0);"></path>
<path fill-rule="evenodd" clip-rule="evenodd" fill="none" stroke="#383635" stroke-width="0.3" d="M24.125,5.525l0.05,2.3
	c1.833,0.467,3.75,0.7,5.75,0.7c2,0.034,4.033,0.05,6.1,0.05c1.233,0,2.45-0.033,3.65-0.1c0.5,0.033,0.766-0.183,0.8-0.65
	c0.2-0.934,0.283-1.867,0.25-2.8c-0.034-0.7-0.116-1.4-0.25-2.1c-0.034-0.133-0.067-0.267-0.101-0.4c-0.633-0.233-1.3-0.35-2-0.35
	c-2.633-0.067-5.267-0.167-7.9-0.3c-1.967-0.167-3.917-0.05-5.85,0.35l-0.5,3.05C24.125,5.408,24.125,5.492,24.125,5.525z" style="stroke: rgb(0, 0, 0);"></path>
<line fill-rule="evenodd" clip-rule="evenodd" fill="none" stroke="#383635" stroke-width="0.3" x1="57.425" y1="20.325" x2="57.525" y2="7.975" style="stroke: rgb(0, 0, 0);"></line>
<line fill-rule="evenodd" clip-rule="evenodd" fill="none" stroke="#383635" stroke-width="0.3" x1="40.475" y1="7.825" x2="40.675" y2="21.775" style="stroke: rgb(0, 0, 0);"></line>
<path fill-rule="evenodd" clip-rule="evenodd" fill="none" stroke="#383635" stroke-width="0.3" d="M24.075,5.525
	c0-0.1,0-0.183,0-0.25l-0.3-2.65l-14.05-0.4c-0.633,0.367-0.917,1.017-0.85,1.95c0.033,0.4,0.05,0.8,0.05,1.2
	c0.033,0.934,0.033,1.8,0,2.6l1.7,0.3c1.533-1.033,3.2-1.767,5-2.2c0.533,0,1.033-0.117,1.5-0.35c0.3-0.167,0.533-0.283,0.7-0.35
	c0.267-0.033,0.55-0.066,0.85-0.1c-0.267,0.767-0.316,1.5-0.15,2.2c0.067,0.367,0.15,0.75,0.25,1.15l4.85-0.25L24.075,5.525z" style="stroke: rgb(0, 0, 0);"></path>
<path fill-rule="evenodd" clip-rule="evenodd" fill="none" stroke="#383635" stroke-width="0.3" d="M18.775,8.625l1.7,2.05
	c-1.167,0.867-2.467,1.55-3.9,2.05c-1.066,0.433-2.117,0.867-3.15,1.3c-0.566,0.2-1.117,0.4-1.65,0.6
	c-0.433,0.2-0.867,0.35-1.3,0.45l-1.65-2c-0.066,4.967-0.283,7.867-0.65,8.7c-0.333,0.034-0.667,0.05-1,0.05l1.05,0.25h14.35" style="stroke: rgb(0, 0, 0);"></path>
<path fill-rule="evenodd" clip-rule="evenodd" fill="none" stroke="#383635" stroke-width="0.3" d="M2.375,62.675
	c0-0.9-0.033-1.784-0.1-2.65c-0.033-0.7,0.133-1.366,0.5-2c-0.6-0.1-0.983-0.216-1.15-0.35c-0.067-0.067-0.117-0.25-0.15-0.55
	c-0.2-1.101-0.267-3.717-0.2-7.851c0.067-5.333,0.267-8.033,0.6-8.1c0.367-0.134,1.267-0.233,2.7-0.3l-2.5-0.5
	c-0.267-1.134-0.4-2.25-0.4-3.351c0.033-1.899,0.05-3.85,0.05-5.85c-0.034-3.067,0.15-6.1,0.55-9.1l2.1-0.25l-1.95-0.45
	c-0.233-1.267-0.333-2.533-0.3-3.8c0.033-3.667,0.083-7.317,0.15-10.95c0-1.1,0.15-2.283,0.45-3.55c0.966-0.133,1.966-0.217,3-0.25
	c1.066-0.167,2.066-0.05,3,0.35l0.15,5.95l1.75-0.85" style="stroke: rgb(0, 0, 0);"></path>
<polyline fill-rule="evenodd" clip-rule="evenodd" fill="none" stroke="#383635" stroke-width="0.3" points="8.825,13.075 
	6.275,10.175 8.875,9.125 " style="stroke: rgb(0, 0, 0);"></polyline>
<path fill-rule="evenodd" clip-rule="evenodd" fill="none" stroke="#383635" stroke-width="0.3" d="M8.225,22.075
	c0.066,0.367,0.117,0.717,0.15,1.05c0.167,1.1,0.233,2.184,0.2,3.25c-0.066,3.5-0.133,7.017-0.2,10.55
	c-0.033,1.333-0.233,2.634-0.6,3.899l-1.65,0.051c0.967,0.066,1.517,0.199,1.65,0.399c0.067,0,0.117,0.116,0.15,0.351l14.4,0.05" style="stroke: rgb(0, 0, 0);"></path>
<line fill-rule="evenodd" clip-rule="evenodd" fill="none" stroke="#383635" stroke-width="0.3" x1="4.375" y1="21.825" x2="7.175" y2="21.825" style="stroke: rgb(0, 0, 0);"></line>
<line fill-rule="evenodd" clip-rule="evenodd" fill="none" stroke="#383635" stroke-width="0.3" x1="23.625" y1="8.375" x2="23.575" y2="21.575" style="stroke: rgb(0, 0, 0);"></line>
<path fill-rule="evenodd" clip-rule="evenodd" fill="none" stroke="#383635" stroke-width="0.3" d="M7.925,41.625l0.1,5.949
	c1.8,0.434,3.333,0.051,4.6-1.149c0.066-0.034,0.133-0.05,0.2-0.05c0.567,0.5,0.883,1.1,0.95,1.8c0.067,0.433,0.167,0.85,0.3,1.25
	c0.434,1.333,0.767,2.75,1,4.25c0.1,0.767,0.233,1.533,0.4,2.3c0.066,0.3,0.1,0.6,0.1,0.9l-2.8,1.3c1.8-0.134,3.5,0.1,5.1,0.7
	c0.1,0.066,0.2,0.149,0.3,0.25l0.4,1.699" style="stroke: rgb(0, 0, 0);"></path>
<path fill-rule="evenodd" clip-rule="evenodd" fill="none" stroke="#383635" stroke-width="0.3" d="M8.025,47.575
	c-0.033-0.066-0.067-0.1-0.1-0.1c-0.3-0.133-0.583-0.15-0.85-0.05c-0.066-0.034-0.117,0.017-0.15,0.149
	c0.434,0.9,0.667,1.75,0.7,2.551c0.033,0.967,0.133,1.883,0.3,2.75l1.5,5.149l0.5,1.8l2.85-1.649" style="stroke: rgb(0, 0, 0);"></path>
<line fill-rule="evenodd" clip-rule="evenodd" fill="none" stroke="#383635" stroke-width="0.3" x1="6.125" y1="40.875" x2="4.575" y2="40.875" style="stroke: rgb(0, 0, 0);"></line>
<polyline fill-rule="evenodd" clip-rule="evenodd" fill="none" stroke="#383635" stroke-width="0.3" points="7.925,52.875 
	7.375,58.025 9.425,58.025 " style="stroke: rgb(0, 0, 0);"></polyline>
<line fill-rule="evenodd" clip-rule="evenodd" fill="none" stroke="#383635" stroke-width="0.3" x1="7.375" y1="58.025" x2="2.775" y2="58.025" style="stroke: rgb(0, 0, 0);"></line>
</svg>