<svg version="1.1" id="Layer_1" xmlns="http://www.w3.org/2000/svg" xmlns:xlink="http://www.w3.org/1999/xlink" x="0px" y="0px" width="58.378px" height="58.378px" viewBox="0 0 58.378 58.378" enable-background="new 0 0 58.378 58.378" xml:space="preserve" class="ng-scope">
<path fill-rule="evenodd" clip-rule="evenodd" fill="#FFFFFF" d="M34.389,8.289c-1.633-0.367-3.333-0.55-5.1-0.55
	c-0.533,0-1.1,0-1.7,0c-1.033,0.1-2.05,0.267-3.05,0.5c-0.433,0.066-0.85,0.167-1.25,0.3c0.4-0.133,0.817-0.233,1.25-0.3
	c1-0.233,2.017-0.4,3.05-0.5c0.6,0,1.167,0,1.7,0C31.056,7.739,32.756,7.922,34.389,8.289c0.5,0.133,1.017,0.283,1.55,0.45
	c1.367,0.4,2.667,0.95,3.9,1.65l4.8-4.55c0.267-0.2,0.517-0.283,0.75-0.25c3.7,1.833,6.316,4.383,7.85,7.65
	c0.066,0.066,0.117,0.15,0.15,0.25c0.1,0.3,0.083,0.583-0.05,0.85l-4.75,5.15c0.6,1.166,1.083,2.399,1.45,3.7l6.65,0.199
	c0.266,0.101,0.467,0.301,0.6,0.601c0.066,0.1,0.1,0.184,0.1,0.25c1.2,3.399,1.15,7.066-0.149,11c-0.134,0.2-0.384,0.316-0.75,0.35
	l-6.65,0.2c-0.333,1.066-0.75,2.1-1.25,3.1l4.8,5.2c0.133,0.267,0.15,0.55,0.05,0.851c-0.033,0.1-0.083,0.183-0.15,0.25
	c-1.533,3.267-4.15,5.816-7.85,7.649c-0.233,0.033-0.483-0.05-0.75-0.25l-4.8-4.5c-1.267,0.7-2.583,1.267-3.95,1.7l-0.25,6.9
	c-0.1,0.267-0.3,0.466-0.6,0.6c-0.1,0.066-0.183,0.1-0.25,0.1c-3.4,1.2-7.066,1.15-11-0.149c-0.2-0.134-0.316-0.384-0.35-0.75
	l-0.2-6.55c-1.267-0.367-2.483-0.834-3.65-1.4l-5.15,4.75c-0.267,0.134-0.55,0.15-0.85,0.05c-0.1-0.033-0.184-0.083-0.25-0.149
	c-3.267-1.534-5.817-4.15-7.65-7.851c-0.034-0.233,0.05-0.483,0.25-0.75l4.55-4.85c-0.733-1.267-1.317-2.566-1.75-3.9l-6.9-0.25
	c-0.367-0.033-0.617-0.149-0.75-0.35c-1.3-3.934-1.35-7.601-0.15-11c0-0.066,0.033-0.15,0.1-0.25c0.133-0.3,0.333-0.5,0.6-0.601
	l6.95-0.25c0.4-1.399,0.967-2.75,1.7-4.05l-4.6-4.95c-0.2-0.267-0.284-0.517-0.25-0.75c1.833-3.7,4.383-6.317,7.65-7.85
	c0.066-0.067,0.15-0.117,0.25-0.15c0.3-0.1,0.583-0.083,0.85,0.05l5.05,4.65c1.267-0.667,2.6-1.183,4-1.55l0.2-6.65
	c0.033-0.367,0.15-0.617,0.35-0.75c3.934-1.3,7.6-1.35,11-0.15c0.067,0,0.15,0.033,0.25,0.1c0.3,0.133,0.5,0.333,0.6,0.6l0.25,7.05
	C35.406,8.572,34.889,8.422,34.389,8.289c0-1.2,0.066-2.417,0.2-3.65c0.034-0.3,0.067-0.6,0.1-0.9c0.333-0.534,0.25-1.034-0.25-1.5
	l-0.05-0.05c-3.033-1.066-6.2-1.117-9.5-0.15c-0.667,0.333-0.85,0.9-0.55,1.7c0.034,0.3,0.05,0.6,0.05,0.9
	c0.066,1.2,0.117,2.4,0.15,3.6c-0.033-1.2-0.083-2.4-0.15-3.6c0-0.3-0.017-0.6-0.05-0.9c-0.3-0.8-0.117-1.367,0.55-1.7
	c3.3-0.967,6.467-0.917,9.5,0.15l0.05,0.05c0.5,0.466,0.583,0.966,0.25,1.5c-0.033,0.3-0.066,0.6-0.1,0.9
	C34.456,5.873,34.389,7.089,34.389,8.289z"></path>
<path fill-rule="evenodd" clip-rule="evenodd" fill="#FFFFFF" d="M48.589,19.489c-0.233-0.5-0.5-0.967-0.8-1.4
	c-0.9-1.466-2-2.85-3.3-4.15c-1.1-1.1-2.284-2.066-3.55-2.9c-0.367-0.233-0.733-0.45-1.1-0.65c0.367,0.2,0.733,0.417,1.1,0.65
	c1.267,0.833,2.45,1.8,3.55,2.9c1.3,1.3,2.4,2.684,3.3,4.15C48.089,18.522,48.356,18.989,48.589,19.489z"></path>
<path fill-rule="evenodd" clip-rule="evenodd" fill="#FFFFFF" d="M19.289,10.089c-0.467,0.267-0.917,0.55-1.35,0.85
	c-1.3,0.867-2.55,1.867-3.75,3c-1.233,1.267-2.283,2.6-3.15,4c-0.267,0.366-0.5,0.75-0.7,1.149c0.2-0.399,0.434-0.783,0.7-1.149
	c0.867-1.4,1.917-2.734,3.15-4c1.2-1.133,2.45-2.133,3.75-3C18.373,10.639,18.822,10.356,19.289,10.089z"></path>
<path fill-rule="evenodd" clip-rule="evenodd" fill="#FFFFFF" d="M24.889,2.039c2.467,1.033,4.617,1.383,6.45,1.05
	c1.8-0.466,2.817-0.75,3.05-0.85v-0.05v0.05c-0.233,0.1-1.25,0.383-3.05,0.85C29.506,3.422,27.356,3.072,24.889,2.039z"></path>
<path fill-rule="evenodd" clip-rule="evenodd" fill="#FFFFFF" d="M34.589,4.639c-3.367-1.5-6.767-1.5-10.2,0
	C27.822,3.139,31.222,3.139,34.589,4.639z"></path>
<path fill-rule="evenodd" clip-rule="evenodd" fill="#FFFFFF" d="M11.039,17.939c-0.9-0.867-1.8-1.7-2.7-2.5
	c-0.2-0.2-0.417-0.383-0.65-0.55c-0.767-0.367-1.033-0.9-0.8-1.6c1.633-3.033,3.9-5.233,6.8-6.6c0.7-0.033,1.133,0.267,1.3,0.9
	c0.2,0.2,0.383,0.417,0.55,0.65c0.767,0.966,1.567,1.867,2.4,2.7c-0.833-0.833-1.633-1.733-2.4-2.7
	c-0.167-0.233-0.35-0.45-0.55-0.65c-0.167-0.633-0.6-0.933-1.3-0.9c-2.9,1.367-5.167,3.567-6.8,6.6c-0.233,0.7,0.033,1.233,0.8,1.6
	c0.233,0.167,0.45,0.35,0.65,0.55C9.239,16.239,10.139,17.072,11.039,17.939z"></path>
<path fill-rule="evenodd" clip-rule="evenodd" fill="#FFFFFF" d="M8.439,34.539c-1.267,0-2.533,0.05-3.8,0.15
	c-0.3,0-0.6,0.017-0.9,0.05c-0.8,0.3-1.367,0.116-1.7-0.55c-0.967-3.301-0.917-6.467,0.15-9.5h0.05
	c0.433-0.534,0.933-0.634,1.5-0.301c0.3,0.034,0.6,0.067,0.9,0.101c1.233,0.133,2.433,0.217,3.6,0.25
	c0.1-0.533,0.233-1.066,0.4-1.601c-0.167,0.534-0.3,1.067-0.4,1.601c-1.167-0.033-2.367-0.117-3.6-0.25
	c-0.3-0.033-0.6-0.066-0.9-0.101c-0.567-0.333-1.067-0.233-1.5,0.301h-0.05c-1.066,3.033-1.117,6.199-0.15,9.5
	c0.333,0.666,0.9,0.85,1.7,0.55c0.3-0.033,0.6-0.05,0.9-0.05C5.906,34.589,7.172,34.539,8.439,34.539z"></path>
<path fill-rule="evenodd" clip-rule="evenodd" fill="#FFFFFF" d="M8.239,24.739c-0.267,1.233-0.434,2.517-0.5,3.85v1.3
	c0.066,1.601,0.3,3.15,0.7,4.65c0.1,0.434,0.217,0.866,0.35,1.3c-0.133-0.434-0.25-0.866-0.35-1.3c-0.4-1.5-0.633-3.05-0.7-4.65
	v-1.3C7.806,27.256,7.972,25.973,8.239,24.739z"></path>
<path fill-rule="evenodd" clip-rule="evenodd" fill="#FFFFFF" d="M2.039,34.189c1.033-2.467,1.383-4.617,1.05-6.45
	c-0.466-1.8-0.75-2.816-0.85-3.05c0.1,0.233,0.383,1.25,0.85,3.05C3.422,29.572,3.072,31.723,2.039,34.189z"></path>
<path fill-rule="evenodd" clip-rule="evenodd" fill="#FFFFFF" d="M8.339,15.439c1.367-3.433,3.767-5.833,7.2-7.2
	C12.106,9.606,9.706,12.006,8.339,15.439z"></path>
<path fill-rule="evenodd" clip-rule="evenodd" fill="#FFFFFF" d="M6.889,13.289c2.467-1,4.217-2.283,5.25-3.85
	c0.967-1.566,1.483-2.483,1.55-2.75c-0.066,0.267-0.583,1.184-1.55,2.75C11.106,11.006,9.356,12.289,6.889,13.289z"></path>
<path fill-rule="evenodd" clip-rule="evenodd" fill="#FFFFFF" d="M10.539,39.739c0.2,0.366,0.433,0.75,0.7,1.149
	c0.833,1.267,1.816,2.483,2.95,3.65c1.267,1.267,2.617,2.333,4.05,3.2c0.466,0.267,0.933,0.533,1.4,0.8
	c-0.467-0.267-0.934-0.533-1.4-0.8c-1.434-0.867-2.784-1.934-4.05-3.2c-1.133-1.167-2.117-2.384-2.95-3.65
	C10.972,40.489,10.739,40.105,10.539,39.739z"></path>
<path fill-rule="evenodd" clip-rule="evenodd" fill="#FFFFFF" d="M7.939,43.839c-0.767,0.367-1.033,0.9-0.8,1.601
	c2.467,1,4.217,2.283,5.25,3.85c0.967,1.566,1.483,2.483,1.55,2.75c0.7,0.033,1.133-0.267,1.3-0.9c0.2-0.199,0.383-0.416,0.55-0.649
	c-3.433-1.367-5.833-3.767-7.2-7.2C8.389,43.489,8.172,43.673,7.939,43.839c0.233-0.166,0.45-0.35,0.65-0.55
	c1.367,3.434,3.767,5.833,7.2,7.2c-0.167,0.233-0.35,0.45-0.55,0.649c-0.167,0.634-0.6,0.934-1.3,0.9
	c-0.066-0.267-0.583-1.184-1.55-2.75c-1.033-1.566-2.783-2.85-5.25-3.85C6.906,44.739,7.172,44.206,7.939,43.839z"></path>
<path fill-rule="evenodd" clip-rule="evenodd" fill="#FFFFFF" d="M18.239,47.739c-0.833,0.866-1.65,1.783-2.45,2.75
	C16.589,49.522,17.406,48.605,18.239,47.739z"></path>
<path fill-rule="evenodd" clip-rule="evenodd" fill="#FFFFFF" d="M13.939,52.039c-2.9-1.366-5.167-3.566-6.8-6.6
	C8.772,48.473,11.039,50.673,13.939,52.039z"></path>
<path fill-rule="evenodd" clip-rule="evenodd" fill="#FFFFFF" d="M11.239,40.889c-0.867,0.801-1.75,1.601-2.65,2.4
	C9.489,42.489,10.373,41.689,11.239,40.889z"></path>
<path fill-rule="evenodd" clip-rule="evenodd" fill="#FFFFFF" d="M34.389,50.189c0,1.166,0.066,2.35,0.2,3.55
	c0.034,0.3,0.067,0.6,0.1,0.899c0.333,0.534,0.25,1.051-0.25,1.551h-0.05c-3.033,1.066-6.2,1.116-9.5,0.149
	c-0.667-0.333-0.85-0.899-0.55-1.7c0.034-0.3,0.05-0.6,0.05-0.899c0.066-1.167,0.117-2.334,0.15-3.5
	c-0.033,1.166-0.083,2.333-0.15,3.5c0,0.3-0.017,0.6-0.05,0.899c-0.3,0.801-0.117,1.367,0.55,1.7c3.3,0.967,6.467,0.917,9.5-0.149
	h0.05c0.5-0.5,0.583-1.017,0.25-1.551c-0.033-0.3-0.066-0.6-0.1-0.899C34.456,52.539,34.389,51.355,34.389,50.189z"></path>
<path fill-rule="evenodd" clip-rule="evenodd" fill="#FFFFFF" d="M24.539,50.239c-0.433-0.101-0.85-0.2-1.25-0.3
	C23.689,50.039,24.106,50.139,24.539,50.239c1.533,0.333,3.117,0.5,4.75,0.5c1.767,0,3.467-0.184,5.1-0.55
	c0.5-0.134,1.017-0.267,1.55-0.4c-0.533,0.134-1.05,0.267-1.55,0.4c-1.633,0.366-3.333,0.55-5.1,0.55
	C27.656,50.739,26.072,50.572,24.539,50.239z"></path>
<path fill-rule="evenodd" clip-rule="evenodd" fill="#FFFFFF" d="M39.889,48.089c0.367-0.233,0.733-0.467,1.1-0.7
	c1.233-0.8,2.4-1.75,3.5-2.85c1.3-1.333,2.4-2.733,3.3-4.2c0.267-0.467,0.533-0.95,0.8-1.45c-0.267,0.5-0.533,0.983-0.8,1.45
	c-0.9,1.467-2,2.867-3.3,4.2c-1.1,1.1-2.267,2.05-3.5,2.85C40.623,47.622,40.256,47.855,39.889,48.089z"></path>
<path fill-rule="evenodd" clip-rule="evenodd" fill="#FFFFFF" d="M24.889,56.339c2.467-1.033,4.617-1.383,6.45-1.05
	c1.8,0.467,2.817,0.75,3.05,0.85v0.051v-0.051c-0.233-0.1-1.25-0.383-3.05-0.85C29.506,54.956,27.356,55.306,24.889,56.339z"></path>
<path fill-rule="evenodd" clip-rule="evenodd" fill="#FFFFFF" d="M24.389,53.739c3.433,1.5,6.833,1.5,10.2,0
	C31.222,55.239,27.822,55.239,24.389,53.739z"></path>
<path fill-rule="evenodd" clip-rule="evenodd" fill="#FFFFFF" d="M4.639,34.689c-1.5-3.434-1.5-6.834,0-10.2
	C3.139,27.855,3.139,31.256,4.639,34.689z"></path>
<path fill-rule="evenodd" clip-rule="evenodd" fill="#FFFFFF" d="M40.939,11.039c0.833-0.833,1.633-1.7,2.4-2.6
	c0.2-0.2,0.383-0.417,0.55-0.65c0.367-0.767,0.9-1.033,1.6-0.8c3.033,1.633,5.233,3.9,6.6,6.8c0.034,0.7-0.267,1.133-0.9,1.3
	c-0.2,0.2-0.417,0.383-0.65,0.55c-0.967,0.8-1.883,1.617-2.75,2.45c0.867-0.833,1.783-1.65,2.75-2.45
	c0.233-0.167,0.45-0.35,0.65-0.55c0.633-0.167,0.934-0.6,0.9-1.3c-1.367-2.9-3.566-5.167-6.6-6.8c-0.7-0.233-1.233,0.033-1.6,0.8
	c-0.167,0.233-0.35,0.45-0.55,0.65C42.572,9.339,41.772,10.206,40.939,11.039z"></path>
<path fill-rule="evenodd" clip-rule="evenodd" fill="#FFFFFF" d="M50.539,15.639c-1.367-3.434-3.767-5.833-7.2-7.2
	C46.772,9.806,49.172,12.206,50.539,15.639z"></path>
<path fill-rule="evenodd" clip-rule="evenodd" fill="#FFFFFF" d="M49.839,35.789c0.133-0.4,0.25-0.816,0.35-1.25
	c0.434-1.733,0.65-3.533,0.65-5.4c0-1.533-0.133-3-0.4-4.399c-0.133-0.533-0.267-1.05-0.4-1.55c0.133,0.5,0.267,1.017,0.4,1.55
	c0.267,1.399,0.4,2.866,0.4,4.399c0,1.867-0.216,3.667-0.65,5.4C50.089,34.973,49.972,35.389,49.839,35.789z"></path>
<path fill-rule="evenodd" clip-rule="evenodd" fill="#FFFFFF" d="M56.139,24.689h0.051c-0.467-0.534-0.984-0.634-1.55-0.301
	c-0.3,0.034-0.6,0.067-0.9,0.101c1.5,3.366,1.5,6.767,0,10.2c0.3,0,0.6,0.017,0.9,0.05c0.8,0.3,1.367,0.116,1.7-0.55
	c-1.033-2.467-1.383-4.617-1.05-6.45C55.756,25.939,56.039,24.923,56.139,24.689c-0.1,0.233-0.383,1.25-0.85,3.05
	c-0.333,1.833,0.017,3.983,1.05,6.45c-0.333,0.666-0.9,0.85-1.7,0.55c-0.3-0.033-0.6-0.05-0.9-0.05c1.5-3.434,1.5-6.834,0-10.2
	c0.3-0.033,0.6-0.066,0.9-0.101c0.566-0.333,1.083-0.233,1.55,0.301H56.139z"></path>
<path fill-rule="evenodd" clip-rule="evenodd" fill="#FFFFFF" d="M45.489,6.989c1,2.466,2.283,4.216,3.85,5.25
	c1.567,0.966,2.483,1.483,2.75,1.55c-0.267-0.067-1.183-0.583-2.75-1.55C47.772,11.206,46.489,9.456,45.489,6.989z"></path>
<path fill-rule="evenodd" clip-rule="evenodd" fill="#FFFFFF" d="M50.439,24.739c1.067-0.033,2.167-0.117,3.3-0.25
	C52.606,24.622,51.506,24.706,50.439,24.739z"></path>
<path fill-rule="evenodd" clip-rule="evenodd" fill="#FFFFFF" d="M47.789,40.339c0.867,0.834,1.8,1.65,2.8,2.45
	c0.233,0.167,0.45,0.35,0.65,0.55c0.633,0.167,0.933,0.601,0.9,1.3c-1.367,2.9-3.567,5.167-6.6,6.801
	c-0.7,0.233-1.233-0.034-1.6-0.801c-0.167-0.233-0.35-0.449-0.55-0.649c-0.767-0.9-1.567-1.767-2.4-2.601
	c0.833,0.834,1.633,1.7,2.4,2.601c0.2,0.2,0.383,0.416,0.55,0.649c0.367,0.767,0.9,1.034,1.6,0.801c3.033-1.634,5.233-3.9,6.6-6.801
	c0.033-0.699-0.267-1.133-0.9-1.3c-0.2-0.2-0.417-0.383-0.65-0.55C49.589,41.989,48.656,41.173,47.789,40.339z"></path>
<path fill-rule="evenodd" clip-rule="evenodd" fill="#FFFFFF" d="M52.139,44.639c-0.267,0.067-1.184,0.584-2.75,1.551
	c-1.567,1.033-2.85,2.783-3.85,5.25c1-2.467,2.283-4.217,3.85-5.25C50.956,45.223,51.873,44.706,52.139,44.639z"></path>
<path fill-rule="evenodd" clip-rule="evenodd" fill="#FFFFFF" d="M53.739,34.689c-1.167-0.067-2.35-0.117-3.55-0.15
	C51.389,34.572,52.572,34.622,53.739,34.689z"></path>
<path fill-rule="evenodd" clip-rule="evenodd" fill="#FFFFFF" d="M43.389,49.989c3.433-1.367,5.833-3.767,7.2-7.2
	C49.222,46.223,46.822,48.622,43.389,49.989z"></path>
<path fill-rule="evenodd" clip-rule="evenodd" fill="#FFFFFF" d="M56.189,24.689c1.066,3.033,1.116,6.199,0.149,9.5
	C57.306,30.889,57.256,27.723,56.189,24.689z"></path>
<path fill-rule="evenodd" clip-rule="evenodd" fill="none" stroke="#383635" stroke-width="0.3" stroke-linecap="round" stroke-linejoin="round" stroke-miterlimit="3" d="
	M39.839,10.389l4.8-4.55c0.267-0.2,0.517-0.283,0.75-0.25c3.7,1.833,6.316,4.383,7.85,7.65c0.066,0.066,0.117,0.15,0.15,0.25
	c0.1,0.3,0.083,0.583-0.05,0.85l-4.75,5.15" style="stroke: rgb(0, 0, 0);"></path>
<path fill-rule="evenodd" clip-rule="evenodd" fill="none" stroke="#383635" stroke-width="0.3" stroke-linecap="round" stroke-linejoin="round" stroke-miterlimit="3" d="
	M50.039,23.189l6.65,0.199c0.266,0.101,0.467,0.301,0.6,0.601c0.066,0.1,0.1,0.184,0.1,0.25c1.2,3.399,1.15,7.066-0.149,11
	c-0.134,0.2-0.384,0.316-0.75,0.35l-6.65,0.2" style="stroke: rgb(0, 0, 0);"></path>
<path fill-rule="evenodd" clip-rule="evenodd" fill="none" stroke="#383635" stroke-width="0.3" stroke-linecap="round" stroke-linejoin="round" stroke-miterlimit="3" d="
	M48.589,38.889l4.8,5.2c0.133,0.267,0.15,0.55,0.05,0.851c-0.033,0.1-0.083,0.183-0.15,0.25c-1.533,3.267-4.15,5.816-7.85,7.649
	c-0.233,0.033-0.483-0.05-0.75-0.25l-4.8-4.5" style="stroke: rgb(0, 0, 0);"></path>
<path fill-rule="evenodd" clip-rule="evenodd" fill="none" stroke="#383635" stroke-width="0.3" stroke-linecap="round" stroke-linejoin="round" stroke-miterlimit="3" d="
	M35.939,49.789l-0.25,6.9c-0.1,0.267-0.3,0.466-0.6,0.6c-0.1,0.066-0.183,0.1-0.25,0.1c-3.4,1.2-7.066,1.15-11-0.149
	c-0.2-0.134-0.316-0.384-0.35-0.75l-0.2-6.55" style="stroke: rgb(0, 0, 0);"></path>
<path fill-rule="evenodd" clip-rule="evenodd" fill="none" stroke="#383635" stroke-width="0.3" stroke-linecap="round" stroke-linejoin="round" stroke-miterlimit="3" d="
	M19.639,48.539l-5.15,4.75c-0.267,0.134-0.55,0.15-0.85,0.05c-0.1-0.033-0.184-0.083-0.25-0.149c-3.267-1.534-5.817-4.15-7.65-7.851
	c-0.034-0.233,0.05-0.483,0.25-0.75l4.55-4.85" style="stroke: rgb(0, 0, 0);"></path>
<path fill-rule="evenodd" clip-rule="evenodd" fill="none" stroke="#383635" stroke-width="0.3" stroke-linecap="round" stroke-linejoin="round" stroke-miterlimit="3" d="
	M8.789,35.839l-6.9-0.25c-0.367-0.033-0.617-0.149-0.75-0.35c-1.3-3.934-1.35-7.601-0.15-11c0-0.066,0.033-0.15,0.1-0.25
	c0.133-0.3,0.333-0.5,0.6-0.601l6.95-0.25" style="stroke: rgb(0, 0, 0);"></path>
<path fill-rule="evenodd" clip-rule="evenodd" fill="none" stroke="#383635" stroke-width="0.3" stroke-linecap="round" stroke-linejoin="round" stroke-miterlimit="3" d="
	M10.339,19.089l-4.6-4.95c-0.2-0.267-0.284-0.517-0.25-0.75c1.833-3.7,4.383-6.317,7.65-7.85c0.066-0.067,0.15-0.117,0.25-0.15
	c0.3-0.1,0.583-0.083,0.85,0.05l5.05,4.65" style="stroke: rgb(0, 0, 0);"></path>
<path fill-rule="evenodd" clip-rule="evenodd" fill="none" stroke="#383635" stroke-width="0.3" stroke-linecap="round" stroke-linejoin="round" stroke-miterlimit="3" d="
	M23.289,8.539l0.2-6.65c0.033-0.367,0.15-0.617,0.35-0.75c3.934-1.3,7.6-1.35,11-0.15c0.067,0,0.15,0.033,0.25,0.1
	c0.3,0.133,0.5,0.333,0.6,0.6l0.25,7.05" style="stroke: rgb(0, 0, 0);"></path>
<path fill-rule="evenodd" clip-rule="evenodd" fill="none" stroke="#383635" stroke-width="0.3" stroke-linecap="round" stroke-linejoin="round" stroke-miterlimit="3" d="
	M24.539,8.239c-0.033-1.2-0.083-2.4-0.15-3.6c0-0.3-0.017-0.6-0.05-0.9c-0.3-0.8-0.117-1.367,0.55-1.7
	c3.3-0.967,6.467-0.917,9.5,0.15l0.05,0.05c0.5,0.466,0.583,0.966,0.25,1.5c-0.033,0.3-0.066,0.6-0.1,0.9
	c-0.133,1.233-0.2,2.45-0.2,3.65" style="stroke: rgb(0, 0, 0);"></path>
<path fill-rule="evenodd" clip-rule="evenodd" fill="none" stroke="#383635" stroke-width="0.3" stroke-linecap="round" stroke-linejoin="round" stroke-miterlimit="3" d="
	M24.889,2.039c2.467,1.033,4.617,1.383,6.45,1.05c1.8-0.466,2.817-0.75,3.05-0.85v-0.05" style="stroke: rgb(0, 0, 0);"></path>
<path fill-rule="evenodd" clip-rule="evenodd" fill="none" stroke="#383635" stroke-width="0.3" stroke-linecap="round" stroke-linejoin="round" stroke-miterlimit="3" d="
	M34.589,4.639c-3.367-1.5-6.767-1.5-10.2,0" style="stroke: rgb(0, 0, 0);"></path>
<path fill-rule="evenodd" clip-rule="evenodd" fill="none" stroke="#383635" stroke-width="0.3" stroke-linecap="round" stroke-linejoin="round" stroke-miterlimit="3" d="
	M11.039,17.939c-0.9-0.867-1.8-1.7-2.7-2.5c-0.2-0.2-0.417-0.383-0.65-0.55c-0.767-0.367-1.033-0.9-0.8-1.6
	c1.633-3.033,3.9-5.233,6.8-6.6c0.7-0.033,1.133,0.267,1.3,0.9c0.2,0.2,0.383,0.417,0.55,0.65c0.767,0.966,1.567,1.867,2.4,2.7" style="stroke: rgb(0, 0, 0);"></path>
<path fill-rule="evenodd" clip-rule="evenodd" fill="none" stroke="#383635" stroke-width="0.3" stroke-linecap="round" stroke-linejoin="round" stroke-miterlimit="3" d="
	M8.439,34.539c-1.267,0-2.533,0.05-3.8,0.15c-0.3,0-0.6,0.017-0.9,0.05c-0.8,0.3-1.367,0.116-1.7-0.55
	c-0.967-3.301-0.917-6.467,0.15-9.5h0.05c0.433-0.534,0.933-0.634,1.5-0.301c0.3,0.034,0.6,0.067,0.9,0.101
	c1.233,0.133,2.433,0.217,3.6,0.25" style="stroke: rgb(0, 0, 0);"></path>
<path fill-rule="evenodd" clip-rule="evenodd" fill="none" stroke="#383635" stroke-width="0.3" stroke-linecap="round" stroke-linejoin="round" stroke-miterlimit="3" d="
	M2.039,34.189c1.033-2.467,1.383-4.617,1.05-6.45c-0.466-1.8-0.75-2.816-0.85-3.05" style="stroke: rgb(0, 0, 0);"></path>
<path fill-rule="evenodd" clip-rule="evenodd" fill="none" stroke="#383635" stroke-width="0.3" stroke-linecap="round" stroke-linejoin="round" stroke-miterlimit="3" d="
	M8.339,15.439c1.367-3.433,3.767-5.833,7.2-7.2" style="stroke: rgb(0, 0, 0);"></path>
<path fill-rule="evenodd" clip-rule="evenodd" fill="none" stroke="#383635" stroke-width="0.3" stroke-linecap="round" stroke-linejoin="round" stroke-miterlimit="3" d="
	M6.889,13.289c2.467-1,4.217-2.283,5.25-3.85c0.967-1.566,1.483-2.483,1.55-2.75" style="stroke: rgb(0, 0, 0);"></path>
<path fill-rule="evenodd" clip-rule="evenodd" fill="none" stroke="#383635" stroke-width="0.3" stroke-linecap="round" stroke-linejoin="round" stroke-miterlimit="3" d="
	M7.939,43.839c-0.767,0.367-1.033,0.9-0.8,1.601c2.467,1,4.217,2.283,5.25,3.85c0.967,1.566,1.483,2.483,1.55,2.75
	c0.7,0.033,1.133-0.267,1.3-0.9c0.2-0.199,0.383-0.416,0.55-0.649c-3.433-1.367-5.833-3.767-7.2-7.2
	C8.389,43.489,8.172,43.673,7.939,43.839z" style="stroke: rgb(0, 0, 0);"></path>
<path fill-rule="evenodd" clip-rule="evenodd" fill="none" stroke="#383635" stroke-width="0.3" stroke-linecap="round" stroke-linejoin="round" stroke-miterlimit="3" d="
	M18.239,47.739c-0.833,0.866-1.65,1.783-2.45,2.75" style="stroke: rgb(0, 0, 0);"></path>
<path fill-rule="evenodd" clip-rule="evenodd" fill="none" stroke="#383635" stroke-width="0.3" stroke-linecap="round" stroke-linejoin="round" stroke-miterlimit="3" d="
	M13.939,52.039c-2.9-1.366-5.167-3.566-6.8-6.6" style="stroke: rgb(0, 0, 0);"></path>
<path fill-rule="evenodd" clip-rule="evenodd" fill="none" stroke="#383635" stroke-width="0.3" stroke-linecap="round" stroke-linejoin="round" stroke-miterlimit="3" d="
	M11.239,40.889c-0.867,0.801-1.75,1.601-2.65,2.4" style="stroke: rgb(0, 0, 0);"></path>
<path fill-rule="evenodd" clip-rule="evenodd" fill="none" stroke="#383635" stroke-width="0.3" stroke-linecap="round" stroke-linejoin="round" stroke-miterlimit="3" d="
	M34.389,50.189c0,1.166,0.066,2.35,0.2,3.55c0.034,0.3,0.067,0.6,0.1,0.899c0.333,0.534,0.25,1.051-0.25,1.551h-0.05
	c-3.033,1.066-6.2,1.116-9.5,0.149c-0.667-0.333-0.85-0.899-0.55-1.7c0.034-0.3,0.05-0.6,0.05-0.899
	c0.066-1.167,0.117-2.334,0.15-3.5" style="stroke: rgb(0, 0, 0);"></path>
<path fill-rule="evenodd" clip-rule="evenodd" fill="none" stroke="#383635" stroke-width="0.3" stroke-linecap="round" stroke-linejoin="round" stroke-miterlimit="3" d="
	M24.889,56.339c2.467-1.033,4.617-1.383,6.45-1.05c1.8,0.467,2.817,0.75,3.05,0.85v0.051" style="stroke: rgb(0, 0, 0);"></path>
<path fill-rule="evenodd" clip-rule="evenodd" fill="none" stroke="#383635" stroke-width="0.3" stroke-linecap="round" stroke-linejoin="round" stroke-miterlimit="3" d="
	M24.389,53.739c3.433,1.5,6.833,1.5,10.2,0" style="stroke: rgb(0, 0, 0);"></path>
<path fill-rule="evenodd" clip-rule="evenodd" fill="none" stroke="#383635" stroke-width="0.3" stroke-linecap="round" stroke-linejoin="round" stroke-miterlimit="3" d="
	M4.639,34.689c-1.5-3.434-1.5-6.834,0-10.2" style="stroke: rgb(0, 0, 0);"></path>
<path fill-rule="evenodd" clip-rule="evenodd" fill="none" stroke="#383635" stroke-width="0.3" stroke-linecap="round" stroke-linejoin="round" stroke-miterlimit="3" d="
	M40.939,11.039c0.833-0.833,1.633-1.7,2.4-2.6c0.2-0.2,0.383-0.417,0.55-0.65c0.367-0.767,0.9-1.033,1.6-0.8
	c3.033,1.633,5.233,3.9,6.6,6.8c0.034,0.7-0.267,1.133-0.9,1.3c-0.2,0.2-0.417,0.383-0.65,0.55c-0.967,0.8-1.883,1.617-2.75,2.45" style="stroke: rgb(0, 0, 0);"></path>
<path fill-rule="evenodd" clip-rule="evenodd" fill="none" stroke="#383635" stroke-width="0.3" stroke-linecap="round" stroke-linejoin="round" stroke-miterlimit="3" d="
	M50.539,15.639c-1.367-3.434-3.767-5.833-7.2-7.2" style="stroke: rgb(0, 0, 0);"></path>
<path fill-rule="evenodd" clip-rule="evenodd" fill="none" stroke="#383635" stroke-width="0.3" stroke-linecap="round" stroke-linejoin="round" stroke-miterlimit="3" d="
	M56.139,24.689h0.051c-0.467-0.534-0.984-0.634-1.55-0.301c-0.3,0.034-0.6,0.067-0.9,0.101c1.5,3.366,1.5,6.767,0,10.2
	c0.3,0,0.6,0.017,0.9,0.05c0.8,0.3,1.367,0.116,1.7-0.55c-1.033-2.467-1.383-4.617-1.05-6.45
	C55.756,25.939,56.039,24.923,56.139,24.689z" style="stroke: rgb(0, 0, 0);"></path>
<path fill-rule="evenodd" clip-rule="evenodd" fill="none" stroke="#383635" stroke-width="0.3" stroke-linecap="round" stroke-linejoin="round" stroke-miterlimit="3" d="
	M45.489,6.989c1,2.466,2.283,4.216,3.85,5.25c1.567,0.966,2.483,1.483,2.75,1.55" style="stroke: rgb(0, 0, 0);"></path>
<path fill-rule="evenodd" clip-rule="evenodd" fill="none" stroke="#383635" stroke-width="0.3" stroke-linecap="round" stroke-linejoin="round" stroke-miterlimit="3" d="
	M50.439,24.739c1.067-0.033,2.167-0.117,3.3-0.25" style="stroke: rgb(0, 0, 0);"></path>
<path fill-rule="evenodd" clip-rule="evenodd" fill="none" stroke="#383635" stroke-width="0.3" stroke-linecap="round" stroke-linejoin="round" stroke-miterlimit="3" d="
	M47.789,40.339c0.867,0.834,1.8,1.65,2.8,2.45c0.233,0.167,0.45,0.35,0.65,0.55c0.633,0.167,0.933,0.601,0.9,1.3
	c-1.367,2.9-3.567,5.167-6.6,6.801c-0.7,0.233-1.233-0.034-1.6-0.801c-0.167-0.233-0.35-0.449-0.55-0.649
	c-0.767-0.9-1.567-1.767-2.4-2.601" style="stroke: rgb(0, 0, 0);"></path>
<path fill-rule="evenodd" clip-rule="evenodd" fill="none" stroke="#383635" stroke-width="0.3" stroke-linecap="round" stroke-linejoin="round" stroke-miterlimit="3" d="
	M52.139,44.639c-0.267,0.067-1.184,0.584-2.75,1.551c-1.567,1.033-2.85,2.783-3.85,5.25" style="stroke: rgb(0, 0, 0);"></path>
<path fill-rule="evenodd" clip-rule="evenodd" fill="none" stroke="#383635" stroke-width="0.3" stroke-linecap="round" stroke-linejoin="round" stroke-miterlimit="3" d="
	M53.739,34.689c-1.167-0.067-2.35-0.117-3.55-0.15" style="stroke: rgb(0, 0, 0);"></path>
<path fill-rule="evenodd" clip-rule="evenodd" fill="none" stroke="#383635" stroke-width="0.3" stroke-linecap="round" stroke-linejoin="round" stroke-miterlimit="3" d="
	M43.389,49.989c3.433-1.367,5.833-3.767,7.2-7.2" style="stroke: rgb(0, 0, 0);"></path>
<path fill-rule="evenodd" clip-rule="evenodd" fill="none" stroke="#383635" stroke-width="0.3" stroke-linecap="round" stroke-linejoin="round" stroke-miterlimit="3" d="
	M56.189,24.689c1.066,3.033,1.116,6.199,0.149,9.5" style="stroke: rgb(0, 0, 0);"></path>
<path fill-rule="evenodd" clip-rule="evenodd" fill="none" stroke="#383635" stroke-width="0.3" d="M48.589,19.489
	c0.6,1.166,1.083,2.399,1.45,3.7" style="stroke: rgb(0, 0, 0);"></path>
<path fill-rule="evenodd" clip-rule="evenodd" fill="none" stroke="#383635" stroke-width="0.3" d="M49.839,35.789
	c-0.333,1.066-0.75,2.1-1.25,3.1" style="stroke: rgb(0, 0, 0);"></path>
<path fill-rule="evenodd" clip-rule="evenodd" fill="none" stroke="#383635" stroke-width="0.3" d="M39.889,48.089
	c-1.267,0.7-2.583,1.267-3.95,1.7" style="stroke: rgb(0, 0, 0);"></path>
<path fill-rule="evenodd" clip-rule="evenodd" fill="none" stroke="#383635" stroke-width="0.3" d="M23.289,49.939
	c-1.267-0.367-2.483-0.834-3.65-1.4" style="stroke: rgb(0, 0, 0);"></path>
<path fill-rule="evenodd" clip-rule="evenodd" fill="none" stroke="#383635" stroke-width="0.3" d="M10.539,39.739
	c-0.733-1.267-1.317-2.566-1.75-3.9" style="stroke: rgb(0, 0, 0);"></path>
<path fill-rule="evenodd" clip-rule="evenodd" fill="none" stroke="#383635" stroke-width="0.3" d="M8.639,23.139
	c0.4-1.399,0.967-2.75,1.7-4.05" style="stroke: rgb(0, 0, 0);"></path>
<path fill-rule="evenodd" clip-rule="evenodd" fill="none" stroke="#383635" stroke-width="0.3" d="M19.289,10.089
	c1.267-0.667,2.6-1.183,4-1.55" style="stroke: rgb(0, 0, 0);"></path>
<path fill-rule="evenodd" clip-rule="evenodd" fill="none" stroke="#383635" stroke-width="0.3" d="M35.939,8.739
	c1.367,0.4,2.667,0.95,3.9,1.65" style="stroke: rgb(0, 0, 0);"></path>
<path fill-rule="evenodd" clip-rule="evenodd" fill="none" stroke="#383635" stroke-width="0.3" d="M34.389,8.289
	c0.5,0.133,1.017,0.283,1.55,0.45" style="stroke: rgb(0, 0, 0);"></path>
<path fill-rule="evenodd" clip-rule="evenodd" fill="none" stroke="#383635" stroke-width="0.3" d="M34.389,8.289
	c-1.633-0.367-3.333-0.55-5.1-0.55c-0.533,0-1.1,0-1.7,0c-1.033,0.1-2.05,0.267-3.05,0.5c-0.433,0.066-0.85,0.167-1.25,0.3" style="stroke: rgb(0, 0, 0);"></path>
<path fill-rule="evenodd" clip-rule="evenodd" fill="none" stroke="#383635" stroke-width="0.3" d="M48.589,19.489
	c-0.233-0.5-0.5-0.967-0.8-1.4c-0.9-1.466-2-2.85-3.3-4.15c-1.1-1.1-2.284-2.066-3.55-2.9c-0.367-0.233-0.733-0.45-1.1-0.65" style="stroke: rgb(0, 0, 0);"></path>
<path fill-rule="evenodd" clip-rule="evenodd" fill="none" stroke="#383635" stroke-width="0.3" d="M19.289,10.089
	c-0.467,0.267-0.917,0.55-1.35,0.85c-1.3,0.867-2.55,1.867-3.75,3c-1.233,1.267-2.283,2.6-3.15,4c-0.267,0.366-0.5,0.75-0.7,1.149" style="stroke: rgb(0, 0, 0);"></path>
<path fill-rule="evenodd" clip-rule="evenodd" fill="none" stroke="#383635" stroke-width="0.3" d="M8.239,24.739
	c0.1-0.533,0.233-1.066,0.4-1.601" style="stroke: rgb(0, 0, 0);"></path>
<path fill-rule="evenodd" clip-rule="evenodd" fill="none" stroke="#383635" stroke-width="0.3" d="M8.239,24.739
	c-0.267,1.233-0.434,2.517-0.5,3.85v1.3c0.066,1.601,0.3,3.15,0.7,4.65c0.1,0.434,0.217,0.866,0.35,1.3" style="stroke: rgb(0, 0, 0);"></path>
<path fill-rule="evenodd" clip-rule="evenodd" fill="none" stroke="#383635" stroke-width="0.3" d="M10.539,39.739
	c0.2,0.366,0.433,0.75,0.7,1.149c0.833,1.267,1.816,2.483,2.95,3.65c1.267,1.267,2.617,2.333,4.05,3.2
	c0.466,0.267,0.933,0.533,1.4,0.8" style="stroke: rgb(0, 0, 0);"></path>
<path fill-rule="evenodd" clip-rule="evenodd" fill="none" stroke="#383635" stroke-width="0.3" d="M24.539,50.239
	c-0.433-0.101-0.85-0.2-1.25-0.3" style="stroke: rgb(0, 0, 0);"></path>
<path fill-rule="evenodd" clip-rule="evenodd" fill="none" stroke="#383635" stroke-width="0.3" d="M24.539,50.239
	c1.533,0.333,3.117,0.5,4.75,0.5c1.767,0,3.467-0.184,5.1-0.55c0.5-0.134,1.017-0.267,1.55-0.4" style="stroke: rgb(0, 0, 0);"></path>
<path fill-rule="evenodd" clip-rule="evenodd" fill="none" stroke="#383635" stroke-width="0.3" d="M39.889,48.089
	c0.367-0.233,0.733-0.467,1.1-0.7c1.233-0.8,2.4-1.75,3.5-2.85c1.3-1.333,2.4-2.733,3.3-4.2c0.267-0.467,0.533-0.95,0.8-1.45" style="stroke: rgb(0, 0, 0);"></path>
<path fill-rule="evenodd" clip-rule="evenodd" fill="none" stroke="#383635" stroke-width="0.3" d="M49.839,35.789
	c0.133-0.4,0.25-0.816,0.35-1.25c0.434-1.733,0.65-3.533,0.65-5.4c0-1.533-0.133-3-0.4-4.399c-0.133-0.533-0.267-1.05-0.4-1.55" style="stroke: rgb(0, 0, 0);"></path>
</svg>