<svg version="1.1" id="Layer_1" xmlns="http://www.w3.org/2000/svg" xmlns:xlink="http://www.w3.org/1999/xlink" x="0px" y="0px" width="28.83px" height="28.83px" viewBox="0 2.15 28.83 28.83" enable-background="new 0 2.15 28.83 28.83" xml:space="preserve">
	<rect x="10.97" y="8.14" fill="#FFFFFF" stroke-miterlimit="10" width="6" height="16.31"></rect>
	<path fill="#000000" stroke="#000000" stroke-miterlimit="10" d="M15.4,20.63c0.34,0.34,0.52,0.71,0.52,1.2s-0.19,0.9-0.52,1.24
		c-0.34,0.34-0.71,0.49-1.2,0.49s-0.86-0.15-1.2-0.49s-0.52-0.75-0.52-1.24s0.19-0.86,0.52-1.2c0.34-0.34,0.71-0.49,1.2-0.49
		C14.69,20.15,15.06,20.3,15.4,20.63 M12.44,9.57h3.45v9.6h-3.45V9.57z M10,7.32l-6.15,6.04v6.71v0.08v0.07l6.45,5.81l0,0h0.23l0,0
		h0.15h7.88h0.11l0,0l6.23-6l0,0v-6.71l-6.6-6C18.3,7.32,10,7.32,10,7.32z"></path>
	<path fill="#FFFFFF" d="M15.4,20.63c0.34,0.34,0.52,0.71,0.52,1.2s-0.19,0.9-0.52,1.24c-0.34,0.34-0.71,0.49-1.2,0.49
		s-0.86-0.15-1.2-0.49s-0.52-0.75-0.52-1.24s0.19-0.86,0.52-1.2c0.34-0.34,0.71-0.49,1.2-0.49C14.69,20.15,15.06,20.3,15.4,20.63
		 M12.44,9.57h3.45v9.6h-3.45V9.57z M10,7.32l-6.15,6.04v6.71v0.08v0.07l6.45,5.81l0,0h0.23l0,0h0.15h7.88h0.11l0,0l6.23-6l0,0
		v-6.71l-6.6-6C18.3,7.32,10,7.32,10,7.32z"></path>
</svg>