<svg version="1.1" id="Layer_1" xmlns="http://www.w3.org/2000/svg" xmlns:xlink="http://www.w3.org/1999/xlink" x="0px" y="0px" width="28.4px" height="11.8px" viewBox="0 0 28.4 11.8" enable-background="new 0 0 28.4 11.8" xml:space="preserve" class="ng-scope">
<path fill-rule="evenodd" clip-rule="evenodd" fill="#FFFFFF" d="M28.27,4.13v6.4h-16.1v0.6H8.52c0,0.17-0.13,0.3-0.4,0.4
	c-0.17,0.1-0.4,0.15-0.7,0.15c-0.3,0-0.57-0.05-0.8-0.15c-0.13-0.1-0.2-0.23-0.2-0.4H3.18v-0.6H0.13v-6.4h1.05V1.28h26v2.85H28.27
	h-1.1V1.28h-26v2.85H0.13v-4h28.15V4.13z M6.43,11.13h2.1H6.43z M12.18,10.53h-9H12.18z"></path>
<path fill-rule="evenodd" clip-rule="evenodd" fill="none" stroke="#373535" stroke-width="0.3" stroke-linecap="round" stroke-linejoin="round" stroke-miterlimit="3" d="
	M0.13,4.13h1.05V1.28h26v2.85h1.1v-4H0.13V4.13z M28.27,4.13v6.4h-16.1v0.6H8.52c0,0.17-0.13,0.3-0.4,0.4
	c-0.17,0.1-0.4,0.15-0.7,0.15c-0.3,0-0.57-0.05-0.8-0.15c-0.13-0.1-0.2-0.23-0.2-0.4H3.18v-0.6H0.13v-6.4 M6.43,11.13h2.1
	 M12.18,10.53h-9" style="stroke: rgb(0, 0, 0);"></path>
</svg>