<svg version="1.1" id="Layer_1" xmlns="http://www.w3.org/2000/svg" xmlns:xlink="http://www.w3.org/1999/xlink" x="0px" y="0px" width="19.571px" height="65.1px" viewBox="0 0 19.571 65.1" enable-background="new 0 0 19.571 65.1" xml:space="preserve" class="ng-scope">
<path fill-rule="evenodd" clip-rule="evenodd" fill="#FFFFFF" d="M7.946,11.325v1.4v9.2v1.5v-1.5v-9.2V11.325v-11.2h11.5v64.85
	h-11.5v-11.05c-1.366,0.199-2.433,0.199-3.199,0c-1.7-0.434-2.983-1.65-3.851-3.65c-0.633-2.6,0.233-4.75,2.601-6.45
	c0.767-0.533,1.633-1.017,2.6-1.45l1.15-0.399c0.233-0.101,0.466-0.184,0.699-0.25v-18.3c-3.233-0.9-5.333-1.816-6.3-2.75
	c-1.233-1.233-1.717-2.917-1.45-5.05c0.733-2.567,2.551-4,5.45-4.3C6.38,11.258,7.146,11.258,7.946,11.325z"></path>
<path fill-rule="evenodd" clip-rule="evenodd" fill="#FFFFFF" d="M2.146,17.775l-0.1-0.05c-0.066-0.167-0.117-0.333-0.15-0.5
	c-0.066-0.534,0.084-1.167,0.45-1.9c0.366-0.6,0.733-1.133,1.1-1.6c0.334-0.3,0.634-0.417,0.9-0.35l0.45,0.1l-0.25,0.2h-0.05
	c0,0.2,0.017,0.467,0.05,0.8c0.066,0.367-0.134,0.933-0.601,1.7c-0.366,0.567-0.649,0.9-0.85,1c-0.267,0.1-0.467,0.283-0.6,0.55
	c-0.067,0.066-0.084,0.167-0.051,0.3H2.247l-0.101-0.05l0.101,0.05h0.199c-0.033-0.133-0.017-0.233,0.051-0.3
	c0.133-0.267,0.333-0.45,0.6-0.55c0.2-0.1,0.483-0.433,0.85-1c0.467-0.767,0.667-1.333,0.601-1.7c-0.033-0.333-0.05-0.6-0.05-0.8
	h0.05l0.25-0.2l-0.45-0.1c-0.267-0.067-0.566,0.05-0.9,0.35c-0.366,0.466-0.733,1-1.1,1.6c-0.366,0.733-0.517,1.367-0.45,1.9
	c0.033,0.167,0.084,0.333,0.15,0.5l0.1,0.25V17.775z"></path>
<path fill-rule="evenodd" clip-rule="evenodd" fill="#FFFFFF" d="M7.946,21.925c-2.333-0.7-3.866-1.316-4.6-1.85
	c-1.033-0.8-1.616-1.733-1.75-2.8c-0.033-0.4-0.017-0.817,0.05-1.25c0.033-0.933,0.533-1.733,1.5-2.4c0.066,0,0.134-0.05,0.2-0.15
	c0.233-0.1,0.517-0.217,0.85-0.35c1-0.367,2.25-0.5,3.75-0.4c-1.5-0.1-2.75,0.033-3.75,0.4c-0.333,0.133-0.616,0.25-0.85,0.35
	c-0.066,0.1-0.134,0.15-0.2,0.15c-0.967,0.667-1.467,1.467-1.5,2.4c-0.066,0.433-0.083,0.85-0.05,1.25c0.134,1.067,0.717,2,1.75,2.8
	C4.08,20.608,5.613,21.225,7.946,21.925z"></path>
<path fill-rule="evenodd" clip-rule="evenodd" fill="#FFFFFF" d="M7.946,53.925v-1.5c-0.899,0.133-1.583,0.166-2.05,0.1
	c-1.3-0.166-2.283-0.684-2.95-1.55c-0.199-0.3-0.383-0.65-0.55-1.05c-0.434-0.867-0.399-1.816,0.101-2.851
	c0.033-0.033,0.066-0.116,0.1-0.25c0.167-0.2,0.35-0.45,0.55-0.75c0.934-1.167,2.533-2.167,4.8-3v-1.35v1.35
	c-2.267,0.833-3.866,1.833-4.8,3c-0.2,0.3-0.383,0.55-0.55,0.75c-0.033,0.134-0.066,0.217-0.1,0.25
	c-0.5,1.034-0.534,1.983-0.101,2.851c0.167,0.399,0.351,0.75,0.55,1.05c0.667,0.866,1.65,1.384,2.95,1.55
	c0.467,0.066,1.15,0.033,2.05-0.1V53.925z"></path>
<path fill-rule="evenodd" clip-rule="evenodd" fill="#FFFFFF" d="M3.597,51.175c-0.167-0.101-0.283-0.25-0.35-0.45
	c-0.334-0.4-0.551-1.017-0.65-1.851c0.033-0.666,0.1-1.283,0.2-1.85c0.1-0.467,0.316-0.75,0.649-0.85l0.4-0.051l-0.1,0.25
	l-0.101,0.101c0.101,0.134,0.267,0.333,0.5,0.6c0.267,0.3,0.367,0.9,0.3,1.8c-0.033,0.667-0.116,1.101-0.25,1.301
	c-0.166,0.199-0.216,0.449-0.149,0.75c-0.033,0.1-0.017,0.199,0.05,0.3l-0.15,0.1H3.797h0.149l0.15-0.1
	c-0.066-0.101-0.083-0.2-0.05-0.3c-0.066-0.301-0.017-0.551,0.149-0.75c0.134-0.2,0.217-0.634,0.25-1.301
	c0.067-0.899-0.033-1.5-0.3-1.8c-0.233-0.267-0.399-0.466-0.5-0.6l0.101-0.101l0.1-0.25l-0.4,0.051
	c-0.333,0.1-0.55,0.383-0.649,0.85c-0.101,0.566-0.167,1.184-0.2,1.85c0.1,0.834,0.316,1.45,0.65,1.851
	C3.313,50.925,3.43,51.075,3.597,51.175z"></path>
<polygon fill-rule="evenodd" clip-rule="evenodd" fill="#FFFFFF" points="3.696,51.125 3.597,51.175 3.797,51.325 "></polygon>
<path fill-rule="evenodd" clip-rule="evenodd" fill="#FFFFFF" d="M7.946,43.075v9.351V43.075z"></path>
<path fill-rule="evenodd" clip-rule="evenodd" fill="none" stroke="#383635" stroke-width="0.3" d="M7.946,11.325v-11.2h11.5v64.85
	h-11.5v-11.05c-1.366,0.199-2.433,0.199-3.199,0c-1.7-0.434-2.983-1.65-3.851-3.65c-0.633-2.6,0.233-4.75,2.601-6.45
	c0.767-0.533,1.633-1.017,2.6-1.45l1.15-0.399c0.233-0.101,0.466-0.184,0.699-0.25v-18.3c-3.233-0.9-5.333-1.816-6.3-2.75
	c-1.233-1.233-1.717-2.917-1.45-5.05c0.733-2.567,2.551-4,5.45-4.3C6.38,11.258,7.146,11.258,7.946,11.325v1.4v9.2v1.5" style="stroke: rgb(0, 0, 0);"></path>
<path fill-rule="evenodd" clip-rule="evenodd" fill="none" stroke="#383635" stroke-width="0.3" d="M2.047,17.725
	c-0.066-0.167-0.117-0.333-0.15-0.5c-0.066-0.534,0.084-1.167,0.45-1.9c0.366-0.6,0.733-1.133,1.1-1.6
	c0.334-0.3,0.634-0.417,0.9-0.35l0.45,0.1l-0.25,0.2h-0.05c0,0.2,0.017,0.467,0.05,0.8c0.066,0.367-0.134,0.933-0.601,1.7
	c-0.366,0.567-0.649,0.9-0.85,1c-0.267,0.1-0.467,0.283-0.6,0.55c-0.067,0.066-0.084,0.167-0.051,0.3H2.247l-0.101-0.05
	L2.047,17.725z" style="stroke: rgb(0, 0, 0);"></path>
<path fill-rule="evenodd" clip-rule="evenodd" fill="none" stroke="#383635" stroke-width="0.3" d="M7.946,21.925
	c-2.333-0.7-3.866-1.316-4.6-1.85c-1.033-0.8-1.616-1.733-1.75-2.8c-0.033-0.4-0.017-0.817,0.05-1.25
	c0.033-0.933,0.533-1.733,1.5-2.4c0.066,0,0.134-0.05,0.2-0.15c0.233-0.1,0.517-0.217,0.85-0.35c1-0.367,2.25-0.5,3.75-0.4" style="stroke: rgb(0, 0, 0);"></path>
<line fill-rule="evenodd" clip-rule="evenodd" fill="none" stroke="#383635" stroke-width="0.3" x1="2.146" y1="17.975" x2="2.146" y2="17.775" style="stroke: rgb(0, 0, 0);"></line>
<path fill-rule="evenodd" clip-rule="evenodd" fill="none" stroke="#383635" stroke-width="0.3" d="M7.946,53.925v-1.5
	c-0.899,0.133-1.583,0.166-2.05,0.1c-1.3-0.166-2.283-0.684-2.95-1.55c-0.199-0.3-0.383-0.65-0.55-1.05
	c-0.434-0.867-0.399-1.816,0.101-2.851c0.033-0.033,0.066-0.116,0.1-0.25c0.167-0.2,0.35-0.45,0.55-0.75
	c0.934-1.167,2.533-2.167,4.8-3v-1.35" style="stroke: rgb(0, 0, 0);"></path>
<path fill-rule="evenodd" clip-rule="evenodd" fill="none" stroke="#383635" stroke-width="0.3" d="M3.597,51.175
	c-0.167-0.101-0.283-0.25-0.35-0.45c-0.334-0.4-0.551-1.017-0.65-1.851c0.033-0.666,0.1-1.283,0.2-1.85
	c0.1-0.467,0.316-0.75,0.649-0.85l0.4-0.051l-0.1,0.25l-0.101,0.101c0.101,0.134,0.267,0.333,0.5,0.6c0.267,0.3,0.367,0.9,0.3,1.8
	c-0.033,0.667-0.116,1.101-0.25,1.301c-0.166,0.199-0.216,0.449-0.149,0.75c-0.033,0.1-0.017,0.199,0.05,0.3l-0.15,0.1H3.797
	L3.597,51.175z" style="stroke: rgb(0, 0, 0);"></path>
<line fill-rule="evenodd" clip-rule="evenodd" fill="none" stroke="#383635" stroke-width="0.3" x1="3.797" y1="51.325" x2="3.696" y2="51.125" style="stroke: rgb(0, 0, 0);"></line>
<line fill-rule="evenodd" clip-rule="evenodd" fill="none" stroke="#383635" stroke-width="0.3" x1="7.946" y1="43.075" x2="7.946" y2="52.425" style="stroke: rgb(0, 0, 0);"></line>
</svg>