<svg version="1.1" id="Layer_1" xmlns="http://www.w3.org/2000/svg" xmlns:xlink="http://www.w3.org/1999/xlink" x="0px" y="0px" width="49.1px" height="19.449px" viewBox="0 0 49.1 19.449" enable-background="new 0 0 49.1 19.449" xml:space="preserve" class="ng-scope">
<path fill-rule="evenodd" clip-rule="evenodd" fill="#FFFFFF" d="M47.05,3.8h-8.3V2.75c0-0.667,0.333-1,1-1h8.3c0.667,0,1,0.333,1,1
	V3.8H47.05z"></path>
<polygon fill-rule="evenodd" clip-rule="evenodd" fill="#FFFFFF" points="47.05,7.149 38.75,7.149 38.75,4.3 47.05,4.3 49.05,4.3 
	49.05,7.149 "></polygon>
<polygon fill-rule="evenodd" clip-rule="evenodd" fill="#FFFFFF" points="47.05,7.649 49.05,7.649 49.05,10.5 47.05,10.5 
	38.75,10.5 38.75,7.649 "></polygon>
<polygon fill-rule="evenodd" clip-rule="evenodd" fill="#FFFFFF" points="47.05,13.85 38.75,13.85 38.75,11 47.05,11 49.05,11 
	49.05,13.85 "></polygon>
<path fill-rule="evenodd" clip-rule="evenodd" fill="#FFFFFF" d="M10.649,2.75V1.649c0-0.5,0.134-0.866,0.4-1.1
	c0.233-0.233,0.566-0.351,1-0.351h1.399C13.55,0.1,13.666,0.05,13.8,0.05h2.649c0.167,0,0.301,0.05,0.4,0.149H32.1h0.05
	C32.25,0.1,32.366,0.05,32.5,0.05h2.649c0.134,0,0.25,0.05,0.351,0.149h0.05H37c0.399,0,0.717,0.084,0.949,0.25
	c0.301,0.234,0.467,0.601,0.5,1.101c0,0.033,0,0.066,0,0.1V2.75V15.3h0.301v-0.95h8.3h2v1.05c0,0.634-0.333,0.95-1,0.95h-8.3
	c-0.4,0-0.667-0.1-0.801-0.3V18c0,0.1-0.017,0.199-0.05,0.3c-0.066,0.733-0.533,1.1-1.399,1.1H11.6c-0.934,0-1.4-0.466-1.4-1.399
	v-2.101c-0.133,0.3-0.416,0.45-0.85,0.45H1c-0.634,0-0.95-0.334-0.95-1v-1H2h8.35v0.95h0.3V2.75z"></path>
<polygon fill-rule="evenodd" clip-rule="evenodd" fill="#FFFFFF" points="2,13.8 0.05,13.8 0.05,11 2,11 10.35,11 10.35,13.8 "></polygon>
<polygon fill-rule="evenodd" clip-rule="evenodd" fill="#FFFFFF" points="2,7.1 0.05,7.1 0.05,4.3 2,4.3 10.35,4.3 10.35,7.1 "></polygon>
<path fill-rule="evenodd" clip-rule="evenodd" fill="#FFFFFF" d="M10.35,2.75v1H2H0.05v-1c0-0.667,0.316-1,0.95-1h8.35
	C10.017,1.75,10.35,2.083,10.35,2.75z"></path>
<polygon fill-rule="evenodd" clip-rule="evenodd" fill="#FFFFFF" points="2,7.649 10.35,7.649 10.35,10.449 2,10.449 0.05,10.449 
	0.05,7.649 "></polygon>
<path fill-rule="evenodd" clip-rule="evenodd" fill="#FFFFFF" d="M32.1,0.199C32.033,0.3,32,0.416,32,0.55h3.649
	c0-0.134-0.033-0.25-0.1-0.351c0.066,0.101,0.1,0.217,0.1,0.351H32C32,0.416,32.033,0.3,32.1,0.199z"></path>
<path fill-rule="evenodd" clip-rule="evenodd" fill="#FFFFFF" d="M32,0.55H17h-3.7h-0.851c-0.899,0-1.366,0.433-1.399,1.3v0.05h0.05
	c0.133-0.167,0.316-0.25,0.55-0.25h25.75c0.167,0,0.333,0.101,0.5,0.3c0.032,0,0.049,0.018,0.05,0.051V1.899
	C37.916,1,37.449,0.55,36.55,0.55h-0.9h0.9c0.899,0,1.366,0.45,1.399,1.35V2c-0.001-0.033-0.018-0.051-0.05-0.051
	c-0.167-0.199-0.333-0.3-0.5-0.3h-25.75c-0.233,0-0.417,0.083-0.55,0.25h-0.05V1.85c0.033-0.867,0.5-1.3,1.399-1.3H13.3H17H32z"></path>
<path fill-rule="evenodd" clip-rule="evenodd" fill="#FFFFFF" d="M17.1,14.949v-0.75c0-0.133,0.05-0.25,0.15-0.35
	c0.1-0.1,0.232-0.15,0.399-0.15c0.134,0,0.25,0.051,0.351,0.15c0.1,0.1,0.149,0.217,0.149,0.35V14.8H30.8v-0.601
	c0-0.133,0.066-0.25,0.2-0.35c0.066-0.1,0.183-0.15,0.35-0.15c0.133,0,0.267,0.051,0.4,0.15c0.066,0.1,0.1,0.217,0.1,0.35v0.75V15
	c0.1,0.1,0.15,0.199,0.15,0.3c0,0.134-0.051,0.25-0.15,0.35c-0.1,0.101-0.217,0.15-0.35,0.15h-14c-0.134,0-0.25-0.05-0.351-0.15
	C17.05,15.55,17,15.434,17,15.3c0-0.101,0.033-0.2,0.1-0.3c-0.066,0.1-0.1,0.199-0.1,0.3c0,0.134,0.05,0.25,0.149,0.35
	c0.101,0.101,0.217,0.15,0.351,0.15h14c0.133,0,0.25-0.05,0.35-0.15c0.1-0.1,0.15-0.216,0.15-0.35c0-0.101-0.051-0.2-0.15-0.3
	v-0.051v-0.75c0-0.133-0.033-0.25-0.1-0.35c-0.134-0.1-0.268-0.15-0.4-0.15c-0.167,0-0.283,0.051-0.35,0.15
	c-0.134,0.1-0.2,0.217-0.2,0.35V14.8h-12.65v-0.601c0-0.133-0.05-0.25-0.149-0.35c-0.101-0.1-0.217-0.15-0.351-0.15
	c-0.167,0-0.3,0.051-0.399,0.15c-0.101,0.1-0.15,0.217-0.15,0.35V14.949z"></path>
<path fill-rule="evenodd" clip-rule="evenodd" fill="#FFFFFF" d="M17.149,14.949H17.1V15L17.149,14.949
	c0.101-0.1,0.217-0.149,0.351-0.149h0.649H17.5C17.366,14.8,17.25,14.85,17.149,14.949z"></path>
<path fill-rule="evenodd" clip-rule="evenodd" fill="#FFFFFF" d="M31.85,14.949c-0.1-0.1-0.217-0.149-0.35-0.149h-0.7h0.7
	C31.633,14.8,31.75,14.85,31.85,14.949z"></path>
<path fill-rule="evenodd" clip-rule="evenodd" fill="#FFFFFF" d="M37.399,10.25h-25.75c-0.233,0-0.433-0.101-0.6-0.301v5.2
	c0,0.967,0.467,1.45,1.399,1.45H36.55c0.933,0,1.399-0.483,1.399-1.45v-5.25C37.783,10.133,37.6,10.25,37.399,10.25
	c0.2,0,0.384-0.117,0.55-0.351v5.25c0,0.967-0.467,1.45-1.399,1.45H12.449c-0.933,0-1.399-0.483-1.399-1.45v-5.2
	c0.167,0.2,0.366,0.301,0.6,0.301H37.399z"></path>
<path fill-rule="evenodd" clip-rule="evenodd" fill="#FFFFFF" d="M37.949,2v7.899V2z"></path>
<path fill-rule="evenodd" clip-rule="evenodd" fill="#FFFFFF" d="M10.649,15.3v0.899c0,0.967,0.467,1.45,1.4,1.45H37
	c0.866,0,1.35-0.384,1.449-1.149c0-0.066,0-0.167,0-0.301V15.3v0.899c0,0.134,0,0.234,0,0.301c-0.1,0.766-0.583,1.149-1.449,1.149
	H12.05c-0.934,0-1.4-0.483-1.4-1.45V15.3z"></path>
<path fill-rule="evenodd" clip-rule="evenodd" fill="#FFFFFF" d="M36.55,18.5c0-0.167-0.05-0.301-0.15-0.4
	c-0.133-0.1-0.267-0.15-0.399-0.15h-2.2c-0.167,0-0.3,0.051-0.4,0.15c-0.1,0.1-0.149,0.233-0.149,0.4c0,0.133,0.05,0.25,0.149,0.35
	c0.101,0.1,0.233,0.15,0.4,0.15h1.1c-0.068-0.002-0.118-0.02-0.149-0.051c-0.067-0.066-0.101-0.133-0.101-0.199v-0.101
	c0-0.1,0.033-0.167,0.101-0.2c0.033-0.066,0.083-0.1,0.149-0.1h0.05c0.067,0,0.117,0.033,0.15,0.1c0.066,0.033,0.1,0.101,0.1,0.2
	v0.101c0,0.066-0.033,0.133-0.1,0.199c-0.031,0.031-0.081,0.049-0.15,0.051H36c0.133,0,0.267-0.051,0.399-0.15
	C36.5,18.75,36.55,18.633,36.55,18.5c0,0.133-0.05,0.25-0.15,0.35C36.267,18.949,36.133,19,36,19h-1.051
	c0.069-0.002,0.119-0.02,0.15-0.051c0.066-0.066,0.1-0.133,0.1-0.199v-0.101c0-0.1-0.033-0.167-0.1-0.2
	c-0.033-0.066-0.083-0.1-0.15-0.1h-0.05c-0.066,0-0.116,0.033-0.149,0.1c-0.067,0.033-0.101,0.101-0.101,0.2v0.101
	c0,0.066,0.033,0.133,0.101,0.199c0.031,0.031,0.081,0.049,0.149,0.051h-1.1c-0.167,0-0.3-0.051-0.4-0.15
	c-0.1-0.1-0.149-0.217-0.149-0.35c0-0.167,0.05-0.301,0.149-0.4c0.101-0.1,0.233-0.15,0.4-0.15H36c0.133,0,0.267,0.051,0.399,0.15
	C36.5,18.199,36.55,18.333,36.55,18.5z"></path>
<path fill-rule="evenodd" clip-rule="evenodd" fill="#FFFFFF" d="M38.949,16.05c-0.133-0.167-0.199-0.384-0.199-0.65v-0.1v0.1
	C38.75,15.666,38.816,15.883,38.949,16.05z"></path>
<path fill-rule="evenodd" clip-rule="evenodd" fill="#FFFFFF" d="M34.949,19h-0.05H34.949z"></path>
<path fill-rule="evenodd" clip-rule="evenodd" fill="#FFFFFF" d="M28.949,17.949H26.75c-0.167,0-0.301,0.051-0.4,0.15
	s-0.15,0.233-0.15,0.4c0,0.133,0.051,0.25,0.15,0.35S26.583,19,26.75,19h1.1c-0.068-0.002-0.119-0.02-0.15-0.051
	c-0.066-0.066-0.1-0.133-0.1-0.199v-0.101c0-0.1,0.033-0.167,0.1-0.2c0.033-0.066,0.084-0.1,0.15-0.1s0.133,0.033,0.2,0.1
	c0.066,0.033,0.1,0.101,0.1,0.2v0.101c0,0.066-0.033,0.133-0.1,0.199c-0.064,0.033-0.114,0.049-0.15,0.051h1.05
	c0.134,0,0.25-0.051,0.351-0.15c0.133-0.1,0.2-0.217,0.2-0.35c0-0.167-0.067-0.301-0.2-0.4C29.199,18,29.083,17.949,28.949,17.949
	c0.134,0,0.25,0.051,0.351,0.15c0.133,0.1,0.2,0.233,0.2,0.4c0,0.133-0.067,0.25-0.2,0.35c-0.101,0.1-0.217,0.15-0.351,0.15h-1.05
	c0.036-0.002,0.086-0.018,0.15-0.051c0.066-0.066,0.1-0.133,0.1-0.199v-0.101c0-0.1-0.033-0.167-0.1-0.2
	c-0.067-0.066-0.134-0.1-0.2-0.1s-0.117,0.033-0.15,0.1c-0.066,0.033-0.1,0.101-0.1,0.2v0.101c0,0.066,0.033,0.133,0.1,0.199
	c0.031,0.031,0.082,0.049,0.15,0.051h-1.1c-0.167,0-0.301-0.051-0.4-0.15s-0.15-0.217-0.15-0.35c0-0.167,0.051-0.301,0.15-0.4
	s0.233-0.15,0.4-0.15H28.949z"></path>
<path fill-rule="evenodd" clip-rule="evenodd" fill="#FFFFFF" d="M27.85,19h0.05H27.85z"></path>
<path fill-rule="evenodd" clip-rule="evenodd" fill="#FFFFFF" d="M21.55,18.35c0.066,0,0.116,0.033,0.149,0.1
	c0.067,0.033,0.101,0.101,0.101,0.2v0.101c0,0.066-0.033,0.133-0.101,0.199C21.668,18.98,21.618,18.998,21.55,19h1.05
	c0.133,0,0.267-0.051,0.4-0.15c0.1-0.1,0.149-0.217,0.149-0.35c0-0.167-0.05-0.301-0.149-0.4c-0.134-0.1-0.268-0.15-0.4-0.15h-2.2
	c-0.167,0-0.3,0.051-0.399,0.15c-0.101,0.1-0.15,0.233-0.15,0.4c0,0.133,0.05,0.25,0.15,0.35c0.1,0.1,0.232,0.15,0.399,0.15H21.5
	c-0.069-0.002-0.119-0.02-0.15-0.051c-0.066-0.066-0.1-0.133-0.1-0.199v-0.101c0-0.1,0.033-0.167,0.1-0.2
	c0.033-0.066,0.083-0.1,0.15-0.1H21.55H21.5c-0.067,0-0.117,0.033-0.15,0.1c-0.066,0.033-0.1,0.101-0.1,0.2v0.101
	c0,0.066,0.033,0.133,0.1,0.199c0.031,0.031,0.081,0.049,0.15,0.051h-1.101c-0.167,0-0.3-0.051-0.399-0.15
	c-0.101-0.1-0.15-0.217-0.15-0.35c0-0.167,0.05-0.301,0.15-0.4c0.1-0.1,0.232-0.15,0.399-0.15h2.2c0.133,0,0.267,0.051,0.4,0.15
	c0.1,0.1,0.149,0.233,0.149,0.4c0,0.133-0.05,0.25-0.149,0.35c-0.134,0.1-0.268,0.15-0.4,0.15h-1.05
	c0.068-0.002,0.118-0.02,0.149-0.051c0.067-0.066,0.101-0.133,0.101-0.199v-0.101c0-0.1-0.033-0.167-0.101-0.2
	C21.666,18.383,21.616,18.35,21.55,18.35z"></path>
<path fill-rule="evenodd" clip-rule="evenodd" fill="#FFFFFF" d="M21.5,19h0.05H21.5z"></path>
<path fill-rule="evenodd" clip-rule="evenodd" fill="#FFFFFF" d="M13.3,0.55c0-0.134,0.05-0.25,0.149-0.351
	C13.35,0.3,13.3,0.416,13.3,0.55z"></path>
<path fill-rule="evenodd" clip-rule="evenodd" fill="#FFFFFF" d="M17,0.55c-0.033-0.134-0.084-0.25-0.15-0.351
	C16.916,0.3,16.967,0.416,17,0.55z"></path>
<path fill-rule="evenodd" clip-rule="evenodd" fill="#FFFFFF" d="M11.05,9.949v-8.05V9.949z"></path>
<path fill-rule="evenodd" clip-rule="evenodd" fill="#FFFFFF" d="M16.449,18.5c0-0.167-0.05-0.301-0.149-0.4
	c-0.134-0.1-0.267-0.15-0.4-0.15h-2.2c-0.166,0-0.3,0.051-0.399,0.15c-0.101,0.1-0.15,0.233-0.15,0.4c0,0.133,0.05,0.25,0.15,0.35
	c0.1,0.1,0.233,0.15,0.399,0.15H14.8c-0.069-0.002-0.119-0.02-0.15-0.051c-0.066-0.066-0.1-0.133-0.1-0.199v-0.101
	c0-0.1,0.033-0.167,0.1-0.2c0.033-0.066,0.083-0.1,0.15-0.1h0.05c0.066,0,0.117,0.033,0.15,0.1c0.066,0.033,0.1,0.101,0.1,0.2v0.101
	c0,0.066-0.033,0.133-0.1,0.199c-0.031,0.031-0.082,0.049-0.15,0.051h1.05c0.134,0,0.267-0.051,0.4-0.15
	C16.399,18.75,16.449,18.633,16.449,18.5c0,0.133-0.05,0.25-0.149,0.35c-0.134,0.1-0.267,0.15-0.4,0.15h-1.05
	c0.068-0.002,0.119-0.02,0.15-0.051c0.066-0.066,0.1-0.133,0.1-0.199v-0.101c0-0.1-0.033-0.167-0.1-0.2
	c-0.033-0.066-0.084-0.1-0.15-0.1H14.8c-0.067,0-0.117,0.033-0.15,0.1c-0.066,0.033-0.1,0.101-0.1,0.2v0.101
	c0,0.066,0.033,0.133,0.1,0.199C14.681,18.98,14.73,18.998,14.8,19h-1.101c-0.166,0-0.3-0.051-0.399-0.15
	c-0.101-0.1-0.15-0.217-0.15-0.35c0-0.167,0.05-0.301,0.15-0.4c0.1-0.1,0.233-0.15,0.399-0.15h2.2c0.134,0,0.267,0.051,0.4,0.15
	C16.399,18.199,16.449,18.333,16.449,18.5z"></path>
<path fill-rule="evenodd" clip-rule="evenodd" fill="#FFFFFF" d="M14.85,19H14.8H14.85z"></path>
<path fill-rule="evenodd" clip-rule="evenodd" fill="#FFFFFF" d="M10.35,15.3v0.05c0,0.233-0.05,0.416-0.15,0.55
	c0.101-0.134,0.15-0.316,0.15-0.55V15.3z"></path>
<path fill-rule="evenodd" clip-rule="evenodd" fill="#343434" d="M47.05,13.85v0.5h-8.3v0.95h-0.301V2.75h0.301V3.8h8.3v0.5h-8.3
	v2.85h8.3v0.5h-8.3V10.5h8.3V11h-8.3v2.85H47.05z M2,14.35V13.8h8.35V11H2v-0.551h8.35v-2.8H2V7.1h8.35V4.3H2V3.75h8.35v-1h0.3V15.3
	h-0.3v-0.95H2z" style="fill: rgb(0, 0, 0);"></path>
<path fill-rule="evenodd" clip-rule="evenodd" fill="none" stroke="#383635" stroke-width="0.1" stroke-linecap="round" stroke-linejoin="round" stroke-miterlimit="3" d="
	M47.05,3.8h2V2.75c0-0.667-0.333-1-1-1h-8.3c-0.667,0-1,0.333-1,1V3.8H47.05z M47.05,4.3h2v2.85h-2v0.5h2V10.5h-2V11h2v2.85h-2v0.5
	h2v1.05c0,0.634-0.333,0.95-1,0.95h-8.3c-0.4,0-0.667-0.1-0.801-0.3V18c0,0.1-0.017,0.199-0.05,0.3
	c-0.066,0.733-0.533,1.1-1.399,1.1H11.6c-0.934,0-1.4-0.466-1.4-1.399v-2.101c-0.133,0.3-0.416,0.45-0.85,0.45H1
	c-0.634,0-0.95-0.334-0.95-1v-1H2V13.8H0.05V11H2v-0.551H0.05v-2.8H2V7.1H0.05V4.3H2V3.75H0.05v-1c0-0.667,0.316-1,0.95-1h8.35
	c0.667,0,1,0.333,1,1h0.3V1.649c0-0.5,0.134-0.866,0.4-1.1c0.233-0.233,0.566-0.351,1-0.351h1.399C13.55,0.1,13.666,0.05,13.8,0.05
	h2.649c0.167,0,0.301,0.05,0.4,0.149H32.1h0.05C32.25,0.1,32.366,0.05,32.5,0.05h2.649c0.134,0,0.25,0.05,0.351,0.149h0.05H37
	c0.399,0,0.717,0.084,0.949,0.25c0.301,0.234,0.467,0.601,0.5,1.101c0,0.033,0,0.066,0,0.1V2.75h0.301 M47.05,4.3V3.8 M32.1,0.199
	C32.033,0.3,32,0.416,32,0.55h3.649c0-0.134-0.033-0.25-0.1-0.351 M32,0.55H17h-3.7h-0.851c-0.899,0-1.366,0.433-1.399,1.3v0.05
	h0.05c0.133-0.167,0.316-0.25,0.55-0.25h25.75c0.167,0,0.333,0.101,0.5,0.3c0.032,0,0.049,0.018,0.05,0.051V1.899
	C37.916,1,37.449,0.55,36.55,0.55h-0.9 M17.1,14.949v-0.75c0-0.133,0.05-0.25,0.15-0.35c0.1-0.1,0.232-0.15,0.399-0.15
	c0.134,0,0.25,0.051,0.351,0.15c0.1,0.1,0.149,0.217,0.149,0.35V14.8H30.8v-0.601c0-0.133,0.066-0.25,0.2-0.35
	c0.066-0.1,0.183-0.15,0.35-0.15c0.133,0,0.267,0.051,0.4,0.15c0.066,0.1,0.1,0.217,0.1,0.35v0.75V15c0.1,0.1,0.15,0.199,0.15,0.3
	c0,0.134-0.051,0.25-0.15,0.35c-0.1,0.101-0.217,0.15-0.35,0.15h-14c-0.134,0-0.25-0.05-0.351-0.15C17.05,15.55,17,15.434,17,15.3
	c0-0.101,0.033-0.2,0.1-0.3V14.949z M47.05,7.149h-8.3V4.3h8.3 M31.85,14.949c-0.1-0.1-0.217-0.149-0.35-0.149h-0.7 M37.399,10.25
	h-25.75c-0.233,0-0.433-0.101-0.6-0.301v5.2c0,0.967,0.467,1.45,1.399,1.45H36.55c0.933,0,1.399-0.483,1.399-1.45v-5.25
	C37.783,10.133,37.6,10.25,37.399,10.25z M38.449,2.75V15.3h0.301v-0.95h8.3 M47.05,11h-8.3v2.85h8.3 M47.05,7.649h-8.3V10.5h8.3
	 M37.949,2v7.899 M10.649,15.3v0.899c0,0.967,0.467,1.45,1.4,1.45H37c0.866,0,1.35-0.384,1.449-1.149c0-0.066,0-0.167,0-0.301V15.3
	 M36.55,18.5c0-0.167-0.05-0.301-0.15-0.4c-0.133-0.1-0.267-0.15-0.399-0.15h-2.2c-0.167,0-0.3,0.051-0.4,0.15
	c-0.1,0.1-0.149,0.233-0.149,0.4c0,0.133,0.05,0.25,0.149,0.35c0.101,0.1,0.233,0.15,0.4,0.15h1.1
	c-0.068-0.002-0.118-0.02-0.149-0.051c-0.067-0.066-0.101-0.133-0.101-0.199v-0.101c0-0.1,0.033-0.167,0.101-0.2
	c0.033-0.066,0.083-0.1,0.149-0.1h0.05c0.067,0,0.117,0.033,0.15,0.1c0.066,0.033,0.1,0.101,0.1,0.2v0.101
	c0,0.066-0.033,0.133-0.1,0.199c-0.031,0.031-0.081,0.049-0.15,0.051H36c0.133,0,0.267-0.051,0.399-0.15
	C36.5,18.75,36.55,18.633,36.55,18.5z M38.949,16.05c-0.133-0.167-0.199-0.384-0.199-0.65v-0.1 M34.949,19h-0.05 M28.949,17.949
	H26.75c-0.167,0-0.301,0.051-0.4,0.15s-0.15,0.233-0.15,0.4c0,0.133,0.051,0.25,0.15,0.35S26.583,19,26.75,19h1.1
	c-0.068-0.002-0.119-0.02-0.15-0.051c-0.066-0.066-0.1-0.133-0.1-0.199v-0.101c0-0.1,0.033-0.167,0.1-0.2
	c0.033-0.066,0.084-0.1,0.15-0.1s0.133,0.033,0.2,0.1c0.066,0.033,0.1,0.101,0.1,0.2v0.101c0,0.066-0.033,0.133-0.1,0.199
	c-0.064,0.033-0.114,0.049-0.15,0.051h1.05c0.134,0,0.25-0.051,0.351-0.15c0.133-0.1,0.2-0.217,0.2-0.35
	c0-0.167-0.067-0.301-0.2-0.4C29.199,18,29.083,17.949,28.949,17.949z M27.85,19h0.05 M21.55,18.35c0.066,0,0.116,0.033,0.149,0.1
	c0.067,0.033,0.101,0.101,0.101,0.2v0.101c0,0.066-0.033,0.133-0.101,0.199C21.668,18.98,21.618,18.998,21.55,19h1.05
	c0.133,0,0.267-0.051,0.4-0.15c0.1-0.1,0.149-0.217,0.149-0.35c0-0.167-0.05-0.301-0.149-0.4c-0.134-0.1-0.268-0.15-0.4-0.15h-2.2
	c-0.167,0-0.3,0.051-0.399,0.15c-0.101,0.1-0.15,0.233-0.15,0.4c0,0.133,0.05,0.25,0.15,0.35c0.1,0.1,0.232,0.15,0.399,0.15H21.5
	c-0.069-0.002-0.119-0.02-0.15-0.051c-0.066-0.066-0.1-0.133-0.1-0.199v-0.101c0-0.1,0.033-0.167,0.1-0.2
	c0.033-0.066,0.083-0.1,0.15-0.1H21.55z M21.5,19h0.05 M13.3,0.55c0-0.134,0.05-0.25,0.149-0.351 M17,0.55
	c-0.033-0.134-0.084-0.25-0.15-0.351 M2,4.3h8.35v2.8H2 M2,11h8.35v2.8H2 M2,14.35h8.35v0.95h0.3V2.75 M10.35,2.75v1H2 M2,7.649
	h8.35v2.8H2 M17.149,14.949L17.1,15 M18.149,14.8H17.5c-0.134,0-0.25,0.05-0.351,0.149 M11.05,9.949v-8.05 M16.449,18.5
	c0-0.167-0.05-0.301-0.149-0.4c-0.134-0.1-0.267-0.15-0.4-0.15h-2.2c-0.166,0-0.3,0.051-0.399,0.15c-0.101,0.1-0.15,0.233-0.15,0.4
	c0,0.133,0.05,0.25,0.15,0.35c0.1,0.1,0.233,0.15,0.399,0.15H14.8c-0.069-0.002-0.119-0.02-0.15-0.051
	c-0.066-0.066-0.1-0.133-0.1-0.199v-0.101c0-0.1,0.033-0.167,0.1-0.2c0.033-0.066,0.083-0.1,0.15-0.1h0.05
	c0.066,0,0.117,0.033,0.15,0.1c0.066,0.033,0.1,0.101,0.1,0.2v0.101c0,0.066-0.033,0.133-0.1,0.199
	c-0.031,0.031-0.082,0.049-0.15,0.051h1.05c0.134,0,0.267-0.051,0.4-0.15C16.399,18.75,16.449,18.633,16.449,18.5z M14.85,19H14.8
	 M10.35,15.3v0.05c0,0.233-0.05,0.416-0.15,0.55" style="stroke: rgb(0, 0, 0);"></path>
</svg>