<svg version="1.1" id="Layer_1" xmlns="http://www.w3.org/2000/svg" xmlns:xlink="http://www.w3.org/1999/xlink" x="0px" y="0px" width="37.4px" height="31.3px" viewBox="0 0 37.4 31.3" enable-background="new 0 0 37.4 31.3" xml:space="preserve" class="ng-scope">
<polygon fill-rule="evenodd" clip-rule="evenodd" fill="#FFFFFF" points="33.726,3.525 35.175,3.525 33.726,3.525 33.726,3.025 
	35.175,3.025 35.175,3.525 36.525,3.525 36.525,6.425 35.175,6.425 33.726,6.425 19.675,6.425 17.875,6.425 19.675,6.425 
	19.675,7.075 17.875,7.075 17.875,6.425 3.925,6.425 3.925,7.075 17.875,7.075 19.675,7.075 33.726,7.075 35.175,7.075 
	33.726,7.075 33.726,6.425 35.175,6.425 35.175,7.075 36.575,7.075 36.575,9.975 35.175,9.975 35.175,10.475 36.575,10.475 
	36.575,13.375 1.075,13.375 1.075,10.475 2.226,10.475 2.226,9.975 1.075,9.975 1.075,7.075 2.226,7.075 2.226,6.425 1.025,6.425 
	1.025,3.525 2.226,3.525 2.226,3.025 1.025,3.025 1.025,0.125 36.525,0.125 36.525,3.025 35.175,3.025 33.726,3.025 19.675,3.025 
	17.875,3.025 19.675,3.025 19.675,3.525 17.875,3.525 17.875,3.025 3.925,3.025 2.226,3.025 3.925,3.025 3.925,3.525 17.875,3.525 
	19.675,3.525 "></polygon>
<polygon fill-rule="evenodd" clip-rule="evenodd" fill="#FFFFFF" points="19.675,10.475 33.726,10.475 33.726,9.975 35.175,9.975 
	33.726,9.975 19.675,9.975 19.675,10.475 17.875,10.475 17.875,9.975 19.675,9.975 17.875,9.975 3.925,9.975 2.226,9.975 
	3.925,9.975 3.925,10.475 17.875,10.475 "></polygon>
<polygon fill-rule="evenodd" clip-rule="evenodd" fill="#FFFFFF" points="36.675,17.325 35.175,17.325 35.175,19.475 33.875,19.475 
	35.175,19.475 35.175,17.325 "></polygon>
<polygon fill-rule="evenodd" clip-rule="evenodd" fill="#FFFFFF" points="33.875,19.475 19.825,19.475 19.825,19.975 18.025,19.975 
	19.825,19.975 33.875,19.975 "></polygon>
<path fill-rule="evenodd" clip-rule="evenodd" fill="#FFFFFF" d="M33.726,10.475h1.449H33.726z"></path>
<polygon fill-rule="evenodd" clip-rule="evenodd" fill="#FFFFFF" points="36.675,17.275 36.675,17.325 37.275,17.325 37.275,31.175 
	35.175,31.175 35.175,29.875 2.275,29.875 2.275,31.175 0.125,31.175 0.125,17.325 1.175,17.325 1.175,17.175 0.125,17.175 
	0.125,15.075 37.275,15.075 37.275,17.175 36.675,17.175 "></polygon>
<polygon fill-rule="evenodd" clip-rule="evenodd" fill="#FFFFFF" points="35.175,19.475 35.175,19.975 35.175,22.875 35.175,23.575 
	35.175,26.475 35.175,26.975 35.175,29.875 35.175,26.975 35.175,26.475 35.175,23.575 35.175,22.875 35.175,19.975 "></polygon>
<path fill-rule="evenodd" clip-rule="evenodd" fill="#FFFFFF" d="M35.175,19.975h-1.3H35.175z"></path>
<polygon fill-rule="evenodd" clip-rule="evenodd" fill="#FFFFFF" points="4.075,19.975 2.375,19.975 4.075,19.975 18.025,19.975 
	18.025,19.475 19.825,19.475 18.025,19.475 4.075,19.475 "></polygon>
<polygon fill-rule="evenodd" clip-rule="evenodd" fill="#FFFFFF" points="2.375,19.975 2.375,19.475 4.075,19.475 2.375,19.475 
	2.275,19.475 2.275,19.975 "></polygon>
<path fill-rule="evenodd" clip-rule="evenodd" fill="#FFFFFF" d="M2.275,19.975v2.9V19.975z"></path>
<polygon fill-rule="evenodd" clip-rule="evenodd" fill="#FFFFFF" points="2.275,22.875 2.275,23.575 2.375,23.575 4.075,23.575 
	2.375,23.575 2.375,22.875 4.075,22.875 2.375,22.875 "></polygon>
<polygon fill-rule="evenodd" clip-rule="evenodd" fill="#FFFFFF" points="4.075,22.875 4.075,23.575 18.025,23.575 18.025,22.875 
	19.825,22.875 18.025,22.875 "></polygon>
<polygon fill-rule="evenodd" clip-rule="evenodd" fill="#FFFFFF" points="19.825,22.875 19.825,23.575 33.875,23.575 33.875,22.875 
	35.175,22.875 33.875,22.875 "></polygon>
<path fill-rule="evenodd" clip-rule="evenodd" fill="#FFFFFF" d="M35.175,23.575h-1.3H35.175z"></path>
<polygon fill-rule="evenodd" clip-rule="evenodd" fill="#FFFFFF" points="33.875,26.475 19.825,26.475 19.825,26.975 33.875,26.975 
	33.875,26.475 35.175,26.475 "></polygon>
<path fill-rule="evenodd" clip-rule="evenodd" fill="#FFFFFF" d="M35.175,26.975h-1.3H35.175z"></path>
<path fill-rule="evenodd" clip-rule="evenodd" fill="#FFFFFF" d="M2.226,3.525h1.699H2.226z"></path>
<path fill-rule="evenodd" clip-rule="evenodd" fill="#FFFFFF" d="M3.925,7.075H2.226H3.925z"></path>
<path fill-rule="evenodd" clip-rule="evenodd" fill="#FFFFFF" d="M2.226,6.425h1.699H2.226z"></path>
<polygon fill-rule="evenodd" clip-rule="evenodd" fill="#FFFFFF" points="1.175,17.325 2.275,17.325 2.275,19.475 2.275,17.325 "></polygon>
<path fill-rule="evenodd" clip-rule="evenodd" fill="#FFFFFF" d="M2.226,10.475h1.699H2.226z"></path>
<polygon fill-rule="evenodd" clip-rule="evenodd" fill="#FFFFFF" points="4.075,26.975 18.025,26.975 19.825,26.975 18.025,26.975 
	18.025,26.475 4.075,26.475 4.075,26.975 2.375,26.975 2.375,26.475 4.075,26.475 2.375,26.475 2.275,26.475 2.275,26.975 
	2.375,26.975 "></polygon>
<path fill-rule="evenodd" clip-rule="evenodd" fill="#FFFFFF" d="M2.275,26.975v2.9V26.975z"></path>
<path fill-rule="evenodd" clip-rule="evenodd" fill="#FFFFFF" d="M2.275,23.575v2.899V23.575z"></path>
<path fill-rule="evenodd" clip-rule="evenodd" fill="#FFFFFF" d="M18.025,26.475h1.8H18.025z"></path>
<path fill-rule="evenodd" clip-rule="evenodd" fill="#FFFFFF" d="M19.825,23.575h-1.8H19.825z"></path>
<path fill-rule="evenodd" clip-rule="evenodd" fill="#FFFFFF" d="M36.675,17.175h-35.5H36.675z"></path>
<rect x="33.726" y="3.025" fill-rule="evenodd" clip-rule="evenodd" fill="none" stroke="#383635" stroke-width="0.3" width="1.449" height="0.5" style="stroke: rgb(0, 0, 0);"></rect>
<rect x="33.726" y="6.425" fill-rule="evenodd" clip-rule="evenodd" fill="none" stroke="#383635" stroke-width="0.3" width="1.449" height="0.65" style="stroke: rgb(0, 0, 0);"></rect>
<polyline fill-rule="evenodd" clip-rule="evenodd" fill="none" stroke="#383635" stroke-width="0.3" points="35.175,7.075 
	36.575,7.075 36.575,9.975 35.175,9.975 35.175,10.475 36.575,10.475 36.575,13.375 1.075,13.375 1.075,10.475 2.226,10.475 
	2.226,9.975 1.075,9.975 1.075,7.075 2.226,7.075 2.226,6.425 1.025,6.425 1.025,3.525 2.226,3.525 2.226,3.025 1.025,3.025 
	1.025,0.125 36.525,0.125 36.525,3.025 35.175,3.025 " style="stroke: rgb(0, 0, 0);"></polyline>
<polyline fill-rule="evenodd" clip-rule="evenodd" fill="none" stroke="#383635" stroke-width="0.3" points="35.175,3.525 
	36.525,3.525 36.525,6.425 35.175,6.425 " style="stroke: rgb(0, 0, 0);"></polyline>
<rect x="17.875" y="3.025" fill-rule="evenodd" clip-rule="evenodd" fill="none" stroke="#383635" stroke-width="0.3" width="1.8" height="0.5" style="stroke: rgb(0, 0, 0);"></rect>
<rect x="17.875" y="6.425" fill-rule="evenodd" clip-rule="evenodd" fill="none" stroke="#383635" stroke-width="0.3" width="1.8" height="0.65" style="stroke: rgb(0, 0, 0);"></rect>
<rect x="17.875" y="9.975" fill-rule="evenodd" clip-rule="evenodd" fill="none" stroke="#383635" stroke-width="0.3" width="1.8" height="0.5" style="stroke: rgb(0, 0, 0);"></rect>
<polyline fill-rule="evenodd" clip-rule="evenodd" fill="none" stroke="#383635" stroke-width="0.3" points="33.726,9.975 
	33.726,10.475 35.175,10.475 " style="stroke: rgb(0, 0, 0);"></polyline>
<polyline fill-rule="evenodd" clip-rule="evenodd" fill="none" stroke="#383635" stroke-width="0.3" points="36.675,17.325 
	37.275,17.325 37.275,31.175 35.175,31.175 35.175,29.875 2.275,29.875 2.275,31.175 0.125,31.175 0.125,17.325 1.175,17.325 
	1.175,17.175 0.125,17.175 0.125,15.075 37.275,15.075 37.275,17.175 36.675,17.175 36.675,17.275 " style="stroke: rgb(0, 0, 0);"></polyline>
<polyline fill-rule="evenodd" clip-rule="evenodd" fill="none" stroke="#383635" stroke-width="0.3" points="33.875,19.475 
	35.175,19.475 35.175,17.325 36.675,17.325 " style="stroke: rgb(0, 0, 0);"></polyline>
<polyline fill-rule="evenodd" clip-rule="evenodd" fill="none" stroke="#383635" stroke-width="0.3" points="35.175,9.975 
	33.726,9.975 19.675,9.975 " style="stroke: rgb(0, 0, 0);"></polyline>
<line fill-rule="evenodd" clip-rule="evenodd" fill="none" stroke="#383635" stroke-width="0.3" x1="19.825" y1="19.475" x2="33.875" y2="19.475" style="stroke: rgb(0, 0, 0);"></line>
<line fill-rule="evenodd" clip-rule="evenodd" fill="none" stroke="#383635" stroke-width="0.3" x1="33.726" y1="3.525" x2="19.675" y2="3.525" style="stroke: rgb(0, 0, 0);"></line>
<line fill-rule="evenodd" clip-rule="evenodd" fill="none" stroke="#383635" stroke-width="0.3" x1="33.726" y1="10.475" x2="19.675" y2="10.475" style="stroke: rgb(0, 0, 0);"></line>
<line fill-rule="evenodd" clip-rule="evenodd" fill="none" stroke="#383635" stroke-width="0.3" x1="33.726" y1="7.075" x2="19.675" y2="7.075" style="stroke: rgb(0, 0, 0);"></line>
<line fill-rule="evenodd" clip-rule="evenodd" fill="none" stroke="#383635" stroke-width="0.3" x1="19.675" y1="3.025" x2="33.726" y2="3.025" style="stroke: rgb(0, 0, 0);"></line>
<line fill-rule="evenodd" clip-rule="evenodd" fill="none" stroke="#383635" stroke-width="0.3" x1="19.675" y1="6.425" x2="33.726" y2="6.425" style="stroke: rgb(0, 0, 0);"></line>
<polyline fill-rule="evenodd" clip-rule="evenodd" fill="none" stroke="#383635" stroke-width="0.3" points="35.175,19.475 
	35.175,19.975 35.175,22.875 35.175,23.575 35.175,26.475 35.175,26.975 35.175,29.875 " style="stroke: rgb(0, 0, 0);"></polyline>
<polyline fill-rule="evenodd" clip-rule="evenodd" fill="none" stroke="#383635" stroke-width="0.3" points="35.175,19.975 
	33.875,19.975 19.825,19.975 18.025,19.975 4.075,19.975 2.375,19.975 2.275,19.975 2.275,22.875 2.375,22.875 4.075,22.875 
	18.025,22.875 19.825,22.875 33.875,22.875 35.175,22.875 " style="stroke: rgb(0, 0, 0);"></polyline>
<polyline fill-rule="evenodd" clip-rule="evenodd" fill="none" stroke="#383635" stroke-width="0.3" points="19.825,22.875 
	19.825,23.575 33.875,23.575 33.875,22.875 " style="stroke: rgb(0, 0, 0);"></polyline>
<line fill-rule="evenodd" clip-rule="evenodd" fill="none" stroke="#383635" stroke-width="0.3" x1="35.175" y1="23.575" x2="33.875" y2="23.575" style="stroke: rgb(0, 0, 0);"></line>
<polyline fill-rule="evenodd" clip-rule="evenodd" fill="none" stroke="#383635" stroke-width="0.3" points="33.875,26.475 
	19.825,26.475 19.825,26.975 33.875,26.975 33.875,26.475 35.175,26.475 " style="stroke: rgb(0, 0, 0);"></polyline>
<line fill-rule="evenodd" clip-rule="evenodd" fill="none" stroke="#383635" stroke-width="0.3" x1="35.175" y1="26.975" x2="33.875" y2="26.975" style="stroke: rgb(0, 0, 0);"></line>
<line fill-rule="evenodd" clip-rule="evenodd" fill="none" stroke="#383635" stroke-width="0.3" x1="19.825" y1="19.475" x2="19.825" y2="19.975" style="stroke: rgb(0, 0, 0);"></line>
<line fill-rule="evenodd" clip-rule="evenodd" fill="none" stroke="#383635" stroke-width="0.3" x1="33.875" y1="19.975" x2="33.875" y2="19.475" style="stroke: rgb(0, 0, 0);"></line>
<polyline fill-rule="evenodd" clip-rule="evenodd" fill="none" stroke="#383635" stroke-width="0.3" points="3.925,3.525 
	3.925,3.025 2.226,3.025 " style="stroke: rgb(0, 0, 0);"></polyline>
<polyline fill-rule="evenodd" clip-rule="evenodd" fill="none" stroke="#383635" stroke-width="0.3" points="17.875,6.425 
	3.925,6.425 3.925,7.075 17.875,7.075 " style="stroke: rgb(0, 0, 0);"></polyline>
<polyline fill-rule="evenodd" clip-rule="evenodd" fill="none" stroke="#383635" stroke-width="0.3" points="2.226,3.525 
	3.925,3.525 17.875,3.525 " style="stroke: rgb(0, 0, 0);"></polyline>
<line fill-rule="evenodd" clip-rule="evenodd" fill="none" stroke="#383635" stroke-width="0.3" x1="3.925" y1="7.075" x2="2.226" y2="7.075" style="stroke: rgb(0, 0, 0);"></line>
<line fill-rule="evenodd" clip-rule="evenodd" fill="none" stroke="#383635" stroke-width="0.3" x1="2.226" y1="6.425" x2="3.925" y2="6.425" style="stroke: rgb(0, 0, 0);"></line>
<polyline fill-rule="evenodd" clip-rule="evenodd" fill="none" stroke="#383635" stroke-width="0.3" points="3.925,10.475 
	3.925,9.975 2.226,9.975 " style="stroke: rgb(0, 0, 0);"></polyline>
<polyline fill-rule="evenodd" clip-rule="evenodd" fill="none" stroke="#383635" stroke-width="0.3" points="2.275,19.475 
	2.375,19.475 4.075,19.475 18.025,19.475 19.825,19.475 " style="stroke: rgb(0, 0, 0);"></polyline>
<polyline fill-rule="evenodd" clip-rule="evenodd" fill="none" stroke="#383635" stroke-width="0.3" points="1.175,17.325 
	2.275,17.325 2.275,19.475 2.275,19.975 " style="stroke: rgb(0, 0, 0);"></polyline>
<line fill-rule="evenodd" clip-rule="evenodd" fill="none" stroke="#383635" stroke-width="0.3" x1="2.226" y1="10.475" x2="3.925" y2="10.475" style="stroke: rgb(0, 0, 0);"></line>
<line fill-rule="evenodd" clip-rule="evenodd" fill="none" stroke="#383635" stroke-width="0.3" x1="17.875" y1="10.475" x2="3.925" y2="10.475" style="stroke: rgb(0, 0, 0);"></line>
<line fill-rule="evenodd" clip-rule="evenodd" fill="none" stroke="#383635" stroke-width="0.3" x1="17.875" y1="9.975" x2="3.925" y2="9.975" style="stroke: rgb(0, 0, 0);"></line>
<line fill-rule="evenodd" clip-rule="evenodd" fill="none" stroke="#383635" stroke-width="0.3" x1="17.875" y1="3.025" x2="3.925" y2="3.025" style="stroke: rgb(0, 0, 0);"></line>
<polyline fill-rule="evenodd" clip-rule="evenodd" fill="none" stroke="#383635" stroke-width="0.3" points="18.025,26.475 
	18.025,26.975 19.825,26.975 " style="stroke: rgb(0, 0, 0);"></polyline>
<polyline fill-rule="evenodd" clip-rule="evenodd" fill="none" stroke="#383635" stroke-width="0.3" points="4.075,22.875 
	4.075,23.575 18.025,23.575 18.025,22.875 " style="stroke: rgb(0, 0, 0);"></polyline>
<polyline fill-rule="evenodd" clip-rule="evenodd" fill="none" stroke="#383635" stroke-width="0.3" points="2.375,22.875 
	2.375,23.575 4.075,23.575 " style="stroke: rgb(0, 0, 0);"></polyline>
<polyline fill-rule="evenodd" clip-rule="evenodd" fill="none" stroke="#383635" stroke-width="0.3" points="2.275,22.875 
	2.275,23.575 2.375,23.575 " style="stroke: rgb(0, 0, 0);"></polyline>
<polyline fill-rule="evenodd" clip-rule="evenodd" fill="none" stroke="#383635" stroke-width="0.3" points="2.375,26.475 
	2.375,26.975 4.075,26.975 4.075,26.475 2.375,26.475 2.275,26.475 2.275,26.975 2.375,26.975 " style="stroke: rgb(0, 0, 0);"></polyline>
<line fill-rule="evenodd" clip-rule="evenodd" fill="none" stroke="#383635" stroke-width="0.3" x1="2.275" y1="26.975" x2="2.275" y2="29.875" style="stroke: rgb(0, 0, 0);"></line>
<line fill-rule="evenodd" clip-rule="evenodd" fill="none" stroke="#383635" stroke-width="0.3" x1="2.275" y1="23.575" x2="2.275" y2="26.475" style="stroke: rgb(0, 0, 0);"></line>
<polyline fill-rule="evenodd" clip-rule="evenodd" fill="none" stroke="#383635" stroke-width="0.3" points="4.075,26.475 
	18.025,26.475 19.825,26.475 " style="stroke: rgb(0, 0, 0);"></polyline>
<line fill-rule="evenodd" clip-rule="evenodd" fill="none" stroke="#383635" stroke-width="0.3" x1="18.025" y1="26.975" x2="4.075" y2="26.975" style="stroke: rgb(0, 0, 0);"></line>
<line fill-rule="evenodd" clip-rule="evenodd" fill="none" stroke="#383635" stroke-width="0.3" x1="18.025" y1="19.975" x2="18.025" y2="19.475" style="stroke: rgb(0, 0, 0);"></line>
<line fill-rule="evenodd" clip-rule="evenodd" fill="none" stroke="#383635" stroke-width="0.3" x1="4.075" y1="19.475" x2="4.075" y2="19.975" style="stroke: rgb(0, 0, 0);"></line>
<line fill-rule="evenodd" clip-rule="evenodd" fill="none" stroke="#383635" stroke-width="0.3" x1="2.375" y1="19.975" x2="2.375" y2="19.475" style="stroke: rgb(0, 0, 0);"></line>
<line fill-rule="evenodd" clip-rule="evenodd" fill="none" stroke="#383635" stroke-width="0.3" x1="19.825" y1="23.575" x2="18.025" y2="23.575" style="stroke: rgb(0, 0, 0);"></line>
<line fill-rule="evenodd" clip-rule="evenodd" fill="none" stroke="#383635" stroke-width="0.3" x1="36.675" y1="17.175" x2="1.175" y2="17.175" style="stroke: rgb(0, 0, 0);"></line>
</svg>