<svg version="1.1" id="Layer_1" xmlns="http://www.w3.org/2000/svg" xmlns:xlink="http://www.w3.org/1999/xlink" x="0px" y="0px" width="35.851px" height="60.35px" viewBox="0 0 35.851 60.35" enable-background="new 0 0 35.851 60.35" xml:space="preserve" class="ng-scope">
<path fill-rule="evenodd" clip-rule="evenodd" fill="#FFFFFF" d="M3.976,1.825c-0.301-0.233-0.684-0.351-1.15-0.351
	s-0.867,0.117-1.2,0.351c-0.3,0.333-0.45,0.733-0.45,1.199c0,0.434,0.15,0.784,0.45,1.051c0.2,0.166,0.417,0.3,0.65,0.399
	c0.167,0.033,0.35,0.05,0.55,0.05c0.434,0,0.816-0.149,1.15-0.449c0.333-0.267,0.5-0.617,0.5-1.051c0-0.166-0.051-0.333-0.15-0.5
	C4.259,2.258,4.142,2.024,3.976,1.825c0.166,0.199,0.283,0.433,0.35,0.699c0.1,0.167,0.15,0.334,0.15,0.5
	c0,0.434-0.167,0.784-0.5,1.051c-0.334,0.3-0.717,0.449-1.15,0.449c-0.2,0-0.383-0.017-0.55-0.05c-0.233-0.1-0.45-0.233-0.65-0.399
	c-0.3-0.267-0.45-0.617-0.45-1.051c0-0.466,0.15-0.866,0.45-1.199c0.333-0.233,0.733-0.351,1.2-0.351S3.675,1.592,3.976,1.825z"></path>
<path fill-rule="evenodd" clip-rule="evenodd" fill="#FFFFFF" d="M7.476,9.325l0.35,1c0.033,0.066,0.083,0.166,0.15,0.3
	c4.699,12.767,9.399,25.55,14.1,38.35l-0.4,0.15L6.775,9.625L7.476,9.325l-0.7,0.3l14.899,39.5l0.4-0.15
	c-4.7-12.8-9.4-25.583-14.1-38.35c-0.067-0.134-0.117-0.233-0.15-0.3L7.476,9.325z"></path>
<path fill-rule="evenodd" clip-rule="evenodd" fill="#FFFFFF" d="M13.625,15.225l-0.05-0.35c0-0.267,0.1-0.5,0.3-0.7
	c0.233-0.233,0.483-0.35,0.75-0.35c0.3,0,0.583,0.116,0.851,0.35c0.166,0.2,0.25,0.434,0.25,0.7v0.35v-0.35
	c0-0.267-0.084-0.5-0.25-0.7c-0.268-0.233-0.551-0.35-0.851-0.35c-0.267,0-0.517,0.116-0.75,0.35c-0.2,0.2-0.3,0.434-0.3,0.7
	L13.625,15.225z"></path>
<path fill-rule="evenodd" clip-rule="evenodd" fill="#FFFFFF" d="M15.726,15.225c-0.067,0.134-0.15,0.267-0.25,0.4
	c-0.268,0.2-0.551,0.3-0.851,0.3c-0.267,0-0.517-0.1-0.75-0.3c-0.133-0.134-0.217-0.267-0.25-0.4c0.033,0.167,0.117,0.316,0.25,0.45
	c0.233,0.2,0.483,0.3,0.75,0.3c0.3,0,0.583-0.1,0.851-0.3C15.575,15.541,15.658,15.392,15.726,15.225z"></path>
<path fill-rule="evenodd" clip-rule="evenodd" fill="#FFFFFF" d="M16.325,18.475c-0.1-0.133-0.167-0.283-0.2-0.45
	c-0.033-0.066-0.05-0.149-0.05-0.25v-0.05c0-0.233,0.083-0.483,0.25-0.75c0.267-0.166,0.533-0.25,0.8-0.25s0.517,0.084,0.75,0.25
	c0.233,0.267,0.351,0.517,0.351,0.75v0.05c0,0.267-0.117,0.5-0.351,0.7c0.233-0.2,0.351-0.434,0.351-0.7v-0.05
	c0-0.233-0.117-0.483-0.351-0.75c-0.233-0.166-0.483-0.25-0.75-0.25s-0.533,0.084-0.8,0.25c-0.167,0.267-0.25,0.517-0.25,0.75v0.05
	c0,0.101,0.017,0.184,0.05,0.25C16.158,18.191,16.226,18.342,16.325,18.475c0.267,0.233,0.533,0.351,0.8,0.351
	s0.517-0.117,0.75-0.351c-0.233,0.2-0.483,0.3-0.75,0.3S16.592,18.675,16.325,18.475z"></path>
<path fill-rule="evenodd" clip-rule="evenodd" fill="#FFFFFF" d="M0.976,0.975c0.633-0.566,1.366-0.85,2.199-0.85h29.5
	c0.834,0,1.567,0.283,2.2,0.85c0.567,0.566,0.851,1.267,0.851,2.101v54.199c0,0.801-0.283,1.517-0.851,2.15
	c-0.633,0.533-1.366,0.8-2.2,0.8h-29.5c-0.833,0-1.566-0.267-2.199-0.8c-0.567-0.634-0.851-1.35-0.851-2.15V3.075
	C0.125,2.241,0.408,1.541,0.976,0.975z"></path>
<path fill-rule="evenodd" clip-rule="evenodd" fill="#FFFFFF" d="M0.425,30.225c0,0.5,0.167,0.867,0.5,1.101
	c0.301,0.333,0.667,0.5,1.101,0.5c0.1,0,0.2,0,0.3,0c0.333-0.034,0.633-0.2,0.9-0.5c0.3-0.233,0.449-0.601,0.449-1.101
	c0-0.399-0.149-0.75-0.449-1.05c-0.268-0.233-0.584-0.384-0.95-0.45c-0.101,0-0.184,0-0.25,0c-0.434,0-0.8,0.15-1.101,0.45
	C0.592,29.475,0.425,29.825,0.425,30.225c0-0.399,0.167-0.75,0.5-1.05c0.301-0.3,0.667-0.45,1.101-0.45c0.066,0,0.149,0,0.25,0
	c0.366,0.066,0.683,0.217,0.95,0.45c0.3,0.3,0.449,0.65,0.449,1.05c0,0.5-0.149,0.867-0.449,1.101c-0.268,0.3-0.567,0.466-0.9,0.5
	c-0.1,0-0.2,0-0.3,0c-0.434,0-0.8-0.167-1.101-0.5C0.592,31.092,0.425,30.725,0.425,30.225z"></path>
<path fill-rule="evenodd" clip-rule="evenodd" fill="#FFFFFF" d="M20.525,29.524c0,0.301,0.1,0.534,0.3,0.7
	c0.233,0.233,0.5,0.351,0.8,0.351s0.55-0.117,0.75-0.351c0.2-0.166,0.3-0.399,0.3-0.7l-0.05-0.3c-0.033-0.166-0.116-0.316-0.25-0.45
	c-0.167-0.166-0.35-0.267-0.55-0.3h-0.35c-0.233,0.033-0.45,0.134-0.65,0.3c-0.133,0.134-0.217,0.284-0.25,0.45L20.525,29.524
	l0.05-0.3c0.033-0.166,0.117-0.316,0.25-0.45c0.2-0.166,0.417-0.267,0.65-0.3h0.35c0.2,0.033,0.383,0.134,0.55,0.3
	c0.134,0.134,0.217,0.284,0.25,0.45l0.05,0.3c0,0.301-0.1,0.534-0.3,0.7c-0.2,0.233-0.45,0.351-0.75,0.351s-0.566-0.117-0.8-0.351
	C20.625,30.059,20.525,29.825,20.525,29.524z"></path>
<path fill-rule="evenodd" clip-rule="evenodd" fill="#FFFFFF" d="M10.325,43.825c-0.2-0.2-0.3-0.434-0.3-0.7v-0.05
	c0-0.267,0.1-0.517,0.3-0.75c0.233-0.167,0.5-0.25,0.8-0.25c0.267,0,0.517,0.083,0.75,0.25l0.05,0.05c0.2,0.2,0.301,0.434,0.301,0.7
	v0.05c0,0.267-0.117,0.5-0.351,0.7c0.233-0.2,0.351-0.434,0.351-0.7v-0.05c0-0.267-0.101-0.5-0.301-0.7l-0.05-0.05
	c-0.233-0.167-0.483-0.25-0.75-0.25c-0.3,0-0.566,0.083-0.8,0.25c-0.2,0.233-0.3,0.483-0.3,0.75v0.05
	C10.025,43.392,10.125,43.625,10.325,43.825c0.233,0.233,0.5,0.35,0.8,0.35c0.267,0,0.517-0.116,0.75-0.35
	c-0.233,0.199-0.483,0.3-0.75,0.3C10.825,44.125,10.559,44.024,10.325,43.825z"></path>
<path fill-rule="evenodd" clip-rule="evenodd" fill="#FFFFFF" d="M2.275,4.475v24.25V4.475z"></path>
<path fill-rule="evenodd" clip-rule="evenodd" fill="#FFFFFF" d="M34.575,3.024c0-0.466-0.167-0.866-0.5-1.199
	c-0.3-0.233-0.684-0.351-1.15-0.351c-0.433,0-0.816,0.117-1.149,0.351c-0.167,0.233-0.283,0.466-0.351,0.699
	c-0.1,0.167-0.149,0.334-0.149,0.5c0,0.434,0.167,0.784,0.5,1.051c0.333,0.3,0.717,0.449,1.149,0.449c0.2,0,0.367-0.017,0.5-0.05
	c0.268-0.1,0.483-0.233,0.65-0.399C34.408,3.809,34.575,3.458,34.575,3.024c0,0.434-0.167,0.784-0.5,1.051
	c-0.167,0.166-0.383,0.3-0.65,0.399c-0.133,0.033-0.3,0.05-0.5,0.05c-0.433,0-0.816-0.149-1.149-0.449
	c-0.333-0.267-0.5-0.617-0.5-1.051c0-0.166,0.05-0.333,0.149-0.5c0.067-0.233,0.184-0.466,0.351-0.699
	c0.333-0.233,0.717-0.351,1.149-0.351c0.467,0,0.851,0.117,1.15,0.351C34.408,2.158,34.575,2.559,34.575,3.024z"></path>
<path fill-rule="evenodd" clip-rule="evenodd" fill="#FFFFFF" d="M33.476,28.725c-0.268,0.134-0.518,0.283-0.75,0.45
	c-0.301,0.3-0.45,0.65-0.45,1.05c0,0.5,0.149,0.867,0.45,1.101c0.232,0.233,0.467,0.383,0.699,0.449
	c0.167,0.034,0.317,0.051,0.45,0.051c0.467,0,0.851-0.167,1.15-0.5c0.333-0.233,0.5-0.601,0.5-1.101c0-0.399-0.167-0.75-0.5-1.05
	c-0.3-0.3-0.684-0.45-1.15-0.45C33.742,28.725,33.608,28.725,33.476,28.725l-0.051-24.25L33.476,28.725c0.133,0,0.267,0,0.399,0
	c0.467,0,0.851,0.15,1.15,0.45c0.333,0.3,0.5,0.65,0.5,1.05c0,0.5-0.167,0.867-0.5,1.101c-0.3,0.333-0.684,0.5-1.15,0.5
	c-0.133,0-0.283-0.017-0.45-0.051c-0.232-0.066-0.467-0.216-0.699-0.449c-0.301-0.233-0.45-0.601-0.45-1.101
	c0-0.399,0.149-0.75,0.45-1.05C32.958,29.008,33.208,28.858,33.476,28.725z"></path>
<path fill-rule="evenodd" clip-rule="evenodd" fill="#FFFFFF" d="M31.425,2.524h-27.1H31.425z"></path>
<path fill-rule="evenodd" clip-rule="evenodd" fill="#FFFFFF" d="M2.325,31.825v24.3c0.133-0.033,0.267-0.05,0.4-0.05
	c0.5,0,0.899,0.133,1.199,0.399c0.301,0.334,0.45,0.7,0.45,1.101c0,0.233-0.033,0.433-0.1,0.6h27.25c-0.167-0.2-0.25-0.434-0.25-0.7
	c0-0.434,0.167-0.816,0.5-1.149c0.333-0.267,0.717-0.4,1.149-0.4c0.2,0,0.367,0.017,0.5,0.05v-24.2v24.2
	c-0.133-0.033-0.3-0.05-0.5-0.05c-0.433,0-0.816,0.134-1.149,0.4c-0.333,0.333-0.5,0.716-0.5,1.149c0,0.267,0.083,0.5,0.25,0.7
	H4.275c0.066-0.167,0.1-0.366,0.1-0.6c0-0.4-0.149-0.767-0.45-1.101c-0.3-0.267-0.699-0.399-1.199-0.399
	c-0.134,0-0.268,0.017-0.4,0.05V31.825z"></path>
<path fill-rule="evenodd" clip-rule="evenodd" fill="#FFFFFF" d="M31.525,58.175c0.066,0.134,0.149,0.25,0.25,0.35
	c0.333,0.334,0.717,0.5,1.149,0.5c0.467,0,0.851-0.166,1.15-0.5c0.333-0.267,0.5-0.616,0.5-1.05s-0.167-0.816-0.5-1.149
	c-0.167-0.167-0.383-0.284-0.65-0.351c0.268,0.066,0.483,0.184,0.65,0.351c0.333,0.333,0.5,0.716,0.5,1.149s-0.167,0.783-0.5,1.05
	c-0.3,0.334-0.684,0.5-1.15,0.5c-0.433,0-0.816-0.166-1.149-0.5C31.675,58.425,31.592,58.309,31.525,58.175z"></path>
<path fill-rule="evenodd" clip-rule="evenodd" fill="#FFFFFF" d="M2.325,56.125c-0.267,0.033-0.517,0.149-0.75,0.35
	c-0.267,0.334-0.4,0.7-0.4,1.101c0,0.5,0.134,0.866,0.4,1.1c0.333,0.333,0.717,0.5,1.15,0.5c0.5,0,0.899-0.167,1.199-0.5
	c0.167-0.134,0.283-0.3,0.351-0.5c-0.067,0.2-0.184,0.366-0.351,0.5c-0.3,0.333-0.699,0.5-1.199,0.5c-0.434,0-0.817-0.167-1.15-0.5
	c-0.267-0.233-0.4-0.6-0.4-1.1c0-0.4,0.134-0.767,0.4-1.101C1.809,56.274,2.059,56.158,2.325,56.125z"></path>
<path fill-rule="evenodd" clip-rule="evenodd" fill="none" stroke="#383635" stroke-width="0.3" d="M3.976,1.825
	c-0.301-0.233-0.684-0.351-1.15-0.351s-0.867,0.117-1.2,0.351c-0.3,0.333-0.45,0.733-0.45,1.199c0,0.434,0.15,0.784,0.45,1.051
	c0.2,0.166,0.417,0.3,0.65,0.399c0.167,0.033,0.35,0.05,0.55,0.05c0.434,0,0.816-0.149,1.15-0.449c0.333-0.267,0.5-0.617,0.5-1.051
	c0-0.166-0.051-0.333-0.15-0.5C4.259,2.258,4.142,2.024,3.976,1.825z" style="stroke: rgb(0, 0, 0);"></path>
<path fill-rule="evenodd" clip-rule="evenodd" fill="none" stroke="#383635" stroke-width="0.3" d="M7.476,9.325l0.35,1
	c0.033,0.066,0.083,0.166,0.15,0.3c4.699,12.767,9.399,25.55,14.1,38.35l-0.4,0.15L6.775,9.625L7.476,9.325z" style="stroke: rgb(0, 0, 0);"></path>
<path fill-rule="evenodd" clip-rule="evenodd" fill="none" stroke="#383635" stroke-width="0.3" d="M13.625,15.225l-0.05-0.35
	c0-0.267,0.1-0.5,0.3-0.7c0.233-0.233,0.483-0.35,0.75-0.35c0.3,0,0.583,0.116,0.851,0.35c0.166,0.2,0.25,0.434,0.25,0.7v0.35
	c-0.067,0.134-0.15,0.267-0.25,0.4c-0.268,0.2-0.551,0.3-0.851,0.3c-0.267,0-0.517-0.1-0.75-0.3
	C13.742,15.491,13.658,15.358,13.625,15.225z" style="stroke: rgb(0, 0, 0);"></path>
<path fill-rule="evenodd" clip-rule="evenodd" fill="none" stroke="#383635" stroke-width="0.3" d="M16.325,18.475
	c-0.1-0.133-0.167-0.283-0.2-0.45c-0.033-0.066-0.05-0.149-0.05-0.25v-0.05c0-0.233,0.083-0.483,0.25-0.75
	c0.267-0.166,0.533-0.25,0.8-0.25s0.517,0.084,0.75,0.25c0.233,0.267,0.351,0.517,0.351,0.75v0.05c0,0.267-0.117,0.5-0.351,0.7
	s-0.483,0.3-0.75,0.3S16.592,18.675,16.325,18.475z" style="stroke: rgb(0, 0, 0);"></path>
<path fill-rule="evenodd" clip-rule="evenodd" fill="none" stroke="#383635" stroke-width="0.3" d="M0.976,0.975
	c0.633-0.566,1.366-0.85,2.199-0.85h29.5c0.834,0,1.567,0.283,2.2,0.85c0.567,0.566,0.851,1.267,0.851,2.101v54.199
	c0,0.801-0.283,1.517-0.851,2.15c-0.633,0.533-1.366,0.8-2.2,0.8h-29.5c-0.833,0-1.566-0.267-2.199-0.8
	c-0.567-0.634-0.851-1.35-0.851-2.15V3.075C0.125,2.241,0.408,1.541,0.976,0.975z" style="stroke: rgb(0, 0, 0);"></path>
<path fill-rule="evenodd" clip-rule="evenodd" fill="none" stroke="#383635" stroke-width="0.3" d="M0.425,30.225
	c0,0.5,0.167,0.867,0.5,1.101c0.301,0.333,0.667,0.5,1.101,0.5c0.1,0,0.2,0,0.3,0c0.333-0.034,0.633-0.2,0.9-0.5
	c0.3-0.233,0.449-0.601,0.449-1.101c0-0.399-0.149-0.75-0.449-1.05c-0.268-0.233-0.584-0.384-0.95-0.45c-0.101,0-0.184,0-0.25,0
	c-0.434,0-0.8,0.15-1.101,0.45C0.592,29.475,0.425,29.825,0.425,30.225z" style="stroke: rgb(0, 0, 0);"></path>
<path fill-rule="evenodd" clip-rule="evenodd" fill="none" stroke="#383635" stroke-width="0.3" d="M20.525,29.524
	c0,0.301,0.1,0.534,0.3,0.7c0.233,0.233,0.5,0.351,0.8,0.351s0.55-0.117,0.75-0.351c0.2-0.166,0.3-0.399,0.3-0.7l-0.05-0.3
	c-0.033-0.166-0.116-0.316-0.25-0.45c-0.167-0.166-0.35-0.267-0.55-0.3h-0.35c-0.233,0.033-0.45,0.134-0.65,0.3
	c-0.133,0.134-0.217,0.284-0.25,0.45L20.525,29.524z" style="stroke: rgb(0, 0, 0);"></path>
<path fill-rule="evenodd" clip-rule="evenodd" fill="none" stroke="#383635" stroke-width="0.3" d="M11.875,43.825
	c-0.233,0.199-0.483,0.3-0.75,0.3c-0.3,0-0.566-0.101-0.8-0.3c-0.2-0.2-0.3-0.434-0.3-0.7v-0.05c0-0.267,0.1-0.517,0.3-0.75
	c0.233-0.167,0.5-0.25,0.8-0.25c0.267,0,0.517,0.083,0.75,0.25l0.05,0.05c0.2,0.2,0.301,0.434,0.301,0.7v0.05
	C12.226,43.392,12.108,43.625,11.875,43.825z" style="stroke: rgb(0, 0, 0);"></path>
<line fill-rule="evenodd" clip-rule="evenodd" fill="none" stroke="#383635" stroke-width="0.3" x1="2.275" y1="4.475" x2="2.275" y2="28.725" style="stroke: rgb(0, 0, 0);"></line>
<path fill-rule="evenodd" clip-rule="evenodd" fill="none" stroke="#383635" stroke-width="0.3" d="M34.575,3.024
	c0-0.466-0.167-0.866-0.5-1.199c-0.3-0.233-0.684-0.351-1.15-0.351c-0.433,0-0.816,0.117-1.149,0.351
	c-0.167,0.233-0.283,0.466-0.351,0.699c-0.1,0.167-0.149,0.334-0.149,0.5c0,0.434,0.167,0.784,0.5,1.051
	c0.333,0.3,0.717,0.449,1.149,0.449c0.2,0,0.367-0.017,0.5-0.05c0.268-0.1,0.483-0.233,0.65-0.399
	C34.408,3.809,34.575,3.458,34.575,3.024z" style="stroke: rgb(0, 0, 0);"></path>
<path fill-rule="evenodd" clip-rule="evenodd" fill="none" stroke="#383635" stroke-width="0.3" d="M33.476,28.725
	c-0.268,0.134-0.518,0.283-0.75,0.45c-0.301,0.3-0.45,0.65-0.45,1.05c0,0.5,0.149,0.867,0.45,1.101
	c0.232,0.233,0.467,0.383,0.699,0.449c0.167,0.034,0.317,0.051,0.45,0.051c0.467,0,0.851-0.167,1.15-0.5
	c0.333-0.233,0.5-0.601,0.5-1.101c0-0.399-0.167-0.75-0.5-1.05c-0.3-0.3-0.684-0.45-1.15-0.45
	C33.742,28.725,33.608,28.725,33.476,28.725l-0.051-24.25" style="stroke: rgb(0, 0, 0);"></path>
<line fill-rule="evenodd" clip-rule="evenodd" fill="none" stroke="#383635" stroke-width="0.3" x1="31.425" y1="2.524" x2="4.325" y2="2.524" style="stroke: rgb(0, 0, 0);"></line>
<path fill-rule="evenodd" clip-rule="evenodd" fill="none" stroke="#383635" stroke-width="0.3" d="M2.325,31.825v24.3
	c0.133-0.033,0.267-0.05,0.4-0.05c0.5,0,0.899,0.133,1.199,0.399c0.301,0.334,0.45,0.7,0.45,1.101c0,0.233-0.033,0.433-0.1,0.6
	h27.25c-0.167-0.2-0.25-0.434-0.25-0.7c0-0.434,0.167-0.816,0.5-1.149c0.333-0.267,0.717-0.4,1.149-0.4c0.2,0,0.367,0.017,0.5,0.05
	v-24.2" style="stroke: rgb(0, 0, 0);"></path>
<path fill-rule="evenodd" clip-rule="evenodd" fill="none" stroke="#383635" stroke-width="0.3" d="M31.525,58.175
	c0.066,0.134,0.149,0.25,0.25,0.35c0.333,0.334,0.717,0.5,1.149,0.5c0.467,0,0.851-0.166,1.15-0.5c0.333-0.267,0.5-0.616,0.5-1.05
	s-0.167-0.816-0.5-1.149c-0.167-0.167-0.383-0.284-0.65-0.351" style="stroke: rgb(0, 0, 0);"></path>
<path fill-rule="evenodd" clip-rule="evenodd" fill="none" stroke="#383635" stroke-width="0.3" d="M2.325,56.125
	c-0.267,0.033-0.517,0.149-0.75,0.35c-0.267,0.334-0.4,0.7-0.4,1.101c0,0.5,0.134,0.866,0.4,1.1c0.333,0.333,0.717,0.5,1.15,0.5
	c0.5,0,0.899-0.167,1.199-0.5c0.167-0.134,0.283-0.3,0.351-0.5" style="stroke: rgb(0, 0, 0);"></path>
</svg>