<svg version="1.1" id="Layer_1" xmlns="http://www.w3.org/2000/svg" xmlns:xlink="http://www.w3.org/1999/xlink" x="0px" y="0px" width="33.149px" height="48.9px" viewBox="0 0 33.149 48.9" enable-background="new 0 0 33.149 48.9" xml:space="preserve" class="ng-scope">
<path fill-rule="evenodd" clip-rule="evenodd" fill="#FFFFFF" d="M3.025,1.125h22.3v1.95h0.15c0.333,0,0.65,0,0.95,0h0.8h-0.8
	c-0.3,0-0.617,0-0.95,0h-0.15v-1.95v-1h2.9v2.95h-1v23.7h1.5h4.3v1.5h-0.3h-0.85h-0.351h-1h-0.449h-1.101h1.101v14.5h-1.101h1.101
	h0.449v-14.5h1v14.5h-1h1h0.351h0.85h0.3v1.5h-4.3h-1.5v1.55h1v2.95h-1.8c-0.3,0-0.617,0-0.95,0h-0.15v-1h-22.3v1h-1.8
	c-0.3,0-0.616,0-0.95,0h-0.15v-2.95h1.1V3.075h1.8V1.125v1.95h-1.8c-0.3,0-0.616,0-0.95,0h-0.15v-2.95h2.9V1.125z M24.825,2.976
	v10.35c0.167-0.033,0.333-0.033,0.5,0h0.05c0.4,0.101,0.633,0.417,0.7,0.95c0.1,0.434,0.1,0.833,0,1.2
	c0.267,1.233,0.45,2.733,0.55,4.5c0.033,1.399,0.017,2.633-0.05,3.7c-0.066,0.466-0.367,0.833-0.9,1.1h-0.1
	c0.067,11.967,0.1,18.6,0.1,19.9c0,0.399-0.117,0.75-0.35,1.05l-0.1,0.1c-0.2,0.101-0.433,0.15-0.7,0.15h-1.1
	c-2.9,0-5.883,0.017-8.95,0.05c-6,0-9.366-0.017-10.1-0.05h-0.05c-0.3,0-0.533-0.05-0.7-0.15c-0.034,0-0.067-0.017-0.1-0.05
	c-0.2-0.134-0.333-0.3-0.4-0.5l-0.25-20.35c-0.5-0.034-0.833-0.184-1-0.45c-0.034-0.066-0.05-0.3-0.05-0.7
	c0-0.2,0.017-0.634,0.05-1.3c0.066-0.767,0.1-1.3,0.1-1.601c0.1-0.199,0.184-0.35,0.25-0.449c0.034-0.134,0-0.334-0.1-0.601
	c-0.1-0.233-0.15-0.967-0.15-2.2c0.1-1.033,0.184-2.033,0.25-3c0.067-0.566,0.134-0.933,0.2-1.1c0.066-0.033,0.1-0.083,0.1-0.15
	h0.45l0.1-10c-0.033-0.1-0.017-0.166,0.05-0.199l1.25-0.2h1.35c0.6-0.2,1.567-0.2,2.9,0c0.667,0,1.5,0,2.5,0
	c0.2,0.066,1.633,0.066,4.3,0c2.5,0,4.2,0,5.1,0c1.1,0.066,2.1,0.066,3,0h0.15c0.267,0,0.5-0.05,0.7-0.15h0.05v0.15H24.825h-0.4
	v-0.15h-0.05c-0.2,0.101-0.434,0.15-0.7,0.15h-0.15c-0.9,0.066-1.9,0.066-3,0c-0.9,0-2.6,0-5.1,0c-2.667,0.066-4.1,0.066-4.3,0
	c-1,0-1.833,0-2.5,0c-1.333-0.2-2.3-0.2-2.9,0h-1.35l-1.25,0.2c-0.067,0.033-0.083,0.1-0.05,0.199l-0.1,10h-0.45
	c0,0.067-0.034,0.117-0.1,0.15c-0.066,0.167-0.133,0.533-0.2,1.1c-0.066,0.967-0.15,1.967-0.25,3c0,1.233,0.05,1.967,0.15,2.2
	c0.1,0.267,0.133,0.467,0.1,0.601c-0.066,0.1-0.15,0.25-0.25,0.449c0,0.301-0.033,0.834-0.1,1.601c-0.034,0.666-0.05,1.1-0.05,1.3
	c0,0.4,0.017,0.634,0.05,0.7c0.167,0.267,0.5,0.416,1,0.45l0.25,20.35c0.066,0.2,0.2,0.366,0.4,0.5c0.033,0.033,0.066,0.05,0.1,0.05
	c0.167,0.101,0.4,0.15,0.7,0.15h0.05c0.733,0.033,4.1,0.05,10.1,0.05c3.067-0.033,6.05-0.05,8.95-0.05h1.1
	c0.267,0,0.5-0.05,0.7-0.15l0.1-0.1c0.233-0.3,0.35-0.65,0.35-1.05c0-1.301-0.033-7.934-0.1-19.9h0.1
	c0.533-0.267,0.833-0.634,0.9-1.1c0.067-1.067,0.083-2.301,0.05-3.7c-0.1-1.767-0.284-3.267-0.55-4.5c0.1-0.367,0.1-0.767,0-1.2
	c-0.066-0.533-0.3-0.85-0.7-0.95h-0.05c-0.167-0.033-0.333-0.033-0.5,0V2.976z M24.475,8.976c-0.167-0.834-0.233-1.95-0.2-3.351
	l0.15-2.649l-0.15,2.649C24.241,7.025,24.308,8.142,24.475,8.976z M3.075,3.375c0.034,0,0.05,0.017,0.05,0.051
	c0.066,0.1,0.2,0.25,0.4,0.449c0.433,0.301,0.683,0.617,0.75,0.95c0.066,0.167,0.017,0.467-0.15,0.9
	c-0.267,0.967-0.4,1.883-0.4,2.75c0.034,0.633,0.034,1.133,0,1.5h1.4c1.066,0.066,2.083,0.083,3.05,0.05c0-0.033,0-0.116,0-0.25
	c0-1.167-0.133-2.283-0.4-3.35c-0.1-0.834,0.133-1.301,0.7-1.4c0.4-0.066,0.767-0.017,1.1,0.15l2,0.449
	c1.633,0.167,2.983,0.2,4.05,0.101c0.8-0.066,2.066-0.3,3.8-0.7c1.4-0.1,2,0.184,1.8,0.85c-0.1,0.733-0.183,1.184-0.25,1.351
	c0,0.066-0.05,0.25-0.15,0.55c0,0.2-0.017,0.783-0.05,1.75c0,0.267,0,0.45,0,0.55c0.167,0,0.716,0.033,1.65,0.101
	c0.3,0.066,0.667,0.1,1.1,0.1c-0.434,0-0.8-0.033-1.1-0.1c-0.934-0.067-1.483-0.101-1.65-0.101c0-0.1,0-0.283,0-0.55
	c0.033-0.967,0.05-1.55,0.05-1.75c0.1-0.3,0.15-0.483,0.15-0.55c0.067-0.167,0.15-0.617,0.25-1.351c0.2-0.666-0.4-0.949-1.8-0.85
	c-1.733,0.4-3,0.634-3.8,0.7c-1.067,0.1-2.417,0.066-4.05-0.101l-2-0.449c-0.333-0.167-0.7-0.217-1.1-0.15
	c-0.566,0.1-0.8,0.566-0.7,1.4c0.267,1.066,0.4,2.183,0.4,3.35c0,0.134,0,0.217,0,0.25c-0.967,0.033-1.983,0.017-3.05-0.05h-1.4
	c0.034-0.367,0.034-0.867,0-1.5c0-0.867,0.134-1.783,0.4-2.75c0.167-0.434,0.216-0.733,0.15-0.9c-0.067-0.333-0.317-0.649-0.75-0.95
	c-0.2-0.199-0.333-0.35-0.4-0.449C3.125,3.392,3.108,3.375,3.075,3.375z M27.225,26.775h-0.55v1.5h0.5v14.5h-0.5v1.5h0.55h-0.55
	v-1.5h0.5v-14.5h-0.5v-1.5H27.225z M23.525,10.275c0.633-0.3,0.95-0.733,0.95-1.3C24.475,9.542,24.158,9.976,23.525,10.275z
	 M20.775,10.075c-0.1,0.533-0.1,0.9,0,1.101c0.033,0.133,0.183,0.433,0.45,0.899c0.2,0.434,0.067,0.75-0.4,0.95
	c-0.167,0.167-0.283,0.316-0.35,0.45c0.1,0,0.65,0,1.65,0c0.667,0,1.283-0.033,1.85-0.101c0.233-0.033,0.45-0.05,0.65-0.05
	c0.033,0,0.066,0,0.1,0c0.034,0,0.067,0,0.1,0c-0.033,0-0.066,0-0.1,0c-0.033,0-0.066,0-0.1,0c-0.2,0-0.417,0.017-0.65,0.05
	c-0.566,0.067-1.183,0.101-1.85,0.101c-1,0-1.55,0-1.65,0c0.067-0.134,0.184-0.283,0.35-0.45c0.467-0.2,0.6-0.517,0.4-0.95
	c-0.267-0.467-0.417-0.767-0.45-0.899C20.675,10.976,20.675,10.608,20.775,10.075z M10.925,14.176
	c-0.233-0.067-0.467-0.117-0.7-0.15c-1.167-0.3-1.983-0.55-2.45-0.75c-0.133,0-0.267,0.017-0.4,0.05
	c-1.634,0.033-2.767,0.05-3.4,0.05c-0.267,0-0.417,0-0.45,0h-0.55h0.55c0.033,0,0.183,0,0.45,0c0.634,0,1.767-0.017,3.4-0.05
	c0.133-0.033,0.267-0.05,0.4-0.05c0.466,0.2,1.283,0.45,2.45,0.75C10.458,14.059,10.691,14.108,10.925,14.176z M10.675,11.375
	c0,0.467,0.1,1.067,0.3,1.801c-0.033,0.333-0.05,0.666-0.05,1c-0.033,0.966-0.017,1.899,0.05,2.8l-0.2,0.649
	c-0.067,0.2,0,0.301,0.2,0.301c0.4-0.101,0.784-0.267,1.15-0.5c2.066,0.166,3.65,0.25,4.75,0.25l0.75,0.1
	c0.3-0.033,0.4-0.15,0.3-0.35c0.133-1.233,0.133-2.301,0-3.2c-0.066-0.367-0.15-0.7-0.25-1c0.167-0.967,0.25-1.617,0.25-1.95
	c0-0.4-0.117-0.517-0.35-0.35c-1.2-0.034-2.533,0.05-4,0.25c-1.2,0.066-2.083,0.017-2.65-0.15
	C10.758,11.025,10.675,11.142,10.675,11.375c0-0.233,0.083-0.35,0.25-0.35c0.566,0.167,1.45,0.217,2.65,0.15
	c1.467-0.2,2.8-0.284,4-0.25c0.233-0.167,0.35-0.051,0.35,0.35c0,0.333-0.083,0.983-0.25,1.95c0.1,0.3,0.184,0.633,0.25,1
	c0.133,0.899,0.133,1.967,0,3.2c0.1,0.199,0,0.316-0.3,0.35l-0.75-0.1c-1.1,0-2.684-0.084-4.75-0.25
	c-0.367,0.233-0.75,0.399-1.15,0.5c-0.2,0-0.267-0.101-0.2-0.301l0.2-0.649c-0.066-0.9-0.083-1.834-0.05-2.8
	c0-0.334,0.017-0.667,0.05-1C10.775,12.442,10.675,11.842,10.675,11.375z M7.775,13.275c-0.067-0.033-0.184-0.116-0.35-0.25
	c-0.167-0.167-0.184-0.35-0.05-0.55c0.2-0.233,0.383-0.434,0.55-0.601c0.167-0.3,0.25-0.916,0.25-1.85c0,0.934-0.083,1.55-0.25,1.85
	c-0.167,0.167-0.35,0.367-0.55,0.601c-0.134,0.2-0.117,0.383,0.05,0.55C7.591,13.159,7.708,13.242,7.775,13.275z M20.475,13.476
	c-0.2,0.066-0.4,0.166-0.6,0.3c-0.2,0.066-0.367,0.116-0.5,0.15c-0.5,0.1-0.983,0.199-1.45,0.3c0.467-0.101,0.95-0.2,1.45-0.3
	c0.133-0.034,0.3-0.084,0.5-0.15C20.075,13.642,20.275,13.542,20.475,13.476z M25.575,24.775c-0.066,0.033-0.15,0.066-0.25,0.1
	c-0.133,0.034-0.3,0.051-0.5,0.051c-0.767,0-1.767-0.15-3-0.45c-0.7-0.167-1.35-0.2-1.95-0.101c-0.8,0-1.5,0-2.1,0
	c-0.934,0.067-1.467,0.101-1.6,0.101c-0.5-0.066-1.217-0.101-2.15-0.101c-1.233-0.1-2.967-0.1-5.2,0
	c-1.8,0.067-3.483,0.233-5.05,0.5c-0.3,0.034-0.55,0.051-0.75,0.051c-0.067,0-0.117,0-0.15,0c0.033,0,0.083,0,0.15,0
	c0.2,0,0.45-0.017,0.75-0.051c1.566-0.267,3.25-0.433,5.05-0.5c2.233-0.1,3.967-0.1,5.2,0c0.933,0,1.65,0.034,2.15,0.101
	c0.133,0,0.667-0.033,1.6-0.101c0.6,0,1.3,0,2.1,0c0.6-0.1,1.25-0.066,1.95,0.101c1.233,0.3,2.233,0.45,3,0.45
	c0.2,0,0.367-0.017,0.5-0.051C25.425,24.842,25.508,24.809,25.575,24.775z M28.375,28.275h-1.2H28.375z M28.725,26.775v1.5h-0.35
	v14.5h0.35h0.25v-14.5h-0.25V26.775z M27.175,42.775h1.2H27.175z M28.725,44.275v-1.5V44.275z M25.325,47.775v-1.95h1.9h-1.9V47.775
	z M3.025,47.775v-1.95h-1.8h1.8V47.775z"></path>
<rect x="31.875" y="28.275" fill-rule="evenodd" clip-rule="evenodd" fill="#736553" width="0.85" height="14.5" style="fill: rgb(0, 0, 0);"></rect>
<path fill-rule="evenodd" clip-rule="evenodd" fill="none" stroke="#383635" stroke-width="0.3" stroke-linecap="round" stroke-linejoin="round" stroke-miterlimit="3" d="
	M23.525,10.275c0.633-0.3,0.95-0.733,0.95-1.3" style="stroke: rgb(0, 0, 0);"></path>
<path fill-rule="evenodd" clip-rule="evenodd" fill="none" stroke="#383635" stroke-width="0.3" d="M27.225,3.075h1v-2.95h-2.9v1
	v1.95h0.15c0.333,0,0.65,0,0.95,0H27.225v23.7h1.5h4.3v1.5h-0.3v14.5h0.3v1.5h-4.3h-1.5v1.55h1v2.95h-1.8c-0.3,0-0.617,0-0.95,0
	h-0.15v-1h-22.3v1h-1.8c-0.3,0-0.616,0-0.95,0h-0.15v-2.95h1.1V3.075 M24.825,2.976v10.35c0.167-0.033,0.333-0.033,0.5,0h0.05
	c0.4,0.101,0.633,0.417,0.7,0.95c0.1,0.434,0.1,0.833,0,1.2c0.267,1.233,0.45,2.733,0.55,4.5c0.033,1.399,0.017,2.633-0.05,3.7
	c-0.066,0.466-0.367,0.833-0.9,1.1h-0.1c0.067,11.967,0.1,18.6,0.1,19.9c0,0.399-0.117,0.75-0.35,1.05l-0.1,0.1
	c-0.2,0.101-0.433,0.15-0.7,0.15h-1.1c-2.9,0-5.883,0.017-8.95,0.05c-6,0-9.366-0.017-10.1-0.05h-0.05c-0.3,0-0.533-0.05-0.7-0.15
	c-0.034,0-0.067-0.017-0.1-0.05c-0.2-0.134-0.333-0.3-0.4-0.5l-0.25-20.35c-0.5-0.034-0.833-0.184-1-0.45
	c-0.034-0.066-0.05-0.3-0.05-0.7c0-0.2,0.017-0.634,0.05-1.3c0.066-0.767,0.1-1.3,0.1-1.601c0.1-0.199,0.184-0.35,0.25-0.449
	c0.034-0.134,0-0.334-0.1-0.601c-0.1-0.233-0.15-0.967-0.15-2.2c0.1-1.033,0.184-2.033,0.25-3c0.067-0.566,0.134-0.933,0.2-1.1
	c0.066-0.033,0.1-0.083,0.1-0.15h0.45l0.1-10c-0.033-0.1-0.017-0.166,0.05-0.199l1.25-0.2h1.35c0.6-0.2,1.567-0.2,2.9,0
	c0.667,0,1.5,0,2.5,0c0.2,0.066,1.633,0.066,4.3,0c2.5,0,4.2,0,5.1,0c1.1,0.066,2.1,0.066,3,0h0.15c0.267,0,0.5-0.05,0.7-0.15h0.05
	v0.15H24.825z M24.475,8.976c-0.167-0.834-0.233-1.95-0.2-3.351l0.15-2.649 M3.075,3.375c0.034,0,0.05,0.017,0.05,0.051
	c0.066,0.1,0.2,0.25,0.4,0.449c0.433,0.301,0.683,0.617,0.75,0.95c0.066,0.167,0.017,0.467-0.15,0.9
	c-0.267,0.967-0.4,1.883-0.4,2.75c0.034,0.633,0.034,1.133,0,1.5h1.4c1.066,0.066,2.083,0.083,3.05,0.05c0-0.033,0-0.116,0-0.25
	c0-1.167-0.133-2.283-0.4-3.35c-0.1-0.834,0.133-1.301,0.7-1.4c0.4-0.066,0.767-0.017,1.1,0.15l2,0.449
	c1.633,0.167,2.983,0.2,4.05,0.101c0.8-0.066,2.066-0.3,3.8-0.7c1.4-0.1,2,0.184,1.8,0.85c-0.1,0.733-0.183,1.184-0.25,1.351
	c0,0.066-0.05,0.25-0.15,0.55c0,0.2-0.017,0.783-0.05,1.75c0,0.267,0,0.45,0,0.55c0.167,0,0.716,0.033,1.65,0.101
	c0.3,0.066,0.667,0.1,1.1,0.1 M20.775,10.075c-0.1,0.533-0.1,0.9,0,1.101c0.033,0.133,0.183,0.433,0.45,0.899
	c0.2,0.434,0.067,0.75-0.4,0.95c-0.167,0.167-0.283,0.316-0.35,0.45c0.1,0,0.65,0,1.65,0c0.667,0,1.283-0.033,1.85-0.101
	c0.233-0.033,0.45-0.05,0.65-0.05c0.033,0,0.066,0,0.1,0c0.034,0,0.067,0,0.1,0 M3.025,1.125v-1h-2.9v2.95h0.15
	c0.333,0,0.65,0,0.95,0h1.8V1.125z M10.925,14.176c-0.233-0.067-0.467-0.117-0.7-0.15c-1.167-0.3-1.983-0.55-2.45-0.75
	c-0.133,0-0.267,0.017-0.4,0.05c-1.634,0.033-2.767,0.05-3.4,0.05c-0.267,0-0.417,0-0.45,0h-0.55 M7.775,13.275
	c-0.067-0.033-0.184-0.116-0.35-0.25c-0.167-0.167-0.184-0.35-0.05-0.55c0.2-0.233,0.383-0.434,0.55-0.601
	c0.167-0.3,0.25-0.916,0.25-1.85 M20.475,13.476c-0.2,0.066-0.4,0.166-0.6,0.3c-0.2,0.066-0.367,0.116-0.5,0.15
	c-0.5,0.1-0.983,0.199-1.45,0.3 M25.575,24.775c-0.066,0.033-0.15,0.066-0.25,0.1c-0.133,0.034-0.3,0.051-0.5,0.051
	c-0.767,0-1.767-0.15-3-0.45c-0.7-0.167-1.35-0.2-1.95-0.101c-0.8,0-1.5,0-2.1,0c-0.934,0.067-1.467,0.101-1.6,0.101
	c-0.5-0.066-1.217-0.101-2.15-0.101c-1.233-0.1-2.967-0.1-5.2,0c-1.8,0.067-3.483,0.233-5.05,0.5c-0.3,0.034-0.55,0.051-0.75,0.051
	c-0.067,0-0.117,0-0.15,0 M27.225,44.275h-0.55v-1.5h0.5v-14.5h-0.5v-1.5h0.55 M28.975,28.275h1.101h0.449h1h0.351h0.85
	 M28.725,28.275h-0.35v14.5h0.35h0.25v-14.5H28.725z M28.375,28.275h-1.2 M28.725,26.775v1.5 M25.325,1.125h-22.3 M32.725,42.775
	h-0.85h-0.351h-1h-0.449h-1.101 M27.175,42.775h1.2 M28.725,44.275v-1.5 M25.325,47.775v-1.95h1.9 M3.025,47.775v-1.95h-1.8
	 M30.524,42.775v-14.5 M30.075,28.275v14.5 M31.875,42.775v-14.5 M31.524,42.775v-14.5" style="stroke: rgb(0, 0, 0);"></path>
<path fill-rule="evenodd" clip-rule="evenodd" fill="none" stroke="#474442" stroke-width="0.3" stroke-linecap="round" stroke-linejoin="round" stroke-miterlimit="3" d="
	M10.675,11.375c0,0.467,0.1,1.067,0.3,1.801c-0.033,0.333-0.05,0.666-0.05,1c-0.033,0.966-0.017,1.899,0.05,2.8l-0.2,0.649
	c-0.067,0.2,0,0.301,0.2,0.301c0.4-0.101,0.784-0.267,1.15-0.5c2.066,0.166,3.65,0.25,4.75,0.25l0.75,0.1
	c0.3-0.033,0.4-0.15,0.3-0.35c0.133-1.233,0.133-2.301,0-3.2c-0.066-0.367-0.15-0.7-0.25-1c0.167-0.967,0.25-1.617,0.25-1.95
	c0-0.4-0.117-0.517-0.35-0.35c-1.2-0.034-2.533,0.05-4,0.25c-1.2,0.066-2.083,0.017-2.65-0.15
	C10.758,11.025,10.675,11.142,10.675,11.375z" style="stroke: rgb(0, 0, 0);"></path>
</svg>