<svg version="1.1" xmlns="http://www.w3.org/2000/svg" xmlns:xlink="http://www.w3.org/1999/xlink" x="0px" y="0px" width="42px" height="56px" viewBox="0 0 42 56" enable-background="new 0 0 42 56" xml:space="preserve">
<g id="Layer_4">
	<path fill-rule="evenodd" clip-rule="evenodd" fill="#FFFFFF" d="M39.98,4.38c-0.03-0.07-0.07-0.12-0.1-0.15l-2.15-0.15v-3.3V0.43
		h2.7v3.95H39.98z M3.48,0.78v3.45l-1.8,0.15H1.33v0.05C1.26,4.46,1.24,4.51,1.27,4.58h-0.4v-4h2.6V0.78z M38.13,55.28v-3.55
		l1.05-0.05c0.33-0.13,0.57-0.25,0.7-0.35h0.95v4.25h-2.7V55.28z M3.88,55.28v0.3h-2.6v-4.15h1.15c0.2,0.07,0.48,0.15,0.85,0.25h0.1
		c0.1,0,0.27,0.02,0.5,0.05V55.28z"></path>
	<path fill-rule="evenodd" clip-rule="evenodd" fill="#FFFFFF" d="M29.88,4.23c0.03,0,0.08,0,0.15,0c0.53,0,0.85-0.02,0.95-0.05
		c0.33,0,1.28-0.05,2.85-0.15c1.5-0.1,2.62-0.1,3.35,0l0.55,0.05l2.15,0.15c0.03,0.03,0.07,0.08,0.1,0.15c0.03,0.07,0,0.18-0.1,0.35
		c-0.07,0.03-0.2,0.13-0.4,0.3c-0.4,0.4-0.65,0.72-0.75,0.95c-0.07,0.27-0.02,0.6,0.15,1c0.37,0.93,0.52,1.85,0.45,2.75
		c0,0.67,0,1.17,0,1.5c-0.3,0-0.6,0.03-0.9,0.1c-1.43,0.03-2.78,0.05-4.05,0.05c0-0.1,0-0.22,0-0.35c0-1.1,0.13-2.22,0.4-3.35
		c0.2-0.83-0.08-1.28-0.85-1.35l-1.2,0.1c-0.67,0.17-1.48,0.32-2.45,0.45c-0.1,0-0.18,0.02-0.25,0.05c-0.47,0.07-0.9,0.12-1.3,0.15
		c-0.07,0-0.13,0-0.2,0c-0.37-0.03-0.72-0.07-1.05-0.1c-2.07-0.37-3.57-0.58-4.5-0.65c-0.33-0.07-0.7-0.02-1.1,0.15
		c-0.4,0.13-0.62,0.32-0.65,0.55c-0.03,0.2-0.03,0.45,0,0.75c0,0.27,0.05,0.52,0.15,0.75c0,0.1,0.02,0.13,0.05,0.1
		c0.07,0.37,0.12,0.82,0.15,1.35c0.03,0.27,0.05,0.57,0.05,0.9c0,0.1,0,0.22,0,0.35c-0.03,0.2-0.25,0.32-0.65,0.35h-0.6
		c0-0.13,0-0.32,0-0.55c0.07-0.4,0.12-0.75,0.15-1.05c0.03-0.37,0.05-0.62,0.05-0.75c0-0.17,0-0.3,0-0.4
		c0.33-1.93-0.22-2.73-1.65-2.4c-2,0.37-3.45,0.6-4.35,0.7c-0.03,0-0.13,0.03-0.3,0.1l0.2-0.1c-0.23,0.1-0.48,0.15-0.75,0.15
		c-0.2,0-0.4,0-0.6,0c-0.73-0.03-1.53-0.12-2.4-0.25l-2.25-0.5c-0.37-0.1-0.77-0.13-1.2-0.1c-0.73,0.07-0.97,0.55-0.7,1.45
		c0.17,1.07,0.25,2.17,0.25,3.3c0,0.13,0,0.27,0,0.4c-1,0-2.13-0.02-3.4-0.05l-0.55-0.15h-1c0-0.33,0-0.83,0-1.5
		c-0.13-0.8,0.02-1.72,0.45-2.75c0.27-0.43,0.35-0.75,0.25-0.95c-0.1-0.23-0.42-0.57-0.95-1c-0.17-0.13-0.27-0.27-0.3-0.4
		c-0.03-0.07-0.05-0.13-0.05-0.2C1.24,4.51,1.26,4.46,1.33,4.43V4.38h0.35l1.8-0.15l0.65-0.05c0.67-0.07,1.77-0.07,3.3,0
		c0.73,0.03,1.7,0.08,2.9,0.15c0.1,0,1.03,0,2.8,0c0.2,0,0.4,0,0.6,0c0.13,0,0.28,0,0.45,0c0.1,0,0.2,0,0.3,0
		c2.77-0.07,4.62-0.07,5.55,0c0.07,0,0.13,0,0.2,0h0.17c0.16,0,0.29,0.02,0.38,0.05c0.06-0.03,0.13-0.05,0.2-0.05
		c0.23-0.07,0.52-0.12,0.85-0.15c0.97,0,2.92,0,5.85,0c0.3,0,0.58,0,0.85,0c0.3,0,0.58,0.02,0.85,0.05H29.88z M20.77,4.38
		c0.13,0.03,0.25,0.07,0.35,0.1c0.47,0.2,0.8,0.6,1,1.2c-0.2-0.6-0.53-1-1-1.2C21.02,4.44,20.91,4.41,20.77,4.38z"></path>
	<path fill-rule="evenodd" clip-rule="evenodd" fill="#FFFFFF" d="M3.48,4.23V0.78h34.25v3.3l-0.55-0.05c-0.73-0.1-1.85-0.1-3.35,0
		c-1.57,0.1-2.52,0.15-2.85,0.15c-0.1,0.03-0.42,0.05-0.95,0.05c-0.07,0-0.12,0-0.15,0h-0.5c-0.27-0.03-0.55-0.05-0.85-0.05
		c-0.27,0-0.55,0-0.85,0c-2.93,0-4.88,0-5.85,0c-0.33,0.03-0.62,0.08-0.85,0.15c-0.07,0-0.14,0.02-0.2,0.05
		c-0.09-0.03-0.21-0.05-0.38-0.05c0.15,0,0.34,0,0.58,0c-0.23,0-0.42,0-0.58,0h-0.17c-0.07,0-0.13,0-0.2,0
		c-0.93-0.07-2.78-0.07-5.55,0c-0.1,0-0.2,0-0.3,0c-0.17,0-0.32,0-0.45,0c-0.2,0-0.4,0-0.6,0c-1.77,0-2.7,0-2.8,0
		c-1.2-0.07-2.17-0.12-2.9-0.15c-1.53-0.07-2.63-0.07-3.3,0L3.48,4.23z M39.88,4.73v10.05c-0.1,0-0.25,0-0.45,0
		c-0.37,0.03-0.7,0.08-1,0.15v-3.6c0.3-0.07,0.6-0.1,0.9-0.1c0-0.33,0-0.83,0-1.5c0.07-0.9-0.08-1.82-0.45-2.75
		c-0.17-0.4-0.22-0.73-0.15-1c0.1-0.23,0.35-0.55,0.75-0.95C39.68,4.86,39.81,4.76,39.88,4.73z M1.18,14.98l0.15-10.2
		c0.03,0.13,0.13,0.27,0.3,0.4c0.53,0.43,0.85,0.77,0.95,1c0.1,0.2,0.02,0.52-0.25,0.95C1.89,8.16,1.74,9.08,1.88,9.88
		c0,0.67,0,1.17,0,1.5h1v3.45H2.33c-0.67,0-1,0.03-1,0.1L1.18,14.98z M38.13,51.73v3.55H3.88v-3.55c0.27,0,0.58,0,0.95,0h10.1
		c0.07,0,0.12,0,0.15,0h0.45c0.03,0,0.08,0,0.15,0h0.15c0.03,0,0.08,0,0.15,0h0.85c0.03,0,0.08,0,0.15,0h0.7c0.07,0,0.13,0,0.2,0
		h0.15c0.07,0,0.13,0,0.2,0s0.13,0,0.2,0h0.2c0.07,0,0.13,0,0.2,0c0.2,0,0.4,0,0.6,0h2c0.07,0,0.13,0,0.2,0h0.65c0.33,0,0.67,0,1,0
		c1.77,0,3.52,0,5.25,0h1.5c2.4,0,4.77,0,7.1,0c0.23,0,0.47,0,0.7,0H38.13z"></path>
	<path fill-rule="evenodd" clip-rule="evenodd" fill="#FFFFFF" d="M14.48,19.53v-0.05c0.1-0.03,0.22-0.05,0.35-0.05
		c0.4-0.07,0.82-0.07,1.25,0c0.43,0.03,1.02,0.12,1.75,0.25c0.43,0,0.75-0.15,0.95-0.45c0.03-0.23-0.07-0.52-0.3-0.85
		c-0.07-0.23-0.1-0.8-0.1-1.7c0.03-0.5,0.05-0.92,0.05-1.25v-0.65c0-0.43-0.15-0.68-0.45-0.75c-0.2,0-0.72,0.03-1.55,0.1
		c-0.47,0.03-1.12,0.08-1.95,0.15c-0.1,0-0.2,0-0.3,0c-0.17,0-0.32,0-0.45,0c-1.27,0-2.12-0.05-2.55-0.15
		c-0.43-0.07-0.98-0.13-1.65-0.2l-0.8-0.05c-0.43-0.1-0.6,0.02-0.5,0.35c0.1,0.17,0.2,0.32,0.3,0.45c0.13,0.3,0.2,0.63,0.2,1
		c-0.97-0.33-1.68-0.62-2.15-0.85c0.47,0.23,1.18,0.52,2.15,0.85c0,0.5-0.07,0.98-0.2,1.45c-0.07,0.37-0.22,0.87-0.45,1.5
		c-0.1,0.43,0.02,0.67,0.35,0.7c0.07,0,0.35-0.02,0.85-0.05c0.2,0,0.55-0.02,1.05-0.05c0.27,0.03,0.68,0.1,1.25,0.2
		c0.57,0.13,1.28,0.18,2.15,0.15C13.96,19.58,14.21,19.56,14.48,19.53z M20.38,11.58c-0.1,0.7,0,1.35,0.3,1.95
		c0.27,0.57,0.03,1.03-0.7,1.4c-0.17,0.13-0.37,0.25-0.6,0.35c-0.2,0.1-0.52,0.15-0.95,0.15c0.43,0,0.75-0.05,0.95-0.15
		c0.23-0.1,0.43-0.22,0.6-0.35l2.3,0.05c0.13,0.07,0.22,0.12,0.25,0.15c0.3,0.1,0.65,0.15,1.05,0.15c-0.4,0-0.75-0.05-1.05-0.15
		c-0.03-0.03-0.12-0.08-0.25-0.15c-0.3-0.1-0.57-0.32-0.8-0.65c-0.27-0.33-0.2-0.95,0.2-1.85v-0.05c0.07-0.2,0.05-0.6-0.05-1.2
		c0-0.13,0-0.25,0-0.35c0-0.33-0.02-0.63-0.05-0.9c-0.03-0.53-0.08-0.98-0.15-1.35c-0.03,0.03-0.05,0-0.05-0.1
		c-0.1-0.23-0.15-0.48-0.15-0.75c-0.03-0.3-0.03-0.55,0-0.75c0.03-0.23,0.25-0.42,0.65-0.55c0.4-0.17,0.77-0.22,1.1-0.15
		c0.93,0.07,2.43,0.28,4.5,0.65c0.33,0.03,0.68,0.07,1.05,0.1c0.07,0,0.13,0,0.2,0c0.4-0.03,0.83-0.08,1.3-0.15
		c0.07-0.03,0.15-0.05,0.25-0.05c0.97-0.13,1.78-0.28,2.45-0.45l1.2-0.1c0.77,0.07,1.05,0.52,0.85,1.35
		c-0.27,1.13-0.4,2.25-0.4,3.35c0,0.13,0,0.25,0,0.35c0,0.93,0.1,1.53,0.3,1.8c0.13,0.23,0.33,0.47,0.6,0.7
		c0.13,0.17,0.1,0.35-0.1,0.55c-0.27,0.17-0.65,0.33-1.15,0.5c-0.4,0.13-0.9,0.27-1.5,0.4c0-0.23,0.07-0.48,0.2-0.75
		c0.07-0.2,0.17-0.37,0.3-0.5c0.03-0.3-0.13-0.43-0.5-0.4c-0.9,0-1.73,0.08-2.5,0.25c-0.03,0-0.07,0-0.1,0
		c-0.27,0.1-0.7,0.15-1.3,0.15c-0.03,0-0.07,0-0.1,0c-1.3,0-2.3-0.05-3-0.15c-0.9-0.13-1.38-0.15-1.45-0.05
		c-0.4,0.03-0.6,0.27-0.6,0.7c0,0.07,0.03,0.3,0.1,0.7c0,0.4,0,0.82,0,1.25c0.07,0.9,0.02,1.45-0.15,1.65
		c-0.2,0.37-0.25,0.67-0.15,0.9c0.1,0.27,0.4,0.38,0.9,0.35c0.47,0,1-0.05,1.6-0.15c0.57-0.03,0.98-0.03,1.25,0
		c0.53,0.07,1.03,0.12,1.5,0.15c0.07,0,0.15,0,0.25,0c0.33-0.03,0.63-0.08,0.9-0.15c0.1-0.03,0.22-0.07,0.35-0.1
		c0.3-0.07,0.63-0.1,1-0.1c0.23,0,0.5,0,0.8,0c0.23,0,0.55,0.03,0.95,0.1c0.27-0.07,0.37-0.32,0.3-0.75
		c-0.2-0.6-0.32-1.08-0.35-1.45c-0.13-0.47-0.2-1.02-0.2-1.65c0.6-0.13,1.1-0.27,1.5-0.4c0.2,0.03,0.88,0.05,2.05,0.05
		c0.83,0,1.62-0.02,2.35-0.05c0.3-0.07,0.63-0.12,1-0.15c0.2,0,0.35,0,0.45,0c0.53,0.1,0.85,0.47,0.95,1.1
		c0.13,0.37,0.13,0.78,0,1.25c0.33,1.2,0.57,2.7,0.7,4.5c0,0.27,0,0.53,0,0.8c-0.03,1.1-0.1,2.08-0.2,2.95c0,0.6-0.3,1.02-0.9,1.25
		c-0.37,0.03-0.7,0.08-1,0.15c-0.83,0.03-1.95-0.12-3.35-0.45c-0.87-0.23-2.33-0.33-4.4-0.3c-0.6,0.03-1.15,0.08-1.65,0.15
		c-0.57,0-1.07,0.02-1.5,0.05c-1.63,0.07-4.05,0.08-7.25,0.05c-3.07,0-5.33-0.05-6.8-0.15c-0.07-0.03-0.13-0.05-0.2-0.05
		c-0.17,0-0.35,0-0.55,0c-1.33-0.03-3.12,0-5.35,0.1c-2.17,0.13-4.05,0.28-5.65,0.45c-0.47,0.03-0.83,0.05-1.1,0.05
		c-0.57,0-0.95-0.12-1.15-0.35c0-0.03,0-0.28,0-0.75c0-0.2,0.02-0.68,0.05-1.45c0.1-0.73,0.18-1.23,0.25-1.5
		c0.03-0.07,0.05-0.13,0.05-0.2c0.03-0.17,0.05-0.28,0.05-0.35c0.07-0.1,0.07-0.27,0-0.5c-0.13-0.23-0.2-0.98-0.2-2.25
		c0.07-1.07,0.13-2.1,0.2-3.1c0.1-0.63,0.2-1.05,0.3-1.25l0.15-0.05c0-0.07,0.33-0.1,1-0.1h0.55h3.7c-0.2-0.03-0.33-0.1-0.4-0.2
		c-0.27-0.2-0.37-0.38-0.3-0.55c0.27-0.3,0.5-0.53,0.7-0.7c0.17-0.23,0.25-0.83,0.25-1.8c0-0.13,0-0.27,0-0.4
		c0-1.13-0.08-2.23-0.25-3.3c-0.27-0.9-0.03-1.38,0.7-1.45c0.43-0.03,0.83,0,1.2,0.1l2.25,0.5c0.87,0.13,1.67,0.22,2.4,0.25
		c0.2,0,0.4,0,0.6,0c0.27,0,0.52-0.05,0.75-0.15l-0.2,0.1c0.17-0.07,0.27-0.1,0.3-0.1c0.9-0.1,2.35-0.33,4.35-0.7
		c1.43-0.33,1.98,0.47,1.65,2.4c0,0.1,0,0.23,0,0.4c0,0.13-0.02,0.38-0.05,0.75c-0.03,0.3-0.08,0.65-0.15,1.05
		C20.38,11.26,20.38,11.44,20.38,11.58z"></path>
	<path fill-rule="evenodd" clip-rule="evenodd" fill="#FFFFFF" d="M20.38,11.58h0.6c0.4-0.03,0.62-0.15,0.65-0.35
		c0.1,0.6,0.12,1,0.05,1.2v0.05c-0.4,0.9-0.47,1.52-0.2,1.85c0.23,0.33,0.5,0.55,0.8,0.65l-2.3-0.05c0.73-0.37,0.97-0.83,0.7-1.4
		C20.38,12.93,20.27,12.28,20.38,11.58z M14.48,19.53c-0.27,0.03-0.52,0.05-0.75,0.05c-0.87,0.03-1.58-0.02-2.15-0.15
		c-0.57-0.1-0.98-0.17-1.25-0.2c-0.5,0.03-0.85,0.05-1.05,0.05c-0.5,0.03-0.78,0.05-0.85,0.05c-0.33-0.03-0.45-0.27-0.35-0.7
		c0.23-0.63,0.38-1.13,0.45-1.5c0.13-0.47,0.2-0.95,0.2-1.45c0-0.37-0.07-0.7-0.2-1c-0.1-0.13-0.2-0.28-0.3-0.45
		c-0.1-0.33,0.07-0.45,0.5-0.35l0.8,0.05c0.67,0.07,1.22,0.13,1.65,0.2c0.43,0.1,1.28,0.15,2.55,0.15c0.13,0,0.28,0,0.45,0
		c0.1,0,0.2,0,0.3,0c0.83-0.07,1.48-0.12,1.95-0.15c0.83-0.07,1.35-0.1,1.55-0.1c0.3,0.07,0.45,0.32,0.45,0.75v0.65
		c0,0.33-0.02,0.75-0.05,1.25c0,0.9,0.03,1.47,0.1,1.7c0.23,0.33,0.33,0.62,0.3,0.85c-0.2,0.3-0.52,0.45-0.95,0.45
		c-0.73-0.13-1.32-0.22-1.75-0.25c-0.43-0.07-0.85-0.07-1.25,0c-0.13,0-0.25,0.02-0.35,0.05V19.53z M34.02,14.93
		c0.5-0.17,0.88-0.33,1.15-0.5c0.2-0.2,0.23-0.38,0.1-0.55c-0.27-0.23-0.47-0.47-0.6-0.7c-0.2-0.27-0.3-0.87-0.3-1.8
		c1.27,0,2.62-0.02,4.05-0.05v3.6c-0.73,0.03-1.52,0.05-2.35,0.05C34.91,14.98,34.23,14.96,34.02,14.93z M32.52,15.33
		c0,0.63,0.07,1.18,0.2,1.65c0.03,0.37,0.15,0.85,0.35,1.45c0.07,0.43-0.03,0.68-0.3,0.75c-0.4-0.07-0.72-0.1-0.95-0.1
		c-0.3,0-0.57,0-0.8,0c-0.37,0-0.7,0.03-1,0.1c-0.13,0.03-0.25,0.07-0.35,0.1c-0.27,0.07-0.57,0.12-0.9,0.15c-0.1,0-0.18,0-0.25,0
		c-0.47-0.03-0.97-0.08-1.5-0.15c-0.27-0.03-0.68-0.03-1.25,0c-0.6,0.1-1.13,0.15-1.6,0.15c-0.5,0.03-0.8-0.08-0.9-0.35
		c-0.1-0.23-0.05-0.53,0.15-0.9c0.17-0.2,0.22-0.75,0.15-1.65c0-0.43,0-0.85,0-1.25c-0.07-0.4-0.1-0.63-0.1-0.7
		c0-0.43,0.2-0.67,0.6-0.7c0.07-0.1,0.55-0.08,1.45,0.05c0.7,0.1,1.7,0.15,3,0.15c0.03,0,0.07,0,0.1,0c0.6,0,1.03-0.05,1.3-0.15
		c0.03,0,0.07,0,0.1,0c0.77-0.17,1.6-0.25,2.5-0.25c0.37-0.03,0.53,0.1,0.5,0.4c-0.13,0.13-0.23,0.3-0.3,0.5
		C32.59,14.84,32.52,15.09,32.52,15.33z M39.88,51.33c-0.13,0.1-0.37,0.22-0.7,0.35l-1.05,0.05h-0.3c-0.23,0-0.47,0-0.7,0
		c-2.33,0-4.7,0-7.1,0h-1.5c-1.73,0-3.48,0-5.25,0c-0.33,0-0.67,0-1,0h-0.65c-0.07,0-0.13,0-0.2,0h-2c-0.2,0-0.4,0-0.6,0
		c-0.07,0-0.13,0-0.2,0h-0.2c-0.07,0-0.13,0-0.2,0s-0.13,0-0.2,0h-0.15c-0.07,0-0.13,0-0.2,0h-0.7c-0.07,0-0.12,0-0.15,0h-0.85
		c-0.07,0-0.12,0-0.15,0h-0.15c-0.07,0-0.12,0-0.15,0h-0.45c-0.03,0-0.08,0-0.15,0H4.83c-0.37,0-0.68,0-0.95,0
		c-0.23-0.03-0.4-0.05-0.5-0.05h-0.1c-0.37-0.1-0.65-0.18-0.85-0.25c-0.27-0.13-0.45-0.33-0.55-0.6L1.63,26.68
		c0.27,0,0.63-0.02,1.1-0.05c1.6-0.17,3.48-0.32,5.65-0.45c2.23-0.1,4.02-0.13,5.35-0.1c0.2,0,0.38,0,0.55,0
		c0.07,0,0.13,0.02,0.2,0.05c1.47,0.1,3.73,0.15,6.8,0.15c3.2,0.03,5.62,0.02,7.25-0.05c0.43-0.03,0.93-0.05,1.5-0.05
		c0.5-0.07,1.05-0.12,1.65-0.15c2.07-0.03,3.53,0.07,4.4,0.3c1.4,0.33,2.52,0.48,3.35,0.45c0.3-0.07,0.63-0.12,1-0.15
		c0,1.1,0,3.28,0,6.55c0,7.13,0.02,12.03,0.05,14.7c0,1.13,0,1.87,0,2.2C40.48,50.61,40.27,51.03,39.88,51.33z M6.58,14.83h-3.7
		v-3.45l0.55,0.15c1.27,0.03,2.4,0.05,3.4,0.05c0,0.97-0.08,1.57-0.25,1.8c-0.2,0.17-0.43,0.4-0.7,0.7
		c-0.07,0.17,0.03,0.35,0.3,0.55C6.24,14.73,6.38,14.79,6.58,14.83z"></path>
	
		<path fill-rule="evenodd" clip-rule="evenodd" fill="#FFFFFF" stroke="#373535" stroke-width="0.3" stroke-linecap="round" stroke-linejoin="round" stroke-miterlimit="3" d="
		M39.98,4.38h0.45V0.43h-2.7v0.35v3.3l2.15,0.15C39.91,4.26,39.94,4.31,39.98,4.38z M39.88,4.73c0.1-0.17,0.13-0.28,0.1-0.35
		 M30.02,4.23c0.53,0,0.85-0.02,0.95-0.05c0.33,0,1.28-0.05,2.85-0.15c1.5-0.1,2.62-0.1,3.35,0l0.55,0.05 M34.38,11.38
		c0-0.1,0-0.22,0-0.35c0-1.1,0.13-2.22,0.4-3.35c0.2-0.83-0.08-1.28-0.85-1.35l-1.2,0.1c-0.67,0.17-1.48,0.32-2.45,0.45
		c-0.1,0-0.18,0.02-0.25,0.05c-0.47,0.07-0.9,0.12-1.3,0.15 M28.52,7.08c-0.37-0.03-0.72-0.07-1.05-0.1
		c-2.07-0.37-3.57-0.58-4.5-0.65c-0.33-0.07-0.7-0.02-1.1,0.15c-0.4,0.13-0.62,0.32-0.65,0.55c-0.03,0.2-0.03,0.45,0,0.75
		c0,0.27,0.05,0.52,0.15,0.75c0,0.1,0.02,0.13,0.05,0.1c0.07,0.37,0.12,0.82,0.15,1.35c0.03,0.27,0.05,0.57,0.05,0.9
		c0,0.1,0,0.22,0,0.35c0.1,0.6,0.12,1,0.05,1.2v0.05c-0.4,0.9-0.47,1.52-0.2,1.85c0.23,0.33,0.5,0.55,0.8,0.65
		c0.13,0.07,0.22,0.12,0.25,0.15c0.3,0.1,0.65,0.15,1.05,0.15c-0.07-0.4-0.1-0.63-0.1-0.7c0-0.43,0.2-0.67,0.6-0.7
		c0.07-0.1,0.55-0.08,1.45,0.05c0.7,0.1,1.7,0.15,3,0.15 M28.63,14.08c0.6,0,1.03-0.05,1.3-0.15c0.03,0,0.07,0,0.1,0
		c0.77-0.17,1.6-0.25,2.5-0.25c0.37-0.03,0.53,0.1,0.5,0.4c-0.13,0.13-0.23,0.3-0.3,0.5c-0.13,0.27-0.2,0.52-0.2,0.75
		c0.6-0.13,1.1-0.27,1.5-0.4c0.5-0.17,0.88-0.33,1.15-0.5c0.2-0.2,0.23-0.38,0.1-0.55c-0.27-0.23-0.47-0.47-0.6-0.7
		c-0.2-0.27-0.3-0.87-0.3-1.8 M39.88,4.73c-0.07,0.03-0.2,0.13-0.4,0.3c-0.4,0.4-0.65,0.72-0.75,0.95c-0.07,0.27-0.02,0.6,0.15,1
		c0.37,0.93,0.52,1.85,0.45,2.75c0,0.67,0,1.17,0,1.5c-0.3,0-0.6,0.03-0.9,0.1v3.6c0.3-0.07,0.63-0.12,1-0.15c0.2,0,0.35,0,0.45,0
		V4.73z M38.43,14.93c-0.73,0.03-1.52,0.05-2.35,0.05c-1.17,0-1.85-0.02-2.05-0.05 M32.52,15.33c0,0.63,0.07,1.18,0.2,1.65
		c0.03,0.37,0.15,0.85,0.35,1.45c0.07,0.43-0.03,0.68-0.3,0.75c-0.4-0.07-0.72-0.1-0.95-0.1c-0.3,0-0.57,0-0.8,0
		c-0.37,0-0.7,0.03-1,0.1c-0.13,0.03-0.25,0.07-0.35,0.1c-0.27,0.07-0.57,0.12-0.9,0.15c-0.1,0-0.18,0-0.25,0
		c-0.47-0.03-0.97-0.08-1.5-0.15c-0.27-0.03-0.68-0.03-1.25,0c-0.6,0.1-1.13,0.15-1.6,0.15c-0.5,0.03-0.8-0.08-0.9-0.35
		c-0.1-0.23-0.05-0.53,0.15-0.9c0.17-0.2,0.22-0.75,0.15-1.65c0-0.43,0-0.85,0-1.25 M38.43,11.33c-1.43,0.03-2.78,0.05-4.05,0.05
		 M40.43,26.63c0.6-0.23,0.9-0.65,0.9-1.25c0.1-0.87,0.17-1.85,0.2-2.95c0-0.27,0-0.53,0-0.8c-0.13-1.8-0.37-3.3-0.7-4.5
		c0.13-0.47,0.13-0.88,0-1.25c-0.1-0.63-0.42-1-0.95-1.1 M1.63,26.68c0.27,0,0.63-0.02,1.1-0.05c1.6-0.17,3.48-0.32,5.65-0.45
		c2.23-0.1,4.02-0.13,5.35-0.1c0.2,0,0.38,0,0.55,0c0.07,0,0.13,0.02,0.2,0.05c1.47,0.1,3.73,0.15,6.8,0.15
		c3.2,0.03,5.62,0.02,7.25-0.05c0.43-0.03,0.93-0.05,1.5-0.05c0.5-0.07,1.05-0.12,1.65-0.15c2.07-0.03,3.53,0.07,4.4,0.3
		c1.4,0.33,2.52,0.48,3.35,0.45c0.3-0.07,0.63-0.12,1-0.15 M39.88,51.33c0.4-0.3,0.6-0.72,0.6-1.25c0-0.33,0-1.07,0-2.2
		c-0.03-2.67-0.05-7.57-0.05-14.7c0-3.27,0-5.45,0-6.55 M20.98,4.33c0.23-0.07,0.52-0.12,0.85-0.15c0.97,0,2.92,0,5.85,0
		c0.3,0,0.58,0,0.85,0c0.3,0,0.58,0.02,0.85,0.05h0.5 M3.48,4.23l0.65-0.05c0.67-0.07,1.77-0.07,3.3,0c0.73,0.03,1.7,0.08,2.9,0.15
		c0.1,0,1.03,0,2.8,0c0.2,0,0.4,0,0.6,0c0.13,0,0.28,0,0.45,0c0.1,0,0.2,0,0.3,0c2.77-0.07,4.62-0.07,5.55,0c0.07,0,0.13,0,0.2,0
		h0.17c0.15,0,0.34,0,0.58,0 M20.4,4.33c0.16,0,0.29,0.02,0.38,0.05c0.06-0.03,0.13-0.05,0.2-0.05 M20.77,4.38
		c0.13,0.03,0.25,0.07,0.35,0.1c0.47,0.2,0.8,0.6,1,1.2 M20.38,11.58c0-0.13,0-0.32,0-0.55c0.07-0.4,0.12-0.75,0.15-1.05
		c0.03-0.37,0.05-0.62,0.05-0.75c0-0.17,0-0.3,0-0.4c0.33-1.93-0.22-2.73-1.65-2.4c-2,0.37-3.45,0.6-4.35,0.7
		c-0.03,0-0.13,0.03-0.3,0.1 M14.48,7.13c-0.23,0.1-0.48,0.15-0.75,0.15c-0.2,0-0.4,0-0.6,0c-0.73-0.03-1.53-0.12-2.4-0.25
		l-2.25-0.5c-0.37-0.1-0.77-0.13-1.2-0.1c-0.73,0.07-0.97,0.55-0.7,1.45c0.17,1.07,0.25,2.17,0.25,3.3c0,0.13,0,0.27,0,0.4
		c0,0.97-0.08,1.57-0.25,1.8c-0.2,0.17-0.43,0.4-0.7,0.7c-0.07,0.17,0.03,0.35,0.3,0.55c0.07,0.1,0.2,0.17,0.4,0.2
		c0.47,0.23,1.18,0.52,2.15,0.85c0-0.37-0.07-0.7-0.2-1c-0.1-0.13-0.2-0.28-0.3-0.45c-0.1-0.33,0.07-0.45,0.5-0.35l0.8,0.05
		c0.67,0.07,1.22,0.13,1.65,0.2c0.43,0.1,1.28,0.15,2.55,0.15c0.13,0,0.28,0,0.45,0c0.1,0,0.2,0,0.3,0
		c0.83-0.07,1.48-0.12,1.95-0.15c0.83-0.07,1.35-0.1,1.55-0.1c0.3,0.07,0.45,0.32,0.45,0.75v0.65c0.43,0,0.75-0.05,0.95-0.15
		c0.23-0.1,0.43-0.22,0.6-0.35c0.73-0.37,0.97-0.83,0.7-1.4c-0.3-0.6-0.4-1.25-0.3-1.95h0.6c0.4-0.03,0.62-0.15,0.65-0.35
		 M14.48,19.53c-0.27,0.03-0.52,0.05-0.75,0.05c-0.87,0.03-1.58-0.02-2.15-0.15c-0.57-0.1-0.98-0.17-1.25-0.2
		c-0.5,0.03-0.85,0.05-1.05,0.05c-0.5,0.03-0.78,0.05-0.85,0.05c-0.33-0.03-0.45-0.27-0.35-0.7c0.23-0.63,0.38-1.13,0.45-1.5
		c0.13-0.47,0.2-0.95,0.2-1.45 M18.43,15.43c0,0.33-0.02,0.75-0.05,1.25c0,0.9,0.03,1.47,0.1,1.7c0.23,0.33,0.33,0.62,0.3,0.85
		c-0.2,0.3-0.52,0.45-0.95,0.45c-0.73-0.13-1.32-0.22-1.75-0.25c-0.43-0.07-0.85-0.07-1.25,0c-0.13,0-0.25,0.02-0.35,0.05
		 M22.27,14.98l-2.3-0.05 M3.48,0.78v-0.2h-2.6v4h0.4C1.24,4.51,1.26,4.46,1.33,4.43V4.38h0.35l1.8-0.15V0.78z M1.27,4.58
		c0,0.07,0.02,0.13,0.05,0.2c0.03,0.13,0.13,0.27,0.3,0.4c0.53,0.43,0.85,0.77,0.95,1c0.1,0.2,0.02,0.52-0.25,0.95
		C1.89,8.16,1.74,9.08,1.88,9.88c0,0.67,0,1.17,0,1.5h1l0.55,0.15c1.27,0.03,2.4,0.05,3.4,0.05 M2.88,14.83v-3.45 M1.18,14.98
		l0.15-0.05c0-0.07,0.33-0.1,1-0.1h0.55 M1.18,14.98c-0.1,0.2-0.2,0.62-0.3,1.25c-0.07,1-0.13,2.03-0.2,3.1
		c0,1.27,0.07,2.02,0.2,2.25c0.07,0.23,0.07,0.4,0,0.5c0,0.07-0.02,0.18-0.05,0.35c0,0.07-0.02,0.13-0.05,0.2
		c-0.07,0.27-0.15,0.77-0.25,1.5c-0.03,0.77-0.05,1.25-0.05,1.45c0,0.47,0,0.72,0,0.75c0.2,0.23,0.58,0.35,1.15,0.35l0.25,24.15
		c0.1,0.27,0.28,0.47,0.55,0.6c0.2,0.07,0.48,0.15,0.85,0.25h0.1c0.1,0,0.27,0.02,0.5,0.05 M6.58,14.83h-3.7 M1.33,4.78l-0.15,10.2
		 M38.13,51.73h-0.3c-0.23,0-0.47,0-0.7,0c-2.33,0-4.7,0-7.1,0h-1.5c-1.73,0-3.48,0-5.25,0c-0.33,0-0.67,0-1,0h-0.65
		c-0.07,0-0.13,0-0.2,0h-2c-0.2,0-0.4,0-0.6,0c-0.07,0-0.13,0-0.2,0h-0.2c-0.07,0-0.13,0-0.2,0s-0.13,0-0.2,0h-0.15
		c-0.07,0-0.13,0-0.2,0h-0.7c-0.07,0-0.12,0-0.15,0h-0.85c-0.07,0-0.12,0-0.15,0h-0.15c-0.07,0-0.12,0-0.15,0h-0.45
		c-0.03,0-0.08,0-0.15,0H4.83c-0.37,0-0.68,0-0.95,0v3.55h34.25V51.73z M2.43,51.43H1.27v4.15h2.6v-0.3 M38.13,55.28v0.3h2.7v-4.25
		h-0.95c-0.13,0.1-0.37,0.22-0.7,0.35l-1.05,0.05 M37.73,0.78H3.48" style="stroke: rgb(0, 0, 0);"></path>
</g>
</svg>