<svg version="1.1" id="Layer_1" xmlns="http://www.w3.org/2000/svg" xmlns:xlink="http://www.w3.org/1999/xlink" x="0px" y="0px" width="28.83px" height="28.83px" viewBox="0 2.15 28.83 28.83" enable-background="new 0 2.15 28.83 28.83" xml:space="preserve">
	<rect x="9.28" y="7.48" width="9.56" height="18" fill="#FFFFFF"></rect>
	<path fill="#FFFFFF" stroke="#000000" stroke-miterlimit="10" d="M13.54,24.37v-0.83h-2.18v-4.8h5.93v4.8h-2.03
		v0.83H13.54 M11.67,14.73c-0.75-0.71-1.13-1.61-1.13-2.63c0-1.05,0.38-1.95,1.13-2.66c0.71-0.71,1.61-1.09,2.63-1.09
		c1.05,0,1.95,0.38,2.66,1.09c0.71,0.71,1.09,1.61,1.09,2.66c0,1.01-0.38,1.91-1.09,2.63c-0.71,0.75-1.61,1.13-2.66,1.13
		C13.28,15.86,12.38,15.48,11.67,14.73z M7.62,7.08c-0.49,0-0.71,0.23-0.71,0.68v17.59c0,0.45,0.23,0.67,0.71,0.67h13.54
		c0.49,0,0.75-0.22,0.75-0.67V7.76c0-0.45-0.26-0.68-0.75-0.68C21.16,7.08,7.62,7.08,7.62,7.08z"></path>
	<path fill="#FFFFFF" stroke="#000000" stroke-miterlimit="10" d="M12.19,9.97c0.56-0.56,1.28-0.86,2.1-0.86
		s1.54,0.3,2.1,0.86c0.56,0.56,0.86,1.27,0.86,2.1c0,0.82-0.3,1.54-0.86,2.1c-0.56,0.56-1.27,0.86-2.1,0.86s-1.54-0.3-2.1-0.86
		s-0.86-1.27-0.86-2.1C11.33,11.24,11.63,10.53,12.19,9.97 M14.29,8.88c-0.86,0-1.61,0.3-2.25,0.9c-0.64,0.64-0.94,1.39-0.94,2.29
		c0,0.86,0.3,1.61,0.94,2.21c0.64,0.64,1.39,0.98,2.25,0.98c0.9,0,1.65-0.34,2.29-0.98c0.64-0.6,0.94-1.35,0.94-2.21
		c0-0.9-0.3-1.65-0.94-2.29C15.94,9.18,15.19,8.88,14.29,8.88z"></path>
	<circle fill="#FFFFFF" stroke="#000000" stroke-miterlimit="10" cx="14.3" cy="12.14" r="0.46"></circle>
	<path fill="#FFFFFF" d="M13.54,24.37v-0.83h-2.18v-4.8h5.93v4.8h-2.03v0.83H13.54 M11.67,14.73
		c-0.75-0.71-1.13-1.61-1.13-2.63c0-1.05,0.38-1.95,1.13-2.66c0.71-0.71,1.61-1.09,2.63-1.09c1.05,0,1.95,0.38,2.66,1.09
		c0.71,0.71,1.09,1.61,1.09,2.66c0,1.01-0.38,1.91-1.09,2.63c-0.71,0.75-1.61,1.13-2.66,1.13C13.28,15.86,12.38,15.48,11.67,14.73z
		 M7.62,7.08c-0.49,0-0.71,0.23-0.71,0.68v17.59c0,0.45,0.23,0.67,0.71,0.67h13.54c0.49,0,0.75-0.22,0.75-0.67V7.76
		c0-0.45-0.26-0.68-0.75-0.68C21.16,7.08,7.62,7.08,7.62,7.08z"></path>
	<path fill="#FFFFFF" d="M12.19,9.97c0.56-0.56,1.28-0.86,2.1-0.86s1.54,0.3,2.1,0.86
		c0.56,0.56,0.86,1.27,0.86,2.1c0,0.82-0.3,1.54-0.86,2.1c-0.56,0.56-1.27,0.86-2.1,0.86s-1.54-0.3-2.1-0.86s-0.86-1.27-0.86-2.1
		C11.33,11.24,11.63,10.53,12.19,9.97 M14.29,8.88c-0.86,0-1.61,0.3-2.25,0.9c-0.64,0.64-0.94,1.39-0.94,2.29
		c0,0.86,0.3,1.61,0.94,2.21c0.64,0.64,1.39,0.98,2.25,0.98c0.9,0,1.65-0.34,2.29-0.98c0.64-0.6,0.94-1.35,0.94-2.21
		c0-0.9-0.3-1.65-0.94-2.29C15.94,9.18,15.19,8.88,14.29,8.88z"></path>
	<circle fill="#FFFFFF" cx="14.3" cy="12.14" r="0.46" fill="#FFFFFF"></circle>
</svg>