<svg version="1.1" id="Layer_1" xmlns="http://www.w3.org/2000/svg" xmlns:xlink="http://www.w3.org/1999/xlink" x="0px" y="0px" width="28.83px" height="28.83px" viewBox="0 2.15 28.83 28.83" enable-background="new 0 2.15 28.83 28.83" xml:space="preserve">
	<rect x="10.97" y="12.36" width="9.75" height="10.41" fill="#FFFFFF"></rect>
	<path fill="#FFFFFF" stroke="#000000" stroke-miterlimit="10" d="M17.86,19.97c-0.71,0.75-1.61,1.13-2.66,1.13
		c-1.01,0-1.91-0.38-2.62-1.13c-0.75-0.71-1.13-1.61-1.13-2.63c0-1.05,0.38-1.95,1.13-2.66c0.71-0.71,1.61-1.09,2.62-1.09
		c1.05,0,1.95,0.38,2.66,1.09s1.09,1.61,1.09,2.66C18.95,18.35,18.58,19.25,17.86,19.97 M8.38,7.52c-0.49,0-0.71,0.23-0.71,0.68
		v17.59c0,0.45,0.23,0.68,0.71,0.68h13.54c0.49,0,0.75-0.23,0.75-0.68V8.19c0-0.45-0.26-0.68-0.75-0.68H8.38V7.52z"></path>
	<path fill="#FFFFFF" stroke="#000000" stroke-miterlimit="10" d="M17.3,19.4c-0.56,0.56-1.27,0.86-2.1,0.86
		c-0.82,0-1.54-0.3-2.1-0.86s-0.86-1.27-0.86-2.1s0.3-1.54,0.86-2.1s1.27-0.86,2.1-0.86s1.54,0.3,2.1,0.86
		c0.56,0.56,0.86,1.28,0.86,2.1C18.16,18.13,17.86,18.84,17.3,19.4 M15.2,20.49c0.9,0,1.65-0.34,2.29-0.98
		c0.64-0.6,0.94-1.35,0.94-2.21c0-0.9-0.3-1.65-0.94-2.29c-0.64-0.6-1.39-0.9-2.29-0.9c-0.86,0-1.61,0.3-2.25,0.9
		c-0.64,0.64-0.94,1.39-0.94,2.29c0,0.86,0.3,1.61,0.94,2.21C13.59,20.15,14.34,20.49,15.2,20.49z"></path>
	<circle fill="#FFFFFF" stroke="#000000" stroke-miterlimit="10" cx="15.2" cy="17.38" r="0.52"></circle>
	<path fill="#FFFFFF" d="M17.86,19.97c-0.71,0.75-1.61,1.13-2.66,1.13c-1.01,0-1.91-0.38-2.62-1.13c-0.75-0.71-1.13-1.61-1.13-2.63
		c0-1.05,0.38-1.95,1.13-2.66c0.71-0.71,1.61-1.09,2.62-1.09c1.05,0,1.95,0.38,2.66,1.09s1.09,1.61,1.09,2.66
		C18.95,18.35,18.58,19.25,17.86,19.97 M8.38,7.52c-0.49,0-0.71,0.23-0.71,0.68v17.59c0,0.45,0.23,0.68,0.71,0.68h13.54
		c0.49,0,0.75-0.23,0.75-0.68V8.19c0-0.45-0.26-0.68-0.75-0.68H8.38V7.52z"></path>
	<path fill="#FFFFFF" d="M17.3,19.4c-0.56,0.56-1.27,0.86-2.1,0.86c-0.82,0-1.54-0.3-2.1-0.86s-0.86-1.27-0.86-2.1
		s0.3-1.54,0.86-2.1s1.27-0.86,2.1-0.86s1.54,0.3,2.1,0.86c0.56,0.56,0.86,1.28,0.86,2.1C18.16,18.13,17.86,18.84,17.3,19.4
		 M15.2,20.49c0.9,0,1.65-0.34,2.29-0.98c0.64-0.6,0.94-1.35,0.94-2.21c0-0.9-0.3-1.65-0.94-2.29c-0.64-0.6-1.39-0.9-2.29-0.9
		c-0.86,0-1.61,0.3-2.25,0.9c-0.64,0.64-0.94,1.39-0.94,2.29c0,0.86,0.3,1.61,0.94,2.21C13.59,20.15,14.34,20.49,15.2,20.49z"></path>
	<circle fill="#FFFFFF" cx="15.2" cy="17.38" r="0.52"></circle>
</svg>