<svg version="1.1" xmlns="http://www.w3.org/2000/svg" xmlns:xlink="http://www.w3.org/1999/xlink" x="0px" y="0px" width="28.83px" height="33.13px" viewBox="0 0 28.83 33.13" style="enable-background:new 0 0 28.83 33.13;" xml:space="preserve" class="ng-scope">
    <rect x="5.16" y="3.31" fill="#FFFFFF" width="19.71" height="26.51"></rect>
    <line stroke="#000000" stroke-width="0.5" x1="5.16" y1="3.31" x2="24.87" y2="3.31"></line>
    <line stroke="#000000" stroke-width="0.5" x1="24.87" y1="29.82" x2="5.16" y2="29.82"></line>
    <line stroke="#000000" stroke-width="0.5" x1="24.87" y1="3.31" x2="24.87" y2="29.82"></line>
    <line stroke="#000000" stroke-width="0.5" x1="5.16" y1="3.31" x2="5.16" y2="29.82"></line>
		<path stroke="#000000" d="M14.62,21.64
			l-2.91-7.51h1.08l1.95,5.46c0.16,0.44,0.29,0.85,0.39,1.23c0.12-0.41,0.25-0.82,0.4-1.23l2.03-5.46h1.01l-2.94,7.51H14.62z"></path>
    <path fill="#FFFFFF" d="M14.62,21.64l-2.91-7.51h1.08l1.95,5.46c0.16,0.44,0.29,0.85,0.39,1.23
			c0.12-0.41,0.25-0.82,0.4-1.23l2.03-5.46h1.01l-2.94,7.51H14.62z"></path>

</svg>