<svg version="1.1" id="Layer_1" xmlns="http://www.w3.org/2000/svg" xmlns:xlink="http://www.w3.org/1999/xlink" x="0px" y="0px" width="20.925px" height="21.67px" viewBox="0 0 20.925 21.67" enable-background="new 0 0 20.925 21.67" xml:space="preserve" class="ng-scope">
<path fill-rule="evenodd" clip-rule="evenodd" fill="#FFFFFF" d="M4.225,20.45c-0.2-6.267-0.25-10.517-0.15-12.75
	c0.1-2.2,0.983-3.316,2.65-3.351l2.45-0.1c0.267,0,0.517,0,0.75,0c1.6,0,2.95,0,4.05,0c1.267,0,2.117,0.399,2.55,1.2
	c0.433,0.8,0.533,5.767,0.3,14.899c0.233-9.133,0.133-14.1-0.3-14.899c-0.434-0.801-1.283-1.2-2.55-1.2c-1.1,0-2.45,0-4.05,0
	c-0.233,0-0.483,0-0.75,0l-2.45,0.1C5.058,4.384,4.175,5.5,4.075,7.7C3.975,9.934,4.025,14.184,4.225,20.45z"></path>
<path fill-rule="evenodd" clip-rule="evenodd" fill="#FFFFFF" d="M16.825,20.35c-4.167,0.9-8.367,0.934-12.6,0.101
	c-0.5,0.833-1.4,1.149-2.7,0.949c-0.333-0.133-0.667-0.333-1-0.6l-0.4-0.35V6.75c0-1.101,0.283-2.184,0.85-3.25
	c0.1-0.134,0.15-0.233,0.15-0.3c1.133-2,2.966-3.018,5.5-3.051c0.933,0,1.783,0,2.55,0c0.267-0.033,0.517-0.033,0.75,0
	c2.533-0.033,4.25-0.033,5.15,0l0.85,0.101c0.7,0.1,1.367,0.35,2,0.75c1.867,0.966,2.817,2.816,2.85,5.55
	c0.033,4.333,0.033,8.983,0,13.95c-0.333,0.333-0.75,0.616-1.25,0.85c-1.033,0.4-1.934,0.184-2.7-0.649V20.35z"></path>
<path fill-rule="evenodd" clip-rule="evenodd" fill="none" stroke="#383635" stroke-width="0.3" d="M4.225,20.45
	c-0.2-6.267-0.25-10.517-0.15-12.75c0.1-2.2,0.983-3.316,2.65-3.351l2.45-0.1c0.267,0,0.517,0,0.75,0c1.6,0,2.95,0,4.05,0
	c1.267,0,2.117,0.399,2.55,1.2c0.433,0.8,0.533,5.767,0.3,14.899V20.7c0.767,0.833,1.667,1.05,2.7,0.649
	c0.5-0.233,0.917-0.517,1.25-0.85c0.033-4.967,0.033-9.617,0-13.95c-0.033-2.733-0.983-4.584-2.85-5.55c-0.633-0.4-1.3-0.65-2-0.75
	l-0.85-0.101c-0.9-0.033-2.617-0.033-5.15,0c-0.233-0.033-0.483-0.033-0.75,0c-0.767,0-1.617,0-2.55,0
	C4.091,0.183,2.258,1.2,1.125,3.2c0,0.066-0.05,0.166-0.15,0.3c-0.566,1.066-0.85,2.149-0.85,3.25v13.7l0.4,0.35
	c0.333,0.267,0.667,0.467,1,0.6C2.825,21.6,3.725,21.283,4.225,20.45z" style="stroke: rgb(0, 0, 0);"></path>
<path fill-rule="evenodd" clip-rule="evenodd" fill="none" stroke="#383635" stroke-width="0.3" d="M16.825,20.35
	c-4.167,0.9-8.367,0.934-12.6,0.101" style="stroke: rgb(0, 0, 0);"></path>
</svg>