<svg version="1.1" id="Layer_1" xmlns="http://www.w3.org/2000/svg" xmlns:xlink="http://www.w3.org/1999/xlink" x="0px" y="0px" width="14.9px" height="19.109px" viewBox="0 0 14.9 19.109" enable-background="new 0 0 14.9 19.109" xml:space="preserve" class="ng-scope">
<path fill-rule="evenodd" clip-rule="evenodd" fill="#FFFFFF" d="M12.575,2.851v1.3V2.851v-0.7c-3.434-0.867-6.866-0.867-10.3,0v0.7
	v1.3v0.9V5.7c-0.5-0.267-1-0.267-1.5,0V3.65v-2.55c4.399-1.3,8.85-1.3,13.35,0v2.55V5.7c-0.5-0.3-1.017-0.3-1.55,0V5.051v-0.9
	c-3.434-0.834-6.866-0.834-10.3,0v-1.3C5.709,2.117,9.142,2.117,12.575,2.851z"></path>
<path fill-rule="evenodd" clip-rule="evenodd" fill="#FFFFFF" d="M2.275,5.051c3.5-0.801,6.934-0.801,10.3,0V5.7
	c0.533-0.3,1.05-0.3,1.55,0V3.65h0.65V5.7h-0.65v10.9v1.8v0.55c-4.166-1.167-8.616-1.167-13.35,0V16.7
	c0.566,0.3,1.066,0.167,1.5-0.399V6.4v9.9C1.842,16.867,1.342,17,0.775,16.7v-11h-0.65V3.65h0.65V5.7c0.5-0.267,1-0.267,1.5,0V5.051
	z"></path>
<path fill-rule="evenodd" clip-rule="evenodd" fill="#FFFFFF" d="M12.575,6.4v9.85c0.434,0.5,0.95,0.617,1.55,0.351
	c-0.6,0.267-1.116,0.149-1.55-0.351V6.4z"></path>
<path fill-rule="evenodd" clip-rule="evenodd" fill="#FFFFFF" d="M2.275,5.7v0.7c3.434-1.1,6.866-1.1,10.3,0V5.7v0.7
	c-3.434-1.1-6.866-1.1-10.3,0V5.7z"></path>
<path fill-rule="evenodd" clip-rule="evenodd" fill="none" stroke="#383635" stroke-width="0.3" d="M2.275,2.851v-0.7
	c3.434-0.867,6.866-0.867,10.3,0v0.7v1.3v0.9V5.7c0.533-0.3,1.05-0.3,1.55,0V3.65v-2.55c-4.5-1.3-8.95-1.3-13.35,0v2.55V5.7
	c0.5-0.267,1-0.267,1.5,0V5.051v-0.9V2.851c3.434-0.733,6.866-0.733,10.3,0" style="stroke: rgb(0, 0, 0);"></path>
<path fill-rule="evenodd" clip-rule="evenodd" fill="none" stroke="#383635" stroke-width="0.3" d="M2.275,5.7v0.7
	c3.434-1.1,6.866-1.1,10.3,0V5.7" style="stroke: rgb(0, 0, 0);"></path>
<path fill-rule="evenodd" clip-rule="evenodd" fill="none" stroke="#383635" stroke-width="0.3" d="M0.775,16.7v2.25
	c4.733-1.167,9.184-1.167,13.35,0" style="stroke: rgb(0, 0, 0);"></path>
<path fill-rule="evenodd" clip-rule="evenodd" fill="none" stroke="#383635" stroke-width="0.3" d="M14.125,18.4v-1.8
	c-0.6,0.267-1.116,0.149-1.55-0.351V6.4" style="stroke: rgb(0, 0, 0);"></path>
<path fill-rule="evenodd" clip-rule="evenodd" fill="none" stroke="#383635" stroke-width="0.3" d="M2.275,6.4v9.9
	C1.842,16.867,1.342,17,0.775,16.7v-11" style="stroke: rgb(0, 0, 0);"></path>
<line fill-rule="evenodd" clip-rule="evenodd" fill="none" stroke="#383635" stroke-width="0.3" x1="14.125" y1="5.7" x2="14.125" y2="16.601" style="stroke: rgb(0, 0, 0);"></line>
<path fill-rule="evenodd" clip-rule="evenodd" fill="none" stroke="#383635" stroke-width="0.3" d="M12.575,4.15
	c-3.434-0.834-6.866-0.834-10.3,0" style="stroke: rgb(0, 0, 0);"></path>
<path fill-rule="evenodd" clip-rule="evenodd" fill="none" stroke="#383635" stroke-width="0.3" d="M2.275,5.051
	c3.5-0.801,6.934-0.801,10.3,0" style="stroke: rgb(0, 0, 0);"></path>
<polyline fill-rule="evenodd" clip-rule="evenodd" fill="none" stroke="#383635" stroke-width="0.3" stroke-linecap="round" stroke-linejoin="round" stroke-miterlimit="3" points="
	0.775,3.65 0.125,3.65 0.125,5.7 0.775,5.7 " style="stroke: rgb(0, 0, 0);"></polyline>
<line fill-rule="evenodd" clip-rule="evenodd" fill="none" stroke="#383635" stroke-width="0.3" stroke-linecap="round" stroke-linejoin="round" stroke-miterlimit="3" x1="14.125" y1="18.95" x2="14.125" y2="18.4" style="stroke: rgb(0, 0, 0);"></line>
<polyline fill-rule="evenodd" clip-rule="evenodd" fill="none" stroke="#383635" stroke-width="0.3" stroke-linecap="round" stroke-linejoin="round" stroke-miterlimit="3" points="
	14.125,5.7 14.775,5.7 14.775,3.65 14.125,3.65 " style="stroke: rgb(0, 0, 0);"></polyline>
</svg>