<svg version="1.1" xmlns="http://www.w3.org/2000/svg" xmlns:xlink="http://www.w3.org/1999/xlink" width="18px" height="18.037px" viewBox="0 0 18 18.037" enable-background="new 0 0 17.325 18.037" xml:space="preserve" class="ng-scope">
<path fill-rule="evenodd" clip-rule="evenodd" fill="#FFFFFF" d="M13.925,16.951l-10.4,0.05c0-5.467-0.034-8.95-0.1-10.45
	c0-0.9,0.333-1.667,1-2.3l1.15-0.601l2.05-0.1c1.567-0.033,2.85-0.05,3.85-0.05s1.7,0.45,2.1,1.35
	c0.233,0.467,0.35,0.917,0.35,1.351V16.951V6.201c0-0.434-0.117-0.884-0.35-1.351c-0.4-0.899-1.1-1.35-2.1-1.35
	s-2.283,0.017-3.85,0.05l-2.05,0.1l-1.15,0.601c-0.667,0.633-1,1.399-1,2.3c0.066,1.5,0.1,4.983,0.1,10.45
	c-0.767,0.767-1.583,1-2.45,0.7c-0.033,0-0.083-0.034-0.15-0.101c-0.2-0.066-0.367-0.166-0.5-0.3l-0.3-0.3V5.65
	c0-0.899,0.233-1.8,0.7-2.699c0.067-0.101,0.1-0.184,0.1-0.25c0.967-1.667,2.5-2.517,4.6-2.551c3.6-0.033,5.917-0.033,6.95,0
	l0.7,0.101c0.566,0.1,1.117,0.3,1.65,0.6c1.533,0.834,2.317,2.384,2.35,4.65c0.033,3.6,0.033,7.45,0,11.55
	c-0.267,0.3-0.617,0.533-1.05,0.7c-0.833,0.333-1.566,0.149-2.2-0.55V16.951z"></path>
<path fill-rule="evenodd" clip-rule="evenodd" fill="none" stroke="#383635" stroke-width="0.3" d="M13.925,16.951v0.25
	c0.633,0.699,1.367,0.883,2.2,0.55c0.434-0.167,0.784-0.4,1.05-0.7c0.033-4.1,0.033-7.95,0-11.55
	c-0.033-2.267-0.817-3.816-2.35-4.65c-0.533-0.3-1.083-0.5-1.65-0.6l-0.7-0.101c-1.033-0.033-3.35-0.033-6.95,0
	c-2.1,0.034-3.633,0.884-4.6,2.551c0,0.066-0.033,0.149-0.1,0.25c-0.467,0.899-0.7,1.8-0.7,2.699v11.351l0.3,0.3
	c0.133,0.134,0.3,0.233,0.5,0.3c0.066,0.066,0.117,0.101,0.15,0.101c0.867,0.3,1.683,0.066,2.45-0.7c0-5.467-0.034-8.95-0.1-10.45
	c0-0.9,0.333-1.667,1-2.3l1.15-0.601l2.05-0.1c1.567-0.033,2.85-0.05,3.85-0.05s1.7,0.45,2.1,1.35
	c0.233,0.467,0.35,0.917,0.35,1.351V16.951l-10.4,0.05" style="stroke: rgb(0, 0, 0);"></path>
</svg>