<svg version="1.1" id="Layer_1" xmlns="http://www.w3.org/2000/svg" xmlns:xlink="http://www.w3.org/1999/xlink" x="0px" y="0px" width="21.301px" height="34.61px" viewBox="0 0 21.301 34.61" enable-background="new 0 0 21.301 34.61" xml:space="preserve" class="ng-scope">
<path fill-rule="evenodd" clip-rule="evenodd" fill="#FFFFFF" d="M12.275,6.785h0.1l1.25,0.65l1.7,0.55l0.35,0.149
	c0.1,0.034,0.184,0.034,0.25,0l0.05-0.05c0.066-0.033,0.1-0.116,0.1-0.25c0-0.267,0.283-0.833,0.85-1.7
	c0.633-0.866,1-1.35,1.1-1.449l0.25-0.5c0.033-0.067-0.066-0.117-0.3-0.15c-0.3-0.167-0.85-0.45-1.65-0.85
	c-0.1,0-0.15-0.034-0.15-0.101c-0.833-0.399-1.316-0.717-1.45-0.95c-0.067-0.033-0.167-0.083-0.3-0.149l-2.5-1l4.15-0.101
	c0.133-0.166,0.417-0.267,0.85-0.3c0.233,0,0.434,0.017,0.6,0.05l1.85-0.05l0.5,0.15c0.333,0.166,0.517,0.434,0.55,0.8
	c0.034,0.233,0.184,2.55,0.45,6.95c0.1,2.133,0.2,4.267,0.3,6.399l-0.15,0.601c-0.133,0.366-0.417,0.583-0.85,0.649h-0.1l0.1,14.65
	c0,1.634-0.55,2.733-1.65,3.3c-0.5,0.267-1,0.384-1.5,0.351c-0.9,0.033-2.6,0.05-5.1,0.05l-7.65-0.05
	c-0.566,0.033-1.083-0.101-1.55-0.4c-1.067-0.533-1.6-1.616-1.6-3.25v-14.7c-0.4-0.033-0.7-0.267-0.9-0.7l-0.1-0.6
	c0.1-2.1,0.217-4.25,0.35-6.45c0.233-4.333,0.367-6.666,0.4-7c0.033-0.3,0.217-0.517,0.55-0.649l0.45-0.2l2.5,0.05
	c0.467,0.033,0.733,0.15,0.8,0.35l0.25,0.101l0.1-0.75c0.333,0.267,0.65,0.483,0.95,0.649h3.8v1c-0.033,0.467-0.117,0.9-0.25,1.301
	c0.4,0.133,1.217,0.783,2.45,1.949l0.4,0.101c0.167,0.133,0.183,0.316,0.05,0.55c-0.267,0.333-0.466,0.65-0.6,0.95
	c0.133-0.3,0.333-0.617,0.6-0.95c0.133-0.233,0.117-0.417-0.05-0.55l-0.4-0.101c-1.233-1.166-2.05-1.816-2.45-1.949
	c0.133-0.4,0.217-0.834,0.25-1.301v-1c0.033-0.233,0.1-0.399,0.2-0.5h0.15l1.3,0.601l2.5,1c0.133,0.066,0.233,0.116,0.3,0.149
	c0.133,0.233,0.617,0.551,1.45,0.95c0,0.066,0.05,0.101,0.15,0.101c0.8,0.399,1.35,0.683,1.65,0.85
	c0.233,0.033,0.333,0.083,0.3,0.15l-0.25,0.5c-0.1,0.1-0.467,0.583-1.1,1.449c-0.566,0.867-0.85,1.434-0.85,1.7
	c0,0.134-0.034,0.217-0.1,0.25l-0.05,0.05c-0.066,0.034-0.15,0.034-0.25,0l-0.35-0.149l-1.7-0.55l-1.25-0.65l-0.05-0.05
	L12.275,6.785c-0.033,0.033-0.05,0.1-0.05,0.2c-0.233,0.566-0.283,1.083-0.15,1.55c0.233,0.467,0.283,0.783,0.15,0.95
	c-0.033,0.166-0.233,0.25-0.6,0.25c-1.667-0.334-3.583-1.4-5.75-3.2c-0.167-0.033-0.283-0.05-0.35-0.05
	c-0.167,0-0.316-0.05-0.45-0.15c-0.467-0.1-0.55-0.267-0.25-0.5c0.3-0.133,0.483-0.75,0.55-1.85l0.05-1.25v-0.4
	c-0.066-0.333-0.066-0.767,0-1.3v-0.05v0.05c-0.066,0.533-0.066,0.967,0,1.3h-0.1c-0.167-0.399-0.367-0.717-0.6-0.95l-0.4-0.199
	V0.885h0.85h-0.85v0.301l0.4,0.199c0.233,0.233,0.433,0.551,0.6,0.95v0.05c0.033,0.101,0.066,0.217,0.1,0.351l-0.05,1.25
	c-0.067,1.1-0.25,1.717-0.55,1.85c-0.3,0.233-0.217,0.4,0.25,0.5c0.133,0.101,0.283,0.15,0.45,0.15c0.067,0,0.184,0.017,0.35,0.05
	c2.167,1.8,4.083,2.866,5.75,3.2c0.367,0,0.567-0.084,0.6-0.25c0.133-0.167,0.083-0.483-0.15-0.95
	c-0.133-0.467-0.083-0.983,0.15-1.55C12.226,6.885,12.242,6.818,12.275,6.785z"></path>
<path fill-rule="evenodd" clip-rule="evenodd" fill="#FFFFFF" d="M16.175,3.085l-0.1-0.35c0.133-0.601,0.367-1,0.7-1.2l0.5-0.25
	v-0.4h-1.2h1.2v0.4l-0.5,0.25c-0.333,0.2-0.566,0.6-0.7,1.2L16.175,3.085z"></path>
<path fill-rule="evenodd" clip-rule="evenodd" fill="#FFFFFF" d="M10.025,3.186c-0.033,0-0.066,0-0.1,0
	c-0.333-0.067-1.483-0.834-3.45-2.301c1.967,1.467,3.117,2.233,3.45,2.301C9.959,3.186,9.992,3.186,10.025,3.186z"></path>
<path fill-rule="evenodd" clip-rule="evenodd" fill="#FFFFFF" d="M1.125,16.085c0.4,0.066,0.983,0.066,1.75,0
	c0.467,0,0.85-0.017,1.15-0.05c0.1,0,0.233-0.033,0.4-0.1c0.3-0.167,0.5-0.5,0.6-1c0.067-0.467,0.117-0.95,0.15-1.45l0.35-7l-0.35,7
	c-0.033,0.5-0.083,0.983-0.15,1.45c-0.1,0.5-0.3,0.833-0.6,1c-0.167,0.066-0.3,0.1-0.4,0.1c-0.3,0.033-0.683,0.05-1.15,0.05
	C2.109,16.151,1.525,16.151,1.125,16.085z"></path>
<path fill-rule="evenodd" clip-rule="evenodd" fill="#FFFFFF" d="M15.925,8.135l0.15,5.4c0.066,0.5,0.15,1.017,0.25,1.55
	c0.1,0.434,0.283,0.75,0.55,0.95c0.133,0.066,0.283,0.083,0.45,0.05l1.1,0.101c0.767,0,1.317-0.017,1.65-0.051
	c-0.333,0.034-0.883,0.051-1.65,0.051l-1.1-0.101c-0.167,0.033-0.317,0.017-0.45-0.05c-0.267-0.2-0.45-0.517-0.55-0.95
	c-0.1-0.533-0.184-1.05-0.25-1.55L15.925,8.135z"></path>
<polygon fill-rule="evenodd" clip-rule="evenodd" fill="#B59A87" points="12.375,6.785 12.275,6.785 12.326,6.735 " style="fill: rgb(0, 0, 0);"></polygon>
<path fill-rule="evenodd" clip-rule="evenodd" fill="#B59A87" d="M5.326,2.335h0.1v0.4c-0.033-0.134-0.066-0.25-0.1-0.351V2.335z" style="fill: rgb(0, 0, 0);"></path>
<path fill-rule="evenodd" clip-rule="evenodd" fill="none" stroke="#383635" stroke-width="0.3" d="M11.925,0.985l-1.3-0.601h-0.15
	c-0.1,0.101-0.167,0.267-0.2,0.5v1c-0.033,0.467-0.117,0.9-0.25,1.301c0.4,0.133,1.217,0.783,2.45,1.949l0.4,0.101
	c0.167,0.133,0.183,0.316,0.05,0.55c-0.267,0.333-0.466,0.65-0.6,0.95" style="stroke: rgb(0, 0, 0);"></path>
<path fill-rule="evenodd" clip-rule="evenodd" fill="none" stroke="#383635" stroke-width="0.3" d="M12.375,6.785l1.25,0.65
	l1.7,0.55l0.35,0.149c0.1,0.034,0.184,0.034,0.25,0l0.05-0.05c0.066-0.033,0.1-0.116,0.1-0.25c0-0.267,0.283-0.833,0.85-1.7
	c0.633-0.866,1-1.35,1.1-1.449l0.25-0.5c0.033-0.067-0.066-0.117-0.3-0.15c-0.3-0.167-0.85-0.45-1.65-0.85
	c-0.1,0-0.15-0.034-0.15-0.101c-0.833-0.399-1.316-0.717-1.45-0.95c-0.067-0.033-0.167-0.083-0.3-0.149l-2.5-1l4.15-0.101
	c0.133-0.166,0.417-0.267,0.85-0.3c0.233,0,0.434,0.017,0.6,0.05l1.85-0.05l0.5,0.15c0.333,0.166,0.517,0.434,0.55,0.8
	c0.034,0.233,0.184,2.55,0.45,6.95c0.1,2.133,0.2,4.267,0.3,6.399l-0.15,0.601c-0.133,0.366-0.417,0.583-0.85,0.649h-0.1l0.1,14.65
	c0,1.634-0.55,2.733-1.65,3.3c-0.5,0.267-1,0.384-1.5,0.351c-0.9,0.033-2.6,0.05-5.1,0.05l-7.65-0.05
	c-0.566,0.033-1.083-0.101-1.55-0.4c-1.067-0.533-1.6-1.616-1.6-3.25v-14.7c-0.4-0.033-0.7-0.267-0.9-0.7l-0.1-0.6
	c0.1-2.1,0.217-4.25,0.35-6.45c0.233-4.333,0.367-6.666,0.4-7c0.033-0.3,0.217-0.517,0.55-0.649l0.45-0.2l2.5,0.05
	c0.467,0.033,0.733,0.15,0.8,0.35l0.25,0.101l0.1-0.75c0.333,0.267,0.65,0.483,0.95,0.649h3.8" style="stroke: rgb(0, 0, 0);"></path>
<path fill-rule="evenodd" clip-rule="evenodd" fill="none" stroke="#383635" stroke-width="0.3" d="M16.076,0.885h1.2v0.4
	l-0.5,0.25c-0.333,0.2-0.566,0.6-0.7,1.2l0.1,0.35" style="stroke: rgb(0, 0, 0);"></path>
<path fill-rule="evenodd" clip-rule="evenodd" fill="none" stroke="#383635" stroke-width="0.3" d="M5.425,0.985v0.05
	c-0.066,0.533-0.066,0.967,0,1.3v0.4l-0.05,1.25c-0.067,1.1-0.25,1.717-0.55,1.85c-0.3,0.233-0.217,0.4,0.25,0.5
	c0.133,0.101,0.283,0.15,0.45,0.15c0.067,0,0.184,0.017,0.35,0.05c2.167,1.8,4.083,2.866,5.75,3.2c0.367,0,0.567-0.084,0.6-0.25
	c0.133-0.167,0.083-0.483-0.15-0.95c-0.133-0.467-0.083-0.983,0.15-1.55c0-0.101,0.017-0.167,0.05-0.2l0.05-0.05" style="stroke: rgb(0, 0, 0);"></path>
<path fill-rule="evenodd" clip-rule="evenodd" fill="none" stroke="#383635" stroke-width="0.3" d="M5.326,2.335
	c-0.167-0.399-0.367-0.717-0.6-0.95l-0.4-0.199V0.885h0.85" style="stroke: rgb(0, 0, 0);"></path>
<path fill-rule="evenodd" clip-rule="evenodd" fill="none" stroke="#383635" stroke-width="0.3" d="M5.326,2.335v0.05
	c0.033,0.101,0.066,0.217,0.1,0.351" style="stroke: rgb(0, 0, 0);"></path>
<path fill-rule="evenodd" clip-rule="evenodd" fill="none" stroke="#383635" stroke-width="0.3" d="M10.025,3.186
	c-0.033,0-0.066,0-0.1,0c-0.333-0.067-1.483-0.834-3.45-2.301" style="stroke: rgb(0, 0, 0);"></path>
<path fill-rule="evenodd" clip-rule="evenodd" fill="none" stroke="#383635" stroke-width="0.3" d="M1.125,16.085
	c0.4,0.066,0.983,0.066,1.75,0c0.467,0,0.85-0.017,1.15-0.05c0.1,0,0.233-0.033,0.4-0.1c0.3-0.167,0.5-0.5,0.6-1
	c0.067-0.467,0.117-0.95,0.15-1.45l0.35-7" style="stroke: rgb(0, 0, 0);"></path>
<line fill-rule="evenodd" clip-rule="evenodd" fill="none" stroke="#383635" stroke-width="0.3" x1="12.275" y1="6.785" x2="12.375" y2="6.785" style="stroke: rgb(0, 0, 0);"></line>
<path fill-rule="evenodd" clip-rule="evenodd" fill="none" stroke="#383635" stroke-width="0.3" d="M15.925,8.135l0.15,5.4
	c0.066,0.5,0.15,1.017,0.25,1.55c0.1,0.434,0.283,0.75,0.55,0.95c0.133,0.066,0.283,0.083,0.45,0.05l1.1,0.101
	c0.767,0,1.317-0.017,1.65-0.051" style="stroke: rgb(0, 0, 0);"></path>
</svg>