<svg version="1.1" id="Layer_1" xmlns="http://www.w3.org/2000/svg" xmlns:xlink="http://www.w3.org/1999/xlink" x="0px" y="0px" width="20.637px" height="20.575px" viewBox="0 0 20.637 20.575" enable-background="new 0 0 20.637 20.575" xml:space="preserve" class="ng-scope">
<path fill-rule="evenodd" clip-rule="evenodd" fill="#FFFFFF" d="M12.547,19.332c-0.233,0.4-0.517,0.7-0.85,0.9l-0.3,0.2
	c-0.9-0.4-2.633-1.95-5.2-4.65l-3.4-3.55l0.1-0.101l0.95-0.6c0.233-0.2,0.434-0.366,0.6-0.5c0.567-0.4,1.117-0.866,1.65-1.4
	c2-1.633,3.684-3.416,5.05-5.35c0.367-0.467,0.683-0.917,0.95-1.35c-0.066-0.301-0.167-0.584-0.3-0.851
	c0.133,0.267,0.233,0.55,0.3,0.851c-0.267,0.433-0.583,0.883-0.95,1.35c-1.367,1.934-3.05,3.717-5.05,5.35
	c-0.533,0.534-1.083,1-1.65,1.4c-0.167,0.134-0.367,0.3-0.6,0.5l-0.95,0.6c-0.067-0.1-0.167-0.166-0.3-0.199
	c-0.233-0.067-0.5-0.184-0.8-0.351c-0.6-0.3-1.067-0.6-1.4-0.899c-0.233-0.134-0.317-0.317-0.25-0.551l0.2-0.25l9.45-9.5
	c0.233-0.199,0.433-0.283,0.6-0.25c0.1,0,0.2,0.034,0.3,0.101c0.267,0.3,0.583,0.833,0.95,1.6c0.033,0.101,0.083,0.184,0.15,0.25
	l4,3.7c2.7,2.667,4.267,4.434,4.7,5.3c-0.033,0.066-0.1,0.167-0.2,0.3c-0.233,0.301-0.567,0.601-1,0.9
	c-0.033-0.066-0.067-0.1-0.1-0.1c-1.133,2.133-2.583,3.933-4.35,5.399c-0.566,0.467-1.15,0.867-1.75,1.2l-0.6,0.35l-0.05,0.101
	L12.547,19.332z"></path>
<path fill-rule="evenodd" clip-rule="evenodd" fill="#FFFFFF" d="M12.447,19.232c-1.733-1.934-4.4-4.667-8-8.2
	C8.047,14.565,10.714,17.299,12.447,19.232z"></path>
<path fill-rule="evenodd" clip-rule="evenodd" fill="#FFFFFF" d="M19.197,12.183c-1.8-1.667-4.483-4.301-8.05-7.9
	C14.714,7.882,17.397,10.516,19.197,12.183z"></path>
<path fill-rule="evenodd" clip-rule="evenodd" fill="#B59A87" d="M2.897,12.132l-0.1,0.101l-0.2-0.3
	C2.73,11.966,2.831,12.032,2.897,12.132z" style="fill: rgb(0, 0, 0);"></path>
<path fill-rule="evenodd" clip-rule="evenodd" fill="#B59A87" d="M12.547,19.332l-0.1-0.1c0.033,0,0.067,0.017,0.1,0.05V19.332z" style="fill: rgb(0, 0, 0);"></path>
<path fill-rule="evenodd" clip-rule="evenodd" fill="none" stroke="#383635" stroke-width="0.3" d="M11.797,2.082
	c-0.067-0.066-0.117-0.149-0.15-0.25c-0.367-0.767-0.684-1.3-0.95-1.6c-0.1-0.066-0.2-0.101-0.3-0.101
	c-0.167-0.033-0.367,0.051-0.6,0.25l-9.45,9.5l-0.2,0.25c-0.067,0.233,0.017,0.417,0.25,0.551c0.333,0.3,0.8,0.6,1.4,0.899
	c0.3,0.167,0.566,0.283,0.8,0.351c0.133,0.033,0.233,0.1,0.3,0.199l0.95-0.6c0.233-0.2,0.434-0.366,0.6-0.5
	c0.567-0.4,1.117-0.866,1.65-1.4c2-1.633,3.684-3.416,5.05-5.35c0.367-0.467,0.683-0.917,0.95-1.35
	C12.031,2.632,11.931,2.349,11.797,2.082z" style="stroke: rgb(0, 0, 0);"></path>
<path fill-rule="evenodd" clip-rule="evenodd" fill="none" stroke="#383635" stroke-width="0.3" d="M2.597,11.933l0.2,0.3l3.4,3.55
	c2.567,2.7,4.3,4.25,5.2,4.65l0.3-0.2c0.333-0.2,0.617-0.5,0.85-0.9v-0.05c-0.033-0.033-0.067-0.05-0.1-0.05
	c-1.733-1.934-4.4-4.667-8-8.2" style="stroke: rgb(0, 0, 0);"></path>
<path fill-rule="evenodd" clip-rule="evenodd" fill="none" stroke="#383635" stroke-width="0.3" d="M12.447,19.232l0.05-0.101
	l0.6-0.35c0.6-0.333,1.184-0.733,1.75-1.2c1.767-1.467,3.217-3.267,4.35-5.399c-1.8-1.667-4.483-4.301-8.05-7.9" style="stroke: rgb(0, 0, 0);"></path>
<path fill-rule="evenodd" clip-rule="evenodd" fill="none" stroke="#383635" stroke-width="0.3" d="M19.197,12.183
	c0.033,0,0.067,0.033,0.1,0.1c0.433-0.3,0.767-0.6,1-0.9c0.1-0.133,0.167-0.233,0.2-0.3c-0.433-0.866-2-2.633-4.7-5.3l-4-3.7" style="stroke: rgb(0, 0, 0);"></path>
</svg>