<svg version="1.1" id="Layer_1" xmlns="http://www.w3.org/2000/svg" xmlns:xlink="http://www.w3.org/1999/xlink" x="0px" y="0px" width="18.706px" height="18.035px" viewBox="0 0 18.706 18.035" enable-background="new 0 0 18.706 18.035" xml:space="preserve" class="ng-scope">
<path fill-rule="evenodd" clip-rule="evenodd" fill="#FFFFFF" d="M17.708,7.616c-0.199,0.1-0.449,0.183-0.75,0.25v0.05
	c-0.833,0.233-1.283,0.367-1.35,0.4c-0.1,0.067-0.184,0.134-0.25,0.2s-0.116,0.15-0.15,0.25c-0.066,0.033-0.116,0.084-0.149,0.15
	c-0.101,0.166-0.2,0.333-0.3,0.5c-0.067,0.066-0.134,0.149-0.2,0.25c-0.101,0.199-0.184,0.383-0.25,0.55
	c0.366-0.634,0.7-1.083,1-1.351v-0.05c0-0.134,0.1-0.149,0.3-0.05c0.134,0.066,0.25,0.133,0.35,0.2
	c0.367,0.899,0.567,2.167,0.601,3.8c0.033,2.166-0.467,3.467-1.5,3.9c-0.5,0.199-0.884,0.266-1.15,0.199
	c-0.733,0.566-1.45,0.9-2.149,1c-1.134,0.167-2.567-0.149-4.301-0.949c-1.566-0.734-2.466-1.184-2.699-1.351
	c-0.934-0.433-1.767-1.05-2.5-1.85c-0.767-0.8-1.167-1.616-1.2-2.45c-0.033-0.033-0.05-0.084-0.05-0.15l-0.25-0.149
	c-0.034-0.034-0.084-0.083-0.15-0.15c-0.134-0.2-0.267-0.483-0.4-0.85c-0.333-1.101,0.334-2.333,2-3.7
	c1.267-1.033,2.367-1.7,3.301-2l0.399,0.2c0.167,0.1,0.217,0.183,0.15,0.25h-0.05c0.1,0.133,0.033,0.533-0.2,1.2
	c0.133-0.167,0.233-0.333,0.3-0.5c0.066-0.167,0.134-0.3,0.2-0.4c0.033-0.1,0.066-0.2,0.1-0.3c0-0.133,0-0.25,0-0.35
	c-0.233-0.333-0.434-0.75-0.6-1.25c-0.033-0.133-0.084-0.267-0.15-0.4c-0.066-0.233-0.116-0.467-0.149-0.7
	c-0.067-0.4-0.034-0.75,0.1-1.05c0.366-0.967,1.767-1.1,4.2-0.4c1.166,0.333,2.316,0.784,3.45,1.35c2.399,1.133,4,2.217,4.8,3.25
	c0.6,0.767,0.684,1.417,0.25,1.95C18.175,7.283,17.975,7.449,17.708,7.616c-0.399,0.167-0.75,0.133-1.05-0.1
	c-0.866-0.933-2.399-1.933-4.6-3c-1.134-0.567-2.283-1.017-3.45-1.35c-1-0.3-1.816-0.45-2.45-0.45c-0.366-0.067-0.583-0.3-0.649-0.7
	c0.066,0.4,0.283,0.633,0.649,0.7c0.634,0,1.45,0.15,2.45,0.45c1.167,0.333,2.316,0.783,3.45,1.35c2.2,1.067,3.733,2.067,4.6,3
	C16.958,7.75,17.309,7.783,17.708,7.616z"></path>
<path fill-rule="evenodd" clip-rule="evenodd" fill="#FFFFFF" d="M5.809,5.916c-0.066,0.133-0.134,0.25-0.2,0.35
	c-0.1,0.1-0.15,0.167-0.15,0.2c0.267-0.067,0.5-0.034,0.7,0.1c1.233,0.733,2.4,1.367,3.5,1.9c1.434,0.6,2.75,1.116,3.95,1.55
	c0.366,0.267,0.566,0.5,0.6,0.7c0.034-0.134,0.067-0.284,0.101-0.45v-0.05v0.05c-0.033,0.166-0.066,0.316-0.101,0.45
	c-0.033-0.2-0.233-0.434-0.6-0.7c-1.2-0.434-2.517-0.95-3.95-1.55c-1.1-0.534-2.267-1.167-3.5-1.9c-0.2-0.133-0.434-0.167-0.7-0.1
	c0-0.034,0.051-0.1,0.15-0.2C5.675,6.166,5.742,6.049,5.809,5.916z"></path>
<path fill-rule="evenodd" clip-rule="evenodd" fill="#FFFFFF" d="M14.309,11.566c-0.066-0.267-0.117-0.483-0.15-0.649
	c0-0.066,0.017-0.134,0.05-0.2c-0.033,0.066-0.05,0.134-0.05,0.2C14.191,11.083,14.242,11.299,14.309,11.566
	c0.033,0.267,0.1,0.583,0.2,0.95c0.166,0.733,0.25,1.133,0.25,1.2c0.333-1.067,0.433-2.233,0.3-3.5
	C14.759,10.417,14.509,10.866,14.309,11.566z"></path>
<path fill-rule="evenodd" clip-rule="evenodd" fill="#FFFFFF" d="M14.759,13.716c0.233-0.567,0.383-1.2,0.449-1.9
	c0.167-1.233,0.2-2.216,0.101-2.95c0.1,0.734,0.066,1.717-0.101,2.95C15.142,12.516,14.992,13.149,14.759,13.716z"></path>
<path fill-rule="evenodd" clip-rule="evenodd" fill="#FFFFFF" d="M15.059,8.917c-0.233,0.333-0.533,0.383-0.9,0.149
	c-2.2-1.533-4.649-2.65-7.35-3.35c-0.4-0.133-0.566-0.367-0.5-0.7c-0.066,0.333,0.1,0.567,0.5,0.7c2.7,0.7,5.149,1.816,7.35,3.35
	C14.525,9.299,14.825,9.25,15.059,8.917z"></path>
<path fill-rule="evenodd" clip-rule="evenodd" fill="#FFFFFF" d="M13.908,16.866c-0.133-0.033-0.25-0.083-0.35-0.149l-0.05,0.05
	c-0.5,0.3-1,0.483-1.5,0.55c-1.101,0.167-2.517-0.149-4.25-0.95c-1.567-0.732-2.483-1.184-2.75-1.35
	c-0.934-0.467-1.767-1.084-2.5-1.85c-0.601-0.667-0.983-1.334-1.15-2c-0.1,0.033-0.217,0.016-0.35-0.051h0.05l-0.3-0.149l0.3,0.149
	h-0.05c0.133,0.066,0.25,0.084,0.35,0.051c0.167,0.666,0.55,1.333,1.15,2c0.733,0.766,1.566,1.383,2.5,1.85
	c0.267,0.166,1.183,0.617,2.75,1.35c1.733,0.801,3.149,1.117,4.25,0.95c0.5-0.066,1-0.25,1.5-0.55l0.05-0.05
	C13.658,16.783,13.775,16.833,13.908,16.866z"></path>
<path fill-rule="evenodd" clip-rule="evenodd" fill="#FFFFFF" d="M5.458,6.466c-0.066,0-0.1,0.017-0.1,0.05
	c-0.167,0.033-0.316,0.1-0.45,0.2c0.134-0.1,0.283-0.167,0.45-0.2C5.358,6.483,5.392,6.466,5.458,6.466z"></path>
<path fill-rule="evenodd" clip-rule="evenodd" fill="#FFFFFF" d="M4.908,6.716c0.334-0.567,0.55-0.967,0.65-1.2
	c-0.634,0.233-1.134,0.55-1.5,0.95c-0.066,0.066-0.134,0.15-0.2,0.25l-0.3,0.3c-0.3,0.3-0.55,0.617-0.75,0.95
	c-0.601,1-0.917,1.917-0.95,2.75c-0.167,0.233-0.333,0.384-0.5,0.45c0.167-0.066,0.333-0.217,0.5-0.45
	c0.033-0.833,0.35-1.75,0.95-2.75c0.5-0.333,1.166-0.733,2-1.2C4.842,6.766,4.875,6.75,4.908,6.716z"></path>
<path fill-rule="evenodd" clip-rule="evenodd" fill="#FFFFFF" d="M3.559,7.016c-0.267,0.233-0.5,0.5-0.7,0.8
	c-0.033,0.034-0.05,0.083-0.05,0.15c0-0.067,0.017-0.117,0.05-0.15C3.059,7.516,3.292,7.25,3.559,7.016z"></path>
<path fill-rule="evenodd" clip-rule="evenodd" fill="#FFFFFF" d="M6.009,4.716c-0.567,0.333-1.217,0.917-1.95,1.75
	C4.792,5.633,5.441,5.049,6.009,4.716z"></path>
<path fill-rule="evenodd" clip-rule="evenodd" fill="#FFFFFF" d="M13.559,16.716h-0.05c-0.2-0.233-0.233-0.5-0.101-0.8
	c0.601-0.533,1.05-1.268,1.351-2.2c-0.301,0.933-0.75,1.667-1.351,2.2c-0.133,0.3-0.1,0.566,0.101,0.8H13.559z"></path>
<path fill-rule="evenodd" clip-rule="evenodd" fill="none" stroke="#383635" stroke-width="0.3" stroke-linecap="round" stroke-linejoin="round" stroke-miterlimit="3" d="
	M17.708,7.616c-0.199,0.1-0.449,0.183-0.75,0.25v0.05c-0.833,0.233-1.283,0.367-1.35,0.4c-0.1,0.067-0.184,0.134-0.25,0.2
	s-0.116,0.15-0.15,0.25c-0.066,0.033-0.116,0.084-0.149,0.15c-0.101,0.166-0.2,0.333-0.3,0.5c-0.067,0.066-0.134,0.149-0.2,0.25
	c-0.101,0.199-0.184,0.383-0.25,0.55c0.366-0.634,0.7-1.083,1-1.351v-0.05c0-0.134,0.1-0.149,0.3-0.05
	c0.134,0.066,0.25,0.133,0.35,0.2c0.367,0.899,0.567,2.167,0.601,3.8c0.033,2.166-0.467,3.467-1.5,3.9
	c-0.5,0.199-0.884,0.266-1.15,0.199c-0.733,0.566-1.45,0.9-2.149,1c-1.134,0.167-2.567-0.149-4.301-0.949
	c-1.566-0.734-2.466-1.184-2.699-1.351c-0.934-0.433-1.767-1.05-2.5-1.85c-0.767-0.8-1.167-1.616-1.2-2.45
	c-0.033-0.033-0.05-0.084-0.05-0.15l-0.25-0.149c-0.034-0.034-0.084-0.083-0.15-0.15c-0.134-0.2-0.267-0.483-0.4-0.85
	c-0.333-1.101,0.334-2.333,2-3.7c1.267-1.033,2.367-1.7,3.301-2l0.399,0.2c0.167,0.1,0.217,0.183,0.15,0.25h-0.05
	c0.1,0.133,0.033,0.533-0.2,1.2c0.133-0.167,0.233-0.333,0.3-0.5c0.066-0.167,0.134-0.3,0.2-0.4c0.033-0.1,0.066-0.2,0.1-0.3
	c0-0.133,0-0.25,0-0.35c-0.233-0.333-0.434-0.75-0.6-1.25c-0.033-0.133-0.084-0.267-0.15-0.4c-0.066-0.233-0.116-0.467-0.149-0.7
	c-0.067-0.4-0.034-0.75,0.1-1.05c0.366-0.967,1.767-1.1,4.2-0.4c1.166,0.333,2.316,0.784,3.45,1.35c2.399,1.133,4,2.217,4.8,3.25
	c0.6,0.767,0.684,1.417,0.25,1.95C18.175,7.283,17.975,7.449,17.708,7.616c-0.399,0.167-0.75,0.133-1.05-0.1
	c-0.866-0.933-2.399-1.933-4.6-3c-1.134-0.567-2.283-1.017-3.45-1.35c-1-0.3-1.816-0.45-2.45-0.45c-0.366-0.067-0.583-0.3-0.649-0.7
	" style="stroke: rgb(0, 0, 0);"></path>
<path fill-rule="evenodd" clip-rule="evenodd" fill="none" stroke="#383635" stroke-width="0.3" stroke-linecap="round" stroke-linejoin="round" stroke-miterlimit="3" d="
	M5.809,5.916c-0.066,0.133-0.134,0.25-0.2,0.35c-0.1,0.1-0.15,0.167-0.15,0.2c0.267-0.067,0.5-0.034,0.7,0.1
	c1.233,0.733,2.4,1.367,3.5,1.9c1.434,0.6,2.75,1.116,3.95,1.55c0.366,0.267,0.566,0.5,0.6,0.7c0.034-0.134,0.067-0.284,0.101-0.45
	v-0.05" style="stroke: rgb(0, 0, 0);"></path>
<path fill-rule="evenodd" clip-rule="evenodd" fill="none" stroke="#383635" stroke-width="0.3" stroke-linecap="round" stroke-linejoin="round" stroke-miterlimit="3" d="
	M14.309,11.566c-0.066-0.267-0.117-0.483-0.15-0.649c0-0.066,0.017-0.134,0.05-0.2" style="stroke: rgb(0, 0, 0);"></path>
<path fill-rule="evenodd" clip-rule="evenodd" fill="none" stroke="#383635" stroke-width="0.3" stroke-linecap="round" stroke-linejoin="round" stroke-miterlimit="3" d="
	M14.759,13.716c0.233-0.567,0.383-1.2,0.449-1.9c0.167-1.233,0.2-2.216,0.101-2.95" style="stroke: rgb(0, 0, 0);"></path>
<path fill-rule="evenodd" clip-rule="evenodd" fill="none" stroke="#383635" stroke-width="0.3" stroke-linecap="round" stroke-linejoin="round" stroke-miterlimit="3" d="
	M14.309,11.566c0.033,0.267,0.1,0.583,0.2,0.95c0.166,0.733,0.25,1.133,0.25,1.2c0.333-1.067,0.433-2.233,0.3-3.5
	C14.759,10.417,14.509,10.866,14.309,11.566z" style="stroke: rgb(0, 0, 0);"></path>
<path fill-rule="evenodd" clip-rule="evenodd" fill="none" stroke="#383635" stroke-width="0.3" stroke-linecap="round" stroke-linejoin="round" stroke-miterlimit="3" d="
	M15.059,8.917c-0.233,0.333-0.533,0.383-0.9,0.149c-2.2-1.533-4.649-2.65-7.35-3.35c-0.4-0.133-0.566-0.367-0.5-0.7" style="stroke: rgb(0, 0, 0);"></path>
<path fill-rule="evenodd" clip-rule="evenodd" fill="none" stroke="#383635" stroke-width="0.3" stroke-linecap="round" stroke-linejoin="round" stroke-miterlimit="3" d="
	M13.908,16.866c-0.133-0.033-0.25-0.083-0.35-0.149l-0.05,0.05c-0.5,0.3-1,0.483-1.5,0.55c-1.101,0.167-2.517-0.149-4.25-0.95
	c-1.567-0.732-2.483-1.184-2.75-1.35c-0.934-0.467-1.767-1.084-2.5-1.85c-0.601-0.667-0.983-1.334-1.15-2
	c-0.1,0.033-0.217,0.016-0.35-0.051h0.05l-0.3-0.149" style="stroke: rgb(0, 0, 0);"></path>
<path fill-rule="evenodd" clip-rule="evenodd" fill="none" stroke="#383635" stroke-width="0.3" stroke-linecap="round" stroke-linejoin="round" stroke-miterlimit="3" d="
	M5.458,6.466c-0.066,0-0.1,0.017-0.1,0.05c-0.167,0.033-0.316,0.1-0.45,0.2c-0.033,0.033-0.066,0.05-0.1,0.05
	c-0.834,0.467-1.5,0.867-2,1.2c-0.601,1-0.917,1.917-0.95,2.75c-0.167,0.233-0.333,0.384-0.5,0.45" style="stroke: rgb(0, 0, 0);"></path>
<path fill-rule="evenodd" clip-rule="evenodd" fill="none" stroke="#383635" stroke-width="0.3" stroke-linecap="round" stroke-linejoin="round" stroke-miterlimit="3" d="
	M3.559,7.016c-0.267,0.233-0.5,0.5-0.7,0.8c-0.033,0.034-0.05,0.083-0.05,0.15C3.009,7.633,3.259,7.316,3.559,7.016z" style="stroke: rgb(0, 0, 0);"></path>
<path fill-rule="evenodd" clip-rule="evenodd" fill="none" stroke="#383635" stroke-width="0.3" stroke-linecap="round" stroke-linejoin="round" stroke-miterlimit="3" d="
	M4.908,6.716c0.334-0.567,0.55-0.967,0.65-1.2c-0.634,0.233-1.134,0.55-1.5,0.95c-0.066,0.066-0.134,0.15-0.2,0.25l-0.3,0.3" style="stroke: rgb(0, 0, 0);"></path>
<path fill-rule="evenodd" clip-rule="evenodd" fill="none" stroke="#383635" stroke-width="0.3" stroke-linecap="round" stroke-linejoin="round" stroke-miterlimit="3" d="
	M6.009,4.716c-0.567,0.333-1.217,0.917-1.95,1.75" style="stroke: rgb(0, 0, 0);"></path>
<path fill-rule="evenodd" clip-rule="evenodd" fill="none" stroke="#383635" stroke-width="0.3" stroke-linecap="round" stroke-linejoin="round" stroke-miterlimit="3" d="
	M13.559,16.716h-0.05c-0.2-0.233-0.233-0.5-0.101-0.8c0.601-0.533,1.05-1.268,1.351-2.2" style="stroke: rgb(0, 0, 0);"></path>
</svg>