<svg version="1.1" id="Layer_1" xmlns="http://www.w3.org/2000/svg" xmlns:xlink="http://www.w3.org/1999/xlink" x="0px" y="0px" width="14.9px" height="32.05px" viewBox="0 0 14.9 32.05" enable-background="new 0 0 14.9 32.05" xml:space="preserve" class="ng-scope">
<path fill-rule="evenodd" clip-rule="evenodd" fill="#FFFFFF" d="M2.275,5.05c3.5-0.801,6.934-0.801,10.3,0V5.7
	c0.533-0.3,1.05-0.3,1.55,0V3.65h0.65V5.7h-0.65v10.9V18h0.65v2.051h-0.65v9.699h0.65V31.8h-0.65v-0.75
	c-4.166,1.166-8.616,1.166-13.35,0v0.75h-0.65V29.75h0.65V20.05h-0.65V18h0.65v-1.3v-11h-0.65V3.65h0.65V5.7
	c0.5-0.267,1-0.267,1.5,0V5.05V5.7c-0.5-0.267-1-0.267-1.5,0V3.65V1.1c4.4-1.3,8.85-1.3,13.35,0v2.55V5.7c-0.5-0.3-1.017-0.3-1.55,0
	V5.05v-0.9v-1.3v-0.7c-3.434-0.867-6.866-0.867-10.3,0v0.7v1.3V5.05z"></path>
<path fill-rule="evenodd" clip-rule="evenodd" fill="#FFFFFF" d="M2.275,2.85c3.434-0.733,6.866-0.733,10.3,0v1.3
	c-3.434-0.833-6.866-0.833-10.3,0V2.85z"></path>
<path fill-rule="evenodd" clip-rule="evenodd" fill="#FFFFFF" d="M12.575,5.7v0.7v9.85c0.434,0.5,0.95,0.617,1.55,0.351
	c-0.6,0.267-1.116,0.149-1.55-0.351V6.4V5.7z"></path>
<polygon fill-rule="evenodd" clip-rule="evenodd" fill="#FFFFFF" points="14.125,18.95 14.125,19.45 14.125,20.05 14.125,19.45 "></polygon>
<polygon fill-rule="evenodd" clip-rule="evenodd" fill="#FFFFFF" points="14.125,18 14.125,18.4 14.125,18.95 14.125,18.4 "></polygon>
<path fill-rule="evenodd" clip-rule="evenodd" fill="#FFFFFF" d="M2.275,5.7v0.7c3.434-1.1,6.866-1.1,10.3,0
	c-3.434-1.1-6.866-1.1-10.3,0V5.7z"></path>
<path fill-rule="evenodd" clip-rule="evenodd" fill="#FFFFFF" d="M2.275,6.4v9.9C1.842,16.867,1.342,17,0.775,16.7
	c0.566,0.3,1.066,0.167,1.5-0.399V6.4z"></path>
<polygon fill-rule="evenodd" clip-rule="evenodd" fill="#FFFFFF" points="0.775,20.05 0.775,19.45 0.775,18.95 0.775,18 
	0.775,18.95 0.775,19.45 "></polygon>
<path fill-rule="evenodd" clip-rule="evenodd" fill="#FFFFFF" d="M0.775,31.05V29.75V31.05z"></path>
<path fill-rule="evenodd" clip-rule="evenodd" fill="#FFFFFF" d="M14.125,31.05V29.75V31.05z"></path>
<path fill-rule="evenodd" clip-rule="evenodd" fill="#FFFFFF" d="M14.125,19.45c-4.166-1.167-8.616-1.167-13.35,0
	C5.509,18.283,9.959,18.283,14.125,19.45z"></path>
<path fill-rule="evenodd" clip-rule="evenodd" fill="#FFFFFF" d="M0.775,18.95c4.733-1.167,9.184-1.167,13.35,0
	C9.959,17.783,5.509,17.783,0.775,18.95z"></path>
<path fill-rule="evenodd" clip-rule="evenodd" fill="none" stroke="#383635" stroke-width="0.3" d="M14.125,3.65V1.1
	c-4.5-1.3-8.949-1.3-13.35,0v2.55V5.7c0.5-0.267,1-0.267,1.5,0V5.05v-0.9v-1.3v-0.7c3.434-0.867,6.866-0.867,10.3,0v0.7v1.3v0.9V5.7
	c0.533-0.3,1.05-0.3,1.55,0V3.65z" style="stroke: rgb(0, 0, 0);"></path>
<polyline fill-rule="evenodd" clip-rule="evenodd" fill="none" stroke="#383635" stroke-width="0.3" points="14.125,5.7 
	14.125,16.6 14.125,18 14.125,18.4 " style="stroke: rgb(0, 0, 0);"></polyline>
<line fill-rule="evenodd" clip-rule="evenodd" fill="none" stroke="#383635" stroke-width="0.3" x1="14.125" y1="20.05" x2="14.125" y2="29.75" style="stroke: rgb(0, 0, 0);"></line>
<path fill-rule="evenodd" clip-rule="evenodd" fill="none" stroke="#383635" stroke-width="0.3" d="M14.125,31.8v-0.75
	c-4.166,1.166-8.616,1.166-13.35,0v0.75" style="stroke: rgb(0, 0, 0);"></path>
<polyline fill-rule="evenodd" clip-rule="evenodd" fill="none" stroke="#383635" stroke-width="0.3" points="0.775,29.75 
	0.775,20.05 0.775,19.45 0.775,18.95 0.775,18 0.775,16.7 0.775,5.7 " style="stroke: rgb(0, 0, 0);"></polyline>
<path fill-rule="evenodd" clip-rule="evenodd" fill="none" stroke="#383635" stroke-width="0.3" d="M12.575,5.7v0.7v9.85
	c0.434,0.5,0.95,0.617,1.55,0.351" style="stroke: rgb(0, 0, 0);"></path>
<polyline fill-rule="evenodd" clip-rule="evenodd" fill="none" stroke="#383635" stroke-width="0.3" points="14.125,18.95 
	14.125,19.45 14.125,20.05 " style="stroke: rgb(0, 0, 0);"></polyline>
<path fill-rule="evenodd" clip-rule="evenodd" fill="none" stroke="#383635" stroke-width="0.3" d="M2.275,5.7v0.7
	c3.434-1.1,6.866-1.1,10.3,0" style="stroke: rgb(0, 0, 0);"></path>
<path fill-rule="evenodd" clip-rule="evenodd" fill="none" stroke="#383635" stroke-width="0.3" d="M2.275,6.4v9.9
	C1.842,16.867,1.342,17,0.775,16.7" style="stroke: rgb(0, 0, 0);"></path>
<line fill-rule="evenodd" clip-rule="evenodd" fill="none" stroke="#383635" stroke-width="0.3" x1="0.775" y1="31.05" x2="0.775" y2="29.75" style="stroke: rgb(0, 0, 0);"></line>
<line fill-rule="evenodd" clip-rule="evenodd" fill="none" stroke="#383635" stroke-width="0.3" x1="14.125" y1="31.05" x2="14.125" y2="29.75" style="stroke: rgb(0, 0, 0);"></line>
<path fill-rule="evenodd" clip-rule="evenodd" fill="none" stroke="#383635" stroke-width="0.3" d="M2.275,4.15
	c3.434-0.833,6.866-0.833,10.3,0" style="stroke: rgb(0, 0, 0);"></path>
<path fill-rule="evenodd" clip-rule="evenodd" fill="none" stroke="#383635" stroke-width="0.3" d="M12.575,2.85
	c-3.434-0.733-6.866-0.733-10.3,0" style="stroke: rgb(0, 0, 0);"></path>
<path fill-rule="evenodd" clip-rule="evenodd" fill="none" stroke="#383635" stroke-width="0.3" d="M14.125,19.45
	c-4.166-1.167-8.616-1.167-13.35,0" style="stroke: rgb(0, 0, 0);"></path>
<path fill-rule="evenodd" clip-rule="evenodd" fill="none" stroke="#383635" stroke-width="0.3" d="M0.775,18.95
	c4.733-1.167,9.184-1.167,13.35,0" style="stroke: rgb(0, 0, 0);"></path>
<path fill-rule="evenodd" clip-rule="evenodd" fill="none" stroke="#383635" stroke-width="0.3" d="M12.575,5.05
	c-3.366-0.801-6.8-0.801-10.3,0" style="stroke: rgb(0, 0, 0);"></path>
<polyline fill-rule="evenodd" clip-rule="evenodd" fill="none" stroke="#383635" stroke-width="0.3" stroke-linecap="round" stroke-linejoin="round" stroke-miterlimit="3" points="
	14.125,3.65 14.775,3.65 14.775,5.7 14.125,5.7 " style="stroke: rgb(0, 0, 0);"></polyline>
<polyline fill-rule="evenodd" clip-rule="evenodd" fill="none" stroke="#383635" stroke-width="0.3" stroke-linecap="round" stroke-linejoin="round" stroke-miterlimit="3" points="
	14.125,18 14.775,18 14.775,20.05 14.125,20.05 " style="stroke: rgb(0, 0, 0);"></polyline>
<polyline fill-rule="evenodd" clip-rule="evenodd" fill="none" stroke="#383635" stroke-width="0.3" stroke-linecap="round" stroke-linejoin="round" stroke-miterlimit="3" points="
	14.125,29.75 14.775,29.75 14.775,31.8 14.125,31.8 " style="stroke: rgb(0, 0, 0);"></polyline>
<polyline fill-rule="evenodd" clip-rule="evenodd" fill="none" stroke="#383635" stroke-width="0.3" stroke-linecap="round" stroke-linejoin="round" stroke-miterlimit="3" points="
	0.775,31.8 0.125,31.8 0.125,29.75 0.775,29.75 " style="stroke: rgb(0, 0, 0);"></polyline>
<polyline fill-rule="evenodd" clip-rule="evenodd" fill="none" stroke="#383635" stroke-width="0.3" stroke-linecap="round" stroke-linejoin="round" stroke-miterlimit="3" points="
	0.775,20.05 0.125,20.05 0.125,18 0.775,18 " style="stroke: rgb(0, 0, 0);"></polyline>
<polyline fill-rule="evenodd" clip-rule="evenodd" fill="none" stroke="#383635" stroke-width="0.3" stroke-linecap="round" stroke-linejoin="round" stroke-miterlimit="3" points="
	0.775,5.7 0.125,5.7 0.125,3.65 0.775,3.65 " style="stroke: rgb(0, 0, 0);"></polyline>
<line fill-rule="evenodd" clip-rule="evenodd" fill="none" stroke="#383635" stroke-width="0.3" stroke-linecap="round" stroke-linejoin="round" stroke-miterlimit="3" x1="14.125" y1="18.4" x2="14.125" y2="18.95" style="stroke: rgb(0, 0, 0);"></line>
</svg>