<svg version="1.1" id="Layer_1" xmlns="http://www.w3.org/2000/svg" xmlns:xlink="http://www.w3.org/1999/xlink" x="0px" y="0px" width="26.5px" height="16.649px" viewBox="0 0 26.5 16.649" enable-background="new 0 0 26.5 16.649" xml:space="preserve" class="ng-scope">
<path fill-rule="evenodd" clip-rule="evenodd" fill="#FFFFFF" d="M19.725,0.524v13.051v1.8c-1.666,0.233-3.333,0.383-5,0.45
	c-1,0-2,0-3,0c1,0,2,0,3,0v0.699c-1,0-2,0-3,0v-0.699c-1.732-0.067-3.467-0.233-5.199-0.5v-1.7c4.267,0.733,8.666,0.717,13.199-0.05
	c-4.533,0.767-8.933,0.783-13.199,0.05V0.524v13.101v1.7v0.399c-0.834-0.133-1.667-0.267-2.5-0.399v-0.4v-1.8v1.8
	c-1.301-0.3-2.601-0.634-3.9-1v-13.4h1.5v11.9c0.8,0.267,1.6,0.5,2.4,0.7c-0.801-0.2-1.601-0.434-2.4-0.7v-11.9h2.4v12.601V0.524
	V0.125h2.5v0.399H19.725z"></path>
<path fill-rule="evenodd" clip-rule="evenodd" fill="#FFFFFF" d="M22.225,0.524h2.65h1.5v13.4c-1.4,0.4-2.783,0.733-4.15,1v0.4
	c-0.833,0.166-1.666,0.316-2.5,0.449v-0.399v-1.8V0.524V0.125h2.5V0.524v12.601v1.8v-1.8V0.524z"></path>
<path fill-rule="evenodd" clip-rule="evenodd" fill="#FFFFFF" d="M4.875,2.274c0.1-0.1,0.233-0.149,0.4-0.149
	c0.166,0,0.3,0.05,0.399,0.149c0.101,0.101,0.15,0.233,0.15,0.4s-0.05,0.3-0.15,0.4c-0.1,0.1-0.233,0.149-0.399,0.149
	c-0.167,0-0.301-0.05-0.4-0.149c-0.1-0.101-0.15-0.233-0.15-0.4S4.775,2.375,4.875,2.274c-0.1,0.101-0.15,0.233-0.15,0.4
	s0.051,0.3,0.15,0.4c0.1,0.1,0.233,0.149,0.4,0.149c0.166,0,0.3-0.05,0.399-0.149c0.101-0.101,0.15-0.233,0.15-0.4
	s-0.05-0.3-0.15-0.4c-0.1-0.1-0.233-0.149-0.399-0.149C5.108,2.125,4.975,2.175,4.875,2.274z"></path>
<path fill-rule="evenodd" clip-rule="evenodd" fill="#FFFFFF" d="M20.975,2.125c0.167,0,0.301,0.05,0.4,0.149
	c0.1,0.101,0.15,0.233,0.15,0.4s-0.051,0.3-0.15,0.4c-0.1,0.1-0.233,0.149-0.4,0.149c-0.166,0-0.3-0.05-0.399-0.149
	c-0.101-0.101-0.15-0.233-0.15-0.4s0.05-0.3,0.15-0.4C20.675,2.175,20.809,2.125,20.975,2.125c-0.166,0-0.3,0.05-0.399,0.149
	c-0.101,0.101-0.15,0.233-0.15,0.4s0.05,0.3,0.15,0.4c0.1,0.1,0.233,0.149,0.399,0.149c0.167,0,0.301-0.05,0.4-0.149
	c0.1-0.101,0.15-0.233,0.15-0.4s-0.051-0.3-0.15-0.4C21.275,2.175,21.142,2.125,20.975,2.125z"></path>
<path fill-rule="evenodd" clip-rule="evenodd" fill="#FFFFFF" d="M24.875,0.524v11.9c-0.9,0.267-1.783,0.5-2.65,0.7
	c0.867-0.2,1.75-0.434,2.65-0.7V0.524z"></path>
<path fill-rule="evenodd" clip-rule="evenodd" fill="#FFFFFF" d="M20.975,6.875c-0.166,0-0.3-0.05-0.399-0.15
	c-0.101-0.1-0.15-0.233-0.15-0.399c0-0.167,0.05-0.301,0.15-0.4c0.1-0.1,0.233-0.15,0.399-0.15c0.167,0,0.301,0.051,0.4,0.15
	s0.15,0.233,0.15,0.4c0,0.166-0.051,0.3-0.15,0.399C21.275,6.825,21.142,6.875,20.975,6.875c0.167,0,0.301-0.05,0.4-0.15
	c0.1-0.1,0.15-0.233,0.15-0.399c0-0.167-0.051-0.301-0.15-0.4s-0.233-0.15-0.4-0.15c-0.166,0-0.3,0.051-0.399,0.15
	c-0.101,0.1-0.15,0.233-0.15,0.4c0,0.166,0.05,0.3,0.15,0.399C20.675,6.825,20.809,6.875,20.975,6.875z"></path>
<path fill-rule="evenodd" clip-rule="evenodd" fill="#FFFFFF" d="M20.975,9.425c0.167,0,0.301,0.05,0.4,0.15
	c0.1,0.1,0.15,0.233,0.15,0.399c0,0.167-0.051,0.3-0.15,0.4c-0.1,0.1-0.233,0.149-0.4,0.149c-0.166,0-0.3-0.05-0.399-0.149
	c-0.101-0.101-0.15-0.233-0.15-0.4c0-0.166,0.05-0.3,0.15-0.399C20.675,9.475,20.809,9.425,20.975,9.425
	c-0.166,0-0.3,0.05-0.399,0.15c-0.101,0.1-0.15,0.233-0.15,0.399c0,0.167,0.05,0.3,0.15,0.4c0.1,0.1,0.233,0.149,0.399,0.149
	c0.167,0,0.301-0.05,0.4-0.149c0.1-0.101,0.15-0.233,0.15-0.4c0-0.166-0.051-0.3-0.15-0.399C21.275,9.475,21.142,9.425,20.975,9.425
	z"></path>
<path fill-rule="evenodd" clip-rule="evenodd" fill="#FFFFFF" d="M21.525,13.625c0,0.166-0.051,0.3-0.15,0.399
	c-0.1,0.101-0.233,0.15-0.4,0.15c-0.166,0-0.3-0.05-0.399-0.15c-0.101-0.1-0.15-0.233-0.15-0.399c0-0.066,0.017-0.117,0.05-0.15
	c0-0.1,0.033-0.184,0.101-0.25c0.1-0.1,0.233-0.149,0.399-0.149c0.167,0,0.301,0.05,0.4,0.149l0.05,0.05
	C21.492,13.375,21.525,13.491,21.525,13.625c0-0.134-0.033-0.25-0.101-0.351l-0.05-0.05c-0.1-0.1-0.233-0.149-0.4-0.149
	c-0.166,0-0.3,0.05-0.399,0.149c-0.067,0.066-0.101,0.15-0.101,0.25c-0.033,0.033-0.05,0.084-0.05,0.15c0,0.166,0.05,0.3,0.15,0.399
	c0.1,0.101,0.233,0.15,0.399,0.15c0.167,0,0.301-0.05,0.4-0.15C21.475,13.925,21.525,13.791,21.525,13.625z"></path>
<path fill-rule="evenodd" clip-rule="evenodd" fill="#FFFFFF" d="M5.675,6.725c-0.1,0.101-0.233,0.15-0.399,0.15
	c-0.167,0-0.301-0.05-0.4-0.15c-0.1-0.1-0.15-0.233-0.15-0.399c0-0.167,0.051-0.301,0.15-0.4s0.233-0.15,0.4-0.15
	c0.166,0,0.3,0.051,0.399,0.15c0.101,0.1,0.15,0.233,0.15,0.4C5.825,6.491,5.775,6.625,5.675,6.725c0.101-0.1,0.15-0.233,0.15-0.399
	c0-0.167-0.05-0.301-0.15-0.4c-0.1-0.1-0.233-0.15-0.399-0.15c-0.167,0-0.301,0.051-0.4,0.15s-0.15,0.233-0.15,0.4
	c0,0.166,0.051,0.3,0.15,0.399c0.1,0.101,0.233,0.15,0.4,0.15C5.441,6.875,5.575,6.825,5.675,6.725z"></path>
<path fill-rule="evenodd" clip-rule="evenodd" fill="#FFFFFF" d="M5.825,9.975c0,0.167-0.05,0.3-0.15,0.4
	c-0.1,0.1-0.233,0.149-0.399,0.149c-0.167,0-0.301-0.05-0.4-0.149c-0.1-0.101-0.15-0.233-0.15-0.4c0-0.166,0.051-0.3,0.15-0.399
	c0.1-0.101,0.233-0.15,0.4-0.15c0.166,0,0.3,0.05,0.399,0.15C5.775,9.675,5.825,9.809,5.825,9.975c0-0.166-0.05-0.3-0.15-0.399
	c-0.1-0.101-0.233-0.15-0.399-0.15c-0.167,0-0.301,0.05-0.4,0.15c-0.1,0.1-0.15,0.233-0.15,0.399c0,0.167,0.051,0.3,0.15,0.4
	c0.1,0.1,0.233,0.149,0.4,0.149c0.166,0,0.3-0.05,0.399-0.149C5.775,10.274,5.825,10.142,5.825,9.975z"></path>
<path fill-rule="evenodd" clip-rule="evenodd" fill="#FFFFFF" d="M4.825,13.274l0.05-0.05c0.1-0.1,0.233-0.149,0.4-0.149
	c0.166,0,0.3,0.05,0.399,0.149c0.067,0.066,0.117,0.15,0.15,0.25c0,0.033,0,0.084,0,0.15c0,0.166-0.05,0.3-0.15,0.399
	c-0.1,0.101-0.233,0.15-0.399,0.15c-0.167,0-0.301-0.05-0.4-0.15c-0.1-0.1-0.15-0.233-0.15-0.399
	C4.725,13.491,4.758,13.375,4.825,13.274c-0.067,0.101-0.101,0.217-0.101,0.351c0,0.166,0.051,0.3,0.15,0.399
	c0.1,0.101,0.233,0.15,0.4,0.15c0.166,0,0.3-0.05,0.399-0.15c0.101-0.1,0.15-0.233,0.15-0.399c0-0.066,0-0.117,0-0.15
	c-0.033-0.1-0.083-0.184-0.15-0.25c-0.1-0.1-0.233-0.149-0.399-0.149c-0.167,0-0.301,0.05-0.4,0.149L4.825,13.274z"></path>
<line fill-rule="evenodd" clip-rule="evenodd" fill="none" stroke="#383635" stroke-width="0.3" stroke-linecap="round" stroke-linejoin="round" stroke-miterlimit="3" x1="4.025" y1="14.925" x2="4.025" y2="13.125" style="stroke: rgb(0, 0, 0);"></line>
<path fill-rule="evenodd" clip-rule="evenodd" fill="none" stroke="#383635" stroke-width="0.3" stroke-linecap="round" stroke-linejoin="round" stroke-miterlimit="3" d="
	M4.875,2.274c0.1-0.1,0.233-0.149,0.4-0.149c0.166,0,0.3,0.05,0.399,0.149c0.101,0.101,0.15,0.233,0.15,0.4s-0.05,0.3-0.15,0.4
	c-0.1,0.1-0.233,0.149-0.399,0.149c-0.167,0-0.301-0.05-0.4-0.149c-0.1-0.101-0.15-0.233-0.15-0.4S4.775,2.375,4.875,2.274z" style="stroke: rgb(0, 0, 0);"></path>
<polyline fill-rule="evenodd" clip-rule="evenodd" fill="none" stroke="#383635" stroke-width="0.3" stroke-linecap="round" stroke-linejoin="round" stroke-miterlimit="3" points="
	4.025,0.125 4.025,0.524 4.025,13.125 " style="stroke: rgb(0, 0, 0);"></polyline>
<line fill-rule="evenodd" clip-rule="evenodd" fill="none" stroke="#383635" stroke-width="0.3" stroke-linecap="round" stroke-linejoin="round" stroke-miterlimit="3" x1="6.525" y1="0.524" x2="6.525" y2="0.125" style="stroke: rgb(0, 0, 0);"></line>
<polyline fill-rule="evenodd" clip-rule="evenodd" fill="none" stroke="#383635" stroke-width="0.3" stroke-linecap="round" stroke-linejoin="round" stroke-miterlimit="3" points="
	19.725,0.125 19.725,0.524 19.725,13.575 19.725,15.375 19.725,15.774 " style="stroke: rgb(0, 0, 0);"></polyline>
<polyline fill-rule="evenodd" clip-rule="evenodd" fill="none" stroke="#383635" stroke-width="0.3" stroke-linecap="round" stroke-linejoin="round" stroke-miterlimit="3" points="
	22.225,15.325 22.225,14.925 22.225,13.125 22.225,0.524 22.225,0.125 " style="stroke: rgb(0, 0, 0);"></polyline>
<path fill-rule="evenodd" clip-rule="evenodd" fill="none" stroke="#383635" stroke-width="0.3" stroke-linecap="round" stroke-linejoin="round" stroke-miterlimit="3" d="
	M20.975,2.125c0.167,0,0.301,0.05,0.4,0.149c0.1,0.101,0.15,0.233,0.15,0.4s-0.051,0.3-0.15,0.4c-0.1,0.1-0.233,0.149-0.4,0.149
	c-0.166,0-0.3-0.05-0.399-0.149c-0.101-0.101-0.15-0.233-0.15-0.4s0.05-0.3,0.15-0.4C20.675,2.175,20.809,2.125,20.975,2.125z" style="stroke: rgb(0, 0, 0);"></path>
<line fill-rule="evenodd" clip-rule="evenodd" fill="none" stroke="#383635" stroke-width="0.3" stroke-linecap="round" stroke-linejoin="round" stroke-miterlimit="3" x1="6.525" y1="0.524" x2="6.525" y2="13.625" style="stroke: rgb(0, 0, 0);"></line>
<path fill-rule="evenodd" clip-rule="evenodd" fill="none" stroke="#383635" stroke-width="0.3" stroke-linecap="round" stroke-linejoin="round" stroke-miterlimit="3" d="
	M20.975,6.875c-0.166,0-0.3-0.05-0.399-0.15c-0.101-0.1-0.15-0.233-0.15-0.399c0-0.167,0.05-0.301,0.15-0.4
	c0.1-0.1,0.233-0.15,0.399-0.15c0.167,0,0.301,0.051,0.4,0.15s0.15,0.233,0.15,0.4c0,0.166-0.051,0.3-0.15,0.399
	C21.275,6.825,21.142,6.875,20.975,6.875z" style="stroke: rgb(0, 0, 0);"></path>
<path fill-rule="evenodd" clip-rule="evenodd" fill="none" stroke="#383635" stroke-width="0.3" stroke-linecap="round" stroke-linejoin="round" stroke-miterlimit="3" d="
	M20.975,9.425c0.167,0,0.301,0.05,0.4,0.15c0.1,0.1,0.15,0.233,0.15,0.399c0,0.167-0.051,0.3-0.15,0.4
	c-0.1,0.1-0.233,0.149-0.4,0.149c-0.166,0-0.3-0.05-0.399-0.149c-0.101-0.101-0.15-0.233-0.15-0.4c0-0.166,0.05-0.3,0.15-0.399
	C20.675,9.475,20.809,9.425,20.975,9.425z" style="stroke: rgb(0, 0, 0);"></path>
<path fill-rule="evenodd" clip-rule="evenodd" fill="none" stroke="#383635" stroke-width="0.3" stroke-linecap="round" stroke-linejoin="round" stroke-miterlimit="3" d="
	M21.525,13.625c0,0.166-0.051,0.3-0.15,0.399c-0.1,0.101-0.233,0.15-0.4,0.15c-0.166,0-0.3-0.05-0.399-0.15
	c-0.101-0.1-0.15-0.233-0.15-0.399c0-0.066,0.017-0.117,0.05-0.15c0-0.1,0.033-0.184,0.101-0.25c0.1-0.1,0.233-0.149,0.399-0.149
	c0.167,0,0.301,0.05,0.4,0.149l0.05,0.05C21.492,13.375,21.525,13.491,21.525,13.625z" style="stroke: rgb(0, 0, 0);"></path>
<line fill-rule="evenodd" clip-rule="evenodd" fill="none" stroke="#383635" stroke-width="0.3" stroke-linecap="round" stroke-linejoin="round" stroke-miterlimit="3" x1="11.725" y1="15.825" x2="11.725" y2="16.524" style="stroke: rgb(0, 0, 0);"></line>
<line fill-rule="evenodd" clip-rule="evenodd" fill="none" stroke="#383635" stroke-width="0.3" stroke-linecap="round" stroke-linejoin="round" stroke-miterlimit="3" x1="14.725" y1="16.524" x2="14.725" y2="15.825" style="stroke: rgb(0, 0, 0);"></line>
<path fill-rule="evenodd" clip-rule="evenodd" fill="none" stroke="#383635" stroke-width="0.3" stroke-linecap="round" stroke-linejoin="round" stroke-miterlimit="3" d="
	M5.675,6.725c-0.1,0.101-0.233,0.15-0.399,0.15c-0.167,0-0.301-0.05-0.4-0.15c-0.1-0.1-0.15-0.233-0.15-0.399
	c0-0.167,0.051-0.301,0.15-0.4s0.233-0.15,0.4-0.15c0.166,0,0.3,0.051,0.399,0.15c0.101,0.1,0.15,0.233,0.15,0.4
	C5.825,6.491,5.775,6.625,5.675,6.725z" style="stroke: rgb(0, 0, 0);"></path>
<path fill-rule="evenodd" clip-rule="evenodd" fill="none" stroke="#383635" stroke-width="0.3" stroke-linecap="round" stroke-linejoin="round" stroke-miterlimit="3" d="
	M5.825,9.975c0,0.167-0.05,0.3-0.15,0.4c-0.1,0.1-0.233,0.149-0.399,0.149c-0.167,0-0.301-0.05-0.4-0.149
	c-0.1-0.101-0.15-0.233-0.15-0.4c0-0.166,0.051-0.3,0.15-0.399c0.1-0.101,0.233-0.15,0.4-0.15c0.166,0,0.3,0.05,0.399,0.15
	C5.775,9.675,5.825,9.809,5.825,9.975z" style="stroke: rgb(0, 0, 0);"></path>
<path fill-rule="evenodd" clip-rule="evenodd" fill="none" stroke="#383635" stroke-width="0.3" stroke-linecap="round" stroke-linejoin="round" stroke-miterlimit="3" d="
	M4.825,13.274l0.05-0.05c0.1-0.1,0.233-0.149,0.4-0.149c0.166,0,0.3,0.05,0.399,0.149c0.067,0.066,0.117,0.15,0.15,0.25
	c0,0.033,0,0.084,0,0.15c0,0.166-0.05,0.3-0.15,0.399c-0.1,0.101-0.233,0.15-0.399,0.15c-0.167,0-0.301-0.05-0.4-0.15
	c-0.1-0.1-0.15-0.233-0.15-0.399C4.725,13.491,4.758,13.375,4.825,13.274z" style="stroke: rgb(0, 0, 0);"></path>
<line fill-rule="evenodd" clip-rule="evenodd" fill="none" stroke="#383635" stroke-width="0.3" stroke-linecap="round" stroke-linejoin="round" stroke-miterlimit="3" x1="4.025" y1="14.925" x2="4.025" y2="15.325" style="stroke: rgb(0, 0, 0);"></line>
<polyline fill-rule="evenodd" clip-rule="evenodd" fill="none" stroke="#383635" stroke-width="0.3" stroke-linecap="round" stroke-linejoin="round" stroke-miterlimit="3" points="
	6.525,15.725 6.525,15.325 6.525,13.625 " style="stroke: rgb(0, 0, 0);"></polyline>
<path fill-rule="evenodd" clip-rule="evenodd" fill="none" stroke="#383635" stroke-width="0.3" d="M1.625,0.524h-1.5v13.4
	c1.3,0.366,2.6,0.7,3.9,1" style="stroke: rgb(0, 0, 0);"></path>
<path fill-rule="evenodd" clip-rule="evenodd" fill="none" stroke="#383635" stroke-width="0.3" d="M4.025,13.125
	c-0.801-0.2-1.601-0.434-2.4-0.7v-11.9" style="stroke: rgb(0, 0, 0);"></path>
<line fill-rule="evenodd" clip-rule="evenodd" fill="none" stroke="#383635" stroke-width="0.3" x1="6.525" y1="0.125" x2="4.025" y2="0.125" style="stroke: rgb(0, 0, 0);"></line>
<line fill-rule="evenodd" clip-rule="evenodd" fill="none" stroke="#383635" stroke-width="0.3" x1="4.025" y1="0.524" x2="1.625" y2="0.524" style="stroke: rgb(0, 0, 0);"></line>
<path fill-rule="evenodd" clip-rule="evenodd" fill="none" stroke="#383635" stroke-width="0.3" d="M19.725,15.774
	c0.834-0.133,1.667-0.283,2.5-0.449" style="stroke: rgb(0, 0, 0);"></path>
<line fill-rule="evenodd" clip-rule="evenodd" fill="none" stroke="#383635" stroke-width="0.3" x1="22.225" y1="0.125" x2="19.725" y2="0.125" style="stroke: rgb(0, 0, 0);"></line>
<path fill-rule="evenodd" clip-rule="evenodd" fill="none" stroke="#383635" stroke-width="0.3" d="M22.225,14.925
	c1.367-0.267,2.75-0.6,4.15-1v-13.4h-1.5v11.9c-0.9,0.267-1.783,0.5-2.65,0.7" style="stroke: rgb(0, 0, 0);"></path>
<line fill-rule="evenodd" clip-rule="evenodd" fill="none" stroke="#383635" stroke-width="0.3" x1="24.875" y1="0.524" x2="22.225" y2="0.524" style="stroke: rgb(0, 0, 0);"></line>
<line fill-rule="evenodd" clip-rule="evenodd" fill="none" stroke="#383635" stroke-width="0.3" x1="19.725" y1="0.524" x2="6.525" y2="0.524" style="stroke: rgb(0, 0, 0);"></line>
<path fill-rule="evenodd" clip-rule="evenodd" fill="none" stroke="#383635" stroke-width="0.3" d="M6.525,13.625
	c4.267,0.733,8.666,0.717,13.199-0.05" style="stroke: rgb(0, 0, 0);"></path>
<path fill-rule="evenodd" clip-rule="evenodd" fill="none" stroke="#383635" stroke-width="0.3" d="M11.725,16.524c1,0,2,0,3,0" style="stroke: rgb(0, 0, 0);"></path>
<path fill-rule="evenodd" clip-rule="evenodd" fill="none" stroke="#383635" stroke-width="0.3" d="M14.725,15.825c-1,0-2,0-3,0" style="stroke: rgb(0, 0, 0);"></path>
<path fill-rule="evenodd" clip-rule="evenodd" fill="none" stroke="#383635" stroke-width="0.3" d="M14.725,15.825
	c1.667-0.067,3.334-0.217,5-0.45" style="stroke: rgb(0, 0, 0);"></path>
<path fill-rule="evenodd" clip-rule="evenodd" fill="none" stroke="#383635" stroke-width="0.3" d="M4.025,15.325
	c0.833,0.133,1.666,0.267,2.5,0.399" style="stroke: rgb(0, 0, 0);"></path>
<path fill-rule="evenodd" clip-rule="evenodd" fill="none" stroke="#383635" stroke-width="0.3" d="M6.525,15.325
	c1.732,0.267,3.467,0.433,5.199,0.5" style="stroke: rgb(0, 0, 0);"></path>
</svg>