<svg version="1.1" id="Layer_1" xmlns="http://www.w3.org/2000/svg" xmlns:xlink="http://www.w3.org/1999/xlink" x="0px" y="0px" width="39.9px" height="11.75px" viewBox="0 0 39.9 11.75" enable-background="new 0 0 39.9 11.75" xml:space="preserve" class="ng-scope">
<path fill-rule="evenodd" clip-rule="evenodd" fill="#FFFFFF" d="M39.47,7.82v1.65c0,0.87-0.72,1.3-2.15,1.3h-8.95v0.25
	c0,0.4-0.32,0.6-0.95,0.6H12.67c-0.67,0-1-0.2-1-0.6v-0.25H2.63c-1.43,0-2.15-0.43-2.15-1.3V7.82c0.17,0.07,0.38,0.1,0.65,0.1h9.55
	c0.6,0,0.93-0.18,1-0.55V7.32c0-0.4,0.33-0.6,1-0.6h14.75c0.63,0,0.95,0.2,0.95,0.6v0.05c0.07,0.37,0.4,0.55,1,0.55h9.45
	C39.09,7.93,39.31,7.89,39.47,7.82c-0.17,0.07-0.38,0.1-0.65,0.1h-9.45c-0.6,0-0.93-0.18-1-0.55V7.32c0-0.4-0.32-0.6-0.95-0.6H12.67
	c-0.67,0-1,0.2-1,0.6v0.05c-0.07,0.37-0.4,0.55-1,0.55H1.13c-0.27,0-0.48-0.03-0.65-0.1c-0.23-0.1-0.35-0.27-0.35-0.5v-7.2h39.65
	v7.35C39.74,7.61,39.64,7.73,39.47,7.82z"></path>
<path fill-rule="evenodd" clip-rule="evenodd" fill="none" stroke="#373535" stroke-width="0.3" stroke-linecap="round" stroke-linejoin="round" stroke-miterlimit="3" d="
	M39.47,7.82c0.17-0.1,0.27-0.22,0.3-0.35V0.13H0.13v7.2c0,0.23,0.12,0.4,0.35,0.5c0.17,0.07,0.38,0.1,0.65,0.1h9.55
	c0.6,0,0.93-0.18,1-0.55V7.32c0-0.4,0.33-0.6,1-0.6h14.75c0.63,0,0.95,0.2,0.95,0.6v0.05c0.07,0.37,0.4,0.55,1,0.55h9.45
	C39.09,7.93,39.31,7.89,39.47,7.82v1.65c0,0.87-0.72,1.3-2.15,1.3h-8.95v0.25c0,0.4-0.32,0.6-0.95,0.6H12.67c-0.67,0-1-0.2-1-0.6
	v-0.25H2.63c-1.43,0-2.15-0.43-2.15-1.3V7.82" style="stroke: rgb(0, 0, 0);"></path>
</svg>