<svg version="1.1" id="Layer_1" xmlns="http://www.w3.org/2000/svg" xmlns:xlink="http://www.w3.org/1999/xlink" x="0px" y="0px" width="26.25px" height="26.3px" viewBox="0 0 26.25 26.3" enable-background="new 0 0 26.25 26.3" xml:space="preserve" class="ng-scope">
<path fill-rule="evenodd" clip-rule="evenodd" fill="#FFFFFF" d="M22.375,3.976c0.967,0.966,1.733,2.017,2.301,3.149
	c0.767,1.467,1.25,3.117,1.449,4.95c0,0.366,0,0.7,0,1c0,3.667-1.25,6.75-3.75,9.25c-2.533,2.566-5.6,3.85-9.199,3.85
	c-3.601,0-6.684-1.283-9.25-3.85c-2.534-2.5-3.801-5.583-3.801-9.25c0-3.533,1.267-6.566,3.801-9.1
	c2.466-2.467,5.416-3.75,8.85-3.851h0.7C16.909,0.226,19.875,1.509,22.375,3.976z"></path>
<path fill-rule="evenodd" clip-rule="evenodd" fill="none" stroke="#383635" stroke-width="0.3" d="M22.375,3.976
	c-2.5-2.467-5.466-3.75-8.899-3.851h-0.7c-3.434,0.101-6.384,1.384-8.85,3.851c-2.534,2.533-3.801,5.566-3.801,9.1
	c0,3.667,1.267,6.75,3.801,9.25c2.566,2.566,5.649,3.85,9.25,3.85c3.6,0,6.666-1.283,9.199-3.85c2.5-2.5,3.75-5.583,3.75-9.25
	c0-0.3,0-0.634,0-1c-0.199-1.833-0.683-3.483-1.449-4.95C24.108,5.992,23.342,4.941,22.375,3.976z" style="stroke: rgb(0, 0, 0);"></path>
</svg>