<svg version="1.1" id="Layer_1" xmlns="http://www.w3.org/2000/svg" xmlns:xlink="http://www.w3.org/1999/xlink" x="0px" y="0px" width="34.75px" height="24.95px" viewBox="0 0 34.75 24.95" enable-background="new 0 0 34.75 24.95" xml:space="preserve" class="ng-scope">
<path fill-rule="evenodd" clip-rule="evenodd" fill="#FFFFFF" d="M0.125,12.775v-0.65c0.134-3.267,1.834-6.066,5.101-8.399
	c1.3-0.9,2.666-1.617,4.1-2.15c2-0.767,4.217-1.25,6.65-1.45c0.434,0,0.883,0,1.35,0c4.8,0,8.851,1.2,12.15,3.601
	c3.434,2.399,5.149,5.3,5.149,8.699c0,3.4-1.716,6.317-5.149,8.75c-3.3,2.434-7.351,3.65-12.15,3.65c-4.733,0-8.767-1.217-12.1-3.65
	C1.959,18.875,0.259,16.075,0.125,12.775z"></path>
<path fill-rule="evenodd" clip-rule="evenodd" fill="none" stroke="#383635" stroke-width="0.3" d="M0.125,12.775
	c0.134,3.3,1.834,6.1,5.101,8.399c3.333,2.434,7.366,3.65,12.1,3.65c4.8,0,8.851-1.217,12.15-3.65
	c3.434-2.433,5.149-5.35,5.149-8.75c0-3.399-1.716-6.3-5.149-8.699c-3.3-2.4-7.351-3.601-12.15-3.601c-0.467,0-0.916,0-1.35,0
	c-2.434,0.2-4.65,0.684-6.65,1.45c-1.434,0.533-2.8,1.25-4.1,2.15c-3.267,2.333-4.967,5.133-5.101,8.399V12.775z" style="stroke: rgb(0, 0, 0);"></path>
</svg>