<svg version="1.1" id="Layer_1" xmlns="http://www.w3.org/2000/svg" xmlns:xlink="http://www.w3.org/1999/xlink" x="0px" y="0px" width="28.83px" height="28.83px" viewBox="0 2.15 28.83 28.83" enable-background="new 0 2.15 28.83 28.83" xml:space="preserve">
	<rect x="7.31" y="13.01" width="14.09" height="12.28" fill="#FFFFFF"></rect>
	<path fill="#FFFFFF" d="M12.9,24.1v-1.54H8.03v-8.44h12.75v8.44h-4.61v1.54L12.9,24.1 M21.9,9.81
		c0-0.45-0.26-0.67-0.75-0.67H7.62c-0.49,0-0.71,0.23-0.71,0.67V27.4c0,0.45,0.23,0.68,0.71,0.68h13.54c0.49,0,0.75-0.23,0.75-0.68
		V9.81H21.9z"></path>
	<path fill="#FFFFFF" stroke="#000000" stroke-miterlimit="10" d="M12.9,24.1v-1.54H8.03v-8.44h12.75v8.44h-4.61
		v1.54L12.9,24.1 M21.9,9.81c0-0.45-0.26-0.67-0.75-0.67H7.62c-0.49,0-0.71,0.23-0.71,0.67V27.4c0,0.45,0.23,0.68,0.71,0.68h13.54
		c0.49,0,0.75-0.23,0.75-0.68V9.81H21.9z" style="fill: rgb(0, 0, 0); stroke: rgb(0, 0, 0);"></path>
	<path fill="#FFFFFF" d="M12.9,24.1v-1.54H8.03v-8.44h12.75v8.44h-4.61v1.54L12.9,24.1 M21.9,9.81
		c0-0.45-0.26-0.67-0.75-0.67H7.62c-0.49,0-0.71,0.23-0.71,0.67V27.4c0,0.45,0.23,0.68,0.71,0.68h13.54c0.49,0,0.75-0.23,0.75-0.68
		V9.81H21.9z"></path>
</svg>