<svg version="1.1" id="Layer_1" xmlns="http://www.w3.org/2000/svg" xmlns:xlink="http://www.w3.org/1999/xlink" x="0px" y="0px" width="21.8px" height="10.5px" viewBox="0 0 21.8 10.5" enable-background="new 0 0 21.8 10.5" xml:space="preserve" class="ng-scope">
<path fill-rule="evenodd" clip-rule="evenodd" fill="#FFFFFF" d="M13.875,0.476c1.767,0.399,3.25,1.05,4.449,1.949h3.351v7.95H0.125
	v-7.95h3.75c2.233-1.533,4.583-2.3,7.05-2.3C11.892,0.125,12.875,0.242,13.875,0.476z"></path>
<path fill-rule="evenodd" clip-rule="evenodd" fill="#FFFFFF" d="M10.925,1.675c-1,0-1.851,0.351-2.55,1.051
	c-0.7,0.666-1.051,1.5-1.051,2.5h3.601V1.675v3.551H7.324c0-1,0.351-1.834,1.051-2.5C9.074,2.025,9.925,1.675,10.925,1.675z"></path>
<path fill-rule="evenodd" clip-rule="evenodd" fill="#FFFFFF" d="M10.925,5.226v3.5c0.967,0,1.783-0.334,2.45-1
	c0.699-0.733,1.05-1.567,1.05-2.5H10.925h3.5c0,0.933-0.351,1.767-1.05,2.5c-0.667,0.666-1.483,1-2.45,1V5.226z"></path>
<path fill-rule="evenodd" clip-rule="evenodd" fill="#FFFFFF" d="M10.925,0.125v1.55c0.967,0,1.783,0.351,2.45,1.051
	c0.699,0.666,1.05,1.5,1.05,2.5h1.05h-1.05c0-1-0.351-1.834-1.05-2.5c-0.667-0.7-1.483-1.051-2.45-1.051V0.125z"></path>
<path fill-rule="evenodd" clip-rule="evenodd" fill="#FFFFFF" d="M10.925,9.875V8.726c-1,0-1.851-0.334-2.55-1
	c-0.7-0.733-1.051-1.567-1.051-2.5h-1.05h1.05c0,0.933,0.351,1.767,1.051,2.5c0.699,0.666,1.55,1,2.55,1V9.875z"></path>
<path fill-rule="evenodd" clip-rule="evenodd" fill="none" stroke="#383635" stroke-width="0.3" d="M13.875,0.476
	c1.767,0.399,3.25,1.05,4.449,1.949h3.351v7.95H0.125v-7.95h3.75c2.233-1.533,4.583-2.3,7.05-2.3
	C11.892,0.125,12.875,0.242,13.875,0.476z" style="stroke: rgb(0, 0, 0);"></path>
<path fill-rule="evenodd" clip-rule="evenodd" fill="none" stroke="#383635" stroke-width="0.3" d="M10.925,1.675
	c-1,0-1.851,0.351-2.55,1.051c-0.7,0.666-1.051,1.5-1.051,2.5h3.601V1.675z" style="stroke: rgb(0, 0, 0);"></path>
<path fill-rule="evenodd" clip-rule="evenodd" fill="none" stroke="#383635" stroke-width="0.3" d="M10.925,5.226v3.5
	c0.967,0,1.783-0.334,2.45-1c0.699-0.733,1.05-1.567,1.05-2.5H10.925z" style="stroke: rgb(0, 0, 0);"></path>
<path fill-rule="evenodd" clip-rule="evenodd" fill="none" stroke="#383635" stroke-width="0.3" d="M10.925,0.125v1.55
	c0.967,0,1.783,0.351,2.45,1.051c0.699,0.666,1.05,1.5,1.05,2.5h1.05" style="stroke: rgb(0, 0, 0);"></path>
<path fill-rule="evenodd" clip-rule="evenodd" fill="none" stroke="#383635" stroke-width="0.3" d="M10.925,9.875V8.726
	c-1,0-1.851-0.334-2.55-1c-0.7-0.733-1.051-1.567-1.051-2.5h-1.05" style="stroke: rgb(0, 0, 0);"></path>
</svg>