<svg version="1.1" id="Layer_1" xmlns="http://www.w3.org/2000/svg" xmlns:xlink="http://www.w3.org/1999/xlink" x="0px" y="0px" width="14.65px" height="17.604px" viewBox="0 0 14.65 17.604" enable-background="new 0 0 14.65 17.604" xml:space="preserve" class="ng-scope">
<path fill-rule="evenodd" clip-rule="evenodd" fill="#FFFFFF" d="M14.525,14.827v0.9c-0.033,0.3-0.333,0.566-0.9,0.8
	c-2,0.667-4.067,0.983-6.2,0.95c-2.2-0.033-4.467-0.434-6.8-1.2c-0.3-0.133-0.467-0.366-0.5-0.7l0.05-0.75
	c0.367,0.434,0.783,0.517,1.25,0.25c0.1-0.066,0.184-0.149,0.25-0.25c0.2-3.233,0.184-6.466-0.05-9.699l-0.05-1.551
	c-0.133-0.733,0.05-1.149,0.55-1.25c1.8-0.533,3.566-0.8,5.3-0.8c1.8,0,3.567,0.283,5.3,0.851c-1.733-0.567-3.5-0.851-5.3-0.851
	c-1.733,0-3.5,0.267-5.3,0.8c-0.5,0.101-0.684,0.517-0.55,1.25l0.05,1.551c0.233,3.233,0.25,6.466,0.05,9.699
	c-0.066,0.101-0.15,0.184-0.25,0.25c-0.467,0.267-0.883,0.184-1.25-0.25l0.4-12.75c0.034-0.366,0.184-0.633,0.45-0.8
	c2.2-0.767,4.333-1.149,6.4-1.149c1.967-0.034,3.883,0.283,5.75,0.949c0.067,0,0.15,0.034,0.25,0.101c0.367,0.2,0.6,0.434,0.7,0.7
	L14.525,14.827c-0.3,0.301-0.6,0.434-0.9,0.4c-0.233-0.033-0.434-0.167-0.6-0.4c-0.4-3.033-0.45-6.267-0.15-9.699l0.4-1.45
	c0.067-0.733-0.1-1.167-0.5-1.3h-0.05v0.05l0.05-0.05c0.4,0.133,0.567,0.566,0.5,1.3l-0.4,1.45c-0.3,3.433-0.25,6.666,0.15,9.699
	c0.167,0.233,0.367,0.367,0.6,0.4C13.925,15.261,14.225,15.128,14.525,14.827z"></path>
<path fill-rule="evenodd" clip-rule="evenodd" fill="#FFFFFF" d="M12.725,2.428c-0.3,0.2-1.434,0.517-3.4,0.95
	c-0.6,0.133-1.233,0.183-1.9,0.149c-1.6-0.033-3.367-0.434-5.3-1.2c1.933,0.767,3.7,1.167,5.3,1.2c0.667,0.033,1.3-0.017,1.9-0.149
	C11.292,2.944,12.425,2.628,12.725,2.428z"></path>
<path fill-rule="evenodd" clip-rule="evenodd" fill="#FFFFFF" d="M1.625,5.128c1.933-0.834,3.867-1.233,5.8-1.2
	c1.833,0.033,3.65,0.434,5.45,1.2c-1.8-0.767-3.617-1.167-5.45-1.2C5.492,3.895,3.558,4.294,1.625,5.128z"></path>
<path fill-rule="evenodd" clip-rule="evenodd" fill="#FFFFFF" d="M13.625,15.228c-0.133,0.267-0.4,0.5-0.8,0.7
	c-1.733,0.767-3.533,1.116-5.4,1.05c-1.833-0.066-3.733-0.517-5.7-1.35c-0.167-0.101-0.267-0.284-0.3-0.551
	c0.033,0.267,0.133,0.45,0.3,0.551c1.966,0.833,3.867,1.283,5.7,1.35c1.867,0.066,3.667-0.283,5.4-1.05
	C13.225,15.728,13.492,15.494,13.625,15.228z"></path>
<polygon fill-rule="evenodd" clip-rule="evenodd" fill="#B59A87" points="12.775,2.378 12.725,2.428 12.725,2.378 " style="fill: rgb(0, 0, 0);"></polygon>
<path fill-rule="evenodd" clip-rule="evenodd" fill="none" stroke="#383635" stroke-width="0.3" stroke-linecap="round" stroke-linejoin="round" stroke-miterlimit="3" d="
	M14.525,14.827l-0.4-12.949c-0.1-0.267-0.333-0.5-0.7-0.7c-0.1-0.066-0.183-0.101-0.25-0.101c-1.867-0.666-3.783-0.983-5.75-0.949
	c-2.066,0-4.2,0.383-6.4,1.149c-0.267,0.167-0.417,0.434-0.45,0.8l-0.4,12.75c0.367,0.434,0.783,0.517,1.25,0.25
	c0.1-0.066,0.184-0.149,0.25-0.25c0.2-3.233,0.184-6.466-0.05-9.699l-0.05-1.551c-0.133-0.733,0.05-1.149,0.55-1.25
	c1.8-0.533,3.566-0.8,5.3-0.8c1.8,0,3.567,0.283,5.3,0.851h0.05c0.4,0.133,0.567,0.566,0.5,1.3l-0.4,1.45
	c-0.3,3.433-0.25,6.666,0.15,9.699c0.167,0.233,0.367,0.367,0.6,0.4C13.925,15.261,14.225,15.128,14.525,14.827z" style="stroke: rgb(0, 0, 0);"></path>
<line fill-rule="evenodd" clip-rule="evenodd" fill="none" stroke="#383635" stroke-width="0.3" stroke-linecap="round" stroke-linejoin="round" stroke-miterlimit="3" x1="12.725" y1="2.428" x2="12.725" y2="2.378" style="stroke: rgb(0, 0, 0);"></line>
<path fill-rule="evenodd" clip-rule="evenodd" fill="none" stroke="#383635" stroke-width="0.3" stroke-linecap="round" stroke-linejoin="round" stroke-miterlimit="3" d="
	M12.725,2.428c-0.3,0.2-1.434,0.517-3.4,0.95c-0.6,0.133-1.233,0.183-1.9,0.149c-1.6-0.033-3.367-0.434-5.3-1.2" style="stroke: rgb(0, 0, 0);"></path>
<path fill-rule="evenodd" clip-rule="evenodd" fill="none" stroke="#383635" stroke-width="0.3" stroke-linecap="round" stroke-linejoin="round" stroke-miterlimit="3" d="
	M1.625,5.128c1.933-0.834,3.867-1.233,5.8-1.2c1.833,0.033,3.65,0.434,5.45,1.2" style="stroke: rgb(0, 0, 0);"></path>
<path fill-rule="evenodd" clip-rule="evenodd" fill="none" stroke="#383635" stroke-width="0.3" stroke-linecap="round" stroke-linejoin="round" stroke-miterlimit="3" d="
	M0.175,14.827l-0.05,0.75c0.033,0.334,0.2,0.567,0.5,0.7c2.333,0.767,4.6,1.167,6.8,1.2c2.133,0.033,4.2-0.283,6.2-0.95
	c0.566-0.233,0.867-0.5,0.9-0.8v-0.9" style="stroke: rgb(0, 0, 0);"></path>
<path fill-rule="evenodd" clip-rule="evenodd" fill="none" stroke="#383635" stroke-width="0.3" stroke-linecap="round" stroke-linejoin="round" stroke-miterlimit="3" d="
	M13.625,15.228c-0.133,0.267-0.4,0.5-0.8,0.7c-1.733,0.767-3.533,1.116-5.4,1.05c-1.833-0.066-3.733-0.517-5.7-1.35
	c-0.167-0.101-0.267-0.284-0.3-0.551" style="stroke: rgb(0, 0, 0);"></path>
</svg>