<svg version="1.1" id="Layer_1" xmlns="http://www.w3.org/2000/svg" xmlns:xlink="http://www.w3.org/1999/xlink" x="0px" y="0px" width="19px" height="33.5px" viewBox="0 0 19 33.5" enable-background="new 0 0 19 33.5" xml:space="preserve" class="ng-scope">
<path fill-rule="evenodd" clip-rule="evenodd" fill="#FFFFFF" d="M14.274,7.175h4.601v19.05h-4.601
	c-0.033,3.101-0.833,5.217-2.399,6.351c-0.5,0.333-1.067,0.583-1.7,0.75l-0.7,0.05c-2.167-0.1-3.583-1.334-4.25-3.7
	c-0.333-1.134-0.434-2.283-0.3-3.45h-4.8V7.175h4.75h0.699V6.276c0-0.768,0.084-1.467,0.25-2.101c0.567-2,1.733-3.05,3.5-3.15
	l0.65,0.1c0.533,0.1,1.033,0.317,1.5,0.65c1.333,0.9,2,2.7,2,5.4H14.274h-0.8c0-2.7-0.667-4.5-2-5.4
	c-0.467-0.333-0.967-0.55-1.5-0.65l-0.65-0.1c-1.767,0.1-2.933,1.15-3.5,3.15c-0.166,0.634-0.25,1.333-0.25,2.101v0.899H4.875V6.276
	c0.033-0.934,0.133-1.768,0.3-2.5c0.7-2.333,2.116-3.55,4.25-3.65l0.75,0.1c0.6,0.1,1.149,0.333,1.649,0.7
	C13.392,2.025,14.208,4.109,14.274,7.175z"></path>
<path fill-rule="evenodd" clip-rule="evenodd" fill="#FFFFFF" d="M12.574,4.025l-0.149,0.45c0-0.1-0.05-0.166-0.15-0.199
	c-0.166-0.066-0.467,0.016-0.899,0.25c-0.4,0.232-1.034,0.199-1.9-0.101c-0.767-0.333-1.2-0.6-1.3-0.8
	c-0.2-0.367-0.45-0.567-0.75-0.6H7.074l-0.1-0.35l0.3-0.2c0.167-0.167,0.367-0.317,0.601-0.45c0.566-0.3,1.267-0.333,2.1-0.1
	c0.767,0.2,1.417,0.5,1.95,0.9c0.366,0.267,0.583,0.633,0.649,1.1l-0.1,0.05L12.574,4.025v-0.1c-0.066-0.466-0.283-0.833-0.649-1.1
	c-0.533-0.4-1.184-0.7-1.95-0.9c-0.833-0.233-1.533-0.2-2.1,0.1c-0.233,0.133-0.434,0.283-0.601,0.45l-0.3,0.2l0.1,0.35h0.351
	c0.3,0.033,0.55,0.233,0.75,0.6c0.1,0.2,0.533,0.467,1.3,0.8c0.866,0.3,1.5,0.333,1.9,0.101c0.433-0.234,0.733-0.316,0.899-0.25
	c0.101,0.033,0.15,0.1,0.15,0.199L12.574,4.025z"></path>
<polygon fill-rule="evenodd" clip-rule="evenodd" fill="#FFFFFF" points="16.024,11.625 16.024,13.675 16.024,15.725 16.024,17.625 
	16.024,19.675 16.024,21.576 16.024,23.675 14.375,23.675 12.524,23.675 10.824,23.675 8.925,23.675 7.175,23.675 5.175,23.675 
	3.324,23.675 3.324,21.576 3.324,19.675 3.324,17.625 3.324,15.725 3.324,13.675 3.324,11.625 3.324,9.725 5.175,9.725 7.175,9.725 
	8.925,9.725 10.824,9.725 12.524,9.725 14.375,9.725 16.024,9.725 16.024,11.625 14.375,11.625 14.375,13.675 16.024,13.675 
	14.375,13.675 14.375,11.625 16.024,11.625 16.024,9.725 14.375,9.725 12.524,9.725 10.824,9.725 8.925,9.725 7.175,9.725 
	5.175,9.725 3.324,9.725 3.324,11.625 3.324,13.675 3.324,15.725 3.324,17.625 3.324,19.675 3.324,21.576 3.324,23.675 
	5.175,23.675 7.175,23.675 8.925,23.675 10.824,23.675 12.524,23.675 14.375,23.675 16.024,23.675 16.024,21.576 16.024,19.675 
	16.024,17.625 16.024,15.725 16.024,13.675 "></polygon>
<polygon fill-rule="evenodd" clip-rule="evenodd" fill="#FFFFFF" points="12.524,9.725 12.524,11.625 14.375,11.625 14.375,9.725 
	14.375,11.625 12.524,11.625 "></polygon>
<polygon fill-rule="evenodd" clip-rule="evenodd" fill="#FFFFFF" points="8.925,9.725 8.925,11.625 10.824,11.625 10.824,9.725 
	10.824,11.625 8.925,11.625 "></polygon>
<polygon fill-rule="evenodd" clip-rule="evenodd" fill="#FFFFFF" points="10.824,11.625 10.824,13.675 12.524,13.675 12.524,11.625 
	10.824,11.625 12.524,11.625 12.524,13.675 10.824,13.675 "></polygon>
<polygon fill-rule="evenodd" clip-rule="evenodd" fill="#FFFFFF" points="10.824,17.625 12.524,17.625 12.524,15.725 10.824,15.725 
	10.824,17.625 10.824,19.675 12.524,19.675 12.524,17.625 14.375,17.625 14.375,15.725 12.524,15.725 14.375,15.725 14.375,17.625 
	12.524,17.625 12.524,19.675 10.824,19.675 10.824,17.625 10.824,15.725 12.524,15.725 12.524,17.625 10.824,17.625 8.925,17.625 
	8.925,19.675 7.175,19.675 7.175,17.625 7.175,19.675 8.925,19.675 8.925,17.625 "></polygon>
<polygon fill-rule="evenodd" clip-rule="evenodd" fill="#FFFFFF" points="16.024,17.625 14.375,17.625 14.375,19.675 16.024,19.675 
	14.375,19.675 14.375,17.625 "></polygon>
<polygon fill-rule="evenodd" clip-rule="evenodd" fill="#FFFFFF" points="14.375,13.675 14.375,15.725 16.024,15.725 14.375,15.725 
	14.375,13.675 12.524,13.675 12.524,15.725 12.524,13.675 "></polygon>
<polygon fill-rule="evenodd" clip-rule="evenodd" fill="#FFFFFF" points="12.524,19.675 12.524,21.576 14.375,21.576 14.375,19.675 
	12.524,19.675 14.375,19.675 14.375,21.576 12.524,21.576 "></polygon>
<polygon fill-rule="evenodd" clip-rule="evenodd" fill="#FFFFFF" points="10.824,13.675 8.925,13.675 8.925,15.725 10.824,15.725 
	10.824,13.675 10.824,15.725 8.925,15.725 8.925,13.675 "></polygon>
<polygon fill-rule="evenodd" clip-rule="evenodd" fill="#FFFFFF" points="5.175,13.675 7.175,13.675 7.175,11.625 5.175,11.625 
	5.175,13.675 5.175,11.625 7.175,11.625 7.175,13.675 "></polygon>
<polygon fill-rule="evenodd" clip-rule="evenodd" fill="#FFFFFF" points="7.175,13.675 8.925,13.675 8.925,11.625 7.175,11.625 
	7.175,9.725 7.175,11.625 8.925,11.625 8.925,13.675 7.175,13.675 7.175,15.725 7.175,17.625 8.925,17.625 8.925,15.725 
	7.175,15.725 5.175,15.725 5.175,17.625 7.175,17.625 5.175,17.625 5.175,15.725 7.175,15.725 "></polygon>
<polygon fill-rule="evenodd" clip-rule="evenodd" fill="#FFFFFF" points="3.324,11.625 5.175,11.625 5.175,9.725 5.175,11.625 "></polygon>
<polygon fill-rule="evenodd" clip-rule="evenodd" fill="#FFFFFF" points="3.324,19.675 5.175,19.675 5.175,17.625 3.324,17.625 
	5.175,17.625 5.175,19.675 "></polygon>
<polygon fill-rule="evenodd" clip-rule="evenodd" fill="#FFFFFF" points="5.175,19.675 7.175,19.675 7.175,21.576 8.925,21.576 
	8.925,19.675 8.925,21.576 7.175,21.576 7.175,19.675 "></polygon>
<polygon fill-rule="evenodd" clip-rule="evenodd" fill="#FFFFFF" points="3.324,15.725 5.175,15.725 5.175,13.675 3.324,13.675 
	5.175,13.675 5.175,15.725 "></polygon>
<polygon fill-rule="evenodd" clip-rule="evenodd" fill="#FFFFFF" points="10.824,23.675 10.824,21.576 8.925,21.576 8.925,23.675 
	8.925,21.576 10.824,21.576 "></polygon>
<polygon fill-rule="evenodd" clip-rule="evenodd" fill="#FFFFFF" points="7.175,23.675 7.175,21.576 5.175,21.576 5.175,23.675 
	5.175,21.576 7.175,21.576 "></polygon>
<path fill-rule="evenodd" clip-rule="evenodd" fill="#FFFFFF" d="M14.274,26.225h-0.75c0,2.734-0.666,4.584-2,5.551
	c-0.467,0.3-0.967,0.5-1.5,0.6l-0.649,0.05c-1.767-0.066-2.934-1.116-3.5-3.149c-0.267-0.934-0.367-1.95-0.301-3.051H4.925h0.649
	c-0.066,1.101,0.034,2.117,0.301,3.051c0.566,2.033,1.733,3.083,3.5,3.149l0.649-0.05c0.533-0.1,1.033-0.3,1.5-0.6
	c1.334-0.967,2-2.816,2-5.551H14.274z"></path>
<path fill-rule="evenodd" clip-rule="evenodd" fill="#FFFFFF" d="M7.125,30.675v-0.25l0.35,0.05c0.3-0.066,0.55-0.266,0.75-0.6
	c0.1-0.2,0.533-0.45,1.3-0.75c0.867-0.334,1.517-0.383,1.95-0.15c0.4,0.2,0.684,0.268,0.85,0.2c0.067,0,0.117-0.033,0.15-0.1
	c0.1,0.134,0.134,0.316,0.1,0.55c0,0.434-0.183,0.783-0.55,1.05c-0.566,0.4-1.233,0.7-2,0.9c-0.866,0.233-1.566,0.2-2.1-0.101
	c-0.2-0.133-0.4-0.283-0.601-0.449l-0.25-0.2L7.125,30.675l-0.051,0.15l0.25,0.2c0.2,0.166,0.4,0.316,0.601,0.449
	c0.533,0.301,1.233,0.334,2.1,0.101c0.767-0.2,1.434-0.5,2-0.9c0.367-0.267,0.55-0.616,0.55-1.05c0.034-0.233,0-0.416-0.1-0.55
	c-0.033,0.066-0.083,0.1-0.15,0.1c-0.166,0.067-0.449,0-0.85-0.2c-0.434-0.232-1.083-0.184-1.95,0.15c-0.767,0.3-1.2,0.55-1.3,0.75
	c-0.2,0.334-0.45,0.533-0.75,0.6l-0.35-0.05V30.675z"></path>
<polygon fill-rule="evenodd" clip-rule="evenodd" fill="#FFFFFF" points="3.324,21.576 5.175,21.576 5.175,19.675 5.175,21.576 "></polygon>
<rect x="7.175" y="15.725" fill-rule="evenodd" clip-rule="evenodd" fill="#FFFFFF" width="1.75" height="1.9"></rect>
<polygon fill-rule="evenodd" clip-rule="evenodd" fill="#FFFFFF" points="16.024,21.576 14.375,21.576 14.375,23.675 14.375,21.576 
	"></polygon>
<polygon fill-rule="evenodd" clip-rule="evenodd" fill="#FFFFFF" points="12.524,23.675 12.524,21.576 10.824,21.576 12.524,21.576 
	"></polygon>
<path fill-rule="evenodd" clip-rule="evenodd" fill="#FFFFFF" d="M13.524,26.225h-7.95H13.524z"></path>
<path fill-rule="evenodd" clip-rule="evenodd" fill="#FFFFFF" d="M5.574,7.175h7.9H5.574z"></path>
<polygon fill-rule="evenodd" clip-rule="evenodd" fill="#FFFFFF" points="10.824,21.576 10.824,19.675 8.925,19.675 10.824,19.675 
	"></polygon>
<path fill-rule="evenodd" clip-rule="evenodd" fill="none" stroke="#383635" stroke-width="0.3" d="M4.875,7.175h0.699V6.276
	c0-0.768,0.084-1.467,0.25-2.101c0.567-2,1.733-3.05,3.5-3.15l0.65,0.1c0.533,0.1,1.033,0.317,1.5,0.65c1.333,0.9,2,2.7,2,5.4h0.8
	c-0.066-3.066-0.883-5.15-2.45-6.25c-0.5-0.367-1.05-0.6-1.649-0.7l-0.75-0.1c-2.134,0.1-3.55,1.317-4.25,3.65
	c-0.167,0.733-0.267,1.567-0.3,2.5V7.175z" style="stroke: rgb(0, 0, 0);"></path>
<polyline fill-rule="evenodd" clip-rule="evenodd" fill="none" stroke="#383635" stroke-width="0.3" points="12.475,3.976 
	12.574,4.025 12.574,3.925 " style="stroke: rgb(0, 0, 0);"></polyline>
<path fill-rule="evenodd" clip-rule="evenodd" fill="none" stroke="#383635" stroke-width="0.3" d="M12.574,4.025l-0.149,0.45
	c0-0.1-0.05-0.166-0.15-0.199c-0.166-0.066-0.467,0.016-0.899,0.25c-0.4,0.232-1.034,0.199-1.9-0.101c-0.767-0.333-1.2-0.6-1.3-0.8
	c-0.2-0.367-0.45-0.567-0.75-0.6H7.074l-0.1-0.35l0.3-0.2c0.167-0.167,0.367-0.317,0.601-0.45c0.566-0.3,1.267-0.333,2.1-0.1
	c0.767,0.2,1.417,0.5,1.95,0.9c0.366,0.267,0.583,0.633,0.649,1.1" style="stroke: rgb(0, 0, 0);"></path>
<path fill-rule="evenodd" clip-rule="evenodd" fill="none" stroke="#383635" stroke-width="0.3" d="M14.274,7.175h4.601v19.05
	h-4.601c-0.033,3.101-0.833,5.217-2.399,6.351c-0.5,0.333-1.067,0.583-1.7,0.75l-0.7,0.05c-2.167-0.1-3.583-1.334-4.25-3.7
	c-0.333-1.134-0.434-2.283-0.3-3.45h-4.8V7.175h4.75" style="stroke: rgb(0, 0, 0);"></path>
<polyline fill-rule="evenodd" clip-rule="evenodd" fill="none" stroke="#383635" stroke-width="0.3" points="16.024,11.625 
	16.024,13.675 16.024,15.725 16.024,17.625 16.024,19.675 16.024,21.576 16.024,23.675 14.375,23.675 12.524,23.675 10.824,23.675 
	8.925,23.675 7.175,23.675 5.175,23.675 3.324,23.675 3.324,21.576 3.324,19.675 3.324,17.625 3.324,15.725 3.324,13.675 
	3.324,11.625 3.324,9.725 5.175,9.725 7.175,9.725 8.925,9.725 10.824,9.725 12.524,9.725 14.375,9.725 16.024,9.725 16.024,11.625 
	14.375,11.625 14.375,13.675 16.024,13.675 " style="stroke: rgb(0, 0, 0);"></polyline>
<polyline fill-rule="evenodd" clip-rule="evenodd" fill="none" stroke="#383635" stroke-width="0.3" points="12.524,9.725 
	12.524,11.625 14.375,11.625 14.375,9.725 " style="stroke: rgb(0, 0, 0);"></polyline>
<polyline fill-rule="evenodd" clip-rule="evenodd" fill="none" stroke="#383635" stroke-width="0.3" points="8.925,9.725 
	8.925,11.625 10.824,11.625 10.824,9.725 " style="stroke: rgb(0, 0, 0);"></polyline>
<rect x="10.824" y="11.625" fill-rule="evenodd" clip-rule="evenodd" fill="none" stroke="#383635" stroke-width="0.3" width="1.7" height="2.05" style="stroke: rgb(0, 0, 0);"></rect>
<polyline fill-rule="evenodd" clip-rule="evenodd" fill="none" stroke="#383635" stroke-width="0.3" points="10.824,17.625 
	12.524,17.625 12.524,15.725 10.824,15.725 10.824,17.625 10.824,19.675 12.524,19.675 12.524,17.625 14.375,17.625 14.375,15.725 
	12.524,15.725 " style="stroke: rgb(0, 0, 0);"></polyline>
<polyline fill-rule="evenodd" clip-rule="evenodd" fill="none" stroke="#383635" stroke-width="0.3" points="16.024,17.625 
	14.375,17.625 14.375,19.675 16.024,19.675 " style="stroke: rgb(0, 0, 0);"></polyline>
<polyline fill-rule="evenodd" clip-rule="evenodd" fill="none" stroke="#383635" stroke-width="0.3" points="14.375,13.675 
	14.375,15.725 16.024,15.725 " style="stroke: rgb(0, 0, 0);"></polyline>
<rect x="12.524" y="19.675" fill-rule="evenodd" clip-rule="evenodd" fill="none" stroke="#383635" stroke-width="0.3" width="1.851" height="1.9" style="stroke: rgb(0, 0, 0);"></rect>
<rect x="8.925" y="13.675" fill-rule="evenodd" clip-rule="evenodd" fill="none" stroke="#383635" stroke-width="0.3" width="1.899" height="2.05" style="stroke: rgb(0, 0, 0);"></rect>
<polyline fill-rule="evenodd" clip-rule="evenodd" fill="none" stroke="#383635" stroke-width="0.3" points="14.375,13.675 
	12.524,13.675 12.524,15.725 " style="stroke: rgb(0, 0, 0);"></polyline>
<rect x="5.175" y="11.625" fill-rule="evenodd" clip-rule="evenodd" fill="none" stroke="#383635" stroke-width="0.3" width="2" height="2.05" style="stroke: rgb(0, 0, 0);"></rect>
<polyline fill-rule="evenodd" clip-rule="evenodd" fill="none" stroke="#383635" stroke-width="0.3" points="7.175,13.675 
	8.925,13.675 8.925,11.625 7.175,11.625 " style="stroke: rgb(0, 0, 0);"></polyline>
<line fill-rule="evenodd" clip-rule="evenodd" fill="none" stroke="#383635" stroke-width="0.3" x1="7.175" y1="9.725" x2="7.175" y2="11.625" style="stroke: rgb(0, 0, 0);"></line>
<polyline fill-rule="evenodd" clip-rule="evenodd" fill="none" stroke="#383635" stroke-width="0.3" points="3.324,11.625 
	5.175,11.625 5.175,9.725 " style="stroke: rgb(0, 0, 0);"></polyline>
<polyline fill-rule="evenodd" clip-rule="evenodd" fill="none" stroke="#383635" stroke-width="0.3" points="7.175,15.725 
	7.175,17.625 8.925,17.625 8.925,15.725 7.175,15.725 5.175,15.725 5.175,17.625 7.175,17.625 7.175,19.675 8.925,19.675 
	8.925,17.625 10.824,17.625 " style="stroke: rgb(0, 0, 0);"></polyline>
<polyline fill-rule="evenodd" clip-rule="evenodd" fill="none" stroke="#383635" stroke-width="0.3" points="3.324,19.675 
	5.175,19.675 5.175,17.625 3.324,17.625 " style="stroke: rgb(0, 0, 0);"></polyline>
<polyline fill-rule="evenodd" clip-rule="evenodd" fill="none" stroke="#383635" stroke-width="0.3" points="5.175,19.675 
	7.175,19.675 7.175,21.576 8.925,21.576 8.925,19.675 " style="stroke: rgb(0, 0, 0);"></polyline>
<line fill-rule="evenodd" clip-rule="evenodd" fill="none" stroke="#383635" stroke-width="0.3" x1="7.175" y1="13.675" x2="7.175" y2="15.725" style="stroke: rgb(0, 0, 0);"></line>
<polyline fill-rule="evenodd" clip-rule="evenodd" fill="none" stroke="#383635" stroke-width="0.3" points="3.324,15.725 
	5.175,15.725 5.175,13.675 3.324,13.675 " style="stroke: rgb(0, 0, 0);"></polyline>
<polyline fill-rule="evenodd" clip-rule="evenodd" fill="none" stroke="#383635" stroke-width="0.3" points="10.824,23.675 
	10.824,21.576 8.925,21.576 8.925,23.675 " style="stroke: rgb(0, 0, 0);"></polyline>
<polyline fill-rule="evenodd" clip-rule="evenodd" fill="none" stroke="#383635" stroke-width="0.3" points="7.175,23.675 
	7.175,21.576 5.175,21.576 5.175,23.675 " style="stroke: rgb(0, 0, 0);"></polyline>
<path fill-rule="evenodd" clip-rule="evenodd" fill="none" stroke="#383635" stroke-width="0.3" d="M14.274,26.225h-0.75
	c0,2.734-0.666,4.584-2,5.551c-0.467,0.3-0.967,0.5-1.5,0.6l-0.649,0.05c-1.767-0.066-2.934-1.116-3.5-3.149
	c-0.267-0.934-0.367-1.95-0.301-3.051H4.925" style="stroke: rgb(0, 0, 0);"></path>
<path fill-rule="evenodd" clip-rule="evenodd" fill="none" stroke="#383635" stroke-width="0.3" d="M7.125,30.675v-0.25l0.35,0.05
	c0.3-0.066,0.55-0.266,0.75-0.6c0.1-0.2,0.533-0.45,1.3-0.75c0.867-0.334,1.517-0.383,1.95-0.15c0.4,0.2,0.684,0.268,0.85,0.2
	c0.067,0,0.117-0.033,0.15-0.1c0.1,0.134,0.134,0.316,0.1,0.55c0,0.434-0.183,0.783-0.55,1.05c-0.566,0.4-1.233,0.7-2,0.9
	c-0.866,0.233-1.566,0.2-2.1-0.101c-0.2-0.133-0.4-0.283-0.601-0.449l-0.25-0.2L7.125,30.675z" style="stroke: rgb(0, 0, 0);"></path>
<polyline fill-rule="evenodd" clip-rule="evenodd" fill="none" stroke="#383635" stroke-width="0.3" points="3.324,21.576 
	5.175,21.576 5.175,19.675 " style="stroke: rgb(0, 0, 0);"></polyline>
<polyline fill-rule="evenodd" clip-rule="evenodd" fill="none" stroke="#383635" stroke-width="0.3" points="16.024,21.576 
	14.375,21.576 14.375,23.675 " style="stroke: rgb(0, 0, 0);"></polyline>
<polyline fill-rule="evenodd" clip-rule="evenodd" fill="none" stroke="#383635" stroke-width="0.3" points="12.524,23.675 
	12.524,21.576 10.824,21.576 10.824,19.675 8.925,19.675 " style="stroke: rgb(0, 0, 0);"></polyline>
<line fill-rule="evenodd" clip-rule="evenodd" fill="none" stroke="#383635" stroke-width="0.3" x1="13.524" y1="26.225" x2="5.574" y2="26.225" style="stroke: rgb(0, 0, 0);"></line>
<line fill-rule="evenodd" clip-rule="evenodd" fill="none" stroke="#383635" stroke-width="0.3" x1="5.574" y1="7.175" x2="13.475" y2="7.175" style="stroke: rgb(0, 0, 0);"></line>
</svg>