<svg version="1.1" id="Layer_1" xmlns="http://www.w3.org/2000/svg" xmlns:xlink="http://www.w3.org/1999/xlink" x="0px" y="0px" width="34.065px" height="34.064px" viewBox="0 0 34.065 34.064" enable-background="new 0 0 34.065 34.064" xml:space="preserve" class="ng-scope">
<path fill-rule="evenodd" clip-rule="evenodd" fill="#FFFFFF" d="M5.275,14.289l-4.95-5.25c-0.2-0.267-0.25-0.517-0.15-0.75
	c1.767-3.7,4.317-6.35,7.65-7.95c0.033-0.033,0.116-0.083,0.25-0.15c0.366-0.1,0.65-0.083,0.85,0.05l5.301,4.95
	c-0.567,0.133-1.117,0.317-1.65,0.55c-1.467,0.566-2.816,1.466-4.05,2.7c-1.3,1.3-2.25,2.767-2.851,4.4
	C5.509,13.306,5.375,13.789,5.275,14.289c0.1-0.5,0.233-0.983,0.399-1.45c0.601-1.633,1.551-3.1,2.851-4.4
	c1.233-1.233,2.583-2.133,4.05-2.7c0.533-0.233,1.083-0.417,1.65-0.55c0.933-0.233,1.899-0.35,2.899-0.35c0.967,0,1.9,0.1,2.8,0.3
	c0.5,0.1,0.983,0.25,1.45,0.45c-0.467-0.2-0.95-0.35-1.45-0.45l5.101-4.8c0.267-0.2,0.517-0.25,0.75-0.15
	c3.7,1.767,6.35,4.317,7.95,7.65c0.033,0.034,0.083,0.117,0.149,0.25c0.101,0.367,0.084,0.65-0.05,0.85l-4.85,5.25
	c0.199,0.9,0.3,1.833,0.3,2.8c0,1-0.101,1.966-0.3,2.899l4.85,5.25c0.134,0.2,0.15,0.484,0.05,0.851
	c-0.066,0.134-0.116,0.216-0.149,0.25c-1.601,3.333-4.25,5.884-7.95,7.649c-0.233,0.101-0.483,0.051-0.75-0.149l-5.2-4.851
	c0.5-0.1,1-0.232,1.5-0.399c0.8,0.833,1.583,1.7,2.35,2.6c0.2,0.2,0.4,0.434,0.601,0.7c0.366,0.767,0.85,1.017,1.45,0.75l0.05,0.05
	l0.05-0.05c3.066-1.666,5.316-3.95,6.75-6.85l0.05-0.051c0-0.666-0.316-1.083-0.95-1.25c-0.267-0.199-0.517-0.383-0.75-0.55
	c-0.866-0.733-1.683-1.466-2.449-2.2c0.199-0.566,0.366-1.149,0.5-1.75c-0.134,0.601-0.301,1.184-0.5,1.75
	c0.767,0.734,1.583,1.467,2.449,2.2c0.233,0.167,0.483,0.351,0.75,0.55c0.634,0.167,0.95,0.584,0.95,1.25l-0.05,0.051
	c-1.434,2.899-3.684,5.184-6.75,6.85l-0.05,0.05l-0.05-0.05c-0.601,0.267-1.084,0.017-1.45-0.75c-0.2-0.267-0.4-0.5-0.601-0.7
	c-0.767-0.899-1.55-1.767-2.35-2.6c-0.5,0.167-1,0.3-1.5,0.399c-0.866,0.167-1.767,0.25-2.7,0.25c-1,0-1.95-0.1-2.85-0.3
	c-0.5-0.134-0.983-0.283-1.45-0.45c-1.566-0.6-2.983-1.533-4.25-2.8s-2.184-2.649-2.75-4.149c-0.233-0.566-0.417-1.134-0.55-1.7
	c-0.2-0.9-0.3-1.817-0.3-2.75C4.976,16.056,5.075,15.156,5.275,14.289z"></path>
<path fill-rule="evenodd" clip-rule="evenodd" fill="#FFFFFF" d="M21.375,5.589c0.8-0.867,1.566-1.733,2.3-2.6
	c0.2-0.2,0.4-0.434,0.601-0.7c0.366-0.767,0.85-1.017,1.45-0.75l0.05-0.05l0.05,0.05c3.066,1.667,5.3,3.95,6.7,6.85h0.05l0.05,0.05
	c0,0.667-0.316,1.083-0.95,1.25c-0.267,0.2-0.517,0.383-0.75,0.55c-0.866,0.733-1.683,1.483-2.449,2.25
	c0.767-0.767,1.583-1.517,2.449-2.25c0.233-0.167,0.483-0.35,0.75-0.55c0.634-0.167,0.95-0.583,0.95-1.25l-0.05-0.05h-0.05
	c-1.4-2.9-3.634-5.184-6.7-6.85l-0.05-0.05l-0.05,0.05c-0.601-0.267-1.084-0.017-1.45,0.75c-0.2,0.267-0.4,0.5-0.601,0.7
	C22.941,3.856,22.175,4.722,21.375,5.589c1.566,0.567,3.017,1.517,4.351,2.85c1.233,1.233,2.149,2.583,2.75,4.05
	c0.199,0.533,0.366,1.1,0.5,1.7c-0.134-0.6-0.301-1.167-0.5-1.7c-0.601-1.467-1.517-2.817-2.75-4.05
	C24.392,7.106,22.941,6.156,21.375,5.589z"></path>
<path fill-rule="evenodd" clip-rule="evenodd" fill="#FFFFFF" d="M25.825,1.539c1.066,2.467,2.384,4.217,3.95,5.25
	c1.5,1,2.416,1.533,2.75,1.6c-0.334-0.067-1.25-0.6-2.75-1.6C28.209,5.756,26.892,4.006,25.825,1.539z"></path>
<path fill-rule="evenodd" clip-rule="evenodd" fill="#FFFFFF" d="M14.275,28.839l-5.2,4.851c-0.267,0.199-0.517,0.25-0.75,0.149
	c-3.7-1.767-6.35-4.316-7.95-7.649c-0.033-0.033-0.083-0.117-0.149-0.25c-0.101-0.367-0.084-0.65,0.05-0.851l5-5.35
	c0.133,0.566,0.316,1.134,0.55,1.7c0.566,1.5,1.483,2.883,2.75,4.149s2.684,2.2,4.25,2.8C13.292,28.556,13.775,28.705,14.275,28.839
	z"></path>
<polygon fill-rule="evenodd" clip-rule="evenodd" fill="#FFFFFF" points="22.125,12.539 22.125,10.689 20.075,10.689 20.075,12.539 
	22.125,12.539 22.125,14.539 20.075,14.539 20.075,12.539 20.075,14.539 22.125,14.539 22.125,12.539 20.075,12.539 20.075,10.689 
	22.125,10.689 22.125,12.539 24.025,12.539 "></polygon>
<polygon fill-rule="evenodd" clip-rule="evenodd" fill="#FFFFFF" points="18.025,10.689 16.125,10.689 16.125,12.539 18.025,12.539 
	18.025,10.689 20.075,10.689 18.025,10.689 18.025,12.539 16.125,12.539 16.125,10.689 "></polygon>
<polygon fill-rule="evenodd" clip-rule="evenodd" fill="#FFFFFF" points="16.125,10.689 14.075,10.689 14.075,12.539 16.125,12.539 
	16.125,14.539 14.075,14.539 14.075,12.539 14.075,14.539 16.125,14.539 16.125,12.539 14.075,12.539 14.075,10.689 "></polygon>
<polygon fill-rule="evenodd" clip-rule="evenodd" fill="#FFFFFF" points="16.125,14.539 16.125,16.289 18.025,16.289 18.025,14.539 
	16.125,14.539 18.025,14.539 18.025,16.289 16.125,16.289 "></polygon>
<polygon fill-rule="evenodd" clip-rule="evenodd" fill="#FFFFFF" points="20.075,12.539 18.025,12.539 18.025,14.539 20.075,14.539 
	20.075,16.289 22.125,16.289 22.125,14.539 22.125,16.289 20.075,16.289 20.075,14.539 18.025,14.539 18.025,12.539 "></polygon>
<polygon fill-rule="evenodd" clip-rule="evenodd" fill="#FFFFFF" points="16.125,18.189 16.125,19.889 18.025,19.889 18.025,18.189 
	16.125,18.189 14.075,18.189 14.075,16.289 16.125,16.289 16.125,18.189 16.125,16.289 14.075,16.289 14.075,18.189 16.125,18.189 
	18.025,18.189 18.025,19.889 16.125,19.889 "></polygon>
<polygon fill-rule="evenodd" clip-rule="evenodd" fill="#FFFFFF" points="18.025,18.189 20.075,18.189 20.075,16.289 18.025,16.289 
	18.025,18.189 18.025,16.289 20.075,16.289 20.075,18.189 "></polygon>
<polygon fill-rule="evenodd" clip-rule="evenodd" fill="#FFFFFF" points="14.075,21.739 16.125,21.739 16.125,19.889 14.075,19.889 
	14.075,21.739 14.075,19.889 16.125,19.889 16.125,21.739 "></polygon>
<polygon fill-rule="evenodd" clip-rule="evenodd" fill="#FFFFFF" points="16.125,21.739 16.125,23.389 18.025,23.389 18.025,21.739 
	16.125,21.739 18.025,21.739 18.025,23.389 16.125,23.389 "></polygon>
<polygon fill-rule="evenodd" clip-rule="evenodd" fill="#FFFFFF" points="18.025,21.739 20.075,21.739 20.075,19.889 18.025,19.889 
	18.025,21.739 18.025,19.889 20.075,19.889 20.075,21.739 "></polygon>
<polygon fill-rule="evenodd" clip-rule="evenodd" fill="#FFFFFF" points="14.075,18.189 14.075,19.889 14.075,18.189 12.175,18.189 
	12.175,19.889 12.175,18.189 "></polygon>
<polygon fill-rule="evenodd" clip-rule="evenodd" fill="#FFFFFF" points="22.125,18.189 24.025,18.189 24.025,16.289 22.125,16.289 
	22.125,18.189 20.075,18.189 20.075,19.889 22.125,19.889 22.125,18.189 22.125,19.889 20.075,19.889 20.075,18.189 22.125,18.189 
	22.125,16.289 24.025,16.289 24.025,18.189 "></polygon>
<polygon fill-rule="evenodd" clip-rule="evenodd" fill="#FFFFFF" points="22.125,21.739 24.025,21.739 24.025,19.889 22.125,19.889 
	22.125,21.739 22.125,19.889 24.025,19.889 24.025,21.739 "></polygon>
<polygon fill-rule="evenodd" clip-rule="evenodd" fill="#FFFFFF" points="20.075,21.739 20.075,23.389 22.125,23.389 22.125,21.739 
	20.075,21.739 22.125,21.739 22.125,23.389 20.075,23.389 "></polygon>
<polygon fill-rule="evenodd" clip-rule="evenodd" fill="#FFFFFF" points="14.075,14.539 14.075,16.289 14.075,14.539 12.175,14.539 
	12.175,16.289 10.075,16.289 10.075,18.189 12.175,18.189 12.175,16.289 12.175,14.539 "></polygon>
<polygon fill-rule="evenodd" clip-rule="evenodd" fill="#FFFFFF" points="22.125,10.689 24.025,10.689 24.025,12.539 24.025,14.539 
	24.025,16.289 24.025,14.539 24.025,12.539 24.025,10.689 "></polygon>
<path fill-rule="evenodd" clip-rule="evenodd" fill="#FFFFFF" d="M24.025,18.189v1.699V18.189z"></path>
<path fill-rule="evenodd" clip-rule="evenodd" fill="#FFFFFF" d="M30.925,10.239c-1.333-3.4-3.75-5.817-7.25-7.25
	C27.175,4.422,29.592,6.839,30.925,10.239z"></path>
<path fill-rule="evenodd" clip-rule="evenodd" fill="#FFFFFF" d="M24.025,14.539h-1.9H24.025z"></path>
<path fill-rule="evenodd" clip-rule="evenodd" fill="#FFFFFF" d="M5.675,12.839c-0.866-0.833-1.767-1.65-2.699-2.45
	c-0.2-0.2-0.434-0.4-0.7-0.6c-0.767-0.367-1.017-0.85-0.75-1.45l-0.05-0.05l0.05-0.05c1.666-3.067,3.95-5.3,6.85-6.7v-0.05
	l0.05-0.05c0.667,0,1.084,0.317,1.25,0.95c0.2,0.267,0.384,0.517,0.551,0.75c0.767,0.9,1.55,1.767,2.35,2.6
	c-0.8-0.833-1.583-1.7-2.35-2.6c-0.167-0.233-0.351-0.483-0.551-0.75c-0.166-0.633-0.583-0.95-1.25-0.95l-0.05,0.05v0.05
	c-2.899,1.4-5.184,3.633-6.85,6.7l-0.05,0.05l0.05,0.05c-0.267,0.6-0.017,1.083,0.75,1.45c0.267,0.2,0.5,0.4,0.7,0.6
	C3.908,11.189,4.809,12.006,5.675,12.839z"></path>
<path fill-rule="evenodd" clip-rule="evenodd" fill="#FFFFFF" d="M8.375,1.539c-0.066,0.333-0.6,1.25-1.6,2.75
	c-1.033,1.567-2.783,2.883-5.25,3.95c2.467-1.067,4.217-2.383,5.25-3.95C7.775,2.789,8.309,1.873,8.375,1.539z"></path>
<polygon fill-rule="evenodd" clip-rule="evenodd" fill="#FFFFFF" points="12.175,12.539 10.075,12.539 10.075,14.539 12.175,14.539 
	12.175,12.539 12.175,10.689 10.075,10.689 10.075,12.539 10.075,10.689 12.175,10.689 12.175,12.539 12.175,14.539 10.075,14.539 
	10.075,12.539 12.175,12.539 14.075,12.539 "></polygon>
<polygon fill-rule="evenodd" clip-rule="evenodd" fill="#FFFFFF" points="16.125,23.389 14.075,23.389 12.175,23.389 10.075,23.389 
	10.075,21.739 10.075,19.889 10.075,18.189 10.075,19.889 10.075,21.739 10.075,23.389 12.175,23.389 14.075,23.389 "></polygon>
<polygon fill-rule="evenodd" clip-rule="evenodd" fill="#FFFFFF" points="10.075,21.739 12.175,21.739 12.175,19.889 10.075,19.889 
	12.175,19.889 12.175,21.739 "></polygon>
<path fill-rule="evenodd" clip-rule="evenodd" fill="#FFFFFF" d="M10.075,16.289v-1.75V16.289z"></path>
<polygon fill-rule="evenodd" clip-rule="evenodd" fill="#FFFFFF" points="12.175,16.289 12.175,18.189 10.075,18.189 10.075,16.289 
	12.175,16.289 14.075,16.289 "></polygon>
<path fill-rule="evenodd" clip-rule="evenodd" fill="#FFFFFF" d="M2.976,10.389c1.433-3.5,3.85-5.917,7.25-7.25
	C6.825,4.472,4.408,6.889,2.976,10.389z"></path>
<path fill-rule="evenodd" clip-rule="evenodd" fill="#FFFFFF" d="M8.325,32.539l0.05-0.05c0.601,0.267,1.084,0.017,1.45-0.75
	c0.2-0.267,0.4-0.5,0.6-0.7c-3.5-1.434-5.916-3.85-7.25-7.25c-0.233,0.166-0.483,0.35-0.75,0.55
	c-0.633,0.167-0.949,0.583-0.949,1.25l0.05,0.05h0.05c0.3,0.066,1.217,0.601,2.75,1.601c1.566,1.033,2.884,2.783,3.95,5.25
	L8.325,32.539l-0.05-0.05c-1.066-2.467-2.384-4.217-3.95-5.25c-1.533-1-2.45-1.534-2.75-1.601h-0.05l-0.05-0.05
	c0-0.667,0.316-1.083,0.949-1.25c0.267-0.2,0.517-0.384,0.75-0.55c1.334,3.4,3.75,5.816,7.25,7.25c-0.199,0.2-0.399,0.434-0.6,0.7
	c-0.366,0.767-0.85,1.017-1.45,0.75L8.325,32.539z"></path>
<path fill-rule="evenodd" clip-rule="evenodd" fill="#FFFFFF" d="M10.425,31.039c0.767-0.9,1.567-1.783,2.4-2.65
	C11.992,29.256,11.191,30.139,10.425,31.039z"></path>
<path fill-rule="evenodd" clip-rule="evenodd" fill="#FFFFFF" d="M8.275,32.489c-3.066-1.667-5.3-3.95-6.7-6.851
	C2.976,28.539,5.209,30.822,8.275,32.489z"></path>
<path fill-rule="evenodd" clip-rule="evenodd" fill="#FFFFFF" d="M25.825,32.539c1.066-2.467,2.384-4.217,3.95-5.25
	c1.533-1,2.467-1.533,2.8-1.6c-0.333,0.066-1.267,0.6-2.8,1.6C28.209,28.322,26.892,30.072,25.825,32.539z"></path>
<path fill-rule="evenodd" clip-rule="evenodd" fill="#FFFFFF" d="M20.075,23.389h-2.05H20.075z"></path>
<path fill-rule="evenodd" clip-rule="evenodd" fill="#FFFFFF" d="M21.325,28.489c1.634-0.601,3.1-1.55,4.4-2.851
	c1.233-1.232,2.149-2.566,2.75-4c-0.601,1.434-1.517,2.768-2.75,4C24.425,26.939,22.959,27.889,21.325,28.489z"></path>
<path fill-rule="evenodd" clip-rule="evenodd" fill="#FFFFFF" d="M30.925,23.839c-1.333,3.4-3.75,5.817-7.25,7.25
	C27.175,29.656,29.592,27.239,30.925,23.839z"></path>
<polygon fill-rule="evenodd" clip-rule="evenodd" fill="#FFFFFF" points="24.025,21.739 24.025,23.389 22.125,23.389 24.025,23.389 
	"></polygon>
<path fill-rule="evenodd" clip-rule="evenodd" fill="#FFFFFF" d="M5.825,21.439c-0.833,0.8-1.717,1.583-2.65,2.35
	C4.108,23.022,4.992,22.239,5.825,21.439z"></path>
<path fill-rule="evenodd" clip-rule="evenodd" fill="#FFFFFF" d="M12.175,19.889h1.9H12.175z"></path>
<polygon fill-rule="evenodd" clip-rule="evenodd" fill="#FFFFFF" points="14.075,23.389 14.075,21.739 12.175,21.739 12.175,23.389 
	12.175,21.739 14.075,21.739 "></polygon>
<path fill-rule="evenodd" clip-rule="evenodd" fill="#FFFFFF" d="M12.175,10.689h1.9H12.175z"></path>
<path fill-rule="evenodd" clip-rule="evenodd" fill="none" stroke="#383635" stroke-width="0.3" d="M19.925,5.139
	c0.5,0.1,0.983,0.25,1.45,0.45" style="stroke: rgb(0, 0, 0);"></path>
<path fill-rule="evenodd" clip-rule="evenodd" fill="none" stroke="#383635" stroke-width="0.3" d="M28.476,12.489
	c0.199,0.533,0.366,1.1,0.5,1.7" style="stroke: rgb(0, 0, 0);"></path>
<path fill-rule="evenodd" clip-rule="evenodd" fill="none" stroke="#383635" stroke-width="0.3" d="M28.976,19.889
	c-0.134,0.601-0.301,1.184-0.5,1.75" style="stroke: rgb(0, 0, 0);"></path>
<path fill-rule="evenodd" clip-rule="evenodd" fill="none" stroke="#383635" stroke-width="0.3" d="M21.325,28.489
	c-0.5,0.167-1,0.3-1.5,0.399" style="stroke: rgb(0, 0, 0);"></path>
<path fill-rule="evenodd" clip-rule="evenodd" fill="none" stroke="#383635" stroke-width="0.3" d="M19.925,5.139
	c-0.899-0.2-1.833-0.3-2.8-0.3c-1,0-1.967,0.117-2.899,0.35c-0.567,0.133-1.117,0.317-1.65,0.55c-1.467,0.566-2.816,1.466-4.05,2.7
	c-1.3,1.3-2.25,2.767-2.851,4.4c-0.166,0.467-0.3,0.95-0.399,1.45c-0.2,0.867-0.3,1.767-0.3,2.7c0,0.933,0.1,1.85,0.3,2.75
	c0.133,0.566,0.316,1.134,0.55,1.7c0.566,1.5,1.483,2.883,2.75,4.149s2.684,2.2,4.25,2.8c0.467,0.167,0.95,0.316,1.45,0.45
	c0.899,0.2,1.85,0.3,2.85,0.3c0.934,0,1.834-0.083,2.7-0.25" style="stroke: rgb(0, 0, 0);"></path>
<polyline fill-rule="evenodd" clip-rule="evenodd" fill="none" stroke="#383635" stroke-width="0.3" points="22.125,12.539 
	22.125,10.689 20.075,10.689 20.075,12.539 22.125,12.539 24.025,12.539 " style="stroke: rgb(0, 0, 0);"></polyline>
<polyline fill-rule="evenodd" clip-rule="evenodd" fill="none" stroke="#383635" stroke-width="0.3" points="20.075,12.539 
	20.075,14.539 22.125,14.539 22.125,12.539 " style="stroke: rgb(0, 0, 0);"></polyline>
<polyline fill-rule="evenodd" clip-rule="evenodd" fill="none" stroke="#383635" stroke-width="0.3" points="18.025,10.689 
	16.125,10.689 16.125,12.539 18.025,12.539 18.025,10.689 20.075,10.689 " style="stroke: rgb(0, 0, 0);"></polyline>
<polyline fill-rule="evenodd" clip-rule="evenodd" fill="none" stroke="#383635" stroke-width="0.3" points="16.125,10.689 
	14.075,10.689 14.075,12.539 16.125,12.539 " style="stroke: rgb(0, 0, 0);"></polyline>
<rect x="16.125" y="14.539" fill-rule="evenodd" clip-rule="evenodd" fill="none" stroke="#383635" stroke-width="0.3" width="1.9" height="1.75" style="stroke: rgb(0, 0, 0);"></rect>
<polyline fill-rule="evenodd" clip-rule="evenodd" fill="none" stroke="#383635" stroke-width="0.3" points="20.075,12.539 
	18.025,12.539 18.025,14.539 20.075,14.539 20.075,16.289 22.125,16.289 22.125,14.539 " style="stroke: rgb(0, 0, 0);"></polyline>
<polyline fill-rule="evenodd" clip-rule="evenodd" fill="none" stroke="#383635" stroke-width="0.3" points="14.075,12.539 
	14.075,14.539 16.125,14.539 16.125,12.539 " style="stroke: rgb(0, 0, 0);"></polyline>
<rect x="16.125" y="18.189" fill-rule="evenodd" clip-rule="evenodd" fill="none" stroke="#383635" stroke-width="0.3" width="1.9" height="1.699" style="stroke: rgb(0, 0, 0);"></rect>
<line fill-rule="evenodd" clip-rule="evenodd" fill="none" stroke="#383635" stroke-width="0.3" x1="16.125" y1="16.289" x2="16.125" y2="18.189" style="stroke: rgb(0, 0, 0);"></line>
<rect x="18.025" y="16.289" fill-rule="evenodd" clip-rule="evenodd" fill="none" stroke="#383635" stroke-width="0.3" width="2.05" height="1.9" style="stroke: rgb(0, 0, 0);"></rect>
<polyline fill-rule="evenodd" clip-rule="evenodd" fill="none" stroke="#383635" stroke-width="0.3" points="16.125,16.289 
	14.075,16.289 14.075,18.189 16.125,18.189 " style="stroke: rgb(0, 0, 0);"></polyline>
<rect x="14.075" y="19.889" fill-rule="evenodd" clip-rule="evenodd" fill="none" stroke="#383635" stroke-width="0.3" width="2.05" height="1.851" style="stroke: rgb(0, 0, 0);"></rect>
<rect x="16.125" y="21.739" fill-rule="evenodd" clip-rule="evenodd" fill="none" stroke="#383635" stroke-width="0.3" width="1.9" height="1.649" style="stroke: rgb(0, 0, 0);"></rect>
<rect x="18.025" y="19.889" fill-rule="evenodd" clip-rule="evenodd" fill="none" stroke="#383635" stroke-width="0.3" width="2.05" height="1.851" style="stroke: rgb(0, 0, 0);"></rect>
<line fill-rule="evenodd" clip-rule="evenodd" fill="none" stroke="#383635" stroke-width="0.3" x1="14.075" y1="18.189" x2="14.075" y2="19.889" style="stroke: rgb(0, 0, 0);"></line>
<polygon fill-rule="evenodd" clip-rule="evenodd" fill="none" stroke="#383635" stroke-width="0.3" points="22.125,18.189 
	24.025,18.189 24.025,16.289 22.125,16.289 22.125,18.189 20.075,18.189 20.075,19.889 22.125,19.889 " style="stroke: rgb(0, 0, 0);"></polygon>
<rect x="22.125" y="19.889" fill-rule="evenodd" clip-rule="evenodd" fill="none" stroke="#383635" stroke-width="0.3" width="1.9" height="1.851" style="stroke: rgb(0, 0, 0);"></rect>
<rect x="20.075" y="21.739" fill-rule="evenodd" clip-rule="evenodd" fill="none" stroke="#383635" stroke-width="0.3" width="2.05" height="1.649" style="stroke: rgb(0, 0, 0);"></rect>
<line fill-rule="evenodd" clip-rule="evenodd" fill="none" stroke="#383635" stroke-width="0.3" x1="14.075" y1="14.539" x2="14.075" y2="16.289" style="stroke: rgb(0, 0, 0);"></line>
<polyline fill-rule="evenodd" clip-rule="evenodd" fill="none" stroke="#383635" stroke-width="0.3" points="22.125,10.689 
	24.025,10.689 24.025,12.539 24.025,14.539 24.025,16.289 " style="stroke: rgb(0, 0, 0);"></polyline>
<line fill-rule="evenodd" clip-rule="evenodd" fill="none" stroke="#383635" stroke-width="0.3" x1="24.025" y1="18.189" x2="24.025" y2="19.889" style="stroke: rgb(0, 0, 0);"></line>
<path fill-rule="evenodd" clip-rule="evenodd" fill="none" stroke="#383635" stroke-width="0.3" d="M28.976,19.889
	c0.199-0.934,0.3-1.899,0.3-2.899c0-0.967-0.101-1.9-0.3-2.8" style="stroke: rgb(0, 0, 0);"></path>
<line fill-rule="evenodd" clip-rule="evenodd" fill="none" stroke="#383635" stroke-width="0.3" x1="24.025" y1="14.539" x2="22.125" y2="14.539" style="stroke: rgb(0, 0, 0);"></line>
<path fill-rule="evenodd" clip-rule="evenodd" fill="none" stroke="#383635" stroke-width="0.3" d="M28.476,12.489
	c-0.601-1.467-1.517-2.817-2.75-4.05c-1.334-1.333-2.784-2.283-4.351-2.85" style="stroke: rgb(0, 0, 0);"></path>
<polyline fill-rule="evenodd" clip-rule="evenodd" fill="none" stroke="#383635" stroke-width="0.3" points="12.175,12.539 
	10.075,12.539 10.075,14.539 12.175,14.539 12.175,12.539 12.175,10.689 10.075,10.689 10.075,12.539 " style="stroke: rgb(0, 0, 0);"></polyline>
<polyline fill-rule="evenodd" clip-rule="evenodd" fill="none" stroke="#383635" stroke-width="0.3" points="12.175,16.289 
	10.075,16.289 10.075,18.189 12.175,18.189 12.175,16.289 12.175,14.539 " style="stroke: rgb(0, 0, 0);"></polyline>
<polyline fill-rule="evenodd" clip-rule="evenodd" fill="none" stroke="#383635" stroke-width="0.3" points="16.125,23.389 
	14.075,23.389 12.175,23.389 10.075,23.389 10.075,21.739 10.075,19.889 10.075,18.189 " style="stroke: rgb(0, 0, 0);"></polyline>
<polyline fill-rule="evenodd" clip-rule="evenodd" fill="none" stroke="#383635" stroke-width="0.3" points="10.075,21.739 
	12.175,21.739 12.175,19.889 10.075,19.889 " style="stroke: rgb(0, 0, 0);"></polyline>
<line fill-rule="evenodd" clip-rule="evenodd" fill="none" stroke="#383635" stroke-width="0.3" x1="12.175" y1="19.889" x2="12.175" y2="18.189" style="stroke: rgb(0, 0, 0);"></line>
<line fill-rule="evenodd" clip-rule="evenodd" fill="none" stroke="#383635" stroke-width="0.3" x1="10.075" y1="16.289" x2="10.075" y2="14.539" style="stroke: rgb(0, 0, 0);"></line>
<line fill-rule="evenodd" clip-rule="evenodd" fill="none" stroke="#383635" stroke-width="0.3" x1="20.075" y1="23.389" x2="18.025" y2="23.389" style="stroke: rgb(0, 0, 0);"></line>
<path fill-rule="evenodd" clip-rule="evenodd" fill="none" stroke="#383635" stroke-width="0.3" d="M21.325,28.489
	c1.634-0.601,3.1-1.55,4.4-2.851c1.233-1.232,2.149-2.566,2.75-4" style="stroke: rgb(0, 0, 0);"></path>
<polyline fill-rule="evenodd" clip-rule="evenodd" fill="none" stroke="#383635" stroke-width="0.3" points="24.025,21.739 
	24.025,23.389 22.125,23.389 " style="stroke: rgb(0, 0, 0);"></polyline>
<line fill-rule="evenodd" clip-rule="evenodd" fill="none" stroke="#383635" stroke-width="0.3" x1="12.175" y1="16.289" x2="14.075" y2="16.289" style="stroke: rgb(0, 0, 0);"></line>
<line fill-rule="evenodd" clip-rule="evenodd" fill="none" stroke="#383635" stroke-width="0.3" x1="14.075" y1="14.539" x2="12.175" y2="14.539" style="stroke: rgb(0, 0, 0);"></line>
<line fill-rule="evenodd" clip-rule="evenodd" fill="none" stroke="#383635" stroke-width="0.3" x1="12.175" y1="12.539" x2="14.075" y2="12.539" style="stroke: rgb(0, 0, 0);"></line>
<line fill-rule="evenodd" clip-rule="evenodd" fill="none" stroke="#383635" stroke-width="0.3" x1="12.175" y1="19.889" x2="14.075" y2="19.889" style="stroke: rgb(0, 0, 0);"></line>
<polyline fill-rule="evenodd" clip-rule="evenodd" fill="none" stroke="#383635" stroke-width="0.3" points="14.075,23.389 
	14.075,21.739 12.175,21.739 12.175,23.389 " style="stroke: rgb(0, 0, 0);"></polyline>
<line fill-rule="evenodd" clip-rule="evenodd" fill="none" stroke="#383635" stroke-width="0.3" x1="14.075" y1="18.189" x2="12.175" y2="18.189" style="stroke: rgb(0, 0, 0);"></line>
<line fill-rule="evenodd" clip-rule="evenodd" fill="none" stroke="#383635" stroke-width="0.3" x1="12.175" y1="10.689" x2="14.075" y2="10.689" style="stroke: rgb(0, 0, 0);"></line>
<path fill-rule="evenodd" clip-rule="evenodd" fill="none" stroke="#383635" stroke-width="0.3" stroke-linecap="round" stroke-linejoin="round" stroke-miterlimit="3" d="
	M28.976,14.189l4.85-5.25c0.134-0.2,0.15-0.483,0.05-0.85c-0.066-0.133-0.116-0.216-0.149-0.25c-1.601-3.333-4.25-5.883-7.95-7.65
	c-0.233-0.1-0.483-0.05-0.75,0.15l-5.101,4.8" style="stroke: rgb(0, 0, 0);"></path>
<path fill-rule="evenodd" clip-rule="evenodd" fill="none" stroke="#383635" stroke-width="0.3" stroke-linecap="round" stroke-linejoin="round" stroke-miterlimit="3" d="
	M21.375,5.589c0.8-0.867,1.566-1.733,2.3-2.6c0.2-0.2,0.4-0.434,0.601-0.7c0.366-0.767,0.85-1.017,1.45-0.75l0.05-0.05l0.05,0.05
	c3.066,1.667,5.3,3.95,6.7,6.85h0.05l0.05,0.05c0,0.667-0.316,1.083-0.95,1.25c-0.267,0.2-0.517,0.383-0.75,0.55
	c-0.866,0.733-1.683,1.483-2.449,2.25" style="stroke: rgb(0, 0, 0);"></path>
<path fill-rule="evenodd" clip-rule="evenodd" fill="none" stroke="#383635" stroke-width="0.3" stroke-linecap="round" stroke-linejoin="round" stroke-miterlimit="3" d="
	M19.825,28.889l5.2,4.851c0.267,0.2,0.517,0.25,0.75,0.149c3.7-1.766,6.35-4.316,7.95-7.649c0.033-0.034,0.083-0.116,0.149-0.25
	c0.101-0.366,0.084-0.65-0.05-0.851l-4.85-5.25" style="stroke: rgb(0, 0, 0);"></path>
<path fill-rule="evenodd" clip-rule="evenodd" fill="none" stroke="#383635" stroke-width="0.3" stroke-linecap="round" stroke-linejoin="round" stroke-miterlimit="3" d="
	M28.476,21.639c0.767,0.734,1.583,1.467,2.449,2.2c0.233,0.167,0.483,0.351,0.75,0.55c0.634,0.167,0.95,0.584,0.95,1.25l-0.05,0.051
	c-1.434,2.899-3.684,5.184-6.75,6.85l-0.05,0.05l-0.05-0.05c-0.601,0.267-1.084,0.017-1.45-0.75c-0.2-0.267-0.4-0.5-0.601-0.7
	c-0.767-0.899-1.55-1.767-2.35-2.6" style="stroke: rgb(0, 0, 0);"></path>
<path fill-rule="evenodd" clip-rule="evenodd" fill="none" stroke="#383635" stroke-width="0.3" stroke-linecap="round" stroke-linejoin="round" stroke-miterlimit="3" d="
	M25.825,1.539c1.066,2.467,2.384,4.217,3.95,5.25c1.5,1,2.416,1.533,2.75,1.6" style="stroke: rgb(0, 0, 0);"></path>
<path fill-rule="evenodd" clip-rule="evenodd" fill="none" stroke="#383635" stroke-width="0.3" stroke-linecap="round" stroke-linejoin="round" stroke-miterlimit="3" d="
	M30.925,10.239c-1.333-3.4-3.75-5.817-7.25-7.25" style="stroke: rgb(0, 0, 0);"></path>
<path fill-rule="evenodd" clip-rule="evenodd" fill="none" stroke="#383635" stroke-width="0.3" stroke-linecap="round" stroke-linejoin="round" stroke-miterlimit="3" d="
	M5.675,12.839c-0.866-0.833-1.767-1.65-2.699-2.45c-0.2-0.2-0.434-0.4-0.7-0.6c-0.767-0.367-1.017-0.85-0.75-1.45l-0.05-0.05
	l0.05-0.05c1.666-3.067,3.95-5.3,6.85-6.7v-0.05l0.05-0.05c0.667,0,1.084,0.317,1.25,0.95c0.2,0.267,0.384,0.517,0.551,0.75
	c0.767,0.9,1.55,1.767,2.35,2.6" style="stroke: rgb(0, 0, 0);"></path>
<path fill-rule="evenodd" clip-rule="evenodd" fill="none" stroke="#383635" stroke-width="0.3" stroke-linecap="round" stroke-linejoin="round" stroke-miterlimit="3" d="
	M14.226,5.189l-5.301-4.95c-0.199-0.133-0.483-0.15-0.85-0.05c-0.134,0.067-0.217,0.117-0.25,0.15c-3.333,1.6-5.884,4.25-7.65,7.95
	c-0.1,0.233-0.05,0.483,0.15,0.75l4.95,5.25" style="stroke: rgb(0, 0, 0);"></path>
<path fill-rule="evenodd" clip-rule="evenodd" fill="none" stroke="#383635" stroke-width="0.3" stroke-linecap="round" stroke-linejoin="round" stroke-miterlimit="3" d="
	M8.375,1.539c-0.066,0.333-0.6,1.25-1.6,2.75c-1.033,1.567-2.783,2.883-5.25,3.95" style="stroke: rgb(0, 0, 0);"></path>
<path fill-rule="evenodd" clip-rule="evenodd" fill="none" stroke="#383635" stroke-width="0.3" stroke-linecap="round" stroke-linejoin="round" stroke-miterlimit="3" d="
	M2.976,10.389c1.433-3.5,3.85-5.917,7.25-7.25" style="stroke: rgb(0, 0, 0);"></path>
<path fill-rule="evenodd" clip-rule="evenodd" fill="none" stroke="#383635" stroke-width="0.3" stroke-linecap="round" stroke-linejoin="round" stroke-miterlimit="3" d="
	M8.325,32.539l0.05-0.05c0.601,0.267,1.084,0.017,1.45-0.75c0.2-0.267,0.4-0.5,0.6-0.7c-3.5-1.434-5.916-3.85-7.25-7.25
	c-0.233,0.166-0.483,0.35-0.75,0.55c-0.633,0.167-0.949,0.583-0.949,1.25l0.05,0.05h0.05c0.3,0.066,1.217,0.601,2.75,1.601
	c1.566,1.033,2.884,2.783,3.95,5.25L8.325,32.539z" style="stroke: rgb(0, 0, 0);"></path>
<path fill-rule="evenodd" clip-rule="evenodd" fill="none" stroke="#383635" stroke-width="0.3" stroke-linecap="round" stroke-linejoin="round" stroke-miterlimit="3" d="
	M10.425,31.039c0.767-0.9,1.567-1.783,2.4-2.65" style="stroke: rgb(0, 0, 0);"></path>
<path fill-rule="evenodd" clip-rule="evenodd" fill="none" stroke="#383635" stroke-width="0.3" stroke-linecap="round" stroke-linejoin="round" stroke-miterlimit="3" d="
	M5.275,19.739l-5,5.35c-0.134,0.2-0.15,0.483-0.05,0.851c0.066,0.133,0.116,0.217,0.149,0.25c1.601,3.333,4.25,5.883,7.95,7.649
	c0.233,0.101,0.483,0.05,0.75-0.149l5.2-4.851" style="stroke: rgb(0, 0, 0);"></path>
<path fill-rule="evenodd" clip-rule="evenodd" fill="none" stroke="#383635" stroke-width="0.3" stroke-linecap="round" stroke-linejoin="round" stroke-miterlimit="3" d="
	M8.275,32.489c-3.066-1.667-5.3-3.95-6.7-6.851" style="stroke: rgb(0, 0, 0);"></path>
<path fill-rule="evenodd" clip-rule="evenodd" fill="none" stroke="#383635" stroke-width="0.3" stroke-linecap="round" stroke-linejoin="round" stroke-miterlimit="3" d="
	M25.825,32.539c1.066-2.467,2.384-4.217,3.95-5.25c1.533-1,2.467-1.533,2.8-1.6" style="stroke: rgb(0, 0, 0);"></path>
<path fill-rule="evenodd" clip-rule="evenodd" fill="none" stroke="#383635" stroke-width="0.3" stroke-linecap="round" stroke-linejoin="round" stroke-miterlimit="3" d="
	M30.925,23.839c-1.333,3.4-3.75,5.817-7.25,7.25" style="stroke: rgb(0, 0, 0);"></path>
<path fill-rule="evenodd" clip-rule="evenodd" fill="none" stroke="#383635" stroke-width="0.3" stroke-linecap="round" stroke-linejoin="round" stroke-miterlimit="3" d="
	M5.825,21.439c-0.833,0.8-1.717,1.583-2.65,2.35" style="stroke: rgb(0, 0, 0);"></path>
</svg>