<svg version="1.1" id="Layer_1" xmlns="http://www.w3.org/2000/svg" xmlns:xlink="http://www.w3.org/1999/xlink" x="0px" y="0px" width="43px" height="63.458px" viewBox="0 0 43 63.458" enable-background="new 0 0 43 63.458" xml:space="preserve" class="ng-scope">
<path fill-rule="evenodd" clip-rule="evenodd" fill="#FFFFFF" d="M41.274,51.083v0.101h-1.25h-1.3h-1.25h-1.3h-1.3h-1.25h-1.301
	h-1.25h-1.3h-1.3h-1.25h-1.25h-1.25h-1.35h-1.351h-1.25h-1.3h-1.25h-1.25h-1.35h-1.25h-1.2h-1.351h-1.25h-1.3h-1.3h-1.2h-1.3h-1.35
	h-1.25h-1.25v-0.101h-1.5v-0.05v-5.35v-31.65c0.1-0.8,0.233-1.566,0.399-2.3c1.601-7.934,5.967-11.8,13.101-11.601
	c1.267,0.101,2.433,0.367,3.5,0.801c1.166,0.466,2.149,1.066,2.949,1.8c1.167,0.934,2.2,1.95,3.101,3.05
	c0.399,0.533,0.783,1.083,1.149,1.65c0.233,0.399,0.467,0.816,0.7,1.25c0.434,0.8,0.8,1.616,1.101,2.449
	c0.267,0.934,0.55,1.917,0.85,2.95c0.066,0.3,0.15,0.617,0.25,0.95c0.167,0.434,0.35,0.866,0.55,1.3
	c0.134,0.3,0.283,0.617,0.45,0.95c0.233,0.5,0.483,1,0.75,1.5c0.667,1.3,1.667,2.366,3,3.2c0.967,0.633,2,1.217,3.1,1.75
	c1,0.6,1.983,1.283,2.95,2.05c0.733,0.533,1.5,1.3,2.3,2.3c0.5,0.634,0.917,1.267,1.25,1.9c0.2,0.366,0.367,0.733,0.5,1.1
	c0.233,0.566,0.417,1.217,0.551,1.95c0.1,0.467,0.183,0.967,0.25,1.5v16.55H41.274v-0.05V51.083z"></path>
<polygon fill-rule="evenodd" clip-rule="evenodd" fill="#FFFFFF" points="41.274,45.683 41.274,51.033 42.824,51.033 42.824,45.683 
	41.274,45.683 40.024,45.683 41.274,45.683 42.824,45.683 42.824,51.033 41.274,51.033 "></polygon>
<polygon fill-rule="evenodd" clip-rule="evenodd" fill="#FFFFFF" points="40.024,45.683 39.324,45.683 40.024,45.683 40.024,51.183 
	"></polygon>
<polygon fill-rule="evenodd" clip-rule="evenodd" fill="#FFFFFF" points="34.125,45.683 33.125,45.683 34.125,45.683 34.875,45.683 
	34.875,51.183 34.875,45.683 "></polygon>
<polygon fill-rule="evenodd" clip-rule="evenodd" fill="#FFFFFF" points="38.324,45.683 37.475,45.683 38.324,45.683 38.324,49.733 
	38.725,49.733 39.324,49.733 39.324,45.683 38.324,45.683 39.324,45.683 39.324,49.733 38.725,49.733 38.324,49.733 "></polygon>
<polygon fill-rule="evenodd" clip-rule="evenodd" fill="#FFFFFF" points="25.225,45.683 25.225,45.632 24.225,45.632 24.225,45.683 
	24.225,45.632 25.225,45.632 25.225,45.683 25.975,45.683 26.824,45.683 27.824,45.683 28.475,45.683 29.375,45.683 30.375,45.683 
	31.074,45.683 32.324,45.683 33.125,45.683 33.125,49.733 33.625,49.733 34.125,49.733 34.125,45.683 34.125,49.733 33.625,49.733 
	33.125,49.733 33.125,45.683 32.324,45.683 31.074,45.683 30.375,45.683 29.375,45.683 28.475,45.683 27.824,45.683 26.824,45.683 
	25.975,45.683 25.225,45.683 24.225,45.683 25.225,45.683 25.225,49.683 24.725,49.683 24.225,49.683 24.225,45.683 23.375,45.683 
	24.225,45.683 24.225,49.683 24.725,49.683 25.225,49.683 "></polygon>
<polygon fill-rule="evenodd" clip-rule="evenodd" fill="#FFFFFF" points="35.725,45.683 34.875,45.683 35.725,45.683 35.725,49.733 
	36.175,49.733 36.725,49.733 36.725,45.683 35.725,45.683 36.725,45.683 36.725,49.733 36.175,49.733 35.725,49.733 "></polygon>
<polygon fill-rule="evenodd" clip-rule="evenodd" fill="#FFFFFF" points="37.475,45.683 36.725,45.683 37.475,45.683 37.475,51.183 
	"></polygon>
<path fill-rule="evenodd" clip-rule="evenodd" fill="#FFFFFF" d="M36.175,49.733v1.45V49.733z"></path>
<path fill-rule="evenodd" clip-rule="evenodd" fill="#FFFFFF" d="M33.625,49.733v1.45V49.733z"></path>
<path fill-rule="evenodd" clip-rule="evenodd" fill="#FFFFFF" d="M38.725,49.733v1.45V49.733z"></path>
<polygon fill-rule="evenodd" clip-rule="evenodd" fill="#FFFFFF" points="1.625,45.683 0.125,45.683 1.625,45.683 1.625,51.033 
	1.625,45.683 2.375,45.683 "></polygon>
<path fill-rule="evenodd" clip-rule="evenodd" fill="#FFFFFF" d="M0.125,51.033h1.5H0.125z"></path>
<path fill-rule="evenodd" clip-rule="evenodd" fill="#FFFFFF" d="M1.625,51.033v0.05V51.033z"></path>
<polygon fill-rule="evenodd" clip-rule="evenodd" fill="#FFFFFF" points="8.875,45.683 7.975,45.683 8.875,45.683 8.875,49.733 
	9.274,49.733 9.875,49.733 9.875,45.683 8.875,45.683 9.875,45.683 9.875,49.733 9.274,49.733 8.875,49.733 "></polygon>
<polygon fill-rule="evenodd" clip-rule="evenodd" fill="#FFFFFF" points="7.975,45.683 6.774,45.683 4.125,45.683 3.375,45.683 
	3.375,49.733 2.875,49.733 2.375,49.733 2.375,45.683 3.375,45.683 2.375,45.683 2.375,49.733 2.875,49.733 3.375,49.733 
	3.375,45.683 4.125,45.683 6.774,45.683 7.975,45.683 7.975,51.183 "></polygon>
<polygon fill-rule="evenodd" clip-rule="evenodd" fill="#FFFFFF" points="9.875,45.683 10.574,45.683 10.574,51.183 10.574,45.683 
	11.475,45.683 10.574,45.683 "></polygon>
<polygon fill-rule="evenodd" clip-rule="evenodd" fill="#FFFFFF" points="4.925,45.733 4.925,49.783 5.475,49.783 5.925,49.783 
	5.925,45.733 4.925,45.733 5.925,45.733 5.925,49.783 5.475,49.783 4.925,49.783 "></polygon>
<path fill-rule="evenodd" clip-rule="evenodd" fill="#FFFFFF" d="M4.125,45.683v5.5V45.683z"></path>
<path fill-rule="evenodd" clip-rule="evenodd" fill="#FFFFFF" d="M2.875,49.733v1.45V49.733z"></path>
<path fill-rule="evenodd" clip-rule="evenodd" fill="#FFFFFF" d="M5.475,51.183v-1.4V51.183z"></path>
<polygon fill-rule="evenodd" clip-rule="evenodd" fill="#FFFFFF" points="11.475,45.683 11.475,49.733 11.824,49.733 12.475,49.733 
	12.475,45.683 12.475,49.733 11.824,49.733 11.475,49.733 "></polygon>
<polygon fill-rule="evenodd" clip-rule="evenodd" fill="#FFFFFF" points="12.475,45.683 11.475,45.683 12.475,45.683 13.175,45.683 
	13.175,51.183 13.175,45.683 "></polygon>
<path fill-rule="evenodd" clip-rule="evenodd" fill="#FFFFFF" d="M11.824,49.733v1.45V49.733z"></path>
<path fill-rule="evenodd" clip-rule="evenodd" fill="#FFFFFF" d="M9.274,49.733v1.45V49.733z"></path>
<path fill-rule="evenodd" clip-rule="evenodd" fill="#FFFFFF" d="M6.774,45.683v5.5V45.683z"></path>
<path fill-rule="evenodd" clip-rule="evenodd" fill="#FFFFFF" d="M18.824,45.683h-1H18.824z"></path>
<polygon fill-rule="evenodd" clip-rule="evenodd" fill="#FFFFFF" points="17.824,45.683 16.975,45.683 15.625,45.683 16.975,45.683 
	17.824,45.683 17.824,49.733 18.225,49.733 18.824,49.733 18.824,45.683 18.824,49.733 18.225,49.733 17.824,49.733 "></polygon>
<polygon fill-rule="evenodd" clip-rule="evenodd" fill="#FFFFFF" points="20.324,45.683 19.475,45.683 18.824,45.683 19.475,45.683 
	20.324,45.683 20.324,45.632 21.324,45.632 21.324,45.683 21.324,45.632 20.324,45.632 20.324,45.683 21.324,45.683 20.324,45.683 
	20.324,49.683 20.774,49.683 20.324,49.683 "></polygon>
<polygon fill-rule="evenodd" clip-rule="evenodd" fill="#FFFFFF" points="22.024,45.683 21.324,45.683 22.024,45.683 22.024,51.183 
	22.024,45.683 23.375,45.683 23.375,51.183 23.375,45.683 "></polygon>
<polygon fill-rule="evenodd" clip-rule="evenodd" fill="#FFFFFF" points="21.324,45.683 21.324,49.683 20.774,49.683 20.774,51.183 
	20.774,49.683 21.324,49.683 "></polygon>
<path fill-rule="evenodd" clip-rule="evenodd" fill="#FFFFFF" d="M19.475,45.683v5.5V45.683z"></path>
<polygon fill-rule="evenodd" clip-rule="evenodd" fill="#FFFFFF" points="13.925,45.683 13.925,49.733 14.375,49.733 14.925,49.733 
	14.925,45.683 13.925,45.683 14.925,45.683 14.925,49.733 14.375,49.733 13.925,49.733 13.925,45.683 13.175,45.683 "></polygon>
<polygon fill-rule="evenodd" clip-rule="evenodd" fill="#FFFFFF" points="15.625,45.683 14.925,45.683 15.625,45.683 15.625,51.183 
	"></polygon>
<path fill-rule="evenodd" clip-rule="evenodd" fill="#FFFFFF" d="M14.375,49.733v1.45V49.733z"></path>
<path fill-rule="evenodd" clip-rule="evenodd" fill="#FFFFFF" d="M18.225,49.733v1.45V49.733z"></path>
<path fill-rule="evenodd" clip-rule="evenodd" fill="#FFFFFF" d="M16.975,45.683v5.5V45.683z"></path>
<path fill-rule="evenodd" clip-rule="evenodd" fill="#FFFFFF" d="M9.125,62.533c0.1,0.033,0.233,0.05,0.399,0.05h24.601
	c0.733,0,1.1-0.366,1.1-1.1v-5.95c0-0.733-0.366-1.1-1.1-1.1H9.524c-0.733,0-1.1,0.366-1.1,1.1v5.95
	C8.425,62.049,8.658,62.399,9.125,62.533c-0.467-0.134-0.7-0.483-0.7-1.05v-5.95c0-0.733,0.366-1.1,1.1-1.1h24.601
	c0.733,0,1.1,0.366,1.1,1.1v5.95c0,0.733-0.366,1.1-1.1,1.1H9.524C9.358,62.583,9.225,62.566,9.125,62.533z"></path>
<polygon fill-rule="evenodd" clip-rule="evenodd" fill="#FFFFFF" points="26.824,45.683 26.824,49.733 27.225,49.733 27.824,49.733 
	27.824,45.683 27.824,49.733 27.225,49.733 26.824,49.733 "></polygon>
<path fill-rule="evenodd" clip-rule="evenodd" fill="#FFFFFF" d="M27.225,49.733v1.45V49.733z"></path>
<path fill-rule="evenodd" clip-rule="evenodd" fill="#FFFFFF" d="M24.725,49.683v1.5V49.683z"></path>
<polygon fill-rule="evenodd" clip-rule="evenodd" fill="#FFFFFF" points="30.375,45.683 30.375,49.733 29.774,49.733 29.774,51.183 
	29.774,49.733 30.375,49.733 "></polygon>
<polygon fill-rule="evenodd" clip-rule="evenodd" fill="#FFFFFF" points="29.375,45.683 29.375,49.733 29.774,49.733 29.375,49.733 
	"></polygon>
<path fill-rule="evenodd" clip-rule="evenodd" fill="#FFFFFF" d="M32.324,45.683v5.5V45.683z"></path>
<path fill-rule="evenodd" clip-rule="evenodd" fill="#FFFFFF" d="M31.074,45.683v5.5V45.683z"></path>
<path fill-rule="evenodd" clip-rule="evenodd" fill="#FFFFFF" d="M25.975,51.183v-5.5V51.183z"></path>
<path fill-rule="evenodd" clip-rule="evenodd" fill="#FFFFFF" d="M28.475,51.183v-5.5V51.183z"></path>
<rect x="7.725" y="53.683" fill-rule="evenodd" clip-rule="evenodd" fill="#FFFFFF" width="28.2" height="9.649"></rect>
<path fill-rule="evenodd" clip-rule="evenodd" fill="none" stroke="#383635" stroke-width="0.3" d="M1.625,51.083h-1.5v-0.05v-5.35
	v-31.65c0.1-0.8,0.233-1.566,0.399-2.3c1.601-7.934,5.967-11.8,13.101-11.601c1.267,0.101,2.433,0.367,3.5,0.801
	c1.166,0.466,2.149,1.066,2.949,1.8c1.167,0.934,2.2,1.95,3.101,3.05c0.399,0.533,0.783,1.083,1.149,1.65
	c0.233,0.399,0.467,0.816,0.7,1.25c0.434,0.8,0.8,1.616,1.101,2.449c0.267,0.934,0.55,1.917,0.85,2.95
	c0.066,0.3,0.15,0.617,0.25,0.95c0.167,0.434,0.35,0.866,0.55,1.3c0.134,0.3,0.283,0.617,0.45,0.95c0.233,0.5,0.483,1,0.75,1.5
	c0.667,1.3,1.667,2.366,3,3.2c0.967,0.633,2,1.217,3.1,1.75c1,0.6,1.983,1.283,2.95,2.05c0.733,0.533,1.5,1.3,2.3,2.3
	c0.5,0.634,0.917,1.267,1.25,1.9c0.2,0.366,0.367,0.733,0.5,1.1c0.233,0.566,0.417,1.217,0.551,1.95c0.1,0.467,0.183,0.967,0.25,1.5
	v16.55h-1.601" style="stroke: rgb(0, 0, 0);"></path>
<polyline fill-rule="evenodd" clip-rule="evenodd" fill="none" stroke="#383635" stroke-width="0.3" points="41.274,45.683 
	40.024,45.683 39.324,45.683 38.324,45.683 37.475,45.683 36.725,45.683 35.725,45.683 34.875,45.683 34.125,45.683 33.125,45.683 
	" style="stroke: rgb(0, 0, 0);"></polyline>
<polyline fill-rule="evenodd" clip-rule="evenodd" fill="none" stroke="#383635" stroke-width="0.3" points="41.274,51.033 
	42.824,51.033 42.824,45.683 41.274,45.683 " style="stroke: rgb(0, 0, 0);"></polyline>
<line fill-rule="evenodd" clip-rule="evenodd" fill="none" stroke="#383635" stroke-width="0.3" x1="1.625" y1="45.683" x2="0.125" y2="45.683" style="stroke: rgb(0, 0, 0);"></line>
<line fill-rule="evenodd" clip-rule="evenodd" fill="none" stroke="#383635" stroke-width="0.3" x1="0.125" y1="51.033" x2="1.625" y2="51.033" style="stroke: rgb(0, 0, 0);"></line>
<polyline fill-rule="evenodd" clip-rule="evenodd" fill="none" stroke="#383635" stroke-width="0.3" points="9.875,45.683 
	8.875,45.683 7.975,45.683 6.774,45.683 4.125,45.683 3.375,45.683 2.375,45.683 1.625,45.683 " style="stroke: rgb(0, 0, 0);"></polyline>
<polyline fill-rule="evenodd" clip-rule="evenodd" fill="none" stroke="#383635" stroke-width="0.3" points="11.475,45.683 
	10.574,45.683 9.875,45.683 " style="stroke: rgb(0, 0, 0);"></polyline>
<line fill-rule="evenodd" clip-rule="evenodd" fill="none" stroke="#383635" stroke-width="0.3" x1="12.475" y1="45.683" x2="11.475" y2="45.683" style="stroke: rgb(0, 0, 0);"></line>
<polyline fill-rule="evenodd" clip-rule="evenodd" fill="none" stroke="#383635" stroke-width="0.3" points="18.824,45.683 
	17.824,45.683 16.975,45.683 15.625,45.683 14.925,45.683 13.925,45.683 13.175,45.683 12.475,45.683 " style="stroke: rgb(0, 0, 0);"></polyline>
<line fill-rule="evenodd" clip-rule="evenodd" fill="none" stroke="#383635" stroke-width="0.3" x1="19.475" y1="45.683" x2="18.824" y2="45.683" style="stroke: rgb(0, 0, 0);"></line>
<line fill-rule="evenodd" clip-rule="evenodd" fill="none" stroke="#383635" stroke-width="0.3" x1="20.324" y1="45.683" x2="21.324" y2="45.683" style="stroke: rgb(0, 0, 0);"></line>
<line fill-rule="evenodd" clip-rule="evenodd" fill="none" stroke="#383635" stroke-width="0.3" x1="22.024" y1="45.683" x2="21.324" y2="45.683" style="stroke: rgb(0, 0, 0);"></line>
<line fill-rule="evenodd" clip-rule="evenodd" fill="none" stroke="#383635" stroke-width="0.3" x1="20.324" y1="45.683" x2="19.475" y2="45.683" style="stroke: rgb(0, 0, 0);"></line>
<polyline fill-rule="evenodd" clip-rule="evenodd" fill="none" stroke="#383635" stroke-width="0.3" points="25.225,45.683 
	25.975,45.683 26.824,45.683 27.824,45.683 28.475,45.683 29.375,45.683 30.375,45.683 31.074,45.683 32.324,45.683 33.125,45.683 
	" style="stroke: rgb(0, 0, 0);"></polyline>
<line fill-rule="evenodd" clip-rule="evenodd" fill="none" stroke="#383635" stroke-width="0.3" x1="24.225" y1="45.683" x2="25.225" y2="45.683" style="stroke: rgb(0, 0, 0);"></line>
<polyline fill-rule="evenodd" clip-rule="evenodd" fill="none" stroke="#383635" stroke-width="0.3" points="24.225,45.683 
	23.375,45.683 22.024,45.683 " style="stroke: rgb(0, 0, 0);"></polyline>
<path fill-rule="evenodd" clip-rule="evenodd" fill="none" stroke="#383635" stroke-width="0.3" d="M9.125,62.533
	c0.1,0.033,0.233,0.05,0.399,0.05h24.601c0.733,0,1.1-0.366,1.1-1.1v-5.95c0-0.733-0.366-1.1-1.1-1.1H9.524
	c-0.733,0-1.1,0.366-1.1,1.1v5.95C8.425,62.049,8.658,62.399,9.125,62.533z" style="stroke: rgb(0, 0, 0);"></path>
<rect x="7.725" y="53.683" fill-rule="evenodd" clip-rule="evenodd" fill="none" stroke="#383635" stroke-width="0.3" width="28.2" height="9.649" style="stroke: rgb(0, 0, 0);"></rect>
<polyline fill-rule="evenodd" clip-rule="evenodd" fill="none" stroke="#383635" stroke-width="0.1" points="41.274,51.083 
	41.274,51.183 40.024,51.183 38.725,51.183 37.475,51.183 36.175,51.183 34.875,51.183 33.625,51.183 32.324,51.183 31.074,51.183 
	29.774,51.183 28.475,51.183 27.225,51.183 25.975,51.183 24.725,51.183 23.375,51.183 22.024,51.183 20.774,51.183 19.475,51.183 
	18.225,51.183 16.975,51.183 15.625,51.183 14.375,51.183 13.175,51.183 11.824,51.183 10.574,51.183 9.274,51.183 7.975,51.183 
	6.774,51.183 5.475,51.183 4.125,51.183 2.875,51.183 1.625,51.183 1.625,51.083 " style="stroke: rgb(0, 0, 0);"></polyline>
<line fill-rule="evenodd" clip-rule="evenodd" fill="none" stroke="#383635" stroke-width="0.1" x1="40.024" y1="45.683" x2="40.024" y2="51.183" style="stroke: rgb(0, 0, 0);"></line>
<polyline fill-rule="evenodd" clip-rule="evenodd" fill="none" stroke="#383635" stroke-width="0.1" points="41.274,45.683 
	41.274,51.033 41.274,51.083 " style="stroke: rgb(0, 0, 0);"></polyline>
<polyline fill-rule="evenodd" clip-rule="evenodd" fill="none" stroke="#383635" stroke-width="0.1" points="38.324,45.683 
	38.324,49.733 38.725,49.733 39.324,49.733 39.324,45.683 " style="stroke: rgb(0, 0, 0);"></polyline>
<polyline fill-rule="evenodd" clip-rule="evenodd" fill="none" stroke="#383635" stroke-width="0.1" points="33.125,45.683 
	33.125,49.733 33.625,49.733 34.125,49.733 34.125,45.683 " style="stroke: rgb(0, 0, 0);"></polyline>
<polyline fill-rule="evenodd" clip-rule="evenodd" fill="none" stroke="#383635" stroke-width="0.1" points="35.725,45.683 
	35.725,49.733 36.175,49.733 36.725,49.733 36.725,45.683 " style="stroke: rgb(0, 0, 0);"></polyline>
<line fill-rule="evenodd" clip-rule="evenodd" fill="none" stroke="#383635" stroke-width="0.1" x1="34.875" y1="45.683" x2="34.875" y2="51.183" style="stroke: rgb(0, 0, 0);"></line>
<line fill-rule="evenodd" clip-rule="evenodd" fill="none" stroke="#383635" stroke-width="0.1" x1="36.175" y1="49.733" x2="36.175" y2="51.183" style="stroke: rgb(0, 0, 0);"></line>
<line fill-rule="evenodd" clip-rule="evenodd" fill="none" stroke="#383635" stroke-width="0.1" x1="33.625" y1="49.733" x2="33.625" y2="51.183" style="stroke: rgb(0, 0, 0);"></line>
<line fill-rule="evenodd" clip-rule="evenodd" fill="none" stroke="#383635" stroke-width="0.1" x1="38.725" y1="49.733" x2="38.725" y2="51.183" style="stroke: rgb(0, 0, 0);"></line>
<line fill-rule="evenodd" clip-rule="evenodd" fill="none" stroke="#383635" stroke-width="0.1" x1="37.475" y1="45.683" x2="37.475" y2="51.183" style="stroke: rgb(0, 0, 0);"></line>
<line fill-rule="evenodd" clip-rule="evenodd" fill="none" stroke="#383635" stroke-width="0.1" x1="1.625" y1="51.033" x2="1.625" y2="45.683" style="stroke: rgb(0, 0, 0);"></line>
<line fill-rule="evenodd" clip-rule="evenodd" fill="none" stroke="#383635" stroke-width="0.1" x1="1.625" y1="51.033" x2="1.625" y2="51.083" style="stroke: rgb(0, 0, 0);"></line>
<polyline fill-rule="evenodd" clip-rule="evenodd" fill="none" stroke="#383635" stroke-width="0.1" points="8.875,45.683 
	8.875,49.733 9.274,49.733 9.875,49.733 9.875,45.683 " style="stroke: rgb(0, 0, 0);"></polyline>
<line fill-rule="evenodd" clip-rule="evenodd" fill="none" stroke="#383635" stroke-width="0.1" x1="7.975" y1="45.683" x2="7.975" y2="51.183" style="stroke: rgb(0, 0, 0);"></line>
<line fill-rule="evenodd" clip-rule="evenodd" fill="none" stroke="#383635" stroke-width="0.1" x1="10.574" y1="45.683" x2="10.574" y2="51.183" style="stroke: rgb(0, 0, 0);"></line>
<polyline fill-rule="evenodd" clip-rule="evenodd" fill="none" stroke="#383635" stroke-width="0.1" points="2.375,45.683 
	2.375,49.733 2.875,49.733 3.375,49.733 3.375,45.683 " style="stroke: rgb(0, 0, 0);"></polyline>
<polygon fill-rule="evenodd" clip-rule="evenodd" fill="none" stroke="#383635" stroke-width="0.1" points="4.925,45.733 
	4.925,49.783 5.475,49.783 5.925,49.783 5.925,45.733 " style="stroke: rgb(0, 0, 0);"></polygon>
<line fill-rule="evenodd" clip-rule="evenodd" fill="none" stroke="#383635" stroke-width="0.1" x1="4.125" y1="45.683" x2="4.125" y2="51.183" style="stroke: rgb(0, 0, 0);"></line>
<line fill-rule="evenodd" clip-rule="evenodd" fill="none" stroke="#383635" stroke-width="0.1" x1="2.875" y1="49.733" x2="2.875" y2="51.183" style="stroke: rgb(0, 0, 0);"></line>
<line fill-rule="evenodd" clip-rule="evenodd" fill="none" stroke="#383635" stroke-width="0.1" x1="5.475" y1="51.183" x2="5.475" y2="49.783" style="stroke: rgb(0, 0, 0);"></line>
<polyline fill-rule="evenodd" clip-rule="evenodd" fill="none" stroke="#383635" stroke-width="0.1" points="11.475,45.683 
	11.475,49.733 11.824,49.733 12.475,49.733 12.475,45.683 " style="stroke: rgb(0, 0, 0);"></polyline>
<line fill-rule="evenodd" clip-rule="evenodd" fill="none" stroke="#383635" stroke-width="0.1" x1="11.824" y1="49.733" x2="11.824" y2="51.183" style="stroke: rgb(0, 0, 0);"></line>
<line fill-rule="evenodd" clip-rule="evenodd" fill="none" stroke="#383635" stroke-width="0.1" x1="9.274" y1="49.733" x2="9.274" y2="51.183" style="stroke: rgb(0, 0, 0);"></line>
<line fill-rule="evenodd" clip-rule="evenodd" fill="none" stroke="#383635" stroke-width="0.1" x1="6.774" y1="45.683" x2="6.774" y2="51.183" style="stroke: rgb(0, 0, 0);"></line>
<polyline fill-rule="evenodd" clip-rule="evenodd" fill="none" stroke="#383635" stroke-width="0.1" points="17.824,45.683 
	17.824,49.733 18.225,49.733 18.824,49.733 18.824,45.683 " style="stroke: rgb(0, 0, 0);"></polyline>
<polyline fill-rule="evenodd" clip-rule="evenodd" fill="none" stroke="#383635" stroke-width="0.1" points="21.324,45.683 
	21.324,45.632 20.324,45.632 20.324,45.683 20.324,49.683 20.774,49.683 " style="stroke: rgb(0, 0, 0);"></polyline>
<polyline fill-rule="evenodd" clip-rule="evenodd" fill="none" stroke="#383635" stroke-width="0.1" points="21.324,45.683 
	21.324,49.683 20.774,49.683 20.774,51.183 " style="stroke: rgb(0, 0, 0);"></polyline>
<line fill-rule="evenodd" clip-rule="evenodd" fill="none" stroke="#383635" stroke-width="0.1" x1="19.475" y1="45.683" x2="19.475" y2="51.183" style="stroke: rgb(0, 0, 0);"></line>
<polyline fill-rule="evenodd" clip-rule="evenodd" fill="none" stroke="#383635" stroke-width="0.1" points="13.925,45.683 
	13.925,49.733 14.375,49.733 14.925,49.733 14.925,45.683 " style="stroke: rgb(0, 0, 0);"></polyline>
<line fill-rule="evenodd" clip-rule="evenodd" fill="none" stroke="#383635" stroke-width="0.1" x1="13.175" y1="45.683" x2="13.175" y2="51.183" style="stroke: rgb(0, 0, 0);"></line>
<line fill-rule="evenodd" clip-rule="evenodd" fill="none" stroke="#383635" stroke-width="0.1" x1="15.625" y1="45.683" x2="15.625" y2="51.183" style="stroke: rgb(0, 0, 0);"></line>
<line fill-rule="evenodd" clip-rule="evenodd" fill="none" stroke="#383635" stroke-width="0.1" x1="14.375" y1="49.733" x2="14.375" y2="51.183" style="stroke: rgb(0, 0, 0);"></line>
<line fill-rule="evenodd" clip-rule="evenodd" fill="none" stroke="#383635" stroke-width="0.1" x1="18.225" y1="49.733" x2="18.225" y2="51.183" style="stroke: rgb(0, 0, 0);"></line>
<line fill-rule="evenodd" clip-rule="evenodd" fill="none" stroke="#383635" stroke-width="0.1" x1="16.975" y1="45.683" x2="16.975" y2="51.183" style="stroke: rgb(0, 0, 0);"></line>
<line fill-rule="evenodd" clip-rule="evenodd" fill="none" stroke="#383635" stroke-width="0.1" x1="22.024" y1="45.683" x2="22.024" y2="51.183" style="stroke: rgb(0, 0, 0);"></line>
<polygon fill-rule="evenodd" clip-rule="evenodd" fill="none" stroke="#383635" stroke-width="0.1" points="25.225,45.683 
	25.225,45.632 24.225,45.632 24.225,45.683 24.225,49.683 24.725,49.683 25.225,49.683 " style="stroke: rgb(0, 0, 0);"></polygon>
<line fill-rule="evenodd" clip-rule="evenodd" fill="none" stroke="#383635" stroke-width="0.1" x1="23.375" y1="45.683" x2="23.375" y2="51.183" style="stroke: rgb(0, 0, 0);"></line>
<polyline fill-rule="evenodd" clip-rule="evenodd" fill="none" stroke="#383635" stroke-width="0.1" points="26.824,45.683 
	26.824,49.733 27.225,49.733 27.824,49.733 27.824,45.683 " style="stroke: rgb(0, 0, 0);"></polyline>
<line fill-rule="evenodd" clip-rule="evenodd" fill="none" stroke="#383635" stroke-width="0.1" x1="27.225" y1="49.733" x2="27.225" y2="51.183" style="stroke: rgb(0, 0, 0);"></line>
<line fill-rule="evenodd" clip-rule="evenodd" fill="none" stroke="#383635" stroke-width="0.1" x1="24.725" y1="49.683" x2="24.725" y2="51.183" style="stroke: rgb(0, 0, 0);"></line>
<polyline fill-rule="evenodd" clip-rule="evenodd" fill="none" stroke="#383635" stroke-width="0.1" points="30.375,45.683 
	30.375,49.733 29.774,49.733 29.774,51.183 " style="stroke: rgb(0, 0, 0);"></polyline>
<polyline fill-rule="evenodd" clip-rule="evenodd" fill="none" stroke="#383635" stroke-width="0.1" points="29.375,45.683 
	29.375,49.733 29.774,49.733 " style="stroke: rgb(0, 0, 0);"></polyline>
<line fill-rule="evenodd" clip-rule="evenodd" fill="none" stroke="#383635" stroke-width="0.1" x1="32.324" y1="45.683" x2="32.324" y2="51.183" style="stroke: rgb(0, 0, 0);"></line>
<line fill-rule="evenodd" clip-rule="evenodd" fill="none" stroke="#383635" stroke-width="0.1" x1="31.074" y1="45.683" x2="31.074" y2="51.183" style="stroke: rgb(0, 0, 0);"></line>
<line fill-rule="evenodd" clip-rule="evenodd" fill="none" stroke="#383635" stroke-width="0.1" x1="25.975" y1="51.183" x2="25.975" y2="45.683" style="stroke: rgb(0, 0, 0);"></line>
<line fill-rule="evenodd" clip-rule="evenodd" fill="none" stroke="#383635" stroke-width="0.1" x1="28.475" y1="51.183" x2="28.475" y2="45.683" style="stroke: rgb(0, 0, 0);"></line>
</svg>