<svg version="1.1" id="Layer_1" xmlns="http://www.w3.org/2000/svg" xmlns:xlink="http://www.w3.org/1999/xlink" x="0px" y="0px" width="28.83px" height="28.83px" viewBox="0 2.15 28.83 28.83" enable-background="new 0 2.15 28.83 28.83" xml:space="preserve">
	<rect fill="#FFFFFF" x="6.44" y="13.17" width="16.25" height="10.38"></rect>
	<path fill="#FFFFFF" stroke="#000000" stroke-miterlimit="10" d="M7.33,21.14l0.41-0.15H21.5l0.38,0.15l0.19,0.45
		l-0.19,0.38l-0.38,0.19H7.74l-0.41-0.19l-0.15-0.38L7.33,21.14 M7.18,18.18l0.15-0.41l0.41-0.15H21.5l0.38,0.15l0.19,0.41
		l-0.19,0.41l-0.38,0.19H7.74l-0.41-0.19L7.18,18.18z M7.33,14.39l0.41-0.15H21.5l0.38,0.15l0.19,0.41l-0.19,0.41l-0.38,0.15H7.74
		l-0.41-0.15L7.18,14.8L7.33,14.39z M23.61,11.17H5.64v14.29H23.6V11.17H23.61z"></path>
	<path fill="#FFFFFF" d="M7.33,21.14l0.41-0.15H21.5l0.38,0.15l0.19,0.45l-0.19,0.38l-0.38,0.19H7.74l-0.41-0.19
		l-0.15-0.38L7.33,21.14 M7.18,18.18l0.15-0.41l0.41-0.15H21.5l0.38,0.15l0.19,0.41l-0.19,0.41l-0.38,0.19H7.74l-0.41-0.19
		L7.18,18.18z M7.33,14.39l0.41-0.15H21.5l0.38,0.15l0.19,0.41l-0.19,0.41l-0.38,0.15H7.74l-0.41-0.15L7.18,14.8L7.33,14.39z
		 M23.61,11.17H5.64v14.29H23.6V11.17H23.61z"></path>
</svg>