<svg version="1.1" id="Layer_1" xmlns="http://www.w3.org/2000/svg" xmlns:xlink="http://www.w3.org/1999/xlink" x="0px" y="0px" width="9.149px" height="9.2px" viewBox="0 0 9.149 9.2" enable-background="new 0 0 9.149 9.2" xml:space="preserve" class="ng-scope">
<path fill-rule="evenodd" clip-rule="evenodd" fill="#FFFFFF" d="M4.6,8.1c-0.967,0-1.816-0.333-2.55-1c-0.667-0.733-1-1.566-1-2.5
	H4.6V1.05V4.6H1.05c0-1,0.333-1.833,1-2.5c0.733-0.7,1.583-1.05,2.55-1.05s1.783,0.35,2.45,1.05C7.75,2.767,8.1,3.6,8.1,4.6
	c0,0.934-0.35,1.767-1.05,2.5C6.383,7.767,5.566,8.1,4.6,8.1V4.6h3.5H4.6V8.1z"></path>
<line fill-rule="evenodd" clip-rule="evenodd" fill="none" stroke="#383635" stroke-width="0.3" x1="4.6" y1="1.05" x2="4.6" y2="0" style="stroke: rgb(0, 0, 0);"></line>
<path fill-rule="evenodd" clip-rule="evenodd" fill="none" stroke="#383635" stroke-width="0.3" d="M4.6,1.05
	c-0.967,0-1.816,0.35-2.55,1.05c-0.667,0.667-1,1.5-1,2.5H4.6V1.05c0.967,0,1.783,0.35,2.45,1.05C7.75,2.767,8.1,3.6,8.1,4.6h1.05" style="stroke: rgb(0, 0, 0);"></path>
<path fill-rule="evenodd" clip-rule="evenodd" fill="none" stroke="#383635" stroke-width="0.3" d="M4.6,8.1
	c0.967,0,1.783-0.333,2.45-1C7.75,6.366,8.1,5.533,8.1,4.6H4.6V8.1z" style="stroke: rgb(0, 0, 0);"></path>
<path fill-rule="evenodd" clip-rule="evenodd" fill="none" stroke="#383635" stroke-width="0.3" d="M4.6,9.2V8.1
	c-0.967,0-1.816-0.333-2.55-1c-0.667-0.733-1-1.566-1-2.5H0" style="stroke: rgb(0, 0, 0);"></path>
</svg>