<svg version="1.1" id="Layer_1" xmlns="http://www.w3.org/2000/svg" xmlns:xlink="http://www.w3.org/1999/xlink" x="0px" y="0px" width="20.649px" height="20.65px" viewBox="0 0 20.649 20.65" enable-background="new 0 0 20.649 20.65" xml:space="preserve" class="ng-scope">
<path fill-rule="evenodd" clip-rule="evenodd" fill="#FFFFFF" d="M20.524,9.875v0.95h-2.449c-0.101,1.967-0.867,3.65-2.301,5.05
	c-1.366,1.4-3.017,2.167-4.949,2.301v2.35h-0.95v-2.35c-1.967-0.101-3.667-0.867-5.101-2.301c-1.399-1.399-2.149-3.083-2.25-5.05
	H0.125v-0.95h2.45c0.1-1.933,0.833-3.6,2.199-5c1.434-1.399,3.134-2.149,5.101-2.25v-2.5h0.95v2.551
	c1.933,0.1,3.583,0.833,4.949,2.199c1.4,1.4,2.167,3.067,2.301,5H20.524z"></path>
<path fill-rule="evenodd" clip-rule="evenodd" fill="#FFFFFF" d="M17.274,9.875c0,0.167,0,0.334,0,0.5c0,0.167,0,0.317,0,0.45
	c-0.1,1.733-0.767,3.233-2,4.5c-1.267,1.233-2.75,1.917-4.449,2.05c-0.167,0-0.334,0-0.5,0c-0.167,0-0.317,0-0.45,0
	c-1.767-0.1-3.267-0.783-4.5-2.05c-1.3-1.267-1.983-2.767-2.05-4.5c-0.034-0.133-0.051-0.283-0.051-0.45
	c0-0.166,0.017-0.333,0.051-0.5c0.1-1.733,0.783-3.216,2.05-4.449c1.233-1.267,2.733-1.95,4.5-2.051c0.133,0,0.283,0,0.45,0
	c0.166,0,0.333,0.017,0.5,0.051c1.699,0.1,3.183,0.767,4.449,2C16.508,6.659,17.175,8.142,17.274,9.875h-5.8l2.45-2.449l-0.65-0.65
	l-2.449,2.45v-5.8v5.8l2.449-2.45l0.65,0.65l-2.45,2.449H17.274c-0.1-1.733-0.767-3.216-2-4.449c-1.267-1.233-2.75-1.9-4.449-2
	c-0.167-0.034-0.334-0.051-0.5-0.051c-0.167,0-0.317,0-0.45,0c-1.767,0.101-3.267,0.784-4.5,2.051
	c-1.267,1.233-1.95,2.716-2.05,4.449c-0.034,0.167-0.051,0.334-0.051,0.5c0,0.167,0.017,0.317,0.051,0.45
	c0.066,1.733,0.75,3.233,2.05,4.5c1.233,1.267,2.733,1.95,4.5,2.05c0.133,0,0.283,0,0.45,0c0.166,0,0.333,0,0.5,0
	c1.699-0.133,3.183-0.816,4.449-2.05c1.233-1.267,1.9-2.767,2-4.5c0-0.133,0-0.283,0-0.45C17.274,10.209,17.274,10.042,17.274,9.875
	z"></path>
<path fill-rule="evenodd" clip-rule="evenodd" fill="#FFFFFF" d="M18.075,10.825c0-0.133,0-0.283,0-0.45c0-0.166,0-0.333,0-0.5
	c0,0.167,0,0.334,0,0.5C18.075,10.542,18.075,10.692,18.075,10.825z"></path>
<polygon fill-rule="evenodd" clip-rule="evenodd" fill="#FFFFFF" points="17.274,10.825 11.325,10.825 13.925,13.426 13.274,14.075 
	10.825,11.625 10.825,17.375 10.825,11.625 13.274,14.075 13.925,13.426 11.325,10.825 "></polygon>
<path fill-rule="evenodd" clip-rule="evenodd" fill="#FFFFFF" d="M10.825,2.676c-0.167-0.034-0.351-0.051-0.551-0.051
	c-0.133,0-0.267,0-0.399,0c0.133,0,0.267,0,0.399,0C10.475,2.625,10.658,2.642,10.825,2.676z"></path>
<polygon fill-rule="evenodd" clip-rule="evenodd" fill="#FFFFFF" points="6.625,7.426 9.075,9.875 9.825,9.875 9.875,9.825 
	9.875,9.375 7.274,6.775 6.625,7.426 7.274,6.775 9.875,9.375 9.875,9.825 9.825,9.875 9.075,9.875 "></polygon>
<path fill-rule="evenodd" clip-rule="evenodd" fill="#FFFFFF" d="M10.375,9.676c0.166,0.033,0.3,0.1,0.399,0.199
	c0.134,0.134,0.2,0.301,0.2,0.5l0.5-0.5h-0.649V9.226L10.375,9.676c-0.033,0-0.066,0-0.101,0c-0.033,0-0.066,0-0.1,0
	c-0.1,0.033-0.2,0.083-0.3,0.149c0.1-0.066,0.2-0.116,0.3-0.149c0.033,0,0.066,0,0.1,0C10.309,9.676,10.342,9.676,10.375,9.676
	l0.45-0.45v0.649h0.649l-0.5,0.5c0-0.199-0.066-0.366-0.2-0.5C10.675,9.775,10.541,9.709,10.375,9.676z"></path>
<polygon fill-rule="evenodd" clip-rule="evenodd" fill="#FFFFFF" points="9.875,3.375 9.875,9.375 10.175,9.676 9.875,9.375 "></polygon>
<path fill-rule="evenodd" clip-rule="evenodd" fill="#FFFFFF" d="M3.325,10.825h5.899l0.351-0.35c0-0.033,0-0.066,0-0.101l-0.5-0.5
	h-5.75h5.75l0.5,0.5c0,0.034,0,0.067,0,0.101l-0.351,0.35H3.325z"></path>
<path fill-rule="evenodd" clip-rule="evenodd" fill="#FFFFFF" d="M2.575,9.875c-0.034,0.167-0.051,0.334-0.051,0.5
	c0,0.167,0,0.317,0,0.45c0-0.133,0-0.283,0-0.45C2.524,10.209,2.541,10.042,2.575,9.875z"></path>
<path fill-rule="evenodd" clip-rule="evenodd" fill="#FFFFFF" d="M10.825,10.825l-0.051,0.05c-0.133,0.134-0.3,0.2-0.5,0.2
	l0.551,0.55V10.825v0.8l-0.551-0.55c0.2,0,0.367-0.066,0.5-0.2L10.825,10.825z"></path>
<path fill-rule="evenodd" clip-rule="evenodd" fill="#FFFFFF" d="M10.975,10.476c-0.033,0.133-0.083,0.25-0.149,0.35h0.5
	L10.975,10.476c0-0.033,0-0.066,0-0.101C10.975,10.409,10.975,10.442,10.975,10.476l0.351,0.35h-0.5
	C10.892,10.726,10.941,10.608,10.975,10.476z"></path>
<path fill-rule="evenodd" clip-rule="evenodd" fill="#FFFFFF" d="M9.225,10.825h0.55c-0.1-0.1-0.166-0.217-0.199-0.35
	c0.033,0.133,0.1,0.25,0.199,0.35H9.225l-2.6,2.601l0.649,0.649l2.601-2.6v5.899v-5.899l-2.601,2.6l-0.649-0.649L9.225,10.825z"></path>
<path fill-rule="evenodd" clip-rule="evenodd" fill="#FFFFFF" d="M9.875,11.476l0.399-0.4c-0.133,0-0.267-0.05-0.399-0.149V11.476
	v-0.55c0.133,0.1,0.267,0.149,0.399,0.149L9.875,11.476z"></path>
<path fill-rule="evenodd" clip-rule="evenodd" fill="#FFFFFF" d="M9.774,10.825c0,0.033,0.017,0.05,0.051,0.05l0.05,0.051
	l-0.05-0.051C9.791,10.875,9.774,10.858,9.774,10.825z"></path>
<path fill-rule="evenodd" clip-rule="evenodd" fill="#FFFFFF" d="M9.875,18.176c0.133,0,0.267,0,0.399,0c0.2,0,0.384,0,0.551,0
	c-0.167,0-0.351,0-0.551,0C10.142,18.176,10.008,18.176,9.875,18.176z"></path>
<path fill-rule="evenodd" clip-rule="evenodd" fill="#FFFFFF" d="M9.575,10.375c0-0.199,0.083-0.366,0.25-0.5
	C9.658,10.009,9.575,10.176,9.575,10.375z"></path>
<path fill-rule="evenodd" clip-rule="evenodd" fill="none" stroke="#383635" stroke-width="0.3" stroke-linecap="round" stroke-linejoin="round" stroke-miterlimit="3" d="
	M20.524,9.875v0.95h-2.449c-0.101,1.967-0.867,3.65-2.301,5.05c-1.366,1.4-3.017,2.167-4.949,2.301v2.35h-0.95v-2.35
	c-1.967-0.101-3.667-0.867-5.101-2.301c-1.399-1.399-2.149-3.083-2.25-5.05H0.125v-0.95h2.45c0.1-1.933,0.833-3.6,2.199-5
	c1.434-1.399,3.134-2.149,5.101-2.25v-2.5h0.95v2.551c1.933,0.1,3.583,0.833,4.949,2.199c1.4,1.4,2.167,3.067,2.301,5H20.524z" style="stroke: rgb(0, 0, 0);"></path>
<path fill-rule="evenodd" clip-rule="evenodd" fill="none" stroke="#383635" stroke-width="0.3" stroke-linecap="round" stroke-linejoin="round" stroke-miterlimit="3" d="
	M17.274,9.875c0,0.167,0,0.334,0,0.5c0,0.167,0,0.317,0,0.45c-0.1,1.733-0.767,3.233-2,4.5c-1.267,1.233-2.75,1.917-4.449,2.05
	c-0.167,0-0.334,0-0.5,0c-0.167,0-0.317,0-0.45,0c-1.767-0.1-3.267-0.783-4.5-2.05c-1.3-1.267-1.983-2.767-2.05-4.5
	c-0.034-0.133-0.051-0.283-0.051-0.45c0-0.166,0.017-0.333,0.051-0.5c0.1-1.733,0.783-3.216,2.05-4.449
	c1.233-1.267,2.733-1.95,4.5-2.051c0.133,0,0.283,0,0.45,0c0.166,0,0.333,0.017,0.5,0.051c1.699,0.1,3.183,0.767,4.449,2
	C16.508,6.659,17.175,8.142,17.274,9.875z" style="stroke: rgb(0, 0, 0);"></path>
<polyline fill-rule="evenodd" clip-rule="evenodd" fill="none" stroke="#383635" stroke-width="0.3" stroke-linecap="round" stroke-linejoin="round" stroke-miterlimit="3" points="
	10.825,3.426 10.825,9.226 13.274,6.775 13.925,7.426 11.475,9.875 17.274,9.875 " style="stroke: rgb(0, 0, 0);"></polyline>
<path fill-rule="evenodd" clip-rule="evenodd" fill="none" stroke="#383635" stroke-width="0.3" stroke-linecap="round" stroke-linejoin="round" stroke-miterlimit="3" d="
	M18.075,10.825c0-0.133,0-0.283,0-0.45c0-0.166,0-0.333,0-0.5" style="stroke: rgb(0, 0, 0);"></path>
<polyline fill-rule="evenodd" clip-rule="evenodd" fill="none" stroke="#383635" stroke-width="0.3" stroke-linecap="round" stroke-linejoin="round" stroke-miterlimit="3" points="
	17.274,10.825 11.325,10.825 13.925,13.426 13.274,14.075 10.825,11.625 10.825,17.375 " style="stroke: rgb(0, 0, 0);"></polyline>
<path fill-rule="evenodd" clip-rule="evenodd" fill="none" stroke="#383635" stroke-width="0.3" stroke-linecap="round" stroke-linejoin="round" stroke-miterlimit="3" d="
	M10.825,2.676c-0.167-0.034-0.351-0.051-0.551-0.051c-0.133,0-0.267,0-0.399,0" style="stroke: rgb(0, 0, 0);"></path>
<polygon fill-rule="evenodd" clip-rule="evenodd" fill="none" stroke="#383635" stroke-width="0.3" stroke-linecap="round" stroke-linejoin="round" stroke-miterlimit="3" points="
	6.625,7.426 9.075,9.875 9.825,9.875 9.875,9.825 9.875,9.375 7.274,6.775 " style="stroke: rgb(0, 0, 0);"></polygon>
<path fill-rule="evenodd" clip-rule="evenodd" fill="none" stroke="#383635" stroke-width="0.3" stroke-linecap="round" stroke-linejoin="round" stroke-miterlimit="3" d="
	M10.375,9.676c0.166,0.033,0.3,0.1,0.399,0.199c0.134,0.134,0.2,0.301,0.2,0.5l0.5-0.5h-0.649V9.226L10.375,9.676
	c-0.033,0-0.066,0-0.101,0c-0.033,0-0.066,0-0.1,0c-0.1,0.033-0.2,0.083-0.3,0.149" style="stroke: rgb(0, 0, 0);"></path>
<polyline fill-rule="evenodd" clip-rule="evenodd" fill="none" stroke="#383635" stroke-width="0.3" stroke-linecap="round" stroke-linejoin="round" stroke-miterlimit="3" points="
	9.875,3.375 9.875,9.375 10.175,9.676 " style="stroke: rgb(0, 0, 0);"></polyline>
<path fill-rule="evenodd" clip-rule="evenodd" fill="none" stroke="#383635" stroke-width="0.3" stroke-linecap="round" stroke-linejoin="round" stroke-miterlimit="3" d="
	M3.325,10.825h5.899l0.351-0.35c0-0.033,0-0.066,0-0.101l-0.5-0.5h-5.75" style="stroke: rgb(0, 0, 0);"></path>
<path fill-rule="evenodd" clip-rule="evenodd" fill="none" stroke="#383635" stroke-width="0.3" stroke-linecap="round" stroke-linejoin="round" stroke-miterlimit="3" d="
	M2.575,9.875c-0.034,0.167-0.051,0.334-0.051,0.5c0,0.167,0,0.317,0,0.45" style="stroke: rgb(0, 0, 0);"></path>
<path fill-rule="evenodd" clip-rule="evenodd" fill="none" stroke="#383635" stroke-width="0.3" stroke-linecap="round" stroke-linejoin="round" stroke-miterlimit="3" d="
	M10.825,10.825l-0.051,0.05c-0.133,0.134-0.3,0.2-0.5,0.2l0.551,0.55V10.825z" style="stroke: rgb(0, 0, 0);"></path>
<path fill-rule="evenodd" clip-rule="evenodd" fill="none" stroke="#383635" stroke-width="0.3" stroke-linecap="round" stroke-linejoin="round" stroke-miterlimit="3" d="
	M10.975,10.476c-0.033,0.133-0.083,0.25-0.149,0.35h0.5L10.975,10.476c0-0.033,0-0.066,0-0.101" style="stroke: rgb(0, 0, 0);"></path>
<path fill-rule="evenodd" clip-rule="evenodd" fill="none" stroke="#383635" stroke-width="0.3" stroke-linecap="round" stroke-linejoin="round" stroke-miterlimit="3" d="
	M9.225,10.825h0.55c-0.1-0.1-0.166-0.217-0.199-0.35" style="stroke: rgb(0, 0, 0);"></path>
<path fill-rule="evenodd" clip-rule="evenodd" fill="none" stroke="#383635" stroke-width="0.3" stroke-linecap="round" stroke-linejoin="round" stroke-miterlimit="3" d="
	M9.875,11.476l0.399-0.4c-0.133,0-0.267-0.05-0.399-0.149V11.476z" style="stroke: rgb(0, 0, 0);"></path>
<path fill-rule="evenodd" clip-rule="evenodd" fill="none" stroke="#383635" stroke-width="0.3" stroke-linecap="round" stroke-linejoin="round" stroke-miterlimit="3" d="
	M9.774,10.825c0,0.033,0.017,0.05,0.051,0.05l0.05,0.051" style="stroke: rgb(0, 0, 0);"></path>
<polyline fill-rule="evenodd" clip-rule="evenodd" fill="none" stroke="#383635" stroke-width="0.3" stroke-linecap="round" stroke-linejoin="round" stroke-miterlimit="3" points="
	9.875,17.375 9.875,11.476 7.274,14.075 6.625,13.426 9.225,10.825 " style="stroke: rgb(0, 0, 0);"></polyline>
<path fill-rule="evenodd" clip-rule="evenodd" fill="none" stroke="#383635" stroke-width="0.3" stroke-linecap="round" stroke-linejoin="round" stroke-miterlimit="3" d="
	M9.875,18.176c0.133,0,0.267,0,0.399,0c0.2,0,0.384,0,0.551,0" style="stroke: rgb(0, 0, 0);"></path>
<path fill-rule="evenodd" clip-rule="evenodd" fill="none" stroke="#383635" stroke-width="0.3" stroke-linecap="round" stroke-linejoin="round" stroke-miterlimit="3" d="
	M9.575,10.375c0-0.199,0.083-0.366,0.25-0.5" style="stroke: rgb(0, 0, 0);"></path>
</svg>