<svg version="1.1" id="Layer_1" xmlns="http://www.w3.org/2000/svg" xmlns:xlink="http://www.w3.org/1999/xlink" x="0px" y="0px" width="29.751px" height="43.1px" viewBox="0 0 29.751 43.1" enable-background="new 0 0 29.751 43.1" xml:space="preserve" class="ng-scope">
<path fill-rule="evenodd" clip-rule="evenodd" fill="#FFFFFF" d="M19.625,14.775v1.7c2.866,0.233,5,0.85,6.399,1.85
	c0.4,0.267,0.684,0.483,0.851,0.65c0.066,0.066,0.116,0.117,0.149,0.15c0.834,0.967,1.15,1.983,0.95,3.05
	c-0.1,0.467-0.217,0.883-0.35,1.25c-0.067,0.199-0.167,0.383-0.301,0.55c-0.033,0.1-0.083,0.2-0.149,0.3
	c-0.5,0.7-1.233,1.25-2.2,1.65c-0.9,0.366-2.684,0.583-5.35,0.649v1.65v-1.65c2.666-0.066,4.449-0.283,5.35-0.649
	c0.967-0.4,1.7-0.95,2.2-1.65c0.066-0.1,0.116-0.2,0.149-0.3c0.134-0.167,0.233-0.351,0.301-0.55c0.133-0.367,0.25-0.783,0.35-1.25
	c0.2-1.067-0.116-2.083-0.95-3.05c-0.033-0.033-0.083-0.083-0.149-0.15c-0.167-0.167-0.45-0.383-0.851-0.65
	c-1.399-1-3.533-1.617-6.399-1.85V14.775z"></path>
<path fill-rule="evenodd" clip-rule="evenodd" fill="#FFFFFF" d="M19.625,28.225v14.75h-19.5V0.125h19.5v14.65
	c1,0.067,1.899,0.167,2.699,0.3c1.767,0.333,3.334,0.917,4.7,1.75c1.767,1.067,2.634,2.733,2.601,5c-0.067,2.366-1.067,4.101-3,5.2
	C25.324,27.758,22.991,28.158,19.625,28.225z"></path>
<path fill-rule="evenodd" clip-rule="evenodd" fill="#FFFFFF" d="M25.574,18.875c-0.066,0.133-0.166,0.383-0.3,0.75
	c-0.166,0.4-0.1,1.066,0.2,2c0.233,0.734,0.434,1.167,0.6,1.301c0.267,0.166,0.417,0.434,0.45,0.8c0.033,0.066,0.033,0.167,0,0.3
	l0.2,0.05l0.15-0.05l0.05-0.2c0.2-0.167,0.333-0.35,0.399-0.55c0.2-0.533,0.233-1.25,0.101-2.15c-0.2-0.7-0.45-1.367-0.75-2
	c-0.233-0.4-0.517-0.6-0.851-0.6h-0.449l0.1,0.25L25.574,18.875l-0.1-0.1l-0.1-0.25h0.449c0.334,0,0.617,0.2,0.851,0.6
	c0.3,0.633,0.55,1.3,0.75,2c0.133,0.9,0.1,1.617-0.101,2.15c-0.066,0.2-0.199,0.383-0.399,0.55l-0.05,0.2l-0.15,0.05l-0.2-0.05
	c0.033-0.133,0.033-0.233,0-0.3c-0.033-0.366-0.184-0.634-0.45-0.8c-0.166-0.134-0.366-0.566-0.6-1.301c-0.3-0.933-0.366-1.6-0.2-2
	C25.408,19.258,25.508,19.008,25.574,18.875z"></path>
<path fill-rule="evenodd" clip-rule="evenodd" fill="#FFFFFF" d="M19.625,26.575v-10.1V26.575z"></path>
<path fill-rule="evenodd" clip-rule="evenodd" fill="none" stroke="#383635" stroke-width="0.3" d="M19.625,14.775v1.7
	c2.866,0.233,5,0.85,6.399,1.85c0.4,0.267,0.684,0.483,0.851,0.65c0.066,0.066,0.116,0.117,0.149,0.15
	c0.834,0.967,1.15,1.983,0.95,3.05c-0.1,0.467-0.217,0.883-0.35,1.25c-0.067,0.199-0.167,0.383-0.301,0.55
	c-0.033,0.1-0.083,0.2-0.149,0.3c-0.5,0.7-1.233,1.25-2.2,1.65c-0.9,0.366-2.684,0.583-5.35,0.649v1.65
	c3.366-0.067,5.699-0.467,7-1.2c1.933-1.1,2.933-2.834,3-5.2c0.033-2.267-0.834-3.933-2.601-5c-1.366-0.833-2.934-1.417-4.7-1.75
	C21.524,14.941,20.625,14.842,19.625,14.775V0.125h-19.5v42.85h19.5v-14.75" style="stroke: rgb(0, 0, 0);"></path>
<path fill-rule="evenodd" clip-rule="evenodd" fill="none" stroke="#383635" stroke-width="0.3" d="M25.574,18.875
	c-0.066,0.133-0.166,0.383-0.3,0.75c-0.166,0.4-0.1,1.066,0.2,2c0.233,0.734,0.434,1.167,0.6,1.301
	c0.267,0.166,0.417,0.434,0.45,0.8c0.033,0.066,0.033,0.167,0,0.3l0.2,0.05l0.15-0.05l0.05-0.2c0.2-0.167,0.333-0.35,0.399-0.55
	c0.2-0.533,0.233-1.25,0.101-2.15c-0.2-0.7-0.45-1.367-0.75-2c-0.233-0.4-0.517-0.6-0.851-0.6h-0.449l0.1,0.25L25.574,18.875z" style="stroke: rgb(0, 0, 0);"></path>
<line fill-rule="evenodd" clip-rule="evenodd" fill="none" stroke="#383635" stroke-width="0.3" x1="19.625" y1="26.575" x2="19.625" y2="16.475" style="stroke: rgb(0, 0, 0);"></line>
</svg>