<svg version="1.1" id="Layer_1" xmlns="http://www.w3.org/2000/svg" xmlns:xlink="http://www.w3.org/1999/xlink" x="0px" y="0px" width="25.101px" height="36.1px" viewBox="0 0 25.101 36.1" enable-background="new 0 0 25.101 36.1" xml:space="preserve" class="ng-scope">
<path fill-rule="evenodd" clip-rule="evenodd" fill="#FFFFFF" d="M18.375,11.775c1.6,0.3,3.017,0.833,4.25,1.6
	c1.6,0.967,2.383,2.483,2.35,4.55c-0.033,2.134-0.934,3.7-2.7,4.7c-1.1,0.633-3.05,1-5.85,1.1v12.25h-16.3V0.125h16.3v11.45
	C17.125,11.608,17.774,11.675,18.375,11.775z"></path>
<polygon fill-rule="evenodd" clip-rule="evenodd" fill="#FFFFFF" points="16.425,23.725 16.425,22.225 16.425,13.125 16.425,11.575 
	16.425,13.125 16.425,22.225 "></polygon>
<path fill-rule="evenodd" clip-rule="evenodd" fill="#FFFFFF" d="M16.425,22.225c2.133-0.066,3.583-0.267,4.35-0.6
	c0.867-0.367,1.533-0.867,2-1.5c0.066-0.066,0.117-0.15,0.15-0.25c0.1-0.167,0.184-0.334,0.25-0.5c0.133-0.334,0.233-0.717,0.3-1.15
	c0.2-0.967-0.083-1.883-0.85-2.75c-0.034-0.033-0.084-0.083-0.15-0.15c-0.1-0.133-0.35-0.333-0.75-0.6
	c-1.2-0.833-2.967-1.367-5.3-1.6c2.333,0.233,4.1,0.767,5.3,1.6c0.4,0.267,0.65,0.467,0.75,0.6c0.066,0.066,0.116,0.117,0.15,0.15
	c0.767,0.867,1.05,1.783,0.85,2.75c-0.066,0.434-0.167,0.816-0.3,1.15c-0.066,0.166-0.15,0.333-0.25,0.5
	c-0.033,0.1-0.084,0.184-0.15,0.25c-0.467,0.633-1.133,1.133-2,1.5C20.008,21.958,18.558,22.159,16.425,22.225z"></path>
<path fill-rule="evenodd" clip-rule="evenodd" fill="#FFFFFF" d="M21.125,14.925l0.1,0.2l0.1,0.1c-0.066,0.133-0.166,0.367-0.3,0.7
	c-0.133,0.367-0.066,0.966,0.2,1.8c0.2,0.666,0.384,1.066,0.55,1.2c0.233,0.134,0.367,0.366,0.4,0.7c0.033,0.066,0.033,0.166,0,0.3
	l0.2,0.05l0.1-0.05l0.05-0.2c0.2-0.133,0.334-0.3,0.4-0.5c0.166-0.467,0.184-1.117,0.05-1.95c-0.167-0.633-0.384-1.233-0.65-1.8
	c-0.233-0.367-0.5-0.55-0.8-0.55H21.125h0.399c0.3,0,0.566,0.183,0.8,0.55c0.267,0.567,0.483,1.167,0.65,1.8
	c0.134,0.833,0.116,1.483-0.05,1.95c-0.066,0.2-0.2,0.367-0.4,0.5l-0.05,0.2l-0.1,0.05l-0.2-0.05c0.033-0.134,0.033-0.233,0-0.3
	c-0.033-0.334-0.167-0.566-0.4-0.7c-0.166-0.134-0.35-0.534-0.55-1.2c-0.267-0.833-0.333-1.433-0.2-1.8
	c0.134-0.333,0.233-0.567,0.3-0.7l-0.1-0.1L21.125,14.925z"></path>
<path fill-rule="evenodd" clip-rule="evenodd" fill="none" stroke="#383635" stroke-width="0.3" d="M18.375,11.775
	c1.6,0.3,3.017,0.833,4.25,1.6c1.6,0.967,2.383,2.483,2.35,4.55c-0.033,2.134-0.934,3.7-2.7,4.7c-1.1,0.633-3.05,1-5.85,1.1v12.25
	h-16.3V0.125h16.3v11.45C17.125,11.608,17.774,11.675,18.375,11.775z" style="stroke: rgb(0, 0, 0);"></path>
<polyline fill-rule="evenodd" clip-rule="evenodd" fill="none" stroke="#383635" stroke-width="0.3" points="16.425,23.725 
	16.425,22.225 16.425,13.125 16.425,11.575 " style="stroke: rgb(0, 0, 0);"></polyline>
<path fill-rule="evenodd" clip-rule="evenodd" fill="none" stroke="#383635" stroke-width="0.3" d="M16.425,22.225
	c2.133-0.066,3.583-0.267,4.35-0.6c0.867-0.367,1.533-0.867,2-1.5c0.066-0.066,0.117-0.15,0.15-0.25c0.1-0.167,0.184-0.334,0.25-0.5
	c0.133-0.334,0.233-0.717,0.3-1.15c0.2-0.967-0.083-1.883-0.85-2.75c-0.034-0.033-0.084-0.083-0.15-0.15
	c-0.1-0.133-0.35-0.333-0.75-0.6c-1.2-0.833-2.967-1.367-5.3-1.6" style="stroke: rgb(0, 0, 0);"></path>
<path fill-rule="evenodd" clip-rule="evenodd" fill="none" stroke="#383635" stroke-width="0.3" d="M21.125,14.925l0.1,0.2l0.1,0.1
	c-0.066,0.133-0.166,0.367-0.3,0.7c-0.133,0.367-0.066,0.966,0.2,1.8c0.2,0.666,0.384,1.066,0.55,1.2
	c0.233,0.134,0.367,0.366,0.4,0.7c0.033,0.066,0.033,0.166,0,0.3l0.2,0.05l0.1-0.05l0.05-0.2c0.2-0.133,0.334-0.3,0.4-0.5
	c0.166-0.467,0.184-1.117,0.05-1.95c-0.167-0.633-0.384-1.233-0.65-1.8c-0.233-0.367-0.5-0.55-0.8-0.55H21.125z" style="stroke: rgb(0, 0, 0);"></path>
</svg>