<svg version="1.1" id="Layer_1" xmlns="http://www.w3.org/2000/svg" xmlns:xlink="http://www.w3.org/1999/xlink" x="0px" y="0px" width="34.399px" height="18.623px" viewBox="0 0 34.399 18.623" enable-background="new 0 0 34.399 18.623" xml:space="preserve" class="ng-scope">
<path fill-rule="evenodd" clip-rule="evenodd" fill="#FFFFFF" d="M17.375,8.298h16.899H17.375c0-1.6,0.434-3.134,1.3-4.6
	c0.9-1.467,2.134-2.65,3.7-3.55l11.899,8.149v10.2H0.125v-10.2h0.1l11.9-8.149c1.566,0.899,2.8,2.083,3.7,3.55
	c0.866,1.466,1.3,3,1.3,4.6H17.375z"></path>
<path fill-rule="evenodd" clip-rule="evenodd" fill="#FFFFFF" d="M0.225,8.298h16.9H0.225z"></path>
<path fill-rule="evenodd" clip-rule="evenodd" fill="none" stroke="#383635" stroke-width="0.3" d="M17.375,8.298
	c0-1.6,0.434-3.134,1.3-4.6c0.9-1.467,2.134-2.65,3.7-3.55l11.899,8.149v10.2H0.125v-10.2h0.1l11.9-8.149
	c1.566,0.899,2.8,2.083,3.7,3.55c0.866,1.466,1.3,3,1.3,4.6H17.375h16.899" style="stroke: rgb(0, 0, 0);"></path>
<line fill-rule="evenodd" clip-rule="evenodd" fill="none" stroke="#383635" stroke-width="0.3" x1="0.225" y1="8.298" x2="17.125" y2="8.298" style="stroke: rgb(0, 0, 0);"></line>
</svg>