<svg version="1.1" id="Layer_1" xmlns="http://www.w3.org/2000/svg" xmlns:xlink="http://www.w3.org/1999/xlink" x="0px" y="0px" width="51.8px" height="23.562px" viewBox="0 0 51.8 23.562" enable-background="new 0 0 51.8 23.562" xml:space="preserve" class="ng-scope">
<path fill-rule="evenodd" clip-rule="evenodd" fill="#FFFFFF" d="M3.725,11.024c0-2.333-0.017-3.717-0.05-4.149
	c-0.034-0.967,0.316-1.784,1.05-2.45c0.333-0.4,0.733-0.617,1.2-0.65c0.333-0.033,1.667-0.05,4-0.05c-2.333,0-3.667,0.017-4,0.05
	c-0.467,0.033-0.867,0.25-1.2,0.65c-0.733,0.666-1.083,1.483-1.05,2.45C3.708,7.308,3.725,8.691,3.725,11.024z"></path>
<path fill-rule="evenodd" clip-rule="evenodd" fill="#FFFFFF" d="M9.925,3.725c-1.667,0.233-3.133,0.983-4.4,2.25
	c-1.133,1.233-1.733,2.917-1.8,5.05c0,0.3,0,0.634,0,1c0,0.7,0,1.483,0,2.351c0,1.899,0,4.583,0,8.05c0-3.467,0-6.15,0-8.05
	c0-0.867,0-1.65,0-2.351c0-0.366,0-0.7,0-1c0.067-2.133,0.667-3.816,1.8-5.05C6.792,4.708,8.258,3.958,9.925,3.725
	c0.466,0,0.983,0,1.55,0c-4,2.833-6.583,5.6-7.75,8.3c2.2,0.066,4.083-0.883,5.65-2.85c1.533-1.834,2.25-3.65,2.15-5.45
	c0.1,1.8-0.617,3.616-2.15,5.45c-1.566,1.967-3.45,2.916-5.65,2.85c1.167-2.7,3.75-5.467,7.75-8.3h0.05c1.5,0,3.317,0,5.45,0
	c0.067,0,0.15,0,0.25,0c0.033,0,0.1,0,0.2,0c0.033,0,0.066,0,0.1,0c-0.033,0-0.066,0-0.1,0c-0.1,0-0.167,0-0.2,0
	c-0.1,0-0.183,0-0.25,0c-2.133,0-3.95,0-5.45,0v-0.05C10.992,3.642,10.458,3.658,9.925,3.725z"></path>
<path fill-rule="evenodd" clip-rule="evenodd" fill="#FFFFFF" d="M17.525,3.725c0.167,0.066,0.3,0.15,0.4,0.25
	c0.23,0.23,0.347,0.48,0.35,0.75c0.003-0.237,0.104-0.471,0.3-0.7c0.226-0.193,0.451-0.294,0.675-0.3l12.825-0.05L19.25,3.725
	H17.525z"></path>
<path fill-rule="evenodd" clip-rule="evenodd" fill="#FFFFFF" d="M33.225,4.675v0.35v16.601V5.024c0.033-0.066,0.05-0.166,0.05-0.3
	c0-0.3,0.1-0.55,0.3-0.75c0.194-0.193,0.418-0.294,0.675-0.3h0.025c1.067,0,2.167,0,3.3,0c1,0,2.017,0,3.05,0
	c-1.033,0-2.05,0-3.05,0c-1.133,0-2.233,0-3.3,0H34.25h-2.075c-0.032,0.031-0.065,0.031-0.1,0c0.035,0.033,0.068,0.05,0.1,0.05
	c0.267,0,0.517,0.083,0.75,0.25C33.125,4.208,33.225,4.441,33.225,4.675z"></path>
<path fill-rule="evenodd" clip-rule="evenodd" fill="#FFFFFF" d="M40.625,3.774l0.1-0.05c2.667,1.767,5.167,4.517,7.5,8.25v10.45
	v-10.45v-1.3v1.3c-2.333-3.733-4.833-6.483-7.5-8.25v-0.05c0.533,0,1.083,0,1.65,0c1.467-0.033,2.533-0.05,3.2-0.05
	c1.066,0,1.8,0.483,2.2,1.449c0.3,0.5,0.45,0.95,0.45,1.351v4.25v-4.25c0-0.4-0.15-0.851-0.45-1.351
	c-0.4-0.966-1.133-1.449-2.2-1.449c-0.667,0-1.733,0.017-3.2,0.05c-0.566,0-1.117,0-1.65,0h-0.1
	C40.625,3.708,40.625,3.741,40.625,3.774c0.167,1.066,0.383,1.967,0.65,2.7c-0.933-1.1-1.9-1.75-2.9-1.95
	c-1.2-0.2-2.217-0.149-3.05,0.15c-0.367,0.333-0.667,0.684-0.9,1.05l0.25,0.05c0.6,1.334,1.533,2.384,2.8,3.15
	c1.233,0.767,2.533,1.283,3.9,1.55c0.267,0,0.517,0.1,0.75,0.3l0.3-0.35l-0.3,0.35c-0.233-0.2-0.483-0.3-0.75-0.3
	c-1.367-0.267-2.667-0.783-3.9-1.55c-1.267-0.767-2.2-1.816-2.8-3.15l-0.25-0.05c0.233-0.366,0.533-0.717,0.9-1.05
	c0.833-0.3,1.85-0.351,3.05-0.15c1,0.2,1.967,0.851,2.9,1.95C41.008,5.741,40.792,4.841,40.625,3.774z"></path>
<path fill-rule="evenodd" clip-rule="evenodd" fill="#FFFFFF" d="M17.325,22.425c-4.434,0.533-8.967,0.533-13.6,0
	c-0.8,0.866-1.65,1.116-2.55,0.75l-0.15-0.101c-0.233-0.066-0.417-0.149-0.55-0.25l-0.35-0.399V5.875c0-0.934,0.25-1.867,0.75-2.801
	c0.067-0.1,0.117-0.183,0.15-0.25c1-1.733,2.633-2.616,4.9-2.649c1.133,0,2.15-0.017,3.05-0.05c6.3,0,11.817,0,16.55,0
	c13.5,0,20.534,0.017,21.1,0.05l0.75,0.1c0.633,0.101,1.217,0.3,1.75,0.601c1.633,0.866,2.467,2.483,2.5,4.85
	c0.033,1.267,0.05,2.583,0.05,3.95c0,5.733-0.017,10.033-0.05,12.899c-0.333,0.267-0.717,0.5-1.15,0.7
	c-0.867,0.334-1.617,0.15-2.25-0.55v-0.3c-4.633,0.5-9.35,0.5-14.15,0l-0.85-0.8c0,0.199-0.067,0.383-0.2,0.55
	c-0.167,0.166-0.316,0.25-0.45,0.25h-13.5c-0.033,0-0.083,0-0.15,0c-0.2-0.033-0.333-0.101-0.4-0.2
	c-0.1-0.066-0.183-0.184-0.25-0.35V4.725v17.15c-0.033,0.166-0.1,0.283-0.2,0.35c-0.133,0.1-0.25,0.167-0.35,0.2h-0.2
	C17.458,22.425,17.392,22.425,17.325,22.425z"></path>
<path fill-rule="evenodd" clip-rule="evenodd" fill="#FFFFFF" d="M48.225,10.675c-0.133-1.267-0.617-2.533-1.45-3.8
	c-1.933-2.067-3.95-3.134-6.05-3.2c2.1,0.066,4.117,1.133,6.05,3.2C47.608,8.142,48.092,9.408,48.225,10.675z"></path>
<polygon fill-rule="evenodd" clip-rule="evenodd" fill="#FFFFFF" points="42.425,10.074 42.375,8.824 41.275,6.475 42.375,8.824 "></polygon>
<path fill-rule="evenodd" clip-rule="evenodd" fill="#FFFFFF" d="M42.275,10.074l-0.45-0.399c-0.434-0.533-0.883-1.017-1.35-1.45
	c-1.567-1.5-3.5-2.316-5.8-2.45c2.3,0.134,4.233,0.95,5.8,2.45c0.467,0.434,0.917,0.917,1.35,1.45L42.275,10.074l0.15,0.2
	c0.032,0.064,0.032,0.115,0,0.15c0.033-0.034,0.05-0.068,0.05-0.101l-0.05-0.05v-0.2H42.275z"></path>
<path fill-rule="evenodd" clip-rule="evenodd" fill="#FFFFFF" d="M48.225,11.975c-2-0.167-3.75-0.95-5.25-2.35
	c-0.233-0.267-0.433-0.534-0.6-0.801c0.167,0.267,0.367,0.534,0.6,0.801C44.475,11.024,46.225,11.808,48.225,11.975z"></path>
<path fill-rule="evenodd" clip-rule="evenodd" fill="#B59A87" d="M11.475,3.725c-0.567,0-1.083,0-1.55,0
	c0.533-0.066,1.066-0.083,1.6-0.05v0.05H11.475l0.05-0.05L11.475,3.725z" style="fill: rgb(0, 0, 0);"></path>
<path fill-rule="evenodd" clip-rule="evenodd" fill="#B59A87" d="M19.25,3.725c-0.224,0.006-0.449,0.106-0.675,0.3
	c-0.197,0.229-0.297,0.463-0.3,0.7c-0.003-0.27-0.12-0.52-0.35-0.75c-0.1-0.1-0.233-0.184-0.4-0.25H19.25z" style="fill: rgb(0, 0, 0);"></path>
<path fill-rule="evenodd" clip-rule="evenodd" fill="#B59A87" d="M32.175,3.725v-0.05h2.075c-0.256,0.006-0.481,0.106-0.675,0.3
	c-0.2,0.2-0.3,0.45-0.3,0.75l-0.05-0.05c0-0.233-0.1-0.467-0.3-0.7C32.692,3.808,32.442,3.725,32.175,3.725z" style="fill: rgb(0, 0, 0);"></path>
<path fill-rule="evenodd" clip-rule="evenodd" fill="#B59A87" d="M40.725,3.725c-0.032-0.032-0.065-0.049-0.1-0.05h0.1V3.725z" style="fill: rgb(0, 0, 0);"></path>
<path fill-rule="evenodd" clip-rule="evenodd" fill="#B59A87" d="M42.425,10.074v0.2l0.05,0.05c0,0.032-0.017,0.066-0.05,0.101
	c0.032-0.035,0.032-0.086,0-0.15l-0.15-0.2H42.425z" style="fill: rgb(0, 0, 0);"></path>
<path fill-rule="evenodd" clip-rule="evenodd" fill="#E8D1C0" d="M40.625,3.675c0.035,0.001,0.068,0.018,0.1,0.05l-0.1,0.05
	C40.625,3.741,40.625,3.708,40.625,3.675z" style="fill: rgb(0, 0, 0);"></path>
<path fill-rule="evenodd" clip-rule="evenodd" fill="none" stroke="#383635" stroke-width="0.3" stroke-linecap="round" stroke-linejoin="round" stroke-miterlimit="3" d="
	M9.925,3.725c0.533-0.066,1.066-0.083,1.6-0.05v0.05" style="stroke: rgb(0, 0, 0);"></path>
<line fill-rule="evenodd" clip-rule="evenodd" fill="none" stroke="#383635" stroke-width="0.3" stroke-linecap="round" stroke-linejoin="round" stroke-miterlimit="3" x1="40.625" y1="3.675" x2="40.725" y2="3.675" style="stroke: rgb(0, 0, 0);"></line>
<path fill-rule="evenodd" clip-rule="evenodd" fill="none" stroke="#383635" stroke-width="0.3" stroke-linecap="round" stroke-linejoin="round" stroke-miterlimit="3" d="
	M48.225,10.675v1.3c-2-0.167-3.75-0.95-5.25-2.35c-0.233-0.267-0.433-0.534-0.6-0.801" style="stroke: rgb(0, 0, 0);"></path>
<path fill-rule="evenodd" clip-rule="evenodd" fill="none" stroke="#383635" stroke-width="0.3" stroke-linecap="round" stroke-linejoin="round" stroke-miterlimit="3" d="
	M3.725,12.024c0-0.366,0-0.7,0-1" style="stroke: rgb(0, 0, 0);"></path>
<path fill-rule="evenodd" clip-rule="evenodd" fill="none" stroke="#383635" stroke-width="0.3" stroke-linecap="round" stroke-linejoin="round" stroke-miterlimit="3" d="
	M11.475,3.725c-4,2.833-6.583,5.6-7.75,8.3c2.2,0.066,4.083-0.883,5.65-2.85c1.533-1.834,2.25-3.65,2.15-5.45" style="stroke: rgb(0, 0, 0);"></path>
<line fill-rule="evenodd" clip-rule="evenodd" fill="none" stroke="#383635" stroke-width="0.3" stroke-linecap="round" stroke-linejoin="round" stroke-miterlimit="3" x1="11.475" y1="3.725" x2="11.525" y2="3.675" style="stroke: rgb(0, 0, 0);"></line>
<path fill-rule="evenodd" clip-rule="evenodd" fill="none" stroke="#383635" stroke-width="0.3" stroke-linecap="round" stroke-linejoin="round" stroke-miterlimit="3" d="
	M17.525,3.725c0.167,0.066,0.3,0.15,0.4,0.25c0.23,0.23,0.347,0.48,0.35,0.75c0.003-0.237,0.104-0.471,0.3-0.7
	c0.226-0.193,0.451-0.294,0.675-0.3" style="stroke: rgb(0, 0, 0);"></path>
<path fill-rule="evenodd" clip-rule="evenodd" fill="none" stroke="#383635" stroke-width="0.3" stroke-linecap="round" stroke-linejoin="round" stroke-miterlimit="3" d="
	M9.925,3.725c-1.667,0.233-3.133,0.983-4.4,2.25c-1.133,1.233-1.733,2.917-1.8,5.05" style="stroke: rgb(0, 0, 0);"></path>
<path fill-rule="evenodd" clip-rule="evenodd" fill="none" stroke="#383635" stroke-width="0.3" stroke-linecap="round" stroke-linejoin="round" stroke-miterlimit="3" d="
	M33.225,4.675c0-0.233-0.1-0.467-0.3-0.7c-0.233-0.167-0.483-0.25-0.75-0.25c-0.032,0-0.065-0.017-0.1-0.05" style="stroke: rgb(0, 0, 0);"></path>
<path fill-rule="evenodd" clip-rule="evenodd" fill="none" stroke="#383635" stroke-width="0.3" stroke-linecap="round" stroke-linejoin="round" stroke-miterlimit="3" d="
	M34.25,3.675c-0.256,0.006-0.481,0.106-0.675,0.3c-0.2,0.2-0.3,0.45-0.3,0.75c0,0.134-0.017,0.233-0.05,0.3v16.601l0.85,0.8" style="stroke: rgb(0, 0, 0);"></path>
<line fill-rule="evenodd" clip-rule="evenodd" fill="none" stroke="#383635" stroke-width="0.3" stroke-linecap="round" stroke-linejoin="round" stroke-miterlimit="3" x1="33.225" y1="4.675" x2="33.225" y2="5.024" style="stroke: rgb(0, 0, 0);"></line>
<path fill-rule="evenodd" clip-rule="evenodd" fill="none" stroke="#383635" stroke-width="0.3" stroke-linecap="round" stroke-linejoin="round" stroke-miterlimit="3" d="
	M42.425,10.425l-0.3,0.35c-0.233-0.2-0.483-0.3-0.75-0.3c-1.367-0.267-2.667-0.783-3.9-1.55c-1.267-0.767-2.2-1.816-2.8-3.15
	l-0.25-0.05c0.233-0.366,0.533-0.717,0.9-1.05c0.833-0.3,1.85-0.351,3.05-0.15c1,0.2,1.967,0.851,2.9,1.95
	c-0.267-0.733-0.483-1.634-0.65-2.7c0-0.033,0-0.066,0-0.1" style="stroke: rgb(0, 0, 0);"></path>
<path fill-rule="evenodd" clip-rule="evenodd" fill="none" stroke="#383635" stroke-width="0.3" stroke-linecap="round" stroke-linejoin="round" stroke-miterlimit="3" d="
	M40.725,3.725c2.667,1.767,5.167,4.517,7.5,8.25" style="stroke: rgb(0, 0, 0);"></path>
<path fill-rule="evenodd" clip-rule="evenodd" fill="none" stroke="#383635" stroke-width="0.3" stroke-linecap="round" stroke-linejoin="round" stroke-miterlimit="3" d="
	M40.725,3.725c-0.032-0.032-0.065-0.049-0.1-0.05" style="stroke: rgb(0, 0, 0);"></path>
<path fill-rule="evenodd" clip-rule="evenodd" fill="none" stroke="#383635" stroke-width="0.3" stroke-linecap="round" stroke-linejoin="round" stroke-miterlimit="3" d="
	M48.225,10.675c-0.133-1.267-0.617-2.533-1.45-3.8c-1.933-2.067-3.95-3.134-6.05-3.2" style="stroke: rgb(0, 0, 0);"></path>
<polyline fill-rule="evenodd" clip-rule="evenodd" fill="none" stroke="#383635" stroke-width="0.3" stroke-linecap="round" stroke-linejoin="round" stroke-miterlimit="3" points="
	42.425,10.074 42.375,8.824 41.275,6.475 " style="stroke: rgb(0, 0, 0);"></polyline>
<path fill-rule="evenodd" clip-rule="evenodd" fill="none" stroke="#383635" stroke-width="0.3" stroke-linecap="round" stroke-linejoin="round" stroke-miterlimit="3" d="
	M42.425,10.074v0.2l0.05,0.05c0,0.032-0.017,0.066-0.05,0.101c0.032-0.035,0.032-0.086,0-0.15l-0.15-0.2l-0.45-0.399
	c-0.434-0.533-0.883-1.017-1.35-1.45c-1.567-1.5-3.5-2.316-5.8-2.45" style="stroke: rgb(0, 0, 0);"></path>
<path fill-rule="evenodd" clip-rule="evenodd" fill="none" stroke="#383635" stroke-width="0.3" stroke-linecap="round" stroke-linejoin="round" stroke-miterlimit="3" d="
	M18.275,21.875c0.067,0.166,0.15,0.283,0.25,0.35c0.067,0.1,0.2,0.167,0.4,0.2c0.066,0,0.117,0,0.15,0" style="stroke: rgb(0, 0, 0);"></path>
<path fill-rule="evenodd" clip-rule="evenodd" fill="none" stroke="#383635" stroke-width="0.3" stroke-linecap="round" stroke-linejoin="round" stroke-miterlimit="3" d="
	M32.575,22.425c0.133,0,0.283-0.084,0.45-0.25c0.133-0.167,0.2-0.351,0.2-0.55" style="stroke: rgb(0, 0, 0);"></path>
<path fill-rule="evenodd" clip-rule="evenodd" fill="none" stroke="#383635" stroke-width="0.3" stroke-linecap="round" stroke-linejoin="round" stroke-miterlimit="3" d="
	M17.325,22.425c0.066,0,0.133,0,0.2,0" style="stroke: rgb(0, 0, 0);"></path>
<path fill-rule="evenodd" clip-rule="evenodd" fill="none" stroke="#383635" stroke-width="0.3" stroke-linecap="round" stroke-linejoin="round" stroke-miterlimit="3" d="
	M17.725,22.425c0.1-0.033,0.217-0.101,0.35-0.2c0.1-0.066,0.167-0.184,0.2-0.35V4.725" style="stroke: rgb(0, 0, 0);"></path>
<path fill-rule="evenodd" clip-rule="evenodd" fill="none" stroke="#383635" stroke-width="0.3" d="M3.725,11.024
	c0-2.333-0.017-3.717-0.05-4.149c-0.034-0.967,0.316-1.784,1.05-2.45c0.333-0.4,0.733-0.617,1.2-0.65c0.333-0.033,1.667-0.05,4-0.05
	c0.466,0,0.983,0,1.55,0" style="stroke: rgb(0, 0, 0);"></path>
<path fill-rule="evenodd" clip-rule="evenodd" fill="none" stroke="#383635" stroke-width="0.3" d="M11.525,3.725
	c1.5,0,3.317,0,5.45,0c0.067,0,0.15,0,0.25,0c0.033,0,0.1,0,0.2,0c0.033,0,0.066,0,0.1,0h1.725l12.825-0.05
	c0.035,0.031,0.068,0.031,0.1,0h2.075h0.025c1.067,0,2.167,0,3.3,0c1,0,2.017,0,3.05,0" style="stroke: rgb(0, 0, 0);"></path>
<path fill-rule="evenodd" clip-rule="evenodd" fill="none" stroke="#383635" stroke-width="0.3" d="M40.725,3.675
	c0.533,0,1.083,0,1.65,0c1.467-0.033,2.533-0.05,3.2-0.05c1.066,0,1.8,0.483,2.2,1.449c0.3,0.5,0.45,0.95,0.45,1.351v4.25" style="stroke: rgb(0, 0, 0);"></path>
<path fill-rule="evenodd" clip-rule="evenodd" fill="none" stroke="#383635" stroke-width="0.3" d="M48.225,11.975v10.45v0.3
	c0.633,0.7,1.383,0.884,2.25,0.55c0.433-0.2,0.817-0.434,1.15-0.7c0.033-2.866,0.05-7.166,0.05-12.899
	c0-1.367-0.017-2.684-0.05-3.95c-0.033-2.366-0.867-3.983-2.5-4.85c-0.533-0.301-1.117-0.5-1.75-0.601l-0.75-0.1
	c-0.566-0.033-7.6-0.05-21.1-0.05c-4.733,0-10.25,0-16.55,0c-0.9,0.033-1.917,0.05-3.05,0.05c-2.267,0.033-3.9,0.916-4.9,2.649
	c-0.033,0.067-0.083,0.15-0.15,0.25c-0.5,0.934-0.75,1.867-0.75,2.801v16.55l0.35,0.399c0.133,0.101,0.317,0.184,0.55,0.25
	l0.15,0.101c0.9,0.366,1.75,0.116,2.55-0.75c0-3.467,0-6.15,0-8.05c0-0.867,0-1.65,0-2.351" style="stroke: rgb(0, 0, 0);"></path>
<line fill-rule="evenodd" clip-rule="evenodd" fill="none" stroke="#383635" stroke-width="0.3" x1="11.525" y1="3.725" x2="11.475" y2="3.725" style="stroke: rgb(0, 0, 0);"></line>
<path fill-rule="evenodd" clip-rule="evenodd" fill="none" stroke="#383635" stroke-width="0.3" d="M34.075,22.425
	c4.8,0.5,9.517,0.5,14.15,0" style="stroke: rgb(0, 0, 0);"></path>
<line fill-rule="evenodd" clip-rule="evenodd" fill="none" stroke="#383635" stroke-width="0.3" x1="19.075" y1="22.425" x2="32.575" y2="22.425" style="stroke: rgb(0, 0, 0);"></line>
<line fill-rule="evenodd" clip-rule="evenodd" fill="none" stroke="#383635" stroke-width="0.3" x1="17.525" y1="22.425" x2="17.725" y2="22.425" style="stroke: rgb(0, 0, 0);"></line>
<path fill-rule="evenodd" clip-rule="evenodd" fill="none" stroke="#383635" stroke-width="0.3" d="M3.725,22.425
	c4.633,0.533,9.167,0.533,13.6,0" style="stroke: rgb(0, 0, 0);"></path>
</svg>