<svg version="1.1" id="Layer_1" xmlns="http://www.w3.org/2000/svg" xmlns:xlink="http://www.w3.org/1999/xlink" x="0px" y="0px" width="27.801px" height="17.43px" viewBox="0 0 27.801 17.43" enable-background="new 0 0 27.801 17.43" xml:space="preserve" class="ng-scope">
<path fill-rule="evenodd" clip-rule="evenodd" fill="#FFFFFF" d="M27.676,7.104H14.125H27.676v10.2H0.125v-10.2h0.051h13.649h0.3
	c0-1.933,0.45-3.683,1.351-5.25c0.467-0.767,0.934-1.333,1.399-1.7L27.676,7.104z"></path>
<path fill-rule="evenodd" clip-rule="evenodd" fill="#FFFFFF" d="M0.176,7.104l10.85-6.95c0.467,0.4,0.934,0.984,1.4,1.75
	c0.899,1.566,1.366,3.301,1.399,5.2H0.176z"></path>
<polygon fill-rule="evenodd" clip-rule="evenodd" fill="none" stroke="#383635" stroke-width="0.3" points="27.676,7.104 
	14.125,7.104 13.825,7.104 0.176,7.104 0.125,7.104 0.125,17.305 27.676,17.305 " style="stroke: rgb(0, 0, 0);"></polygon>
<path fill-rule="evenodd" clip-rule="evenodd" fill="none" stroke="#383635" stroke-width="0.3" d="M14.125,7.104
	c0-1.933,0.45-3.683,1.351-5.25c0.467-0.767,0.934-1.333,1.399-1.7l10.801,6.95" style="stroke: rgb(0, 0, 0);"></path>
<path fill-rule="evenodd" clip-rule="evenodd" fill="none" stroke="#383635" stroke-width="0.3" d="M0.176,7.104l10.85-6.95
	c0.467,0.4,0.934,0.984,1.4,1.75c0.899,1.566,1.366,3.301,1.399,5.2" style="stroke: rgb(0, 0, 0);"></path>
</svg>