<svg version="1.1" id="Layer_1" xmlns="http://www.w3.org/2000/svg" xmlns:xlink="http://www.w3.org/1999/xlink" x="0px" y="0px" width="13.5px" height="13.65px" viewBox="0 0 13.5 13.65" enable-background="new 0 0 13.5 13.65" xml:space="preserve" class="ng-scope">
<path fill-rule="evenodd" clip-rule="evenodd" fill="#FFFFFF" d="M6.725,0.125c1.833,0,3.4,0.65,4.7,1.95
	c1.3,1.333,1.95,2.916,1.95,4.75c0,1.833-0.65,3.416-1.95,4.75c-1.3,1.3-2.867,1.95-4.7,1.95c-1.833,0-3.383-0.65-4.65-1.95
	c-1.3-1.334-1.95-2.917-1.95-4.75c0-1.834,0.65-3.417,1.95-4.75C3.342,0.775,4.892,0.125,6.725,0.125z"></path>
<path fill-rule="evenodd" clip-rule="evenodd" fill="#FFFFFF" d="M8.875,5.175c-0.066,0.334-0.283,0.65-0.65,0.95
	c-0.233,0.1-0.583,0.25-1.05,0.45l-0.05,0.05c0.133,0.066,0.184,0.15,0.15,0.25l-0.15,0.15c0.467,0.267,0.767,0.466,0.9,0.6
	c0.4,0.267,0.583,0.65,0.55,1.15c0.033-0.5-0.15-0.884-0.55-1.15c-0.133-0.134-0.434-0.333-0.9-0.6l0.15-0.15
	c0.033-0.1-0.017-0.184-0.15-0.25l0.05-0.05c0.467-0.2,0.816-0.351,1.05-0.45C8.592,5.825,8.809,5.509,8.875,5.175z"></path>
<path fill-rule="evenodd" clip-rule="evenodd" fill="#FFFFFF" d="M5.175,4.775c-0.067,0.399,0.05,0.75,0.35,1.05l0.8,0.6
	c0.033-0.033,0.1-0.066,0.2-0.1c0.1-0.033,0.233-0.033,0.4,0c0.1,0.033,0.183,0.083,0.25,0.149v0.101V6.475
	c-0.067-0.066-0.15-0.116-0.25-0.149c-0.167-0.033-0.3-0.033-0.4,0c-0.1,0.033-0.167,0.066-0.2,0.1l-0.8-0.6
	C5.225,5.525,5.108,5.175,5.175,4.775z"></path>
<path fill-rule="evenodd" clip-rule="evenodd" fill="#FFFFFF" d="M6.375,6.875c-0.066-0.066-0.083-0.15-0.05-0.25
	c0-0.066,0-0.134,0-0.2c0,0.066,0,0.134,0,0.2C6.292,6.725,6.309,6.809,6.375,6.875h-0.1l-1.1,0.5c-0.367,0.3-0.517,0.616-0.45,0.95
	c-0.066-0.334,0.083-0.65,0.45-0.95l1.1-0.5l0.05,0.15c0.067,0.066,0.183,0.116,0.35,0.149c0.1,0.033,0.2,0.033,0.3,0
	s0.15-0.083,0.15-0.149c0,0.066-0.05,0.116-0.15,0.149s-0.2,0.033-0.3,0c-0.167-0.033-0.283-0.083-0.35-0.149
	C6.325,6.958,6.342,6.908,6.375,6.875z"></path>
<path fill-rule="evenodd" clip-rule="evenodd" fill="#B59A87" d="M6.275,6.875h0.1c-0.033,0.033-0.05,0.083-0.05,0.15L6.275,6.875z" style="fill: rgb(0, 0, 0);"></path>
<path fill-rule="evenodd" clip-rule="evenodd" fill="none" stroke="#383635" stroke-width="0.3" d="M6.725,0.125
	c-1.833,0-3.383,0.65-4.65,1.95c-1.3,1.333-1.95,2.916-1.95,4.75c0,1.833,0.65,3.416,1.95,4.75c1.267,1.3,2.817,1.95,4.65,1.95
	c1.833,0,3.4-0.65,4.7-1.95c1.3-1.334,1.95-2.917,1.95-4.75c0-1.834-0.65-3.417-1.95-4.75C10.125,0.775,8.559,0.125,6.725,0.125z" style="stroke: rgb(0, 0, 0);"></path>
<path fill-rule="evenodd" clip-rule="evenodd" fill="none" stroke="#383635" stroke-width="0.3" d="M8.875,5.175
	c-0.066,0.334-0.283,0.65-0.65,0.95c-0.233,0.1-0.583,0.25-1.05,0.45l-0.05,0.05c0.133,0.066,0.184,0.15,0.15,0.25l-0.15,0.15
	c0.467,0.267,0.767,0.466,0.9,0.6c0.4,0.267,0.583,0.65,0.55,1.15" style="stroke: rgb(0, 0, 0);"></path>
<path fill-rule="evenodd" clip-rule="evenodd" fill="none" stroke="#383635" stroke-width="0.3" d="M5.175,4.775
	c-0.067,0.399,0.05,0.75,0.35,1.05l0.8,0.6c0.033-0.033,0.1-0.066,0.2-0.1c0.1-0.033,0.233-0.033,0.4,0
	c0.1,0.033,0.183,0.083,0.25,0.149v0.101" style="stroke: rgb(0, 0, 0);"></path>
<path fill-rule="evenodd" clip-rule="evenodd" fill="none" stroke="#383635" stroke-width="0.3" d="M6.375,6.875
	c-0.066-0.066-0.083-0.15-0.05-0.25c0-0.066,0-0.134,0-0.2" style="stroke: rgb(0, 0, 0);"></path>
<path fill-rule="evenodd" clip-rule="evenodd" fill="none" stroke="#383635" stroke-width="0.3" d="M6.375,6.875
	c-0.033,0.033-0.05,0.083-0.05,0.15c0.067,0.066,0.183,0.116,0.35,0.149c0.1,0.033,0.2,0.033,0.3,0s0.15-0.083,0.15-0.149" style="stroke: rgb(0, 0, 0);"></path>
<path fill-rule="evenodd" clip-rule="evenodd" fill="none" stroke="#383635" stroke-width="0.3" d="M6.275,6.875l-1.1,0.5
	c-0.367,0.3-0.517,0.616-0.45,0.95" style="stroke: rgb(0, 0, 0);"></path>
<line fill-rule="evenodd" clip-rule="evenodd" fill="none" stroke="#383635" stroke-width="0.3" x1="6.275" y1="6.875" x2="6.375" y2="6.875" style="stroke: rgb(0, 0, 0);"></line>
</svg>