<svg version="1.1" id="Layer_1" xmlns="http://www.w3.org/2000/svg" xmlns:xlink="http://www.w3.org/1999/xlink" x="0px" y="0px" width="19.643px" height="19.068px" viewBox="0 0 19.643 19.068" enable-background="new 0 0 19.643 19.068" xml:space="preserve" class="ng-scope">
<path fill-rule="evenodd" clip-rule="evenodd" fill="#FFFFFF" d="M18.468,1.094c0.4,0.433,0.6,0.949,0.6,1.55
	c0.6,4.6,0.6,9.2,0,13.8c0,0.6-0.2,1.116-0.6,1.55c-0.433,0.4-0.95,0.601-1.55,0.601c-4.7,0.466-9.45,0.466-14.25,0
	c-0.633,0-1.15-0.2-1.55-0.601c-0.434-0.434-0.65-0.95-0.65-1.55c-0.4-4.033-0.45-8.1-0.15-12.2c0.033-0.533,0.083-1.066,0.15-1.6
	c0-0.601,0.217-1.117,0.65-1.55c0.4-0.434,0.917-0.65,1.55-0.65c0.733-0.066,1.467-0.116,2.2-0.15
	c3.966-0.267,7.983-0.216,12.05,0.15C17.518,0.443,18.035,0.66,18.468,1.094z"></path>
<path fill-rule="evenodd" clip-rule="evenodd" fill="#FFFFFF" d="M0.968,14.594c-0.167-3.2-0.133-6.4,0.1-9.601
	C1.101,4.46,1.151,3.91,1.218,3.344c0-0.601,0.217-1.101,0.65-1.5c0.4-0.434,0.9-0.65,1.5-0.65c0.733-0.066,1.483-0.134,2.25-0.2
	c0.966-0.033,1.95-0.066,2.95-0.1c-1,0.033-1.983,0.066-2.95,0.1c-0.767,0.066-1.517,0.134-2.25,0.2c-0.6,0-1.1,0.217-1.5,0.65
	c-0.434,0.399-0.65,0.899-0.65,1.5C1.151,3.91,1.101,4.46,1.068,4.993C0.834,8.193,0.801,11.394,0.968,14.594z"></path>
<path fill-rule="evenodd" clip-rule="evenodd" fill="#FFFFFF" d="M18.718,5.594c0.133,2.866,0.083,5.733-0.15,8.6
	c-0.033,0.566-0.066,1.116-0.1,1.65c0,0.6-0.216,1.116-0.65,1.55c-0.433,0.399-0.95,0.6-1.55,0.6c-0.733,0.066-1.467,0.134-2.2,0.2
	c-1,0.066-2,0.1-3,0.1c1,0,2-0.033,3-0.1c0.733-0.066,1.467-0.134,2.2-0.2c0.6,0,1.117-0.2,1.55-0.6
	c0.434-0.434,0.65-0.95,0.65-1.55c0.034-0.534,0.067-1.084,0.1-1.65C18.801,11.327,18.851,8.46,18.718,5.594z"></path>
<path fill-rule="evenodd" clip-rule="evenodd" fill="none" stroke="#383635" stroke-width="0.3" stroke-linecap="round" stroke-linejoin="round" stroke-miterlimit="3" d="
	M18.468,1.094c0.4,0.433,0.6,0.949,0.6,1.55c0.6,4.6,0.6,9.2,0,13.8c0,0.6-0.2,1.116-0.6,1.55c-0.433,0.4-0.95,0.601-1.55,0.601
	c-4.7,0.466-9.45,0.466-14.25,0c-0.633,0-1.15-0.2-1.55-0.601c-0.434-0.434-0.65-0.95-0.65-1.55c-0.4-4.033-0.45-8.1-0.15-12.2
	c0.033-0.533,0.083-1.066,0.15-1.6c0-0.601,0.217-1.117,0.65-1.55c0.4-0.434,0.917-0.65,1.55-0.65c0.733-0.066,1.467-0.116,2.2-0.15
	c3.966-0.267,7.983-0.216,12.05,0.15C17.518,0.443,18.035,0.66,18.468,1.094z" style="stroke: rgb(0, 0, 0);"></path>
<path fill-rule="evenodd" clip-rule="evenodd" fill="none" stroke="#383635" stroke-width="0.1" stroke-linecap="round" stroke-linejoin="round" stroke-miterlimit="3" d="
	M0.968,14.594c-0.167-3.2-0.133-6.4,0.1-9.601C1.101,4.46,1.151,3.91,1.218,3.344c0-0.601,0.217-1.101,0.65-1.5
	c0.4-0.434,0.9-0.65,1.5-0.65c0.733-0.066,1.483-0.134,2.25-0.2c0.966-0.033,1.95-0.066,2.95-0.1 M18.718,5.594
	c0.133,2.866,0.083,5.733-0.15,8.6c-0.033,0.566-0.066,1.116-0.1,1.65c0,0.6-0.216,1.116-0.65,1.55c-0.433,0.399-0.95,0.6-1.55,0.6
	c-0.733,0.066-1.467,0.134-2.2,0.2c-1,0.066-2,0.1-3,0.1" style="stroke: rgb(0, 0, 0);"></path>
</svg>