<svg version="1.1" id="Layer_1" xmlns="http://www.w3.org/2000/svg" xmlns:xlink="http://www.w3.org/1999/xlink" x="0px" y="0px" width="10.55px" height="15.1px" viewBox="0 0 10.55 15.1" enable-background="new 0 0 10.55 15.1" xml:space="preserve" class="ng-scope">
<path fill-rule="evenodd" clip-rule="evenodd" fill="#FFFFFF" d="M0.125,2.475c0-0.633,0.217-1.183,0.65-1.649
	c0.434-0.467,0.95-0.7,1.55-0.7h5.85c0.633,0,1.183,0.233,1.65,0.7c0.4,0.467,0.6,1.017,0.6,1.649v10.15c0,0.634-0.2,1.184-0.6,1.65
	c-0.467,0.466-1.017,0.699-1.65,0.699h-5.85c-0.6,0-1.117-0.233-1.55-0.699c-0.433-0.467-0.65-1.017-0.65-1.65V2.475z"></path>
<path fill-rule="evenodd" clip-rule="evenodd" fill="#FFFFFF" d="M3.925,3.425c0.066,0.267,0.216,0.5,0.45,0.7l0.65,0.25
	c0-0.066,0.017-0.1,0.05-0.1c0.066-0.067,0.133-0.101,0.2-0.101c0.1,0,0.184,0.033,0.25,0.101c0.233-0.2,0.4-0.384,0.5-0.551
	c0.167-0.199,0.233-0.433,0.2-0.699c0.033,0.267-0.033,0.5-0.2,0.699c-0.1,0.167-0.267,0.351-0.5,0.551
	c-0.066-0.067-0.15-0.101-0.25-0.101c-0.066,0-0.133,0.033-0.2,0.101c-0.033,0-0.05,0.033-0.05,0.1l-0.65-0.25
	C4.142,3.925,3.992,3.691,3.925,3.425z"></path>
<path fill-rule="evenodd" clip-rule="evenodd" fill="#FFFFFF" d="M5.025,4.375v0.1c0,0.034,0,0.101,0,0.2h0.05
	c0.066,0.101,0.133,0.15,0.2,0.15c0.1,0,0.184-0.05,0.25-0.15c0.034,0,0.05-0.05,0.05-0.149V4.475c0-0.066-0.017-0.133-0.05-0.199
	c0.034,0.066,0.05,0.133,0.05,0.199v0.051c0,0.1-0.017,0.149-0.05,0.149c-0.066,0.101-0.15,0.15-0.25,0.15
	c-0.066,0-0.133-0.05-0.2-0.15h-0.05c0-0.1,0-0.166,0-0.2V4.375z"></path>
<path fill-rule="evenodd" clip-rule="evenodd" fill="#FFFFFF" d="M5.025,4.675l-0.6,0.45c-0.167,0.233-0.217,0.483-0.15,0.75
	c-0.066-0.267-0.017-0.517,0.15-0.75L5.025,4.675z"></path>
<path fill-rule="evenodd" clip-rule="evenodd" fill="#FFFFFF" d="M6.725,5.475c-0.1-0.366-0.267-0.583-0.5-0.649
	c-0.167-0.101-0.383-0.2-0.65-0.3c0.267,0.1,0.483,0.199,0.65,0.3C6.458,4.892,6.625,5.108,6.725,5.475z"></path>
<path fill-rule="evenodd" clip-rule="evenodd" fill="#FFFFFF" d="M3.875,10.125c0.033,0.233,0.167,0.45,0.4,0.65l0.6,0.199
	c0-0.033,0.033-0.066,0.1-0.1c0.033-0.066,0.1-0.1,0.2-0.1c0.066,0,0.15,0.033,0.25,0.1c0.2-0.2,0.35-0.35,0.45-0.45
	c0.167-0.267,0.233-0.517,0.2-0.75c0.033,0.233-0.033,0.483-0.2,0.75c-0.1,0.101-0.25,0.25-0.45,0.45c-0.1-0.066-0.184-0.1-0.25-0.1
	c-0.1,0-0.167,0.033-0.2,0.1c-0.067,0.033-0.1,0.066-0.1,0.1l-0.6-0.199C4.042,10.575,3.908,10.358,3.875,10.125z"></path>
<path fill-rule="evenodd" clip-rule="evenodd" fill="#FFFFFF" d="M5.425,11.325c-0.1,0.066-0.184,0.1-0.25,0.1
	c-0.1,0-0.167-0.033-0.2-0.1l-0.1-0.05l-0.6,0.5c-0.167,0.233-0.2,0.466-0.1,0.699c-0.1-0.233-0.067-0.466,0.1-0.699l0.6-0.5
	l0.1,0.05c0.033,0.066,0.1,0.1,0.2,0.1C5.242,11.425,5.325,11.392,5.425,11.325z"></path>
<path fill-rule="evenodd" clip-rule="evenodd" fill="#FFFFFF" d="M4.875,10.975c0,0.034,0,0.084,0,0.15s0,0.116,0,0.15
	c0-0.034,0-0.084,0-0.15S4.875,11.009,4.875,10.975z"></path>
<path fill-rule="evenodd" clip-rule="evenodd" fill="#FFFFFF" d="M5.425,11.225c0,0.034,0,0.067,0,0.101l0.05-0.101
	c0.267,0.034,0.45,0.084,0.55,0.15c0.3,0.167,0.467,0.4,0.5,0.7c-0.033-0.3-0.2-0.533-0.5-0.7c-0.1-0.066-0.283-0.116-0.55-0.15
	H5.425c0.033-0.033,0.05-0.066,0.05-0.1c0-0.1-0.017-0.184-0.05-0.25c0.033,0.066,0.05,0.15,0.05,0.25
	C5.475,11.158,5.458,11.191,5.425,11.225z"></path>
<path fill-rule="evenodd" clip-rule="evenodd" fill="#B59A87" d="M5.425,11.325c0-0.033,0-0.066,0-0.101h0.05L5.425,11.325z" style="fill: rgb(0, 0, 0);"></path>
<path fill-rule="evenodd" clip-rule="evenodd" fill="none" stroke="#383635" stroke-width="0.3" d="M0.125,2.475v10.15
	c0,0.634,0.217,1.184,0.65,1.65c0.434,0.466,0.95,0.699,1.55,0.699h5.85c0.633,0,1.183-0.233,1.65-0.699
	c0.4-0.467,0.6-1.017,0.6-1.65V2.475c0-0.633-0.2-1.183-0.6-1.649c-0.467-0.467-1.017-0.7-1.65-0.7h-5.85
	c-0.6,0-1.117,0.233-1.55,0.7C0.342,1.292,0.125,1.842,0.125,2.475z" style="stroke: rgb(0, 0, 0);"></path>
<path fill-rule="evenodd" clip-rule="evenodd" fill="none" stroke="#383635" stroke-width="0.3" d="M3.925,3.425
	c0.066,0.267,0.216,0.5,0.45,0.7l0.65,0.25c0-0.066,0.017-0.1,0.05-0.1c0.066-0.067,0.133-0.101,0.2-0.101
	c0.1,0,0.184,0.033,0.25,0.101c0.233-0.2,0.4-0.384,0.5-0.551c0.167-0.199,0.233-0.433,0.2-0.699" style="stroke: rgb(0, 0, 0);"></path>
<path fill-rule="evenodd" clip-rule="evenodd" fill="none" stroke="#383635" stroke-width="0.3" d="M5.025,4.375v0.1
	c0,0.034,0,0.101,0,0.2h0.05c0.066,0.101,0.133,0.15,0.2,0.15c0.1,0,0.184-0.05,0.25-0.15c0.034,0,0.05-0.05,0.05-0.149V4.475
	c0-0.066-0.017-0.133-0.05-0.199" style="stroke: rgb(0, 0, 0);"></path>
<path fill-rule="evenodd" clip-rule="evenodd" fill="none" stroke="#383635" stroke-width="0.3" d="M5.025,4.675l-0.6,0.45
	c-0.167,0.233-0.217,0.483-0.15,0.75" style="stroke: rgb(0, 0, 0);"></path>
<path fill-rule="evenodd" clip-rule="evenodd" fill="none" stroke="#383635" stroke-width="0.3" d="M6.725,5.475
	c-0.1-0.366-0.267-0.583-0.5-0.649c-0.167-0.101-0.383-0.2-0.65-0.3" style="stroke: rgb(0, 0, 0);"></path>
<path fill-rule="evenodd" clip-rule="evenodd" fill="none" stroke="#383635" stroke-width="0.3" d="M3.875,10.125
	c0.033,0.233,0.167,0.45,0.4,0.65l0.6,0.199c0-0.033,0.033-0.066,0.1-0.1c0.033-0.066,0.1-0.1,0.2-0.1c0.066,0,0.15,0.033,0.25,0.1
	c0.2-0.2,0.35-0.35,0.45-0.45c0.167-0.267,0.233-0.517,0.2-0.75" style="stroke: rgb(0, 0, 0);"></path>
<path fill-rule="evenodd" clip-rule="evenodd" fill="none" stroke="#383635" stroke-width="0.3" d="M5.425,11.325
	c-0.1,0.066-0.184,0.1-0.25,0.1c-0.1,0-0.167-0.033-0.2-0.1l-0.1-0.05l-0.6,0.5c-0.167,0.233-0.2,0.466-0.1,0.699" style="stroke: rgb(0, 0, 0);"></path>
<path fill-rule="evenodd" clip-rule="evenodd" fill="none" stroke="#383635" stroke-width="0.3" d="M4.875,10.975
	c0,0.034,0,0.084,0,0.15s0,0.116,0,0.15" style="stroke: rgb(0, 0, 0);"></path>
<path fill-rule="evenodd" clip-rule="evenodd" fill="none" stroke="#383635" stroke-width="0.3" d="M5.425,11.225h0.05
	c0.267,0.034,0.45,0.084,0.55,0.15c0.3,0.167,0.467,0.4,0.5,0.7" style="stroke: rgb(0, 0, 0);"></path>
<path fill-rule="evenodd" clip-rule="evenodd" fill="none" stroke="#383635" stroke-width="0.3" d="M5.425,11.225
	c0.033-0.033,0.05-0.066,0.05-0.1c0-0.1-0.017-0.184-0.05-0.25" style="stroke: rgb(0, 0, 0);"></path>
<path fill-rule="evenodd" clip-rule="evenodd" fill="none" stroke="#383635" stroke-width="0.3" d="M5.425,11.325
	c0-0.033,0-0.066,0-0.101" style="stroke: rgb(0, 0, 0);"></path>
</svg>