<svg version="1.1" id="Layer_1" xmlns="http://www.w3.org/2000/svg" xmlns:xlink="http://www.w3.org/1999/xlink" x="0px" y="0px" width="28.83px" height="28.83px" viewBox="0 2.15 28.83 28.83" enable-background="new 0 2.15 28.83 28.83" xml:space="preserve">
	<rect x="9.19" y="14.39" width="10.31" height="10.91" fill="#FFFFFF"></rect>
	<path fill="#FFFFFF" stroke="#000000" stroke-miterlimit="10" d="M13.14,24.2v-1.39h-2.89V15.5h7.88v7.31h-2.7
		v1.39L13.14,24.2 M21.54,10.21c0-0.45-0.26-0.67-0.75-0.67H7.25c-0.49,0-0.71,0.22-0.71,0.67V27.8c0,0.45,0.23,0.67,0.71,0.67
		h13.54c0.49,0,0.75-0.22,0.75-0.67V10.21z" style="fill: rgb(0, 0, 0); stroke: rgb(0, 0, 0);"></path>
	<path fill="#FFFFFF" d="M13.14,24.2v-1.39h-2.89V15.5h7.88v7.31h-2.7v1.39L13.14,24.2 M21.54,10.21
		c0-0.45-0.26-0.67-0.75-0.67H7.25c-0.49,0-0.71,0.22-0.71,0.67V27.8c0,0.45,0.23,0.67,0.71,0.67h13.54c0.49,0,0.75-0.22,0.75-0.67
		V10.21z"></path>
</svg>