<svg version="1.1" id="Layer_1" xmlns="http://www.w3.org/2000/svg" xmlns:xlink="http://www.w3.org/1999/xlink" x="0px" y="0px" width="38.601px" height="59.6px" viewBox="0 0 38.601 59.6" enable-background="new 0 0 38.601 59.6" xml:space="preserve" class="ng-scope">
<path fill-rule="evenodd" clip-rule="evenodd" fill="#FFFFFF" d="M1.325,29.35h1.25V2.1c0-0.399,0.2-0.6,0.6-0.6h15.2v27.85h1.25
	V1.5h15.15c0.399,0,0.6,0.2,0.6,0.6v27.25h1.25h-1.25V2.1c0-0.399-0.2-0.6-0.6-0.6h-15.15v27.85h-1.25V1.5h-15.2
	c-0.399,0-0.6,0.2-0.6,0.6v27.25H1.325V0.899c0-0.433,0.2-0.649,0.6-0.649h34.101c0.399,0,0.6,0.217,0.6,0.649v28.45h1.45
	c0.1,0,0.184,0.033,0.25,0.101c0.1,0.066,0.15,0.149,0.15,0.25c0,0.133-0.051,0.216-0.15,0.25c-0.066,0.1-0.15,0.149-0.25,0.149
	h-0.6l-0.851,0.15l-1.25,0.25l-0.649,0.149H19.625h-1.25H3.726l-1.15-0.25l-1.25-0.25l1.25,0.25l1.15,0.25h14.649h1.25h15.101
	l0.649-0.149l1.25-0.25v28.5c0,0.399-0.2,0.6-0.6,0.6H1.925c-0.399,0-0.6-0.2-0.6-0.6V30.149l-0.4-0.05H0.525
	c-0.101,0-0.184-0.05-0.25-0.149c-0.101-0.034-0.15-0.117-0.15-0.25c0-0.101,0.05-0.184,0.15-0.25
	c0.066-0.067,0.149-0.101,0.25-0.101H1.325z M26.875,7.35c0.167,0.467,0.5,0.834,1,1.101c0.533,0.267,1,0.35,1.4,0.25
	c0.033,0,0.066-0.017,0.1-0.051c0.067,0,0.134-0.017,0.2-0.05c-0.2-0.333-0.5-0.633-0.9-0.899l-0.449,0.55
	c-0.233,0.033-0.367-0.033-0.4-0.2l0.25-0.7c-0.467-0.2-0.883-0.3-1.25-0.3c0,0.066,0.017,0.15,0.05,0.25V7.35V7.3
	c-0.033-0.1-0.05-0.184-0.05-0.25c0.367,0,0.783,0.1,1.25,0.3l-0.25,0.7c0.033,0.167,0.167,0.233,0.4,0.2l0.449-0.55
	c0.4,0.267,0.7,0.566,0.9,0.899c-0.066,0.033-0.133,0.05-0.2,0.05c-0.033,0.034-0.066,0.051-0.1,0.051
	c-0.4,0.1-0.867,0.017-1.4-0.25C27.375,8.184,27.042,7.816,26.875,7.35z M28.075,7.35L29.025,5c0.566-0.033,0.967,0.2,1.2,0.7
	l-1.551,2l1.551-2c-0.233-0.5-0.634-0.733-1.2-0.7L28.075,7.35z M29.575,8.6c0.4,0.634,0.35,1.351-0.15,2.15
	c-0.232,0.333-0.55,0.684-0.949,1.05c-0.467,0.4-0.983,0.634-1.551,0.7c-0.133,0-0.267,0-0.399,0
	c-0.134-0.033-0.267-0.066-0.4-0.101c-0.2-0.066-0.366-0.149-0.5-0.25c-0.167-0.1-0.3-0.183-0.399-0.25
	c0-0.033-0.018-0.05-0.051-0.05c-0.199-0.2-0.333-0.434-0.399-0.7c-0.033-0.066-0.067-0.133-0.101-0.199
	c-0.133-0.467-0.133-0.934,0-1.4c0.4-1.667,1.117-2.5,2.15-2.5c-1.033,0-1.75,0.833-2.15,2.5c-0.133,0.467-0.133,0.934,0,1.4
	c0.033,0.066,0.067,0.133,0.101,0.199c0.066,0.267,0.2,0.5,0.399,0.7c0.033,0,0.051,0.017,0.051,0.05
	c0.1,0.067,0.232,0.15,0.399,0.25c0.134,0.101,0.3,0.184,0.5,0.25c0.134,0.034,0.267,0.067,0.4,0.101c0.133,0,0.267,0,0.399,0
	c0.567-0.066,1.084-0.3,1.551-0.7c0.399-0.366,0.717-0.717,0.949-1.05C29.925,9.95,29.976,9.233,29.575,8.6z M37.476,30.1H0.925
	H37.476z M18.375,30.649V58.1h-15.2c-0.399,0-0.6-0.2-0.6-0.6V30.399V57.5c0,0.399,0.2,0.6,0.6,0.6h15.2V30.649z M8.275,46.55
	c-0.134,0.233-0.217,0.483-0.25,0.75c0,0.1,0,0.184,0,0.25c-0.033,0.467,0.083,0.917,0.35,1.35c0.833,1.467,1.75,2.084,2.75,1.851
	c-0.033-0.066-0.05-0.15-0.05-0.25v-0.101c0.033-0.433,0.267-0.85,0.7-1.25c0.399-0.433,0.816-0.649,1.25-0.649
	c0.033,0,0.066,0,0.1,0c0.067,0,0.134,0.017,0.2,0.05c0.233-0.733,0.017-1.417-0.65-2.05c-0.3-0.267-0.699-0.533-1.199-0.8
	c-0.567-0.267-1.117-0.351-1.65-0.25c-0.167,0.033-0.3,0.066-0.4,0.1c-0.133,0.066-0.267,0.134-0.399,0.2
	c-0.134,0.1-0.267,0.217-0.4,0.35c-0.133,0.134-0.233,0.267-0.3,0.4L8.275,46.55l0.05-0.05c0.066-0.134,0.167-0.267,0.3-0.4
	c0.134-0.133,0.267-0.25,0.4-0.35c0.133-0.066,0.267-0.134,0.399-0.2c0.101-0.033,0.233-0.066,0.4-0.1
	c0.533-0.101,1.083-0.017,1.65,0.25c0.5,0.267,0.899,0.533,1.199,0.8c0.667,0.633,0.884,1.316,0.65,2.05
	c-0.066-0.033-0.133-0.05-0.2-0.05c-0.033,0-0.066,0-0.1,0c-0.434,0-0.851,0.217-1.25,0.649c-0.434,0.4-0.667,0.817-0.7,1.25V50.5
	c0,0.1,0.017,0.184,0.05,0.25c-1,0.233-1.917-0.384-2.75-1.851c-0.267-0.433-0.383-0.883-0.35-1.35c0-0.066,0-0.15,0-0.25
	C8.059,47.033,8.142,46.783,8.275,46.55z M11.125,50.75c0.333-0.101,0.7-0.316,1.101-0.65l-0.4-0.55c0-0.2,0.1-0.316,0.3-0.35
	l0.601,0.449c0.3-0.399,0.5-0.767,0.6-1.1c-0.1,0.333-0.3,0.7-0.6,1.1L12.125,49.2c-0.2,0.033-0.3,0.149-0.3,0.35l0.4,0.55
	C11.825,50.434,11.458,50.649,11.125,50.75z M12.726,49.649l2,1.5c-0.067,0.534-0.384,0.867-0.95,1l-1.55-2.05l1.55,2.05
	c0.566-0.133,0.883-0.466,0.95-1L12.726,49.649z M19.625,30.649V58.1h15.15c0.399,0,0.6-0.2,0.6-0.6v-27v27c0,0.399-0.2,0.6-0.6,0.6
	h-15.15V30.649z M18.375,29.35h-15.8H18.375z M27.575,37.55c-0.233,0.2-0.5,0.3-0.8,0.3c-0.267,0-0.517-0.1-0.75-0.3
	c-0.2-0.233-0.3-0.5-0.3-0.8c0-0.267,0.1-0.517,0.3-0.75c0.233-0.2,0.483-0.3,0.75-0.3c0.3,0,0.566,0.1,0.8,0.3
	c0.167,0.233,0.25,0.483,0.25,0.75C27.825,37.05,27.742,37.316,27.575,37.55c0.167-0.233,0.25-0.5,0.25-0.8
	c0-0.267-0.083-0.517-0.25-0.75c-0.233-0.2-0.5-0.3-0.8-0.3c-0.267,0-0.517,0.1-0.75,0.3c-0.2,0.233-0.3,0.483-0.3,0.75
	c0,0.3,0.1,0.566,0.3,0.8c0.233,0.2,0.483,0.3,0.75,0.3C27.075,37.85,27.342,37.75,27.575,37.55z M35.375,29.35h-15.75H35.375z"></path>
<path fill-rule="evenodd" clip-rule="evenodd" fill="none" stroke="#383635" stroke-width="0.3" stroke-linecap="round" stroke-linejoin="round" stroke-miterlimit="3" d="
	M1.325,29.35h1.25V2.1c0-0.399,0.2-0.6,0.6-0.6h15.2v27.85h1.25V1.5h15.15c0.399,0,0.6,0.2,0.6,0.6v27.25h1.25 M26.875,7.35
	c0.167,0.467,0.5,0.834,1,1.101c0.533,0.267,1,0.35,1.4,0.25c0.033,0,0.066-0.017,0.1-0.051c0.067,0,0.134-0.017,0.2-0.05
	c-0.2-0.333-0.5-0.633-0.9-0.899l-0.449,0.55c-0.233,0.033-0.367-0.033-0.4-0.2l0.25-0.7c-0.467-0.2-0.883-0.3-1.25-0.3
	c0,0.066,0.017,0.15,0.05,0.25V7.35z M28.075,7.35L29.025,5c0.566-0.033,0.967,0.2,1.2,0.7l-1.551,2 M29.575,8.6
	c0.4,0.634,0.35,1.351-0.15,2.15c-0.232,0.333-0.55,0.684-0.949,1.05c-0.467,0.4-0.983,0.634-1.551,0.7c-0.133,0-0.267,0-0.399,0
	c-0.134-0.033-0.267-0.066-0.4-0.101c-0.2-0.066-0.366-0.149-0.5-0.25c-0.167-0.1-0.3-0.183-0.399-0.25
	c0-0.033-0.018-0.05-0.051-0.05c-0.199-0.2-0.333-0.434-0.399-0.7c-0.033-0.066-0.067-0.133-0.101-0.199
	c-0.133-0.467-0.133-0.934,0-1.4c0.4-1.667,1.117-2.5,2.15-2.5 M1.325,30.149l1.25,0.25l1.15,0.25h14.649h1.25h15.101l0.649-0.149
	l1.25-0.25l0.851-0.15H0.925L1.325,30.149z M1.325,29.35h-0.8c-0.101,0-0.184,0.033-0.25,0.101c-0.101,0.066-0.15,0.149-0.15,0.25
	c0,0.133,0.05,0.216,0.15,0.25c0.066,0.1,0.149,0.149,0.25,0.149h0.399 M18.375,30.649V58.1h-15.2c-0.399,0-0.6-0.2-0.6-0.6V30.399
	 M8.275,46.55c-0.134,0.233-0.217,0.483-0.25,0.75c0,0.1,0,0.184,0,0.25c-0.033,0.467,0.083,0.917,0.35,1.35
	c0.833,1.467,1.75,2.084,2.75,1.851c-0.033-0.066-0.05-0.15-0.05-0.25v-0.101c0.033-0.433,0.267-0.85,0.7-1.25
	c0.399-0.433,0.816-0.649,1.25-0.649c0.033,0,0.066,0,0.1,0c0.067,0,0.134,0.017,0.2,0.05c0.233-0.733,0.017-1.417-0.65-2.05
	c-0.3-0.267-0.699-0.533-1.199-0.8c-0.567-0.267-1.117-0.351-1.65-0.25c-0.167,0.033-0.3,0.066-0.4,0.1
	c-0.133,0.066-0.267,0.134-0.399,0.2c-0.134,0.1-0.267,0.217-0.4,0.35c-0.133,0.134-0.233,0.267-0.3,0.4L8.275,46.55z M11.125,50.75
	c0.333-0.101,0.7-0.316,1.101-0.65l-0.4-0.55c0-0.2,0.1-0.316,0.3-0.35l0.601,0.449c0.3-0.399,0.5-0.767,0.6-1.1 M12.726,49.649
	l2,1.5c-0.067,0.534-0.384,0.867-0.95,1l-1.55-2.05 M19.625,30.649V58.1h15.15c0.399,0,0.6-0.2,0.6-0.6v-27 M18.375,29.35h-15.8
	 M27.575,37.55c-0.233,0.2-0.5,0.3-0.8,0.3c-0.267,0-0.517-0.1-0.75-0.3c-0.2-0.233-0.3-0.5-0.3-0.8c0-0.267,0.1-0.517,0.3-0.75
	c0.233-0.2,0.483-0.3,0.75-0.3c0.3,0,0.566,0.1,0.8,0.3c0.167,0.233,0.25,0.483,0.25,0.75C27.825,37.05,27.742,37.316,27.575,37.55z
	 M37.476,30.1h0.6c0.1,0,0.184-0.05,0.25-0.149c0.1-0.034,0.15-0.117,0.15-0.25c0-0.101-0.051-0.184-0.15-0.25
	c-0.066-0.067-0.15-0.101-0.25-0.101h-1.45 M35.375,29.35h-15.75" style="stroke: rgb(0, 0, 0);"></path>
<path fill-rule="evenodd" clip-rule="evenodd" fill="none" stroke="#383635" stroke-width="0.5" stroke-linecap="round" stroke-linejoin="round" stroke-miterlimit="3" d="
	M36.625,29.35V0.899c0-0.433-0.2-0.649-0.6-0.649H1.925c-0.399,0-0.6,0.217-0.6,0.649v28.45 M1.325,30.149V58.75
	c0,0.399,0.2,0.6,0.6,0.6h34.101c0.399,0,0.6-0.2,0.6-0.6v-28.5" style="stroke: rgb(0, 0, 0);"></path>
</svg>