<svg version="1.1" id="Layer_1" xmlns="http://www.w3.org/2000/svg" xmlns:xlink="http://www.w3.org/1999/xlink" x="0px" y="0px" width="13.2px" height="12.45px" viewBox="0 0 13.2 12.45" enable-background="new 0 0 13.2 12.45" xml:space="preserve" class="ng-scope">
<path fill-rule="evenodd" clip-rule="evenodd" fill="#FFFFFF" d="M5.226,12.275l-0.051-0.051c-0.433-0.766-0.633-1.583-0.6-2.449
	c-0.434-0.167-0.816-0.417-1.15-0.75c-0.6,0.133-1.166,0.083-1.699-0.15c-0.634-0.267-1.018-0.483-1.15-0.65
	c0.434-0.232,0.8-0.566,1.1-1c0.067-0.033,0.134-0.1,0.2-0.199c-0.399-0.134-0.733-0.384-1-0.75c-0.233-0.301-0.483-0.4-0.75-0.301
	c0.567-0.566,1.067-0.949,1.5-1.149c0.101-0.034,0.233-0.067,0.4-0.101c0-0.133,0.017-0.25,0.05-0.35
	c0.033-0.133,0.066-0.25,0.1-0.35V3.975c-0.699-0.967-1.033-1.6-1-1.899c0.733-0.101,1.417-0.017,2.051,0.25
	c0.133-0.167,0.3-0.3,0.5-0.4c0-0.1,0.017-0.183,0.05-0.25c0.033-0.533-0.067-1.05-0.3-1.55c0.3,0.033,0.75,0.15,1.35,0.35
	c0.333,0.101,0.633,0.268,0.9,0.5c0.5-0.1,1-0.1,1.5,0c0.232-0.232,0.517-0.399,0.85-0.5c0.7-0.199,1.283-0.133,1.75,0.2
	c-0.467,0.134-0.667,0.483-0.6,1.05c0.232,0.167,0.449,0.367,0.649,0.601c0.634-0.233,1.283-0.333,1.95-0.3
	c0,0.366-0.3,0.967-0.9,1.8c0.033,0.2,0.084,0.417,0.15,0.649c0.7,0.066,1.367,0.316,2,0.75c-0.233,0.301-0.867,0.684-1.9,1.15
	l-0.05,0.05c0,0.101-0.017,0.217-0.05,0.351c-0.066,0.266-0.167,0.5-0.3,0.699c0.3,0.4,0.45,0.851,0.45,1.351
	c0.066,0.7,0.05,1.116-0.051,1.25c-0.399-0.233-0.85-0.4-1.35-0.5c-0.233-0.034-0.45-0.083-0.65-0.15
	c0.067,0.067,0.084,0.15,0.051,0.25c0.166,1.134,0.166,1.851,0,2.15c-0.834-0.4-1.483-0.95-1.95-1.65
	c-0.233,0.034-0.45,0.05-0.65,0.05c-0.033,0.101-0.083,0.217-0.149,0.351c-0.5,0.933-0.9,1.483-1.2,1.649
	C5.275,12.258,5.259,12.275,5.226,12.275z"></path>
<path fill-rule="evenodd" clip-rule="evenodd" fill="#FFFFFF" d="M2.875,4.475c-0.066,0.066-0.083,0.117-0.05,0.15
	c-0.033,0.033-0.033,0.066,0,0.1l-0.05,0.051c-0.033,0.066-0.033,0.116,0,0.149c0.066,0.067,0.1,0.116,0.1,0.15
	c-0.033,0.066-0.017,0.134,0.05,0.2c0.067,0.133,0.233,0.3,0.5,0.5c0.367,0.232,0.768,0.399,1.2,0.5c0.101,0,0.2,0.016,0.3,0.05
	c-0.232,0.1-0.433,0.183-0.6,0.25c-0.233,0.134-0.483,0.333-0.75,0.6L3.55,7.2c-0.15,0.253-0.242,0.429-0.274,0.524
	c-0.033,0.066-0.033,0.117,0,0.15s0.066,0.05,0.1,0.05v0.05c-0.033,0.066-0.017,0.101,0.05,0.101c0.033,0,0.067,0.033,0.101,0.1
	c0.066,0.067,0.116,0.101,0.149,0.101c0.134,0.033,0.317,0.033,0.551,0c0.287-0.086,0.57-0.211,0.85-0.375
	c0.054-0.022,0.104-0.048,0.15-0.075c0.133-0.101,0.267-0.217,0.399-0.351c0,0.033-0.017,0.084-0.05,0.15
	c-0.133,0.267-0.2,0.6-0.2,1c0.033,0.334,0.083,0.566,0.15,0.7c0,0.066,0.033,0.116,0.1,0.149h0.05l0.051,0.051
	c0.033,0.1,0.066,0.116,0.1,0.05c0.033-0.034,0.083-0.017,0.15,0.05c0.066,0.033,0.116,0.033,0.149,0c0.101,0,0.233-0.1,0.4-0.3
	c0.167-0.233,0.3-0.534,0.399-0.9C6.962,8.498,7.004,8.574,7.05,8.65c0.091,0.123,0.199,0.248,0.325,0.375
	c0.267,0.3,0.483,0.482,0.65,0.55c0.1,0.066,0.183,0.083,0.25,0.05l0.05-0.05c0.033,0.033,0.066,0.05,0.1,0.05
	c0.067,0.033,0.117,0.033,0.15,0c0-0.033,0.033-0.066,0.1-0.1c0.101,0.033,0.184,0.033,0.25,0c0.067-0.066,0.084-0.234,0.051-0.5
	c0-0.334-0.117-0.684-0.351-1.051c-0.133-0.232-0.283-0.482-0.45-0.75L8.2,7.25c0.088,0.055,0.163,0.113,0.225,0.175
	c0.268,0.134,0.584,0.2,0.95,0.2c0.3,0,0.5-0.017,0.601-0.05c0.066-0.067,0.116-0.116,0.149-0.15l-0.05-0.1h0.05
	c0.067-0.034,0.083-0.083,0.05-0.15c-0.033-0.033-0.05-0.066-0.05-0.1c0.067-0.067,0.083-0.134,0.05-0.2
	c-0.021-0.066-0.08-0.15-0.175-0.25C9.949,6.58,9.892,6.529,9.825,6.475c-0.267-0.232-0.583-0.399-0.95-0.5
	c-0.1,0-0.2-0.016-0.3-0.05c0.2-0.1,0.383-0.183,0.55-0.25c0.333-0.134,0.634-0.333,0.9-0.6s0.399-0.467,0.399-0.601
	c0-0.043-0.017-0.076-0.05-0.1h-0.05l-0.05-0.1c0.033,0,0.033-0.018,0-0.051c0-0.066-0.033-0.1-0.101-0.1
	c-0.066,0-0.116-0.033-0.149-0.1c-0.033-0.033-0.083-0.066-0.15-0.101c-0.167-0.066-0.399-0.05-0.7,0.05
	c-0.172,0.015-0.339,0.048-0.5,0.101c-0.225,0.067-0.441,0.167-0.649,0.3c0.1-0.3,0.167-0.666,0.2-1.1
	c0-0.4-0.033-0.667-0.101-0.801c-0.066-0.1-0.116-0.166-0.149-0.199L7.875,2.225v-0.1c-0.066-0.066-0.116-0.084-0.149-0.05
	c-0.033,0-0.067-0.017-0.101-0.05c-0.033-0.066-0.1-0.101-0.2-0.101c-0.1,0-0.217,0.101-0.35,0.3c-0.233,0.234-0.4,0.584-0.5,1.051
	c-0.066,0.232-0.117,0.5-0.15,0.8c-0.033-0.101-0.066-0.2-0.1-0.3c-0.03-0.135-0.08-0.269-0.15-0.4
	c-0.086-0.168-0.203-0.335-0.35-0.5c-0.233-0.233-0.417-0.4-0.55-0.5c-0.101,0-0.167,0.017-0.2,0.05c-0.033-0.033-0.05-0.033-0.05,0
	l-0.05-0.05c-0.067-0.033-0.101-0.017-0.101,0.05C4.842,2.459,4.792,2.492,4.726,2.525c-0.067-0.033-0.117-0.018-0.15,0.05
	c-0.066,0.066-0.1,0.216-0.1,0.45c0.002,0.025,0.002,0.051,0,0.074c0.046,0.313,0.146,0.638,0.3,0.976
	c0.133,0.233,0.283,0.483,0.45,0.75c-0.2-0.134-0.384-0.233-0.551-0.3c-0.366-0.167-0.75-0.234-1.149-0.2
	c-0.163,0.017-0.296,0.032-0.4,0.05C3.01,4.408,2.927,4.441,2.875,4.475c0.052-0.033,0.135-0.066,0.25-0.1
	c0.104-0.018,0.237-0.033,0.4-0.05c0.399-0.034,0.783,0.033,1.149,0.2c0.167,0.066,0.351,0.166,0.551,0.3
	c-0.167-0.267-0.317-0.517-0.45-0.75C4.622,3.737,4.521,3.412,4.476,3.1c0.002-0.023,0.002-0.049,0-0.074
	c0-0.234,0.033-0.384,0.1-0.45c0.033-0.067,0.083-0.083,0.15-0.05c0.066-0.033,0.116-0.066,0.149-0.101
	c0-0.066,0.033-0.083,0.101-0.05l0.05,0.05c0-0.033,0.017-0.033,0.05,0c0.033-0.033,0.1-0.05,0.2-0.05
	c0.133,0.1,0.316,0.267,0.55,0.5c0.146,0.165,0.264,0.332,0.35,0.5c0.07,0.132,0.12,0.266,0.15,0.4c0.033,0.1,0.066,0.199,0.1,0.3
	c0.033-0.3,0.084-0.567,0.15-0.8c0.1-0.467,0.267-0.816,0.5-1.051c0.133-0.199,0.25-0.3,0.35-0.3c0.101,0,0.167,0.034,0.2,0.101
	c0.033,0.033,0.067,0.05,0.101,0.05c0.033-0.034,0.083-0.017,0.149,0.05v0.1l0.101,0.051c0.033,0.033,0.083,0.1,0.149,0.199
	c0.067,0.134,0.101,0.4,0.101,0.801c-0.033,0.434-0.101,0.8-0.2,1.1c0.208-0.133,0.425-0.232,0.649-0.3
	c0.161-0.053,0.328-0.086,0.5-0.101c0.301-0.1,0.533-0.116,0.7-0.05c0.067,0.034,0.117,0.067,0.15,0.101
	c0.033,0.066,0.083,0.1,0.149,0.1c0.067,0,0.101,0.033,0.101,0.1c0.033,0.033,0.033,0.051,0,0.051l0.05,0.1h0.05
	c0.033,0.023,0.05,0.057,0.05,0.1c0,0.134-0.133,0.334-0.399,0.601s-0.567,0.466-0.9,0.6c-0.167,0.067-0.35,0.15-0.55,0.25
	c0.1,0.034,0.2,0.05,0.3,0.05c0.367,0.101,0.684,0.268,0.95,0.5C9.892,6.529,9.949,6.58,10,6.625c0.095,0.1,0.153,0.184,0.175,0.25
	c0.033,0.066,0.018,0.133-0.05,0.2c0,0.033,0.017,0.066,0.05,0.1c0.033,0.067,0.018,0.116-0.05,0.15h-0.05l0.05,0.1
	c-0.033,0.034-0.083,0.083-0.149,0.15c-0.101,0.033-0.301,0.05-0.601,0.05c-0.366,0-0.683-0.066-0.95-0.2
	C8.363,7.363,8.288,7.305,8.2,7.25L8.175,7.225c0.167,0.268,0.317,0.518,0.45,0.75c0.233,0.367,0.351,0.717,0.351,1.051
	c0.033,0.266,0.017,0.434-0.051,0.5c-0.066,0.033-0.149,0.033-0.25,0c-0.066,0.033-0.1,0.066-0.1,0.1
	c-0.033,0.033-0.083,0.033-0.15,0c-0.033,0-0.066-0.017-0.1-0.05l-0.05,0.05c-0.067,0.033-0.15,0.017-0.25-0.05
	c-0.167-0.067-0.384-0.25-0.65-0.55C7.249,8.898,7.141,8.773,7.05,8.65C7.004,8.574,6.962,8.498,6.925,8.425
	c-0.1,0.366-0.232,0.667-0.399,0.9c-0.167,0.2-0.3,0.3-0.4,0.3c-0.033,0.033-0.083,0.033-0.149,0
	c-0.067-0.066-0.117-0.084-0.15-0.05c-0.033,0.066-0.066,0.05-0.1-0.05L5.675,9.475h-0.05c-0.066-0.033-0.1-0.083-0.1-0.149
	c-0.067-0.134-0.117-0.366-0.15-0.7c0-0.4,0.067-0.733,0.2-1c0.033-0.066,0.05-0.117,0.05-0.15c-0.133,0.134-0.267,0.25-0.399,0.351
	C5.179,7.853,5.129,7.878,5.075,7.9c-0.279,0.164-0.563,0.289-0.85,0.375c-0.233,0.033-0.417,0.033-0.551,0
	c-0.033,0-0.083-0.033-0.149-0.101c-0.033-0.066-0.067-0.1-0.101-0.1c-0.066,0-0.083-0.034-0.05-0.101v-0.05
	c-0.033,0-0.066-0.017-0.1-0.05s-0.033-0.084,0-0.15C3.308,7.629,3.399,7.453,3.55,7.2l0.025-0.025
	c0.267-0.267,0.517-0.466,0.75-0.6c0.167-0.067,0.367-0.15,0.6-0.25c-0.1-0.034-0.199-0.05-0.3-0.05
	c-0.433-0.101-0.833-0.268-1.2-0.5c-0.267-0.2-0.433-0.367-0.5-0.5c-0.066-0.066-0.083-0.134-0.05-0.2c0-0.034-0.033-0.083-0.1-0.15
	c-0.033-0.033-0.033-0.083,0-0.149l0.05-0.051c-0.033-0.033-0.033-0.066,0-0.1C2.792,4.592,2.809,4.541,2.875,4.475z"></path>
<path fill-rule="evenodd" clip-rule="evenodd" fill="#FFFFFF" d="M3.125,4.375c-0.117,0.015-0.234,0.031-0.35,0.05
	c-0.033,0.034-0.083,0.05-0.15,0.05c-0.2,0.033-0.399,0.117-0.6,0.25c0.2-0.133,0.399-0.217,0.6-0.25c0.067,0,0.117-0.016,0.15-0.05
	C2.891,4.406,3.008,4.39,3.125,4.375z"></path>
<path fill-rule="evenodd" clip-rule="evenodd" fill="#FFFFFF" d="M2.625,4.475c-0.167-0.166-0.316-0.316-0.45-0.449
	C2.309,4.158,2.458,4.309,2.625,4.475z"></path>
<path fill-rule="evenodd" clip-rule="evenodd" fill="#FFFFFF" d="M6.175,3.375c0.049-0.467,0.149-0.949,0.301-1.45l-0.051-0.05
	c-0.033-0.066-0.066-0.15-0.1-0.25c-0.2-0.267-0.4-0.483-0.6-0.65c0.199,0.167,0.399,0.384,0.6,0.65c0.033,0.1,0.066,0.184,0.1,0.25
	l0.051,0.05C6.324,2.426,6.224,2.908,6.175,3.375z"></path>
<path fill-rule="evenodd" clip-rule="evenodd" fill="#FFFFFF" d="M6.325,1.625c0.1-0.033,0.217-0.033,0.35,0
	C6.542,1.592,6.425,1.592,6.325,1.625z"></path>
<path fill-rule="evenodd" clip-rule="evenodd" fill="#FFFFFF" d="M6.675,1.625c0.167-0.267,0.351-0.483,0.551-0.65
	C7.025,1.142,6.842,1.358,6.675,1.625c-0.066,0.1-0.133,0.184-0.199,0.25v0.05v-0.05C6.542,1.809,6.608,1.725,6.675,1.625z"></path>
<path fill-rule="evenodd" clip-rule="evenodd" fill="#FFFFFF" d="M3.726,1.925c0,0.2,0,0.417,0,0.65
	c0.033,0.033,0.083,0.066,0.149,0.1C4.089,2.797,4.289,2.938,4.476,3.1C4.289,2.938,4.089,2.797,3.875,2.675
	c-0.066-0.033-0.116-0.066-0.149-0.1C3.726,2.342,3.726,2.125,3.726,1.925z"></path>
<path fill-rule="evenodd" clip-rule="evenodd" fill="#FFFFFF" d="M6.525,6.525c0,0.1-0.033,0.184-0.101,0.25
	c-0.066,0.033-0.116,0.066-0.149,0.1v-0.05h-0.05c0,0.033-0.018,0.033-0.051,0c0,0.033-0.017,0.033-0.05,0V6.725
	c0.033-0.133,0.05-0.217,0.05-0.25s0.018-0.05,0.051-0.05l-0.051-0.05l-0.05,0.05C6.112,6.438,6.096,6.445,6.075,6.45
	c-0.014,0.017-0.03,0.024-0.05,0.024H5.925L5.851,6.4l0.024-0.025c-0.033,0-0.05-0.017-0.05-0.05c0.033-0.034,0.066-0.067,0.1-0.101
	c0.067-0.066,0.117-0.1,0.15-0.1c0.066-0.033,0.133-0.05,0.2-0.05l0.1-0.05c-0.033-0.033-0.066-0.066-0.1-0.101
	c-0.033,0-0.067-0.017-0.101-0.05c0-0.033-0.017-0.066-0.05-0.1c-0.033-0.066-0.066-0.134-0.1-0.2
	c0.033-0.034,0.05-0.067,0.05-0.101v-0.05h0.1c0.027,0,0.053,0.009,0.075,0.025l0.075,0.075h0.05c0.032,0.031,0.049,0.065,0.05,0.1
	c0-0.101,0-0.167,0-0.2h0.051c0-0.033,0.017-0.066,0.05-0.1c0.033,0,0.066-0.017,0.1-0.05h0.05c0-0.033,0.018-0.033,0.051,0
	c0,0.033,0,0.083,0,0.149c0.066,0.067,0.083,0.134,0.05,0.2v0.05c0.066-0.033,0.149-0.066,0.25-0.1h0.05c0.041,0,0.074,0,0.1,0
	h0.051v0.1h0.05l-0.05,0.05L7.175,5.825v0.05l-0.05-0.05c-0.009,0.018-0.017,0.034-0.024,0.05c-0.026,0.043-0.051,0.076-0.075,0.1
	c-0.033,0-0.067,0.018-0.101,0.051c0.067,0,0.134,0.033,0.2,0.1c0.067,0.033,0.101,0.066,0.101,0.1
	c-0.033,0.033-0.033,0.051,0,0.051V6.3L7.2,6.325c-0.184,0.033-0.309,0.017-0.375-0.05c0,0.066,0.017,0.116,0.05,0.149
	c0.033,0.034,0.067,0.101,0.101,0.2c-0.033-0.1-0.067-0.166-0.101-0.2c-0.033-0.033-0.05-0.083-0.05-0.149
	C6.892,6.342,7.017,6.358,7.2,6.325L7.226,6.3V6.275c-0.033,0-0.033-0.018,0-0.051c0-0.033-0.033-0.066-0.101-0.1
	c-0.066-0.066-0.133-0.1-0.2-0.1c0.033-0.033,0.067-0.051,0.101-0.051c0.024-0.023,0.049-0.057,0.075-0.1
	c0.008-0.016,0.016-0.032,0.024-0.05l0.05,0.05v-0.05l0.051-0.101l0.05-0.05h-0.05v-0.1H7.175c-0.025,0-0.059,0-0.1,0h-0.05
	c-0.101,0.033-0.184,0.066-0.25,0.1v-0.05c0.033-0.066,0.017-0.133-0.05-0.2c0-0.066,0-0.116,0-0.149
	c-0.033-0.033-0.051-0.033-0.051,0h-0.05c-0.033,0.033-0.066,0.05-0.1,0.05c-0.033,0.033-0.05,0.066-0.05,0.1H6.425
	c0,0.033,0,0.1,0,0.2c-0.001-0.034-0.018-0.068-0.05-0.1h-0.05L6.25,5.45C6.228,5.434,6.202,5.425,6.175,5.425h-0.1v0.05
	c0,0.033-0.017,0.066-0.05,0.101c0.033,0.066,0.066,0.134,0.1,0.2c0.033,0.033,0.05,0.066,0.05,0.1
	c0.033,0.033,0.067,0.05,0.101,0.05c0.033,0.034,0.066,0.067,0.1,0.101l-0.1,0.05c-0.067,0-0.134,0.017-0.2,0.05
	c-0.033,0-0.083,0.033-0.15,0.1c-0.033,0.033-0.066,0.066-0.1,0.101c0,0.033,0.017,0.05,0.05,0.05L5.851,6.4l0.074,0.074h0.101
	c0.02,0,0.036-0.008,0.05-0.024c0.021-0.005,0.037-0.013,0.05-0.025l0.05-0.05l0.051,0.05c-0.033,0-0.051,0.017-0.051,0.05
	s-0.017,0.117-0.05,0.25v0.101c0.033,0.033,0.05,0.033,0.05,0c0.033,0.033,0.051,0.033,0.051,0h0.05v0.05
	c0.033-0.033,0.083-0.066,0.149-0.1C6.492,6.709,6.525,6.625,6.525,6.525z"></path>
<path fill-rule="evenodd" clip-rule="evenodd" fill="#FFFFFF" d="M9.226,1.725c0,0.268,0,0.551,0,0.851
	c0.199-0.134,0.416-0.217,0.649-0.25c-0.233,0.033-0.45,0.116-0.649,0.25C9.226,2.275,9.226,1.992,9.226,1.725z"></path>
<path fill-rule="evenodd" clip-rule="evenodd" fill="#FFFFFF" d="M10.925,3.825c-0.066,0.066-0.116,0.116-0.149,0.149
	c-0.101,0.134-0.217,0.25-0.351,0.351c0.233,0.033,0.45,0.083,0.65,0.149c-0.2-0.066-0.417-0.116-0.65-0.149
	c0.134-0.101,0.25-0.217,0.351-0.351C10.809,3.941,10.858,3.892,10.925,3.825z"></path>
<path fill-rule="evenodd" clip-rule="evenodd" fill="#FFFFFF" d="M8.675,4.075c0.27-0.442,0.437-0.925,0.5-1.45l0.051-0.05
	l-0.051,0.05C9.111,3.15,8.944,3.633,8.675,4.075z"></path>
<path fill-rule="evenodd" clip-rule="evenodd" fill="#FFFFFF" d="M10.425,4.325c-0.021,0.021-0.037,0.037-0.05,0.05
	C10.388,4.362,10.404,4.346,10.425,4.325z"></path>
<path fill-rule="evenodd" clip-rule="evenodd" fill="#FFFFFF" d="M10,6.625h0.025c0.133,0,0.25-0.017,0.35-0.05
	c0.267-0.034,0.517-0.083,0.75-0.15c-0.233,0.067-0.483,0.116-0.75,0.15c-0.1,0.033-0.217,0.05-0.35,0.05H10z"></path>
<path fill-rule="evenodd" clip-rule="evenodd" fill="#FFFFFF" d="M10.275,6.925h0.05c0.167,0.2,0.316,0.384,0.45,0.55
	c-0.134-0.166-0.283-0.35-0.45-0.55H10.275c0.033-0.134,0.066-0.25,0.1-0.35C10.342,6.675,10.309,6.791,10.275,6.925
	c-0.067-0.1-0.15-0.2-0.25-0.3C10.125,6.725,10.208,6.825,10.275,6.925z"></path>
<path fill-rule="evenodd" clip-rule="evenodd" fill="#FFFFFF" d="M3.226,2.325c0.166,0.066,0.333,0.149,0.5,0.25
	C3.559,2.475,3.392,2.392,3.226,2.325z"></path>
<path fill-rule="evenodd" clip-rule="evenodd" fill="#FFFFFF" d="M8.2,7.25c0.354,0.471,0.63,0.962,0.825,1.475
	c0.066,0.2,0.133,0.434,0.2,0.7H9.175h0.051c-0.067-0.267-0.134-0.5-0.2-0.7C8.83,8.212,8.555,7.721,8.2,7.25z"></path>
<path fill-rule="evenodd" clip-rule="evenodd" fill="#FFFFFF" d="M7.05,8.65C7.037,8.952,6.995,9.244,6.925,9.525v0.05
	c0.101,0.2,0.217,0.399,0.351,0.6c-0.134-0.2-0.25-0.399-0.351-0.6v-0.05C6.995,9.244,7.037,8.952,7.05,8.65z"></path>
<path fill-rule="evenodd" clip-rule="evenodd" fill="#FFFFFF" d="M3.425,9.025c0.134-0.066,0.283-0.117,0.45-0.15
	c0.101-0.066,0.167-0.117,0.2-0.15c0.4-0.266,0.733-0.533,1-0.8V7.9v0.024c-0.267,0.267-0.6,0.534-1,0.8
	c-0.033,0.033-0.1,0.084-0.2,0.15C3.708,8.908,3.559,8.959,3.425,9.025z"></path>
<path fill-rule="evenodd" clip-rule="evenodd" fill="#FFFFFF" d="M4.075,8.725c0.233,0.101,0.434,0.217,0.6,0.351
	C4.509,8.941,4.309,8.825,4.075,8.725z"></path>
<path fill-rule="evenodd" clip-rule="evenodd" fill="#FFFFFF" d="M4.675,9.075c0.101-0.366,0.233-0.75,0.4-1.15
	C4.908,8.325,4.775,8.709,4.675,9.075z"></path>
<path fill-rule="evenodd" clip-rule="evenodd" fill="#FFFFFF" d="M4.575,9.775c0-0.234,0.033-0.467,0.1-0.7
	C4.608,9.309,4.575,9.541,4.575,9.775z"></path>
<path fill-rule="evenodd" clip-rule="evenodd" fill="#FFFFFF" d="M6.925,9.575c-0.066,0.233-0.166,0.45-0.3,0.649
	C6.759,10.025,6.858,9.809,6.925,9.575z"></path>
<path fill-rule="evenodd" clip-rule="evenodd" fill="#FFFFFF" d="M1.875,7.025c0.067,0.066,0.167,0.116,0.3,0.149
	c0.167,0.034,0.367,0.067,0.601,0.101c0.066-0.033,0.133-0.033,0.2,0C3.175,7.256,3.366,7.231,3.55,7.2
	C3.366,7.231,3.175,7.256,2.976,7.275c-0.067-0.033-0.134-0.033-0.2,0C2.542,7.242,2.342,7.209,2.175,7.175
	C2.042,7.142,1.942,7.092,1.875,7.025z"></path>
<radialGradient id="SVGID_1_" cx="94.3232" cy="-40.5508" r="4.6156" gradientTransform="matrix(0.9957 0.0925 0.302 -0.759 -75.9417 -30.1929)" gradientUnits="userSpaceOnUse">
	<stop offset="0" style="stop-color:#AAD376"></stop>
	<stop offset="1" style="stop-color:#5B8945"></stop>
</radialGradient>
<path fill-rule="evenodd" clip-rule="evenodd" fill="url(#SVGID_1_)" d="M5.175,12.225l0.051,0.051c0,0.033-0.018,0.05-0.051,0.05
	C5.175,12.291,5.175,12.258,5.175,12.225z" style="fill: rgb(0, 0, 0);"></path>
<path fill-rule="evenodd" clip-rule="evenodd" fill="none" stroke="#383635" stroke-width="0.3" stroke-linecap="round" stroke-linejoin="round" stroke-miterlimit="3" d="
	M2.175,4.025V3.975c-0.699-0.967-1.033-1.6-1-1.899c0.733-0.101,1.417-0.017,2.051,0.25c0.166,0.066,0.333,0.149,0.5,0.25" style="stroke: rgb(0, 0, 0);"></path>
<path fill-rule="evenodd" clip-rule="evenodd" fill="none" stroke="#383635" stroke-width="0.3" stroke-linecap="round" stroke-linejoin="round" stroke-miterlimit="3" d="
	M3.726,1.925c0-0.1,0.017-0.183,0.05-0.25c0.033-0.533-0.067-1.05-0.3-1.55c0.3,0.033,0.75,0.15,1.35,0.35
	c0.333,0.101,0.633,0.268,0.9,0.5" style="stroke: rgb(0, 0, 0);"></path>
<path fill-rule="evenodd" clip-rule="evenodd" fill="none" stroke="#383635" stroke-width="0.3" stroke-linecap="round" stroke-linejoin="round" stroke-miterlimit="3" d="
	M7.226,0.975c0.232-0.232,0.517-0.399,0.85-0.5c0.7-0.199,1.283-0.133,1.75,0.2c-0.467,0.134-0.667,0.483-0.6,1.05
	c0,0.268,0,0.551,0,0.851c0.199-0.134,0.416-0.217,0.649-0.25c0.634-0.233,1.283-0.333,1.95-0.3c0,0.366-0.3,0.967-0.9,1.8
	c-0.066,0.066-0.116,0.116-0.149,0.149c-0.101,0.134-0.217,0.25-0.351,0.351c0.233,0.033,0.45,0.083,0.65,0.149
	c0.7,0.066,1.367,0.316,2,0.75c-0.233,0.301-0.867,0.684-1.9,1.15l-0.05,0.05" style="stroke: rgb(0, 0, 0);"></path>
<path fill-rule="evenodd" clip-rule="evenodd" fill="none" stroke="#383635" stroke-width="0.3" stroke-linecap="round" stroke-linejoin="round" stroke-miterlimit="3" d="
	M10.775,7.475c0.3,0.4,0.45,0.851,0.45,1.351c0.066,0.7,0.05,1.116-0.051,1.25c-0.399-0.233-0.85-0.4-1.35-0.5
	c-0.233-0.034-0.45-0.083-0.65-0.15c0.067,0.067,0.084,0.15,0.051,0.25c0.166,1.134,0.166,1.851,0,2.15
	c-0.834-0.4-1.483-0.95-1.95-1.65" style="stroke: rgb(0, 0, 0);"></path>
<path fill-rule="evenodd" clip-rule="evenodd" fill="none" stroke="#383635" stroke-width="0.3" stroke-linecap="round" stroke-linejoin="round" stroke-miterlimit="3" d="
	M6.625,10.225c-0.033,0.101-0.083,0.217-0.149,0.351c-0.5,0.933-0.9,1.483-1.2,1.649c0,0.033-0.017,0.051-0.05,0.051
	c0,0.033-0.018,0.05-0.051,0.05c0-0.034,0-0.067,0-0.101c-0.433-0.766-0.633-1.583-0.6-2.449c0-0.234,0.033-0.467,0.1-0.7
	c0.101-0.366,0.233-0.75,0.4-1.15" style="stroke: rgb(0, 0, 0);"></path>
<path fill-rule="evenodd" clip-rule="evenodd" fill="none" stroke="#383635" stroke-width="0.3" stroke-linecap="round" stroke-linejoin="round" stroke-miterlimit="3" d="
	M3.425,9.025c-0.6,0.133-1.166,0.083-1.699-0.15c-0.634-0.267-1.018-0.483-1.15-0.65c0.434-0.232,0.8-0.566,1.1-1
	c0.067-0.033,0.134-0.1,0.2-0.199c-0.399-0.134-0.733-0.384-1-0.75c-0.233-0.301-0.483-0.4-0.75-0.301
	c0.567-0.566,1.067-0.949,1.5-1.149c0.101-0.034,0.233-0.067,0.4-0.101" style="stroke: rgb(0, 0, 0);"></path>
<path fill-rule="evenodd" clip-rule="evenodd" fill="none" stroke="#383635" stroke-width="0.3" stroke-linecap="round" stroke-linejoin="round" stroke-miterlimit="3" d="
	M3.125,4.375c-0.117,0.015-0.234,0.031-0.35,0.05c-0.033,0.034-0.083,0.05-0.15,0.05c-0.2,0.033-0.399,0.117-0.6,0.25" style="stroke: rgb(0, 0, 0);"></path>
<path fill-rule="evenodd" clip-rule="evenodd" fill="none" stroke="#383635" stroke-width="0.3" stroke-linecap="round" stroke-linejoin="round" stroke-miterlimit="3" d="
	M2.625,4.475c-0.167-0.166-0.316-0.316-0.45-0.449" style="stroke: rgb(0, 0, 0);"></path>
<path fill-rule="evenodd" clip-rule="evenodd" fill="none" stroke="#383635" stroke-width="0.3" stroke-linecap="round" stroke-linejoin="round" stroke-miterlimit="3" d="
	M6.175,3.375c0.049-0.467,0.149-0.949,0.301-1.45l-0.051-0.05c-0.033-0.066-0.066-0.15-0.1-0.25c-0.2-0.267-0.4-0.483-0.6-0.65" style="stroke: rgb(0, 0, 0);"></path>
<path fill-rule="evenodd" clip-rule="evenodd" fill="none" stroke="#383635" stroke-width="0.3" stroke-linecap="round" stroke-linejoin="round" stroke-miterlimit="3" d="
	M6.675,1.625c0.167-0.267,0.351-0.483,0.551-0.65" style="stroke: rgb(0, 0, 0);"></path>
<path fill-rule="evenodd" clip-rule="evenodd" fill="none" stroke="#383635" stroke-width="0.3" stroke-linecap="round" stroke-linejoin="round" stroke-miterlimit="3" d="
	M6.675,1.625c-0.066,0.1-0.133,0.184-0.199,0.25v0.05" style="stroke: rgb(0, 0, 0);"></path>
<path fill-rule="evenodd" clip-rule="evenodd" fill="none" stroke="#383635" stroke-width="0.3" stroke-linecap="round" stroke-linejoin="round" stroke-miterlimit="3" d="
	M3.726,1.925c0,0.2,0,0.417,0,0.65c0.033,0.033,0.083,0.066,0.149,0.1C4.089,2.797,4.289,2.938,4.476,3.1" style="stroke: rgb(0, 0, 0);"></path>
<path fill-rule="evenodd" clip-rule="evenodd" fill="none" stroke="#383635" stroke-width="0.3" stroke-linecap="round" stroke-linejoin="round" stroke-miterlimit="3" d="
	M8.675,4.075c0.27-0.442,0.437-0.925,0.5-1.45l0.051-0.05" style="stroke: rgb(0, 0, 0);"></path>
<path fill-rule="evenodd" clip-rule="evenodd" fill="none" stroke="#383635" stroke-width="0.3" stroke-linecap="round" stroke-linejoin="round" stroke-miterlimit="3" d="
	M10.425,4.325c-0.021,0.021-0.037,0.037-0.05,0.05" style="stroke: rgb(0, 0, 0);"></path>
<path fill-rule="evenodd" clip-rule="evenodd" fill="none" stroke="#383635" stroke-width="0.3" stroke-linecap="round" stroke-linejoin="round" stroke-miterlimit="3" d="
	M10,6.625h0.025c0.133,0,0.25-0.017,0.35-0.05c0.267-0.034,0.517-0.083,0.75-0.15" style="stroke: rgb(0, 0, 0);"></path>
<path fill-rule="evenodd" clip-rule="evenodd" fill="none" stroke="#383635" stroke-width="0.3" stroke-linecap="round" stroke-linejoin="round" stroke-miterlimit="3" d="
	M10.275,6.925h0.05c0.167,0.2,0.316,0.384,0.45,0.55" style="stroke: rgb(0, 0, 0);"></path>
<path fill-rule="evenodd" clip-rule="evenodd" fill="none" stroke="#383635" stroke-width="0.3" stroke-linecap="round" stroke-linejoin="round" stroke-miterlimit="3" d="
	M10.025,6.625c0.1,0.1,0.183,0.2,0.25,0.3" style="stroke: rgb(0, 0, 0);"></path>
<path fill-rule="evenodd" clip-rule="evenodd" fill="none" stroke="#383635" stroke-width="0.3" stroke-linecap="round" stroke-linejoin="round" stroke-miterlimit="3" d="
	M8.2,7.25c0.354,0.471,0.63,0.962,0.825,1.475c0.066,0.2,0.133,0.434,0.2,0.7H9.175" style="stroke: rgb(0, 0, 0);"></path>
<path fill-rule="evenodd" clip-rule="evenodd" fill="none" stroke="#383635" stroke-width="0.3" stroke-linecap="round" stroke-linejoin="round" stroke-miterlimit="3" d="
	M7.05,8.65C7.037,8.952,6.995,9.244,6.925,9.525v0.05c0.101,0.2,0.217,0.399,0.351,0.6" style="stroke: rgb(0, 0, 0);"></path>
<path fill-rule="evenodd" clip-rule="evenodd" fill="none" stroke="#383635" stroke-width="0.3" stroke-linecap="round" stroke-linejoin="round" stroke-miterlimit="3" d="
	M3.425,9.025c0.134-0.066,0.283-0.117,0.45-0.15c0.101-0.066,0.167-0.117,0.2-0.15c0.4-0.266,0.733-0.533,1-0.8V7.9" style="stroke: rgb(0, 0, 0);"></path>
<path fill-rule="evenodd" clip-rule="evenodd" fill="none" stroke="#383635" stroke-width="0.3" stroke-linecap="round" stroke-linejoin="round" stroke-miterlimit="3" d="
	M6.925,9.575c-0.066,0.233-0.166,0.45-0.3,0.649" style="stroke: rgb(0, 0, 0);"></path>
<path fill-rule="evenodd" clip-rule="evenodd" fill="none" stroke="#383635" stroke-width="0.3" stroke-linecap="round" stroke-linejoin="round" stroke-miterlimit="3" d="
	M1.875,7.025c0.067,0.066,0.167,0.116,0.3,0.149c0.167,0.034,0.367,0.067,0.601,0.101c0.066-0.033,0.133-0.033,0.2,0
	C3.175,7.256,3.366,7.231,3.55,7.2" style="stroke: rgb(0, 0, 0);"></path>
<path fill-rule="evenodd" clip-rule="evenodd" fill="none" stroke="#383635" stroke-width="0.3" d="M3.226,2.325
	c0.133-0.167,0.3-0.3,0.5-0.4" style="stroke: rgb(0, 0, 0);"></path>
<path fill-rule="evenodd" clip-rule="evenodd" fill="none" stroke="#383635" stroke-width="0.3" d="M5.726,0.975
	c0.5-0.1,1-0.1,1.5,0" style="stroke: rgb(0, 0, 0);"></path>
<path fill-rule="evenodd" clip-rule="evenodd" fill="none" stroke="#383635" stroke-width="0.3" d="M9.226,1.725
	c0.232,0.167,0.449,0.367,0.649,0.601" style="stroke: rgb(0, 0, 0);"></path>
<path fill-rule="evenodd" clip-rule="evenodd" fill="none" stroke="#383635" stroke-width="0.3" d="M10.925,3.825
	c0.033,0.2,0.084,0.417,0.15,0.649" style="stroke: rgb(0, 0, 0);"></path>
<path fill-rule="evenodd" clip-rule="evenodd" fill="none" stroke="#383635" stroke-width="0.3" d="M11.125,6.425
	c0,0.101-0.017,0.217-0.05,0.351c-0.066,0.266-0.167,0.5-0.3,0.699" style="stroke: rgb(0, 0, 0);"></path>
<path fill-rule="evenodd" clip-rule="evenodd" fill="none" stroke="#383635" stroke-width="0.3" d="M7.275,10.175
	c-0.233,0.034-0.45,0.05-0.65,0.05" style="stroke: rgb(0, 0, 0);"></path>
<path fill-rule="evenodd" clip-rule="evenodd" fill="none" stroke="#383635" stroke-width="0.3" d="M4.575,9.775
	c-0.434-0.167-0.816-0.417-1.15-0.75" style="stroke: rgb(0, 0, 0);"></path>
<path fill-rule="evenodd" clip-rule="evenodd" fill="none" stroke="#383635" stroke-width="0.3" d="M2.025,4.725
	c0-0.133,0.017-0.25,0.05-0.35c0.033-0.133,0.066-0.25,0.1-0.35" style="stroke: rgb(0, 0, 0);"></path>
<path fill-rule="evenodd" clip-rule="evenodd" fill="none" stroke="#383635" stroke-width="0.3" d="M6.325,1.625
	c0.1-0.033,0.217-0.033,0.35,0" style="stroke: rgb(0, 0, 0);"></path>
<path fill-rule="evenodd" clip-rule="evenodd" fill="none" stroke="#383635" stroke-width="0.3" d="M10.275,6.925
	c0.033-0.134,0.066-0.25,0.1-0.35" style="stroke: rgb(0, 0, 0);"></path>
<path fill-rule="evenodd" clip-rule="evenodd" fill="none" stroke="#383635" stroke-width="0.3" d="M4.075,8.725
	c0.233,0.101,0.434,0.217,0.6,0.351" style="stroke: rgb(0, 0, 0);"></path>
<path fill-rule="evenodd" clip-rule="evenodd" fill="none" stroke="#383635" stroke-width="0.1" stroke-linecap="round" stroke-linejoin="round" stroke-miterlimit="3" d="
	M2.875,4.475c-0.066,0.066-0.083,0.117-0.05,0.15c-0.033,0.033-0.033,0.066,0,0.1l-0.05,0.051c-0.033,0.066-0.033,0.116,0,0.149
	c0.066,0.067,0.1,0.116,0.1,0.15c-0.033,0.066-0.017,0.134,0.05,0.2c0.067,0.133,0.233,0.3,0.5,0.5c0.367,0.232,0.768,0.399,1.2,0.5
	c0.101,0,0.2,0.016,0.3,0.05c-0.232,0.1-0.433,0.183-0.6,0.25c-0.233,0.134-0.483,0.333-0.75,0.6L3.55,7.2
	c-0.15,0.253-0.242,0.429-0.274,0.524c-0.033,0.066-0.033,0.117,0,0.15s0.066,0.05,0.1,0.05v0.05
	c-0.033,0.066-0.017,0.101,0.05,0.101c0.033,0,0.067,0.033,0.101,0.1c0.066,0.067,0.116,0.101,0.149,0.101
	c0.134,0.033,0.317,0.033,0.551,0c0.287-0.086,0.57-0.211,0.85-0.375c0.054-0.022,0.104-0.048,0.15-0.075
	c0.133-0.101,0.267-0.217,0.399-0.351c0,0.033-0.017,0.084-0.05,0.15c-0.133,0.267-0.2,0.6-0.2,1c0.033,0.334,0.083,0.566,0.15,0.7
	c0,0.066,0.033,0.116,0.1,0.149h0.05l0.051,0.051c0.033,0.1,0.066,0.116,0.1,0.05c0.033-0.034,0.083-0.017,0.15,0.05
	c0.066,0.033,0.116,0.033,0.149,0c0.101,0,0.233-0.1,0.4-0.3c0.167-0.233,0.3-0.534,0.399-0.9C6.962,8.498,7.004,8.574,7.05,8.65
	c0.091,0.123,0.199,0.248,0.325,0.375c0.267,0.3,0.483,0.482,0.65,0.55c0.1,0.066,0.183,0.083,0.25,0.05l0.05-0.05
	c0.033,0.033,0.066,0.05,0.1,0.05c0.067,0.033,0.117,0.033,0.15,0c0-0.033,0.033-0.066,0.1-0.1c0.101,0.033,0.184,0.033,0.25,0
	c0.067-0.066,0.084-0.234,0.051-0.5c0-0.334-0.117-0.684-0.351-1.051c-0.133-0.232-0.283-0.482-0.45-0.75L8.2,7.25
	c0.088,0.055,0.163,0.113,0.225,0.175c0.268,0.134,0.584,0.2,0.95,0.2c0.3,0,0.5-0.017,0.601-0.05
	c0.066-0.067,0.116-0.116,0.149-0.15l-0.05-0.1h0.05c0.067-0.034,0.083-0.083,0.05-0.15c-0.033-0.033-0.05-0.066-0.05-0.1
	c0.067-0.067,0.083-0.134,0.05-0.2c-0.021-0.066-0.08-0.15-0.175-0.25C9.949,6.58,9.892,6.529,9.825,6.475
	c-0.267-0.232-0.583-0.399-0.95-0.5c-0.1,0-0.2-0.016-0.3-0.05c0.2-0.1,0.383-0.183,0.55-0.25c0.333-0.134,0.634-0.333,0.9-0.6
	s0.399-0.467,0.399-0.601c0-0.043-0.017-0.076-0.05-0.1h-0.05l-0.05-0.1c0.033,0,0.033-0.018,0-0.051c0-0.066-0.033-0.1-0.101-0.1
	c-0.066,0-0.116-0.033-0.149-0.1c-0.033-0.033-0.083-0.066-0.15-0.101c-0.167-0.066-0.399-0.05-0.7,0.05
	c-0.172,0.015-0.339,0.048-0.5,0.101c-0.225,0.067-0.441,0.167-0.649,0.3c0.1-0.3,0.167-0.666,0.2-1.1
	c0-0.4-0.033-0.667-0.101-0.801c-0.066-0.1-0.116-0.166-0.149-0.199L7.875,2.225v-0.1c-0.066-0.066-0.116-0.084-0.149-0.05
	c-0.033,0-0.067-0.017-0.101-0.05c-0.033-0.066-0.1-0.101-0.2-0.101c-0.1,0-0.217,0.101-0.35,0.3c-0.233,0.234-0.4,0.584-0.5,1.051
	c-0.066,0.232-0.117,0.5-0.15,0.8c-0.033-0.101-0.066-0.2-0.1-0.3c-0.03-0.135-0.08-0.269-0.15-0.4
	c-0.086-0.168-0.203-0.335-0.35-0.5c-0.233-0.233-0.417-0.4-0.55-0.5c-0.101,0-0.167,0.017-0.2,0.05c-0.033-0.033-0.05-0.033-0.05,0
	l-0.05-0.05c-0.067-0.033-0.101-0.017-0.101,0.05C4.842,2.459,4.792,2.492,4.726,2.525c-0.067-0.033-0.117-0.018-0.15,0.05
	c-0.066,0.066-0.1,0.216-0.1,0.45c0.002,0.025,0.002,0.051,0,0.074c0.046,0.313,0.146,0.638,0.3,0.976
	c0.133,0.233,0.283,0.483,0.45,0.75c-0.2-0.134-0.384-0.233-0.551-0.3c-0.366-0.167-0.75-0.234-1.149-0.2
	c-0.163,0.017-0.296,0.032-0.4,0.05C3.01,4.408,2.927,4.441,2.875,4.475z" style="stroke: rgb(0, 0, 0);"></path>
<path fill-rule="evenodd" clip-rule="evenodd" fill="none" stroke="#383635" stroke-width="0.1" stroke-linecap="round" stroke-linejoin="round" stroke-miterlimit="3" d="
	M6.525,6.525c0,0.1-0.033,0.184-0.101,0.25c-0.066,0.033-0.116,0.066-0.149,0.1v-0.05h-0.05c0,0.033-0.018,0.033-0.051,0
	c0,0.033-0.017,0.033-0.05,0V6.725c0.033-0.133,0.05-0.217,0.05-0.25s0.018-0.05,0.051-0.05l-0.051-0.05l-0.05,0.05
	C6.112,6.438,6.096,6.445,6.075,6.45c-0.014,0.017-0.03,0.024-0.05,0.024H5.925L5.851,6.4l0.024-0.025
	c-0.033,0-0.05-0.017-0.05-0.05c0.033-0.034,0.066-0.067,0.1-0.101c0.067-0.066,0.117-0.1,0.15-0.1c0.066-0.033,0.133-0.05,0.2-0.05
	l0.1-0.05c-0.033-0.033-0.066-0.066-0.1-0.101c-0.033,0-0.067-0.017-0.101-0.05c0-0.033-0.017-0.066-0.05-0.1
	c-0.033-0.066-0.066-0.134-0.1-0.2c0.033-0.034,0.05-0.067,0.05-0.101v-0.05h0.1c0.027,0,0.053,0.009,0.075,0.025l0.075,0.075h0.05
	c0.032,0.031,0.049,0.065,0.05,0.1c0-0.101,0-0.167,0-0.2h0.051c0-0.033,0.017-0.066,0.05-0.1c0.033,0,0.066-0.017,0.1-0.05h0.05
	c0-0.033,0.018-0.033,0.051,0c0,0.033,0,0.083,0,0.149c0.066,0.067,0.083,0.134,0.05,0.2v0.05c0.066-0.033,0.149-0.066,0.25-0.1
	h0.05c0.041,0,0.074,0,0.1,0h0.051v0.1h0.05l-0.05,0.05L7.175,5.825v0.05l-0.05-0.05c-0.009,0.018-0.017,0.034-0.024,0.05
	c-0.026,0.043-0.051,0.076-0.075,0.1c-0.033,0-0.067,0.018-0.101,0.051c0.067,0,0.134,0.033,0.2,0.1
	c0.067,0.033,0.101,0.066,0.101,0.1c-0.033,0.033-0.033,0.051,0,0.051V6.3L7.2,6.325c-0.184,0.033-0.309,0.017-0.375-0.05
	c0,0.066,0.017,0.116,0.05,0.149c0.033,0.034,0.067,0.101,0.101,0.2" style="stroke: rgb(0, 0, 0);"></path>
</svg>