<svg version="1.1" id="Layer_1" xmlns="http://www.w3.org/2000/svg" xmlns:xlink="http://www.w3.org/1999/xlink" x="0px" y="0px" width="23.45px" height="22.55px" viewBox="0 0 23.45 22.55" enable-background="new 0 0 23.45 22.55" xml:space="preserve" class="ng-scope">
<path fill-rule="evenodd" clip-rule="evenodd" fill="#FFFFFF" d="M23.025,17.925v1.45c0.067,0.333,0,0.8-0.2,1.399
	c-0.2,0.534-0.533,0.884-1,1.051c-0.466,0.166-1.933,0.3-4.4,0.399c-1.867,0.066-3.767,0.134-5.7,0.2
	c-1.934-0.066-3.833-0.134-5.7-0.2c-2.467-0.1-3.933-0.233-4.4-0.399c-0.467-0.167-0.783-0.517-0.95-1.051
	c-0.2-0.6-0.267-1.066-0.2-1.399v-1.45c-0.1-0.134-0.184-0.25-0.25-0.35l-0.1-0.851l0.45-13.05c0-0.233,0.067-0.434,0.2-0.6
	c0.3-0.467,0.767-0.667,1.4-0.601c0.067-1.466,0.684-2.25,1.85-2.35h15.45c1.133,0.1,1.733,0.884,1.8,2.35
	c-0.567,0.101-1.167,0.15-1.8,0.15c-0.367,0.066-0.617,0.366-0.75,0.899c0.033,0.234,0.017,0.617-0.05,1.15
	c0,0.233-0.017,0.9-0.05,2c0.1,3.467,0.217,6.934,0.35,10.4c0,0.433,0.15,0.85,0.45,1.25c0.633,0.133,1.3,0.199,2,0.199
	C22.059,18.625,22.592,18.425,23.025,17.925c-0.433,0.5-0.967,0.7-1.6,0.6c-0.7,0-1.367-0.066-2-0.199
	c-0.3-0.4-0.45-0.817-0.45-1.25c-0.133-3.467-0.25-6.934-0.35-10.4c0.033-1.1,0.05-1.767,0.05-2c0.067-0.533,0.083-0.916,0.05-1.15
	c0.133-0.533,0.383-0.833,0.75-0.899c0.633,0,1.233-0.05,1.8-0.15c0.667-0.066,1.133,0.134,1.4,0.601
	c0.167,0.166,0.25,0.366,0.25,0.6l0.4,13.05l-0.1,0.851C23.192,17.675,23.125,17.791,23.025,17.925z"></path>
<path fill-rule="evenodd" clip-rule="evenodd" fill="#FFFFFF" d="M18.675,4.675l-0.05,0.15c0,0.199,0,0.816,0,1.85
	c-0.267,0.1-0.583,0.184-0.95,0.25l0.55-1.05l-0.15-0.4c-0.633-0.267-1.35-0.35-2.15-0.25c-1.667-0.233-3.267-0.5-4.8-0.8
	c-0.733,0-1.45,0.05-2.15,0.15c-0.733,0.1-1.467,0.05-2.2-0.15c-0.267-0.1-0.533-0.2-0.8-0.3c-0.267,0.033-0.517,0.083-0.75,0.149
	l1.3,2.801c-0.7-0.134-1.25-0.267-1.65-0.4c0-1.033,0-1.65,0-1.85c0-0.867,0.05-1.734,0.15-2.601c0.033-0.167,0.1-0.316,0.2-0.45
	c4.466-0.533,8.8-0.533,13,0l0.4,0.45v2.601V2.225l-0.4-0.45c-4.2-0.533-8.534-0.533-13,0c-0.1,0.134-0.167,0.283-0.2,0.45
	c-0.1,0.866-0.15,1.733-0.15,2.601c0,0.199,0,0.816,0,1.85c0.4,0.134,0.95,0.267,1.65,0.4l-1.3-2.801
	c0.233-0.066,0.483-0.116,0.75-0.149c0.267,0.1,0.533,0.2,0.8,0.3c0.733,0.2,1.467,0.25,2.2,0.15c0.7-0.101,1.417-0.15,2.15-0.15
	c1.533,0.3,3.133,0.566,4.8,0.8c0.8-0.1,1.517-0.017,2.15,0.25l0.15,0.4l-0.55,1.05c0.367-0.066,0.684-0.15,0.95-0.25
	c0-1.033,0-1.65,0-1.85L18.675,4.675z"></path>
<path fill-rule="evenodd" clip-rule="evenodd" fill="#FFFFFF" d="M4.875,4.825l-0.05-0.15c0,0.233,0.017,0.9,0.05,2l-0.6,11.5
	c-0.067,0.033-0.133,0.083-0.2,0.15c-1.2,0.366-2.3,0.283-3.3-0.25c-0.133-0.034-0.233-0.084-0.3-0.15
	c0.066,0.066,0.167,0.116,0.3,0.15c1,0.533,2.1,0.616,3.3,0.25c0.067-0.067,0.133-0.117,0.2-0.15l0.6-11.5
	c-0.033-1.1-0.05-1.767-0.05-2L4.875,4.825z"></path>
<path fill-rule="evenodd" clip-rule="evenodd" fill="#FFFFFF" d="M4.825,4.675c-0.066-0.533-0.083-0.916-0.05-1.15
	c-0.167-0.533-0.417-0.833-0.75-0.899c-0.667,0-1.283-0.05-1.85-0.15c0.567,0.101,1.184,0.15,1.85,0.15
	c0.333,0.066,0.583,0.366,0.75,0.899C4.742,3.759,4.759,4.142,4.825,4.675z"></path>
<path fill-rule="evenodd" clip-rule="evenodd" fill="#FFFFFF" d="M17.675,6.925l-0.55,4.95c-0.267,0.133-0.533,0.267-0.8,0.399
	c-0.566-0.066-1.133-0.133-1.7-0.199c-1.667-0.233-3.383-0.384-5.15-0.45c-1.133-0.101-2.217-0.4-3.25-0.9
	c0.033-0.166,0.083-0.316,0.15-0.45c0.1-0.3,0.183-0.6,0.25-0.899c0.133-0.8,0.1-1.566-0.1-2.3c0.2,0.733,0.233,1.5,0.1,2.3
	c-0.067,0.3-0.15,0.6-0.25,0.899c-0.067,0.134-0.117,0.284-0.15,0.45c1.033,0.5,2.117,0.8,3.25,0.9
	c1.767,0.066,3.483,0.217,5.15,0.45c0.566,0.066,1.133,0.133,1.7,0.199c0.267-0.133,0.534-0.267,0.8-0.399L17.675,6.925z"></path>
<path fill-rule="evenodd" clip-rule="evenodd" fill="none" stroke="#383635" stroke-width="0.3" d="M23.025,17.925
	c0.1-0.134,0.167-0.25,0.2-0.35l0.1-0.851l-0.4-13.05c0-0.233-0.083-0.434-0.25-0.6c-0.267-0.467-0.733-0.667-1.4-0.601
	c-0.567,0.101-1.167,0.15-1.8,0.15c-0.367,0.066-0.617,0.366-0.75,0.899c0.033,0.234,0.017,0.617-0.05,1.15
	c0,0.233-0.017,0.9-0.05,2c0.1,3.467,0.217,6.934,0.35,10.4c0,0.433,0.15,0.85,0.45,1.25c0.633,0.133,1.3,0.199,2,0.199
	C22.059,18.625,22.592,18.425,23.025,17.925v1.45c0.067,0.333,0,0.8-0.2,1.399c-0.2,0.534-0.533,0.884-1,1.051
	c-0.466,0.166-1.933,0.3-4.4,0.399c-1.867,0.066-3.767,0.134-5.7,0.2c-1.934-0.066-3.833-0.134-5.7-0.2
	c-2.467-0.1-3.933-0.233-4.4-0.399c-0.467-0.167-0.783-0.517-0.95-1.051c-0.2-0.6-0.267-1.066-0.2-1.399v-1.45
	c-0.1-0.134-0.184-0.25-0.25-0.35l-0.1-0.851l0.45-13.05c0-0.233,0.067-0.434,0.2-0.6c0.3-0.467,0.767-0.667,1.4-0.601
	c0.067-1.466,0.684-2.25,1.85-2.35h15.45c1.133,0.1,1.733,0.884,1.8,2.35" style="stroke: rgb(0, 0, 0);"></path>
<path fill-rule="evenodd" clip-rule="evenodd" fill="none" stroke="#383635" stroke-width="0.3" d="M18.675,4.675l-0.05,0.15
	c0,0.199,0,0.816,0,1.85" style="stroke: rgb(0, 0, 0);"></path>
<path fill-rule="evenodd" clip-rule="evenodd" fill="none" stroke="#383635" stroke-width="0.3" d="M18.625,4.825V2.225l-0.4-0.45
	c-4.2-0.533-8.534-0.533-13,0c-0.1,0.134-0.167,0.283-0.2,0.45c-0.1,0.866-0.15,1.733-0.15,2.601c0,0.199,0,0.816,0,1.85
	c0.4,0.134,0.95,0.267,1.65,0.4l-1.3-2.801c0.233-0.066,0.483-0.116,0.75-0.149c0.267,0.1,0.533,0.2,0.8,0.3
	c0.733,0.2,1.467,0.25,2.2,0.15c0.7-0.101,1.417-0.15,2.15-0.15c1.533,0.3,3.133,0.566,4.8,0.8c0.8-0.1,1.517-0.017,2.15,0.25
	l0.15,0.4l-0.55,1.05c0.367-0.066,0.684-0.15,0.95-0.25" style="stroke: rgb(0, 0, 0);"></path>
<path fill-rule="evenodd" clip-rule="evenodd" fill="none" stroke="#383635" stroke-width="0.3" d="M4.875,4.825l-0.05-0.15
	c0,0.233,0.017,0.9,0.05,2" style="stroke: rgb(0, 0, 0);"></path>
<path fill-rule="evenodd" clip-rule="evenodd" fill="none" stroke="#383635" stroke-width="0.3" d="M4.825,4.675
	c-0.066-0.533-0.083-0.916-0.05-1.15c-0.167-0.533-0.417-0.833-0.75-0.899c-0.667,0-1.283-0.05-1.85-0.15" style="stroke: rgb(0, 0, 0);"></path>
<path fill-rule="evenodd" clip-rule="evenodd" fill="none" stroke="#383635" stroke-width="0.3" d="M17.675,6.925l-0.55,4.95
	c-0.267,0.133-0.533,0.267-0.8,0.399c-0.566-0.066-1.133-0.133-1.7-0.199c-1.667-0.233-3.383-0.384-5.15-0.45
	c-1.133-0.101-2.217-0.4-3.25-0.9c0.033-0.166,0.083-0.316,0.15-0.45c0.1-0.3,0.183-0.6,0.25-0.899c0.133-0.8,0.1-1.566-0.1-2.3" style="stroke: rgb(0, 0, 0);"></path>
<path fill-rule="evenodd" clip-rule="evenodd" fill="none" stroke="#383635" stroke-width="0.3" d="M0.476,17.925
	c0.066,0.066,0.167,0.116,0.3,0.15c1,0.533,2.1,0.616,3.3,0.25c0.067-0.067,0.133-0.117,0.2-0.15l0.6-11.5" style="stroke: rgb(0, 0, 0);"></path>
</svg>