<svg version="1.1" id="Layer_1" xmlns="http://www.w3.org/2000/svg" xmlns:xlink="http://www.w3.org/1999/xlink" x="0px" y="0px" width="15.1px" height="27.932px" viewBox="0 0 15.1 27.932" enable-background="new 0 0 15.1 27.932" xml:space="preserve" class="ng-scope">
<path fill-rule="evenodd" clip-rule="evenodd" fill="#FFFFFF" d="M11.275,4.774c0.133-1.533,0.317-3.066,0.55-4.6l0.05-0.05
	l0.05,0.05c0.066,0,0.167,0.017,0.3,0.05c0.033,0,0.083,0,0.15,0c0.467,0.066,0.967,0.134,1.5,0.2c-0.233,1.634-0.433,3.267-0.6,4.9
	c0.1,0,0.184,0.017,0.25,0.05c0.1,0.033,0.2,0.083,0.3,0.149c0.367,0.167,0.583,0.4,0.65,0.7l0.5,13.3v0.9
	c-0.067,0.366-0.4,0.65-1,0.85c-0.267,0.101-0.533,0.184-0.8,0.25c0.167,2.101,0.4,4.184,0.7,6.25c-0.667-0.133-1.333-0.25-2-0.35
	c-0.267-1.833-0.483-3.65-0.65-5.45c-2.433,0.4-4.95,0.351-7.55-0.149c-0.167,1.866-0.4,3.733-0.7,5.6
	c-0.667,0.1-1.333,0.217-2,0.35c0.333-2.133,0.583-4.267,0.75-6.399c-0.367-0.101-0.733-0.217-1.1-0.351
	c-0.3-0.133-0.467-0.366-0.5-0.699l0.05-0.801l0.4-13.1c0.033-0.4,0.183-0.667,0.45-0.8c0.2-0.066,0.4-0.134,0.6-0.2
	c0.667-0.2,1.333-0.366,2-0.5c-0.667,0.134-1.333,0.3-2,0.5c-0.167-1.667-0.383-3.333-0.65-5c0.5-0.066,0.983-0.134,1.45-0.2
	c0.1,0,0.167,0,0.2,0c0.1-0.033,0.2-0.05,0.3-0.05c0.033-0.033,0.066-0.05,0.1-0.05v0.05c0.233,1.566,0.434,3.15,0.6,4.75
	C6.258,4.325,8.809,4.274,11.275,4.774c0.667,0.134,1.333,0.317,2,0.551C12.608,5.092,11.942,4.908,11.275,4.774z"></path>
<path fill-rule="evenodd" clip-rule="evenodd" fill="#FFFFFF" d="M11.075,7.425c-0.434,0.1-0.934,0.217-1.5,0.35
	c-1.7,0.334-3.617,0.167-5.75-0.5c-0.533-0.166-1.083-0.366-1.65-0.6c0.533-0.167,1.05-0.3,1.55-0.4
	c2.567-0.566,5.05-0.616,7.45-0.149c0.566,0.133,1.2,0.35,1.9,0.649C12.908,6.908,12.242,7.125,11.075,7.425
	c1.167-0.3,1.833-0.517,2-0.65c-0.7-0.3-1.333-0.517-1.9-0.649c-2.4-0.467-4.883-0.417-7.45,0.149c-0.5,0.101-1.017,0.233-1.55,0.4
	c0.566,0.233,1.117,0.434,1.65,0.6c2.133,0.667,4.05,0.834,5.75,0.5C10.142,7.642,10.642,7.524,11.075,7.425z"></path>
<path fill-rule="evenodd" clip-rule="evenodd" fill="#FFFFFF" d="M1.625,9.575c-0.033-0.334-0.066-0.684-0.1-1.051
	c-0.233-0.699-0.15-1.216,0.25-1.55c0.1-0.133,0.233-0.233,0.4-0.3c-0.167,0.066-0.3,0.167-0.4,0.3
	c-0.4,0.334-0.483,0.851-0.25,1.55C1.559,8.892,1.592,9.241,1.625,9.575z"></path>
<path fill-rule="evenodd" clip-rule="evenodd" fill="#FFFFFF" d="M0.175,19.524c0.4,0.467,0.816,0.567,1.25,0.301
	C0.992,20.092,0.575,19.991,0.175,19.524z"></path>
<path fill-rule="evenodd" clip-rule="evenodd" fill="#FFFFFF" d="M1.725,21.375c0.633,0.166,1.283,0.316,1.95,0.45
	C3.008,21.691,2.358,21.541,1.725,21.375z"></path>
<path fill-rule="evenodd" clip-rule="evenodd" fill="#FFFFFF" d="M13.075,6.774c0.033,0.034,0.066,0.067,0.1,0.101
	c0.5,0.5,0.566,1.05,0.2,1.649c-0.033,0.367-0.066,0.717-0.1,1.051c-0.367,3.533-0.333,6.85,0.1,9.949c0.2,0.233,0.4,0.367,0.6,0.4
	c0.3,0.066,0.633-0.066,1-0.4c-0.367,0.334-0.7,0.467-1,0.4c-0.2-0.033-0.4-0.167-0.6-0.4c-0.433-3.1-0.467-6.416-0.1-9.949
	c0.034-0.334,0.067-0.684,0.1-1.051c0.367-0.6,0.3-1.149-0.2-1.649C13.142,6.842,13.108,6.809,13.075,6.774z"></path>
<path fill-rule="evenodd" clip-rule="evenodd" fill="#FFFFFF" d="M13.275,9.575c-0.1-0.034-0.2-0.067-0.3-0.101
	c-0.667-0.3-1.333-0.533-2-0.7c-2.333-0.6-4.683-0.583-7.05,0.051c-0.667,0.166-1.333,0.383-2,0.649c-0.1,0.033-0.2,0.066-0.3,0.101
	c0.233,3.333,0.267,6.649,0.1,9.949c-0.1,0.134-0.2,0.233-0.3,0.301c0.033,0.267,0.15,0.449,0.35,0.55h0.05
	c0.633,0.267,1.267,0.5,1.9,0.7c2.6,0.8,5.083,0.899,7.45,0.3c0.633-0.167,1.283-0.384,1.95-0.65c0-0.033,0.017-0.05,0.05-0.05
	c0.433-0.2,0.7-0.45,0.8-0.75c-0.1,0.3-0.367,0.55-0.8,0.75c-0.034,0-0.05,0.017-0.05,0.05c-0.667,0.267-1.316,0.483-1.95,0.65
	c-2.367,0.6-4.85,0.5-7.45-0.3c-0.633-0.2-1.267-0.434-1.9-0.7h-0.05c-0.2-0.101-0.316-0.283-0.35-0.55
	c0.1-0.067,0.2-0.167,0.3-0.301c0.167-3.3,0.133-6.616-0.1-9.949c0.1-0.034,0.2-0.067,0.3-0.101c0.667-0.267,1.333-0.483,2-0.649
	c2.367-0.634,4.716-0.65,7.05-0.051c0.667,0.167,1.333,0.4,2,0.7C13.075,9.508,13.175,9.541,13.275,9.575z"></path>
<path fill-rule="evenodd" clip-rule="evenodd" fill="#FFFFFF" d="M11.225,21.975c0.633-0.133,1.283-0.283,1.95-0.45
	C12.508,21.691,11.858,21.842,11.225,21.975z"></path>
<polygon fill-rule="evenodd" clip-rule="evenodd" fill="#B59A87" points="11.825,0.175 11.825,0.125 11.875,0.125 " style="fill: rgb(0, 0, 0);"></polygon>
<path fill-rule="evenodd" clip-rule="evenodd" fill="none" stroke="#383635" stroke-width="0.3" stroke-linecap="round" stroke-linejoin="round" stroke-miterlimit="3" d="
	M1.625,5.425c0.667-0.2,1.333-0.366,2-0.5" style="stroke: rgb(0, 0, 0);"></path>
<path fill-rule="evenodd" clip-rule="evenodd" fill="none" stroke="#383635" stroke-width="0.3" stroke-linecap="round" stroke-linejoin="round" stroke-miterlimit="3" d="
	M13.275,5.325c0.1,0,0.184,0.017,0.25,0.05c0.1,0.033,0.2,0.083,0.3,0.149c0.367,0.167,0.583,0.4,0.65,0.7l0.5,13.3v0.9
	c-0.067,0.366-0.4,0.65-1,0.85c-0.267,0.101-0.533,0.184-0.8,0.25" style="stroke: rgb(0, 0, 0);"></path>
<path fill-rule="evenodd" clip-rule="evenodd" fill="none" stroke="#383635" stroke-width="0.3" stroke-linecap="round" stroke-linejoin="round" stroke-miterlimit="3" d="
	M11.225,21.975c-2.433,0.4-4.95,0.351-7.55-0.149" style="stroke: rgb(0, 0, 0);"></path>
<path fill-rule="evenodd" clip-rule="evenodd" fill="none" stroke="#383635" stroke-width="0.3" stroke-linecap="round" stroke-linejoin="round" stroke-miterlimit="3" d="
	M1.725,21.375c-0.367-0.101-0.733-0.217-1.1-0.351c-0.3-0.133-0.467-0.366-0.5-0.699l0.05-0.801l0.4-13.1
	c0.033-0.4,0.183-0.667,0.45-0.8c0.2-0.066,0.4-0.134,0.6-0.2" style="stroke: rgb(0, 0, 0);"></path>
<path fill-rule="evenodd" clip-rule="evenodd" fill="none" stroke="#383635" stroke-width="0.3" stroke-linecap="round" stroke-linejoin="round" stroke-miterlimit="3" d="
	M11.075,7.425c1.167-0.3,1.833-0.517,2-0.65c-0.7-0.3-1.333-0.517-1.9-0.649c-2.4-0.467-4.883-0.417-7.45,0.149
	c-0.5,0.101-1.017,0.233-1.55,0.4c0.566,0.233,1.117,0.434,1.65,0.6c2.133,0.667,4.05,0.834,5.75,0.5
	C10.142,7.642,10.642,7.524,11.075,7.425z" style="stroke: rgb(0, 0, 0);"></path>
<path fill-rule="evenodd" clip-rule="evenodd" fill="none" stroke="#383635" stroke-width="0.3" stroke-linecap="round" stroke-linejoin="round" stroke-miterlimit="3" d="
	M13.275,5.325c-0.667-0.233-1.333-0.417-2-0.551c-2.466-0.5-5.017-0.449-7.65,0.15" style="stroke: rgb(0, 0, 0);"></path>
<path fill-rule="evenodd" clip-rule="evenodd" fill="none" stroke="#383635" stroke-width="0.3" stroke-linecap="round" stroke-linejoin="round" stroke-miterlimit="3" d="
	M13.075,6.774c0.033,0.034,0.066,0.067,0.1,0.101c0.5,0.5,0.566,1.05,0.2,1.649c-0.033,0.367-0.066,0.717-0.1,1.051
	c-0.367,3.533-0.333,6.85,0.1,9.949c0.2,0.233,0.4,0.367,0.6,0.4c0.3,0.066,0.633-0.066,1-0.4" style="stroke: rgb(0, 0, 0);"></path>
<path fill-rule="evenodd" clip-rule="evenodd" fill="none" stroke="#383635" stroke-width="0.3" stroke-linecap="round" stroke-linejoin="round" stroke-miterlimit="3" d="
	M13.275,9.575c-0.1-0.034-0.2-0.067-0.3-0.101c-0.667-0.3-1.333-0.533-2-0.7c-2.333-0.6-4.683-0.583-7.05,0.051
	c-0.667,0.166-1.333,0.383-2,0.649c-0.1,0.033-0.2,0.066-0.3,0.101c0.233,3.333,0.267,6.649,0.1,9.949
	c-0.1,0.134-0.2,0.233-0.3,0.301c0.033,0.267,0.15,0.449,0.35,0.55h0.05c0.633,0.267,1.267,0.5,1.9,0.7
	c2.6,0.8,5.083,0.899,7.45,0.3c0.633-0.167,1.283-0.384,1.95-0.65c0-0.033,0.017-0.05,0.05-0.05c0.433-0.2,0.7-0.45,0.8-0.75" style="stroke: rgb(0, 0, 0);"></path>
<path fill-rule="evenodd" clip-rule="evenodd" fill="none" stroke="#383635" stroke-width="0.3" stroke-linecap="round" stroke-linejoin="round" stroke-miterlimit="3" d="
	M11.225,21.975c0.633-0.133,1.283-0.283,1.95-0.45" style="stroke: rgb(0, 0, 0);"></path>
<path fill-rule="evenodd" clip-rule="evenodd" fill="none" stroke="#383635" stroke-width="0.3" stroke-linecap="round" stroke-linejoin="round" stroke-miterlimit="3" d="
	M1.625,9.575c-0.033-0.334-0.066-0.684-0.1-1.051c-0.233-0.699-0.15-1.216,0.25-1.55c0.1-0.133,0.233-0.233,0.4-0.3" style="stroke: rgb(0, 0, 0);"></path>
<path fill-rule="evenodd" clip-rule="evenodd" fill="none" stroke="#383635" stroke-width="0.3" stroke-linecap="round" stroke-linejoin="round" stroke-miterlimit="3" d="
	M0.175,19.524c0.4,0.467,0.816,0.567,1.25,0.301" style="stroke: rgb(0, 0, 0);"></path>
<path fill-rule="evenodd" clip-rule="evenodd" fill="none" stroke="#383635" stroke-width="0.3" stroke-linecap="round" stroke-linejoin="round" stroke-miterlimit="3" d="
	M1.725,21.375c0.633,0.166,1.283,0.316,1.95,0.45" style="stroke: rgb(0, 0, 0);"></path>
<path fill-rule="evenodd" clip-rule="evenodd" fill="none" stroke="#383635" stroke-width="0.3" d="M3.625,4.925
	c-0.167-1.6-0.367-3.184-0.6-4.75v-0.05c-0.033,0-0.066,0.017-0.1,0.05c-0.1,0-0.2,0.017-0.3,0.05c-0.033,0-0.1,0-0.2,0
	c-0.467,0.066-0.95,0.134-1.45,0.2c0.267,1.667,0.483,3.333,0.65,5" style="stroke: rgb(0, 0, 0);"></path>
<path fill-rule="evenodd" clip-rule="evenodd" fill="none" stroke="#383635" stroke-width="0.3" d="M11.875,0.125l0.05,0.05
	c0.066,0,0.167,0.017,0.3,0.05c0.033,0,0.083,0,0.15,0c0.467,0.066,0.967,0.134,1.5,0.2c-0.233,1.634-0.433,3.267-0.6,4.9" style="stroke: rgb(0, 0, 0);"></path>
<path fill-rule="evenodd" clip-rule="evenodd" fill="none" stroke="#383635" stroke-width="0.3" d="M13.175,21.524
	c0.167,2.101,0.4,4.184,0.7,6.25c-0.667-0.133-1.333-0.25-2-0.35c-0.267-1.833-0.483-3.65-0.65-5.45" style="stroke: rgb(0, 0, 0);"></path>
<path fill-rule="evenodd" clip-rule="evenodd" fill="none" stroke="#383635" stroke-width="0.3" d="M3.675,21.825
	c-0.167,1.866-0.4,3.733-0.7,5.6c-0.667,0.1-1.333,0.217-2,0.35c0.333-2.133,0.583-4.267,0.75-6.399" style="stroke: rgb(0, 0, 0);"></path>
<polyline fill-rule="evenodd" clip-rule="evenodd" fill="none" stroke="#383635" stroke-width="0.3" points="11.875,0.125 
	11.825,0.125 11.825,0.175 " style="stroke: rgb(0, 0, 0);"></polyline>
<path fill-rule="evenodd" clip-rule="evenodd" fill="none" stroke="#383635" stroke-width="0.3" d="M11.275,4.774
	c0.133-1.533,0.317-3.066,0.55-4.6" style="stroke: rgb(0, 0, 0);"></path>
</svg>