<svg version="1.1" id="Layer_1" xmlns="http://www.w3.org/2000/svg" xmlns:xlink="http://www.w3.org/1999/xlink" x="0px" y="0px" width="43.062px" height="8.595px" viewBox="0 0 43.062 8.595" enable-background="new 0 0 43.062 8.595" xml:space="preserve" class="ng-scope">
<path fill-rule="evenodd" clip-rule="evenodd" fill="#FFFFFF" d="M35.655,0.238c0.066,0.066,0.117,0.184,0.15,0.35v0.051l0.199-0.25
	l6.95,6.5l-0.7,0.75l-6.949-6.5l-6.351,6.05l-0.05-0.05v0.05c0,0.133-0.05,0.25-0.15,0.35c-0.1,0.101-0.217,0.15-0.35,0.15
	c-0.167-0.033-0.283-0.084-0.35-0.15c-0.101-0.1-0.15-0.217-0.15-0.35c-0.032-0.162,0.001-0.295,0.1-0.4l-0.35,0.351l-5.95-5.7
	h-0.05c-0.033,0-0.066,0-0.1,0l0.05,0.05l-6.101,5.9l-0.449-0.45c0.067,0.071,0.117,0.188,0.149,0.35c0,0.134-0.05,0.25-0.149,0.351
	c-0.101,0.1-0.217,0.149-0.351,0.149c-0.166-0.033-0.283-0.083-0.35-0.149c-0.101-0.101-0.15-0.217-0.15-0.351
	c-0.032-0.161,0.001-0.295,0.101-0.399l-0.45,0.449l-5.851-5.75c-0.066,0-0.133-0.017-0.199-0.05l0.199,0.2l-7.199,6.75l-0.7-0.75
	l7.2-6.75l0.25,0.25c-0.034-0.035-0.051-0.085-0.051-0.15c-0.033-0.166,0-0.3,0.101-0.399c0.1-0.101,0.233-0.134,0.399-0.101
	c0.134,0,0.25,0.051,0.351,0.15c0.066,0.066,0.116,0.184,0.149,0.35l0.25-0.25l5.851,5.75l-0.3,0.301
	c0.104-0.1,0.238-0.133,0.399-0.101c0.13,0,0.246,0.05,0.351,0.15l-0.301-0.3l6.101-5.9l0.35,0.35
	c-0.033-0.066-0.05-0.116-0.05-0.149c-0.033-0.167,0-0.3,0.1-0.4c0.101-0.1,0.233-0.133,0.4-0.1c0.134,0,0.25,0.05,0.35,0.149
	c0.034,0.034,0.084,0.117,0.15,0.25l0.2-0.25l6,5.75l6.2-5.949l0.25,0.25V0.588c-0.033-0.166,0-0.3,0.1-0.399
	c0.1-0.101,0.233-0.134,0.4-0.101C35.438,0.088,35.556,0.139,35.655,0.238z"></path>
<path fill-rule="evenodd" clip-rule="evenodd" fill="#FFFFFF" d="M35.355,1.088c0.1,0,0.2-0.05,0.3-0.149
	c0.1-0.101,0.15-0.2,0.15-0.3c0,0.1-0.051,0.199-0.15,0.3C35.556,1.038,35.455,1.088,35.355,1.088h-0.101
	c-0.133-0.033-0.232-0.083-0.3-0.149c-0.1-0.101-0.149-0.2-0.149-0.3c0,0.1,0.05,0.199,0.149,0.3c0.067,0.066,0.167,0.116,0.3,0.149
	l0.051,0.051L35.355,1.088z"></path>
<path fill-rule="evenodd" clip-rule="evenodd" fill="#FFFFFF" d="M28.306,6.538l-0.25,0.2c0.1-0.066,0.217-0.083,0.35-0.05h0.05
	L28.306,6.538l-0.101-0.1l0.15-0.101l-0.15,0.101L28.306,6.538z"></path>
<path fill-rule="evenodd" clip-rule="evenodd" fill="#FFFFFF" d="M28.005,6.788l0.051-0.05L28.005,6.788z"></path>
<path fill-rule="evenodd" clip-rule="evenodd" fill="#FFFFFF" d="M28.455,6.688c0.101,0,0.2,0.05,0.3,0.149
	c0.067,0.067,0.117,0.167,0.15,0.301c-0.033-0.134-0.083-0.233-0.15-0.301C28.655,6.738,28.556,6.688,28.455,6.688z"></path>
<path fill-rule="evenodd" clip-rule="evenodd" fill="#FFFFFF" d="M22.155,0.838c0,0.034,0,0.067,0,0.101
	c0,0.133-0.05,0.25-0.15,0.35c-0.1,0.101-0.199,0.15-0.3,0.15c0.101,0,0.2-0.05,0.3-0.15c0.101-0.1,0.15-0.217,0.15-0.35
	C22.155,0.905,22.155,0.872,22.155,0.838z"></path>
<path fill-rule="evenodd" clip-rule="evenodd" fill="#FFFFFF" d="M21.556,1.438c-0.134-0.066-0.217-0.117-0.25-0.15
	c-0.067-0.066-0.101-0.133-0.101-0.2c0,0.067,0.033,0.134,0.101,0.2C21.339,1.321,21.422,1.372,21.556,1.438z"></path>
<path fill-rule="evenodd" clip-rule="evenodd" fill="#FFFFFF" d="M8.505,1.088c0,0.134-0.05,0.25-0.149,0.351
	c-0.101,0.1-0.217,0.149-0.351,0.149c0.134,0,0.25-0.05,0.351-0.149C8.455,1.338,8.505,1.222,8.505,1.088z"></path>
<path fill-rule="evenodd" clip-rule="evenodd" fill="#FFFFFF" d="M7.806,1.538c-0.067-0.033-0.117-0.066-0.15-0.1
	c-0.066-0.066-0.1-0.134-0.1-0.2c0,0.066,0.033,0.134,0.1,0.2C7.688,1.472,7.738,1.505,7.806,1.538z"></path>
<path fill-rule="evenodd" clip-rule="evenodd" fill="none" stroke="#383635" stroke-width="0.15" d="M35.655,0.238
	c0.066,0.066,0.117,0.184,0.15,0.35v0.051l0.199-0.25l6.95,6.5l-0.7,0.75l-6.949-6.5l-6.351,6.05l-0.05-0.05v0.05
	c0,0.133-0.05,0.25-0.15,0.35c-0.1,0.101-0.217,0.15-0.35,0.15c-0.167-0.033-0.283-0.084-0.35-0.15c-0.101-0.1-0.15-0.217-0.15-0.35
	c-0.032-0.162,0.001-0.295,0.1-0.4l-0.35,0.351l-5.95-5.7h-0.05c-0.033,0-0.066,0-0.1,0l0.05,0.05l-6.101,5.9l-0.449-0.45
	c0.067,0.071,0.117,0.188,0.149,0.35c0,0.134-0.05,0.25-0.149,0.351c-0.101,0.1-0.217,0.149-0.351,0.149
	c-0.166-0.033-0.283-0.083-0.35-0.149c-0.101-0.101-0.15-0.217-0.15-0.351c-0.032-0.161,0.001-0.295,0.101-0.399l-0.45,0.449
	l-5.851-5.75c-0.066,0-0.133-0.017-0.199-0.05l0.199,0.2l-7.199,6.75l-0.7-0.75l7.2-6.75l0.25,0.25
	c-0.034-0.035-0.051-0.085-0.051-0.15c-0.033-0.166,0-0.3,0.101-0.399c0.1-0.101,0.233-0.134,0.399-0.101
	c0.134,0,0.25,0.051,0.351,0.15c0.066,0.066,0.116,0.184,0.149,0.35l0.25-0.25l5.851,5.75l-0.3,0.301
	c0.104-0.1,0.238-0.133,0.399-0.101c0.13,0,0.246,0.05,0.351,0.15l-0.301-0.3l6.101-5.9l0.35,0.35
	c-0.033-0.066-0.05-0.116-0.05-0.149c-0.033-0.167,0-0.3,0.1-0.4c0.101-0.1,0.233-0.133,0.4-0.1c0.134,0,0.25,0.05,0.35,0.149
	c0.034,0.034,0.084,0.117,0.15,0.25l0.2-0.25l6,5.75l6.2-5.949l0.25,0.25V0.588c-0.033-0.166,0-0.3,0.1-0.399
	c0.1-0.101,0.233-0.134,0.4-0.101C35.438,0.088,35.556,0.139,35.655,0.238z M35.255,1.088c-0.133-0.033-0.232-0.083-0.3-0.149
	c-0.1-0.101-0.149-0.2-0.149-0.3 M35.255,1.088h0.101c0.1,0,0.2-0.05,0.3-0.149c0.1-0.101,0.15-0.2,0.15-0.3 M35.306,1.139
	l-0.051-0.051 M35.355,1.088l-0.05,0.051 M28.306,6.538l-0.25,0.2c0.1-0.066,0.217-0.083,0.35-0.05h0.05L28.306,6.538l-0.101-0.1
	l0.15-0.101 M28.005,6.788l0.051-0.05 M28.455,6.688c0.101,0,0.2,0.05,0.3,0.149c0.067,0.067,0.117,0.167,0.15,0.301 M22.155,0.838
	c0,0.034,0,0.067,0,0.101c0,0.133-0.05,0.25-0.15,0.35c-0.1,0.101-0.199,0.15-0.3,0.15 M21.556,1.438
	c-0.134-0.066-0.217-0.117-0.25-0.15c-0.067-0.066-0.101-0.133-0.101-0.2 M8.505,1.088c0,0.134-0.05,0.25-0.149,0.351
	c-0.101,0.1-0.217,0.149-0.351,0.149 M7.806,1.538c-0.067-0.033-0.117-0.066-0.15-0.1c-0.066-0.066-0.1-0.134-0.1-0.2" style="stroke: rgb(0, 0, 0);"></path>
</svg>