<svg version="1.1" id="Layer_1" xmlns="http://www.w3.org/2000/svg" xmlns:xlink="http://www.w3.org/1999/xlink" x="0px" y="0px" width="15.45px" height="15.449px" viewBox="0 0 15.45 15.449" enable-background="new 0 0 15.45 15.449" xml:space="preserve" class="ng-scope">
<path fill-rule="evenodd" clip-rule="evenodd" fill="#FFFFFF" d="M5.625,0.399v14.65V0.399c0.645-0.179,1.327-0.271,2.05-0.274
	v15.199c-0.723-0.004-1.406-0.096-2.05-0.274c-0.752-0.208-1.452-0.533-2.1-0.976V1.399v12.675c-0.403-0.27-0.786-0.586-1.15-0.949
	c-0.336-0.336-0.636-0.687-0.899-1.051c-0.9-1.27-1.351-2.721-1.351-4.35c0-1.627,0.45-3.061,1.351-4.3v8.649V3.425
	c0.262-0.37,0.562-0.72,0.899-1.05c0.364-0.373,0.747-0.697,1.15-0.976C4.173,0.949,4.873,0.615,5.625,0.399z"></path>
<path fill-rule="evenodd" clip-rule="evenodd" fill="#FFFFFF" d="M7.675,15.324V0.125h0.051c0.699,0,1.366,0.083,2,0.25v14.699
	V0.375c0.727,0.189,1.41,0.49,2.05,0.899v12.925V1.274c0.474,0.308,0.924,0.674,1.35,1.101c0.276,0.275,0.526,0.559,0.75,0.85v9.025
	c-0.224,0.301-0.474,0.592-0.75,0.875c-0.423,0.413-0.873,0.771-1.35,1.074c-0.636,0.397-1.319,0.689-2.05,0.875
	c-0.633,0.167-1.3,0.25-2,0.25H7.675z"></path>
<path fill-rule="evenodd" clip-rule="evenodd" fill="#FFFFFF" d="M13.875,12.25V3.225c0.967,1.295,1.45,2.795,1.45,4.5
	S14.842,10.938,13.875,12.25z"></path>
<path fill-rule="evenodd" clip-rule="evenodd" fill="none" stroke="#383635" stroke-width="0.3" d="M7.675,0.125
	C6.952,0.129,6.27,0.221,5.625,0.399c-0.752,0.216-1.452,0.55-2.1,1c-0.403,0.278-0.786,0.603-1.15,0.976
	c-0.338,0.33-0.638,0.68-0.899,1.05c-0.9,1.239-1.351,2.673-1.351,4.3c0,1.629,0.45,3.08,1.351,4.35
	c0.264,0.364,0.563,0.715,0.899,1.051c0.364,0.363,0.747,0.68,1.15,0.949c0.647,0.442,1.348,0.768,2.1,0.976
	c0.644,0.179,1.327,0.271,2.05,0.274h0.051c0.7,0,1.367-0.083,2-0.25c0.73-0.186,1.414-0.478,2.05-0.875
	c0.477-0.303,0.927-0.661,1.35-1.074c0.276-0.283,0.526-0.574,0.75-0.875c0.967-1.313,1.45-2.82,1.45-4.525s-0.483-3.205-1.45-4.5
	c-0.224-0.291-0.474-0.574-0.75-0.85c-0.426-0.427-0.876-0.793-1.35-1.101c-0.64-0.409-1.323-0.71-2.05-0.899
	c-0.634-0.167-1.301-0.25-2-0.25H7.675z" style="stroke: rgb(0, 0, 0);"></path>
<line fill-rule="evenodd" clip-rule="evenodd" fill="none" stroke="#383635" stroke-width="0.3" stroke-linecap="round" stroke-linejoin="round" stroke-miterlimit="3" x1="5.625" y1="0.399" x2="5.625" y2="15.05" style="stroke: rgb(0, 0, 0);"></line>
<line fill-rule="evenodd" clip-rule="evenodd" fill="none" stroke="#383635" stroke-width="0.3" stroke-linecap="round" stroke-linejoin="round" stroke-miterlimit="3" x1="7.675" y1="15.324" x2="7.675" y2="0.125" style="stroke: rgb(0, 0, 0);"></line>
<line fill-rule="evenodd" clip-rule="evenodd" fill="none" stroke="#383635" stroke-width="0.3" stroke-linecap="round" stroke-linejoin="round" stroke-miterlimit="3" x1="11.775" y1="1.274" x2="11.775" y2="14.199" style="stroke: rgb(0, 0, 0);"></line>
<line fill-rule="evenodd" clip-rule="evenodd" fill="none" stroke="#383635" stroke-width="0.3" stroke-linecap="round" stroke-linejoin="round" stroke-miterlimit="3" x1="13.875" y1="12.25" x2="13.875" y2="3.225" style="stroke: rgb(0, 0, 0);"></line>
<line fill-rule="evenodd" clip-rule="evenodd" fill="none" stroke="#383635" stroke-width="0.3" stroke-linecap="round" stroke-linejoin="round" stroke-miterlimit="3" x1="9.726" y1="0.375" x2="9.726" y2="15.074" style="stroke: rgb(0, 0, 0);"></line>
<line fill-rule="evenodd" clip-rule="evenodd" fill="none" stroke="#383635" stroke-width="0.3" stroke-linecap="round" stroke-linejoin="round" stroke-miterlimit="3" x1="1.476" y1="3.425" x2="1.476" y2="12.074" style="stroke: rgb(0, 0, 0);"></line>
<line fill-rule="evenodd" clip-rule="evenodd" fill="none" stroke="#383635" stroke-width="0.3" stroke-linecap="round" stroke-linejoin="round" stroke-miterlimit="3" x1="3.525" y1="14.074" x2="3.525" y2="1.399" style="stroke: rgb(0, 0, 0);"></line>
</svg>