<svg version="1.1" id="Layer_1" xmlns="http://www.w3.org/2000/svg" xmlns:xlink="http://www.w3.org/1999/xlink" x="0px" y="0px" width="23.101px" height="27.899px" viewBox="0 0 23.101 27.899" enable-background="new 0 0 23.101 27.899" xml:space="preserve" class="ng-scope">
<path fill-rule="evenodd" clip-rule="evenodd" fill="#FFFFFF" d="M14.425,0.125v7.85c0.7,0.034,1.35,0.1,1.95,0.2
	c1.6,0.3,3.017,0.833,4.25,1.6c1.6,0.967,2.383,2.483,2.35,4.55c-0.033,2.133-0.934,3.699-2.7,4.699c-1.1,0.634-3.05,1-5.85,1.101
	v7.649h-14.3V0.125H14.425z"></path>
<path fill-rule="evenodd" clip-rule="evenodd" fill="#FFFFFF" d="M20.475,11.725c-0.1-0.133-0.35-0.333-0.75-0.6
	c-1.2-0.833-2.967-1.367-5.3-1.6v9.1c2.133-0.067,3.583-0.267,4.35-0.601c0.867-0.366,1.533-0.866,2-1.5
	c0.066-0.066,0.117-0.149,0.15-0.25c0.1-0.166,0.184-0.333,0.25-0.5c0.133-0.333,0.233-0.717,0.3-1.149
	c0.2-0.967-0.083-1.883-0.85-2.75C20.591,11.841,20.541,11.792,20.475,11.725c0.066,0.067,0.116,0.117,0.15,0.15
	c0.767,0.867,1.05,1.783,0.85,2.75c-0.066,0.433-0.167,0.816-0.3,1.149c-0.066,0.167-0.15,0.334-0.25,0.5
	c-0.033,0.101-0.084,0.184-0.15,0.25c-0.467,0.634-1.133,1.134-2,1.5c-0.767,0.334-2.217,0.533-4.35,0.601v-9.1
	c2.333,0.233,4.1,0.767,5.3,1.6C20.125,11.392,20.375,11.591,20.475,11.725z"></path>
<path fill-rule="evenodd" clip-rule="evenodd" fill="#FFFFFF" d="M14.425,9.525v-1.55V9.525z"></path>
<path fill-rule="evenodd" clip-rule="evenodd" fill="#FFFFFF" d="M19.125,11.325l0.1,0.2l0.1,0.1c-0.066,0.133-0.166,0.367-0.3,0.7
	c-0.133,0.367-0.066,0.967,0.2,1.8c0.2,0.667,0.384,1.066,0.55,1.2c0.233,0.133,0.367,0.366,0.4,0.699
	c0.033,0.066,0.033,0.167,0,0.301l0.2,0.05l0.1-0.05l0.05-0.2c0.2-0.134,0.334-0.3,0.4-0.5c0.166-0.467,0.184-1.116,0.05-1.95
	c-0.167-0.633-0.384-1.233-0.65-1.8c-0.233-0.367-0.5-0.55-0.8-0.55H19.125h0.399c0.3,0,0.566,0.184,0.8,0.55
	c0.267,0.566,0.483,1.167,0.65,1.8c0.134,0.834,0.116,1.483-0.05,1.95c-0.066,0.2-0.2,0.366-0.4,0.5l-0.05,0.2l-0.1,0.05l-0.2-0.05
	c0.033-0.134,0.033-0.234,0-0.301c-0.033-0.333-0.167-0.566-0.4-0.699c-0.166-0.134-0.35-0.533-0.55-1.2
	c-0.267-0.833-0.333-1.434-0.2-1.8c0.134-0.333,0.233-0.566,0.3-0.7l-0.1-0.1L19.125,11.325z"></path>
<path fill-rule="evenodd" clip-rule="evenodd" fill="#FFFFFF" d="M14.425,20.125v-1.5V20.125z"></path>
<path fill-rule="evenodd" clip-rule="evenodd" fill="none" stroke="#383635" stroke-width="0.3" d="M14.425,0.125v7.85
	c0.7,0.034,1.35,0.1,1.95,0.2c1.6,0.3,3.017,0.833,4.25,1.6c1.6,0.967,2.383,2.483,2.35,4.55c-0.033,2.133-0.934,3.699-2.7,4.699
	c-1.1,0.634-3.05,1-5.85,1.101v7.649h-14.3V0.125H14.425z" style="stroke: rgb(0, 0, 0);"></path>
<path fill-rule="evenodd" clip-rule="evenodd" fill="none" stroke="#383635" stroke-width="0.3" d="M20.475,11.725
	c-0.1-0.133-0.35-0.333-0.75-0.6c-1.2-0.833-2.967-1.367-5.3-1.6v9.1c2.133-0.067,3.583-0.267,4.35-0.601
	c0.867-0.366,1.533-0.866,2-1.5c0.066-0.066,0.117-0.149,0.15-0.25c0.1-0.166,0.184-0.333,0.25-0.5
	c0.133-0.333,0.233-0.717,0.3-1.149c0.2-0.967-0.083-1.883-0.85-2.75C20.591,11.841,20.541,11.792,20.475,11.725z" style="stroke: rgb(0, 0, 0);"></path>
<line fill-rule="evenodd" clip-rule="evenodd" fill="none" stroke="#383635" stroke-width="0.3" x1="14.425" y1="9.525" x2="14.425" y2="7.975" style="stroke: rgb(0, 0, 0);"></line>
<path fill-rule="evenodd" clip-rule="evenodd" fill="none" stroke="#383635" stroke-width="0.3" d="M19.125,11.325l0.1,0.2l0.1,0.1
	c-0.066,0.133-0.166,0.367-0.3,0.7c-0.133,0.367-0.066,0.967,0.2,1.8c0.2,0.667,0.384,1.066,0.55,1.2
	c0.233,0.133,0.367,0.366,0.4,0.699c0.033,0.066,0.033,0.167,0,0.301l0.2,0.05l0.1-0.05l0.05-0.2c0.2-0.134,0.334-0.3,0.4-0.5
	c0.166-0.467,0.184-1.116,0.05-1.95c-0.167-0.633-0.384-1.233-0.65-1.8c-0.233-0.367-0.5-0.55-0.8-0.55H19.125z" style="stroke: rgb(0, 0, 0);"></path>
<line fill-rule="evenodd" clip-rule="evenodd" fill="none" stroke="#383635" stroke-width="0.3" x1="14.425" y1="20.125" x2="14.425" y2="18.625" style="stroke: rgb(0, 0, 0);"></line>
</svg>