<svg version="1.1" xmlns="http://www.w3.org/2000/svg" xmlns:xlink="http://www.w3.org/1999/xlink" width="42px" height="8px" viewBox="0 0 42 8" xml:space="preserve">
<path fill-rule="evenodd" clip-rule="evenodd" fill="#FFFFFF" d="M41.08,5.37c-0.2-0.03-0.43-0.05-0.7-0.05
	c-0.7,0-1.28,0.17-1.75,0.5c-0.53,0.37-0.8,0.8-0.8,1.3c0,0.07,0,0.13,0,0.2H3.23c0.03-0.07,0.05-0.13,0.05-0.2
	c0-0.5-0.25-0.93-0.75-1.3c-0.5-0.33-1.1-0.5-1.8-0.5c-0.2,0-0.4,0.02-0.6,0.05V0.13h40.95V5.37z"></path>
<path fill-rule="evenodd" clip-rule="evenodd" fill="none" stroke="#373535" stroke-width="0.3" stroke-linecap="round" stroke-linejoin="round" stroke-miterlimit="3" d="
	M41.08,5.37V0.13H0.13v5.25c0.2-0.03,0.4-0.05,0.6-0.05c0.7,0,1.3,0.17,1.8,0.5c0.5,0.37,0.75,0.8,0.75,1.3
	c0,0.07-0.02,0.13-0.05,0.2h34.6c0-0.07,0-0.13,0-0.2c0-0.5,0.27-0.93,0.8-1.3c0.47-0.33,1.05-0.5,1.75-0.5
	C40.64,5.32,40.88,5.34,41.08,5.37z" style="stroke: rgb(0, 0, 0);"></path>
</svg>
