<svg version="1.1" id="Layer_1" xmlns="http://www.w3.org/2000/svg" xmlns:xlink="http://www.w3.org/1999/xlink" x="0px" y="0px" width="14.2px" height="8.752px" viewBox="0 0 14.2 8.752" enable-background="new 0 0 14.2 8.752" xml:space="preserve" class="ng-scope">
<path fill-rule="evenodd" clip-rule="evenodd" fill="#FFFFFF" d="M12.525,2.377h-0.05c-1.733-0.566-3.5-0.851-5.3-0.851
	c-1.733,0-3.5,0.267-5.3,0.801c1.8-0.534,3.566-0.801,5.3-0.801c1.8,0,3.567,0.284,5.3,0.851v0.05c-0.3,0.2-1.434,0.517-3.4,0.95
	c-0.6,0.133-1.233,0.184-1.9,0.149c-1.6-0.033-3.367-0.433-5.3-1.199c-0.5,0.1-0.684,0.517-0.55,1.25l0.05,1.55
	c1.933-0.834,3.867-1.233,5.8-1.2c1.833,0.033,3.65,0.434,5.45,1.2l0.4-1.45C13.092,2.943,12.925,2.51,12.525,2.377
	c0.4,0.133,0.567,0.566,0.5,1.3l-0.4,1.45c-1.8-0.767-3.617-1.167-5.45-1.2c-1.933-0.033-3.867,0.366-5.8,1.2l-0.05-1.55
	c-0.133-0.733,0.05-1.15,0.55-1.25c1.933,0.767,3.7,1.166,5.3,1.199c0.667,0.034,1.3-0.017,1.9-0.149c1.967-0.434,3.1-0.75,3.4-0.95
	L12.525,2.377z"></path>
<path fill-rule="evenodd" clip-rule="evenodd" fill="#FFFFFF" d="M12.475,8.627h-10.9c-0.033-1.167-0.1-2.334-0.2-3.5
	c0.1,1.166,0.167,2.333,0.2,3.5h-1.45l0.2-6.55c0.034-0.367,0.184-0.634,0.45-0.801c2.2-0.767,4.333-1.149,6.4-1.149
	c1.967-0.033,3.883,0.283,5.75,0.95c0.067,0,0.15,0.033,0.25,0.1c0.367,0.2,0.6,0.434,0.7,0.7l0.2,6.75H12.475z"></path>
<path fill-rule="evenodd" clip-rule="evenodd" fill="#FFFFFF" d="M12.625,5.127c-0.1,1.2-0.15,2.366-0.15,3.5
	C12.475,7.493,12.525,6.327,12.625,5.127z"></path>
<polygon fill-rule="evenodd" clip-rule="evenodd" fill="#B59A87" points="12.475,2.377 12.525,2.377 12.475,2.427 " style="fill: rgb(0, 0, 0);"></polygon>
<path fill-rule="evenodd" clip-rule="evenodd" fill="none" stroke="#383635" stroke-width="0.3" stroke-linecap="round" stroke-linejoin="round" stroke-miterlimit="3" d="
	M12.475,2.427c-0.3,0.2-1.434,0.517-3.4,0.95c-0.6,0.133-1.233,0.184-1.9,0.149c-1.6-0.033-3.367-0.433-5.3-1.199
	c-0.5,0.1-0.684,0.517-0.55,1.25l0.05,1.55c1.933-0.834,3.867-1.233,5.8-1.2c1.833,0.033,3.65,0.434,5.45,1.2l0.4-1.45
	c0.067-0.733-0.1-1.167-0.5-1.3" style="stroke: rgb(0, 0, 0);"></path>
<path fill-rule="evenodd" clip-rule="evenodd" fill="none" stroke="#383635" stroke-width="0.3" stroke-linecap="round" stroke-linejoin="round" stroke-miterlimit="3" d="
	M12.475,2.427v-0.05c-1.733-0.566-3.5-0.851-5.3-0.851c-1.733,0-3.5,0.267-5.3,0.801" style="stroke: rgb(0, 0, 0);"></path>
<line fill-rule="evenodd" clip-rule="evenodd" fill="none" stroke="#383635" stroke-width="0.3" stroke-linecap="round" stroke-linejoin="round" stroke-miterlimit="3" x1="12.475" y1="2.377" x2="12.525" y2="2.377" style="stroke: rgb(0, 0, 0);"></line>
<path fill-rule="evenodd" clip-rule="evenodd" fill="none" stroke="#383635" stroke-width="0.3" stroke-linecap="round" stroke-linejoin="round" stroke-miterlimit="3" d="
	M12.475,8.627h1.6l-0.2-6.75c-0.1-0.267-0.333-0.5-0.7-0.7c-0.1-0.066-0.183-0.1-0.25-0.1c-1.867-0.667-3.783-0.983-5.75-0.95
	c-2.066,0-4.2,0.383-6.4,1.149C0.508,1.443,0.358,1.71,0.325,2.077l-0.2,6.55h1.45c-0.033-1.167-0.1-2.334-0.2-3.5" style="stroke: rgb(0, 0, 0);"></path>
<path fill-rule="evenodd" clip-rule="evenodd" fill="none" stroke="#383635" stroke-width="0.3" stroke-linecap="round" stroke-linejoin="round" stroke-miterlimit="3" d="
	M12.625,5.127c-0.1,1.2-0.15,2.366-0.15,3.5" style="stroke: rgb(0, 0, 0);"></path>
<line fill-rule="evenodd" clip-rule="evenodd" fill="none" stroke="#383635" stroke-width="0.3" stroke-linecap="round" stroke-linejoin="round" stroke-miterlimit="3" x1="1.575" y1="8.627" x2="12.475" y2="8.627" style="stroke: rgb(0, 0, 0);"></line>
</svg>