<svg version="1.1" id="Layer_1" xmlns="http://www.w3.org/2000/svg" xmlns:xlink="http://www.w3.org/1999/xlink" x="0px" y="0px" width="34.435px" height="41.7px" viewBox="0 0 34.435 41.7" enable-background="new 0 0 34.435 41.7" xml:space="preserve" class="ng-scope">
<path fill-rule="evenodd" clip-rule="evenodd" fill="#FFFFFF" d="M30.274,15.575c-0.666-0.367-1.333-0.684-2-0.95
	c-0.5-0.101-0.866-0.034-1.1,0.2l-0.351,0.35l0.301,0.05l0.1,0.05c0.1,0.134,0.217,0.384,0.35,0.75c0.2,0.434,0.75,0.884,1.65,1.351
	c0.7,0.366,1.167,0.533,1.4,0.5c0.3-0.101,0.6,0,0.899,0.3c0.066,0,0.15,0.066,0.25,0.2l0.2-0.15l0.05-0.1l-0.149-0.2
	c0.066-0.267,0.033-0.517-0.101-0.75C31.541,16.675,31.041,16.142,30.274,15.575c0.767,0.566,1.267,1.1,1.5,1.6
	c0.134,0.233,0.167,0.483,0.101,0.75l0.149,0.2l-0.05,0.1l-0.2,0.15c-0.1-0.134-0.184-0.2-0.25-0.2c-0.3-0.3-0.6-0.4-0.899-0.3
	c-0.233,0.033-0.7-0.134-1.4-0.5c-0.9-0.467-1.45-0.917-1.65-1.351c-0.133-0.366-0.25-0.616-0.35-0.75l-0.1-0.05l-0.301-0.05
	l0.351-0.35c0.233-0.234,0.6-0.301,1.1-0.2C28.941,14.892,29.608,15.208,30.274,15.575z"></path>
<path fill-rule="evenodd" clip-rule="evenodd" fill="#FFFFFF" d="M25.824,27.975c3.601-3.366,5.65-5.733,6.15-7.1
	c0.4-1,0.55-1.934,0.45-2.8c-0.033-0.134-0.066-0.25-0.101-0.351c-0.033-0.2-0.1-0.417-0.199-0.649
	c-0.134-0.367-0.367-0.734-0.7-1.101c-0.601-0.966-1.584-1.5-2.95-1.6l-0.2,0.05c-0.166-0.066-0.533-0.033-1.1,0.1
	c-1.4,0.268-2.983,1.051-4.75,2.351v7.7v-7.7c1.767-1.3,3.35-2.083,4.75-2.351c0.566-0.133,0.934-0.166,1.1-0.1l0.2-0.05
	c1.366,0.1,2.35,0.634,2.95,1.6c0.333,0.366,0.566,0.733,0.7,1.101c0.1,0.232,0.166,0.449,0.199,0.649
	c0.034,0.101,0.067,0.217,0.101,0.351c0.1,0.866-0.05,1.8-0.45,2.8C31.475,22.241,29.425,24.608,25.824,27.975z"></path>
<path fill-rule="evenodd" clip-rule="evenodd" fill="#FFFFFF" d="M22.425,24.575v17h-22.3V0.125h22.3v14.45
	c1.434-0.934,2.883-1.566,4.35-1.9c2.101-0.533,3.983,0.066,5.65,1.8c1.7,1.767,2.25,3.767,1.649,6c-0.5,1.866-2.517,4.434-6.05,7.7
	l-0.649,0.65c-0.101,0.133-0.267,0.166-0.5,0.1c-0.167-0.066-0.284-0.15-0.351-0.25l-0.7-0.7L22.425,24.575z"></path>
<path fill-rule="evenodd" clip-rule="evenodd" fill="#FFFFFF" d="M22.425,16.875v-2.3V16.875z"></path>
<path fill-rule="evenodd" clip-rule="evenodd" fill="none" stroke="#383635" stroke-width="0.3" d="M30.274,15.575
	c-0.666-0.367-1.333-0.684-2-0.95c-0.5-0.101-0.866-0.034-1.1,0.2l-0.351,0.35l0.301,0.05l0.1,0.05c0.1,0.134,0.217,0.384,0.35,0.75
	c0.2,0.434,0.75,0.884,1.65,1.351c0.7,0.366,1.167,0.533,1.4,0.5c0.3-0.101,0.6,0,0.899,0.3c0.066,0,0.15,0.066,0.25,0.2l0.2-0.15
	l0.05-0.1l-0.149-0.2c0.066-0.267,0.033-0.517-0.101-0.75C31.541,16.675,31.041,16.142,30.274,15.575z" style="stroke: rgb(0, 0, 0);"></path>
<path fill-rule="evenodd" clip-rule="evenodd" fill="none" stroke="#383635" stroke-width="0.3" d="M25.824,27.975
	c3.601-3.366,5.65-5.733,6.15-7.1c0.4-1,0.55-1.934,0.45-2.8c-0.033-0.134-0.066-0.25-0.101-0.351c-0.033-0.2-0.1-0.417-0.199-0.649
	c-0.134-0.367-0.367-0.734-0.7-1.101c-0.601-0.966-1.584-1.5-2.95-1.6l-0.2,0.05c-0.166-0.066-0.533-0.033-1.1,0.1
	c-1.4,0.268-2.983,1.051-4.75,2.351v7.7L25.824,27.975z" style="stroke: rgb(0, 0, 0);"></path>
<path fill-rule="evenodd" clip-rule="evenodd" fill="none" stroke="#383635" stroke-width="0.3" d="M22.425,24.575v17h-22.3V0.125
	h22.3v14.45c1.434-0.934,2.883-1.566,4.35-1.9c2.101-0.533,3.983,0.066,5.65,1.8c1.7,1.767,2.25,3.767,1.649,6
	c-0.5,1.866-2.517,4.434-6.05,7.7l-0.649,0.65c-0.101,0.133-0.267,0.166-0.5,0.1c-0.167-0.066-0.284-0.15-0.351-0.25l-0.7-0.7" style="stroke: rgb(0, 0, 0);"></path>
<line fill-rule="evenodd" clip-rule="evenodd" fill="none" stroke="#383635" stroke-width="0.3" x1="22.425" y1="16.875" x2="22.425" y2="14.575" style="stroke: rgb(0, 0, 0);"></line>
</svg>