<svg xmlns="http://www.w3.org/2000/svg" width="24" height="24" viewBox="0 0 20 11.98"><g id="Layer_2" data-name="Layer 2"><g id="camera-pano_icon_static" data-name="camera-pano icon static"><path class="cls-1" d="M1.32,6A10.6,10.6,0,0,1,2.37,4.32l1.14.79c-.26.35-.44.7-.62.88C5.09,9.67,9,11.6,12.72,10l.53,1.32C9,13.09,4,11.25,1.32,6Zm18,5.88L0,1.34.7.11l3.69,2C9.21-1.91,15.61,0,18.68,6a10.51,10.51,0,0,1-2,2.81L20,10.64ZM13.16,7l2.19,1.23A9.23,9.23,0,0,0,17,6c-2.63-4.3-7.37-6-11.32-3.16l1.76,1A3.33,3.33,0,0,1,13.16,7ZM8.77,4.5l3.16,1.75A2,2,0,0,0,8.77,4.5ZM7,7.48l1.23-.61a1.94,1.94,0,0,0,2.1,1l.26,1.4A3.46,3.46,0,0,1,7,7.48Z"></path></g></g></svg>