<svg xmlns="http://www.w3.org/2000/svg" width="15" height="15" viewBox="0 0 20 20"><g id="_20x20" data-name="20x20"><g id="flip-horiz"><path d="M1.5,4.07,6.6,10,1.5,15.93V4.07M1,1.7a1,1,0,0,0-1,1V17.29a1,1,0,0,0,1,1A1,1,0,0,0,1.76,18L8,10.66A1,1,0,0,0,8,9.34L1.76,2.05A1,1,0,0,0,1,1.7Z"></path><path d="M12,9.35l6.27-7.29A1,1,0,0,1,20,2.71V17.29a1,1,0,0,1-1.76.65L12,10.65A1,1,0,0,1,12,9.35Z"></path><circle cx="10" cy="1.87" r="0.62"></circle><circle cx="10" cy="4.58" r="0.62"></circle><circle cx="10" cy="7.29" r="0.62"></circle><circle cx="10" cy="10" r="0.62"></circle><circle cx="10" cy="12.71" r="0.62"></circle><circle cx="10" cy="15.42" r="0.62"></circle><circle cx="10" cy="18.13" r="0.62"></circle></g></g></svg>