<svg xmlns="http://www.w3.org/2000/svg" width="20" height="20" viewBox="0 0 20 20"><g id="_20x20" data-name="20x20"><g id="show-ui"><path d="M15.41,11.38A6.8,6.8,0,0,0,10,8.25a6.8,6.8,0,0,0-5.43,3.13l-.63,1,.63,1.06A6.8,6.8,0,0,0,10,16.62a6.8,6.8,0,0,0,5.43-3.13L16,12.43ZM14.55,13A5.83,5.83,0,0,1,10,15.62,5.85,5.85,0,0,1,5.41,13l-.33-.54.32-.53A5.88,5.88,0,0,1,10,9.25a5.88,5.88,0,0,1,4.57,2.64l.32.54Z"></path><path d="M10,10.13a2.3,2.3,0,1,0,2.3,2.3A2.31,2.31,0,0,0,10,10.13Zm0,3.6a1.3,1.3,0,1,1,1.3-1.3A1.3,1.3,0,0,1,10,13.73Z"></path><path d="M0,0V20H20V0ZM18.5,1.5V5.29H1.5V1.5Zm-17,17V6.29h17V18.5Z"></path><rect x="3.21" y="2.92" width="4.38" height="1"></rect><circle cx="13.46" cy="3.42" r="1"></circle><circle cx="16.54" cy="3.42" r="1"></circle></g></g></svg>