<svg xmlns="http://www.w3.org/2000/svg" width="20" height="20" viewBox="0 0 20 20"><g id="_20x20" data-name="20x20"><g id="hide-ui"><path d="M0,0V20H20V0ZM18.5,1.5V5.29H1.5V1.5Zm-17,17V6.29h17V18.5Z"></path><rect x="3.21" y="2.92" width="4.38" height="1"></rect><circle cx="13.46" cy="3.42" r="1"></circle><circle cx="16.54" cy="3.42" r="1"></circle><path d="M3.92,12.47a9.66,9.66,0,0,1,.74-1.17l.8.56c-.19.24-.31.49-.43.61,1.53,2.59,4.23,3.94,6.87,2.83l.37.92C9.32,17.45,5.82,16.16,3.92,12.47Zm12.59,4.12L3,9.21l.49-.86L6.07,9.77c3.38-2.83,7.86-1.48,10,2.7a7.59,7.59,0,0,1-1.41,2L17,15.73Zm-4.3-3.44,1.54.86a6.25,6.25,0,0,0,1.16-1.54c-1.84-3-5.16-4.24-7.92-2.21l1.23.68A2.33,2.33,0,0,1,12.21,13.15ZM9.14,11.43l2.21,1.23A1.36,1.36,0,0,0,9.14,11.43Z"></path></g></g></svg>