<svg xmlns="http://www.w3.org/2000/svg" width="15" height="15" viewBox="0 0 20 20"><g id="_20x20" data-name="20x20"><g id="lock"><path d="M17,5.34h-.52V3.63A3.65,3.65,0,0,0,12.84,0H7.16A3.65,3.65,0,0,0,3.51,3.63V5.34H3a2,2,0,0,0-2,2V18a2,2,0,0,0,2,2H17a2,2,0,0,0,2-2V7.32A2,2,0,0,0,17,5.34ZM5,3.63A2.16,2.16,0,0,1,7.16,1.48h5.68A2.16,2.16,0,0,1,15,3.63V5.34H5ZM17.51,18a.51.51,0,0,1-.5.5H3a.51.51,0,0,1-.5-.5V7.32A.5.5,0,0,1,3,6.83H17a.5.5,0,0,1,.5.49Z"></path><path d="M10,14.08a2.54,2.54,0,1,0-2.55-2.53A2.54,2.54,0,0,0,10,14.08Z"></path><path d="M15.74,16.22H4.26a.5.5,0,1,0,0,1H15.74a.5.5,0,1,0,0-1Z"></path></g></g></svg>