<svg xmlns="http://www.w3.org/2000/svg" width="44" height="39" viewBox="0 0 30 28"><path d="M15.11,0a.5.5,0,0,0-.5.5v1a.5.5,0,0,0,.5.5.5.5,0,0,0,.5-.5V1H29V14.39h-.5a.5.5,0,0,0-.5.5.5.5,0,0,0,.5.5h1a.5.5,0,0,0,.5-.5V0Z"></path><path d="M20.87,14.39H19a.5.5,0,0,0-.5.5.5.5,0,0,0,.5.5h1.9a.5.5,0,0,0,.5-.5A.5.5,0,0,0,20.87,14.39Z"></path><path d="M25.64,14.39H23.73a.51.51,0,0,0-.5.5.5.5,0,0,0,.5.5h1.91a.5.5,0,0,0,.5-.5A.5.5,0,0,0,25.64,14.39Z"></path><path d="M16.11,14.39h-.5v-.5a.51.51,0,0,0-.5-.5.5.5,0,0,0-.5.5v1.5h1.5a.5.5,0,0,0,.5-.5A.51.51,0,0,0,16.11,14.39Z"></path><path d="M15.11,11.53a.5.5,0,0,0,.5-.5V9.13a.5.5,0,0,0-.5-.5.5.5,0,0,0-.5.5V11A.5.5,0,0,0,15.11,11.53Z"></path><path d="M15.11,6.77a.51.51,0,0,0,.5-.5V4.36a.5.5,0,0,0-.5-.5.5.5,0,0,0-.5.5V6.27A.5.5,0,0,0,15.11,6.77Z"></path><polygon points="25.88 8.45 25.88 6.95 23.05 6.95 23.05 4.12 21.55 4.12 21.55 6.95 18.73 6.95 18.73 8.45 21.55 8.45 21.55 11.27 23.05 11.27 23.05 8.45 25.88 8.45"></polygon><path d="M26.41,16.87v3.87H15.49V22h2.73V26.7h-7V8.63H9.88V14.4H1.3V3.69H13.18V2.39H0V28H19.51V22h8.2V16.87ZM1.3,15.7H9.88v11H1.3Z"></path></svg>