<svg xmlns="http://www.w3.org/2000/svg" viewBox="0 0 26 26"><g id="Layer_2" data-name="Layer 2"><g id="Layer_1-2" data-name="Layer 1"><line class="cls-2" x1="10.67" y1="14.73" x2="19.17" y2="14.73"></line><line class="cls-2" x1="14.92" y1="10.48" x2="14.92" y2="18.98"></line><path class="cls-3" d="M7.13,7,7.52,19.9a1,1,0,0,0,1,1h8.64a1,1,0,0,0,1-1L18.55,7Z"></path><path class="cls-4" d="M19.15,7.44h.77a.58.58,0,0,0,.58-.56.57.57,0,0,0-.56-.58H16.31V5.73A1.34,1.34,0,0,0,15,4.4H10.8A1.34,1.34,0,0,0,9.47,5.73V6.3H5.8a.56.56,0,0,0-.54.6.57.57,0,0,0,.6.54H19.15Z"></path><path class="cls-5" d="M10.22,9.33a.57.57,0,0,0-.56.57h0v8a.57.57,0,1,0,1.14,0v-8a.56.56,0,0,0-.56-.58Z"></path><path class="cls-5" d="M12.88,9.33a.57.57,0,0,0-.56.57h0v8a.57.57,0,1,0,1.14,0v-8a.56.56,0,0,0-.56-.58Z"></path><path class="cls-5" d="M15.54,9.33A.57.57,0,0,0,15,9.9h0v8a.58.58,0,0,0,.56.58.57.57,0,0,0,.58-.56v-8a.56.56,0,0,0-.56-.58Z"></path></g></g></svg>