<svg xmlns="http://www.w3.org/2000/svg" width="16" height="16" viewBox="0 0 16 16"><path d="M8,0a8,8,0,1,0,8,8A8,8,0,0,0,8,0ZM8,14.94A6.93,6.93,0,1,1,14.94,8,6.93,6.93,0,0,1,8,14.94Z"></path><path d="M9.08,12.68A3,3,0,0,1,7.89,13a1.88,1.88,0,0,1-1.24-.47,1.18,1.18,0,0,1-.44-.95,3.62,3.62,0,0,1,0-.46c0-.15.06-.33.1-.53l.5-1.88c0-.18.08-.36.11-.52a2.47,2.47,0,0,0,0-.44.66.66,0,0,0-.16-.5.82.82,0,0,0-.57-.13c-.13,0-.28-.54.34-.76a2.7,2.7,0,0,1,.9-.17,1.75,1.75,0,0,1,1.18.36,1.23,1.23,0,0,1,.43,1c0,.08,0,.23,0,.44A4.32,4.32,0,0,1,9,8.5l-.5,1.88a3.38,3.38,0,0,0-.11.52,2.16,2.16,0,0,0-.05.44.63.63,0,0,0,.18.5.92.92,0,0,0,.57.13c.13,0,.3-.18.44-.07S9.52,12.47,9.08,12.68ZM9.54,5A1.33,1.33,0,0,1,7.76,5a1.07,1.07,0,0,1-.38-.83,1.08,1.08,0,0,1,.36-.84A1.29,1.29,0,0,1,8.62,3a1.28,1.28,0,0,1,.9.34,1.08,1.08,0,0,1,.38.83A1.15,1.15,0,0,1,9.54,5Z"></path></svg>