<svg xmlns="http://www.w3.org/2000/svg" width="16" height="16" viewBox="1 0 12 12"><g id="_12x12" data-name="12x12"><g id="panel-collapse"><path d="M5.08,5.86a.56.56,0,0,1,0-.12.54.54,0,0,1,.07-.13s0-.05,0-.07L9.37.26a.65.65,0,0,1,1-.09.74.74,0,0,1,.08,1L6.62,6l3.79,4.82a.74.74,0,0,1-.08,1,.63.63,0,0,1-.44.17.68.68,0,0,1-.52-.26L5.22,6.46s0,0,0-.07a.75.75,0,0,1-.07-.12.93.93,0,0,1,0-.13s0-.09,0-.14S5.08,5.91,5.08,5.86Z"></path><path d="M2.07,0a.65.65,0,0,1,.64.67V11.33a.65.65,0,0,1-.64.67.66.66,0,0,1-.64-.67V.67A.66.66,0,0,1,2.07,0Z"></path></g></g></svg>