<?xml version="1.0" encoding="utf-8"?>
<!-- Generator: Adobe Illustrator 24.0.0, SVG Export Plug-In . SVG Version: 6.00 Build 0)  -->
<svg version="1.1" id="Layer_1" xmlns="http://www.w3.org/2000/svg" xmlns:xlink="http://www.w3.org/1999/xlink" x="0px" y="0px"
	 viewBox="0 0 252 61.9" style="enable-background:new 0 0 252 61.9;" xml:space="preserve">
<style type="text/css">
	.st0{fill:#025157;}
	.st1{fill:#EE7623;}
	.st2{fill:#BFB7B0;}
</style>
<g>
	<g>
		<g>
			<path class="st0" d="M65.2,22.9c4.6,0,6.5-1.9,6.5-6.6v-5.4c0-4.7-1.8-6.6-6.5-6.6h-4.8v18.6H65.2z M57.2,1.3h8.5
				c6.4,0,9.3,3,9.3,9.5v5.5c0,6.5-2.9,9.5-9.3,9.5h-8.5V1.3z"/>
		</g>
		<g>
			<path class="st0" d="M95.3,16.5v-5.9c0-4.7-2-6.8-6.3-6.8s-6.3,2.1-6.3,6.8v5.9c0,4.7,2,6.8,6.3,6.8
				C93.4,23.3,95.3,21.2,95.3,16.5 M79.5,16.5v-5.9c0-6.5,3.1-9.8,9.5-9.8s9.5,3.3,9.5,9.8v5.9c0,6.5-3.1,9.8-9.5,9.8
				S79.5,23,79.5,16.5"/>
		</g>
	</g>
	<polygon class="st0" points="128.2,1.3 123.2,20.6 117.9,1.3 114.7,1.3 109.4,20.5 104.4,1.3 101.1,1.3 107.7,25.9 111,25.9 
		116.3,6.8 121.5,25.9 124.9,25.9 131.5,1.3 	"/>
	<polygon class="st0" points="150.3,1.3 150.3,20 139,1.3 135.2,1.3 135.2,25.9 138.3,25.9 138.3,6.1 150.3,25.9 153.5,25.9 
		153.5,1.3 	"/>
	<polygon class="st0" points="157.1,1.3 157.1,4.3 164.3,4.3 164.3,25.9 167.6,25.9 167.6,4.3 174.8,4.3 174.8,1.3 	"/>
	<g>
		<g>
			<path class="st0" d="M192.8,16.5v-5.9c0-4.7-2-6.8-6.3-6.8s-6.3,2.1-6.3,6.8v5.9c0,4.7,2,6.8,6.3,6.8
				C190.9,23.3,192.8,21.2,192.8,16.5 M177,16.5v-5.9c0-6.5,3.1-9.8,9.5-9.8s9.5,3.3,9.5,9.8v5.9c0,6.5-3.1,9.8-9.5,9.8
				C180.2,26.3,177,23,177,16.5"/>
		</g>
	</g>
	<polygon class="st0" points="225.8,1.3 220.7,20.6 215.4,1.3 212.2,1.3 207,20.5 201.9,1.3 198.6,1.3 205.2,25.9 208.5,25.9 
		213.8,6.8 219.1,25.9 222.4,25.9 229,1.3 	"/>
	<polygon class="st0" points="247.9,1.3 247.9,20 236.6,1.3 232.7,1.3 232.7,25.9 235.8,25.9 235.8,6.1 247.8,25.9 251,25.9 
		251,1.3 	"/>
	<g>
		<g>
			<path class="st0" d="M39.1,57.7c3.7,0,5.1-1.2,5.1-4c0-2.9-1.5-4-5.5-4h-6.1v8.1L39.1,57.7L39.1,57.7z M38.6,46.7
				c3.4,0,4.8-1,4.8-3.8c0-2.7-1.4-3.8-4.8-3.8h-6v7.6C32.6,46.7,38.6,46.7,38.6,46.7z M29.3,36.1h9.5c5.3,0,7.8,2,7.8,6.4
				c0,2.7-1,4.5-3.2,5.3v0.1c2.8,0.9,4,2.8,4,6c0,4.6-2.5,6.8-7.9,6.8H29.3V36.1z"/>
		</g>
		<g>
			<path class="st0" d="M61.6,47.8c3.7,0,5-1.2,5-4.3c0-3.1-1.3-4.3-5-4.3h-5.9v8.7L61.6,47.8L61.6,47.8z M52.4,36.1h9.4
				c5.6,0,7.9,2.1,7.9,7.3c0,4.2-1.5,6.4-5.1,7.1l6,10.2h-3.8l-5.9-10h-5.4v10h-3.3V36.1H52.4z"/>
		</g>
	</g>
	<path class="st0" d="M82.8,40.3l3.9,11.2h-7.8L82.8,40.3z M81.2,36.1l-9,24.6h3.4l2.2-6.3h9.9l2.2,6.3h3.5l-9-24.6H81.2z"/>
	<polygon class="st0" points="116.8,36.1 109.4,55.4 102,36.1 97.1,36.1 97.1,60.7 100.2,60.7 100.2,40.2 108.1,60.7 110.5,60.7 
		118.4,40.3 118.4,60.7 121.6,60.7 121.6,36.1 	"/>
	<g>
		<g>
			<path class="st0" d="M138,57.7c3.7,0,5.1-1.2,5.1-4c0-2.9-1.5-4-5.5-4h-6.1v8.1L138,57.7L138,57.7z M137.6,46.7
				c3.4,0,4.8-1,4.8-3.8c0-2.7-1.4-3.8-4.8-3.8h-6v7.6C131.6,46.7,137.6,46.7,137.6,46.7z M128.3,36.1h9.5c5.3,0,7.8,2,7.8,6.4
				c0,2.7-1,4.5-3.2,5.3v0.1c2.8,0.9,4,2.8,4,6c0,4.6-2.5,6.8-7.9,6.8h-10.2L128.3,36.1L128.3,36.1z"/>
		</g>
	</g>
	<polygon class="st0" points="151.4,36.1 151.4,60.7 166.5,60.7 166.5,57.7 154.6,57.7 154.6,36.1 	"/>
	<polygon class="st0" points="170.1,36.1 170.1,60.7 186.5,60.7 186.5,57.7 173.3,57.7 173.3,49.6 184.3,49.6 184.3,46.6 
		173.3,46.6 173.3,39.1 186.2,39.1 186.2,36.1 	"/>
	<polygon class="st0" points="188.1,36.1 188.1,39.1 195.3,39.1 195.3,60.7 198.6,60.7 198.6,39.1 205.8,39.1 205.8,36.1 	"/>
	<g>
		<g>
			<path class="st0" d="M223.8,51.3v-5.9c0-4.7-2-6.8-6.3-6.8s-6.3,2.1-6.3,6.8v5.9c0,4.7,2,6.8,6.3,6.8
				C221.9,58.2,223.8,56,223.8,51.3 M208,51.3v-5.9c0-6.5,3.1-9.8,9.5-9.8s9.5,3.3,9.5,9.8v5.9c0,6.5-3.1,9.8-9.5,9.8
				C211.2,61.1,208,57.8,208,51.3"/>
		</g>
	</g>
	<polygon class="st0" points="247.9,36.1 247.9,54.8 236.6,36.1 232.7,36.1 232.7,60.7 235.8,60.7 235.8,40.9 247.8,60.7 251,60.7 
		251,36.1 	"/>
	<polygon class="st1" points="4.8,60.4 17.9,60.4 17.9,57.8 12.8,57.8 17.9,54.9 17.9,51.8 10.7,56 5,52.2 5,55.2 9.1,57.8 
		4.8,57.8 	"/>
	<g>
		<g>
			<path class="st1" d="M7.3,46.1v2.3h10.6V51H5v-2.6h0.3l-0.4-3c0-1.5,0.8-1.8,1.7-1.8H18v2.6L7.3,46.1L7.3,46.1z"/>
		</g>
		<g>
			<path class="st1" d="M15.7,39v-2.3H5v-2.6h12.9v2.4h-0.4l0.6,3.2c0,1.5-0.8,1.8-1.7,1.8H5V39H15.7z"/>
		</g>
		<g>
			<path class="st1" d="M5,31.7H1v-2.6h4V27h2.2v2.1h8.6v-1.7h2.1V30c0,1.3-0.8,1.7-1.6,1.7H7.1v1.6H5V31.7z"/>
		</g>
		<g>
			<path class="st1" d="M8.5,23.9l3.6-3.8c0.5-0.5,1-0.7,1.5-0.7h2.7c0.9,0,1.6,0.3,1.6,1.5v4c0,1.2-0.8,1.5-1.6,1.5h-2.5v-2.6h2V22
				H14l-3.8,4C10,26.3,9.4,26.4,9,26.4H6.7c-0.8,0-1.6-0.3-1.6-1.5v-4c0-1.2,0.8-1.5,1.6-1.5h2.4V22H7.2v1.9H8.5z"/>
		</g>
		<g>
			<path class="st1" d="M16.3,10.5c0.9,0,1.6,0.5,1.6,1.8v4c0,1.3-0.8,1.6-1.6,1.6H6.6c-0.9,0-1.6-0.3-1.6-1.6v-4
				c0-1.3,0.8-1.8,1.6-1.8H16.3z M7.2,15.4h8.6v-2.3H7.2C7.2,13.1,7.2,15.4,7.2,15.4z"/>
		</g>
		<g>
			<path class="st1" d="M7.3,3.7V6h10.6v2.6H5V6h0.3L4.9,3c0-1.5,0.8-1.8,1.7-1.8H18v2.6L7.3,3.7L7.3,3.7z"/>
		</g>
		<g>
			<path class="st0" d="M35.9,16.7v-1.3H34c-1.5,0-2.1,0.5-2.1,1.4c0,0.9,0.5,1.4,1.6,1.4C34.5,18.3,35.4,17.8,35.9,16.7 M29.5,17.1
				c0-2.1,1.4-3.3,4.2-3.3h2.2v-0.5c0-1.3-0.6-1.9-1.9-1.9c-1.2,0-1.8,0.5-1.9,1.5h-2.3c0.2-2.3,1.5-3.4,4.3-3.4s4.2,1.2,4.2,3.9V20
				h-2l-0.1-1.3c-0.8,1-1.8,1.6-3.3,1.6C30.8,20.2,29.5,19.1,29.5,17.1"/>
		</g>
		<g>
			<path class="st0" d="M41.2,16.7v-5.1h-1.6V9.8h1.7l0.2-2.6h2.2v2.6H46v1.8h-2.3v5.1c0,1.1,0.3,1.4,1.3,1.4h1V20h-1.9
				C42.1,20,41.2,19,41.2,16.7"/>
		</g>
	</g>
	<rect x="29.3" y="1.2" class="st2" width="17.2" height="3.1"/>
	<rect x="29.3" y="22.8" class="st2" width="17.2" height="3.1"/>
</g>
</svg>
