<svg xmlns="http://www.w3.org/2000/svg" width="18" height="18" viewBox="0 0 18 18"><g id="_18x18" data-name="18x18"><g id="print"><path d="M16.55,6H13.83V3.79L11.72,1H4.17V6H1.45A1.46,1.46,0,0,0,0,7.45v5.87a1.46,1.46,0,0,0,1.45,1.47H3.78V17H14.22V14.79h2.33A1.46,1.46,0,0,0,18,13.32V7.45A1.46,1.46,0,0,0,16.55,6ZM5.2,2h6L12.8,4.14V6H5.2ZM13.2,16H4.8V11.5h8.4ZM17,13.32a.44.44,0,0,1-.43.44H14.22V10.47H3.78v.14L2.52,13.76H1.45A.44.44,0,0,1,1,13.32V7.45A.43.43,0,0,1,1.45,7h15.1a.43.43,0,0,1,.43.43Z"></path><rect x="6.17" y="12.55" width="5.66" height="0.77"></rect><rect x="6.17" y="14.14" width="5.66" height="0.77"></rect><path d="M15.22,8a.81.81,0,1,0,.8.81A.8.8,0,0,0,15.22,8Z"></path></g></g></svg>