<svg xmlns="http://www.w3.org/2000/svg" width="20" height="20" viewBox="0 0 20 20"><g id="_20x20" data-name="20x20"><g id="measure"><path d="M20,4a.49.49,0,0,0,0-.12.49.49,0,0,0,0-.12l0-.11-.06-.11s0,0,0-.06L17.76,1a.62.62,0,0,0-1,.8l1.26,1.51H2L3.22,1.77A.62.62,0,0,0,3.14.89.63.63,0,0,0,2.26,1L.16,3.5s0,0,0,.06a.24.24,0,0,0-.06.11.49.49,0,0,0,0,.11s0,.08,0,.12S0,4,0,4a.49.49,0,0,0,0,.11.3.3,0,0,0,.06.11s0,0,0,.06l2.1,2.52a.63.63,0,0,0,.48.23.62.62,0,0,0,.4-.15A.61.61,0,0,0,3.22,6L2,4.52H18.06L16.8,6a.62.62,0,1,0,1,.79l2.1-2.52s0,0,0-.06L20,4.13Z"></path><path d="M0,9.37v9.88H20V9.37Zm18.48,8.38H1.5V10.87H3.92v2.76a.5.5,0,1,0,1,0V10.87H6.7v3.6a.5.5,0,0,0,.5.5.5.5,0,0,0,.5-.5v-3.6H9.49v2.76a.5.5,0,0,0,1,0V10.87h1.79v3.6a.5.5,0,0,0,.5.5.5.5,0,0,0,.5-.5v-3.6h1.78v2.76a.51.51,0,0,0,.5.5.5.5,0,0,0,.5-.5V10.87h2.42Z"></path></g></g></svg>