<svg xmlns="http://www.w3.org/2000/svg" width="24" height="24" viewBox="0 0 24 24"><g id="_24x24" data-name="24x24"><g id="zoom-control"><circle fill="#ee7623" cx="12" cy="12" r="12"></circle><path d="M14.25,15,12,16.84,9.75,15a.62.62,0,0,0-.8,1l2.65,2.21a.33.33,0,0,0,.1.06l.06,0a.53.53,0,0,0,.24.06h0a.53.53,0,0,0,.24-.06l.06,0a.33.33,0,0,0,.1-.06l2.65-2.21a.62.62,0,0,0-.8-1Z" fill="#fff"></path><path d="M9.35,9.18A.61.61,0,0,0,9.75,9L12,7.16,14.25,9A.64.64,0,0,0,15.13,9a.63.63,0,0,0-.08-.88L12.4,5.87s0,0-.06,0a.3.3,0,0,0-.11-.06.23.23,0,0,0-.11,0l-.12,0-.12,0a.23.23,0,0,0-.11,0,.3.3,0,0,0-.11.06s0,0-.06,0L9,8.08A.63.63,0,0,0,8.87,9,.61.61,0,0,0,9.35,9.18Z" fill="#fff"></path></g></g></svg>